<svg width="148" height="148" viewBox="0 0 148 148" fill="none" xmlns="http://www.w3.org/2000/svg">
  <symbol id="item" viewBox="0 0 148 148"  fill="none">
    <g clip-path="url(#a)" fill="currentColor"><g opacity=".25"><path fill-rule="evenodd" clip-rule="evenodd" d="M2.253 63.86a1.127 1.127 0 1 1 1.126 1.951 1.127 1.127 0 0 1-1.126-1.95Zm14.14-7.96a1.127 1.127 0 1 1 1.128 1.95 1.127 1.127 0 0 1-1.127-1.95Zm13.666-7.89a1.127 1.127 0 1 1 1.127 1.95 1.127 1.127 0 0 1-1.127-1.95Zm-7.396 2.969a2.254 2.254 0 1 1 2.254 3.903 2.254 2.254 0 0 1-2.254-3.903ZM43.725 40.12a1.126 1.126 0 1 1 1.127 1.95 1.126 1.126 0 0 1-1.127-1.95Zm13.666-7.89a1.126 1.126 0 1 1 1.127 1.95 1.126 1.126 0 0 1-1.127-1.95ZM49.994 35.2a2.255 2.255 0 1 1 2.255 3.906 2.255 2.255 0 0 1-2.255-3.906ZM71.2 24.106a1.128 1.128 0 1 1 1.127 1.954 1.128 1.128 0 0 1-1.127-1.954Zm13.35-7.728a1.126 1.126 0 1 1 1.127 1.951 1.126 1.126 0 0 1-1.126-1.95Zm-7.354 3.006a2.255 2.255 0 1 1 2.254 3.905 2.255 2.255 0 0 1-2.254-3.905ZM5.085 68.83a2.254 2.254 0 1 1 2.254 3.904 2.254 2.254 0 0 1-2.254-3.904Zm7.47-2.998a1.128 1.128 0 1 1 1.127 1.954 1.128 1.128 0 0 1-1.127-1.954Zm14.053-8.02a1.128 1.128 0 1 1 1.128 1.954 1.128 1.128 0 0 1-1.128-1.954Zm-7.772 3.03a2.254 2.254 0 1 1 2.254 3.904 2.254 2.254 0 0 1-2.254-3.904Zm14.041-7.951a2.253 2.253 0 1 1 2.254 3.902 2.253 2.253 0 0 1-2.254-3.902Zm7.397-2.97a1.128 1.128 0 1 1 1.127 1.955 1.128 1.128 0 0 1-1.127-1.954Zm13.665-7.89a1.127 1.127 0 1 1 1.127 1.952 1.127 1.127 0 0 1-1.127-1.951Zm-7.396 2.97a2.254 2.254 0 1 1 2.254 3.903 2.254 2.254 0 0 1-2.254-3.903Zm13.178-7.608a2.253 2.253 0 1 1 2.253 3.902 2.253 2.253 0 0 1-2.253-3.903Zm8.062-3.5a1.127 1.127 0 1 1 1.127 1.951 1.127 1.127 0 0 1-1.127-1.95ZM81.62 25.98a1.128 1.128 0 1 1 1.128 1.954 1.128 1.128 0 0 1-1.128-1.954Zm-7.53 2.983a2.254 2.254 0 1 1 2.255 3.904 2.254 2.254 0 0 1-2.254-3.904Zm-58.73 41.781a2.253 2.253 0 1 1 2.254 3.902 2.253 2.253 0 0 1-2.254-3.902Zm7.795-3.13a1.127 1.127 0 1 1 1.127 1.951 1.127 1.127 0 0 1-1.127-1.952Zm13.666-7.89a1.128 1.128 0 1 1 1.128 1.953 1.128 1.128 0 0 1-1.128-1.954Zm-7.396 2.968a2.254 2.254 0 1 1 2.254 3.905 2.254 2.254 0 0 1-2.254-3.905Zm13.665-7.89a2.253 2.253 0 1 1 2.254 3.903 2.253 2.253 0 0 1-2.254-3.903Zm7.397-2.969a1.129 1.129 0 0 1 1.652 1.268 1.127 1.127 0 1 1-1.652-1.268Zm13.665-7.89a1.128 1.128 0 1 1 1.128 1.955 1.128 1.128 0 0 1-1.128-1.955Zm-7.396 2.97a2.253 2.253 0 1 1 2.254 3.902 2.253 2.253 0 0 1-2.254-3.903Zm13.818-8.098a2.254 2.254 0 1 1 2.254 3.905 2.254 2.254 0 0 1-2.254-3.905Zm7.515-2.91a1.127 1.127 0 1 1 1.127 1.951 1.127 1.127 0 0 1-1.127-1.95Zm13.373-7.683a1.128 1.128 0 1 1 1.127 1.954 1.128 1.128 0 0 1-1.127-1.954Zm-7.43 2.906a2.253 2.253 0 1 1 2.253 3.902 2.253 2.253 0 0 1-2.253-3.902ZM11.937 80.644a2.253 2.253 0 1 1 2.254 3.903 2.253 2.253 0 0 1-2.254-3.903Zm7.397-3.005a1.127 1.127 0 1 1 1.127 1.951 1.127 1.127 0 0 1-1.127-1.951Zm14.037-8.114a1.126 1.126 0 1 1 1.126 1.95 1.126 1.126 0 0 1-1.126-1.95Zm6.139-4.811a2.254 2.254 0 1 1 2.253 3.904 2.254 2.254 0 0 1-2.253-3.904Zm7.526-3.079a1.126 1.126 0 1 1 1.127 1.95 1.126 1.126 0 0 1-1.127-1.95Zm13.666-7.89a1.127 1.127 0 1 1 1.127 1.952 1.127 1.127 0 0 1-1.127-1.952Zm-7.396 2.969a2.255 2.255 0 1 1 2.254 3.906 2.255 2.255 0 0 1-2.254-3.906Zm13.78-7.87a2.255 2.255 0 1 1 2.255 3.906 2.255 2.255 0 0 1-2.254-3.906Zm7.665-2.946a1.127 1.127 0 1 1 1.127 1.951 1.127 1.127 0 0 1-1.127-1.95Zm13.718-7.981a1.127 1.127 0 1 1 1.127 1.95 1.127 1.127 0 0 1-1.127-1.95Zm-7.465 2.867a2.253 2.253 0 1 1 2.254 3.902 2.253 2.253 0 0 1-2.254-3.902ZM15.893 87.657a1.128 1.128 0 1 1 1.128 1.955 1.128 1.128 0 0 1-1.128-1.955Zm6.302-5a2.255 2.255 0 1 1 2.254 3.906 2.255 2.255 0 0 1-2.255-3.906Zm7.54-2.971a1.126 1.126 0 1 1 1.127 1.95 1.126 1.126 0 0 1-1.127-1.95Zm13.85-8.25a1.127 1.127 0 1 1 1.127 1.952 1.127 1.127 0 0 1-1.127-1.951Zm-7.583 3.259a2.255 2.255 0 1 1 2.254 3.906 2.255 2.255 0 0 1-2.254-3.906Zm13.852-8.18a2.255 2.255 0 1 1 2.255 3.906 2.255 2.255 0 0 1-2.255-3.905Zm7.397-2.968a1.127 1.127 0 1 1 1.126 1.95 1.127 1.127 0 0 1-1.126-1.95Zm13.665-7.89a1.127 1.127 0 1 1 1.127 1.951 1.127 1.127 0 0 1-1.127-1.951Zm-7.396 2.969a2.255 2.255 0 1 1 2.254 3.905 2.255 2.255 0 0 1-2.254-3.905Zm13.933-7.958a2.253 2.253 0 1 1 2.254 3.903 2.253 2.253 0 0 1-2.254-3.903Zm7.639-2.923a1.127 1.127 0 1 1 1.127 1.952 1.127 1.127 0 0 1-1.127-1.952Zm13.233-7.667a1.128 1.128 0 1 1 1.128 1.954 1.128 1.128 0 0 1-1.128-1.954Zm-7.413 3.004a2.254 2.254 0 1 1 2.254 3.905 2.254 2.254 0 0 1-2.254-3.905ZM26.203 89.55a1.126 1.126 0 1 1 1.127 1.951 1.126 1.126 0 0 1-1.127-1.95Zm13.838-8.03a1.127 1.127 0 1 1 1.127 1.952 1.127 1.127 0 0 1-1.127-1.952Zm-7.403 3.155a2.253 2.253 0 1 1 2.254 3.902 2.253 2.253 0 0 1-2.254-3.902Zm13.719-8.15a2.254 2.254 0 1 1 2.253 3.904 2.254 2.254 0 0 1-2.253-3.904Zm7.557-2.953a1.128 1.128 0 1 1 1.128 1.953 1.128 1.128 0 0 1-1.128-1.953Zm13.55-8.113a1.127 1.127 0 1 1 1.128 1.951 1.127 1.127 0 0 1-1.127-1.951Zm-7.297 3.228a2.253 2.253 0 1 1 2.254 3.903 2.253 2.253 0 0 1-2.254-3.903Zm13.858-8.085a2.253 2.253 0 1 1 2.254 3.903 2.253 2.253 0 0 1-2.254-3.903Zm7.418-2.973a1.127 1.127 0 1 1 1.127 1.953 1.127 1.127 0 0 1-1.127-1.953Zm13.741-7.942a1.127 1.127 0 1 1 1.127 1.951 1.127 1.127 0 0 1-1.127-1.951Zm-7.39 2.972a2.255 2.255 0 1 1 2.255 3.906 2.255 2.255 0 0 1-2.255-3.906ZM36.571 91.476a1.128 1.128 0 1 1 1.128 1.955 1.128 1.128 0 0 1-1.128-1.955Zm13.912-8.102a1.128 1.128 0 1 1 1.128 1.955 1.128 1.128 0 0 1-1.128-1.955Zm-7.532 3.166a2.255 2.255 0 1 1 2.254 3.905 2.255 2.255 0 0 1-2.254-3.905Zm13.645-8.014a2.255 2.255 0 1 1 2.254 3.906 2.255 2.255 0 0 1-2.255-3.906Zm7.529-2.982a1.127 1.127 0 1 1 1.127 1.952 1.127 1.127 0 0 1-1.127-1.952Zm13.942-7.95a1.127 1.127 0 1 1 1.127 1.951 1.127 1.127 0 0 1-1.127-1.95Zm-7.591 2.915a2.253 2.253 0 1 1 2.253 3.902 2.253 2.253 0 0 1-2.253-3.902ZM84.4 62.491a2.253 2.253 0 1 1 2.254 3.903 2.253 2.253 0 0 1-2.254-3.903Zm7.397-2.87a1.127 1.127 0 1 1 1.127 1.951 1.127 1.127 0 0 1-1.127-1.952Zm13.272-7.788a1.126 1.126 0 1 1 1.127 1.95 1.126 1.126 0 0 1-1.127-1.95Zm-7.408 3.098a2.253 2.253 0 1 1 2.254 3.903 2.253 2.253 0 0 1-2.254-3.903Zm-64.626 46.485a1.129 1.129 0 1 1 .71 2.094 1.125 1.125 0 0 1-1.123-.554 1.129 1.129 0 0 1 .413-1.54Zm13.86-8.464a1.127 1.127 0 1 1 1.127 1.951 1.127 1.127 0 0 1-1.127-1.951Zm-7.482 3.493a2.253 2.253 0 1 1 2.254 3.902 2.253 2.253 0 0 1-2.254-3.902Zm13.772-7.953a2.254 2.254 0 1 1 2.254 3.905 2.254 2.254 0 0 1-2.254-3.905Zm7.47-2.989a1.127 1.127 0 1 1 1.126 1.954 1.127 1.127 0 0 1-1.127-1.953Zm13.77-8.1a1.128 1.128 0 1 1 1.127 1.953 1.128 1.128 0 0 1-1.128-1.953Zm-7.382 3.072A2.255 2.255 0 1 1 69.3 84.38a2.255 2.255 0 0 1-2.255-3.905Zm13.86-7.947a2.253 2.253 0 1 1 2.254 3.903 2.253 2.253 0 0 1-2.254-3.903Zm7.327-3a1.127 1.127 0 1 1 1.127 1.951 1.127 1.127 0 0 1-1.127-1.951Zm13.87-7.98a1.128 1.128 0 1 1 1.128 1.955 1.128 1.128 0 0 1-1.128-1.954Zm-7.437 3.044a2.255 2.255 0 1 1 2.254 3.906 2.255 2.255 0 0 1-2.254-3.906Zm-65.147 46.733a1.129 1.129 0 1 1 .71 2.094 1.125 1.125 0 0 1-1.122-.554 1.13 1.13 0 0 1 .412-1.54Zm13.817-7.996a1.127 1.127 0 1 1 1.128 1.952 1.127 1.127 0 0 1-1.128-1.952Zm13.776-8.465a1.127 1.127 0 1 1 1.127 1.951 1.127 1.127 0 0 1-1.127-1.951Zm-7.454 3.582a2.254 2.254 0 1 1 2.254 3.904 2.254 2.254 0 0 1-2.254-3.904Zm13.925-7.99a2.255 2.255 0 1 1 2.255 3.905 2.255 2.255 0 0 1-2.255-3.905Zm7.195-3.482a1.127 1.127 0 1 1 1.127 1.952 1.127 1.127 0 0 1-1.127-1.952Zm14.007-7.56a1.128 1.128 0 1 1 1.127 1.953 1.128 1.128 0 0 1-1.127-1.953Zm-7.428 3.032a2.255 2.255 0 1 1 2.254 3.905 2.255 2.255 0 0 1-2.254-3.905Zm13.759-7.99a2.253 2.253 0 1 1 2.254 3.903 2.253 2.253 0 0 1-2.254-3.902Zm7.605-3.038a1.127 1.127 0 1 1 1.127 1.952 1.127 1.127 0 0 1-1.127-1.952Zm13.305-7.712a1.126 1.126 0 1 1 1.127 1.95 1.126 1.126 0 0 1-1.127-1.95ZM32.34 116.294a2.255 2.255 0 1 1 2.253 3.906 2.255 2.255 0 0 1-2.254-3.906Zm7.502-3.089a1.129 1.129 0 0 1 1.307 1.824 1.125 1.125 0 0 1-1.72-.284 1.13 1.13 0 0 1 .413-1.54Zm13.775-7.895a1.127 1.127 0 1 1 1.125 1.954 1.127 1.127 0 0 1-1.125-1.954Zm-7.42 2.966a2.255 2.255 0 1 1 2.254 3.905 2.255 2.255 0 0 1-2.254-3.905Zm13.818-7.946a2.256 2.256 0 0 1 2.499.163 2.259 2.259 0 0 1 .805 2.372 2.255 2.255 0 1 1-3.304-2.535Zm7.487-3.062a1.127 1.127 0 1 1 1.127 1.951 1.127 1.127 0 0 1-1.127-1.951Zm6.303-4.97a2.255 2.255 0 1 1 2.254 3.907 2.255 2.255 0 0 1-2.254-3.906Zm13.883-7.885a2.254 2.254 0 1 1 2.255 3.904 2.254 2.254 0 0 1-2.254-3.904Zm7.494-3.09a1.127 1.127 0 1 1 1.126 1.95 1.127 1.127 0 0 1-1.126-1.95Zm13.724-7.893a1.128 1.128 0 1 1 1.128 1.953 1.128 1.128 0 0 1-1.128-1.953Zm-7.484 2.925a2.252 2.252 0 0 1 3.261 1.228 2.252 2.252 0 0 1-4.086 1.852 2.256 2.256 0 0 1 .825-3.08Zm-58.726 41.843a2.255 2.255 0 0 1 3.261 1.227 2.254 2.254 0 1 1-3.261-1.227Zm7.512-3.731a1.129 1.129 0 1 1 .71 2.094 1.125 1.125 0 0 1-1.123-.554 1.13 1.13 0 0 1 .413-1.54Zm13.734-7.32a1.127 1.127 0 1 1 1.125 1.953 1.127 1.127 0 0 1-1.125-1.953Zm-7.5 3.104a2.255 2.255 0 1 1 2.254 3.906 2.255 2.255 0 0 1-2.254-3.906Zm13.919-8.08a2.248 2.248 0 0 1 3.262 1.227 2.254 2.254 0 1 1-3.262-1.227Zm7.398-2.947a1.127 1.127 0 1 1 1.127 1.953 1.127 1.127 0 0 1-1.127-1.953Zm13.909-8.02a1.128 1.128 0 1 1 1.127 1.953 1.128 1.128 0 0 1-1.127-1.953Zm-7.55 3.144a2.255 2.255 0 1 1 2.254 3.906 2.255 2.255 0 0 1-2.254-3.906Zm13.855-8.018a2.254 2.254 0 1 1 2.254 3.904 2.254 2.254 0 0 1-2.254-3.904Zm7.446-3.065a1.126 1.126 0 1 1 1.127 1.95 1.126 1.126 0 0 1-1.127-1.95Zm13.33-7.742a1.126 1.126 0 1 1 1.127 1.951 1.126 1.126 0 0 1-1.127-1.95Zm-7.5 3.093a2.251 2.251 0 0 1 3.261 1.227 2.252 2.252 0 0 1-4.086 1.852 2.255 2.255 0 0 1 .825-3.08Zm-64.567 46.461a1.127 1.127 0 1 1 1.125 1.953 1.127 1.127 0 0 1-1.125-1.953Zm13.87-7.913a1.127 1.127 0 1 1 1.125 1.954 1.127 1.127 0 0 1-1.126-1.954Zm-7.484 2.953a2.255 2.255 0 1 1 2.254 3.906 2.255 2.255 0 0 1-2.254-3.906Zm13.836-7.989a2.255 2.255 0 1 1 2.254 3.905 2.255 2.255 0 0 1-2.254-3.905Zm7.395-2.999a1.128 1.128 0 1 1 1.125 1.954 1.128 1.128 0 0 1-1.125-1.954Zm13.794-7.99a1.127 1.127 0 1 1 1.126 1.954 1.127 1.127 0 0 1-1.125-1.954Zm-7.35 3.058a2.255 2.255 0 1 1 2.253 3.905 2.255 2.255 0 0 1-2.254-3.905Zm13.756-8.089a2.254 2.254 0 1 1 2.254 3.903 2.254 2.254 0 0 1-2.254-3.903Zm7.5-2.993a1.13 1.13 0 0 1 1.631.614 1.13 1.13 0 0 1-.324 1.21 1.128 1.128 0 1 1-1.307-1.824Zm13.803-7.954a1.126 1.126 0 1 1 1.127 1.951 1.126 1.126 0 0 1-1.127-1.95Zm-7.486 3.058a2.256 2.256 0 0 1 3.305 2.536 2.26 2.26 0 0 1-1.883 1.651 2.257 2.257 0 0 1-2.247-1.108 2.253 2.253 0 0 1 .825-3.079Zm-51.28 38.837a1.128 1.128 0 1 1 1.129 1.953 1.128 1.128 0 0 1-1.13-1.953Zm13.94-8.052a1.128 1.128 0 1 1 1.129 1.953 1.128 1.128 0 0 1-1.129-1.953Zm-7.621 3.059a2.255 2.255 0 1 1 2.254 3.906 2.255 2.255 0 0 1-2.254-3.906Zm13.86-7.966a2.255 2.255 0 0 1 3.262 1.227 2.254 2.254 0 1 1-3.262-1.227Zm7.386-3.027a1.127 1.127 0 1 1 1.125 1.953 1.127 1.127 0 0 1-1.125-1.953Zm13.871-7.837a1.128 1.128 0 1 1 1.13 1.953 1.128 1.128 0 0 1-1.13-1.953Zm-7.422 2.832a2.255 2.255 0 1 1 2.254 3.906 2.255 2.255 0 0 1-2.254-3.906Zm13.766-7.952a2.253 2.253 0 0 1 3.304 2.536 2.255 2.255 0 1 1-3.304-2.536Zm7.498-2.987a1.129 1.129 0 0 1 1.653 1.268 1.127 1.127 0 1 1-1.653-1.268Zm13.371-7.628a1.125 1.125 0 0 1 1.63.614 1.122 1.122 0 0 1-.324 1.21 1.126 1.126 0 0 1-1.86-.7 1.12 1.12 0 0 1 .554-1.124Zm-7.531 2.942a2.255 2.255 0 1 1 2.255 3.906 2.255 2.255 0 0 1-2.255-3.906ZM53.55 137.021a1.127 1.127 0 1 1 1.125 1.954 1.127 1.127 0 0 1-1.125-1.954Zm13.819-8.052a1.127 1.127 0 1 1 1.125 1.953 1.127 1.127 0 0 1-1.125-1.953Zm-7.588 3.044a2.255 2.255 0 1 1 2.254 3.906 2.255 2.255 0 0 1-2.254-3.906Zm21.41-11.037a1.129 1.129 0 1 1 .71 2.094 1.125 1.125 0 0 1-1.264-.971 1.128 1.128 0 0 1 .554-1.123Zm13.807-7.982a1.12 1.12 0 0 1 .638-.149 1.13 1.13 0 0 1 .67 1.972 1.126 1.126 0 1 1-1.308-1.823Zm-7.372 3.005a2.248 2.248 0 0 1 3.262 1.227 2.258 2.258 0 0 1-.648 2.42 2.252 2.252 0 0 1-3.439-.568 2.254 2.254 0 0 1 .825-3.079Zm13.801-7.913a2.256 2.256 0 0 1 3.305 2.536 2.257 2.257 0 0 1-3.175 1.438 2.251 2.251 0 0 1-1.18-2.605 2.256 2.256 0 0 1 1.05-1.369Zm7.387-3.05a1.127 1.127 0 1 1 1.125 1.953 1.127 1.127 0 0 1-1.125-1.953Zm13.857-7.998a1.126 1.126 0 1 1 1.127 1.951 1.126 1.126 0 0 1-1.127-1.95Zm-7.397 3.043a2.253 2.253 0 1 1 2.253 3.903 2.253 2.253 0 0 1-2.253-3.903Zm-51.365 38.788a1.127 1.127 0 1 1 1.125 1.953 1.127 1.127 0 0 1-1.125-1.953Zm27.615-15.995a1.127 1.127 0 1 1 1.125 1.954 1.127 1.127 0 0 1-1.125-1.954Zm13.762-7.992a1.127 1.127 0 1 1 1.125 1.953 1.127 1.127 0 0 1-1.125-1.953Zm-7.409 3.03a2.255 2.255 0 1 1 2.254 3.906 2.255 2.255 0 0 1-2.254-3.906Zm13.912-7.976a2.257 2.257 0 0 1 2.499.163 2.26 2.26 0 0 1 .114 3.484 2.251 2.251 0 0 1-3.438-.568 2.254 2.254 0 0 1 .825-3.079Zm7.343-2.888a1.127 1.127 0 1 1 1.125 1.953 1.127 1.127 0 0 1-1.125-1.953Zm13.355-7.753a1.126 1.126 0 1 1 1.127 1.951 1.126 1.126 0 0 1-1.127-1.95Zm-31.208 24.731a1.126 1.126 0 0 1 1.306 1.823 1.123 1.123 0 0 1-1.719-.283 1.127 1.127 0 0 1 .413-1.54Zm-7.397 2.969a2.248 2.248 0 0 1 3.262 1.227 2.255 2.255 0 1 1-3.262-1.227Zm13.178-7.608a2.255 2.255 0 0 1 3.262 1.227 2.252 2.252 0 0 1-.649 2.42 2.251 2.251 0 0 1-3.438-.568 2.254 2.254 0 0 1 .825-3.079Z"/><path d="M122.978 80.242a2.252 2.252 0 0 0-2.325 1.665 2.257 2.257 0 0 0 2.472 2.819 2.254 2.254 0 0 0-.147-4.484ZM43.895 134.874a1.127 1.127 0 1 0-.145 2.25 1.127 1.127 0 0 0 .145-2.25ZM27.019 40.727a2.253 2.253 0 1 0-.295 4.497 2.253 2.253 0 0 0 .295-4.497ZM20.32 46.039a1.127 1.127 0 1 0-.147 2.249 1.127 1.127 0 0 0 .147-2.249ZM6.378 53.82a1.128 1.128 0 1 0-.147 2.252 1.128 1.128 0 0 0 .147-2.252ZM40.826 32.844a2.254 2.254 0 1 0-.295 4.499 2.254 2.254 0 0 0 .295-4.499ZM54.58 24.478a2.255 2.255 0 1 0-.294 4.501 2.255 2.255 0 0 0 .294-4.5ZM75.576 13.988a1.128 1.128 0 1 0-.147 2.25 1.128 1.128 0 0 0 .147-2.25ZM88.731 6.28a1.127 1.127 0 1 0-.147 2.249 1.127 1.127 0 0 0 .147-2.25ZM98.987 8.134a1.127 1.127 0 1 0-.147 2.25 1.127 1.127 0 0 0 .147-2.25ZM88.666 20.89a2.254 2.254 0 1 0-.295 4.497 2.254 2.254 0 0 0 .295-4.497ZM92.186 10.657a2.254 2.254 0 1 0-.295 4.499 2.254 2.254 0 0 0 .295-4.499ZM95.556 32.841a2.253 2.253 0 1 0-.295 4.497 2.253 2.253 0 0 0 .295-4.497ZM105.855 34.813a2.255 2.255 0 1 0-.295 4.5 2.255 2.255 0 0 0 .295-4.5ZM102.557 44.758a2.254 2.254 0 1 0-.294 4.498 2.254 2.254 0 0 0 .294-4.498ZM112.768 46.62a2.255 2.255 0 1 0-.294 4.5 2.255 2.255 0 0 0 .294-4.5ZM109.219 56.3a2.256 2.256 0 0 0-2.1 3.377 2.254 2.254 0 1 0 2.1-3.377ZM129.95 60.429a2.256 2.256 0 0 0-2.1 3.376 2.253 2.253 0 1 0 2.1-3.376ZM116.27 68.239a2.252 2.252 0 0 0-2.325 1.666 2.256 2.256 0 0 0 4.355 1.167 2.25 2.25 0 0 0-2.03-2.833ZM126.302 70.136a2.251 2.251 0 0 0-2.325 1.666 2.257 2.257 0 0 0 2.472 2.818 2.253 2.253 0 0 0-.147-4.484ZM133.124 82.263a2.258 2.258 0 0 0-2.325 1.666 2.253 2.253 0 0 0 3.664 2.278 2.253 2.253 0 0 0-1.339-3.944ZM143.651 84.186a2.253 2.253 0 0 0-1.144 4.271 2.254 2.254 0 1 0 1.144-4.271ZM109.231 41.763a1.126 1.126 0 1 0-.147 2.248 1.126 1.126 0 0 0 .147-2.248ZM112.786 31.746a1.127 1.127 0 1 0-.147 2.25 1.127 1.127 0 0 0 .147-2.25ZM102.445 29.912a1.127 1.127 0 1 0-.147 2.25 1.127 1.127 0 0 0 .147-2.25ZM115.961 53.696a1.125 1.125 0 0 0-1.163.833 1.131 1.131 0 0 0 .591 1.303 1.125 1.125 0 0 0 1.565-1.374 1.121 1.121 0 0 0-.993-.762ZM122.962 65.45a1.126 1.126 0 1 0-.147 2.249 1.126 1.126 0 0 0 .147-2.248ZM126.422 55.668a1.128 1.128 0 1 0-.148 2.251 1.128 1.128 0 0 0 .148-2.25ZM133.321 67.522a1.128 1.128 0 1 0-.146 2.25 1.128 1.128 0 0 0 .146-2.25ZM129.784 77.347a1.126 1.126 0 1 0-.147 2.248 1.126 1.126 0 0 0 .147-2.248ZM140.071 79.319a1.13 1.13 0 0 0-1.163.833 1.127 1.127 0 1 0 1.163-.833ZM136.684 89.322a1.127 1.127 0 1 0-.147 2.25 1.127 1.127 0 0 0 .147-2.25Z"/><path d="M88.731 6.28a1.127 1.127 0 1 0-.147 2.249 1.127 1.127 0 0 0 .147-2.25Z"/></g><path opacity=".5" d="M40.784 64.417a2.255 2.255 0 1 0-.294 4.5 2.255 2.255 0 0 0 .294-4.5Z"/><path opacity=".25" d="M85.729 47.596a1.128 1.128 0 1 0-.147 2.251 1.128 1.128 0 0 0 .147-2.25ZM112.661 63.557a1.126 1.126 0 1 0-.147 2.248 1.126 1.126 0 0 0 .147-2.248Z"/><path opacity=".5" d="M54.187 136.873a1.127 1.127 0 1 0-.15 2.249 1.127 1.127 0 0 0 .15-2.249Z"/><path opacity=".25" d="M33.673 101.267a1.127 1.127 0 1 0-.148 2.25 1.127 1.127 0 0 0 .148-2.25Z"/><g opacity=".25"><path d="M13.212 80.347a2.254 2.254 0 1 0-.295 4.498 2.254 2.254 0 0 0 .295-4.498ZM23.47 82.36a2.253 2.253 0 1 0-.296 4.496 2.253 2.253 0 0 0 .295-4.496Z"/></g><path opacity=".25" d="M54.46 88.195a2.254 2.254 0 1 0-.295 4.499 2.254 2.254 0 0 0 .295-4.499Z"/><g opacity=".25"><path d="M68.319 80.177a2.253 2.253 0 1 0-.295 4.497 2.253 2.253 0 0 0 .295-4.497ZM82.179 72.23a2.254 2.254 0 1 0-.295 4.5 2.254 2.254 0 0 0 .295-4.5Z"/></g><path opacity=".5" d="M51.125 51.685a1.128 1.128 0 1 0-.147 2.252 1.128 1.128 0 0 0 .147-2.252Z"/><path opacity=".25" d="M47.818 44.703a2.255 2.255 0 1 0-.295 4.5 2.255 2.255 0 0 0 .295-4.5ZM68.361 48.547a2.254 2.254 0 1 0-.295 4.498 2.254 2.254 0 0 0 .295-4.498Z"/><g opacity=".25"><path d="M61.441 68.39a2.255 2.255 0 1 0-.294 4.5 2.255 2.255 0 0 0 .294-4.5ZM75.3 60.305a2.255 2.255 0 1 0-.295 4.5 2.255 2.255 0 0 0 .295-4.5Z"/></g><path opacity=".5" d="M98.936 54.634a2.254 2.254 0 1 0-.295 4.498 2.254 2.254 0 0 0 .295-4.498Z"/><g opacity=".25"><path d="M95.556 32.841a2.254 2.254 0 1 0-.295 4.5 2.254 2.254 0 0 0 .295-4.5ZM105.855 34.813a2.256 2.256 0 0 0-2.1 3.376 2.254 2.254 0 1 0 2.1-3.377Z"/></g><path opacity=".5" d="M112.769 46.62a2.255 2.255 0 1 0-.295 4.5 2.255 2.255 0 0 0 .295-4.5Z"/><g opacity=".25"><path d="M129.95 60.429a2.256 2.256 0 0 0-2.1 3.376 2.253 2.253 0 0 0 4.13-.543 2.26 2.26 0 0 0-.805-2.372 2.256 2.256 0 0 0-1.225-.461ZM126.422 55.668a1.13 1.13 0 0 0-1.163.833 1.127 1.127 0 1 0 1.163-.833Z"/></g><path opacity=".5" d="M143.651 84.186a2.254 2.254 0 1 0-.294 4.498 2.254 2.254 0 0 0 .294-4.498Z"/><path opacity=".25" d="M133.124 99.147a1.128 1.128 0 1 0-.146 2.25 1.128 1.128 0 0 0 .146-2.25Z"/><path opacity=".5" d="M95.157 126.698a2.253 2.253 0 1 0-.296 4.497 2.253 2.253 0 0 0 .296-4.497Z"/><g opacity=".25"><path d="M113.064 109.638a2.257 2.257 0 0 0-2.1 3.377 2.26 2.26 0 0 0 2.247 1.108 2.255 2.255 0 0 0-.147-4.485ZM108.335 119.089a2.257 2.257 0 0 0-2.1 3.377 2.26 2.26 0 0 0 2.246 1.108 2.251 2.251 0 0 0 1.884-1.652 2.26 2.26 0 0 0-.806-2.372 2.262 2.262 0 0 0-1.224-.461Z"/></g><path opacity=".5" d="M99.11 103.084a1.128 1.128 0 1 0-.146 2.251 1.128 1.128 0 0 0 .145-2.251Z"/><path opacity=".25" d="M82.017 103.9a2.255 2.255 0 1 0-.296 4.5 2.255 2.255 0 0 0 .296-4.5Z"/><g opacity=".5"><path d="M95.819 81.174a1.127 1.127 0 1 0-.148 2.25 1.127 1.127 0 0 0 .148-2.25ZM99.248 86.033a2.254 2.254 0 1 0-.295 4.499 2.254 2.254 0 0 0 .295-4.5Z"/></g><path opacity=".5" d="M81.997 89.162a1.128 1.128 0 1 0-.147 2.252 1.128 1.128 0 0 0 .147-2.252ZM61.289 100.032a2.255 2.255 0 1 0 1.339 3.945 2.255 2.255 0 0 0-1.339-3.945Z"/><g opacity=".25"><path d="M54.343 119.82a2.255 2.255 0 1 0-.296 4.5 2.255 2.255 0 0 0 .296-4.5ZM64.63 121.766a2.255 2.255 0 1 0-.296 4.5 2.255 2.255 0 0 0 .295-4.5Z"/></g><path opacity=".5" d="M47.472 107.979a2.255 2.255 0 1 0-.296 4.5 2.255 2.255 0 0 0 .296-4.5ZM6.36 68.533a2.254 2.254 0 1 0-.295 4.498 2.254 2.254 0 0 0 .295-4.498ZM27.245 57.663a1.126 1.126 0 1 0-.147 2.248 1.126 1.126 0 0 0 .147-2.248Z"/><path opacity=".25" d="M23.938 50.681a2.255 2.255 0 1 0-.295 4.5 2.255 2.255 0 0 0 .294-4.5Z"/><path opacity=".5" d="M40.826 32.844a2.254 2.254 0 1 0-.295 4.499 2.254 2.254 0 0 0 .295-4.499Z"/><path opacity=".75" d="M75.366 28.666a2.253 2.253 0 1 0-.295 4.497 2.253 2.253 0 0 0 .295-4.497Z"/><path opacity=".25" d="M88.666 20.89a2.255 2.255 0 1 0-.294 4.5 2.255 2.255 0 0 0 .294-4.5Z"/><path opacity=".5" d="M88.731 6.28a1.127 1.127 0 1 0-.147 2.25 1.127 1.127 0 0 0 .147-2.25Z"/><path opacity=".25" d="M98.987 8.134a1.127 1.127 0 1 0-.147 2.25 1.127 1.127 0 0 0 .147-2.25Z"/></g><defs><clipPath id="a"><path fill="currentColor" d="M0 0h148v148H0z"/></clipPath></defs>
  </symbol>
</svg>
  