<svg width="647" height="617" viewBox="0 0 647 617" fill="none" xmlns="http://www.w3.org/2000/svg">
  <symbol id="item" viewBox="0 0 647 617"  fill="none">
    <path d="M148.185 159.974C320.154 108.75 519.564 29.205 518.192 25.967c-1.372-3.238-131.721 44.876-300.487 99.357l-69.52 34.65Zm265.271 320.447c56.329-109.164 118.914-227.858 151.753-294.377 15.715-31.851 24.368-51.755 22.538-52.944-1.061-.696-10.281 15.458-27.277 44.913-28.1 48.846-75.83 133.44-129.214 232.742l-17.8 69.666ZM295.09 616.66c112.877-195.514 261.063-442.581 259.343-444.172-1.72-1.592-98.79 150.106-214.046 343.076L295.09 616.66Zm-67.031-160.095c151.424-155.833 296.024-315.69 294.469-317.52-1.555-1.829-123.598 123.598-275.552 278.882l-18.917 38.638Zm-99.997-8.16C296.261 312.203 510.215 123.44 508.77 121.501c-1.445-1.939-134.446 110.133-302.664 246.335l-78.044 80.569ZM0 321.807c205.209-88.49 484.53-237.645 483.341-239.676-1.189-2.03-154.625 80.496-353.45 175.426L0 321.807ZM247.598 394.4c146.356-135.91 285.211-276.924 283.729-278.79-1.482-1.866-118.585 108.285-265.27 243.866L247.598 394.4Zm-78.465-104.901C344.76 191.294 508.349 82.46 507.105 80.503c-1.244-1.958-137.465 81.776-312.433 180.621l-25.539 28.375ZM277.729 168.92C405.059 111.293 604.871 3.209 603.371.099c-1.5-3.11-140.264 68.019-265.581 127.622l-60.061 41.199Zm203.636 269.899c56.493-138.252 168.09-397.338 165.455-399.26-2.634-1.92-75.41 162.822-134.775 298.201l-30.68 101.059ZM311.738 268.424C438.903 171.591 558.714 68.703 557.379 66.782c-1.336-1.92-102.303 77.239-229.505 174.017l-16.136 27.625Zm56.384 114.158c92.735-122.061 224.711-291.816 222.187-294.45-2.525-2.635-80.24 92.808-173.798 214.045l-48.389 80.405Z" fill="url(#a)"/><path d="m396.076 144.698-84.155 49.231-86.295 49.614-15.239 23.161 114.981-68.494 48.937-30.351 25.613-16.008a4.006 4.006 0 0 0 2.14-3.659 4.143 4.143 0 0 0-1.243-2.919 4.14 4.14 0 0 0-2.946-1.179 4.043 4.043 0 0 0-1.83.44l.037.164Z" fill="url(#b)"/><path d="m226.029 190.123 88.746-40.412 32.619-13.099 21.002-23.49-66.537 31.009-51.718 25.173-27.259 13.392a4.014 4.014 0 0 0-1.703 1.282 4.015 4.015 0 0 0-.804 1.974 4.085 4.085 0 0 0 3.659 4.428 3.921 3.921 0 0 0 1.995-.257Z" fill="url(#c)"/><path d="m459.905 189.684 31.448-31.521-4.482-3.22-31.576 29.088a3.657 3.657 0 0 0-.439 5.159 3.658 3.658 0 0 0 3.513 1.226 3.41 3.41 0 0 0 1.536-.732Z" fill="url(#d)"/><path d="M589.705 133.795a2.816 2.816 0 0 0-3.997-2.535 2.823 2.823 0 0 0-1.327 1.272l-.091.165c-8.855 18.295-17.746 35.711-25.338 48.005l6.165 6.238 24.24-51.883c.217-.386.336-.82.348-1.262Z" fill="url(#e)"/><path d="M329.008 88.626a5.485 5.485 0 0 0-3.537 6.088 5.489 5.489 0 0 0 5.367 4.559c.624 0 1.244-.11 1.829-.33 104.425-37.283 186.439-70.89 185.561-72.976-1.043-2.47-77.678 25.136-189.22 62.659Z" fill="url(#f)"/><path d="M321.983 358.579c112.145-118.438 201.77-218.125 200.545-219.534-1.226-1.408-89.644 88.875-209.509 211.393a5.998 5.998 0 0 0-1.555 4.025 6.089 6.089 0 0 0 3.486 5.48 6.084 6.084 0 0 0 6.448-.778l.347-.366.238-.22Z" fill="url(#g)"/><defs><linearGradient id="b" x1="396.167" y1="151.431" x2="289.145" y2="213.723" gradientUnits="userSpaceOnUse"><stop stop-color="currentColor"/><stop offset="1" stop-color="currentColor" stop-opacity="0"/></linearGradient><linearGradient id="c" x1="29505.3" y1="37772.1" x2="33674.1" y2="33973.4" gradientUnits="userSpaceOnUse"><stop stop-color="currentColor"/><stop offset="1" stop-color="currentColor" stop-opacity="0"/></linearGradient><linearGradient id="d" x1="9787.04" y1="7011.42" x2="10321.9" y2="7539.21" gradientUnits="userSpaceOnUse"><stop stop-color="currentColor"/><stop offset="1" stop-color="currentColor" stop-opacity="0"/></linearGradient><linearGradient id="e" x1="586.229" y1="133.85" x2="566.233" y2="175.159" gradientUnits="userSpaceOnUse"><stop stop-color="currentColor"/><stop offset=".09" stop-color="currentColor" stop-opacity=".9"/><stop offset=".42" stop-color="currentColor" stop-opacity=".52"/><stop offset=".69" stop-color="currentColor" stop-opacity=".24"/><stop offset=".89" stop-color="currentColor" stop-opacity=".07"/><stop offset="1" stop-color="currentColor" stop-opacity="0"/></linearGradient><linearGradient id="f" x1="34985.1" y1="17919.8" x2="44243.5" y2="26884.2" gradientUnits="userSpaceOnUse"><stop stop-color="currentColor"/><stop offset="1" stop-color="currentColor" stop-opacity="0"/></linearGradient><linearGradient id="g" x1="39284.5" y1="25228.3" x2="54408.5" y2="40445.9" gradientUnits="userSpaceOnUse"><stop stop-color="currentColor"/><stop offset="1" stop-color="currentColor" stop-opacity="0"/></linearGradient><radialGradient id="a" cx="0" cy="0" r="1" gradientUnits="userSpaceOnUse" gradientTransform="matrix(254.04769 -89.71358 81.63938 231.18346 399.537 221.329)"><stop stop-color="#45535E" stop-opacity=".95"/><stop offset="1" stop-color="#45535E" stop-opacity="0"/></radialGradient></defs>
  </symbol>
</svg>
  