<svg width="148" height="148" viewBox="0 0 148 148" fill="none" xmlns="http://www.w3.org/2000/svg">
  <symbol id="item" viewBox="0 0 148 148"  fill="none">
    <g clip-path="url(#a)" fill="currentColor"><path d="M144.385 145.356a1.417 1.417 0 0 0 0-2.833 1.416 1.416 0 0 0 0 2.833ZM136.196 142.725c-.707 0-1.213.506-1.213 1.214s.506 1.214 1.213 1.214c.708 0 1.214-.506 1.214-1.214 0-.607-.506-1.214-1.214-1.214ZM128.007 142.928c-.607 0-1.011.505-1.011 1.011 0 .506.505 1.012 1.011 1.012.505 0 1.011-.506 1.011-1.012s-.506-1.011-1.011-1.011ZM119.717 143.13a.906.906 0 0 0-.91.91c0 .506.404.911.91.911.505 0 .91-.405.91-.911a.907.907 0 0 0-.91-.91ZM111.527 143.231a.691.691 0 0 0-.708.708c0 .405.304.708.708.708a.69.69 0 0 0 .708-.708.69.69 0 0 0-.708-.708ZM103.237 144.445a.505.505 0 1 0 0-1.01.505.505 0 0 0 0 1.01ZM95.047 143.534c-.202 0-.404.203-.404.405s.202.405.404.405.405-.203.405-.405-.203-.405-.405-.405ZM86.858 143.737c-.101 0-.303.101-.303.303 0 .203.1.304.303.304.1 0 .303-.101.303-.304 0-.202-.202-.303-.303-.303ZM78.568 143.838c-.101 0-.202.101-.202.202 0 .102.101.203.202.203a.217.217 0 0 0 .203-.203.217.217 0 0 0-.203-.202ZM70.278 143.939c0 .102 0 .102 0 0 .101.102.101 0 .101 0h-.101ZM144.385 137.262a1.518 1.518 0 1 0-.001-3.035 1.518 1.518 0 0 0 .001 3.035ZM136.196 134.429a1.34 1.34 0 0 0-1.315 1.315 1.34 1.34 0 0 0 1.315 1.315c.707 0 1.314-.607 1.314-1.315s-.607-1.315-1.314-1.315ZM128.006 134.53c-.606 0-1.213.506-1.213 1.214 0 .607.506 1.214 1.213 1.214.607 0 1.214-.505 1.214-1.214-.101-.607-.607-1.214-1.214-1.214ZM119.716 134.733c-.505 0-1.011.404-1.011 1.011 0 .506.404 1.012 1.011 1.012.607 0 1.011-.405 1.011-1.012 0-.506-.404-1.011-1.011-1.011ZM111.527 134.935c-.404 0-.808.404-.808.809s.404.81.808.81c.405 0 .809-.405.809-.81s-.404-.809-.809-.809ZM103.236 135.036a.691.691 0 0 0-.707.708.69.69 0 0 0 .707.708.69.69 0 0 0 .708-.708.691.691 0 0 0-.708-.708ZM95.048 135.238c-.303 0-.506.203-.506.506 0 .304.203.506.506.506s.505-.202.505-.506c0-.303-.202-.506-.505-.506ZM86.858 135.34a.435.435 0 0 0-.404.404c0 .203.202.405.404.405a.435.435 0 0 0 .405-.405c-.101-.202-.203-.404-.405-.404ZM78.568 135.542c-.101 0-.202.101-.202.202 0 .102.101.203.202.203s.202-.101.202-.203c.101-.101 0-.202-.202-.202ZM70.379 135.643c-.101 0-.101.101-.101.101 0 .102.101.102.101.102.101 0 .101-.102.101-.102 0-.101-.101-.101-.101-.101ZM144.386 129.168a1.619 1.619 0 1 0-.002-3.238 1.619 1.619 0 0 0 .002 3.238ZM136.197 126.032c-.809 0-1.517.708-1.517 1.517 0 .81.708 1.518 1.517 1.518.809 0 1.516-.708 1.516-1.518 0-.91-.707-1.517-1.516-1.517ZM128.007 126.234a1.34 1.34 0 0 0-1.315 1.315 1.34 1.34 0 0 0 1.315 1.316c.708 0 1.314-.607 1.314-1.316-.101-.809-.606-1.315-1.314-1.315ZM119.717 126.436c-.607 0-1.113.506-1.113 1.113s.506 1.113 1.113 1.113c.606 0 1.112-.506 1.112-1.113 0-.708-.506-1.113-1.112-1.113ZM111.527 126.537a.907.907 0 0 0-.91.911c0 .506.404.911.91.911.505 0 .91-.405.91-.911a.907.907 0 0 0-.91-.911ZM103.236 128.359a.81.81 0 1 0-.001-1.62.81.81 0 0 0 .001 1.62ZM95.047 126.942c-.303 0-.607.304-.607.607 0 .304.304.607.607.607s.607-.303.607-.607c0-.404-.304-.607-.607-.607ZM86.858 127.043c-.303 0-.506.203-.506.506 0 .304.203.506.506.506s.505-.202.505-.506c-.1-.303-.303-.506-.505-.506ZM78.567 127.853a.304.304 0 1 0 0-.607.304.304 0 0 0 0 .607ZM70.378 127.347c-.1 0-.202.101-.202.202s.101.203.202.203.203-.102.203-.203c0-.101-.102-.202-.203-.202ZM62.088 127.651a.101.101 0 0 0 .102-.101.102.102 0 0 0-.102-.102.102.102 0 0 0-.101.102c0 .056.045.101.101.101ZM144.385 117.432c-1.011 0-1.82.809-1.82 1.821s.809 1.821 1.82 1.821c1.011 0 1.82-.809 1.82-1.821a1.813 1.813 0 0 0-1.82-1.821ZM136.196 117.635c-.91 0-1.618.708-1.618 1.618 0 .911.708 1.619 1.618 1.619.91 0 1.618-.708 1.618-1.619 0-.91-.708-1.618-1.618-1.618ZM128.007 117.837c-.809 0-1.415.607-1.415 1.416 0 .81.606 1.417 1.415 1.417s1.416-.607 1.416-1.417c0-.809-.708-1.416-1.416-1.416ZM119.717 118.039c-.708 0-1.213.607-1.213 1.214s.606 1.214 1.213 1.214c.708 0 1.213-.607 1.213-1.214s-.505-1.214-1.213-1.214ZM111.528 118.241c-.607 0-1.113.506-1.113 1.113s.506 1.113 1.113 1.113c.606 0 1.112-.506 1.112-1.113-.101-.708-.506-1.113-1.112-1.113ZM103.237 118.343a.906.906 0 0 0-.91.91c0 .506.405.911.91.911.506 0 .91-.405.91-.911a.906.906 0 0 0-.91-.91ZM95.047 118.545a.69.69 0 0 0-.707.708.69.69 0 0 0 .707.708.69.69 0 0 0 .708-.708.69.69 0 0 0-.707-.708ZM86.858 118.747c-.303 0-.606.304-.606.607 0 .304.303.607.606.607s.607-.303.607-.607c0-.303-.303-.607-.607-.607ZM78.568 118.849a.435.435 0 0 0-.405.404c0 .203.202.405.405.405a.435.435 0 0 0 .404-.405c0-.202-.101-.404-.404-.404ZM70.379 118.95c-.203 0-.304.101-.304.303 0 .202.102.304.304.304s.303-.102.303-.304c0-.101-.202-.303-.303-.303ZM62.089 119.051c-.102 0-.203.101-.203.202s.101.202.203.202c.1 0 .202-.101.202-.202s-.101-.202-.202-.202ZM53.899 119.152c-.102 0-.102.101 0 0-.102.101-.102.203 0 .203 0 0 .101 0 0-.203.101.101 0 0 0 0ZM144.385 112.98a1.921 1.921 0 1 0 0-3.842 1.921 1.921 0 0 0 0 3.842ZM136.197 109.237c-1.011 0-1.719.81-1.719 1.72 0 1.012.809 1.72 1.719 1.72.909 0 1.718-.809 1.718-1.72 0-.91-.707-1.72-1.718-1.72ZM128.007 109.44c-.91 0-1.618.708-1.618 1.618 0 .911.708 1.619 1.618 1.619.91 0 1.618-.708 1.618-1.619 0-.91-.809-1.618-1.618-1.618ZM119.717 109.642c-.809 0-1.416.607-1.416 1.416 0 .81.607 1.417 1.416 1.417.808 0 1.415-.607 1.415-1.417 0-.809-.607-1.416-1.415-1.416ZM111.527 109.844c-.708 0-1.213.506-1.213 1.214s.505 1.214 1.213 1.214c.708 0 1.213-.506 1.213-1.214s-.606-1.214-1.213-1.214ZM103.236 110.047c-.606 0-1.011.505-1.011 1.011 0 .506.506 1.012 1.011 1.012.506 0 1.011-.506 1.011-1.012s-.404-1.011-1.011-1.011ZM95.048 110.148a.797.797 0 0 0-.809.809c0 .506.405.809.81.809.404 0 .808-.404.808-.809a.797.797 0 0 0-.809-.809ZM86.859 110.35a.69.69 0 0 0-.708.708.69.69 0 0 0 .708.708.69.69 0 0 0 .707-.708c-.1-.405-.404-.708-.707-.708ZM78.568 110.451c-.303 0-.505.203-.505.506 0 .304.202.506.505.506.304 0 .506-.202.506-.506 0-.303-.202-.506-.506-.506ZM70.38 110.653c-.203 0-.405.203-.405.405s.202.405.404.405.404-.203.404-.405-.202-.405-.404-.405ZM62.088 111.362a.304.304 0 1 0 0-.607.304.304 0 0 0 0 .607ZM53.898 110.856a.217.217 0 0 0-.202.202c0 .101.101.202.203.202.1 0 .202-.101.202-.202s-.101-.202-.203-.202ZM45.608 111.058c.102 0 .102 0 0 0 .102 0 .102-.101 0 0 0-.101 0 0 0 0ZM144.386 100.638c-1.213 0-2.123.91-2.123 2.124s.91 2.125 2.123 2.125 2.123-.911 2.123-2.125-.91-2.124-2.123-2.124ZM136.196 100.84a1.92 1.92 0 0 0-1.921 1.922 1.92 1.92 0 0 0 1.921 1.922 1.92 1.92 0 0 0 1.921-1.922c0-1.012-.91-1.922-1.921-1.922ZM128.006 101.042c-.91 0-1.718.809-1.718 1.72 0 .911.808 1.72 1.718 1.72.91 0 1.719-.809 1.719-1.72 0-.911-.809-1.72-1.719-1.72ZM119.716 101.244c-.809 0-1.517.709-1.517 1.518s.708 1.518 1.517 1.518c.809 0 1.516-.709 1.516-1.518s-.707-1.518-1.516-1.518ZM111.528 101.447a1.34 1.34 0 0 0-1.315 1.315 1.34 1.34 0 0 0 1.315 1.315c.707 0 1.314-.607 1.314-1.315s-.607-1.315-1.314-1.315ZM103.237 101.649c-.607 0-1.112.506-1.112 1.113s.505 1.113 1.112 1.113c.606 0 1.112-.506 1.112-1.113.101-.607-.404-1.113-1.112-1.113ZM95.048 101.852c-.506 0-1.011.404-1.011 1.011 0 .506.404 1.012 1.01 1.012.607 0 1.012-.405 1.012-1.012s-.506-1.011-1.011-1.011ZM86.858 101.953c-.404 0-.809.405-.809.809 0 .405.405.81.81.81.404 0 .808-.405.808-.81 0-.404-.404-.809-.809-.809ZM78.567 103.369a.607.607 0 1 0 0-1.214.607.607 0 0 0 0 1.214ZM70.378 103.268a.506.506 0 1 0 0-1.012.506.506 0 0 0 0 1.012ZM62.088 102.459a.435.435 0 0 0-.404.404c0 .203.202.405.404.405a.435.435 0 0 0 .405-.405.435.435 0 0 0-.405-.404ZM53.898 102.964a.202.202 0 1 0 .001-.404.202.202 0 0 0 0 .404ZM45.71 102.661c-.102 0-.102.101-.102.101 0 .102.102.102.102.102.101 0 .101-.102.101-.102l-.101-.101ZM37.42 102.762c0 .101 0 .101 0 0 0 .101.1.101 0 0 .1 0 0 0 0 0ZM144.386 92.24c-1.213 0-2.326 1.012-2.326 2.327 0 1.214 1.011 2.327 2.326 2.327 1.213 0 2.325-1.012 2.325-2.327 0-1.214-1.011-2.327-2.325-2.327ZM136.196 92.544c-1.112 0-2.022.91-2.022 2.023s.91 2.024 2.022 2.024c1.113 0 2.022-.91 2.022-2.024a2.028 2.028 0 0 0-2.022-2.023ZM128.007 92.746c-1.011 0-1.82.81-1.82 1.821 0 1.012.809 1.821 1.82 1.821 1.011 0 1.82-.81 1.82-1.82a1.813 1.813 0 0 0-1.82-1.822ZM119.716 92.948c-.909 0-1.617.709-1.617 1.62 0 .91.708 1.618 1.617 1.618.91 0 1.618-.708 1.618-1.619 0-.91-.708-1.619-1.618-1.619ZM111.527 93.05c-.808 0-1.516.708-1.516 1.517 0 .81.708 1.518 1.516 1.518.809 0 1.517-.708 1.517-1.518-.101-.81-.708-1.517-1.517-1.517ZM103.237 93.252a1.34 1.34 0 0 0-1.315 1.315 1.34 1.34 0 0 0 1.315 1.315c.708 0 1.314-.607 1.314-1.315s-.606-1.315-1.314-1.315ZM95.047 93.454c-.607 0-1.112.506-1.112 1.113s.505 1.113 1.112 1.113c.606 0 1.112-.506 1.112-1.113s-.506-1.113-1.112-1.113ZM86.858 93.656a.906.906 0 0 0-.91.911c0 .506.405.91.91.91.506 0 .91-.404.91-.91a.906.906 0 0 0-.91-.91ZM78.568 93.859a.691.691 0 0 0-.708.708c0 .405.304.709.708.709a.691.691 0 0 0 .708-.709c.1-.404-.304-.708-.708-.708ZM70.379 93.96c-.304 0-.607.304-.607.607 0 .304.303.607.606.607.304 0 .607-.303.607-.607 0-.303-.303-.607-.606-.607ZM62.088 94.061c-.202 0-.506.203-.506.506 0 .203.203.506.506.506s.505-.202.505-.506c0-.303-.202-.506-.505-.506ZM53.899 94.264c-.202 0-.303.1-.303.303 0 .203.1.304.303.304.202 0 .303-.102.303-.304s-.1-.303-.303-.303ZM45.71 94.365a.218.218 0 0 0-.203.202c0 .101.102.203.203.203a.218.218 0 0 0 .202-.203.218.218 0 0 0-.202-.202ZM37.42 94.466s-.102 0 0 0c-.102.101-.102.203 0 .203.1 0 .1-.102 0-.203.1 0 .1 0 0 0ZM144.385 83.944c-1.314 0-2.426 1.113-2.426 2.428 0 1.316 1.112 2.428 2.426 2.428s2.426-1.112 2.426-2.428c0-1.416-1.011-2.428-2.426-2.428ZM136.196 84.147a2.245 2.245 0 0 0-2.224 2.225 2.245 2.245 0 0 0 2.224 2.226 2.245 2.245 0 0 0 2.225-2.226c0-1.315-1.011-2.225-2.225-2.225ZM128.007 84.349c-1.112 0-2.022.91-2.022 2.023s.91 2.024 2.022 2.024c1.112 0 2.022-.91 2.022-2.024-.101-1.113-.91-2.023-2.022-2.023ZM119.716 84.551c-1.011 0-1.82.81-1.82 1.821 0 1.012.809 1.821 1.82 1.821 1.011 0 1.82-.81 1.82-1.82a1.813 1.813 0 0 0-1.82-1.822ZM111.527 84.754c-.909 0-1.617.708-1.617 1.618 0 .91.708 1.62 1.617 1.62.91 0 1.618-.71 1.618-1.62 0-.91-.809-1.618-1.618-1.618ZM103.237 84.956c-.809 0-1.415.607-1.415 1.416 0 .81.606 1.417 1.415 1.417s1.416-.607 1.416-1.417-.607-1.416-1.416-1.416ZM95.048 85.057c-.708 0-1.214.506-1.214 1.214s.506 1.214 1.214 1.214c.707 0 1.213-.506 1.213-1.214s-.506-1.214-1.213-1.214ZM86.858 85.26c-.607 0-1.112.505-1.112 1.112 0 .607.505 1.113 1.112 1.113.606 0 1.112-.506 1.112-1.113-.101-.607-.607-1.113-1.112-1.113ZM78.568 85.462a.907.907 0 0 0-.91.91c0 .506.404.91.91.91.505 0 .91-.404.91-.91a.906.906 0 0 0-.91-.91ZM70.378 85.563a.691.691 0 0 0-.708.708c0 .405.303.708.708.708a.691.691 0 0 0 .708-.708c0-.304-.304-.708-.708-.708ZM62.088 85.765c-.303 0-.606.304-.606.607 0 .304.303.607.606.607.304 0 .607-.303.607-.607 0-.303-.303-.607-.607-.607ZM53.898 85.968a.435.435 0 0 0-.404.404c0 .203.202.405.404.405a.435.435 0 0 0 .405-.405c0-.303-.203-.404-.405-.404ZM45.71 86.069c-.203 0-.304.1-.304.303 0 .203.1.304.303.304.202 0 .303-.102.303-.304-.1-.202-.202-.303-.303-.303ZM37.42 86.17a.218.218 0 0 0-.203.202c0 .101.101.203.202.203a.218.218 0 0 0 .203-.203.218.218 0 0 0-.203-.202ZM29.129 86.372c.101.102.101 0 .101 0 0-.101 0-.101-.101 0 0-.101 0-.101 0 0ZM144.386 80.707a2.629 2.629 0 0 0 2.628-2.631 2.629 2.629 0 1 0-5.257 0 2.63 2.63 0 0 0 2.629 2.63ZM136.196 75.749c-1.315 0-2.326 1.113-2.326 2.327 0 1.315 1.112 2.327 2.326 2.327 1.314 0 2.325-1.113 2.325-2.327 0-1.315-1.011-2.327-2.325-2.327ZM128.007 75.951c-1.213 0-2.123 1.012-2.123 2.125 0 1.214 1.011 2.125 2.123 2.125 1.112 0 2.123-1.012 2.123-2.125 0-1.214-1.011-2.125-2.123-2.125ZM119.717 76.154a1.92 1.92 0 0 0-1.921 1.922 1.92 1.92 0 0 0 1.921 1.922c1.011 0 1.921-.91 1.921-1.922a1.92 1.92 0 0 0-1.921-1.922ZM111.527 76.356c-.91 0-1.719.81-1.719 1.72 0 .91.809 1.72 1.719 1.72s1.719-.81 1.719-1.72c0-.91-.809-1.72-1.719-1.72ZM103.237 76.558c-.91 0-1.618.709-1.618 1.62 0 .91.708 1.618 1.618 1.618.91 0 1.618-.708 1.618-1.619 0-.91-.708-1.619-1.618-1.619ZM95.047 76.76c-.707 0-1.415.608-1.415 1.417 0 .81.606 1.416 1.415 1.416.708 0 1.416-.606 1.416-1.416 0-.81-.708-1.416-1.416-1.416ZM86.859 76.862c-.607 0-1.214.506-1.214 1.214 0 .607.506 1.214 1.214 1.214.606 0 1.213-.506 1.213-1.214-.101-.607-.607-1.214-1.213-1.214ZM78.568 79.088a1.011 1.011 0 1 0 0-2.023 1.011 1.011 0 0 0 0 2.023ZM70.379 77.267c-.405 0-.81.404-.81.809s.405.81.81.81c.404 0 .808-.405.808-.81s-.404-.81-.808-.81ZM62.089 77.368a.691.691 0 0 0-.708.708c0 .405.303.708.708.708a.691.691 0 0 0 .707-.708.691.691 0 0 0-.707-.708ZM53.899 77.57c-.303 0-.506.203-.506.506 0 .304.203.506.506.506s.505-.202.505-.506c0-.303-.202-.506-.505-.506ZM45.71 77.671a.435.435 0 0 0-.405.405c0 .203.202.405.404.405a.435.435 0 0 0 .405-.405c-.101-.202-.202-.404-.405-.404ZM37.42 78.278a.202.202 0 1 0 0-.404.202.202 0 0 0 0 .404ZM29.23 77.975c-.101 0-.101.101-.101.101 0 .102.101.102.101.102l.101-.102c0-.101-.1-.101-.1-.101ZM20.94 78.076s0 .102 0 0c.101.102.101 0 0 0 .101 0 .101 0 0 0ZM144.385 67.15a2.72 2.72 0 0 0-2.73 2.731 2.72 2.72 0 0 0 2.73 2.732 2.72 2.72 0 0 0 2.73-2.732 2.72 2.72 0 0 0-2.73-2.731ZM136.197 67.352a2.504 2.504 0 0 0-2.528 2.53 2.504 2.504 0 0 0 2.528 2.528 2.504 2.504 0 0 0 2.527-2.529 2.504 2.504 0 0 0-2.527-2.53ZM128.007 67.554c-1.315 0-2.326 1.012-2.326 2.327s1.011 2.327 2.326 2.327c1.314 0 2.325-1.012 2.325-2.327-.101-1.315-1.112-2.327-2.325-2.327ZM119.717 67.757c-1.214 0-2.124.91-2.124 2.124s.91 2.125 2.124 2.125c1.213 0 2.123-.91 2.123-2.125 0-1.214-.91-2.124-2.123-2.124ZM111.527 71.803a1.922 1.922 0 1 0-.001-3.843 1.922 1.922 0 0 0 .001 3.843ZM103.236 68.161c-.91 0-1.718.708-1.718 1.72s.707 1.72 1.718 1.72c.91 0 1.719-.708 1.719-1.72s-.708-1.72-1.719-1.72ZM95.048 68.363c-.809 0-1.517.709-1.517 1.518 0 .81.708 1.518 1.517 1.518.809 0 1.516-.709 1.516-1.518 0-.81-.707-1.518-1.516-1.518ZM86.858 68.566c-.708 0-1.315.607-1.315 1.315s.607 1.315 1.315 1.315c.707 0 1.314-.607 1.314-1.315s-.606-1.315-1.314-1.315ZM78.568 68.667c-.607 0-1.112.506-1.112 1.113s.505 1.113 1.112 1.113c.606 0 1.112-.506 1.112-1.113 0-.506-.506-1.113-1.112-1.113ZM70.379 68.87a.906.906 0 0 0-.91.91c0 .506.404.91.91.91.505 0 .91-.404.91-.91a.906.906 0 0 0-.91-.91ZM62.088 69.072c-.405 0-.81.404-.81.81 0 .404.405.809.81.809.404 0 .809-.405.809-.81a.798.798 0 0 0-.81-.81ZM53.9 69.173c-.304 0-.607.303-.607.607 0 .303.303.607.606.607.304 0 .607-.304.607-.607 0-.304-.303-.607-.607-.607ZM45.71 70.387a.506.506 0 1 0 0-1.011.506.506 0 0 0 0 1.01ZM37.419 69.476a.435.435 0 0 0-.405.405c0 .203.202.405.405.405a.435.435 0 0 0 .404-.405.435.435 0 0 0-.404-.405ZM29.23 69.679a.217.217 0 0 0-.202.202c0 .101.101.203.202.203a.218.218 0 0 0 .203-.203.218.218 0 0 0-.203-.202ZM20.94 69.983a.101.101 0 1 0 0-.203.101.101 0 0 0 0 .203ZM144.385 64.519a2.933 2.933 0 1 0-.002-5.866 2.933 2.933 0 0 0 .002 5.866ZM136.196 64.317a2.73 2.73 0 0 0 2.73-2.732 2.73 2.73 0 1 0-2.73 2.732ZM128.007 59.157c-1.314 0-2.426 1.113-2.426 2.428s1.112 2.428 2.426 2.428c1.315 0 2.427-1.113 2.427-2.428s-1.112-2.428-2.427-2.428ZM119.717 59.36a2.245 2.245 0 0 0-2.224 2.225 2.245 2.245 0 0 0 2.224 2.226 2.245 2.245 0 0 0 2.224-2.226 2.245 2.245 0 0 0-2.224-2.226ZM111.527 59.562c-1.112 0-2.022.91-2.022 2.023s.91 2.023 2.022 2.023c1.112 0 2.022-.91 2.022-2.023s-.91-2.023-2.022-2.023ZM103.237 59.764c-1.011 0-1.82.81-1.82 1.82 0 1.013.809 1.822 1.82 1.822 1.011 0 1.82-.81 1.82-1.821a1.813 1.813 0 0 0-1.82-1.821ZM95.047 63.204a1.618 1.618 0 1 0-.001-3.237 1.618 1.618 0 0 0 .001 3.237ZM86.858 60.169c-.809 0-1.415.607-1.415 1.416 0 .81.606 1.416 1.415 1.416.81 0 1.416-.607 1.416-1.416 0-.81-.607-1.416-1.416-1.416ZM78.568 62.8a1.214 1.214 0 1 0 0-2.428 1.214 1.214 0 0 0 0 2.427ZM70.379 60.573c-.607 0-1.112.506-1.112 1.113s.505 1.113 1.112 1.113c.606 0 1.112-.506 1.112-1.113s-.506-1.113-1.112-1.113ZM62.088 60.675a.906.906 0 0 0-.91.91c0 .506.405.91.91.91.506 0 .91-.404.91-.91a.907.907 0 0 0-.91-.91ZM53.898 62.293a.708.708 0 1 0 0-1.416.708.708 0 0 0 0 1.416ZM45.71 62.192a.607.607 0 1 0-.001-1.213.607.607 0 0 0 0 1.213ZM37.42 61.18c-.203 0-.506.203-.506.506 0 .203.202.506.505.506.304 0 .506-.202.506-.506 0-.303-.202-.506-.506-.506ZM29.23 61.281c-.202 0-.303.102-.303.304s.1.303.303.303c.202 0 .303-.1.303-.303 0-.101-.202-.304-.303-.304ZM20.94 61.787a.202.202 0 1 0 0-.404.202.202 0 0 0 0 .404ZM12.75 61.484c-.102 0-.102.101 0 0-.102.101-.102.203 0 .203 0 0 .101 0 0-.203.101.101 0 0 0 0ZM4.46 61.585c0 .101 0 .101 0 0 .1.101.1.101 0 0 .1 0 .1 0 0 0ZM144.386 50.355c-1.719 0-3.033 1.416-3.033 3.035 0 1.72 1.415 3.035 3.033 3.035 1.718 0 3.033-1.416 3.033-3.035.101-1.72-1.315-3.035-3.033-3.035ZM136.196 50.557a2.827 2.827 0 0 0-2.831 2.833 2.827 2.827 0 0 0 2.831 2.833c1.516 0 2.83-1.315 2.83-2.833 0-1.619-1.213-2.833-2.83-2.833ZM128.007 50.76c-1.415 0-2.629 1.214-2.629 2.63s1.214 2.63 2.629 2.63 2.629-1.214 2.629-2.63-1.214-2.63-2.629-2.63ZM119.717 55.818a2.427 2.427 0 0 0 2.426-2.428 2.427 2.427 0 1 0-2.426 2.428ZM111.527 51.164a2.245 2.245 0 0 0-2.224 2.226 2.245 2.245 0 0 0 2.224 2.226 2.245 2.245 0 0 0 2.224-2.226 2.245 2.245 0 0 0-2.224-2.226ZM103.236 51.367c-1.112 0-2.022.91-2.022 2.023s.91 2.024 2.022 2.024c1.112 0 2.022-.911 2.022-2.024s-.91-2.023-2.022-2.023ZM95.048 51.569c-1.011 0-1.82.81-1.82 1.821 0 1.012.809 1.821 1.82 1.821 1.01 0 1.82-.81 1.82-1.82a1.813 1.813 0 0 0-1.82-1.822ZM86.858 51.771c-.91 0-1.617.709-1.617 1.619s.707 1.619 1.617 1.619 1.618-.708 1.618-1.619c-.101-.91-.809-1.619-1.618-1.619ZM78.568 54.806a1.416 1.416 0 1 0-.001-2.831 1.416 1.416 0 0 0 0 2.831ZM70.378 52.176c-.707 0-1.213.506-1.213 1.214s.505 1.214 1.213 1.214c.708 0 1.213-.506 1.213-1.214s-.606-1.214-1.213-1.214ZM62.088 52.378c-.607 0-1.011.506-1.011 1.012 0 .607.505 1.012 1.01 1.012.506 0 1.012-.506 1.012-1.012.1-.607-.405-1.012-1.011-1.012ZM53.898 52.48a.906.906 0 0 0-.91.91c0 .506.405.91.91.91.506 0 .91-.404.91-.91a.906.906 0 0 0-.91-.91ZM45.71 52.682a.691.691 0 0 0-.708.708c0 .405.303.708.708.708a.691.691 0 0 0 .707-.708c0-.405-.404-.708-.707-.708ZM37.42 52.884c-.304 0-.506.203-.506.506 0 .304.202.506.505.506.304 0 .506-.202.506-.506.1-.303-.202-.506-.506-.506ZM29.23 52.985a.435.435 0 0 0-.405.405c0 .202.203.405.405.405a.435.435 0 0 0 .404-.405.435.435 0 0 0-.404-.405ZM20.939 53.087c-.101 0-.303.1-.303.303 0 .101.1.304.303.304.202 0 .303-.102.303-.304s-.1-.303-.303-.303ZM12.75 53.188a.218.218 0 0 0-.203.202c0 .101.101.202.203.202a.218.218 0 0 0 .202-.202c-.101-.101-.101-.202-.202-.202ZM4.46 53.39s0 .102 0 0c.1.102.1 0 .1 0s0-.101-.1 0c0-.101 0 0 0 0ZM144.385 48.433a3.237 3.237 0 0 0 0-6.475 3.237 3.237 0 0 0-3.235 3.237 3.237 3.237 0 0 0 3.235 3.238ZM136.197 42.16c-1.618 0-3.033 1.315-3.033 3.035 0 1.72 1.314 3.035 3.033 3.035 1.617 0 3.033-1.315 3.033-3.035 0-1.72-1.416-3.035-3.033-3.035ZM128.007 42.362a2.827 2.827 0 0 0-2.831 2.833c0 1.619 1.213 2.833 2.831 2.833 1.618 0 2.831-1.214 2.831-2.833a2.827 2.827 0 0 0-2.831-2.833ZM119.716 42.565a2.611 2.611 0 0 0-2.628 2.63c0 1.518 1.112 2.63 2.628 2.63 1.517 0 2.629-1.112 2.629-2.63a2.611 2.611 0 0 0-2.629-2.63ZM111.528 42.767c-1.315 0-2.326 1.012-2.326 2.327s1.011 2.327 2.326 2.327c1.314 0 2.325-1.012 2.325-2.327s-1.011-2.327-2.325-2.327ZM103.237 47.32a2.123 2.123 0 0 0 2.123-2.125 2.123 2.123 0 1 0-2.123 2.125ZM95.047 47.117a1.922 1.922 0 1 0-.001-3.843 1.922 1.922 0 0 0 .001 3.843ZM86.859 46.915a1.72 1.72 0 1 0-.002-3.439 1.72 1.72 0 0 0 .002 3.439ZM78.568 46.713a1.517 1.517 0 1 0-.001-3.035 1.517 1.517 0 0 0 .001 3.035ZM70.379 43.779c-.708 0-1.315.607-1.315 1.315s.607 1.315 1.315 1.315c.707 0 1.314-.607 1.314-1.315s-.607-1.315-1.314-1.315ZM62.089 46.41a1.214 1.214 0 1 0-.001-2.428 1.214 1.214 0 0 0 0 2.427ZM53.899 44.183c-.506 0-1.011.405-1.011 1.012s.404 1.012 1.01 1.012c.607 0 1.012-.405 1.012-1.012s-.506-1.012-1.011-1.012ZM45.71 46.004a.81.81 0 1 0-.001-1.618.81.81 0 0 0 0 1.618ZM37.42 45.903a.708.708 0 1 0-.001-1.416.708.708 0 0 0 0 1.416ZM29.23 44.588c-.304 0-.506.202-.506.506 0 .303.202.506.505.506s.506-.203.506-.506c0-.304-.203-.506-.506-.506ZM20.94 44.79a.435.435 0 0 0-.405.405c0 .203.202.405.404.405a.435.435 0 0 0 .405-.405.435.435 0 0 0-.405-.404ZM12.75 44.892a.218.218 0 0 0-.203.202c0 .101.101.202.203.202a.218.218 0 0 0 .202-.202.218.218 0 0 0-.202-.203ZM4.56 45.297a.101.101 0 1 0 0-.203.101.101 0 0 0 0 .203ZM144.385 33.459a3.41 3.41 0 0 0-3.437 3.44 3.41 3.41 0 0 0 3.437 3.44 3.41 3.41 0 0 0 3.438-3.44 3.41 3.41 0 0 0-3.438-3.44ZM136.196 33.763c-1.718 0-3.235 1.416-3.235 3.237 0 1.72 1.415 3.238 3.235 3.238 1.82 0 3.236-1.417 3.236-3.238s-1.517-3.237-3.236-3.237ZM128.007 33.965a2.936 2.936 0 0 0-2.932 2.934 2.936 2.936 0 0 0 2.932 2.934 2.935 2.935 0 0 0 0-5.868ZM119.717 34.167a2.72 2.72 0 0 0-2.73 2.732 2.72 2.72 0 0 0 2.73 2.732 2.72 2.72 0 0 0 2.73-2.732 2.72 2.72 0 0 0-2.73-2.732ZM111.527 34.47a2.505 2.505 0 0 0-2.528 2.53 2.505 2.505 0 0 0 2.528 2.53 2.505 2.505 0 0 0 2.528-2.53c-.102-1.416-1.214-2.53-2.528-2.53ZM103.237 34.572c-1.314 0-2.325 1.012-2.325 2.327s1.011 2.327 2.325 2.327c1.314 0 2.325-1.012 2.325-2.327 0-1.214-1.011-2.327-2.325-2.327ZM95.047 34.876c-1.112 0-2.123.91-2.123 2.124 0 1.113.91 2.125 2.123 2.125s2.123-.91 2.123-2.125c-.1-1.214-1.01-2.124-2.123-2.124ZM86.859 35.078A1.92 1.92 0 0 0 84.938 37a1.92 1.92 0 0 0 1.92 1.922c1.113 0 1.921-.809 1.921-1.922-.1-1.113-.91-1.922-1.92-1.922ZM78.568 35.28c-.91 0-1.618.708-1.618 1.619 0 .91.708 1.619 1.618 1.619.91 0 1.617-.709 1.617-1.62.102-.91-.707-1.618-1.617-1.618ZM70.378 35.382c-.809 0-1.516.708-1.516 1.517 0 .81.707 1.518 1.516 1.518s1.517-.709 1.517-1.518c-.102-.81-.708-1.517-1.517-1.517ZM62.088 35.584c-.708 0-1.314.607-1.314 1.315s.606 1.315 1.314 1.315c.708 0 1.314-.607 1.314-1.315s-.606-1.315-1.314-1.315ZM53.899 35.786c-.607 0-1.112.506-1.112 1.113s.505 1.113 1.112 1.113c.607 0 1.112-.506 1.112-1.113s-.505-1.113-1.112-1.113ZM45.71 35.988a.906.906 0 0 0-.91.91c0 .507.404.911.91.911.505 0 .91-.404.91-.91a.906.906 0 0 0-.91-.91ZM37.42 36.09a.798.798 0 0 0-.81.809c0 .405.304.81.81.81a.798.798 0 0 0 .808-.81c0-.405-.404-.81-.809-.81ZM29.23 36.292c-.304 0-.607.303-.607.607 0 .303.303.607.607.607.303 0 .606-.304.606-.607 0-.304-.303-.607-.606-.607ZM20.94 36.393c-.304 0-.506.203-.506.506 0 .304.202.506.506.506.303 0 .505-.202.505-.506 0-.202-.202-.506-.505-.506ZM12.75 36.596c-.202 0-.303.202-.303.303 0 .202.202.303.303.303.101 0 .303-.202.303-.303 0-.202-.1-.303-.303-.303ZM4.56 36.697a.218.218 0 0 0-.202.202c0 .101.101.202.203.202a.218.218 0 0 0 .202-.202.218.218 0 0 0-.202-.202ZM144.385 32.245a3.54 3.54 0 0 0 3.539-3.541 3.54 3.54 0 1 0-7.077 0 3.54 3.54 0 0 0 3.538 3.541ZM136.196 25.365c-1.82 0-3.337 1.518-3.337 3.339s1.517 3.339 3.337 3.339c1.82 0 3.336-1.518 3.336-3.34 0-1.82-1.516-3.338-3.336-3.338ZM128.007 25.568a3.15 3.15 0 0 0-3.134 3.136 3.15 3.15 0 0 0 3.134 3.136 3.15 3.15 0 0 0 3.134-3.136c-.101-1.72-1.415-3.136-3.134-3.136ZM119.717 31.638a2.933 2.933 0 1 0-.002-5.866 2.933 2.933 0 0 0 .002 5.866ZM111.528 25.972c-1.517 0-2.629 1.214-2.629 2.63a2.611 2.611 0 0 0 2.629 2.631c1.516 0 2.628-1.214 2.628-2.63 0-1.417-1.213-2.63-2.628-2.63ZM103.237 26.276c-1.315 0-2.427 1.113-2.427 2.428s1.112 2.428 2.427 2.428c1.314 0 2.426-1.113 2.426-2.428 0-1.416-1.011-2.428-2.426-2.428ZM95.047 26.478a2.245 2.245 0 0 0-2.224 2.226 2.245 2.245 0 0 0 2.225 2.226 2.245 2.245 0 0 0 2.224-2.226 2.245 2.245 0 0 0-2.225-2.226ZM86.858 26.68c-1.113 0-2.023.911-2.023 2.024s.91 2.023 2.023 2.023c1.112 0 2.021-.91 2.021-2.023-.1-1.113-.91-2.024-2.022-2.024ZM78.567 26.883c-1.01 0-1.82.81-1.82 1.82 0 1.013.81 1.822 1.82 1.822 1.011 0 1.82-.81 1.82-1.821a1.813 1.813 0 0 0-1.82-1.821ZM70.379 27.085c-.91 0-1.618.709-1.618 1.62 0 .91.708 1.618 1.618 1.618.91 0 1.617-.708 1.617-1.619 0-.91-.707-1.619-1.617-1.619ZM62.088 27.288c-.808 0-1.415.607-1.415 1.416 0 .81.607 1.416 1.415 1.416.81 0 1.416-.607 1.416-1.416.1-.81-.607-1.416-1.416-1.416ZM53.899 27.389c-.708 0-1.214.607-1.214 1.214 0 .708.607 1.214 1.214 1.214.707 0 1.213-.607 1.213-1.214s-.506-1.214-1.213-1.214ZM45.71 27.591c-.607 0-1.113.506-1.113 1.113s.506 1.113 1.112 1.113c.607 0 1.112-.506 1.112-1.113s-.606-1.113-1.112-1.113ZM37.419 27.794a.906.906 0 0 0-.91.91c0 .506.404.91.91.91.505 0 .91-.404.91-.91a.906.906 0 0 0-.91-.91ZM29.23 27.996a.691.691 0 0 0-.708.708c0 .405.304.708.708.708a.691.691 0 0 0 .708-.708.691.691 0 0 0-.708-.708ZM20.939 28.097c-.303 0-.607.304-.607.607 0 .304.304.607.607.607s.607-.303.607-.607c0-.303-.304-.607-.607-.607ZM12.75 28.198a.435.435 0 0 0-.404.405c0 .202.202.404.405.404a.435.435 0 0 0 .404-.404.435.435 0 0 0-.404-.405ZM4.561 28.4c-.202 0-.303.102-.303.304s.101.303.303.303c.202 0 .304-.1.304-.303-.102-.202-.203-.303-.304-.303ZM144.385 16.665c-2.022 0-3.74 1.72-3.74 3.743 0 2.023 1.718 3.743 3.74 3.743 2.022 0 3.741-1.72 3.741-3.743a3.733 3.733 0 0 0-3.741-3.744ZM136.196 16.867c-1.921 0-3.538 1.619-3.538 3.54 0 1.923 1.617 3.542 3.538 3.542 1.921 0 3.539-1.619 3.539-3.541s-1.618-3.541-3.539-3.541ZM128.007 17.17c-1.82 0-3.336 1.518-3.336 3.34 0 1.82 1.516 3.338 3.336 3.338 1.82 0 3.336-1.518 3.336-3.339-.101-1.922-1.617-3.339-3.336-3.339ZM119.716 17.373c-1.718 0-3.033 1.416-3.033 3.035 0 1.72 1.416 3.035 3.033 3.035 1.719 0 3.033-1.416 3.033-3.035 0-1.619-1.314-3.035-3.033-3.035ZM111.528 17.575c-1.517 0-2.831 1.315-2.831 2.833 0 1.517 1.314 2.833 2.831 2.833 1.516 0 2.83-1.316 2.83-2.833 0-1.518-1.314-2.833-2.83-2.833ZM103.237 17.879c-1.415 0-2.629 1.214-2.629 2.63s1.214 2.63 2.629 2.63 2.629-1.213 2.629-2.63c0-1.518-1.112-2.63-2.629-2.63ZM95.047 22.836a2.427 2.427 0 1 0-.001-4.854 2.427 2.427 0 0 0 .001 4.854ZM86.859 18.283a2.245 2.245 0 0 0-2.225 2.226 2.245 2.245 0 0 0 2.225 2.226 2.245 2.245 0 0 0 2.224-2.226c-.101-1.315-1.011-2.226-2.224-2.226ZM78.568 22.33a1.922 1.922 0 1 0-.001-3.843 1.922 1.922 0 0 0 .001 3.843ZM70.378 18.688c-1.011 0-1.719.81-1.719 1.72 0 1.012.81 1.72 1.719 1.72.91 0 1.719-.81 1.719-1.72 0-.91-.81-1.72-1.719-1.72ZM62.088 18.89c-.91 0-1.618.709-1.618 1.619s.708 1.619 1.618 1.619c.91 0 1.617-.708 1.617-1.619 0-.91-.707-1.619-1.617-1.619ZM53.898 21.825a1.416 1.416 0 1 0 0-2.833 1.416 1.416 0 0 0 0 2.832ZM45.71 19.194c-.708 0-1.214.506-1.214 1.214s.506 1.214 1.214 1.214c.707 0 1.213-.506 1.213-1.214-.101-.607-.607-1.214-1.213-1.214ZM37.42 19.396c-.607 0-1.011.506-1.011 1.012 0 .607.505 1.012 1.01 1.012.607 0 1.012-.506 1.012-1.012s-.405-1.012-1.011-1.012ZM29.23 19.598a.798.798 0 0 0-.81.81c0 .506.405.81.81.81.404 0 .808-.405.808-.81s-.404-.81-.808-.81ZM20.94 19.8a.691.691 0 0 0-.708.709c0 .405.303.708.707.708a.691.691 0 0 0 .708-.708.691.691 0 0 0-.707-.708ZM12.75 19.902c-.303 0-.505.202-.505.506 0 .303.202.506.505.506s.505-.203.505-.506c0-.304-.202-.506-.505-.506ZM4.56 20.003a.435.435 0 0 0-.404.405c0 .202.202.405.405.405a.435.435 0 0 0 .404-.405.435.435 0 0 0-.404-.405Z"/><path d="M215.967 12.213c0-1.619-.607-3.035-1.719-4.047a5.654 5.654 0 0 0 1.82-4.148 5.87 5.87 0 0 0-5.864-5.868c-1.618 0-3.033.607-4.145 1.72a5.969 5.969 0 0 0-4.146-1.72c-1.617 0-3.134.708-4.246 1.821-1.011-1.012-2.426-1.619-4.044-1.619-1.719 0-3.235.81-4.347 2.024-1.011-1.012-2.326-1.72-3.943-1.72-1.719 0-3.337.81-4.247 2.124-.91-1.112-2.325-1.922-3.943-1.922-1.82 0-3.336.91-4.246 2.327-.91-1.214-2.325-2.023-3.943-2.023a4.81 4.81 0 0 0-4.246 2.529c-.809-1.315-2.326-2.327-3.943-2.327-1.921 0-3.539 1.214-4.247 2.833a4.353 4.353 0 0 0-3.943-2.53c-2.123 0-3.842 1.417-4.246 3.44a4.015 4.015 0 0 0-3.943-3.136c-2.224 0-4.145 1.821-4.145 4.148s1.82 4.148 4.145 4.148a4.015 4.015 0 0 0 3.943-3.136c.404 1.619 1.618 2.833 3.134 3.237-1.82.506-3.134 2.125-3.134 4.047 0 2.327 1.921 4.25 4.246 4.25 1.921 0 3.438-1.215 4.044-2.934.405 1.416 1.517 2.529 2.932 3.035-1.718.506-2.932 2.124-2.932 3.945 0-2.225-1.819-3.945-3.943-3.945-2.224 0-3.943 1.82-3.943 4.047 0 2.225 1.82 4.047 3.943 4.047 2.225 0 3.943-1.72 3.943-3.946 0 2.124 1.618 3.945 3.741 4.148a4.057 4.057 0 0 0 .405 8.094 4.133 4.133 0 0 0 4.044-3.238 4.083 4.083 0 0 0 3.336 3.339 4.134 4.134 0 0 0-3.235 4.047c0 2.327 1.82 4.148 4.145 4.148 1.921 0 3.539-1.316 3.943-3.035.404 1.517 1.517 2.731 3.033 3.136-1.719.506-3.033 2.125-3.033 4.047 0 2.327 1.82 4.148 4.145 4.148a4.057 4.057 0 0 0-4.044 4.047 4.057 4.057 0 0 0 4.044 4.047c2.022 0 3.741-1.518 3.943-3.541.202 1.922 1.618 3.44 3.539 3.743-1.921.303-3.337 2.023-3.337 4.047a4.058 4.058 0 0 0 4.045 4.047c1.92 0 3.538-1.417 3.943-3.238.303 1.619 1.617 2.934 3.235 3.339-1.82.506-3.134 2.124-3.134 4.047 0 2.327 1.819 4.148 4.145 4.148 1.921 0 3.437-1.315 3.943-3.035.404 1.416 1.516 2.63 2.932 3.035-1.719.506-2.932 2.124-2.932 4.047a4.126 4.126 0 0 0 3.943 4.148c-2.123.101-3.842 1.922-3.842 4.047a4.057 4.057 0 0 0 4.044 4.047 4.057 4.057 0 0 0 4.044-4.047c0-2.125-1.719-3.946-3.842-4.047 1.921-.101 3.438-1.518 3.842-3.238.405 1.821 1.921 3.137 3.842 3.238-2.123.101-3.842 1.922-3.842 4.047a4.057 4.057 0 0 0 4.044 4.047 4.057 4.057 0 0 0 4.044-4.047c0-2.125-1.718-3.946-3.842-4.047a4.126 4.126 0 0 0 3.943-4.148c0-1.922-1.213-3.44-2.932-4.047 1.82-.506 3.135-2.226 3.135-4.25 0-1.82-1.112-3.338-2.629-4.046 1.618-.709 2.73-2.327 2.73-4.25 0-1.72-1.011-3.237-2.427-4.046 1.517-.81 2.629-2.327 2.629-4.25 0-1.72-.91-3.136-2.224-4.047 1.415-.91 2.426-2.428 2.426-4.249a5.129 5.129 0 0 0-2.022-4.047c1.314-.91 2.224-2.529 2.224-4.249 0-1.619-.707-3.035-1.921-3.946 1.315-1.011 2.124-2.529 2.124-4.249 0-1.619-.708-3.035-1.82-3.945 1.213-1.012 2.022-2.53 2.022-4.25 0-1.619-.607-3.035-1.719-3.945 1.82-1.215 2.528-2.732 2.528-4.452Zm-9.807 56.05c-.405-1.114-1.214-1.923-2.326-2.429 1.011-.404 1.82-1.214 2.326-2.226.505 1.012 1.314 1.822 2.325 2.226-1.112.506-1.921 1.316-2.325 2.428Zm-8.392-8.398c-.404-1.012-1.314-1.821-2.325-2.327 1.011-.405 1.82-1.113 2.325-2.124.405.91 1.213 1.618 2.022 2.124-.91.607-1.617 1.417-2.022 2.327Zm-8.189-8.094c-.506-1.113-1.416-2.023-2.528-2.428a4.578 4.578 0 0 0 2.528-2.226c.404 1.012 1.213 1.72 2.224 2.226-1.112.506-1.82 1.417-2.224 2.428Zm-8.291-7.891c-.404-1.315-1.415-2.327-2.83-2.732 1.213-.303 2.224-1.214 2.83-2.327.506 1.012 1.315 1.922 2.326 2.327-1.112.506-1.921 1.518-2.326 2.732Zm-8.189-16.896c-.404-1.113-1.314-1.922-2.426-2.327 1.011-.405 1.921-1.113 2.426-2.125a5.365 5.365 0 0 0 2.123 2.125c-1.011.506-1.718 1.315-2.123 2.327Zm-8.29-7.993c-.405-1.214-1.416-2.124-2.629-2.529 1.213-.404 2.123-1.214 2.629-2.327.404 1.012 1.213 1.821 2.224 2.327a4.574 4.574 0 0 0-2.224 2.53Zm8.29-12.14c.405.506.809 1.012 1.416 1.416-.607.405-1.011.91-1.416 1.518a5.418 5.418 0 0 0-1.516-1.518c.505-.404 1.112-.91 1.516-1.416Zm8.189.404a4.82 4.82 0 0 0 1.011 1.012 4.82 4.82 0 0 0-1.011 1.012 4.773 4.773 0 0 0-1.011-1.012c.405-.303.708-.708 1.011-1.011Zm8.19.405.606.607-.606.607-.607-.607.607-.607Zm8.29.304.202.202c-.101.101-.202.202-.202.304l-.202-.203c.101-.1.202-.202.202-.303Zm0 43.301c-.404-.809-1.112-1.416-1.921-1.922.809-.405 1.416-.91 1.921-1.72a4.677 4.677 0 0 0 1.719 1.72c-.708.506-1.314 1.113-1.719 1.922Zm-8.189-8.093a3.95 3.95 0 0 0-2.022-2.024c.91-.405 1.617-1.012 2.022-1.82a3.967 3.967 0 0 0 1.82 1.82c-.809.506-1.517 1.214-1.82 2.024Zm-8.291-8.094a4.162 4.162 0 0 0-2.224-2.125 4.78 4.78 0 0 0 2.224-2.023c.405.81 1.113 1.517 1.921 2.023-.808.405-1.516 1.214-1.921 2.125Zm-8.189-16.795a4.407 4.407 0 0 0-1.921-1.922c.809-.405 1.517-1.012 1.921-1.72a4.676 4.676 0 0 0 1.719 1.72c-.809.506-1.314 1.214-1.719 1.922Zm8.189-3.136c.304.506.809.91 1.315 1.315-.506.405-.91.81-1.213 1.417a4.73 4.73 0 0 0-1.416-1.417c.506-.404.91-.81 1.314-1.315Zm8.19.405c.303.303.505.607.91.91-.304.304-.607.607-.809.91-.303-.303-.607-.707-.91-.91.202-.202.505-.506.809-.91Zm8.29.404c.101.203.303.304.405.405l-.506.506-.505-.506c.303 0 .404-.202.606-.405Zm0 26.609a5.419 5.419 0 0 0-1.516-1.518c.606-.303 1.112-.81 1.516-1.315.405.506.809 1.011 1.314 1.416-.505.405-1.011.91-1.314 1.417Zm-8.189-7.993c-.405-.708-1.011-1.214-1.618-1.619.607-.404 1.213-.81 1.618-1.416.404.607.91 1.113 1.415 1.517a2.975 2.975 0 0 0-1.415 1.518Zm1.112-9.915c-.404.304-.809.81-1.112 1.214-.303-.506-.809-.91-1.314-1.214a4.326 4.326 0 0 0 1.213-1.113c.404.405.707.81 1.213 1.113Zm7.077 9.41a5.8 5.8 0 0 0-1.112-1.114c.404-.303.809-.607 1.112-1.012.303.405.607.709 1.011 1.012-.404.304-.708.708-1.011 1.113Zm0-8.6a3.067 3.067 0 0 0-.809-.81c.304-.202.607-.506.809-.708.202.303.506.506.708.708-.303.304-.506.506-.708.81Zm-16.48-2.429c.405.607.91 1.214 1.517 1.62-.708.404-1.213 1.112-1.618 1.82-.404-.708-1.011-1.315-1.82-1.82.91-.406 1.517-.911 1.921-1.62Zm24.872 36.625c-.405-.91-1.112-1.518-1.921-2.024.809-.404 1.516-1.011 1.921-1.82.505.809 1.112 1.416 1.921 1.82a4.16 4.16 0 0 0-1.921 2.024Zm0-8.6c-.405-.607-.91-1.214-1.517-1.619.607-.404 1.112-.81 1.517-1.416.404.607.91 1.113 1.516 1.416-.606.304-1.112.91-1.516 1.62Zm0-8.7a3.49 3.49 0 0 0-1.214-1.215c.405-.303.809-.708 1.214-1.113.303.405.707.81 1.213 1.113-.506.304-.91.708-1.213 1.214Zm0-8.5c-.304-.303-.506-.606-.91-.91.303-.202.606-.506.91-.81.303.304.505.608.91.81a1.98 1.98 0 0 0-.91.91Zm0-8.599c-.203-.202-.304-.404-.506-.607.202-.202.405-.303.506-.506l.505.506c-.202.203-.303.405-.505.607Zm0-8.498-.304-.304.304-.303.303.303-.303.304Zm0-8.499c-.101-.1 0-.1 0 0v-.1.1c0-.1 0-.1 0 0Zm-41.351-1.922c.404.81 1.112 1.416 1.82 1.922-.809.506-1.517 1.214-1.82 2.125-.405-.91-1.213-1.619-2.123-2.125.91-.404 1.718-1.113 2.123-1.922Zm-8.19 4.654c-.404-1.417-1.516-2.428-2.932-2.833 1.315-.303 2.326-1.214 2.831-2.428a4.741 4.741 0 0 0 2.427 2.428c-1.112.607-1.921 1.619-2.326 2.833Zm8.291 16.896c-.303-1.72-1.719-3.035-3.539-3.238 1.618-.202 2.932-1.315 3.438-2.732a4.102 4.102 0 0 0 2.729 2.732c-1.314.506-2.325 1.72-2.628 3.238Zm8.189 7.992c-.404-1.416-1.516-2.63-3.033-2.934a4.294 4.294 0 0 0 3.033-2.53c.405 1.114 1.314 2.126 2.427 2.53-1.214.506-2.124 1.518-2.427 2.934Zm8.189 16.997c-.202-2.023-1.921-3.54-3.943-3.54 1.82 0 3.438-1.215 3.943-2.935.405 1.417 1.517 2.428 2.831 2.934-1.516.506-2.628 1.922-2.831 3.541Zm8.291 7.892c-.303-1.62-1.618-2.833-3.235-3.137 1.516-.303 2.729-1.315 3.235-2.63a4.24 4.24 0 0 0 2.629 2.63c-1.416.506-2.326 1.72-2.629 3.137Zm8.189 7.891c-.404-1.416-1.516-2.53-2.932-2.833a4.101 4.101 0 0 0 2.932-2.53c.405 1.114 1.314 2.024 2.427 2.53-1.214.506-2.022 1.619-2.427 2.833Zm8.392 8.498c-.304-1.517-1.416-2.63-2.831-3.136 1.314-.404 2.325-1.315 2.831-2.63.505 1.214 1.516 2.225 2.831 2.63-1.416.506-2.528 1.72-2.831 3.136Z"/><path d="M144.385 8.267c-2.224 0-3.943 1.72-3.943 3.946s1.719 3.946 3.943 3.946 3.943-1.72 3.943-3.946-1.719-3.946-3.943-3.946ZM136.196 8.47a3.733 3.733 0 0 0-3.74 3.743 3.733 3.733 0 0 0 3.74 3.743c2.124 0 3.741-1.618 3.741-3.743 0-2.024-1.719-3.744-3.741-3.744ZM128.007 8.773a3.41 3.41 0 0 0-3.437 3.44 3.41 3.41 0 0 0 3.437 3.44 3.41 3.41 0 0 0 3.438-3.44c0-1.922-1.618-3.44-3.438-3.44ZM119.717 8.975c-1.82 0-3.235 1.417-3.235 3.238s1.415 3.238 3.235 3.238c1.82 0 3.235-1.417 3.235-3.238s-1.415-3.238-3.235-3.238ZM111.527 9.178c-1.617 0-3.033 1.315-3.033 3.035 0 1.619 1.314 3.035 3.033 3.035 1.618 0 3.033-1.315 3.033-3.035 0-1.619-1.415-3.035-3.033-3.035ZM103.237 15.046a2.832 2.832 0 0 0 0-5.666 2.832 2.832 0 0 0-2.831 2.833 2.832 2.832 0 0 0 2.831 2.833ZM95.048 9.684a2.504 2.504 0 0 0-2.528 2.529 2.504 2.504 0 0 0 2.528 2.53 2.504 2.504 0 0 0 2.527-2.53 2.504 2.504 0 0 0-2.527-2.53ZM86.858 9.886c-1.314 0-2.325 1.012-2.325 2.327s1.01 2.327 2.325 2.327c1.314 0 2.325-1.012 2.325-2.327s-1.112-2.327-2.325-2.327ZM78.567 10.088c-1.213 0-2.123.91-2.123 2.125 0 1.214.91 2.125 2.123 2.125 1.214 0 2.124-.911 2.124-2.125s-.91-2.125-2.124-2.125ZM70.379 10.29a1.92 1.92 0 0 0-1.921 1.923c0 1.113.809 1.922 1.92 1.922a1.92 1.92 0 0 0 1.922-1.922 1.92 1.92 0 0 0-1.921-1.922ZM62.088 10.493c-.91 0-1.718.81-1.718 1.72 0 .91.809 1.72 1.718 1.72.91 0 1.72-.81 1.72-1.72 0-.91-.709-1.72-1.72-1.72ZM53.899 10.695c-.809 0-1.517.708-1.517 1.518s.708 1.517 1.517 1.517c.809 0 1.516-.708 1.516-1.517 0-.81-.707-1.518-1.516-1.518ZM45.709 10.898c-.708 0-1.314.607-1.314 1.315s.606 1.315 1.314 1.315c.708 0 1.314-.607 1.314-1.315s-.606-1.315-1.314-1.315ZM37.419 11.1c-.607 0-1.112.506-1.112 1.113s.505 1.113 1.112 1.113c.606 0 1.112-.506 1.112-1.113s-.506-1.113-1.112-1.113ZM29.23 11.201c-.506 0-1.012.405-1.012 1.012 0 .506.405 1.012 1.012 1.012.606 0 1.01-.405 1.01-1.012-.1-.506-.505-1.012-1.01-1.012ZM20.939 11.404c-.405 0-.809.404-.809.809s.404.81.809.81c.404 0 .809-.405.809-.81 0-.506-.304-.81-.81-.81ZM12.75 11.606c-.303 0-.606.303-.606.607s.303.607.606.607c.304 0 .607-.303.607-.607 0-.405-.303-.607-.607-.607ZM4.56 12.719a.506.506 0 1 0 0-1.012.506.506 0 0 0 0 1.012ZM136.196.072a3.841 3.841 0 0 0-3.842 3.845 3.841 3.841 0 1 0 7.684 0 3.842 3.842 0 0 0-3.842-3.845ZM128.007.275a3.625 3.625 0 0 0-3.639 3.642 3.625 3.625 0 0 0 3.639 3.642 3.626 3.626 0 0 0 3.64-3.642c0-2.024-1.719-3.642-3.64-3.642ZM119.717.578a3.41 3.41 0 0 0-3.438 3.44 3.41 3.41 0 0 0 3.438 3.44 3.41 3.41 0 0 0 3.437-3.44 3.41 3.41 0 0 0-3.437-3.44ZM111.528.78a3.15 3.15 0 0 0-3.134 3.137 3.15 3.15 0 0 0 3.134 3.136 3.15 3.15 0 0 0 3.134-3.136 3.15 3.15 0 0 0-3.134-3.136ZM103.237 1.084a2.935 2.935 0 0 0 0 5.868 2.935 2.935 0 0 0 0-5.868ZM95.047 6.75a2.73 2.73 0 0 0 2.73-2.732 2.73 2.73 0 1 0-2.73 2.732ZM86.858 6.547a2.528 2.528 0 1 0-.002-5.057 2.528 2.528 0 0 0 .002 5.057ZM78.567 1.691c-1.213 0-2.325 1.012-2.325 2.327s1.011 2.327 2.325 2.327c1.315 0 2.326-1.012 2.326-2.327s-1.011-2.327-2.326-2.327ZM70.378 1.893c-1.112 0-2.022.91-2.022 2.024 0 1.113.91 2.023 2.022 2.023 1.112 0 2.022-.91 2.022-2.023s-.91-2.024-2.022-2.024ZM62.088 5.839a1.82 1.82 0 1 0-.001-3.64 1.82 1.82 0 0 0 .001 3.64ZM53.899 5.637a1.618 1.618 0 1 0-.001-3.237 1.618 1.618 0 0 0 .001 3.237ZM45.71 5.536a1.517 1.517 0 1 0-.001-3.034 1.517 1.517 0 0 0 .001 3.034ZM37.42 2.703c-.708 0-1.315.607-1.315 1.315s.607 1.214 1.314 1.214c.708 0 1.315-.607 1.315-1.315s-.607-1.214-1.315-1.214ZM29.23 5.13a1.112 1.112 0 1 0 0-2.224 1.112 1.112 0 0 0 0 2.225ZM20.94 4.928a.91.91 0 1 0-.001-1.82.91.91 0 0 0 0 1.82ZM12.75 3.209a.798.798 0 0 0-.809.809c0 .506.303.708.708.708a.691.691 0 0 0 .708-.708c0-.405-.203-.81-.607-.81ZM4.56 3.31c-.303 0-.606.303-.606.607 0 .303.303.607.606.607.304 0 .607-.304.607-.607 0-.304-.303-.607-.607-.607Z"/></g><defs><clipPath id="a"><path fill="currentColor" d="M0 0h148v148H0z"/></clipPath></defs>
  </symbol>
</svg>
  