<svg width="215" height="75" viewBox="0 0 215 75" fill="none" xmlns="http://www.w3.org/2000/svg">
  <symbol id="item" viewBox="0 0 215 75"  fill="none">
    <rect x="105.003" y="70" width="5" height="50" rx="2.5" transform="rotate(-180 105.003 70)" fill="currentColor"/><rect opacity=".6" x="95.001" y="65" width="5" height="55" rx="2.5" transform="rotate(-180 95.001 65)" fill="currentColor"/><rect opacity=".4" width="5" height="40" rx="2.5" transform="matrix(-1 0 0 1 85.003 15)" fill="currentColor"/><rect opacity=".2" width="5" height="60" rx="2.5" transform="matrix(-1 0 0 1 75.002 10)" fill="currentColor"/><rect opacity=".4" width="5" height="45" rx="2.5" transform="matrix(-1 0 0 1 65 25)" fill="currentColor"/><rect opacity=".2" width="5" height="50" rx="2.5" transform="matrix(-1 0 0 1 55.001 10)" fill="currentColor"/><rect opacity=".6" width="5" height="55" rx="2.5" transform="matrix(-1 0 0 1 45 15)" fill="currentColor"/><rect opacity=".3" width="5" height="65" rx="2.5" transform="matrix(-1 0 0 1 35.001 10)" fill="currentColor"/><rect opacity=".2" width="5" height="55" rx="2.5" transform="matrix(-1 0 0 1 25 10)" fill="currentColor"/><rect opacity=".4" width="5" height="55" rx="2.5" transform="matrix(-1 0 0 1 15.002 10)" fill="currentColor"/><rect opacity=".6" width="5" height="45" rx="2.5" transform="matrix(-1 0 0 1 5 20)" fill="currentColor"/><rect x="215" y="70" width="5" height="50" rx="2.5" transform="rotate(-180 215 70)" fill="currentColor"/><rect opacity=".6" x="205.002" y="62.379" width="5" height="57.379" rx="2.5" transform="rotate(-180 205.002 62.379)" fill="currentColor"/><rect opacity=".4" width="5" height="45" rx="2.5" transform="matrix(-1 0 0 1 195 10)" fill="currentColor"/><rect opacity=".2" width="5" height="60" rx="2.5" transform="matrix(-1 0 0 1 185.002 10)" fill="currentColor"/><rect opacity=".4" width="5" height="60" rx="2.5" transform="matrix(-1 0 0 1 175.001 10)" fill="currentColor"/><rect opacity=".2" width="5" height="60" rx="2.5" transform="matrix(-1 0 0 1 165.002 10)" fill="currentColor"/><rect opacity=".6" width="5" height="70" rx="2.5" transform="matrix(-1 0 0 1 155.001 0)" fill="currentColor"/><rect opacity=".3" width="5" height="55" rx="2.5" transform="matrix(-1 0 0 1 145.002 15)" fill="currentColor"/><rect opacity=".2" width="5" height="55" rx="2.5" transform="matrix(-1 0 0 1 135.001 10)" fill="currentColor"/><rect opacity=".4" width="5" height="55" rx="2.5" transform="matrix(-1 0 0 1 125.003 10)" fill="currentColor"/><rect opacity=".6" width="5" height="50" rx="2.5" transform="matrix(-1 0 0 1 115.001 15)" fill="currentColor"/>
  </symbol>
</svg>
  