<svg width="16" height="16" viewBox="0 0 16 16" fill="none" xmlns="http://www.w3.org/2000/svg">
  <symbol id="item" viewBox="0 0 16 16"  fill="none">
    <circle opacity=".85" cx="15.09" cy=".91" transform="rotate(90 15.09 .91)" fill="currentColor" r=".91"/><circle cx="15.09" cy="5.625" transform="rotate(90 15.09 5.625)" fill="currentColor" r=".91"/><circle opacity=".25" cx="15.09" cy="10.348" transform="rotate(90 15.09 10.348)" fill="currentColor" r=".91"/><circle opacity=".25" cx="15.09" cy="12.701" transform="rotate(90 15.09 12.7)" fill="currentColor" r=".91"/><circle opacity=".5" cx="13.064" cy="11.53" transform="rotate(90 13.064 11.53)" fill="currentColor" r=".91"/><circle opacity=".25" cx="13.064" cy="6.73" transform="rotate(90 13.064 6.73)" fill="currentColor" r=".91"/><circle opacity=".5" cx="13.064" cy="4.428" transform="rotate(90 13.064 4.428)" fill="currentColor" r=".91"/><circle opacity=".25" cx="13.064" cy="2.076" transform="rotate(90 13.064 2.076)" fill="currentColor" r=".91"/><circle opacity=".25" cx="11.038" cy=".91" transform="rotate(90 11.038 .91)" fill="currentColor" r=".91"/><circle opacity=".25" cx="11.038" cy="5.625" transform="rotate(90 11.038 5.625)" fill="currentColor" r=".91"/><circle cx="11.038" cy="7.989" transform="rotate(90 11.038 7.99)" fill="currentColor" r=".91"/><circle opacity=".25" cx="11.038" cy="10.348" transform="rotate(90 11.038 10.348)" fill="currentColor" r=".91"/><circle opacity=".5" cx="11.038" cy="12.701" transform="rotate(90 11.038 12.7)" fill="currentColor" r=".91"/><circle opacity=".45" cx="11.038" cy="15.053" transform="rotate(90 11.038 15.053)" fill="currentColor" r=".91"/><circle opacity=".25" cx="9" cy="13.889" transform="rotate(90 9 13.889)" fill="currentColor" r=".91"/><circle opacity=".5" cx="9" cy="9.153" transform="rotate(90 9 9.153)" fill="currentColor" r=".91"/><circle opacity=".5" cx="9" cy="6.777" transform="rotate(90 9 6.777)" fill="currentColor" r=".91"/><circle opacity=".25" cx="9" cy="4.428" transform="rotate(90 9 4.428)" fill="currentColor" r=".91"/><circle opacity=".5" cx="9" cy="2.076" transform="rotate(90 9 2.076)" fill="currentColor" r=".91"/><circle opacity=".25" cx="6.984" cy=".91" transform="rotate(90 6.984 .91)" fill="currentColor" r=".91"/><circle cx="4.947" cy="2.076" transform="rotate(90 4.947 2.076)" fill="currentColor" r=".91"/><circle opacity=".25" cx="2.928" cy=".91" transform="rotate(90 2.928 .91)" fill="currentColor" r=".91"/><circle opacity=".25" cx="2.928" cy="3.256" transform="rotate(90 2.928 3.256)" fill="currentColor" r=".91"/><circle opacity=".75" cx=".91" cy="4.428" transform="rotate(90 .91 4.428)" fill="currentColor" r=".91"/><circle opacity=".25" cx=".91" cy="6.791" transform="rotate(90 .91 6.79)" fill="currentColor" r=".91"/><circle opacity=".5" cx=".91" cy="9.153" transform="rotate(90 .91 9.153)" fill="currentColor" r=".91"/><circle opacity=".25" cx=".91" cy="13.889" transform="rotate(90 .91 13.889)" fill="currentColor" r=".91"/><circle opacity=".25" cx="2.928" cy="7.989" transform="rotate(90 2.928 7.99)" fill="currentColor" r=".91"/><circle opacity=".25" cx="2.928" cy="10.348" transform="rotate(90 2.928 10.348)" fill="currentColor" r=".91"/><circle opacity=".75" cx="2.928" cy="12.708" transform="rotate(90 2.928 12.708)" fill="currentColor" r=".91"/><circle opacity=".25" cx="2.928" cy="15.053" transform="rotate(90 2.928 15.053)" fill="currentColor" r=".91"/><circle opacity=".25" cx="4.947" cy="4.428" transform="rotate(90 4.947 4.428)" fill="currentColor" r=".91"/><circle opacity=".5" cx="4.947" cy="6.791" transform="rotate(90 4.947 6.79)" fill="currentColor" r=".91"/><circle opacity=".5" cx="4.947" cy="9.153" transform="rotate(90 4.947 9.153)" fill="currentColor" r=".91"/><circle opacity=".25" cx="4.947" cy="11.53" transform="rotate(90 4.947 11.53)" fill="currentColor" r=".91"/><circle opacity=".25" cx="4.947" cy="13.889" transform="rotate(90 4.947 13.889)" fill="currentColor" r=".91"/><circle opacity=".5" cx="6.984" cy="3.256" transform="rotate(90 6.984 3.256)" fill="currentColor" r=".91"/><circle opacity=".25" cx="6.984" cy="7.989" transform="rotate(90 6.984 7.99)" fill="currentColor" r=".91"/><circle cx="6.984" cy="10.348" transform="rotate(90 6.984 10.348)" fill="currentColor" r=".91"/><circle opacity=".25" cx="6.984" cy="12.708" transform="rotate(90 6.984 12.708)" fill="currentColor" r=".91"/><circle opacity=".75" cx="6.984" cy="15.053" transform="rotate(90 6.984 15.053)" fill="currentColor" r=".91"/><circle opacity=".85" cx="15.09" cy="15.053" transform="rotate(90 15.09 15.053)" fill="currentColor" r=".91"/>
  </symbol>
</svg>
  