<svg width="148" height="148" viewBox="0 0 148 148" fill="none" xmlns="http://www.w3.org/2000/svg">
  <symbol id="item" viewBox="0 0 148 148"  fill="none">
    <path opacity=".85" d="M131.161 8.418a8.419 8.419 0 0 0 8.42 8.417 8.419 8.419 0 1 0 0-16.835 8.419 8.419 0 0 0-8.42 8.418Z" fill="currentColor"/><path d="M131.161 52.03a8.419 8.419 0 0 0 8.42 8.417 8.419 8.419 0 1 0 0-16.835 8.419 8.419 0 0 0-8.42 8.417Z" fill="currentColor"/><path opacity=".25" d="M131.161 95.724a8.42 8.42 0 0 0 8.42 8.417A8.419 8.419 0 0 0 148 95.724a8.419 8.419 0 0 0-8.419-8.418 8.419 8.419 0 0 0-8.42 8.418ZM131.161 117.482a8.42 8.42 0 0 0 8.42 8.418 8.419 8.419 0 0 0 8.419-8.418 8.419 8.419 0 0 0-8.419-8.417 8.419 8.419 0 0 0-8.42 8.417Z" fill="currentColor"/><path opacity=".5" d="M112.422 106.649a8.418 8.418 0 0 0 8.419 8.417 8.418 8.418 0 1 0 0-16.835 8.418 8.418 0 0 0-8.419 8.418Z" fill="currentColor"/><path opacity=".25" d="M112.422 62.256a8.418 8.418 0 0 0 8.419 8.418 8.418 8.418 0 1 0 0-16.835 8.418 8.418 0 0 0-8.419 8.417Z" fill="currentColor"/><path opacity=".5" d="M112.422 40.962a8.418 8.418 0 0 0 8.419 8.418 8.418 8.418 0 1 0 0-16.835 8.418 8.418 0 0 0-8.419 8.417Z" fill="currentColor"/><path opacity=".25" d="M112.422 19.206a8.418 8.418 0 0 0 8.419 8.417 8.418 8.418 0 1 0 0-16.835 8.418 8.418 0 0 0-8.419 8.418ZM93.682 8.418a8.418 8.418 0 0 0 8.419 8.417 8.419 8.419 0 1 0 0-16.835 8.418 8.418 0 0 0-8.419 8.418ZM93.682 52.03a8.418 8.418 0 0 0 8.419 8.417 8.419 8.419 0 1 0 0-16.835 8.418 8.418 0 0 0-8.419 8.417Z" fill="currentColor"/><path d="M93.682 73.9a8.418 8.418 0 0 0 8.419 8.417c4.65 0 8.42-3.768 8.42-8.417a8.419 8.419 0 0 0-8.42-8.418 8.418 8.418 0 0 0-8.419 8.418Z" fill="currentColor"/><path opacity=".25" d="M93.682 95.724a8.418 8.418 0 0 0 8.419 8.417 8.42 8.42 0 0 0 8.42-8.417 8.419 8.419 0 0 0-8.42-8.418 8.418 8.418 0 0 0-8.419 8.418Z" fill="currentColor"/><path opacity=".5" d="M93.682 117.482a8.419 8.419 0 0 0 8.419 8.418 8.42 8.42 0 0 0 8.42-8.418 8.419 8.419 0 0 0-8.42-8.417 8.418 8.418 0 0 0-8.419 8.417Z" fill="currentColor"/><path opacity=".45" d="M93.682 139.241a8.419 8.419 0 0 0 8.419 8.418 8.418 8.418 0 1 0 0-16.835 8.418 8.418 0 0 0-8.419 8.417Z" fill="currentColor"/><path opacity=".25" d="M74.834 128.469a8.418 8.418 0 0 0 8.42 8.417 8.418 8.418 0 1 0 0-16.835 8.419 8.419 0 0 0-8.42 8.418Z" fill="currentColor"/><path opacity=".5" d="M74.834 84.67a8.418 8.418 0 0 0 8.42 8.417 8.418 8.418 0 1 0 0-16.835 8.418 8.418 0 0 0-8.42 8.418ZM74.834 62.685a8.418 8.418 0 0 0 8.42 8.418 8.418 8.418 0 1 0 0-16.835 8.418 8.418 0 0 0-8.42 8.417Z" fill="currentColor"/><path opacity=".25" d="M74.834 40.962a8.418 8.418 0 0 0 8.42 8.417 8.418 8.418 0 1 0 0-16.834 8.418 8.418 0 0 0-8.42 8.417Z" fill="currentColor"/><path opacity=".5" d="M74.834 19.206a8.418 8.418 0 0 0 8.42 8.417 8.418 8.418 0 1 0 0-16.835 8.418 8.418 0 0 0-8.42 8.418Z" fill="currentColor"/><path opacity=".25" d="M56.187 8.418a8.418 8.418 0 0 0 8.419 8.417 8.418 8.418 0 1 0 0-16.835 8.418 8.418 0 0 0-8.42 8.418Z" fill="currentColor"/><path d="M37.338 19.206a8.418 8.418 0 0 0 8.42 8.417 8.418 8.418 0 1 0 0-16.835 8.418 8.418 0 0 0-8.42 8.418Z" fill="currentColor"/><path opacity=".25" d="M18.668 8.418a8.418 8.418 0 0 0 8.42 8.417 8.418 8.418 0 1 0 0-16.835 8.418 8.418 0 0 0-8.42 8.418ZM18.668 30.12a8.418 8.418 0 0 0 8.42 8.417 8.418 8.418 0 1 0 0-16.835 8.418 8.418 0 0 0-8.42 8.417Z" fill="currentColor"/><path opacity=".75" d="M0 40.962a8.418 8.418 0 0 0 8.42 8.418 8.418 8.418 0 1 0 0-16.835A8.418 8.418 0 0 0 0 40.962Z" fill="currentColor"/><path opacity=".25" d="M0 62.816a8.418 8.418 0 0 0 8.42 8.417 8.418 8.418 0 1 0 0-16.835A8.418 8.418 0 0 0 0 62.816Z" fill="currentColor"/><path opacity=".5" d="M0 84.67a8.418 8.418 0 0 0 8.42 8.417 8.418 8.418 0 1 0 0-16.835A8.418 8.418 0 0 0 0 84.67Z" fill="currentColor"/><path opacity=".25" d="M0 128.469a8.418 8.418 0 0 0 8.42 8.417 8.418 8.418 0 1 0 0-16.835A8.419 8.419 0 0 0 0 128.469ZM18.668 73.9a8.418 8.418 0 0 0 8.42 8.417 8.418 8.418 0 1 0 0-16.835 8.418 8.418 0 0 0-8.42 8.418ZM18.668 95.724a8.419 8.419 0 0 0 8.42 8.417 8.419 8.419 0 1 0 0-16.835 8.418 8.418 0 0 0-8.42 8.418Z" fill="currentColor"/><path opacity=".75" d="M18.668 117.547a8.419 8.419 0 0 0 8.42 8.418 8.419 8.419 0 1 0 0-16.835 8.418 8.418 0 0 0-8.42 8.417Z" fill="currentColor"/><path opacity=".25" d="M18.668 139.241a8.419 8.419 0 0 0 8.42 8.418 8.419 8.419 0 1 0 0-16.835 8.418 8.418 0 0 0-8.42 8.417ZM37.338 40.962a8.418 8.418 0 0 0 8.42 8.418 8.418 8.418 0 1 0 0-16.835 8.418 8.418 0 0 0-8.42 8.417Z" fill="currentColor"/><path opacity=".5" d="M37.338 62.816a8.418 8.418 0 0 0 8.42 8.417 8.418 8.418 0 1 0 0-16.835 8.418 8.418 0 0 0-8.42 8.418ZM37.338 84.67a8.418 8.418 0 0 0 8.42 8.417 8.418 8.418 0 1 0 0-16.835 8.418 8.418 0 0 0-8.42 8.418Z" fill="currentColor"/><path opacity=".25" d="M37.338 106.649a8.418 8.418 0 0 0 8.42 8.417 8.418 8.418 0 1 0 0-16.835 8.418 8.418 0 0 0-8.42 8.418ZM37.338 128.469a8.418 8.418 0 0 0 8.42 8.417 8.418 8.418 0 1 0 0-16.835 8.419 8.419 0 0 0-8.42 8.418Z" fill="currentColor"/><path opacity=".5" d="M56.187 30.12a8.418 8.418 0 0 0 8.419 8.417 8.418 8.418 0 1 0 0-16.835 8.418 8.418 0 0 0-8.42 8.417Z" fill="currentColor"/><path opacity=".25" d="M56.187 73.9a8.418 8.418 0 0 0 8.419 8.417 8.418 8.418 0 1 0 0-16.835 8.418 8.418 0 0 0-8.42 8.418Z" fill="currentColor"/><path d="M56.187 95.724a8.419 8.419 0 0 0 8.419 8.417 8.419 8.419 0 1 0 0-16.835 8.418 8.418 0 0 0-8.42 8.418Z" fill="currentColor"/><path opacity=".25" d="M56.187 117.547a8.419 8.419 0 0 0 8.419 8.418 8.419 8.419 0 1 0 0-16.835 8.418 8.418 0 0 0-8.42 8.417Z" fill="currentColor"/><path opacity=".75" d="M56.187 139.241a8.419 8.419 0 0 0 8.419 8.418 8.419 8.419 0 1 0 0-16.835 8.418 8.418 0 0 0-8.42 8.417Z" fill="currentColor"/><path opacity=".85" d="M131.161 139.241a8.42 8.42 0 0 0 8.42 8.418 8.418 8.418 0 1 0 0-16.835 8.418 8.418 0 0 0-8.42 8.417Z" fill="currentColor"/>
  </symbol>
</svg>
  