<svg width="424" height="148" viewBox="0 0 424 148" fill="none" xmlns="http://www.w3.org/2000/svg">
  <symbol id="item" viewBox="0 0 424 148"  fill="none">
    <g clip-path="url(#a)" fill="currentColor"><path d="M202.145 138.134a4.932 4.932 0 0 0 4.931-4.933v-88.8a4.931 4.931 0 1 0-9.861 0v88.8a4.932 4.932 0 0 0 4.93 4.933Z"/><path opacity=".6" d="M182.421 128.267a4.931 4.931 0 0 0 4.93-4.933V24.667a4.932 4.932 0 0 0-4.93-4.934 4.932 4.932 0 0 0-4.93 4.934v98.667a4.931 4.931 0 0 0 4.93 4.933Z"/><path opacity=".4" d="M157.774 34.533a4.931 4.931 0 0 1 4.93-4.933 4.931 4.931 0 0 1 4.93 4.933V103.6a4.931 4.931 0 1 1-9.86 0V34.533Z"/><path opacity=".2" d="M138.05 24.667a4.932 4.932 0 0 1 4.93-4.934 4.932 4.932 0 0 1 4.93 4.934V133.2a4.932 4.932 0 0 1-4.93 4.934 4.932 4.932 0 0 1-4.93-4.934V24.667Z"/><path opacity=".4" d="M118.324 54.266a4.932 4.932 0 0 1 4.93-4.933 4.932 4.932 0 0 1 4.93 4.933V133.2a4.931 4.931 0 1 1-9.86 0V54.266Z"/><path opacity=".2" d="M98.607 24.667a4.932 4.932 0 0 1 4.93-4.934 4.932 4.932 0 0 1 4.93 4.934v88.8a4.931 4.931 0 1 1-9.86 0v-88.8Z"/><path opacity=".6" d="M83.813 29.6a4.932 4.932 0 0 1 4.93 4.933V133.2a4.931 4.931 0 1 1-9.86 0V34.533a4.932 4.932 0 0 1 4.93-4.933Z"/><path opacity=".3" d="M59.165 24.667a4.932 4.932 0 0 1 4.93-4.934 4.932 4.932 0 0 1 4.93 4.934v118.4a4.931 4.931 0 1 1-9.86 0v-118.4Z"/><path opacity=".2" d="M39.441 24.667a4.932 4.932 0 0 1 4.93-4.934 4.932 4.932 0 0 1 4.93 4.934v98.667a4.932 4.932 0 0 1-4.93 4.933 4.932 4.932 0 0 1-4.93-4.933V24.667Z"/><path opacity=".4" d="M19.724 24.667a4.932 4.932 0 0 1 4.93-4.934 4.932 4.932 0 0 1 4.93 4.934v98.667a4.932 4.932 0 0 1-4.93 4.933 4.932 4.932 0 0 1-4.93-4.933V24.667Z"/><path opacity=".6" d="M4.93 39.466A4.932 4.932 0 0 1 9.86 44.4v78.933a4.932 4.932 0 0 1-4.93 4.934A4.932 4.932 0 0 1 0 123.333V44.4a4.932 4.932 0 0 1 4.93-4.934Z"/><path d="M414.139 133.201a4.932 4.932 0 1 0 9.861 0v-88.8a4.931 4.931 0 1 0-9.861 0v88.8Z"/><path opacity=".6" d="M394.422 118.16a4.933 4.933 0 0 0 4.931 4.934 4.932 4.932 0 0 0 4.93-4.934V14.8a4.931 4.931 0 1 0-9.861 0v103.36Z"/><path opacity=".4" d="M374.698 24.667a4.932 4.932 0 0 1 4.93-4.934 4.932 4.932 0 0 1 4.93 4.934V103.6a4.932 4.932 0 0 1-4.93 4.934 4.932 4.932 0 0 1-4.93-4.934V24.667Z"/><path opacity=".2" d="M354.981 24.667a4.932 4.932 0 0 1 4.93-4.934 4.932 4.932 0 0 1 4.93 4.934V133.2a4.932 4.932 0 0 1-4.93 4.934 4.932 4.932 0 0 1-4.93-4.934V24.667Z"/><path opacity=".4" d="M335.258 24.667a4.932 4.932 0 0 1 4.93-4.934 4.932 4.932 0 0 1 4.93 4.934V133.2a4.932 4.932 0 0 1-4.93 4.934 4.932 4.932 0 0 1-4.93-4.934V24.667Z"/><path opacity=".2" d="M315.539 24.667a4.932 4.932 0 0 1 4.93-4.934 4.932 4.932 0 0 1 4.93 4.934V133.2a4.932 4.932 0 0 1-4.93 4.934 4.932 4.932 0 0 1-4.93-4.934V24.667Z"/><path opacity=".6" d="M300.746 0a4.932 4.932 0 0 1 4.93 4.933v128.268a4.932 4.932 0 0 1-4.93 4.933 4.932 4.932 0 0 1-4.93-4.933V4.933A4.932 4.932 0 0 1 300.746 0Z"/><path opacity=".3" d="M276.097 34.533a4.931 4.931 0 0 1 4.93-4.933 4.931 4.931 0 0 1 4.93 4.933V133.2a4.931 4.931 0 1 1-9.86 0V34.533Z"/><path opacity=".2" d="M256.374 24.667a4.932 4.932 0 0 1 4.93-4.934 4.932 4.932 0 0 1 4.93 4.934v98.667a4.932 4.932 0 0 1-4.93 4.933 4.932 4.932 0 0 1-4.93-4.933V24.667Z"/><path opacity=".4" d="M236.657 24.667a4.932 4.932 0 1 1 9.861 0v98.667a4.932 4.932 0 1 1-9.861 0V24.667Z"/><path opacity=".6" d="M221.862 29.6a4.932 4.932 0 0 1 4.931 4.933v88.8a4.933 4.933 0 0 1-4.931 4.934 4.932 4.932 0 0 1-4.93-4.934v-88.8a4.932 4.932 0 0 1 4.93-4.933Z"/></g><defs><clipPath id="a"><path fill="currentColor" d="M0 0h424v148H0z"/></clipPath></defs>
  </symbol>
</svg>
  