<svg width="60" height="40" viewBox="0 0 60 40" fill="none" xmlns="http://www.w3.org/2000/svg">
  <symbol id="item" viewBox="0 0 60 40"  fill="none">
    <path fill-rule="evenodd" clip-rule="evenodd" d="M11.343 8.24a.61.61 0 0 0-.239.814c.15.298.5.418.783.267l1.092-.586.567 1.127c.147.291.5.401.789.246a.61.61 0 0 0 .258-.807l-.568-1.127 1.093-.586a.61.61 0 0 0 .238-.813.574.574 0 0 0-.782-.267l-1.092.586-.568-1.127a.574.574 0 0 0-.788-.246.61.61 0 0 0-.258.807l.567 1.127-1.092.586ZM12.832 14.986a.61.61 0 0 0-.238.813c.15.299.5.418.782.267l1.092-.586.568 1.128c.146.29.5.4.788.246a.61.61 0 0 0 .258-.807l-.567-1.128 1.092-.585a.61.61 0 0 0 .239-.814.574.574 0 0 0-.782-.266l-1.093.585-.567-1.127a.574.574 0 0 0-.788-.246.61.61 0 0 0-.259.807l.568 1.127-1.093.586ZM6.366 12.876a.61.61 0 0 0-.238.813c.15.299.5.418.782.267l1.092-.586.568 1.128c.146.29.5.4.788.246a.61.61 0 0 0 .258-.807l-.567-1.128 1.092-.585a.61.61 0 0 0 .239-.814.574.574 0 0 0-.783-.266l-1.092.585-.567-1.127a.573.573 0 0 0-.789-.246.61.61 0 0 0-.258.807l.567 1.127-1.092.586Z" fill="currentColor"/><path opacity=".5" fill-rule="evenodd" clip-rule="evenodd" d="M19.298 17.096a.61.61 0 0 0-.238.814c.15.298.5.417.782.266l1.092-.585.568 1.127c.146.29.499.4.788.246a.61.61 0 0 0 .258-.807l-.567-1.128 1.092-.585a.61.61 0 0 0 .238-.814.574.574 0 0 0-.782-.266l-1.092.585-.567-1.127a.574.574 0 0 0-.789-.246.61.61 0 0 0-.258.807l.567 1.128-1.092.585Z" fill="currentColor"/><path fill-rule="evenodd" clip-rule="evenodd" d="M25.764 19.206a.61.61 0 0 0-.239.814c.15.298.5.417.782.266l1.093-.585.567 1.127c.147.29.5.401.789.246a.61.61 0 0 0 .258-.807l-.568-1.127 1.093-.586a.61.61 0 0 0 .238-.813.574.574 0 0 0-.782-.267l-1.092.586-.568-1.127a.574.574 0 0 0-.788-.247.61.61 0 0 0-.258.808l.567 1.127-1.092.585ZM32.23 21.317a.61.61 0 0 0-.239.813c.15.298.5.418.782.267l1.092-.586.568 1.127c.146.291.5.401.788.246a.61.61 0 0 0 .258-.807l-.567-1.127 1.092-.586a.61.61 0 0 0 .239-.813.574.574 0 0 0-.782-.267l-1.093.586-.567-1.127a.573.573 0 0 0-.788-.246.61.61 0 0 0-.259.807l.568 1.127-1.093.585Z" fill="currentColor"/><path opacity=".3" fill-rule="evenodd" clip-rule="evenodd" d="M38.695 23.427a.61.61 0 0 0-.238.813c.15.298.5.418.782.267l1.092-.586.568 1.127c.146.291.5.401.788.246a.61.61 0 0 0 .259-.807l-.568-1.127 1.092-.586a.61.61 0 0 0 .239-.813.574.574 0 0 0-.782-.267l-1.093.586-.567-1.127a.574.574 0 0 0-.788-.246.61.61 0 0 0-.259.807l.568 1.127-1.093.585Z" fill="currentColor"/><path fill-rule="evenodd" clip-rule="evenodd" d="M45.162 25.537a.61.61 0 0 0-.239.813c.15.299.5.418.782.267l1.093-.586.567 1.127c.146.291.5.401.788.246a.61.61 0 0 0 .258-.807l-.567-1.127 1.093-.585a.61.61 0 0 0 .238-.814.574.574 0 0 0-.782-.266l-1.093.585-.567-1.127a.574.574 0 0 0-.788-.246.61.61 0 0 0-.259.807l.568 1.127-1.092.586ZM51.433 27.549a.61.61 0 0 0-.238.813c.15.298.5.418.782.267l1.093-.586.567 1.127c.146.291.5.401.788.246a.61.61 0 0 0 .259-.807l-.568-1.127 1.093-.586a.61.61 0 0 0 .238-.813.574.574 0 0 0-.782-.267l-1.093.586-.567-1.127a.573.573 0 0 0-.788-.246.61.61 0 0 0-.258.807l.567 1.127-1.093.585ZM50.216 20.942a.61.61 0 0 0-.239.813c.15.298.5.418.783.267l1.092-.586.567 1.127c.147.291.5.401.789.246a.61.61 0 0 0 .258-.807l-.568-1.127 1.093-.586a.61.61 0 0 0 .238-.813.574.574 0 0 0-.782-.267l-1.092.586-.568-1.127a.574.574 0 0 0-.788-.246.61.61 0 0 0-.258.807l.567 1.127-1.092.586ZM22.553 5.768a.61.61 0 0 0-.238.814c.15.298.5.417.782.266l1.092-.586.568 1.128c.146.29.499.4.788.246a.61.61 0 0 0 .258-.807L25.236 5.7l1.092-.585a.61.61 0 0 0 .238-.814.574.574 0 0 0-.782-.266l-1.092.585-.567-1.127a.573.573 0 0 0-.789-.246.61.61 0 0 0-.258.807l.567 1.127-1.092.586ZM16.087 3.658a.61.61 0 0 0-.238.814c.15.298.5.417.782.266l1.092-.585.568 1.127c.146.29.499.4.788.246a.61.61 0 0 0 .258-.807L18.77 3.59l1.092-.585a.61.61 0 0 0 .238-.814.574.574 0 0 0-.782-.266l-1.092.586-.568-1.128a.573.573 0 0 0-.788-.246.61.61 0 0 0-.258.807l.567 1.128-1.092.585ZM29.019 7.878a.61.61 0 0 0-.238.814c.15.298.5.417.782.266l1.092-.585.568 1.127c.146.29.499.4.788.246a.61.61 0 0 0 .258-.807l-.567-1.128 1.092-.585a.61.61 0 0 0 .238-.814.574.574 0 0 0-.782-.266l-1.092.586-.567-1.128a.573.573 0 0 0-.789-.246.61.61 0 0 0-.258.807l.567 1.128-1.092.585Z" fill="currentColor"/><path opacity=".7" fill-rule="evenodd" clip-rule="evenodd" d="M35.485 9.988a.61.61 0 0 0-.239.814c.15.298.5.418.782.266l1.093-.585.567 1.127c.147.29.5.401.789.246a.61.61 0 0 0 .258-.807l-.568-1.127 1.093-.586a.61.61 0 0 0 .238-.813.574.574 0 0 0-.782-.267l-1.092.586-.568-1.127a.573.573 0 0 0-.788-.246.61.61 0 0 0-.258.807l.567 1.127-1.092.585Z" fill="currentColor"/><path fill-rule="evenodd" clip-rule="evenodd" d="M41.95 12.098a.61.61 0 0 0-.238.814c.15.298.5.417.782.266l1.093-.585.567 1.127c.146.291.5.401.788.246a.61.61 0 0 0 .259-.807l-.568-1.127 1.093-.586a.61.61 0 0 0 .238-.813.574.574 0 0 0-.782-.267l-1.092.586-.568-1.127a.574.574 0 0 0-.788-.246.61.61 0 0 0-.258.807l.567 1.127-1.092.585ZM48.416 14.208a.61.61 0 0 0-.238.814c.15.298.5.417.782.266l1.093-.585.567 1.127c.147.291.5.401.788.246a.61.61 0 0 0 .259-.807l-.568-1.127 1.093-.586a.61.61 0 0 0 .238-.813.574.574 0 0 0-.782-.267l-1.093.586-.567-1.127a.574.574 0 0 0-.788-.246.61.61 0 0 0-.258.807l.567 1.127-1.093.585ZM54.882 16.319a.61.61 0 0 0-.238.813c.15.298.5.418.782.267l1.092-.586.568 1.128c.146.29.5.4.788.245a.61.61 0 0 0 .258-.806l-.567-1.128 1.092-.585a.61.61 0 0 0 .239-.814.574.574 0 0 0-.782-.267l-1.093.586-.567-1.127a.573.573 0 0 0-.789-.246.61.61 0 0 0-.258.807l.568 1.127-1.093.586ZM17.806 10.35a.61.61 0 0 0-.238.813c.15.299.5.418.782.267l1.092-.586.568 1.128c.146.29.5.4.788.246a.61.61 0 0 0 .259-.807l-.568-1.128 1.092-.585a.61.61 0 0 0 .239-.814.574.574 0 0 0-.782-.266l-1.093.585-.567-1.127a.574.574 0 0 0-.788-.246.61.61 0 0 0-.259.807l.568 1.127-1.093.586ZM24.27 12.46a.61.61 0 0 0-.24.813c.15.298.501.417.783.266l1.092-.585.568 1.127c.146.29.499.4.788.246a.61.61 0 0 0 .258-.807l-.567-1.127 1.092-.586a.61.61 0 0 0 .239-.814.574.574 0 0 0-.783-.266l-1.092.585-.567-1.127a.573.573 0 0 0-.789-.246.61.61 0 0 0-.258.807l.567 1.127-1.092.586ZM30.732 14.568a.61.61 0 0 0-.239.814c.15.298.5.417.783.266l1.092-.585.567 1.127c.147.29.5.4.789.246a.61.61 0 0 0 .258-.807l-.568-1.127 1.093-.586a.61.61 0 0 0 .238-.813.574.574 0 0 0-.782-.267l-1.092.586-.568-1.128a.574.574 0 0 0-.788-.245.61.61 0 0 0-.258.806l.567 1.128-1.092.585ZM37.204 16.68a.61.61 0 0 0-.239.814c.15.298.5.417.783.266l1.092-.585.567 1.127c.147.29.5.4.789.246a.61.61 0 0 0 .258-.807l-.568-1.127 1.093-.586a.61.61 0 0 0 .238-.813.574.574 0 0 0-.782-.267l-1.092.586-.568-1.128a.574.574 0 0 0-.788-.246.61.61 0 0 0-.258.807l.567 1.128-1.092.585ZM43.67 18.79a.61.61 0 0 0-.239.814c.15.298.5.417.782.266l1.093-.585.568 1.127c.146.29.499.4.788.246a.61.61 0 0 0 .258-.807l-.568-1.127 1.093-.586a.61.61 0 0 0 .238-.814.574.574 0 0 0-.782-.266l-1.092.586-.567-1.128a.574.574 0 0 0-.789-.245.61.61 0 0 0-.258.806l.567 1.128-1.092.585Z" fill="currentColor"/><path opacity=".7" fill-rule="evenodd" clip-rule="evenodd" d="M7.832 19.697a.61.61 0 0 0-.238.814c.15.298.5.417.782.266l1.092-.586.568 1.128c.146.29.499.4.788.245a.61.61 0 0 0 .258-.806l-.567-1.128 1.092-.585a.61.61 0 0 0 .238-.814.574.574 0 0 0-.782-.266l-1.092.585-.568-1.127a.574.574 0 0 0-.788-.246.61.61 0 0 0-.258.807l.567 1.127-1.092.586Z" fill="currentColor"/><path opacity=".3" fill-rule="evenodd" clip-rule="evenodd" d="M9.32 26.442a.61.61 0 0 0-.237.814c.15.298.5.418.782.267l1.092-.586.567 1.127c.147.29.5.401.789.246a.61.61 0 0 0 .258-.807l-.568-1.127 1.093-.586a.61.61 0 0 0 .238-.813.574.574 0 0 0-.782-.267l-1.092.586-.568-1.127a.573.573 0 0 0-.788-.246.61.61 0 0 0-.258.807l.567 1.127-1.092.585Z" fill="currentColor"/><path fill-rule="evenodd" clip-rule="evenodd" d="M2.855 24.332a.61.61 0 0 0-.238.814c.15.298.5.417.782.266l1.092-.585.568 1.127c.146.29.499.4.788.246a.61.61 0 0 0 .258-.807l-.567-1.127 1.092-.586a.61.61 0 0 0 .239-.814.574.574 0 0 0-.782-.266l-1.093.586-.567-1.128a.574.574 0 0 0-.789-.246.61.61 0 0 0-.258.807l.567 1.128-1.092.585Z" fill="currentColor"/><path opacity=".5" fill-rule="evenodd" clip-rule="evenodd" d="M22.253 30.662a.61.61 0 0 0-.239.814c.15.298.5.417.782.266l1.093-.585.567 1.127c.147.29.5.401.789.246a.61.61 0 0 0 .258-.807l-.568-1.127 1.093-.586a.61.61 0 0 0 .238-.813.574.574 0 0 0-.782-.267l-1.092.586-.568-1.127a.574.574 0 0 0-.788-.246.61.61 0 0 0-.258.807l.567 1.127-1.092.585Z" fill="currentColor"/><path fill-rule="evenodd" clip-rule="evenodd" d="M13.56 33.553a.61.61 0 0 0-.24.813c.151.298.501.417.783.267l1.092-.586.568 1.127c.146.291.5.401.788.246a.61.61 0 0 0 .259-.807l-.568-1.127 1.092-.586a.61.61 0 0 0 .239-.813.574.574 0 0 0-.782-.267l-1.093.586-.567-1.127a.573.573 0 0 0-.788-.246.61.61 0 0 0-.259.807l.568 1.127-1.093.586ZM35.185 34.883a.61.61 0 0 0-.239.813c.15.298.5.418.782.267l1.093-.586.567 1.127c.147.291.5.401.789.246a.61.61 0 0 0 .258-.807l-.568-1.127 1.093-.586a.61.61 0 0 0 .238-.813.574.574 0 0 0-.782-.267l-1.092.586-.568-1.127a.574.574 0 0 0-.788-.246.61.61 0 0 0-.258.807l.567 1.127-1.092.586ZM41.65 36.993a.61.61 0 0 0-.238.813c.15.298.5.418.782.267l1.093-.586.567 1.127c.147.291.5.401.788.246a.61.61 0 0 0 .259-.807l-.568-1.127 1.092-.586a.61.61 0 0 0 .239-.813.574.574 0 0 0-.782-.267l-1.093.586-.567-1.127a.574.574 0 0 0-.788-.246.61.61 0 0 0-.258.807l.567 1.127-1.093.586Z" fill="currentColor"/><path opacity=".8" fill-rule="evenodd" clip-rule="evenodd" d="M14.295 21.806a.61.61 0 0 0-.238.813c.15.299.5.418.782.267l1.092-.586.568 1.128c.146.29.5.4.788.246a.61.61 0 0 0 .259-.807l-.568-1.128 1.092-.585a.61.61 0 0 0 .239-.814.574.574 0 0 0-.782-.266l-1.093.585-.567-1.127a.574.574 0 0 0-.788-.246.61.61 0 0 0-.259.807l.568 1.127-1.093.586Z" fill="currentColor"/><path opacity=".2" fill-rule="evenodd" clip-rule="evenodd" d="M1.343 17.58a.61.61 0 0 0-.239.813c.15.298.5.417.782.266l1.093-.585.567 1.127c.146.29.5.4.788.246a.61.61 0 0 0 .259-.807l-.568-1.127 1.093-.586a.61.61 0 0 0 .238-.814.574.574 0 0 0-.782-.266l-1.092.586-.568-1.128a.573.573 0 0 0-.788-.246.61.61 0 0 0-.259.807l.568 1.128-1.092.585Z" fill="currentColor"/><path fill-rule="evenodd" clip-rule="evenodd" d="M20.758 23.915a.61.61 0 0 0-.238.814c.15.298.5.417.782.266l1.092-.585.568 1.127c.146.29.499.4.788.246a.61.61 0 0 0 .258-.807l-.567-1.127 1.092-.586a.61.61 0 0 0 .238-.813.574.574 0 0 0-.782-.267l-1.092.586-.567-1.128a.574.574 0 0 0-.789-.246.61.61 0 0 0-.258.807l.567 1.128-1.092.585Z" fill="currentColor"/><path opacity=".8" fill-rule="evenodd" clip-rule="evenodd" d="M27.221 26.024a.61.61 0 0 0-.238.814c.15.298.5.417.782.266l1.092-.585.567 1.127c.147.29.5.401.789.246a.61.61 0 0 0 .258-.807l-.567-1.127 1.092-.586a.61.61 0 0 0 .239-.813.574.574 0 0 0-.782-.267l-1.093.586-.567-1.128a.574.574 0 0 0-.789-.245.61.61 0 0 0-.258.807l.568 1.127-1.093.585Z" fill="currentColor"/><path fill-rule="evenodd" clip-rule="evenodd" d="M33.693 28.136a.61.61 0 0 0-.238.814c.15.298.5.418.782.266l1.092-.585.567 1.127c.147.29.5.401.789.246a.61.61 0 0 0 .258-.807l-.567-1.127 1.092-.586a.61.61 0 0 0 .238-.813.574.574 0 0 0-.782-.267l-1.092.586-.568-1.127a.573.573 0 0 0-.788-.246.61.61 0 0 0-.258.807l.567 1.127-1.092.585ZM40.159 30.246a.61.61 0 0 0-.239.814c.15.298.5.417.782.266l1.093-.585.567 1.127c.147.29.5.401.789.246a.61.61 0 0 0 .258-.807l-.567-1.127 1.092-.586a.61.61 0 0 0 .238-.813.574.574 0 0 0-.782-.267l-1.092.586-.568-1.128a.574.574 0 0 0-.788-.245.61.61 0 0 0-.258.807l.567 1.127-1.092.585ZM46.55 32.3a.61.61 0 0 0-.239.814c.15.299.5.418.782.267l1.093-.586.567 1.127c.147.291.5.401.789.246a.61.61 0 0 0 .258-.807l-.568-1.127 1.093-.585a.61.61 0 0 0 .238-.814.574.574 0 0 0-.782-.266l-1.092.585-.568-1.127a.574.574 0 0 0-.788-.246.61.61 0 0 0-.258.807l.567 1.127-1.092.586Z" fill="currentColor"/>
  </symbol>
</svg>
  