<svg width="148" height="148" viewBox="0 0 148 148" fill="none" xmlns="http://www.w3.org/2000/svg">
  <symbol id="item" viewBox="0 0 148 148"  fill="none">
    <g clip-path="url(#a)" fill="currentColor"><path d="M129.532 56.276a3.061 3.061 0 0 1 3.71 2.141 2.953 2.953 0 0 1-2.11 3.655L20.295 90.898a3.061 3.061 0 0 1-3.71-2.141 2.953 2.953 0 0 1 2.11-3.655l110.837-28.826Z"/><path opacity=".25" d="M136.35 81.262a3.061 3.061 0 0 1 3.71 2.14 2.953 2.953 0 0 1-2.11 3.656L21.895 117.24a3.061 3.061 0 0 1-3.71-2.141 2.953 2.953 0 0 1 2.11-3.655L136.35 81.262Z"/><path opacity=".75" d="M140.964 93.306a3.061 3.061 0 0 1 3.71 2.141 2.953 2.953 0 0 1-2.11 3.655L38.21 126.242a3.061 3.061 0 0 1-3.71-2.141 2.953 2.953 0 0 1 2.11-3.655l104.354-27.14Z"/><path opacity=".5" d="M130.853 109.231a3.06 3.06 0 0 1 3.71 2.141 2.954 2.954 0 0 1-2.11 3.655L8.579 147.243a3.06 3.06 0 0 1-3.71-2.141 2.953 2.953 0 0 1 2.11-3.655l123.874-32.216Z"/><path opacity=".75" d="M143.49 120.054a3.062 3.062 0 0 1 3.71 2.141 2.953 2.953 0 0 1-2.11 3.655l-65.024 16.911a3.06 3.06 0 0 1-3.71-2.141 2.953 2.953 0 0 1 2.11-3.655l65.024-16.911Z"/><path opacity=".5" d="M94.78 51.918a3.061 3.061 0 0 1 3.71 2.141 2.953 2.953 0 0 1-2.11 3.655L5.124 81.448a3.061 3.061 0 0 1-3.71-2.141 2.953 2.953 0 0 1 2.11-3.655L94.78 51.918Z"/><path opacity=".75" d="M132.873 28.47a3.061 3.061 0 0 1 3.71 2.141 2.953 2.953 0 0 1-2.11 3.655l-124.58 32.4a3.06 3.06 0 0 1-3.71-2.141 2.953 2.953 0 0 1 2.11-3.655l124.58-32.4Z"/><path opacity=".5" d="M137.187 13.745a3.06 3.06 0 0 1 3.709 2.142 2.952 2.952 0 0 1-2.109 3.654L55.439 41.218a3.06 3.06 0 0 1-3.71-2.141 2.953 2.953 0 0 1 2.11-3.655l83.348-21.676ZM109.733 74.662a3.061 3.061 0 0 1 3.71 2.141 2.953 2.953 0 0 1-2.11 3.655L4.51 108.24a3.061 3.061 0 0 1-3.71-2.141 2.953 2.953 0 0 1 2.11-3.655l106.823-27.782Z"/><path opacity=".25" d="M116.539 6.573a3.061 3.061 0 0 1 3.71 2.141 2.953 2.953 0 0 1-2.109 3.655L5.122 41.762a3.061 3.061 0 0 1-3.71-2.14 2.953 2.953 0 0 1 2.11-3.656L116.539 6.573Z"/><path opacity=".5" d="M87.655.757a3.061 3.061 0 0 1 3.71 2.14 2.953 2.953 0 0 1-2.11 3.656L12.861 26.42a3.061 3.061 0 0 1-3.71-2.141 2.953 2.953 0 0 1 2.11-3.655L87.655.757Z"/></g><defs><clipPath id="a"><path fill="currentColor" d="M0 0h148v148H0z"/></clipPath></defs>
  </symbol>
</svg>
  