<svg width="148" height="148" viewBox="0 0 148 148" fill="none" xmlns="http://www.w3.org/2000/svg">
  <symbol id="item" viewBox="0 0 148 148"  fill="none">
    <path opacity=".3" d="M127.188 74c0 29.374-23.814 53.188-53.188 53.188-29.375 0-53.188-23.814-53.188-53.188 0-29.375 23.813-53.188 53.188-53.188 29.374 0 53.188 23.813 53.188 53.188Z" stroke="currentColor" stroke-width="4.625"/><path opacity=".2" d="M136.438 74c0 34.483-27.955 62.438-62.438 62.438-34.483 0-62.438-27.955-62.438-62.438 0-34.483 27.955-62.438 62.438-62.438 34.483 0 62.438 27.955 62.438 62.438Z" stroke="currentColor" stroke-width="4.625"/><path opacity=".1" d="M145.688 74c0 39.592-32.096 71.688-71.688 71.688-39.592 0-71.688-32.096-71.688-71.688C2.313 34.408 34.408 2.312 74 2.312c39.592 0 71.688 32.096 71.688 71.688Z" stroke="currentColor" stroke-width="4.625"/><path opacity=".4" d="M117.938 74c0 24.266-19.672 43.938-43.938 43.938-24.266 0-43.938-19.672-43.938-43.938 0-24.266 19.672-43.938 43.938-43.938 24.266 0 43.938 19.672 43.938 43.938Z" stroke="currentColor" stroke-width="4.625"/><path opacity=".5" d="M108.688 74c0 19.158-15.53 34.688-34.688 34.688-19.157 0-34.688-15.53-34.688-34.688 0-19.157 15.53-34.688 34.688-34.688S108.688 54.843 108.688 74Z" stroke="currentColor" stroke-width="4.625"/><path opacity=".6" d="M99.438 74c0 14.049-11.39 25.438-25.438 25.438-14.049 0-25.438-11.39-25.438-25.438 0-14.049 11.39-25.438 25.438-25.438 14.049 0 25.438 11.39 25.438 25.438Z" stroke="currentColor" stroke-width="4.625"/><path opacity=".7" d="M90.188 74c0 8.94-7.248 16.188-16.188 16.188-8.94 0-16.188-7.248-16.188-16.188 0-8.94 7.248-16.188 16.188-16.188 8.94 0 16.188 7.248 16.188 16.188Z" stroke="currentColor" stroke-width="4.625"/>
  </symbol>
</svg>
  