<svg width="222" height="148" viewBox="0 0 222 148" fill="none" xmlns="http://www.w3.org/2000/svg">
  <symbol id="item" viewBox="0 0 222 148"  fill="none">
    <path fill-rule="evenodd" clip-rule="evenodd" d="M41.968 30.49c-1.042.559-1.437 1.907-.882 3.01.556 1.103 1.851 1.545 2.894.986l4.041-2.166 2.1 4.17a2.123 2.123 0 0 0 2.917.911c1.07-.573 1.497-1.91.956-2.986l-2.1-4.171 4.042-2.167c1.042-.559 1.437-1.907.882-3.01-.555-1.103-1.851-1.545-2.893-.986l-4.043 2.167-2.1-4.17a2.122 2.122 0 0 0-2.916-.911c-1.07.573-1.497 1.91-.956 2.986l2.1 4.17-4.042 2.167ZM47.479 55.449c-1.043.558-1.438 1.906-.882 3.01.555 1.103 1.85 1.544 2.893.985l4.043-2.166 2.1 4.17a2.122 2.122 0 0 0 2.916.91c1.07-.572 1.498-1.91.956-2.985l-2.1-4.171 4.041-2.167c1.043-.559 1.438-1.906.882-3.01-.555-1.103-1.85-1.545-2.893-.986l-4.042 2.167-2.099-4.17a2.122 2.122 0 0 0-2.917-.911c-1.07.573-1.497 1.91-.955 2.986l2.099 4.17-4.042 2.168ZM23.554 47.64c-1.042.56-1.437 1.907-.882 3.01.556 1.104 1.851 1.545 2.894.986l4.042-2.166 2.1 4.172a2.122 2.122 0 0 0 2.917.91c1.07-.574 1.497-1.91.956-2.986l-2.1-4.172 4.041-2.167c1.043-.558 1.438-1.906.882-3.01-.555-1.103-1.85-1.544-2.894-.986l-4.041 2.167-2.1-4.17a2.122 2.122 0 0 0-2.916-.91c-1.07.573-1.497 1.91-.956 2.986l2.1 4.17-4.043 2.166Z" fill="currentColor"/><path opacity=".5" fill-rule="evenodd" clip-rule="evenodd" d="M71.403 63.255c-1.043.56-1.438 1.907-.883 3.01.556 1.104 1.852 1.546 2.894.986l4.043-2.166 2.1 4.17a2.122 2.122 0 0 0 2.916.911c1.07-.573 1.497-1.91.956-2.986l-2.1-4.171 4.041-2.167c1.043-.558 1.438-1.906.882-3.01-.555-1.103-1.85-1.544-2.893-.986l-4.042 2.167-2.1-4.17a2.123 2.123 0 0 0-2.916-.911c-1.07.573-1.497 1.91-.956 2.986l2.1 4.17-4.042 2.167Z" fill="currentColor"/><path fill-rule="evenodd" clip-rule="evenodd" d="M95.326 71.064c-1.043.558-1.438 1.906-.882 3.01.555 1.103 1.85 1.544 2.893.986l4.042-2.167 2.1 4.171a2.121 2.121 0 0 0 2.916.91c1.07-.573 1.498-1.91.956-2.986l-2.1-4.17 4.043-2.168c1.042-.559 1.437-1.906.881-3.01-.555-1.103-1.85-1.544-2.893-.986l-4.042 2.167-2.1-4.17a2.121 2.121 0 0 0-2.916-.91c-1.07.572-1.498 1.91-.956 2.985l2.1 4.171-4.042 2.167ZM119.249 78.871c-1.043.559-1.438 1.906-.882 3.01.555 1.103 1.851 1.545 2.893.986l4.042-2.167 2.099 4.172a2.122 2.122 0 0 0 2.917.91c1.07-.574 1.497-1.91.956-2.986l-2.1-4.171 4.042-2.167c1.043-.56 1.438-1.907.882-3.01-.555-1.103-1.851-1.545-2.893-.986l-4.042 2.167-2.1-4.171a2.122 2.122 0 0 0-2.917-.91c-1.069.573-1.497 1.91-.955 2.986l2.099 4.17-4.041 2.167Z" fill="currentColor"/><path opacity=".3" fill-rule="evenodd" clip-rule="evenodd" d="M143.173 86.678c-1.043.56-1.438 1.907-.882 3.01.555 1.104 1.85 1.545 2.893.986l4.042-2.167 2.1 4.171a2.123 2.123 0 0 0 2.917.91c1.069-.573 1.497-1.91.956-2.985l-2.1-4.172 4.041-2.166c1.043-.559 1.438-1.906.882-3.01-.556-1.103-1.851-1.545-2.894-.986l-4.041 2.167-2.099-4.171a2.122 2.122 0 0 0-2.917-.91c-1.069.573-1.497 1.91-.956 2.986l2.1 4.17-4.042 2.167Z" fill="currentColor"/><path fill-rule="evenodd" clip-rule="evenodd" d="M167.098 94.487c-1.043.558-1.438 1.906-.882 3.01.555 1.103 1.851 1.544 2.894.986l4.041-2.167 2.099 4.17a2.121 2.121 0 0 0 2.917.91c1.069-.573 1.497-1.91.955-2.986l-2.099-4.17 4.042-2.167c1.043-.559 1.438-1.906.882-3.01-.555-1.103-1.851-1.544-2.893-.986l-4.043 2.167-2.1-4.171a2.121 2.121 0 0 0-2.916-.91c-1.07.573-1.498 1.91-.956 2.985l2.1 4.172-4.041 2.167ZM190.304 101.929c-1.043.559-1.438 1.907-.882 3.01.555 1.104 1.851 1.545 2.893.986l4.043-2.167 2.099 4.172a2.122 2.122 0 0 0 2.917.91c1.07-.573 1.497-1.91.956-2.986l-2.1-4.171 4.041-2.167c1.043-.559 1.438-1.906.883-3.01-.556-1.103-1.852-1.544-2.894-.986l-4.042 2.167-2.099-4.17a2.122 2.122 0 0 0-2.917-.91c-1.069.573-1.497 1.91-.956 2.985l2.1 4.17-4.042 2.167ZM185.799 77.484c-1.043.559-1.438 1.906-.882 3.01.555 1.103 1.851 1.545 2.893.986l4.042-2.167 2.099 4.172a2.123 2.123 0 0 0 2.917.91c1.069-.574 1.498-1.91.956-2.986l-2.1-4.172 4.042-2.166c1.043-.56 1.438-1.907.882-3.01-.555-1.104-1.851-1.545-2.893-.986l-4.043 2.166-2.099-4.17a2.122 2.122 0 0 0-2.917-.91c-1.069.573-1.497 1.91-.955 2.986l2.099 4.17-4.041 2.167ZM83.446 21.342c-1.043.559-1.438 1.907-.882 3.01.555 1.103 1.85 1.545 2.893.986l4.043-2.167 2.1 4.171a2.122 2.122 0 0 0 2.916.91c1.07-.573 1.497-1.91.956-2.985l-2.1-4.172 4.042-2.166c1.042-.559 1.437-1.906.882-3.01-.556-1.103-1.851-1.545-2.894-.986l-4.041 2.166-2.1-4.17a2.122 2.122 0 0 0-2.917-.91c-1.069.573-1.497 1.91-.955 2.986l2.1 4.17-4.043 2.167ZM59.522 13.535c-1.043.559-1.438 1.906-.882 3.01.555 1.103 1.85 1.545 2.893.986l4.042-2.167 2.1 4.171a2.122 2.122 0 0 0 2.917.91c1.069-.573 1.497-1.91.955-2.985l-2.1-4.171 4.042-2.167c1.043-.559 1.438-1.907.882-3.01-.555-1.104-1.85-1.545-2.893-.986l-4.042 2.167-2.1-4.171a2.122 2.122 0 0 0-2.917-.91c-1.069.573-1.497 1.91-.955 2.986l2.1 4.17-4.042 2.167ZM107.37 29.15c-1.042.558-1.437 1.906-.882 3.01.556 1.103 1.851 1.544 2.894.985l4.042-2.167 2.1 4.172a2.122 2.122 0 0 0 2.917.91c1.069-.573 1.497-1.91.955-2.986l-2.099-4.171 4.041-2.167c1.042-.559 1.438-1.906.882-3.01-.555-1.103-1.851-1.545-2.894-.986l-4.041 2.167-2.099-4.17a2.122 2.122 0 0 0-2.917-.91c-1.07.572-1.498 1.91-.956 2.985l2.1 4.17-4.043 2.167Z" fill="currentColor"/><path opacity=".7" fill-rule="evenodd" clip-rule="evenodd" d="M131.294 36.957c-1.043.56-1.438 1.907-.882 3.01.555 1.103 1.85 1.545 2.893.986l4.042-2.167 2.1 4.171a2.122 2.122 0 0 0 2.917.91c1.069-.572 1.497-1.91.955-2.985l-2.099-4.172 4.041-2.166c1.043-.559 1.438-1.906.882-3.01-.555-1.103-1.851-1.545-2.893-.986l-4.042 2.167-2.099-4.171a2.122 2.122 0 0 0-2.917-.91c-1.069.573-1.497 1.91-.956 2.986l2.1 4.17-4.042 2.167Z" fill="currentColor"/><path fill-rule="evenodd" clip-rule="evenodd" d="M155.218 44.764c-1.043.559-1.438 1.906-.882 3.01.555 1.103 1.851 1.545 2.893.986l4.042-2.167 2.1 4.172a2.121 2.121 0 0 0 2.916.91c1.07-.574 1.497-1.91.956-2.986l-2.1-4.171 4.042-2.167c1.043-.56 1.438-1.907.882-3.01-.555-1.103-1.851-1.545-2.893-.986l-4.042 2.167-2.1-4.17a2.122 2.122 0 0 0-2.917-.911c-1.069.573-1.497 1.91-.955 2.986l2.099 4.17-4.041 2.167ZM179.141 52.571c-1.043.559-1.437 1.906-.882 3.01.555 1.103 1.851 1.545 2.893.986l4.043-2.167 2.1 4.172a2.121 2.121 0 0 0 2.916.91c1.07-.573 1.498-1.91.956-2.986l-2.1-4.172 4.042-2.166c1.042-.56 1.437-1.907.882-3.01-.556-1.103-1.851-1.545-2.894-.986l-4.042 2.166-2.099-4.17a2.122 2.122 0 0 0-2.917-.91c-1.069.573-1.497 1.91-.955 2.986l2.099 4.17-4.042 2.167ZM203.065 60.38c-1.043.558-1.438 1.906-.883 3.01.556 1.103 1.852 1.544 2.894.985l4.041-2.166 2.1 4.17a2.122 2.122 0 0 0 2.917.911c1.069-.573 1.497-1.91.956-2.986l-2.1-4.171 4.042-2.167c1.043-.559 1.437-1.906.882-3.01-.555-1.103-1.851-1.545-2.894-.986l-4.042 2.167-2.099-4.17a2.122 2.122 0 0 0-2.917-.91c-1.069.572-1.497 1.91-.956 2.985l2.1 4.17-4.041 2.167ZM65.883 38.295c-1.043.559-1.438 1.906-.882 3.01.555 1.103 1.85 1.545 2.893.986l4.042-2.167 2.1 4.17a2.122 2.122 0 0 0 2.917.911c1.07-.573 1.497-1.91.956-2.986l-2.1-4.171 4.041-2.166c1.043-.56 1.438-1.907.883-3.01-.556-1.104-1.852-1.545-2.894-.986l-4.041 2.166-2.1-4.17a2.122 2.122 0 0 0-2.917-.91c-1.07.572-1.497 1.91-.955 2.985l2.1 4.17-4.043 2.168ZM89.796 46.099c-1.043.558-1.437 1.906-.882 3.01.555 1.103 1.85 1.544 2.893.986l4.042-2.167 2.1 4.171a2.123 2.123 0 0 0 2.917.91c1.069-.573 1.497-1.91.955-2.986l-2.1-4.17 4.043-2.167c1.042-.56 1.437-1.907.882-3.01-.556-1.104-1.852-1.546-2.894-.986l-4.042 2.166-2.1-4.17a2.122 2.122 0 0 0-2.916-.91c-1.07.572-1.498 1.909-.956 2.985l2.1 4.171-4.042 2.167ZM113.708 53.902c-1.043.56-1.438 1.907-.882 3.01.555 1.104 1.851 1.545 2.893.986l4.042-2.166 2.1 4.171a2.121 2.121 0 0 0 2.916.91c1.07-.573 1.498-1.91.956-2.986l-2.1-4.17 4.043-2.168c1.042-.558 1.437-1.906.881-3.01-.555-1.103-1.851-1.544-2.893-.985l-4.042 2.166-2.1-4.17a2.122 2.122 0 0 0-2.917-.91c-1.069.573-1.497 1.91-.955 2.985l2.099 4.171-4.041 2.166ZM137.654 61.717c-1.042.559-1.437 1.906-.882 3.01.556 1.103 1.851 1.545 2.894.986l4.042-2.167 2.099 4.171a2.122 2.122 0 0 0 2.917.91c1.069-.573 1.497-1.91.956-2.986l-2.1-4.17 4.042-2.167c1.043-.56 1.438-1.907.882-3.01-.555-1.104-1.851-1.545-2.893-.986l-4.042 2.166-2.1-4.17a2.122 2.122 0 0 0-2.917-.91c-1.069.573-1.497 1.91-.955 2.985l2.099 4.171-4.042 2.167ZM161.578 69.524c-1.042.559-1.437 1.906-.882 3.01.556 1.103 1.851 1.544 2.894.986l4.042-2.167 2.1 4.171a2.122 2.122 0 0 0 2.917.91c1.069-.572 1.497-1.91.955-2.985l-2.1-4.172 4.042-2.166c1.042-.56 1.437-1.907.882-3.01-.556-1.104-1.851-1.545-2.894-.986l-4.041 2.166-2.099-4.17a2.123 2.123 0 0 0-2.918-.91c-1.069.573-1.497 1.91-.955 2.986l2.099 4.17-4.042 2.167Z" fill="currentColor"/><path opacity=".7" fill-rule="evenodd" clip-rule="evenodd" d="M28.979 72.879c-1.043.559-1.438 1.906-.883 3.01.556 1.103 1.851 1.545 2.894.986l4.042-2.167 2.1 4.17a2.122 2.122 0 0 0 2.916.91c1.07-.572 1.497-1.91.956-2.985l-2.1-4.17 4.042-2.167c1.043-.56 1.438-1.907.882-3.01-.555-1.104-1.85-1.545-2.893-.986l-4.042 2.166-2.1-4.17a2.122 2.122 0 0 0-2.917-.911c-1.07.573-1.497 1.91-.956 2.986l2.1 4.171-4.042 2.167Z" fill="currentColor"/><path opacity=".3" fill-rule="evenodd" clip-rule="evenodd" d="M34.487 97.837c-1.042.559-1.437 1.906-.882 3.01.556 1.104 1.851 1.545 2.894.986l4.04-2.166 2.1 4.171a2.122 2.122 0 0 0 2.917.909c1.07-.573 1.497-1.91.956-2.986l-2.1-4.17 4.043-2.167c1.043-.559 1.438-1.907.882-3.01-.556-1.103-1.85-1.545-2.894-.986l-4.042 2.167-2.1-4.171a2.122 2.122 0 0 0-2.917-.91c-1.07.573-1.497 1.91-.956 2.986l2.1 4.17-4.04 2.167Z" fill="currentColor"/><path fill-rule="evenodd" clip-rule="evenodd" d="M10.564 90.03c-1.043.558-1.437 1.906-.882 3.01.556 1.102 1.851 1.544 2.894.985l4.041-2.167 2.1 4.171a2.122 2.122 0 0 0 2.917.91c1.07-.572 1.497-1.91.955-2.985l-2.1-4.171 4.043-2.167c1.042-.559 1.437-1.906.882-3.01-.556-1.103-1.851-1.545-2.894-.986l-4.042 2.167-2.1-4.171a2.122 2.122 0 0 0-2.916-.91c-1.07.573-1.498 1.91-.956 2.986l2.1 4.17-4.042 2.167Z" fill="currentColor"/><path opacity=".5" fill-rule="evenodd" clip-rule="evenodd" d="M82.335 113.451c-1.043.559-1.438 1.906-.882 3.009.555 1.104 1.85 1.545 2.893.987l4.042-2.167 2.1 4.171a2.121 2.121 0 0 0 2.917.91c1.07-.573 1.497-1.91.956-2.985l-2.1-4.172 4.041-2.167c1.043-.558 1.438-1.906.882-3.01-.555-1.103-1.85-1.544-2.893-.986l-4.042 2.167-2.1-4.171a2.122 2.122 0 0 0-2.916-.909c-1.07.573-1.497 1.91-.956 2.986l2.1 4.17-4.042 2.167Z" fill="currentColor"/><path fill-rule="evenodd" clip-rule="evenodd" d="M50.17 124.144c-1.044.559-1.438 1.907-.883 3.01.556 1.104 1.851 1.545 2.894.986l4.042-2.166 2.1 4.171a2.122 2.122 0 0 0 2.917.91c1.07-.573 1.497-1.91.955-2.986l-2.1-4.171 4.042-2.167c1.042-.559 1.437-1.906.882-3.01-.556-1.103-1.851-1.545-2.894-.986l-4.041 2.167-2.1-4.171a2.123 2.123 0 0 0-2.916-.91c-1.07.574-1.498 1.91-.956 2.986l2.1 4.171-4.043 2.166ZM130.183 129.066c-1.042.559-1.437 1.906-.882 3.01.556 1.103 1.851 1.545 2.894.986l4.042-2.167 2.1 4.171a2.122 2.122 0 0 0 2.917.91c1.069-.573 1.497-1.91.956-2.986l-2.1-4.171 4.041-2.166c1.043-.559 1.437-1.907.882-3.01-.555-1.104-1.851-1.545-2.893-.986l-4.042 2.166-2.099-4.17a2.123 2.123 0 0 0-2.917-.911c-1.07.574-1.497 1.91-.956 2.986l2.1 4.171-4.043 2.167ZM154.106 136.873c-1.042.558-1.437 1.906-.882 3.01.556 1.103 1.851 1.544 2.894.986l4.042-2.168 2.1 4.172a2.122 2.122 0 0 0 2.917.91c1.069-.573 1.497-1.91.956-2.986l-2.1-4.171 4.041-2.167c1.043-.559 1.437-1.906.882-3.009-.555-1.104-1.851-1.545-2.893-.987l-4.042 2.167-2.099-4.171a2.122 2.122 0 0 0-2.917-.91c-1.07.573-1.497 1.91-.956 2.986l2.1 4.17-4.043 2.168Z" fill="currentColor"/><path opacity=".8" fill-rule="evenodd" clip-rule="evenodd" d="M52.893 80.682c-1.043.56-1.438 1.907-.882 3.01.555 1.104 1.85 1.545 2.893.986l4.043-2.166 2.1 4.17a2.122 2.122 0 0 0 2.916.91c1.07-.572 1.497-1.91.956-2.985l-2.1-4.171 4.041-2.167c1.043-.559 1.438-1.906.883-3.01-.556-1.103-1.852-1.545-2.894-.986l-4.041 2.167-2.1-4.17a2.122 2.122 0 0 0-2.917-.911c-1.07.573-1.497 1.91-.955 2.986l2.1 4.17-4.043 2.167Z" fill="currentColor"/><path opacity=".2" fill-rule="evenodd" clip-rule="evenodd" d="M4.968 65.043c-1.042.559-1.437 1.906-.882 3.01.556 1.103 1.851 1.545 2.894.986l4.04-2.166 2.1 4.17a2.122 2.122 0 0 0 2.917.91c1.07-.573 1.497-1.91.956-2.986l-2.1-4.17 4.043-2.167c1.042-.56 1.437-1.907.882-3.01-.556-1.104-1.851-1.545-2.894-.986L12.882 60.8l-2.1-4.171a2.122 2.122 0 0 0-2.917-.91c-1.07.572-1.497 1.91-.956 2.985l2.1 4.172-4.04 2.166Z" fill="currentColor"/><path fill-rule="evenodd" clip-rule="evenodd" d="M76.805 88.487c-1.043.558-1.438 1.906-.882 3.01.556 1.103 1.851 1.544 2.894.986l4.041-2.167 2.1 4.17a2.122 2.122 0 0 0 2.917.911c1.069-.573 1.497-1.91.955-2.986l-2.1-4.17 4.042-2.168c1.043-.558 1.438-1.906.882-3.01-.555-1.103-1.85-1.544-2.893-.986l-4.042 2.167-2.1-4.17a2.122 2.122 0 0 0-2.917-.911c-1.069.573-1.497 1.91-.955 2.986l2.1 4.17-4.042 2.168Z" fill="currentColor"/><path opacity=".8" fill-rule="evenodd" clip-rule="evenodd" d="M100.719 96.29c-1.043.56-1.438 1.907-.882 3.01.555 1.104 1.851 1.545 2.893.986l4.041-2.166 2.1 4.171a2.122 2.122 0 0 0 2.917.91c1.069-.573 1.497-1.911.955-2.986l-2.099-4.17 4.042-2.168c1.043-.558 1.438-1.906.882-3.01-.555-1.103-1.85-1.544-2.893-.986l-4.043 2.167-2.1-4.171a2.121 2.121 0 0 0-2.916-.91c-1.07.573-1.497 1.91-.956 2.986l2.1 4.171-4.041 2.166Z" fill="currentColor"/><path fill-rule="evenodd" clip-rule="evenodd" d="M124.664 104.105c-1.043.559-1.438 1.906-.882 3.01.555 1.103 1.851 1.545 2.893.986l4.042-2.167 2.099 4.171a2.122 2.122 0 0 0 2.917.91c1.07-.573 1.497-1.91.956-2.986l-2.1-4.171 4.042-2.166c1.043-.559 1.438-1.907.882-3.01-.555-1.104-1.851-1.545-2.893-.986l-4.042 2.167-2.1-4.171a2.122 2.122 0 0 0-2.917-.91c-1.069.573-1.497 1.91-.956 2.985l2.1 4.171-4.041 2.167ZM148.588 111.912c-1.043.559-1.438 1.906-.883 3.01.556 1.103 1.851 1.544 2.894.986l4.042-2.167 2.1 4.171a2.122 2.122 0 0 0 2.917.91c1.069-.573 1.497-1.91.956-2.986l-2.1-4.171 4.041-2.166c1.043-.559 1.437-1.907.882-3.01-.556-1.104-1.851-1.545-2.894-.986l-4.041 2.166-2.099-4.171a2.123 2.123 0 0 0-2.917-.91c-1.07.574-1.497 1.91-.956 2.986l2.1 4.171-4.042 2.167ZM172.234 119.513c-1.043.559-1.438 1.907-.883 3.01.556 1.103 1.852 1.545 2.894.986l4.042-2.167 2.1 4.171a2.122 2.122 0 0 0 2.917.91c1.07-.573 1.497-1.91.956-2.986l-2.1-4.171 4.041-2.166c1.043-.559 1.438-1.906.882-3.01-.555-1.104-1.851-1.545-2.893-.986l-4.041 2.166-2.1-4.171a2.123 2.123 0 0 0-2.917-.91c-1.069.573-1.497 1.91-.956 2.986l2.1 4.171-4.042 2.167Z" fill="currentColor"/>
  </symbol>
</svg>
  