
<svg width="1em" height="1em"    viewBox="0 0 174 174" fill="none" xmlns="http://www.w3.org/2000/svg">
<symbol id="item"
width="1em"
height="1em"
viewBox="0 0 174 174"
fill="none"
>
<path opacity=".1" d="M124.149 95.932H61.654a6.442 6.442 0 0 1-6.438-6.438V44.602c0-3.567 2.9-6.438 6.438-6.438h62.466c3.567 0 6.438 2.9 6.438 6.438v44.892a6.38 6.38 0 0 1-6.409 6.438Z" fill="currentColor"/><path d="M115.855 75.516H50.721c-3.045 0-5.539-2.494-5.539-5.54V58.465c0-5.655 4.582-10.237 10.237-10.237h55.767c5.655 0 10.237 4.582 10.237 10.237v11.513c-.029 3.045-2.494 5.539-5.568 5.539ZM55.419 50.43a8.032 8.032 0 0 0-8.033 8.033v11.513a3.354 3.354 0 0 0 3.335 3.335h65.134a3.354 3.354 0 0 0 3.335-3.335V58.464a8.032 8.032 0 0 0-8.033-8.033H55.419Z" fill="currentColor"/><path d="M56.405 68.179a1.102 1.102 0 0 1-1.102-1.102V56.666a1.102 1.102 0 1 1 2.204 0v10.411c0 .609-.493 1.102-1.102 1.102ZM67.541 68.179a1.102 1.102 0 0 1-1.102-1.102V56.666a1.102 1.102 0 1 1 2.204 0v10.411c0 .609-.493 1.102-1.102 1.102ZM103.559 68.324a6.473 6.473 0 0 1-6.467-6.467c0-3.567 2.9-6.467 6.467-6.467 3.567 0 6.467 2.9 6.467 6.467 0 3.567-2.929 6.467-6.467 6.467Zm0-10.701a4.27 4.27 0 0 0-4.263 4.263c0 2.349 1.914 4.234 4.263 4.234a4.27 4.27 0 0 0 4.263-4.263c0-2.349-1.914-4.234-4.263-4.234Z" fill="currentColor"/><path d="M99.035 106.829H55.419a9.735 9.735 0 0 1-9.737-9.737V85.579c0-2.769 2.27-5.039 5.039-5.039h65.134c2.769 0 5.039 2.27 5.039 5.039v8.091a.601.601 0 1 1-1.204 0v-8.091c0-2.103-1.732-3.835-3.835-3.835H50.721a3.835 3.835 0 0 0-3.835 3.835v11.513a8.532 8.532 0 0 0 8.533 8.533h43.616a.601.601 0 1 1 0 1.204Z" fill="var(--color--bulma-100)" stroke="var(--color--bulma-100)"/><path d="M56.405 99.463a.602.602 0 0 1-.602-.602V88.45a.601.601 0 1 1 1.204 0v10.411c0 .333-.27.602-.602.602ZM67.541 99.463a.601.601 0 0 1-.602-.602V88.45a.601.601 0 1 1 1.204 0v10.411c0 .333-.27.602-.602.602ZM108.322 93.67v-.006c-.032-2.615-2.132-4.757-4.763-4.757a4.77 4.77 0 0 0-4.763 4.763 4.77 4.77 0 0 0 4.763 4.763 4.77 4.77 0 0 0 4.763-4.763Zm-4.763 5.967a5.973 5.973 0 0 1-5.967-5.967 5.973 5.973 0 0 1 5.967-5.967 5.973 5.973 0 0 1 5.967 5.965c-.028 3.295-2.708 5.969-5.967 5.969ZM83.288 132.204a8.374 8.374 0 1 1 0-16.748 8.374 8.374 0 0 1 0 16.748Zm0-15.544a7.171 7.171 0 0 0 0 14.34 7.171 7.171 0 0 0 0-14.34Z" fill="var(--color--bulma-100)" stroke="var(--color--bulma-100)"/><path d="M83.288 116.66a.601.601 0 0 1-.602-.602v-9.831a.601.601 0 1 1 1.204 0v9.831c0 .333-.27.602-.602.602ZM75.516 124.432H56.405a.601.601 0 1 1 0-1.204h19.111a.601.601 0 1 1 0 1.204ZM96.715 124.432H91.06a.601.601 0 1 1 0-1.204h5.655a.601.601 0 1 1 0 1.204Z" fill="var(--color--bulma-100)" stroke="var(--color--bulma-100)"/><path d="M121.568 139.2c-10.817 0-19.604-8.787-19.604-19.604 0-10.817 8.787-19.604 19.604-19.604 10.817 0 19.604 8.787 19.604 19.604 0 10.817-8.787 19.604-19.604 19.604Zm0-36.975c-9.599 0-17.4 7.801-17.4 17.4 0 9.599 7.801 17.4 17.4 17.4 9.599 0 17.4-7.801 17.4-17.4 0-9.599-7.801-17.4-17.4-17.4Z" fill="currentColor"/><path d="M113.448 128.818c-.29 0-.551-.116-.783-.319a1.103 1.103 0 0 1 0-1.566l16.211-16.211a1.103 1.103 0 0 1 1.566 0 1.103 1.103 0 0 1 0 1.566l-16.211 16.211c-.203.232-.493.319-.783.319Z" fill="currentColor"/><path d="M129.688 128.818c-.29 0-.551-.116-.783-.319l-16.211-16.211a1.103 1.103 0 0 1 0-1.566 1.103 1.103 0 0 1 1.566 0l16.211 16.211a1.103 1.103 0 0 1 0 1.566 1.05 1.05 0 0 1-.783.319Z" fill="currentColor"/>
</symbol>
</svg>
  