
<svg width="1em" height="1em"    viewBox="0 0 174 174" fill="none" xmlns="http://www.w3.org/2000/svg">
<symbol id="item"
width="1em"
height="1em"
viewBox="0 0 174 174"
fill="none"
>
<path opacity=".1" d="M113.274 102.486H43.79c-3.422 0-6.235-2.813-6.235-6.235V44.109c0-3.422 2.813-6.235 6.235-6.235h69.484c3.422 0 6.235 2.813 6.235 6.235V96.28c0 3.393-2.813 6.206-6.235 6.206ZM137.257 111.94h-3.712a1.225 1.225 0 0 1-1.218-1.218V74.965c0-.667.551-1.218 1.218-1.218h3.712c.667 0 1.218.551 1.218 1.218v35.786c0 .638-.551 1.189-1.218 1.189Z" fill="currentColor"/><path d="M121.539 121.909h-13.246v-1.32h13.246c4.075 0 7.402-3.327 7.402-7.402V58.29c0-4.075-3.327-7.402-7.402-7.402H57.391c-4.075 0-7.402 3.327-7.402 7.402v54.897c0 4.075 3.327 7.402 7.402 7.402h13.072v1.32H57.39a8.696 8.696 0 0 1-8.693-8.693V58.29a8.696 8.696 0 0 1 8.693-8.693h64.177a8.696 8.696 0 0 1 8.693 8.693v54.897c0 4.799-3.923 8.722-8.722 8.722Z" fill="var(--color--bulma-100)" stroke="var(--color--bulma-100)"/><path d="M107.996 122.409c-.638 0-1.16-.522-1.16-1.16v-11.194H72.094v11.194c0 .638-.522 1.16-1.16 1.16-.638 0-1.16-.522-1.16-1.16v-13.514h39.353v13.514c.029.638-.493 1.16-1.131 1.16Z" fill="currentColor"/><path d="M101.79 125.483c-2.03 0-3.074-1.044-3.915-1.885-.725-.725-1.218-1.218-2.262-1.218-1.073 0-1.537.493-2.262 1.218-.841.841-1.885 1.885-3.915 1.885-2.03 0-3.074-1.044-3.915-1.885-.725-.725-1.19-1.218-2.262-1.218-1.073 0-1.537.493-2.262 1.218-.841.841-1.885 1.885-3.915 1.885-2.03 0-3.074-1.044-3.915-1.885-.725-.725-1.218-1.218-2.262-1.218-.638 0-1.16-.522-1.16-1.16 0-.638.522-1.16 1.16-1.16 2.03 0 3.074 1.044 3.915 1.885.725.725 1.189 1.218 2.262 1.218s1.537-.493 2.262-1.218c.84-.841 1.885-1.885 3.915-1.885 2.03 0 3.074 1.044 3.915 1.885.725.725 1.189 1.218 2.262 1.218s1.537-.493 2.262-1.218c.84-.841 1.885-1.885 3.915-1.885 2.03 0 3.074 1.044 3.915 1.885.725.725 1.218 1.218 2.262 1.218 1.073 0 1.537-.493 2.262-1.218.841-.841 1.885-1.885 3.915-1.885.638 0 1.16.522 1.16 1.16 0 .638-.522 1.16-1.16 1.16-1.073 0-1.537.493-2.262 1.218-.841.841-1.885 1.885-3.915 1.885Z" fill="currentColor"/><path d="M114.927 115.732h-5.242v-1.32h5.242a2.443 2.443 0 0 0 0-4.886H64.003a2.443 2.443 0 0 0 0 4.886h5.242v1.32h-5.242a3.739 3.739 0 0 1-3.734-3.734 3.739 3.739 0 0 1 3.734-3.734h50.924a3.74 3.74 0 0 1 3.734 3.734v.006c.025 2.036-1.658 3.728-3.734 3.728Z" fill="var(--color--bulma-100)" stroke="var(--color--bulma-100)"/><path d="M77.894 116.174h-2.32c-.638 0-1.16-.522-1.16-1.16 0-.638.522-1.16 1.16-1.16h2.32c.638 0 1.16.522 1.16 1.16 0 .638-.522 1.16-1.16 1.16ZM96.396 116.261l-4.64-.029c-.638 0-1.16-.522-1.16-1.16 0-.638.522-1.16 1.16-1.16l4.64.029c.638 0 1.16.522 1.16 1.16 0 .638-.522 1.16-1.16 1.16Zm-9.251-.029-4.64-.029c-.638 0-1.16-.522-1.16-1.16 0-.638.522-1.16 1.16-1.16l4.64.029c.638 0 1.16.522 1.16 1.16 0 .638-.522 1.16-1.16 1.16ZM103.356 116.29h-2.32c-.638 0-1.16-.522-1.16-1.16 0-.638.464-1.131 1.16-1.16h2.32c.638 0 1.16.522 1.16 1.16 0 .667-.522 1.16-1.16 1.16ZM101.442 149.959a4.27 4.27 0 0 1-1.044-.116l-28.362-5.858a5.27 5.27 0 0 1-3.306-2.233c-.754-1.16-1.015-2.552-.754-3.915l1.682-8.12c.116-.638.754-1.015 1.363-.899.638.116 1.015.754.899 1.363l-1.682 8.12c-.145.754 0 1.537.406 2.175a3.002 3.002 0 0 0 1.827 1.247l28.362 5.858c1.566.319 3.103-.696 3.422-2.233l1.682-8.12c.116-.638.754-1.015 1.363-.899.638.116 1.015.754.899 1.363l-1.682 8.12c-.493 2.465-2.668 4.147-5.075 4.147Z" fill="currentColor"/><path d="M108.663 135.662c-.029 0-.029 0 0 0-2.146-.435-3.451.435-4.524 1.16-.986.667-1.566 1.015-2.581.783-1.044-.203-1.421-.754-2.06-1.769-.695-1.073-1.536-2.436-3.682-2.871-2.088-.406-3.451.435-4.524 1.16-.986.667-1.566 1.015-2.581.783-1.044-.203-1.421-.754-2.06-1.769-.695-1.073-1.536-2.436-3.682-2.871-2.117-.435-3.451.464-4.495 1.16-.986.667-1.537.928-2.581.783-1.044-.203-1.421-.754-2.06-1.769-.695-1.073-1.536-2.436-3.682-2.871l-.522 2.465c1.044.203 1.42.754 2.059 1.769.696 1.073 1.537 2.436 3.683 2.871 2.117.435 3.45-.464 4.495-1.16.986-.667 1.566-1.015 2.58-.783 1.045.203 1.422.754 2.06 1.769.696 1.073 1.537 2.436 3.683 2.871 2.117.435 3.45-.464 4.495-1.16.986-.667 1.566-1.015 2.58-.783 1.045.203 1.422.754 2.06 1.769.696 1.073 1.537 2.436 3.683 2.871 2.117.435 3.451-.464 4.495-1.16.986-.667 1.566-1.015 2.581-.783l.58-2.465Z" fill="currentColor"/><path d="M137.315 101.725a.663.663 0 0 1-.66-.66V71.978c0-.362.298-.66.66-.66.362 0 .66.298.66.66v29.087c0 .362-.298.66-.66.66ZM118.719 92.655v.005c.026 2.414-1.948 4.367-4.343 4.367H64.873a4.364 4.364 0 0 1-4.372-4.372V65.598a4.364 4.364 0 0 1 4.372-4.372h49.474a4.364 4.364 0 0 1 4.372 4.372v27.057ZM64.873 62.517a3.056 3.056 0 0 0-3.052 3.052v27.057c0 1.7 1.388 3.052 3.052 3.052h49.474a3.056 3.056 0 0 0 3.052-3.052V65.569c0-1.7-1.388-3.052-3.052-3.052H64.873Z" fill="var(--color--bulma-100)" stroke="var(--color--bulma-100)"/><path d="M79.344 85.434c-.29 0-.58-.116-.812-.348L68.237 74.791c-.464-.464-.464-1.189 0-1.624.464-.464 1.189-.464 1.624 0l10.295 10.295c.464.464.464 1.189 0 1.624a1.145 1.145 0 0 1-.812.348Z" fill="currentColor"/><path d="M69.049 85.434c-.29 0-.58-.116-.812-.348-.464-.464-.464-1.189 0-1.624l10.295-10.295c.464-.464 1.189-.464 1.624 0 .464.464.464 1.189 0 1.624L69.86 85.086a1.145 1.145 0 0 1-.812.348ZM94.772 85.434c-.29 0-.58-.116-.812-.348L83.665 74.791c-.464-.464-.464-1.189 0-1.624.464-.464 1.189-.464 1.624 0l10.295 10.295c.464.464.464 1.189 0 1.624a1.145 1.145 0 0 1-.812.348Z" fill="currentColor"/><path d="M84.477 85.434c-.29 0-.58-.116-.812-.348-.464-.464-.464-1.189 0-1.624L93.96 73.167c.464-.464 1.189-.464 1.624 0 .464.464.464 1.189 0 1.624L85.289 85.086a1.097 1.097 0 0 1-.812.348ZM110.2 85.434c-.29 0-.58-.116-.812-.348L99.093 74.791c-.464-.464-.464-1.189 0-1.624.464-.464 1.189-.464 1.624 0l10.295 10.295c.464.464.464 1.189 0 1.624a1.097 1.097 0 0 1-.812.348Z" fill="currentColor"/><path d="M99.905 85.434c-.29 0-.58-.116-.812-.348-.464-.464-.464-1.189 0-1.624l10.295-10.295c.464-.464 1.189-.464 1.624 0 .464.464.464 1.189 0 1.624l-10.295 10.295a1.053 1.053 0 0 1-.812.348Z" fill="currentColor"/>
</symbol>
</svg>
  