
<svg width="1em" height="1em"    viewBox="0 0 174 174" fill="none" xmlns="http://www.w3.org/2000/svg">
<symbol id="item"
width="1em"
height="1em"
viewBox="0 0 174 174"
fill="none"
>
<path opacity=".1" d="M146.692 58.522h-64.8v24.8h64.8v-24.8ZM54.03 117.201l-11.772-9.705L28 123.872h64.8l2.512-29.143-41.282 22.472ZM56.96 82.852c6.112 0 11.066-4.954 11.066-11.066 0-6.111-4.954-11.066-11.066-11.066-6.111 0-11.066 4.955-11.066 11.066 0 6.112 4.955 11.066 11.066 11.066ZM141.277 99.83h-26.684v24.801h26.684v-24.8Z" fill="currentColor"/><path d="M139.655 49H76.79v27.678h62.865V49Z" stroke="var(--color--bulma-100)" stroke-width="2.616" stroke-miterlimit="10" stroke-linecap="round"/><path d="m38.83 106.815 5.233-5.677s6.828 6.201 7.377 5.677c.55-.523 34.192-13.368 34.192-13.368" stroke="currentColor" stroke-width="2.616" stroke-miterlimit="10" stroke-linecap="round"/><path d="M28 113.748h68.463M113.52 113.147v-9.104" stroke="var(--color--bulma-100)" stroke-width="2.616" stroke-miterlimit="10" stroke-linecap="round"/><path d="M119.746 113.146V97.11" stroke="currentColor" stroke-width="2.616" stroke-miterlimit="10" stroke-linecap="round"/><path d="M125.973 113.147v-13.133M132.199 113.146V94.075M37.836 62.839a12.19 12.19 0 0 1 12.191-12.191" stroke="var(--color--bulma-100)" stroke-width="2.616" stroke-miterlimit="10" stroke-linecap="round"/><path d="M50.027 75.03a12.164 12.164 0 0 1-11.196-7.377" stroke="currentColor" stroke-width="2.616" stroke-miterlimit="10" stroke-linecap="round"/><path d="M62.218 62.84a12.269 12.269 0 0 1-5.022 9.888" stroke="var(--color--bulma-100)" stroke-width="2.616" stroke-miterlimit="10" stroke-linecap="round"/>
</symbol>
</svg>
  