
<svg width="1em" height="1em"    viewBox="0 0 174 174" fill="none" xmlns="http://www.w3.org/2000/svg">
<symbol id="item"
width="1em"
height="1em"
viewBox="0 0 174 174"
fill="none"
>
<path opacity=".1" d="M132.502 81.655V47.847c0-3.497-2.85-6.347-6.348-6.347H68.771c-3.627 0-6.477 2.85-6.477 6.347v33.808h-2.46v12.762h74.999V81.655h-2.331Z" fill="currentColor"/><path d="M88.529 108.433h26.537V93.361h-18.26l-2.891-3.276H60.151l-2.89 3.276H39v15.072h26.144" stroke="var(--color--bulma-100)" stroke-width="2" stroke-miterlimit="10" stroke-linejoin="round"/><path d="M41.496 93.361V59.155c0-3.538 2.89-6.421 6.438-6.421h58.199c3.547 0 6.437 2.883 6.437 6.422V93.36" stroke="var(--color--bulma-100)" stroke-width="2" stroke-miterlimit="10" stroke-linejoin="round"/><path d="M65.67 98.21c-.79 1.573-1.183 3.408-1.183 5.374 0 6.946 5.649 12.45 12.48 12.45 6.832 0 12.481-5.636 12.481-12.45 0-1.966-.394-3.801-1.182-5.374" stroke="currentColor" stroke-width="2" stroke-miterlimit="10" stroke-linejoin="round"/><path d="M71.94 98.278h5.955c1.5 0 2.717.564 2.717 2.061a2.714 2.714 0 0 1-2.717 2.71h-3.513" stroke="currentColor" stroke-width="2" stroke-miterlimit="10" stroke-linecap="round" stroke-linejoin="round"/><path d="M71.94 108.47h6.046c1.5 0 2.717-1.214 2.717-2.711a2.714 2.714 0 0 0-2.717-2.71h-3.604M73.534 98.278v10.331M73.534 110.523v-1.907M77.85 110.523v-1.907" stroke="currentColor" stroke-width="2" stroke-miterlimit="10" stroke-linecap="round" stroke-linejoin="round"/><path d="M63.583 103.046h-5.016c-1.44 0-2.559-1.043-2.559-2.384 0-1.34 1.12-2.384 2.56-2.384H95.67c1.44 0 2.559 1.043 2.559 2.384s-1.12 2.384-2.559 2.384h-5.003M48.985 93.361V62.956c0-1.18 1.05-2.228 2.233-2.228h51.631c1.182 0 2.233 1.049 2.233 2.228v30.405M112.702 86.153V71.737h6.7v7.732c0 3.67-3.022 6.684-6.7 6.684ZM119.402 73.965V48.167M119.402 48.174A4.593 4.593 0 0 0 124 43.587 4.593 4.593 0 0 0 119.402 39a4.592 4.592 0 0 0-4.598 4.587 4.592 4.592 0 0 0 4.598 4.587ZM67.115 60.728v29.357M85.901 60.728v29.357M48.985 69.116h18.13M86.427 69.116h18.261M67.377 82.353h18.261" stroke="var(--color--bulma-100)" stroke-width="2" stroke-miterlimit="10" stroke-linejoin="round"/><path d="M54.765 76.586h6.043l-3.547 9.83M73.552 65.192h6.043l-3.547 9.83M92.207 76.586h6.043l-3.547 9.83" stroke="var(--color--bulma-100)" stroke-width="2" stroke-miterlimit="10" stroke-linecap="round" stroke-linejoin="round"/><path d="M97.432 134.833c6.16 0 11.153-4.981 11.153-11.125 0-6.145-4.993-11.126-11.153-11.126-6.159 0-11.152 4.981-11.152 11.126 0 6.144 4.993 11.125 11.152 11.125Z" stroke="currentColor" stroke-width="2" stroke-miterlimit="10" stroke-linejoin="round"/><path d="M93.45 119.579h5.271a2.04 2.04 0 0 1 2.042 2.037 2.04 2.04 0 0 1-2.042 2.037h-2.64" stroke="currentColor" stroke-width="2" stroke-miterlimit="10" stroke-linecap="round" stroke-linejoin="round"/><path d="M93.45 127.727h5.34a2.04 2.04 0 0 0 2.042-2.037 2.04 2.04 0 0 0-2.042-2.037h-2.71M95.043 119.579v8.148M95.043 118.784v-1.434M98.687 118.784v-1.434M95.043 130.065v-1.433M98.687 130.065v-1.433" stroke="currentColor" stroke-width="2" stroke-miterlimit="10" stroke-linecap="round" stroke-linejoin="round"/><path d="M66.868 118.803v7.47M74.62 121.014v12.45" stroke="var(--color--bulma-100)" stroke-width="2" stroke-miterlimit="10" stroke-linecap="round" stroke-linejoin="round"/>
</symbol>
</svg>
  