
<!-- Generator: Adobe Illustrator 17.1.0, SVG Export Plug-In . SVG Version: 6.00 Build 0) --> <svg width="1em" height="1em" version="1.1" id="Layer_1" xmlns="http://www.w3.org/2000/svg"  x="0px" y="0px"   viewBox="0 0 128 512"  >
<symbol id="item" 
width="1em" 
height="1em" 
viewBox="0 0 128 512">
 <path fill="currentColor" d="M64 208c26.5 0 48 21.5 48 48s-21.5 48-48 48-48-21.5-48-48 21.5-48 48-48zM16 104c0 26.5 21.5 48 48 48s48-21.5 48-48-21.5-48-48-48-48 21.5-48 48zm0 304c0 26.5 21.5 48 48 48s48-21.5 48-48-21.5-48-48-48-48 21.5-48 48z" class=""></path>  
</symbol>
</svg>
  