<svg width="201" height="33" viewBox="0 0 201 33" fill="none" xmlns="http://www.w3.org/2000/svg">
  <symbol id="item" viewBox="0 0 201 33"  fill="none">
    <path fill-rule="evenodd" clip-rule="evenodd" d="M31.668 13.093a6.125 6.125 0 0 0-.528-6.872L26.156 0 15.058 19.43a6.125 6.125 0 0 0 .528 6.872l4.984 6.221 11.098-19.43ZM13.374 7.956a6.149 6.149 0 0 1 .519 6.75L5.056 30.629 1.29 25.796a6.149 6.149 0 0 1-.519-6.75L9.61 3.123l3.765 4.833Zm25.933 13.089a4.633 4.633 0 0 1 .075 5.626L35.8 32.163l-3.23-4.202a4.634 4.634 0 0 1-.075-5.626l3.583-5.492 3.229 4.202Z" fill="#FBE25C"/><path fill-rule="evenodd" clip-rule="evenodd" d="M153.48 25.07V2.67h4.062v8.492c1.231-1.6 3.015-2.4 5.231-2.4 2.215 0 4 .738 5.415 2.277 1.415 1.477 2.154 3.507 2.154 6.092 0 2.585-.739 4.615-2.216 6.092-1.477 1.539-3.261 2.277-5.415 2.277-2.277 0-4-.8-5.169-2.4v1.97h-4.062Zm5.046-4.616c.862.862 1.908 1.292 3.262 1.292 1.292 0 2.338-.43 3.2-1.292.861-.861 1.292-1.97 1.292-3.323 0-1.354-.431-2.462-1.292-3.323-.862-.862-1.908-1.292-3.2-1.292-1.292 0-2.4.43-3.262 1.292-.861.861-1.23 1.97-1.23 3.323 0 1.354.43 2.462 1.23 3.323Zm-77.661-6.461V25.07h-4.062v-9.847c0-1.969-.861-2.954-2.523-2.954-.923 0-1.661.37-2.215 1.047-.554.677-.862 1.661-.862 2.954v8.8h-4.061v-9.785c0-2.03-.862-3.015-2.585-3.015-.861 0-1.538.369-2.154 1.046-.553.677-.861 1.661-.861 2.83v8.924H57.48V9.193h4.062v2.092C62.65 9.562 64.188 8.7 66.157 8.7c2.216 0 3.693.923 4.43 2.708C71.697 9.623 73.42 8.7 75.635 8.7c1.6 0 2.892.493 3.754 1.416 1.046.984 1.477 2.277 1.477 3.877Zm16.738-3.016c1.723 1.477 2.585 3.508 2.585 6.154s-.862 4.677-2.585 6.154C95.88 24.762 93.85 25.5 91.511 25.5c-2.338 0-4.37-.738-6.092-2.215-1.723-1.477-2.585-3.57-2.585-6.154 0-2.585.862-4.677 2.585-6.154 1.723-1.477 3.754-2.215 6.092-2.215 2.339 0 4.37.738 6.092 2.215Zm-9.353 9.539c.923.861 1.969 1.23 3.261 1.23 1.23 0 2.277-.43 3.2-1.23.923-.862 1.354-1.97 1.354-3.385 0-1.415-.43-2.523-1.354-3.323-.923-.862-1.97-1.292-3.2-1.292-1.23 0-2.338.43-3.261 1.292-.924.861-1.354 1.97-1.354 3.323 0 1.415.492 2.523 1.353 3.385Zm29.107 4.554V14.239c0-1.662-.554-2.954-1.6-4-1.046-.985-2.4-1.477-4.061-1.477-2.277 0-4.062.984-5.354 3.015V9.193h-4.062V25.07h4.062v-8.062c0-1.354.369-2.4 1.046-3.262.677-.8 1.6-1.23 2.646-1.23 2.154 0 3.262 1.107 3.262 3.384v9.17h4.061Zm17.969-6.954h-12.184c.123 1.23.615 2.215 1.354 2.892.8.677 1.784 1.046 2.954 1.046 1.969 0 3.446-.984 4.369-2.892l3.015 1.723c-1.477 3.077-4 4.615-7.446 4.615-2.277 0-4.185-.8-5.785-2.338-1.6-1.6-2.338-3.57-2.338-6.031 0-2.462.8-4.492 2.4-6.03 1.6-1.54 3.631-2.34 5.969-2.34 2.277 0 4.123.74 5.539 2.216 1.477 1.477 2.153 3.385 2.153 5.723v1.416Zm-7.815-6.277c-1.046 0-1.969.307-2.769.984a5.154 5.154 0 0 0-1.6 2.339h8.492a4.228 4.228 0 0 0-1.354-2.462c-.738-.554-1.661-.861-2.769-.861Zm10.4 15.877-.615 3.753c.615.247 1.353.37 2.092.37 1.231 0 2.277-.308 3.138-.923.862-.616 1.539-1.6 2.093-2.954l7.569-18.77h-4.554l-3.877 10.277-4.123-10.276h-4.554l6.523 16-.492 1.415c-.369.985-.923 1.477-1.785 1.477-.492 0-.923-.123-1.415-.37Zm45.292-2.647h4.123c-.676-1.046-1.046-2.338-1.046-4.061v-6.646c0-1.908-.615-3.323-1.784-4.308-1.17-.923-2.893-1.415-5.17-1.415-2.03 0-3.63.492-4.861 1.477-1.231.923-1.846 2.092-1.846 3.384 0 .492.123.923.307 1.354l3.631-1.23c-.061-.124-.061-.247-.061-.37 0-.554.246-.923.738-1.292.492-.308 1.169-.493 2.092-.493 1.908 0 2.893.8 2.893 2.4v.616l-4.739.738c-1.661.308-3.077.862-4.123 1.723-1.046.862-1.538 2.031-1.538 3.57 0 1.538.492 2.707 1.477 3.63.984.923 2.277 1.354 3.877 1.354 2.4 0 4.184-.985 5.292-2.954 0 1.047.246 1.908.738 2.523Zm-2.153-4c-.739.8-1.724 1.17-2.954 1.17-.677 0-1.293-.123-1.723-.554-.431-.308-.616-.8-.616-1.416 0-1.23.862-2.03 2.646-2.338l3.816-.616v.308c0 1.477-.431 2.646-1.169 3.446Zm8.123 4V2.67h4.061v22.4h-4.061Zm7.138-22.4v22.4h4.062V2.67h-4.062Z" fill="currentColor"/>
  </symbol>
</svg>
  