<svg width="134" height="36" viewBox="0 0 134 36" fill="none" xmlns="http://www.w3.org/2000/svg">
  <symbol id="item" viewBox="0 0 134 36"  fill="none">
    <path fill-rule="evenodd" clip-rule="evenodd" d="M11.153 25.5c5.977 0 10.822-4.845 10.822-10.822 0-5.977-4.845-10.822-10.822-10.822C5.176 3.856.33 8.701.33 14.678c0 5.977 4.846 10.823 10.823 10.823Zm0-2.217a8.605 8.605 0 1 0 0-17.21 8.605 8.605 0 0 0 0 17.21Z" fill="currentColor"/><path d="M5.232 14.32a5.232 5.232 0 1 0 0-10.463 5.232 5.232 0 0 0 0 10.464Z" fill="#49B356"/><path d="M29.961 11.842c0 .524.276.964.799 1.294.523.331 1.377.606 2.533.854 1.515.303 2.644.826 3.387 1.487.744.689 1.102 1.597 1.102 2.726 0 1.157-.468 2.176-1.405 2.974-.936.827-2.175 1.24-3.717 1.24-1.625 0-2.947-.413-3.91-1.212-.964-.798-1.598-1.872-1.873-3.194l2.286-1.157c.413 2.176 1.57 3.277 3.47 3.277.77 0 1.404-.165 1.844-.523.468-.33.689-.799.689-1.35 0-.605-.276-1.073-.826-1.404-.551-.33-1.405-.633-2.589-.854-1.322-.275-2.368-.743-3.14-1.431-.77-.689-1.156-1.598-1.156-2.7 0-1.128.44-2.065 1.35-2.753.88-.688 2.065-1.019 3.497-1.019 2.616 0 4.35 1.184 5.232 3.525l-2.038 1.184c-.55-1.625-1.625-2.45-3.25-2.45-.66 0-1.21.11-1.652.357-.413.276-.633.634-.633 1.13Zm8.895 14.32V12.393h2.478v1.404c.33-.495.826-.908 1.405-1.211a4.35 4.35 0 0 1 1.955-.468c1.267 0 2.34.468 3.194 1.404.854.936 1.294 2.175 1.294 3.745 0 1.542-.44 2.782-1.349 3.718-.909.964-2.01 1.432-3.332 1.432s-2.368-.496-3.167-1.487v5.232h-2.478Zm7.05-10.905c-.524-.55-1.185-.826-1.956-.826-.798 0-1.432.275-1.955.826a2.808 2.808 0 0 0-.798 2.01c0 .799.275 1.46.798 2.01.523.551 1.184.827 1.955.827.799 0 1.432-.276 1.956-.827.523-.55.798-1.211.798-2.01-.028-.798-.275-1.46-.798-2.01Zm12.97-1.762c1.074.908 1.597 2.175 1.597 3.772s-.523 2.864-1.57 3.773c-1.046.909-2.313 1.377-3.745 1.377s-2.699-.468-3.745-1.377c-1.046-.909-1.57-2.176-1.57-3.773s.524-2.864 1.57-3.772c1.046-.91 2.313-1.377 3.745-1.377s2.671.468 3.718 1.377Zm-5.7 5.838c.55.523 1.211.77 1.982.77.771 0 1.432-.247 1.983-.77.55-.524.826-1.212.826-2.066 0-.854-.275-1.542-.826-2.065-.55-.523-1.212-.771-1.983-.771-.77 0-1.432.248-1.983.77-.55.524-.826 1.212-.826 2.066 0 .854.276 1.542.826 2.066Zm14.512-7.078v2.286c-.248-.138-.909-.083-1.184-.083-.716 0-1.295.276-1.708.826-.413.551-.633 1.24-.633 2.066v4.819h-2.478v-9.776h2.478v1.542c.606-1.212 1.515-1.817 2.726-1.817.248 0 .523.055.799.137Zm1.212.138V9.749h2.478v2.644h2.12v2.01h-2.12v4.434c0 .909.413 1.377 1.24 1.377.275 0 .55-.028.825-.11l.248 2.037c-.496.193-1.046.276-1.652.276-2.093 0-3.112-1.047-3.112-3.112v-4.902l-.028-2.01Zm7.985 2.396c0 .606.771 1.074 2.314 1.377 1.129.247 1.955.605 2.478 1.074.523.468.771 1.129.771 1.927 0 .937-.358 1.708-1.046 2.341-.689.606-1.625.909-2.81.909-1.128 0-2.065-.276-2.808-.826a4.925 4.925 0 0 1-1.652-2.093l1.982-1.267c.22.633.551 1.157.964 1.542.413.386.936.578 1.542.578.413 0 .771-.082 1.074-.275.303-.193.468-.468.468-.799 0-.303-.165-.578-.495-.743-.33-.193-.854-.358-1.597-.496-2.258-.44-3.388-1.46-3.388-3.056 0-.882.358-1.57 1.074-2.066.716-.495 1.57-.743 2.589-.743 1.046 0 1.873.193 2.478.578.606.386 1.13 1.019 1.542 1.873l-1.79 1.073c-.44-1.128-1.184-1.707-2.203-1.707-.99-.055-1.487.22-1.487.799Zm6.444 7.352V8.372h2.479v5.205c.77-.991 1.845-1.487 3.194-1.487 1.35 0 2.45.468 3.332 1.377.881.936 1.322 2.175 1.322 3.773 0 1.57-.44 2.836-1.35 3.745-.908.936-2.01 1.404-3.331 1.404-1.377 0-2.451-.495-3.167-1.487v1.212h-2.479v.027Zm3.112-2.808c.523.523 1.184.798 1.983.798.798 0 1.46-.275 1.982-.799.524-.523.771-1.211.771-2.037 0-.826-.247-1.515-.77-2.038-.524-.523-1.185-.799-1.983-.799-.799 0-1.46.276-1.983.799-.523.523-.771 1.212-.771 2.038 0 .798.248 1.487.771 2.037Zm17.734-1.46h-7.517c.082.743.358 1.35.853 1.79.496.44 1.102.66 1.818.66 1.211 0 2.093-.605 2.698-1.79l1.845 1.075c-.908 1.9-2.45 2.864-4.57 2.864-1.378 0-2.562-.468-3.553-1.432-.964-.964-1.46-2.203-1.46-3.718 0-1.514.496-2.753 1.487-3.717.992-.964 2.203-1.432 3.635-1.432 1.377 0 2.534.468 3.415 1.377.881.908 1.349 2.092 1.349 3.497v.826Zm-4.819-3.855c-.633 0-1.211.192-1.68.578a3.15 3.15 0 0 0-.99 1.46h5.231c-.11-.634-.413-1.157-.853-1.515-.441-.358-1.019-.523-1.708-.523Zm5.618-1.625V9.749h2.478v2.644h2.121v2.01h-2.121v4.434c0 .909.413 1.377 1.24 1.377.275 0 .55-.028.826-.11l.248 2.037c-.496.193-1.047.276-1.653.276-2.093 0-3.112-1.047-3.112-3.112v-4.902l-.027-2.01Zm6.857 9.748a1.322 1.322 0 1 0 0-2.644 1.322 1.322 0 0 0 0 2.644ZM118.632 22.412c2.12 0 3.486-.755 4.342-1.815l-1.733-1.672c-.53.653-1.325 1.081-2.344 1.081-1.591 0-2.691-1.1-2.691-2.752 0-1.631 1.08-2.753 2.691-2.753.938 0 1.753.408 2.283 1.06l1.753-1.65c-1.039-1.224-2.67-1.795-4.22-1.795-3.078 0-5.219 2.08-5.219 5.158 0 3.058 2.161 5.138 5.138 5.138ZM128.18 22.412c1.305 0 2.304-.49 2.997-1.387l.04.02v1.183h2.549v-9.97h-2.671V13.4l-.041.02c-.713-.855-1.773-1.304-2.935-1.304-2.671 0-4.69 2.14-4.69 5.158 0 3.079 2.019 5.138 4.751 5.138Zm.509-2.406c-1.508 0-2.548-1.121-2.548-2.712 0-1.712 1.101-2.793 2.548-2.793 1.428 0 2.528 1.183 2.528 2.793 0 1.631-1.162 2.712-2.528 2.712ZM51.698 33.687c1.25 0 2.4-.722 2.4-2.064 0-1.373-1.018-1.703-2.219-2.188-.898-.351-1.543-.609-1.533-1.31.01-.703.605-1.074 1.281-1.074.535 0 1.15.258 1.725.743l.535-.712c-.676-.558-1.463-.857-2.26-.857-1.23 0-2.19.846-2.19 1.94 0 1.29 1.08 1.755 2.14 2.158.958.371 1.604.588 1.604 1.403 0 .712-.595 1.125-1.473 1.125-.696 0-1.463-.33-1.977-.99l-.566.691a3.392 3.392 0 0 0 2.533 1.135ZM55.26 35.67h.817v-2.912h.01c.363.578.969.93 1.746.93 1.352 0 2.39-1.012 2.39-2.54 0-1.486-.998-2.611-2.39-2.611-.747 0-1.372.35-1.746.95h-.01v-.888h-.817v7.07Zm2.462-2.746c-.939 0-1.685-.712-1.685-1.776 0-1.032.676-1.847 1.675-1.847.928 0 1.684.733 1.684 1.847 0 1.012-.686 1.776-1.674 1.776ZM63.586 33.687c1.453 0 2.532-1.042 2.532-2.57 0-1.527-1.08-2.58-2.532-2.58-1.524 0-2.542 1.135-2.542 2.58s1.018 2.57 2.542 2.57Zm0-.763c-1.02 0-1.705-.805-1.705-1.807 0-1 .676-1.816 1.705-1.816.948 0 1.695.743 1.695 1.816 0 1.074-.757 1.807-1.695 1.807ZM67.236 33.626h.817V31.2c0-1.012.555-1.744 1.493-1.744.08 0 .202.01.323.02v-.929c-.07-.01-.131-.01-.202-.01-.676 0-1.24.372-1.594.98h-.02V28.6h-.817v5.027ZM72.074 33.687c.585 0 .918-.144 1.19-.31l-.212-.732c-.242.134-.544.258-.837.258-.464 0-.595-.289-.595-.898v-2.684h1.624V28.6H71.62v-1.806l-.818.093v1.713h-.635v.722h.635v2.808c0 1.011.404 1.558 1.272 1.558ZM75.72 33.687c1.18 0 1.765-.65 1.765-1.434.01-.98-.676-1.167-1.715-1.58-.535-.196-.929-.392-.929-.784 0-.382.374-.609.757-.609.424 0 .878.134 1.302.537l.423-.66a2.524 2.524 0 0 0-1.695-.62c-.928 0-1.614.578-1.614 1.352 0 .919.676 1.249 1.473 1.538.716.268 1.17.392 1.17.836 0 .382-.343.681-.938.681-.686 0-1.12-.227-1.503-.609l-.414.64c.474.423 1.1.712 1.917.712ZM81.112 33.687c1.352 0 2.39-1.011 2.39-2.539 0-1.486-.998-2.611-2.39-2.611-.747 0-1.372.34-1.745.94h-.01v-3.448h-.818v7.597h.777v-.909h.02c.363.599.969.97 1.776.97ZM81 32.924c-.938 0-1.685-.712-1.685-1.776 0-1.032.676-1.847 1.675-1.847.928 0 1.685.733 1.685 1.847 0 1.012-.686 1.776-1.675 1.776ZM89.004 31.024c0-1.434-.918-2.487-2.26-2.487-1.402 0-2.421 1.063-2.421 2.58 0 1.538 1.029 2.57 2.482 2.57.988 0 1.604-.381 2.027-.939l-.575-.495c-.302.382-.766.67-1.422.67-.928 0-1.574-.619-1.685-1.558h3.834c0-.062.02-.206.02-.34Zm-2.27-1.723c.807 0 1.332.557 1.453 1.383H85.17c.151-.857.777-1.383 1.564-1.383ZM91.483 33.687c.585 0 .918-.144 1.19-.31l-.211-.732c-.242.134-.545.258-.837.258-.465 0-.596-.289-.596-.898v-2.684h1.625V28.6h-1.625v-1.806l-.817.093v1.713h-.635v.722h.635v2.808c0 1.011.404 1.558 1.271 1.558ZM93.98 33.698a.597.597 0 0 0 .596-.61.597.597 0 0 0-.595-.608.605.605 0 0 0-.606.609c0 .34.273.609.606.609ZM95.9 33.626h.818v-5.027h-.817v5.027ZM100.442 33.687c1.453 0 2.532-1.042 2.532-2.57 0-1.527-1.079-2.58-2.532-2.58-1.523 0-2.542 1.135-2.542 2.58s1.019 2.57 2.542 2.57Zm0-.763c-1.019 0-1.705-.805-1.705-1.807 0-1 .676-1.816 1.705-1.816.948 0 1.695.743 1.695 1.816 0 1.074-.757 1.807-1.695 1.807ZM110.13 33.677c1.099 0 2.118-.35 2.784-.929v-2.9h-2.956v.815h2.079v1.58c-.535.412-1.191.608-1.907.608-1.604 0-2.664-1.218-2.664-2.88 0-1.754 1.12-2.89 2.623-2.89.838 0 1.544.28 2.119.847l.616-.557c-.757-.805-1.746-1.146-2.724-1.146-2.16 0-3.552 1.569-3.552 3.747 0 2.27 1.524 3.705 3.582 3.705ZM114.294 33.626h.818V31.2c0-1.012.554-1.744 1.493-1.744.08 0 .201.01.323.02v-.929c-.071-.01-.132-.01-.202-.01-.676 0-1.241.372-1.594.98h-.02V28.6h-.818v5.027ZM119.822 33.687c1.453 0 2.532-1.042 2.532-2.57 0-1.527-1.079-2.58-2.532-2.58-1.523 0-2.542 1.135-2.542 2.58s1.019 2.57 2.542 2.57Zm0-.763c-1.019 0-1.705-.805-1.705-1.807 0-1 .676-1.816 1.705-1.816.949 0 1.695.743 1.695 1.816 0 1.074-.757 1.807-1.695 1.807ZM125.207 33.687c.646 0 1.251-.33 1.625-.928h.01v.867h.817v-5.027h-.817v2.436c0 1.197-.676 1.889-1.463 1.889-.777 0-1.201-.434-1.201-1.57V28.6h-.817v2.993c0 1.435.716 2.095 1.846 2.095ZM129.036 35.67h.817v-2.912h.011c.363.578.968.93 1.745.93 1.352 0 2.391-1.012 2.391-2.54 0-1.486-.999-2.611-2.391-2.611-.747 0-1.372.35-1.745.95h-.011v-.888h-.817v7.07Zm2.462-2.746c-.938 0-1.685-.712-1.685-1.776 0-1.032.676-1.847 1.675-1.847.928 0 1.685.733 1.685 1.847 0 1.012-.686 1.776-1.675 1.776Z" fill="currentColor"/><path d="M96.91 27.081a.595.595 0 1 1-1.19 0 .594.594 0 1 1 1.19 0Z" fill="#49B356"/>
  </symbol>
</svg>
  