<svg width="32" height="32" viewBox="0 0 32 32" fill="none" xmlns="http://www.w3.org/2000/svg">
  <symbol id="item" viewBox="0 0 32 32"  fill="none">
    <path d="M16.145 6.555s-5.155 3.24-10.706 4.081c0 0 2.09 12.904 2.927 14.159C9.202 26.05 14.9 32 16.156 32c1.258 0 6.94-5.942 7.78-7.205.84-1.263 2.926-14.139 2.926-14.139-5.55-.84-10.705-4.08-10.705-4.08" fill="#F5EB28"/><path d="M16.145 6.555s-5.155 3.24-10.706 4.081c0 0 2.09 12.904 2.927 14.159C9.202 26.05 14.9 32 16.156 32" fill="#D9D226"/><path d="M16.145 29.454a48.03 48.03 0 0 1-5.848-5.835c-.433-1.087-1.432-6.232-2.276-11.19a35.789 35.789 0 0 0 8.124-3.247 35.756 35.756 0 0 0 8.14 3.247c-.84 4.958-1.844 10.103-2.276 11.19a47.948 47.948 0 0 1-5.844 5.835" fill="#005E4C"/><path d="m16.145 0 .52 1.32 1.41.09-1.09.91.353 1.374-1.193-.761-1.198.761.353-1.375-1.09-.908 1.411-.092L16.145 0ZM26.577 4.332l.384.976L28 5.376l-.8.665.257 1.017-.88-.562-.88.562.257-1.017-.805-.665 1.043-.068.385-.976ZM5.427 4.332l.385.976 1.039.068-.801.665.258 1.017-.88-.562-.885.562.262-1.017L4 5.376l1.043-.068.384-.976Z" fill="currentColor"/><path d="M16.145 29.454a48.03 48.03 0 0 1-5.848-5.835c-.433-1.087-1.432-6.232-2.276-11.19a35.789 35.789 0 0 0 8.124-3.247" fill="#005847"/><path d="M13.976 22.54h-2.343v-6.624h-.936v-2.072h3.28v8.696ZM21.846 18.228a5.41 5.41 0 0 1-.793 3.136 2.51 2.51 0 0 1-2.173 1.16 2.683 2.683 0 0 1-2.311-1.168c-.555-.797-.833-1.865-.833-3.26a5.24 5.24 0 0 1 .833-3.128 2.658 2.658 0 0 1 2.256-1.156c.442-.015.88.085 1.271.29.392.206.724.51.965.882.526.791.788 1.873.785 3.244Zm-2.32 0c0-1.541-.252-2.312-.756-2.312-.505 0-.757.69-.754 2.069 0 1.647.245 2.47.734 2.47.265 0 .463-.183.587-.542a5.449 5.449 0 0 0 .19-1.685Z" fill="currentColor"/>
  </symbol>
</svg>
  