<svg width="185" height="81" viewBox="0 0 185 81" fill="none" xmlns="http://www.w3.org/2000/svg">
  <symbol id="item" viewBox="0 0 185 81"  fill="none">
    <g clip-path="url(#a)"><path d="M155.03 16.45s-13 8.13-27 10.24c0 0 5.27 32.38 7.38 35.53 2.11 3.15 16.48 18.08 19.65 18.08 3.17 0 17.5-14.91 19.62-18.08 2.12-3.17 7.38-35.48 7.38-35.48-14-2.11-27-10.24-27-10.24" fill="#F5EB28"/><path d="M155.03 16.45s-13 8.13-27 10.24c0 0 5.27 32.38 7.38 35.53 2.11 3.15 16.48 18.08 19.65 18.08" fill="#D9D226"/><path d="M155.03 73.91a120.8 120.8 0 0 1-14.75-14.64c-1.09-2.73-3.61-15.64-5.74-28.08a90.537 90.537 0 0 0 20.49-8.15 90.447 90.447 0 0 0 20.53 8.15c-2.12 12.44-4.65 25.35-5.74 28.08a120.633 120.633 0 0 1-14.74 14.64" fill="#005E4C"/><path d="m155.03 0 1.31 3.31 3.56.23-2.75 2.28.89 3.45-3.01-1.91-3.02 1.91.89-3.45-2.75-2.28 3.56-.23L155.03 0ZM181.34 10.87l.97 2.45 2.62.17-2.02 1.67.65 2.55-2.22-1.41-2.22 1.41.65-2.55-2.03-1.67 2.63-.17.97-2.45ZM128 10.87l.97 2.45 2.62.17-2.02 1.67.65 2.55L128 16.3l-2.23 1.41.66-2.55-2.03-1.67 2.63-.17.97-2.45Z" fill="#606161"/><path d="m13.29 56.56-.68-2.5a10.2 10.2 0 0 1-3.05 2.31 7.849 7.849 0 0 1-3.44.75 7 7 0 0 1-2.34-.38 5.838 5.838 0 0 1-2-1.1 5.059 5.059 0 0 1-1.34-1.76 5.36 5.36 0 0 1-.49-2.32c0-3.56 2.433-5.937 7.3-7.13l4.72-1.14v-.6a3.91 3.91 0 0 0-.73-2.46 2.712 2.712 0 0 0-2.29-.93 7.782 7.782 0 0 0-2.57.42 7 7 0 0 0-2.31 1.4L.56 38.18a15.23 15.23 0 0 1 4.07-2.38 14.311 14.311 0 0 1 4.93-.76 8.552 8.552 0 0 1 3.48.64c.908.381 1.713.97 2.35 1.72a7.143 7.143 0 0 1 1.36 2.52c.304.991.456 2.023.45 3.06v9.55l.46 4-4.37.03Zm-1.27-10-3.61 1a5 5 0 0 0-2.47 1.34 3 3 0 0 0-.76 2 2.15 2.15 0 0 0 .59 1.57 2.27 2.27 0 0 0 1.66.59 4.62 4.62 0 0 0 1.85-.42 6.79 6.79 0 0 0 1.93-1.4l.81-.77v-3.91ZM41.77 46.08a17.43 17.43 0 0 1-.53 4.46 11.52 11.52 0 0 1-1.5 3.5 7.24 7.24 0 0 1-2.38 2.27 6.15 6.15 0 0 1-3.14.81 5.92 5.92 0 0 1-2.76-.66 8.91 8.91 0 0 1-2.42-1.89v13.7l-5.27 1.87V35.59h4l.68 2.51a11.55 11.55 0 0 1 2.94-2.36 7 7 0 0 1 3.25-.74 5.68 5.68 0 0 1 3 .83 6.918 6.918 0 0 1 2.25 2.31 11.63 11.63 0 0 1 1.38 3.5c.335 1.456.503 2.946.5 4.44Zm-5.26 0c0-4.44-1.08-6.67-3.23-6.67a3.67 3.67 0 0 0-2 .64 12.16 12.16 0 0 0-2.27 2v8a11.787 11.787 0 0 0 2.12 2 3.42 3.42 0 0 0 1.95.63 2.76 2.76 0 0 0 2.51-1.67c.7-1.546 1.031-3.234.97-4.93h-.05ZM64.19 46.08c0 1.509-.213 3.01-.63 4.46a10.079 10.079 0 0 1-1.79 3.5 8.079 8.079 0 0 1-3 2.27 11.09 11.09 0 0 1-8.32 0 8.079 8.079 0 0 1-3-2.27 9.888 9.888 0 0 1-1.78-3.5 15.767 15.767 0 0 1-.6-4.46 15.578 15.578 0 0 1 .6-4.44 9.881 9.881 0 0 1 1.89-3.48 8.131 8.131 0 0 1 3-2.29 10.84 10.84 0 0 1 8.32 0 8.131 8.131 0 0 1 3 2.29c.78 1.04 1.35 2.223 1.68 3.48a16 16 0 0 1 .63 4.44Zm-5.26 0a10.25 10.25 0 0 0-1-5.31 4 4 0 0 0-6.41 0c-.7 1.08-1 2.85-1 5.31 0 2.46.34 4.23 1 5.31a4 4 0 0 0 6.41 0 10.25 10.25 0 0 0 1-5.31ZM84.02 50.96a5.31 5.31 0 0 1-2.25 4.48 9.93 9.93 0 0 1-6.07 1.68 11.12 11.12 0 0 1-5-1.09 9.43 9.43 0 0 1-3.5-2.9l3.82-2.64a5.591 5.591 0 0 0 2.1 1.87 5.66 5.66 0 0 0 2.62.64 4.161 4.161 0 0 0 2.39-.6 1.74 1.74 0 0 0 .87-1.48 1.79 1.79 0 0 0-.44-1.18 4.09 4.09 0 0 0-1.59-1l-3.48-1.27a9.63 9.63 0 0 1-4.12-2.57 5.78 5.78 0 0 1-1.32-3.88 5.68 5.68 0 0 1 .51-2.28 5.478 5.478 0 0 1 1.47-1.91 7.098 7.098 0 0 1 2.37-1.29 10.438 10.438 0 0 1 3.27-.47 9.859 9.859 0 0 1 8.07 3.57l-3.82 2.59a5.3 5.3 0 0 0-4.2-2.17 3.06 3.06 0 0 0-2 .53 1.74 1.74 0 0 0-.63 1.38 1.86 1.86 0 0 0 .4 1.17c.356.41.82.712 1.34.87l3.52 1.27a9.42 9.42 0 0 1 4.41 2.78 6.29 6.29 0 0 1 1.26 3.9ZM98.92 56.88c-.87.17-1.754.25-2.64.24a6 6 0 0 1-4.47-1.49 5.602 5.602 0 0 1-1.47-4.12V39.97h-3.69v-4.38h3.69v-5.43l5.27-1.83v7.26h5.6l-1.06 4.38h-4.54v11.2c0 1.08.56 1.62 1.69 1.62.481-.011.96-.068 1.43-.17a12.076 12.076 0 0 0 1.63-.47l.93 4c-.768.309-1.561.553-2.37.73ZM117.34 56.56l-.68-2.5a10.286 10.286 0 0 1-3 2.31 7.912 7.912 0 0 1-3.44.75 7 7 0 0 1-2.34-.39 5.997 5.997 0 0 1-2-1.1 5.184 5.184 0 0 1-1.32-1.76 5.506 5.506 0 0 1-.49-2.32c0-3.56 2.437-5.937 7.31-7.13l4.71-1.14v-.6a3.909 3.909 0 0 0-.72-2.46 2.737 2.737 0 0 0-2.3-.93 7.722 7.722 0 0 0-2.56.42 7.004 7.004 0 0 0-2.32 1.4l-3.52-2.93a15.55 15.55 0 0 1 4.07-2.38 14.311 14.311 0 0 1 4.93-.76 8.482 8.482 0 0 1 3.48.64c.91.38 1.719.97 2.36 1.72a7.116 7.116 0 0 1 1.35 2.52c.304.991.456 2.023.45 3.06v9.55l.47 4-4.44.03Zm-1.27-10-3.61 1A5.002 5.002 0 0 0 110 48.9a2.92 2.92 0 0 0-.77 2 2.129 2.129 0 0 0 .6 1.57 2.258 2.258 0 0 0 1.65.59 4.581 4.581 0 0 0 1.85-.42 6.664 6.664 0 0 0 1.93-1.4l.81-.77v-3.91Z" fill="#4E5259"/><path d="M155.03 73.91a120.8 120.8 0 0 1-14.75-14.64c-1.09-2.73-3.61-15.64-5.74-28.08a90.537 90.537 0 0 0 20.49-8.15" fill="#005847"/><path d="M149.56 56.56h-5.91V39.94h-2.36v-5.2h8.27v21.82ZM169.41 45.74a13.519 13.519 0 0 1-2 7.87 6.363 6.363 0 0 1-5.48 2.91 6.798 6.798 0 0 1-5.83-2.93c-1.4-2-2.1-4.68-2.1-8.18a13.101 13.101 0 0 1 2.1-7.85 6.693 6.693 0 0 1 5.69-2.9 6.467 6.467 0 0 1 5.64 2.94c1.327 1.987 1.987 4.7 1.98 8.14Zm-5.85 0c0-3.867-.637-5.8-1.91-5.8s-1.907 1.73-1.9 5.19c0 4.133.617 6.2 1.85 6.2.67 0 1.17-.46 1.48-1.36.381-1.376.543-2.804.48-4.23Z" fill="currentColor"/></g><defs><clipPath id="a"><path fill="currentColor" d="M0 0h184.93v80.29H0z"/></clipPath></defs>
  </symbol>
</svg>
  