<svg xmlns="http://www.w3.org/2000/svg" fill="none" viewBox="0 0 115 20" width="115" height="20">
  <symbol id="item" viewBox="0 0 115 20"  fill="none">
    <path fill="currentColor" d="M10 19.407c5.36 0 9.704-4.344 9.704-9.703C19.704 4.344 15.359 0 10 0 4.64 0 .296 4.345.296 9.704c0 5.359 4.345 9.703 9.704 9.703zm0-1.988a7.715 7.715 0 1 0 0-15.43 7.715 7.715 0 0 0 0 15.43z"/><path fill="#0CD664" d="M4.691 9.383a4.691 4.691 0 1 0 0-9.383 4.691 4.691 0 0 0 0 9.383z"/><path fill="currentColor" d="M26.864 7.16c0 .47.247.865.716 1.161.47.296 1.235.543 2.272.765 1.358.272 2.37.741 3.037 1.334.667.617.988 1.432.988 2.444 0 1.037-.42 1.95-1.26 2.667-.84.74-1.95 1.111-3.333 1.111-1.457 0-2.642-.37-3.506-1.086-.865-.716-1.432-1.68-1.68-2.865l2.05-1.037c.37 1.95 1.407 2.939 3.111 2.939.691 0 1.26-.149 1.654-.47.42-.296.618-.716.618-1.21 0-.543-.247-.962-.74-1.259-.495-.296-1.26-.568-2.322-.765-1.185-.247-2.123-.667-2.815-1.284-.691-.617-1.037-1.432-1.037-2.42 0-1.012.395-1.852 1.21-2.469.79-.617 1.852-.914 3.136-.914 2.346 0 3.901 1.062 4.691 3.161l-1.827 1.062c-.494-1.457-1.457-2.198-2.914-2.198-.592 0-1.086.099-1.481.321-.37.247-.568.568-.568 1.012zM34.84 20V7.654h2.223v1.26c.296-.445.74-.815 1.259-1.087a3.902 3.902 0 0 1 1.753-.42c1.136 0 2.099.42 2.864 1.26.766.84 1.16 1.95 1.16 3.358 0 1.382-.394 2.493-1.21 3.333-.814.864-1.802 1.284-2.987 1.284s-2.123-.445-2.84-1.333V20H34.84zm6.321-9.778c-.469-.494-1.061-.74-1.753-.74-.716 0-1.284.246-1.753.74a2.517 2.517 0 0 0-.716 1.803c0 .716.247 1.308.716 1.802.47.494 1.062.74 1.753.74.716 0 1.284-.246 1.753-.74.47-.494.716-1.086.716-1.802-.024-.716-.246-1.309-.716-1.803zm11.63-1.58c.963.815 1.432 1.95 1.432 3.383s-.469 2.568-1.407 3.382c-.939.815-2.074 1.235-3.358 1.235-1.284 0-2.42-.42-3.358-1.235-.939-.814-1.408-1.95-1.408-3.382s.47-2.568 1.408-3.383 2.074-1.235 3.358-1.235c1.284 0 2.395.42 3.333 1.235zm-5.111 5.235c.494.469 1.086.69 1.778.69.691 0 1.284-.221 1.778-.69.493-.47.74-1.087.74-1.852 0-.766-.247-1.383-.74-1.852-.494-.47-1.087-.692-1.778-.692-.692 0-1.284.223-1.778.692s-.74 1.086-.74 1.852c0 .765.246 1.382.74 1.851zM60.691 7.53v2.05c-.222-.124-.815-.075-1.061-.075-.642 0-1.16.247-1.531.74-.37.495-.568 1.112-.568 1.853v4.32h-2.222V7.655h2.222v1.383c.543-1.086 1.358-1.63 2.444-1.63.222 0 .47.05.716.124zm1.087.123v-2.37H64v2.37H65.9v1.803H64v3.975c0 .815.37 1.235 1.111 1.235.247 0 .494-.025.74-.1l.223 1.828c-.444.173-.938.247-1.481.247-1.877 0-2.79-.938-2.79-2.79V9.457l-.025-1.803zm7.16 2.148c0 .544.692.963 2.074 1.235 1.013.222 1.753.543 2.222.963.47.42.692 1.012.692 1.728 0 .84-.321 1.531-.938 2.1-.618.542-1.457.814-2.519.814-1.012 0-1.852-.247-2.518-.74a4.416 4.416 0 0 1-1.482-1.877l1.778-1.136c.197.568.494 1.037.864 1.383.37.345.84.518 1.383.518.37 0 .691-.074.963-.247.271-.173.42-.42.42-.716 0-.271-.149-.518-.445-.667-.296-.172-.765-.32-1.432-.444-2.025-.395-3.037-1.309-3.037-2.74 0-.79.32-1.408.963-1.853.642-.444 1.407-.666 2.32-.666.94 0 1.68.173 2.223.518.543.346 1.012.914 1.383 1.68l-1.605.962c-.395-1.012-1.062-1.53-1.975-1.53-.89-.05-1.334.197-1.334.715zm5.778 6.593V4.05h2.222v4.667c.692-.889 1.654-1.333 2.864-1.333s2.198.42 2.988 1.234c.79.84 1.185 1.95 1.185 3.383 0 1.407-.395 2.543-1.21 3.358-.814.84-1.802 1.26-2.987 1.26-1.235 0-2.198-.445-2.84-1.334v1.086h-2.222v.025zm2.79-2.519c.47.47 1.062.717 1.778.717s1.308-.247 1.778-.716c.469-.47.691-1.087.691-1.828 0-.74-.222-1.358-.691-1.827-.47-.469-1.062-.716-1.778-.716s-1.309.247-1.778.716c-.469.47-.691 1.087-.691 1.827 0 .716.222 1.334.691 1.828zm15.901-1.308h-6.74c.074.667.32 1.21.765 1.605.444.395.988.592 1.63.592 1.086 0 1.876-.543 2.42-1.605l1.654.963c-.815 1.704-2.198 2.568-4.099 2.568-1.235 0-2.296-.42-3.185-1.284-.864-.864-1.309-1.975-1.309-3.333s.445-2.47 1.333-3.333c.89-.864 1.976-1.284 3.26-1.284 1.234 0 2.271.42 3.061 1.234.79.815 1.21 1.877 1.21 3.136v.74zm-4.32-3.457c-.569 0-1.087.173-1.507.519-.42.345-.716.79-.889 1.308h4.692c-.1-.568-.37-1.037-.766-1.358-.395-.32-.913-.469-1.53-.469zm5.036-1.457v-2.37h2.223v2.37h1.9v1.803h-1.9v3.975c0 .815.37 1.235 1.11 1.235.248 0 .495-.025.741-.1l.223 1.828c-.445.173-.939.247-1.482.247-1.876 0-2.79-.938-2.79-2.79V9.457l-.025-1.803zm6.149 8.741a1.185 1.185 0 1 0 0-2.37 1.185 1.185 0 0 0 0 2.37zm2.172 0v-8.74h2.223v8.74h-2.223zm11.087-7.753c.963.815 1.432 1.95 1.432 3.383s-.469 2.568-1.407 3.382c-.939.815-2.075 1.235-3.359 1.235-1.283 0-2.419-.42-3.358-1.235-.938-.814-1.407-1.95-1.407-3.382s.469-2.568 1.407-3.383c.939-.815 2.075-1.235 3.358-1.235 1.284 0 2.371.42 3.334 1.235zm-5.136 5.235c.494.469 1.086.69 1.778.69.691 0 1.284-.221 1.778-.69.493-.47.74-1.087.74-1.852 0-.766-.247-1.383-.74-1.852-.494-.47-1.087-.692-1.778-.692-.692 0-1.284.223-1.778.692s-.741 1.086-.741 1.852c0 .765.247 1.382.741 1.851z"/><path fill="#0CD664" d="M102.319 5.235a1.187 1.187 0 1 0 1.187-1.187c-.668 0-1.187.52-1.187 1.187z"/>
  </symbol>
</svg>
  