<svg width="89" height="24" viewBox="0 0 89 24" fill="none" xmlns="http://www.w3.org/2000/svg">
  <symbol id="item" viewBox="0 0 89 24"  fill="none">
    <path d="M34.204 9.316c-1.773-1.94-3.984-2.9-6.657-2.9-2.395 0-4.468.754-6.15 2.261-1.888 1.69-2.832 3.86-2.832 6.44 0 2.238.736 4.178 2.211 5.778 1.773 1.94 3.985 2.9 6.726 2.9 2.35 0 4.353-.754 6.034-2.262 1.912-1.712 2.857-3.813 2.857-6.302 0-2.329-.738-4.316-2.19-5.915h.001Z" fill="#FC3586"/><path d="M63.917 21.762c0 1.187-.967 2.124-2.165 2.124a2.137 2.137 0 0 1-2.143-2.146c0-.572.232-1.051.646-1.485a2.061 2.061 0 0 1 1.497-.617c1.198.023 2.165.96 2.165 2.125v-.001Z" fill="#00E8E8"/><path d="M69.883 6.76v16.715h-3.249V7.74l3.249-.982Z" fill="#6300FF"/><path d="M86.72 9.111c1.52 1.667 2.28 3.653 2.28 5.982 0 2.718-.99 4.91-2.925 6.669-1.612 1.461-3.57 2.192-5.827 2.192-2.626 0-4.791-.936-6.496-2.81-1.52-1.666-2.28-3.72-2.28-6.096 0-2.626.99-4.84 2.925-6.6 1.612-1.46 3.616-2.168 5.989-2.168 2.487 0 4.606.936 6.334 2.831Zm-9.328.868c-1.774 1.05-2.65 2.74-2.65 5.115 0 1.965.623 3.493 1.867 4.59 1.012.913 2.233 1.347 3.639 1.347 1.611 0 2.947-.57 4.007-1.713.991-1.05 1.474-2.466 1.474-4.247 0-1.941-.622-3.425-1.842-4.52-1.014-.915-2.234-1.348-3.686-1.348-1.036 0-1.98.25-2.81.776Z" fill="currentColor"/><path d="M70.459 2.169c0 .594-.208 1.097-.623 1.507-.414.434-.944.64-1.566.64-1.243 0-2.21-.96-2.21-2.192 0-.594.229-1.096.644-1.507.414-.413.945-.617 1.543-.617 1.244 0 2.212.96 2.212 2.169Z" fill="#FFA300"/><path d="m13.82 2.786-.07.045v20.645H17V1.804l-3.18.982ZM8.246 14.044l-1.613-.617c-1.175-.434-1.888-.776-2.21-1.073-.323-.252-.461-.662-.461-1.188 0-1.187.99-2.032 2.442-2.032.943 0 1.773.457 2.51 1.37l2.88-.89C10.572 7.397 8.799 6.28 6.494 6.28c-1.543 0-2.856.48-3.961 1.415C1.451 8.61.92 9.796.92 11.258c0 2.009 1.198 3.47 3.571 4.362l1.773.684c1.106.412 1.842.777 2.188 1.096.323.297.508.709.508 1.256 0 .594-.209 1.12-.623 1.6-.46.547-1.151.82-2.073.82-1.45 0-2.327-.66-3.316-2.557l-2.834.89C1.29 22.472 3.34 24 6.196 24c1.658 0 3.064-.502 4.192-1.508 1.198-1.05 1.796-2.374 1.796-3.95-.022-2.101-1.175-3.449-3.938-4.498Z" fill="currentColor"/><path d="M4.308 7.307c0 1.188-.968 2.124-2.166 2.124A2.138 2.138 0 0 1 .16 8.107 2.13 2.13 0 0 1 0 7.284c0-.57.23-1.05.645-1.484a2.061 2.061 0 0 1 1.497-.616c1.198 0 2.166.936 2.166 2.124v-.001Z" fill="#F7CD00"/><path d="M43.694 21.008c-.438 0-.76-.045-1.036-.137-.023 0-.047-.022-.07-.022-.276-.092-.53-.183-.83-.526-.506-.593-.413-2.168-.413-2.466l-.046-6.349V9.636l-.07-1.187v-.274l.093-1.416V1.92l-3.249 1.004v3.813l-.022 1.713.023 1.187-.023 8.54v.526c0 1.918.414 2.9 1.22 3.768.76.822 2.28 1.37 3.525 1.438h.207c.161.023.299.023.46.023l2.949-2.923h-2.718Z" fill="currentColor"/><path d="m54.105 14.044-1.613-.617c-1.174-.434-1.888-.776-2.21-1.073-.323-.252-.461-.662-.461-1.188 0-1.187.99-2.032 2.442-2.032.943 0 1.773.457 2.51 1.347l2.88-.89c-1.221-2.215-2.995-3.312-5.299-3.312-1.543 0-2.856.48-3.961 1.416-1.083.914-1.613 2.101-1.613 3.563 0 2.009 1.198 3.47 3.571 4.362l1.773.684c1.105.412 1.842.777 2.188 1.096.323.297.508.708.508 1.256 0 .594-.209 1.12-.623 1.6-.46.547-1.152.82-2.073.82l-2.971-.022-2.948 2.923h3.34c.53.023 1.059 0 1.611 0h.922c1.658 0 3.064-.502 4.191-1.507 1.198-1.05 1.798-2.375 1.798-3.95-.024-2.08-1.198-3.426-3.962-4.476Z" fill="currentColor"/><path d="M44.108 6.714H36.07v2.99h8.038v-2.99Z" fill="#00F490"/>
  </symbol>
</svg>
  