<svg width="124" height="24" viewBox="0 0 124 24" fill="none" xmlns="http://www.w3.org/2000/svg">
  <symbol id="item" viewBox="0 0 124 24"  fill="none">
    <path d="M7.358 23.244c0-.416.354-.756.789-.756.434 0 .789.34.789.756S8.58 24 8.146 24c-.434 0-.788-.32-.788-.756Zm0-22.488c0-.416.354-.756.789-.756.434 0 .789.34.789.756s-.355.756-.79.756c-.434 0-.788-.322-.788-.756Zm-3.945 3.78c0-.417.354-.757.789-.757.434 0 .789.34.789.756s-.355.756-.79.756c-.434 0-.788-.321-.788-.756Zm.335 3.779c0-.246.198-.434.454-.434s.453.189.453.434a.437.437 0 0 1-.453.434.437.437 0 0 1-.454-.434ZM0 8.315c0-.133.118-.246.256-.246s.256.113.256.246a.255.255 0 0 1-.256.246C.118 8.56 0 8.467 0 8.315Zm0 3.534c0-.132.118-.246.256-.246s.256.114.256.246a.255.255 0 0 1-.256.246A.256.256 0 0 1 0 11.85Zm0 4.025c0-.132.118-.245.256-.245s.256.113.256.245a.255.255 0 0 1-.256.246c-.138 0-.256-.095-.256-.246Zm3.748-4.025c0-.246.198-.434.454-.434s.453.19.453.434a.437.437 0 0 1-.453.434.437.437 0 0 1-.454-.434Zm0 4.025c0-.245.198-.434.454-.434s.453.19.453.434a.437.437 0 0 1-.453.435.437.437 0 0 1-.454-.435Zm-.335 3.78c0-.416.354-.756.789-.756.434 0 .789.34.789.756s-.355.756-.79.756c-.434 0-.788-.322-.788-.756ZM6.825 4.346c0-.756.611-1.266 1.322-1.266.789 0 1.322.586 1.322 1.266s-.612 1.266-1.322 1.266c-.79 0-1.322-.586-1.322-1.266Zm4.34.19c0-.757.611-1.267 1.321-1.267.79 0 1.322.586 1.322 1.266s-.611 1.267-1.322 1.267c-.789 0-1.322-.586-1.322-1.267Zm0 15.118c0-.756.611-1.266 1.321-1.266.79 0 1.322.586 1.322 1.266s-.611 1.266-1.322 1.266c-.789 0-1.322-.586-1.322-1.266Zm0-7.748c0-.756.611-1.266 1.321-1.266.79 0 1.322.586 1.322 1.266s-.611 1.266-1.322 1.266c-.789 0-1.322-.586-1.322-1.266Zm-4.34 7.559c0-.756.611-1.267 1.322-1.267.789 0 1.322.586 1.322 1.267 0 .68-.612 1.266-1.322 1.266-.79 0-1.322-.586-1.322-1.266ZM6.588 7.937c0-.907.73-1.493 1.558-1.493.947 0 1.557.7 1.557 1.493 0 .794-.73 1.493-1.557 1.493-.947.018-1.558-.68-1.558-1.493Zm0 7.937c0-.907.73-1.492 1.558-1.492.947 0 1.557.699 1.557 1.492 0 .794-.73 1.493-1.557 1.493-.947.019-1.558-.68-1.558-1.493Zm8.029-7.01c-.435-.776-.139-1.683.65-2.117a1.663 1.663 0 0 1 2.21.623c.433.776.137 1.683-.652 2.117a1.526 1.526 0 0 1-.73.207 1.69 1.69 0 0 1-1.478-.83ZM6.549 12.66c-.493-.87-.159-1.89.75-2.362a1.83 1.83 0 0 1 2.465.717c.493.87.158 1.89-.75 2.363-.256.15-.572.246-.828.246-.651-.019-1.322-.396-1.637-.964Zm7.771 3.912c-.533-.926-.177-2.022.79-2.533a1.96 1.96 0 0 1 2.642.757c.533.926.178 2.022-.789 2.532-.256.17-.611.246-.887.246-.69 0-1.401-.416-1.756-1.002Z" fill="#FF5111"/><path d="M31.447 18.78H26V5.804h5.246c1.425 0 2.497.323 3.217.969.718.646 1.078 1.499 1.078 2.559 0 .682-.167 1.273-.502 1.773-.335.499-.795.871-1.38 1.114.646.22 1.157.588 1.535 1.106.377.518.566 1.124.566 1.819 0 1.145-.37 2.037-1.114 2.677-.743.641-1.81.96-3.199.96Zm-.017-5.556h-3.254v3.546h3.235c1.413 0 2.12-.591 2.12-1.773 0-.56-.183-.997-.547-1.307-.367-.31-.885-.466-1.554-.466Zm-.165-5.41h-3.089v3.382h3.09c1.364 0 2.046-.56 2.046-1.682 0-.537-.17-.954-.511-1.252-.342-.298-.853-.448-1.536-.448Zm5.623 3.418V9.294h3.565v9.487h-2.175v-7.55h-1.39Zm2.486-3.528c-.402 0-.73-.125-.987-.374-.256-.25-.383-.57-.383-.96 0-.401.128-.73.383-.986.257-.257.585-.384.987-.384.39 0 .714.128.97.384.255.255.383.585.383.987 0 .39-.128.71-.384.96-.255.248-.579.373-.969.373Zm7.817 9.14v1.882c-.268.073-.646.11-1.133.11-1.852 0-2.778-.933-2.778-2.797v-5.008h-1.444V9.294h1.444V6.828h2.175v2.468h1.773v1.736h-1.773v4.789c0 .743.354 1.115 1.06 1.115l.676-.093Zm.798-2.797c0-1.4.445-2.58 1.335-3.537.89-.956 2.023-1.435 3.4-1.435 1.303 0 2.342.37 3.115 1.107.773.737 1.233 1.586 1.38 2.549h-2.23a2.258 2.258 0 0 0-.813-1.261c-.409-.317-.899-.476-1.471-.476-.768 0-1.384.283-1.847.85-.463.566-.694 1.3-.694 2.202 0 .901.231 1.632.694 2.194.463.561 1.079.84 1.847.84.572 0 1.062-.158 1.47-.475.41-.317.68-.738.814-1.262h2.23c-.145.963-.605 1.813-1.38 2.55-.774.737-1.812 1.106-3.116 1.106-1.377 0-2.51-.479-3.399-1.435-.89-.955-1.335-2.128-1.335-3.517Zm16.664.676c-2.12 0-3.364.097-3.73.293-.377.195-.566.548-.566 1.06 0 .816.542 1.224 1.627 1.224 1.78 0 2.669-.694 2.669-2.084v-.493ZM61.6 19c-1.121 0-1.956-.274-2.504-.823-.548-.548-.823-1.274-.823-2.175 0-1.158.511-1.968 1.535-2.43a4.08 4.08 0 0 1 .704-.248c.225-.054.685-.11 1.38-.164a36.745 36.745 0 0 1 2.76-.083v-.475c0-1.158-.676-1.737-2.028-1.737-1.181 0-1.852.47-2.01 1.407h-2.121c.097-.926.485-1.69 1.161-2.294.676-.603 1.684-.905 3.025-.905 1.352 0 2.373.311 3.061.933.689.621 1.033 1.493 1.033 2.613v6.16h-2.01v-1.005C64.08 18.592 63.024 19 61.6 19Zm10.85 0c-1.303 0-2.284-.305-2.942-.914-.657-.609-1.017-1.39-1.078-2.34h2.102c.025.439.213.792.566 1.06.354.268.847.402 1.48.402.561 0 .994-.097 1.298-.292.305-.196.457-.457.457-.786 0-.366-.186-.637-.557-.813-.371-.177-.826-.309-1.362-.393a17.115 17.115 0 0 1-1.608-.338 2.718 2.718 0 0 1-1.362-.832c-.37-.414-.557-.98-.557-1.7 0-.827.344-1.531 1.033-2.11.688-.58 1.6-.869 2.732-.869.646 0 1.216.1 1.71.302.492.2.877.466 1.15.795.275.329.483.664.622 1.005.14.341.222.689.247 1.042h-2.084a1.485 1.485 0 0 0-.485-.968c-.286-.268-.691-.403-1.216-.403-.524 0-.926.1-1.206.302a.969.969 0 0 0-.42.831c0 .33.185.58.556.75.371.17.826.299 1.362.383.536.086 1.072.204 1.608.357.537.153.99.442 1.362.868.371.428.557.994.557 1.7 0 .853-.344 1.56-1.033 2.12-.686.56-1.664.841-2.931.841Zm4.82-7.768V9.294h3.565v9.487H78.66v-7.55h-1.39Zm2.486-3.528c-.403 0-.731-.125-.988-.374-.256-.249-.383-.57-.383-.96 0-.401.128-.73.383-.986.256-.257.585-.384.988-.384.39 0 .713.128.968.384.257.256.384.585.384.987 0 .39-.128.71-.384.96-.255.248-.578.373-.968.373Zm5.569 1.59v1.262c.219-.415.582-.765 1.087-1.052.506-.286 1.118-.429 1.837-.429 1.121 0 1.99.341 2.605 1.024.615.682.923 1.59.923 2.723v5.959h-2.175v-5.684c0-.67-.155-1.197-.467-1.58-.31-.384-.782-.577-1.416-.577-.695 0-1.24.207-1.635.622-.396.414-.595.987-.595 1.718v5.502h-2.175V9.296h2.01v-.002ZM98.479 19c-1.462 0-2.647-.482-3.555-1.444-.908-.963-1.362-2.133-1.362-3.51 0-1.377.454-2.55 1.362-3.518.907-.969 2.092-1.454 3.555-1.454 1.474 0 2.665.485 3.573 1.454.908.968 1.362 2.14 1.362 3.518 0 1.377-.454 2.546-1.362 3.51-.908.963-2.099 1.444-3.573 1.444Zm-2.742-4.953c0 .901.259 1.632.777 2.194.518.561 1.172.84 1.965.84.804 0 1.465-.28 1.983-.84.518-.56.776-1.291.776-2.194 0-.914-.258-1.651-.776-2.211-.518-.56-1.179-.84-1.983-.84-.792 0-1.447.28-1.965.84-.518.56-.777 1.297-.777 2.211Zm10.467 4.88c-.439 0-.801-.137-1.088-.41-.286-.275-.429-.631-.429-1.07 0-.427.143-.782.429-1.069.287-.286.649-.429 1.088-.429.427 0 .782.143 1.069.43.286.286.429.642.429 1.068 0 .439-.141.795-.421 1.07-.279.273-.638.41-1.077.41Zm2.457-7.695V9.294h3.565v9.487h-2.175v-7.55h-1.39Zm2.485-3.528c-.402 0-.73-.125-.987-.374-.256-.25-.383-.57-.383-.96 0-.401.128-.73.383-.986.257-.257.585-.384.987-.384.39 0 .714.128.969.384.257.256.384.585.384.987 0 .39-.128.71-.384.96-.255.248-.579.373-.969.373ZM119.014 19c-1.462 0-2.648-.482-3.555-1.444-.908-.963-1.362-2.133-1.362-3.51 0-1.377.454-2.55 1.362-3.518.907-.969 2.092-1.454 3.555-1.454 1.474 0 2.665.485 3.573 1.454.907.968 1.361 2.14 1.361 3.518 0 1.377-.454 2.546-1.361 3.51-.908.963-2.099 1.444-3.573 1.444Zm-2.742-4.953c0 .901.259 1.632.777 2.194.518.561 1.172.84 1.965.84.804 0 1.465-.28 1.983-.84.518-.56.776-1.291.776-2.194 0-.914-.258-1.651-.776-2.211-.518-.56-1.179-.84-1.983-.84-.792 0-1.447.28-1.965.84-.518.56-.777 1.297-.777 2.211Z" fill="currentColor"/>
  </symbol>
</svg>
  