<svg width="52" height="20" viewBox="0 0 52 20" fill="none" xmlns="http://www.w3.org/2000/svg">
  <symbol id="item" viewBox="0 0 52 20"  fill="none">
    <path d="M4.057 8.998c0 .85 1.075 1.506 3.226 1.93 1.574.348 2.727.85 3.456 1.507.73.656 1.076 1.583 1.076 2.703 0 1.313-.5 2.394-1.46 3.283-.96.85-2.266 1.274-3.917 1.274-1.575 0-2.88-.386-3.918-1.158a6.902 6.902 0 0 1-2.304-2.935l2.765-1.777c.308.888.768 1.622 1.345 2.163.576.54 1.305.81 2.15.81.576 0 1.076-.115 1.498-.385.423-.27.653-.657.653-1.12 0-.425-.23-.811-.691-1.043-.461-.27-1.19-.502-2.228-.695-3.15-.618-4.724-2.047-4.724-4.287 0-1.235.5-2.2 1.498-2.896.999-.695 2.19-1.043 3.61-1.043 1.46 0 2.612.27 3.457.811.845.54 1.574 1.43 2.15 2.626l-2.496 1.506C8.589 8.69 7.552 7.878 6.131 7.878c-1.383-.077-2.074.309-2.074 1.12Zm8.987 10.31V0H16.5v7.299c1.076-1.39 2.573-2.086 4.455-2.086 1.882 0 3.418.657 4.647 1.931 1.23 1.313 1.844 3.051 1.844 5.291 0 2.201-.615 3.978-1.882 5.252-1.267 1.313-2.804 1.97-4.647 1.97-1.92 0-3.418-.696-4.417-2.086v1.7h-3.456v.038Zm4.34-3.938c.73.734 1.65 1.12 2.765 1.12 1.113 0 2.035-.386 2.765-1.12.73-.734 1.075-1.7 1.075-2.858 0-1.158-.345-2.124-1.075-2.858-.73-.733-1.652-1.12-2.765-1.12-1.114 0-2.036.387-2.765 1.12-.73.734-1.076 1.7-1.076 2.858 0 1.12.346 2.086 1.076 2.858Zm15.144 3.939V5.639h3.457v13.67h-3.457ZM49.772 7.183C51.27 8.457 52 10.233 52 12.473s-.73 4.017-2.19 5.291c-1.459 1.275-3.225 1.931-5.222 1.931-1.998 0-3.764-.656-5.224-1.93-1.459-1.275-2.189-3.052-2.189-5.292 0-2.24.73-4.016 2.19-5.29 1.459-1.275 3.225-1.931 5.223-1.931 1.997 0 3.687.656 5.184 1.93Zm-7.988 8.187c.768.734 1.69 1.081 2.765 1.081 1.076 0 1.997-.347 2.766-1.081.768-.734 1.152-1.7 1.152-2.896 0-1.198-.384-2.163-1.152-2.897-.769-.734-1.69-1.081-2.766-1.081-1.075 0-1.997.347-2.765 1.081s-1.152 1.7-1.152 2.896c0 1.198.384 2.163 1.152 2.897Z" fill="currentColor"/><path d="M32.333 1.856c0 1.044.846 1.857 1.846 1.857s1.846-.813 1.846-1.857A1.852 1.852 0 0 0 34.179 0a1.828 1.828 0 0 0-1.846 1.856Z" fill="#49B356"/><circle cx="29.352" cy="17.496" r="1.867" fill="currentColor"/>
  </symbol>
</svg>
  