<svg width="112" height="24" viewBox="0 0 112 24" fill="none" xmlns="http://www.w3.org/2000/svg">
  <symbol id="item" viewBox="0 0 112 24"  fill="none">
    <path d="M12.429 24C18.819 24 24 18.82 24 12.429S18.82.857 12.429.857.857 6.037.857 12.43C.857 18.819 6.037 24 12.43 24Z" fill="#F93"/><path d="M6.429 12.857A6.429 6.429 0 1 0 6.429 0a6.429 6.429 0 0 0 0 12.857Z" fill="#49B356"/><path d="M32 20.073h6.463c3.51 0 5.197-1.843 5.197-4.353 0-2.088-1.155-3.509-3.176-3.998v-.044c1.71-.666 2.377-2.11 2.377-3.531 0-2.51-1.822-3.843-5.175-3.843H32v15.77Zm3.087-9.328V7.058h2.221c1.71 0 2.399.733 2.399 1.844 0 1.288-.91 1.843-2.266 1.843h-2.354Zm0 6.574v-4.042h2.62c1.8 0 2.71.8 2.71 2.043 0 1.333-.91 2-2.398 2h-2.932ZM55.2 14.543c0-3.176-2.132-5.486-5.197-5.486-3.22 0-5.508 2.266-5.508 5.575 0 3.398 2.355 5.641 5.686 5.641 2.42 0 3.82-.888 4.73-2.065l-1.887-1.755c-.578.71-1.422 1.222-2.643 1.222-1.466 0-2.51-.778-2.865-2.088h7.618c.022-.178.066-.689.066-1.044Zm-5.219-2.954c1.266 0 2.044.755 2.332 1.91h-4.775c.333-1.244 1.266-1.91 2.443-1.91ZM59.923 20.273c1.466 0 2.177-.31 2.865-.688l-.733-2.332c-.488.244-1.021.377-1.377.377-.688 0-.932-.444-.932-1.399v-4.598h2.931v-2.42h-2.931V5.37l-2.91.311v3.532h-1.288v2.42h1.288v5.02c0 2.443 1.222 3.62 3.087 3.62ZM67.934 20.273c1.421 0 2.51-.533 3.265-1.51l.044.022v1.288h2.776V9.213h-2.91v1.243l-.044.023c-.777-.933-1.932-1.422-3.198-1.422-2.91 0-5.108 2.332-5.108 5.62 0 3.353 2.199 5.596 5.175 5.596Zm.555-2.62c-1.643 0-2.776-1.222-2.776-2.954 0-1.866 1.2-3.043 2.776-3.043 1.555 0 2.754 1.288 2.754 3.042 0 1.777-1.266 2.954-2.754 2.954ZM80.472 20.273c1.466 0 2.598-.555 3.353-1.532h.023v1.332h2.776V3.727h-2.887v6.752h-.045c-.8-.933-1.954-1.422-3.287-1.422-2.91 0-5.13 2.332-5.13 5.62 0 3.353 2.198 5.596 5.197 5.596Zm.533-2.62c-1.622 0-2.776-1.222-2.776-2.954 0-1.866 1.221-3.043 2.776-3.043 1.666 0 2.843 1.288 2.843 3.042 0 1.777-1.244 2.954-2.843 2.954ZM93.204 20.273c1.466 0 2.599-.555 3.354-1.532h.022v1.332h2.776V3.727H96.47v6.752h-.044c-.8-.933-1.955-1.422-3.287-1.422-2.91 0-5.13 2.332-5.13 5.62 0 3.353 2.198 5.596 5.196 5.596Zm.533-2.62c-1.621 0-2.776-1.222-2.776-2.954 0-1.866 1.222-3.043 2.776-3.043 1.666 0 2.843 1.288 2.843 3.042 0 1.777-1.244 2.954-2.843 2.954ZM105.914 20.273c1.422 0 2.51-.533 3.265-1.51l.045.022v1.288H112V9.213h-2.91v1.243l-.044.023c-.777-.933-1.932-1.422-3.198-1.422-2.91 0-5.108 2.332-5.108 5.62 0 3.353 2.198 5.596 5.174 5.596Zm.556-2.62c-1.644 0-2.777-1.222-2.777-2.954 0-1.866 1.2-3.043 2.777-3.043 1.554 0 2.754 1.288 2.754 3.042 0 1.777-1.266 2.954-2.754 2.954Z" fill="currentColor"/>
  </symbol>
</svg>
  