
<svg width="1em" height="auto"    viewBox="0 0 89 20" fill="none" xmlns="http://www.w3.org/2000/svg">
<symbol id="item"
width="1em"
height="auto"
viewBox="0 0 89 20"
fill="none"
>
<path fill-rule="evenodd" clip-rule="evenodd" d="M5.895 19.742v-11.9c.75-1.39 2.402-2.479 3.942-2.479 2.064 0 3.116 1.277 3.116 3.867v10.512h5.293V7.916c.713-1.464 2.29-2.553 3.904-2.553 2.065 0 3.116 1.277 3.116 3.867v10.512h5.293V8.029C30.56 3.11 27.894.52 23.877.52c-2.703 0-5.218 1.351-6.457 3.19C16.63 1.948 14.417.522 11.6.522c-2.403 0-4.317.938-5.706 2.778v-2.29H.602v18.733h5.293Zm68.67-11.938c.901-1.39 2.59-2.44 4.242-2.44 1.953 0 3.567 1.088 3.567 3.979v10.399h5.293V8.254c0-4.805-2.478-7.733-6.832-7.733-2.516 0-4.58.9-6.27 2.74V1.01h-5.293v18.733h5.293V7.804ZM54.11 10.166A9.576 9.576 0 1 1 44.534.59a9.576 9.576 0 0 1 9.575 9.576Zm6.417-3.086a3.245 3.245 0 1 0 0-6.49 3.245 3.245 0 0 0 0 6.49Z" fill="currentColor"/>
</symbol>
</svg>
  