<svg width="191" height="31" viewBox="0 0 191 31" fill="none" xmlns="http://www.w3.org/2000/svg">
  <symbol id="item" viewBox="0 0 191 31"  fill="none">
    <path d="M0 24.404h4.335v-8.032c0-2.912 1.457-4.468 3.41-4.468 1.985 0 2.845 1.622 2.845 4.203v8.297h4.336v-8.032c0-2.912 1.489-4.468 3.31-4.468 2.018 0 2.812 1.622 2.812 4.203v8.297h4.336v-9.322c0-4.965-2.218-7.05-5.693-7.05-2.316 0-4.335.86-5.659 2.549h-.066c-.96-1.754-2.648-2.549-4.766-2.549-1.787 0-3.54.795-4.831 2.35h-.034V8.264H0v16.14ZM93.394 24.447h4.336V16.34c0-2.912 1.456-4.435 3.64-4.435 2.019 0 3.111.96 3.111 4.038v8.505h4.335V14.85c0-4.964-2.415-6.818-5.857-6.818-2.019 0-3.872.795-5.163 2.317h-.066V8.264h-4.336v16.183ZM125.923 16.207c0-4.733-3.177-8.175-7.744-8.175-4.799 0-8.208 3.376-8.208 8.307 0 5.064 3.508 8.406 8.472 8.406 3.608 0 5.693-1.324 7.05-3.078l-2.814-2.614c-.86 1.059-2.118 1.82-3.938 1.82-2.184 0-3.74-1.158-4.269-3.11h11.352a16.03 16.03 0 0 0 .099-1.556Zm-7.778-4.402c1.887 0 3.045 1.125 3.475 2.846h-7.115c.497-1.853 1.886-2.846 3.64-2.846Z" fill="currentColor"/><path d="M128.381 31h4.401l8.704-22.736h-4.401l-3.674 9.928h-.066l-3.938-9.928h-4.633l6.486 15.19L128.381 31ZM151.32 24.745c4.501 0 7.777-3.342 7.777-8.34 0-4.898-3.276-8.373-7.645-8.373-1.985 0-3.673.695-4.898 2.085h-.033V.09h-4.335v24.357h4.103v-1.952l.067-.033c1.158 1.489 2.78 2.283 4.964 2.283Zm-.761-3.905c-2.383 0-4.237-1.754-4.237-4.402 0-2.614 1.721-4.534 4.204-4.534 2.316 0 4.169 1.754 4.169 4.534 0 2.582-1.72 4.402-4.136 4.402ZM167.313 24.745c2.118 0 3.74-.794 4.865-2.25l.066.033v1.92h4.137V8.263h-4.335v1.853l-.067.033c-1.158-1.39-2.879-2.118-4.765-2.118-4.336 0-7.612 3.475-7.612 8.373 0 4.998 3.276 8.34 7.711 8.34Zm.827-3.905c-2.449 0-4.136-1.82-4.136-4.402 0-2.78 1.787-4.534 4.136-4.534 2.317 0 4.104 1.92 4.104 4.534 0 2.648-1.886 4.402-4.104 4.402ZM178.715 24.447h4.335V0h-4.335v24.447ZM185.778 24.447h4.336V0h-4.336v24.447Z" fill="currentColor"/><path fill-rule="evenodd" clip-rule="evenodd" d="M82.168 12.007H36.57a4.236 4.236 0 0 0 0 8.472h45.597a4.236 4.236 0 0 0 0-8.472ZM36.57 8.032a8.21 8.21 0 1 0 0 16.421h45.597a8.21 8.21 0 0 0 0-16.42H36.57Z" fill="#EF3124"/>
  </symbol>
</svg>
  