<svg width="34" height="24" viewBox="0 0 34 24" fill="none" xmlns="http://www.w3.org/2000/svg">
  <symbol id="item" viewBox="0 0 34 24"  fill="none">
    <g clip-path="url(#a)"><path fill-rule="evenodd" clip-rule="evenodd" d="M3.429 0H30.57A3.429 3.429 0 0 1 34 3.429V20.57A3.429 3.429 0 0 1 30.571 24H3.43A3.429 3.429 0 0 1 0 20.571V3.43A3.429 3.429 0 0 1 3.429 0ZM5.43 12.856c0 .523.178.94.535 1.25.357.311.813.467 1.37.467.563 0 1.02-.156 1.377-.466.356-.311.535-.728.535-1.25V9.528h-.985v3.25c0 .515-.292.84-.927.84s-.928-.325-.928-.84v-3.25H5.43v3.327Zm8.004-2.395V9.53H9.76v.932h1.341v4.013h.985V10.46h1.348Zm3.774 2.706c-.307.304-.692.452-1.148.452-.457 0-.842-.148-1.149-.452-.307-.304-.464-.692-.464-1.166 0-.473.157-.862.464-1.165.307-.304.692-.46 1.149-.46a1.574 1.574 0 0 1 1.612 1.625c0 .474-.157.862-.464 1.166Zm-2.989.664c.507.495 1.12.742 1.84.742.721 0 1.335-.248 1.841-.742a2.47 2.47 0 0 0 .756-1.83c0-.72-.25-1.328-.756-1.822a2.516 2.516 0 0 0-1.84-.749c-.72 0-1.334.247-1.84.749-.5.494-.75 1.102-.75 1.822 0 .721.25 1.328.75 1.83Zm6.114-1.929V10.44h1.013c.371 0 .678.325.678.728 0 .402-.307.734-.678.734h-1.013Zm.75.855 1.005 1.717h1.063l-1.106-1.865c.578-.261.963-.827.963-1.441 0-.452-.164-.84-.485-1.159a1.612 1.612 0 0 0-1.177-.48H19.35v4.945h.984v-1.717h.75Zm7.49-.558v-.381h-2.504v.862h1.512c-.178.586-.692.94-1.455.94-.514 0-.928-.15-1.241-.453-.307-.304-.464-.692-.464-1.159 0-.473.15-.861.457-1.165.306-.311.699-.466 1.177-.466.592 0 1.105.282 1.341.685l.842-.48c-.428-.7-1.242-1.152-2.176-1.152-.742 0-1.363.247-1.87.749-.499.501-.748 1.109-.748 1.83 0 .713.25 1.32.756 1.822.506.495 1.148.742 1.919.742.72 0 1.312-.22 1.769-.657.456-.438.685-1.01.685-1.717Z" fill="currentColor"/></g><defs><clipPath id="a"><path fill="currentColor" d="M0 0h34v24H0z"/></clipPath></defs>
  </symbol>
</svg>
  