
<svg width="1em" height="auto"    viewBox="0 0 124 34" fill="none" xmlns="http://www.w3.org/2000/svg">
<symbol id="item"
width="1em"
height="auto"
viewBox="0 0 124 34"
fill="none"
>
<path d="M47.655 13.093c-2.47-2.728-5.552-4.075-9.274-4.075-3.337 0-6.226 1.059-8.568 3.177-2.632 2.374-3.948 5.423-3.948 9.05 0 3.144 1.027 5.872 3.081 8.118 2.471 2.728 5.552 4.076 9.37 4.076 3.274 0 6.066-1.06 8.409-3.177 2.663-2.407 3.979-5.36 3.979-8.857 0-3.274-1.027-6.066-3.049-8.312Z" fill="#FC3586"/><path d="M89.053 30.583c0 1.669-1.348 2.984-3.017 2.984-1.668 0-2.984-1.348-2.984-3.016 0-.803.32-1.476.898-2.086a2.86 2.86 0 0 1 2.086-.867c1.669.032 3.017 1.348 3.017 2.985Z" fill="#00E8E8"/><path d="M97.364 9.499v23.49H92.84V10.88l4.524-1.38Z" fill="#6300FF"/><path d="M120.823 12.804c2.118 2.343 3.177 5.135 3.177 8.408 0 3.82-1.38 6.9-4.076 9.37-2.246 2.055-4.974 3.082-8.119 3.082-3.658 0-6.675-1.316-9.049-3.948-2.118-2.342-3.177-5.23-3.177-8.568 0-3.69 1.38-6.803 4.075-9.274 2.247-2.054 5.039-3.049 8.344-3.049 3.466 0 6.418 1.316 8.825 3.98Zm-12.997 1.22c-2.471 1.476-3.69 3.85-3.69 7.188 0 2.76.866 4.91 2.599 6.45 1.412 1.284 3.113 1.894 5.07 1.894 2.247 0 4.108-.802 5.584-2.407 1.38-1.476 2.054-3.466 2.054-5.969 0-2.728-.866-4.814-2.567-6.354-1.412-1.284-3.113-1.893-5.135-1.893-1.444 0-2.76.353-3.915 1.09Z" fill="currentColor"/><path d="M98.167 3.049c0 .834-.29 1.54-.867 2.118-.577.61-1.316.898-2.182.898-1.733 0-3.08-1.348-3.08-3.08 0-.835.32-1.54.898-2.119C93.513.29 94.252 0 95.086 0c1.733 0 3.08 1.348 3.08 3.049Z" fill="#FFA300"/><path d="m19.255 3.915-.097.064v29.01h4.525V2.536l-4.428 1.38ZM11.489 19.736l-2.247-.866c-1.636-.61-2.631-1.091-3.08-1.509-.45-.353-.642-.93-.642-1.668 0-1.67 1.38-2.857 3.401-2.857 1.316 0 2.471.642 3.498 1.926l4.012-1.252c-1.701-3.112-4.172-4.685-7.381-4.685-2.15 0-3.98.674-5.52 1.99-1.508 1.283-2.246 2.952-2.246 5.006 0 2.824 1.668 4.878 4.974 6.13l2.47.962c1.541.578 2.568 1.091 3.05 1.54.449.418.705.995.705 1.765 0 .835-.288 1.573-.866 2.247-.642.77-1.605 1.155-2.888 1.155-2.022 0-3.241-.93-4.621-3.594L.16 27.277c1.637 4.3 4.493 6.45 8.473 6.45 2.31 0 4.268-.705 5.84-2.117 1.669-1.476 2.503-3.338 2.503-5.552-.032-2.952-1.636-4.846-5.487-6.322Z" fill="currentColor"/><path d="M6.001 10.27c0 1.668-1.348 2.984-3.017 2.984C1.316 13.254 0 11.906 0 10.237c0-.802.32-1.476.899-2.086a2.86 2.86 0 0 1 2.085-.866c1.67 0 3.017 1.315 3.017 2.984Z" fill="#F7CD00"/><path d="M60.877 29.524c-.61 0-1.06-.064-1.444-.193-.032 0-.065-.032-.097-.032-.385-.128-.738-.257-1.155-.738-.706-.834-.578-3.049-.578-3.466l-.064-8.921v-2.632l-.096-1.668v-.385l.128-1.99V2.696l-4.524 1.412v5.359l-.032 2.407.032 1.668-.032 12.002v.739c0 2.695.577 4.075 1.7 5.295 1.06 1.155 3.177 1.925 4.91 2.021h.29a4.3 4.3 0 0 0 .64.033l4.109-4.108h-3.787Z" fill="currentColor"/><path d="m75.382 19.736-2.246-.866c-1.637-.61-2.632-1.091-3.081-1.509-.45-.353-.642-.93-.642-1.668 0-1.67 1.38-2.857 3.402-2.857 1.315 0 2.47.642 3.498 1.894l4.011-1.252c-1.7-3.113-4.172-4.653-7.38-4.653-2.151 0-3.98.674-5.52 1.99-1.509 1.283-2.247 2.952-2.247 5.006 0 2.824 1.669 4.878 4.974 6.13l2.471.962c1.54.578 2.567 1.091 3.049 1.54.45.418.706.995.706 1.765 0 .835-.289 1.573-.867 2.247-.642.77-1.604 1.155-2.888 1.155l-4.14-.032-4.107 4.108h4.653c.738.032 1.476 0 2.246 0h1.284c2.31 0 4.268-.706 5.84-2.118 1.67-1.476 2.504-3.338 2.504-5.552-.032-2.92-1.67-4.814-5.52-6.29Z" fill="currentColor"/><path d="M61.455 9.435h-11.2v4.204h11.2V9.435Z" fill="#00F490"/>
</symbol>
</svg>
  