
<svg width="1em" height="1em"    viewBox="0 0 20 30" fill="none" xmlns="http://www.w3.org/2000/svg">
<symbol id="item"
width="1em"
height="1em"
viewBox="0 0 20 30"
fill="none"
>
<path d="m13.082 14.168-2.538-1.015c-1.86-.677-2.988-1.24-3.496-1.692-.508-.394-.733-1.07-.733-1.917 0-1.917 1.579-3.27 3.89-3.27 1.523 0 2.82.733 4.005 2.199l4.567-1.41c-1.917-3.552-4.737-5.357-8.402-5.357-2.425 0-4.511.79-6.316 2.256-1.691 1.466-2.537 3.383-2.537 5.695 0 3.214 1.917 5.583 5.695 6.992l2.82 1.072c1.748.676 2.932 1.24 3.496 1.748.507.45.79 1.128.79 2.03 0 .959-.34 1.804-1.016 2.537-.733.903-1.804 1.297-3.27 1.297-2.312 0-3.666-1.071-5.245-4.116l-4.51 1.41c1.86 4.905 5.13 7.33 9.642 7.33 2.65 0 4.85-.79 6.654-2.425 1.917-1.691 2.876-3.778 2.876-6.315-.113-3.214-1.974-5.357-6.372-7.049Z" fill="currentColor"/><path d="M6.823 3.397c0 1.917-1.522 3.383-3.44 3.383C1.466 6.78 0 5.258 0 3.34 0 2.438.338 1.65 1.015.972 1.692.295 2.481-.043 3.383-.043a3.418 3.418 0 0 1 3.44 3.44Z" fill="#F7CD00"/>
</symbol>
</svg>
  