<svg width="32" height="32" viewBox="0 0 32 32" fill="none" xmlns="http://www.w3.org/2000/svg">
  <symbol id="item" viewBox="0 0 32 32"  fill="none">
    <path d="M17.707 26.306h-.29c-.869 0-1.593-.724-1.593-1.594 0-.869.725-1.593 1.594-1.593h.29a6.852 6.852 0 0 0 6.857-6.857c0-3.767-3.09-6.857-6.858-6.857h-.29c-.869 0-1.593-.725-1.593-1.594 0-.87.725-1.593 1.594-1.593h.29c5.553 0 10.092 4.539 10.092 10.092 0 5.553-4.54 9.996-10.093 9.996Z" fill="url(#a)"/><path d="M10.223 11.481h1.352c.676 0 1.207-.531 1.207-1.207V8.922c0-.676-.531-1.208-1.207-1.208h-1.352c-.677 0-1.208.532-1.208 1.208v1.352c0 .628.531 1.207 1.207 1.207ZM15.1 7.183h1.159a.99.99 0 0 1 1.014 1.014v1.16a.99.99 0 0 1-1.014 1.013h-1.16a.99.99 0 0 1-1.013-1.014V8.197A.99.99 0 0 1 15.1 7.183Z" fill="#2BD7F1"/><path d="M12.782 9.55h1.159a.99.99 0 0 0 1.014-1.015V7.376a.99.99 0 0 0-1.014-1.014h-1.16a.99.99 0 0 0-1.013 1.014v1.16a.99.99 0 0 0 1.014 1.013Z" fill="#0084FC"/><path d="M8.436 12.882h1.159a.99.99 0 0 0 1.014-1.015v-1.159a.99.99 0 0 0-1.014-1.014h-1.16a.99.99 0 0 0-1.013 1.014v1.16a.99.99 0 0 0 1.014 1.014Z" fill="#3B60B8"/><path d="M12.782 22.733h1.159a.99.99 0 0 1 1.014 1.014v1.159a.99.99 0 0 1-1.014 1.014h-1.16a.99.99 0 0 1-1.013-1.014v-1.16a.99.99 0 0 1 1.014-1.013ZM6.021 16.745h.725a.64.64 0 0 1 .627.627v.725a.64.64 0 0 1-.627.627H6.02a.64.64 0 0 1-.627-.627v-.725a.64.64 0 0 1 .627-.627Z" fill="#FF9B03"/><path d="M8.87 13.557h.725a.64.64 0 0 1 .627.628v.725a.64.64 0 0 1-.627.627H8.87a.64.64 0 0 1-.627-.627v-.725a.64.64 0 0 1 .627-.628Z" fill="#31B5FF"/><path d="M10.223 24.616h1.352c.676 0 1.207-.531 1.207-1.207v-1.352c0-.676-.531-1.208-1.207-1.208h-1.352c-.677 0-1.208.532-1.208 1.207v1.353c0 .676.531 1.207 1.207 1.207Z" fill="#DB0000"/><path d="M8.436 19.4h1.159a.99.99 0 0 1 1.014 1.015v1.159a.99.99 0 0 1-1.014 1.014h-1.16a.99.99 0 0 1-1.013-1.014v-1.16a1.02 1.02 0 0 1 1.014-1.013ZM15.1 21.815h1.159a.99.99 0 0 1 1.014 1.014v1.16a.99.99 0 0 1-1.014 1.013h-1.16a.99.99 0 0 1-1.013-1.014V22.83a.99.99 0 0 1 1.014-1.014Z" fill="#F7DD00"/><path d="M7.229 17.759h1.159a.99.99 0 0 0 1.014-1.014v-1.16a.99.99 0 0 0-1.014-1.013h-1.16a.99.99 0 0 0-1.014 1.014v1.159a1.02 1.02 0 0 0 1.015 1.014Z" fill="#9E2546"/><path d="M16.983 6.7h.58c.29 0 .483.242.483.483v.58c0 .29-.242.483-.483.483h-.58a.484.484 0 0 1-.483-.483v-.58c0-.241.193-.483.483-.483Z" fill="#3B60B8"/><path d="M7.76 6.556h.58c.289 0 .482.241.482.482v.58c0 .29-.241.483-.483.483h-.58a.484.484 0 0 1-.482-.483v-.58c0-.241.241-.482.483-.482Z" fill="#31B5FF"/><path d="M7.76 24.036h.58c.289 0 .482.242.482.483v.58c0 .29-.241.483-.483.483h-.58a.484.484 0 0 1-.482-.483v-.58c0-.241.241-.483.483-.483Z" fill="#F44545"/><path d="M16.983 24.085h.58c.29 0 .483.241.483.483v.58c0 .289-.242.482-.483.482h-.58a.484.484 0 0 1-.483-.483v-.58c0-.24.193-.482.483-.482Z" fill="#DB0000"/><path d="M15.486 6.556a.628.628 0 1 0 0-1.256.628.628 0 0 0 0 1.256Z" fill="#31B5FF"/><path d="M9.16 19.063a.628.628 0 1 0 0-1.256.628.628 0 0 0 0 1.256Z" fill="#F44545"/><path d="M6.456 15.344a1.014 1.014 0 1 0 0-2.028 1.014 1.014 0 0 0 0 2.028Z" fill="#F7DD00"/><path d="M15.486 26.886a.628.628 0 1 0 0-1.256.628.628 0 0 0 0 1.256Z" fill="#FFCC2B"/><path d="M7.422 21.622a.64.64 0 0 0 .628-.628.64.64 0 0 0-.628-.628.64.64 0 0 0-.628.628c-.048.338.241.628.628.628Z" fill="#F44545"/><path d="M4.428 20.608a.64.64 0 0 0 .628-.628.64.64 0 0 0-.628-.628.64.64 0 0 0-.628.628c0 .338.29.628.628.628Z" fill="#0084FC"/><path d="M7.035 11.916a.64.64 0 0 0 .628-.628.64.64 0 0 0-.628-.628.64.64 0 0 0-.627.628c0 .338.29.628.627.628Z" fill="#2BD7F1"/><path d="M10.27 6.459a.484.484 0 0 0 0-.966.484.484 0 0 0-.482.483c.048.29.242.483.483.483Z" fill="#DB0000"/><path d="M4.428 12.93a.484.484 0 0 0 0-.966.484.484 0 0 0-.483.483c.048.241.241.483.483.483Z" fill="#9E2546"/><path d="M10.27 26.644a.484.484 0 0 0 0-.966.484.484 0 0 0-.482.483c.048.242.242.483.483.483Z" fill="#F7DD00"/><path d="M6.746 9.646a.484.484 0 0 0 0-.966.484.484 0 0 0-.483.483c.048.29.241.483.483.483Z" fill="#FF9B03"/><path d="M6.746 23.264a.484.484 0 0 0 0-.966.484.484 0 0 0-.483.483c.048.241.241.483.483.483Z" fill="#DB0000"/><defs><linearGradient id="a" x1="19.919" y1="5.042" x2="22.704" y2="27.238" gradientUnits="userSpaceOnUse"><stop stop-color="#0084FC"/><stop offset=".219" stop-color="#4759AA"/><stop offset=".422" stop-color="#97284E"/><stop offset=".598" stop-color="#DF1200"/><stop offset=".782" stop-color="#FA8602"/><stop offset="1" stop-color="#FFCC2B"/></linearGradient></defs>
  </symbol>
</svg>
  