<svg width="74" height="32" viewBox="0 0 74 32" fill="none" xmlns="http://www.w3.org/2000/svg">
  <symbol id="item" viewBox="0 0 74 32"  fill="none">
    <g clip-path="url(#a)"><path d="M62.039 6.555s-5.2 3.24-10.802 4.081c0 0 2.109 12.904 2.953 14.159C55.034 26.05 60.783 32 62.05 32c1.269 0 7.001-5.942 7.85-7.205.848-1.263 2.952-14.139 2.952-14.139-5.6-.84-10.801-4.08-10.801-4.08" fill="#F5EB28"/><path d="M62.039 6.555s-5.2 3.24-10.802 4.081c0 0 2.109 12.904 2.953 14.159C55.034 26.05 60.783 32 62.05 32" fill="#D9D226"/><path d="M62.039 29.454a48.247 48.247 0 0 1-5.9-5.835c-.437-1.087-1.445-6.232-2.297-11.19a36.299 36.299 0 0 0 8.197-3.247 36.263 36.263 0 0 0 8.213 3.247c-.848 4.958-1.86 10.103-2.297 11.19a48.171 48.171 0 0 1-5.896 5.835" fill="#005E4C"/><path d="m62.039 0 .524 1.32 1.424.09-1.1.91.356 1.374-1.204-.761-1.208.761.356-1.375-1.1-.908 1.424-.092L62.039 0ZM72.564 4.332l.388.976L74 5.376l-.808.665.26 1.017-.888-.562-.888.562.26-1.017-.812-.665 1.052-.068.388-.976ZM51.225 4.332l.389.976 1.048.068-.808.665.26 1.017-.889-.562-.892.562.264-1.017-.812-.665 1.052-.068.388-.976ZM5.337 22.54l-.272-.997a4.08 4.08 0 0 1-1.22.92c-.43.203-.901.305-1.377.3a2.81 2.81 0 0 1-.936-.152 2.338 2.338 0 0 1-.8-.438 2.016 2.016 0 0 1-.536-.701c-.134-.29-.2-.606-.196-.925 0-1.419.974-2.366 2.92-2.841l1.889-.455v-.239a1.554 1.554 0 0 0-.292-.98 1.085 1.085 0 0 0-.916-.37 3.125 3.125 0 0 0-1.028.167 2.801 2.801 0 0 0-.925.558L.244 15.215a6.097 6.097 0 0 1 1.628-.948 5.746 5.746 0 0 1 1.973-.303c.476-.013.95.074 1.392.255.363.152.685.386.94.685.247.295.433.636.544 1.004.122.396.182.807.18 1.22v3.806l.184 1.594-1.748.012Zm-.508-3.985-1.444.398c-.374.08-.717.265-.989.534-.196.22-.304.503-.304.797a.854.854 0 0 0 .236.626.91.91 0 0 0 .665.235c.255-.004.507-.061.74-.168.288-.139.55-.328.772-.558l.324-.306v-1.558ZM16.73 18.363a6.92 6.92 0 0 1-.212 1.777 4.58 4.58 0 0 1-.6 1.395c-.244.37-.57.68-.952.905-.382.217-.816.329-1.256.323a2.377 2.377 0 0 1-1.105-.263 3.563 3.563 0 0 1-.968-.754v5.46l-2.108.745V14.183h1.6l.272 1a4.618 4.618 0 0 1 1.176-.94 2.81 2.81 0 0 1 1.3-.295 2.28 2.28 0 0 1 1.2.33c.37.232.678.548.9.921.26.432.446.903.553 1.395.134.58.201 1.174.2 1.77Zm-2.104 0c0-1.77-.432-2.658-1.292-2.658a1.472 1.472 0 0 0-.8.255c-.335.227-.64.495-.909.797v3.188c.249.3.534.567.848.797.229.161.5.249.78.251a1.107 1.107 0 0 0 1.005-.665 4.37 4.37 0 0 0 .388-1.965h-.02ZM25.699 18.363c0 .601-.085 1.2-.252 1.777a4.01 4.01 0 0 1-.716 1.395 3.23 3.23 0 0 1-1.2.905 4.451 4.451 0 0 1-3.329 0 3.23 3.23 0 0 1-1.2-.905 3.934 3.934 0 0 1-.712-1.395 6.262 6.262 0 0 1-.24-1.777 6.184 6.184 0 0 1 .24-1.77c.155-.508.413-.98.756-1.386a3.25 3.25 0 0 1 1.2-.913 4.35 4.35 0 0 1 3.329 0 3.25 3.25 0 0 1 1.2.913c.312.415.54.886.672 1.387.167.575.252 1.17.252 1.77Zm-2.104 0a4.07 4.07 0 0 0-.4-2.116 1.599 1.599 0 0 0-1.283-.64 1.606 1.606 0 0 0-1.282.64c-.28.43-.4 1.136-.4 2.116 0 .98.136 1.686.4 2.116a1.599 1.599 0 0 0 1.282.64 1.606 1.606 0 0 0 1.283-.64c.32-.657.459-1.388.4-2.116ZM33.632 20.308a2.108 2.108 0 0 1-.9 1.785 3.984 3.984 0 0 1-2.429.67 4.463 4.463 0 0 1-2-.435 3.77 3.77 0 0 1-1.4-1.155l1.528-1.052c.212.315.5.572.84.745.324.168.683.255 1.048.255a1.67 1.67 0 0 0 .956-.24.695.695 0 0 0 .348-.589.712.712 0 0 0-.176-.47 1.637 1.637 0 0 0-.636-.399l-1.392-.506a3.856 3.856 0 0 1-1.648-1.024 2.298 2.298 0 0 1-.528-1.546 2.182 2.182 0 0 1 .792-1.67c.28-.23.602-.405.948-.514a4.19 4.19 0 0 1 1.308-.187 3.956 3.956 0 0 1 3.229 1.422L31.99 16.43a2.119 2.119 0 0 0-1.68-.864 1.228 1.228 0 0 0-.8.21.694.694 0 0 0-.252.55.74.74 0 0 0 .16.467c.143.163.328.284.536.347l1.408.506a3.77 3.77 0 0 1 1.764 1.108 2.5 2.5 0 0 1 .505 1.554ZM39.592 22.667c-.348.067-.701.1-1.056.096a2.41 2.41 0 0 1-1.788-.594 2.23 2.23 0 0 1-.588-1.642v-4.599h-1.476v-1.745h1.476v-2.164l2.108-.73v2.894h2.24l-.424 1.745h-1.816v4.464c0 .43.224.645.676.645.193-.004.384-.027.572-.068.222-.047.44-.11.652-.187l.372 1.594c-.307.123-.624.22-.948.291ZM46.961 22.54l-.272-.997c-.34.379-.746.69-1.2.92-.43.202-.901.304-1.376.3a2.811 2.811 0 0 1-.936-.156 2.402 2.402 0 0 1-.8-.438 2.065 2.065 0 0 1-.529-.701 2.188 2.188 0 0 1-.195-.925c0-1.419.974-2.366 2.924-2.841l1.884-.455v-.239a1.554 1.554 0 0 0-.288-.98 1.095 1.095 0 0 0-.92-.37 3.102 3.102 0 0 0-1.024.167 2.803 2.803 0 0 0-.928.558l-1.409-1.168a6.223 6.223 0 0 1 1.629-.948 5.746 5.746 0 0 1 1.972-.303c.477-.014.951.073 1.392.255.364.152.688.386.944.685.247.295.43.637.54 1.004.122.396.183.807.18 1.22v3.806l.188 1.594-1.776.012Zm-.508-3.985-1.444.398a2.004 2.004 0 0 0-.984.534c-.2.217-.31.502-.308.797a.845.845 0 0 0 .24.626.904.904 0 0 0 .66.235 1.84 1.84 0 0 0 .74-.168c.289-.138.55-.327.772-.558l.324-.306v-1.558Z" fill="currentColor"/><path d="M62.039 29.454a48.247 48.247 0 0 1-5.9-5.835c-.437-1.087-1.445-6.232-2.297-11.19a36.299 36.299 0 0 0 8.197-3.247" fill="#005847"/><path d="M59.85 22.54h-2.364v-6.624h-.944v-2.072h3.309v8.696ZM67.791 18.228a5.371 5.371 0 0 1-.8 3.136 2.542 2.542 0 0 1-2.192 1.16 2.727 2.727 0 0 1-2.332-1.168c-.56-.797-.84-1.865-.84-3.26-.06-1.105.234-2.2.84-3.128a2.675 2.675 0 0 1 2.276-1.156 2.594 2.594 0 0 1 2.256 1.172c.531.791.795 1.873.792 3.244Zm-2.34 0c0-1.541-.255-2.312-.764-2.312-.51 0-.763.69-.76 2.069 0 1.647.247 2.47.74 2.47.268 0 .468-.183.592-.542a5.402 5.402 0 0 0 .192-1.685Z" fill="currentColor"/></g><defs><clipPath id="a"><path fill="currentColor" d="M0 0h74v32H0z"/></clipPath></defs>
  </symbol>
</svg>
  