<svg width="95" height="24" viewBox="0 0 95 24" fill="none" xmlns="http://www.w3.org/2000/svg">
  <symbol id="item" viewBox="0 0 95 24"  fill="none">
    <path d="M23 22.138c0-1.044.835-1.872 1.862-1.872a1.88 1.88 0 0 1 1.603.919l-.361.216c-.248-.443-.7-.75-1.242-.75-.824 0-1.444.67-1.444 1.476 0 .806.62 1.464 1.444 1.464.599 0 1.05-.329 1.287-.794l.372.193c-.316.601-.914 1.01-1.647 1.01A1.841 1.841 0 0 1 23 22.138ZM31.136 20.31h.417v3.247h1.874v.409h-2.291V20.31ZM37.86 22.592V20.3h.418v2.304c0 .567.372.998.97.998.588 0 .983-.397.983-.998V20.3h.417v2.292c0 .863-.587 1.408-1.4 1.408-.835.011-1.388-.556-1.388-1.408ZM45.443 20.31h1.546c.677 0 1.129.375 1.129.966a.85.85 0 0 1-.486.794c.35.148.553.454.553.863 0 .635-.462 1.032-1.15 1.032H45.43v-3.654h.012Zm.417.375v1.203h1.163c.44 0 .677-.26.677-.613 0-.351-.27-.59-.711-.59H45.86Zm0 1.59v1.293h1.185c.452 0 .734-.272.734-.647 0-.386-.26-.647-.756-.647H45.86ZM30.774 12.922c0 .58-.428 2.702-4.005 2.702H23V5.238h3.769c3.17 0 3.554 2.259 3.554 2.713 0 1.43-.948 2.088-1.794 2.384 1.027.226 2.245.862 2.245 2.587Zm-4.231-7.196h-1.986v4.29h2.29c.847 0 1.953-.635 1.953-1.997-.012-1.475-.96-2.293-2.257-2.293Zm2.527 7.117c0-2.145-2.245-2.338-2.685-2.338h-1.84v4.551h2.212c.012.012 2.313-.045 2.313-2.213ZM44.687 10.391c0 3.757-2.234 5.403-4.976 5.403s-4.976-1.646-4.976-5.403C34.735 6.76 36.969 5 39.71 5s4.976 1.725 4.976 5.391Zm-1.693 0c0-3.337-1.466-4.926-3.283-4.926-1.805 0-3.284 1.623-3.284 4.926 0 3.44 1.479 4.926 3.284 4.926 1.817 0 3.283-1.487 3.283-4.926ZM59.852 15.612H58.34l-1.23-7.128-3.836 7.128-3.51-6.662-.767 6.662h-.632L49.55 5.227l4.22 8.059 4.355-8.059 1.783 10.374-.056.011ZM71.632 12.922c0 .58-.429 2.702-4.006 2.702h-3.768V5.238h3.768c3.171 0 3.555 2.259 3.555 2.713 0 1.43-.948 2.088-1.794 2.384 1.015.226 2.245.862 2.245 2.587Zm-4.231-7.196h-1.986v4.29h2.29c.847 0 1.952-.635 1.952-1.997-.022-1.475-.959-2.293-2.256-2.293Zm2.516 7.117c0-2.145-2.246-2.338-2.686-2.338h-1.839v4.551h2.212c.022.012 2.313-.045 2.313-2.213ZM74.87 15.612l4.627-10.385 4.739 10.385h-1.704l-.891-1.963h-5.202l-.88 1.963h-.689Zm1.806-2.497h4.716l-2.38-5.22-2.336 5.22ZM95 5.227l-3.735 5.902v4.483h-1.557v-4.301l-4.051-6.084h1.873l3.43 5.176 3.272-5.176H95Z" fill="currentColor"/><path d="M17 13.839c0-3.232-1.826-6.044-4.525-7.504a4.12 4.12 0 0 0 .476-1.937c0-1.353-.645-2.521-1.657-3.28C10.31.368 9.329-.1 7.483.018 5.617.135 4.555 1.254 4.555 1.254c-.05.049-.1.097-.139.146a2.798 2.798 0 0 0-.704 1.84A2.833 2.833 0 0 0 5.11 5.701c.188.107.427.02.506-.175l.258-.691.03-.088v-.01c-.05-.02-.09-.039-.13-.058a2.156 2.156 0 0 1-1.021-2.132c.04-.272.129-.535.258-.759C5.1 1.634 5.885.475 8.048.66c.328.04.685.117 1.052.263.17.058.328.136.487.224.01 0 .01.01.02.01a3.132 3.132 0 0 1 1.617 2.735c0 .944-.327 1.888-.992 2.462l-.01.01c-.1.087-.199.175-.318.263-.387.223-.853.37-1.31.447V3.493c0-.176-.119-.341-.297-.39l-1.082-.321v4.37h-.943a.59.59 0 0 0-.546.37l-.278.74 1.638.02a9.568 9.568 0 0 1 2.898.583c.277.097.546.214.803.35a6.091 6.091 0 0 1 2.888 3.203 5.962 5.962 0 0 1 .318 3.105 6.416 6.416 0 0 1-.566 1.888 6.711 6.711 0 0 1-6.073 3.786 6.787 6.787 0 0 1-3.85-1.188 6.074 6.074 0 0 1-.497-.38 5.576 5.576 0 0 1-.605-.573c-.715-.799-1.171-1.82-1.171-2.93 0-2.453 2.024-4.283 4.525-4.283a4.54 4.54 0 0 1 1.677.312c.486.204.903.496 1.23.856.348.438.566.993.566 1.597 0 .584-.198 1.129-.535 1.557-.437.496-1.062.564-1.35.574a3.197 3.197 0 0 1-.933-.165.383.383 0 0 0-.476.224l-.17.447c.378.195.805.312 1.251.35h.03c.04 0 .08 0 .13.01h.257c.06 0 .12-.01.179-.01 1.965-.184 3.553-1.975 3.553-4.02 0-1.712-1.082-3.182-2.62-3.775-.06-.03-.12-.05-.179-.069a6.199 6.199 0 0 0-2.183-.389 6.209 6.209 0 0 0-4.704 2.132A5.943 5.943 0 0 0 0 15.396V15.572c0 .048 0 .097.01.145v.01l.03.35c.377 3.592 3.463 6.385 7.175 6.405V24l1.121-.282a.343.343 0 0 0 .258-.321V22.559C13.26 22.404 17 18.648 17 14.034v-.194Z" fill="url(#a)"/><defs><linearGradient id="a" x1="1.059" y1="1.734" x2="14.154" y2="23.164" gradientUnits="userSpaceOnUse"><stop stop-color="#CDAE81"/><stop offset="1" stop-color="#B29265"/></linearGradient></defs>
  </symbol>
</svg>
  