<svg width="192" height="64" viewBox="0 0 192 64" fill="none" xmlns="http://www.w3.org/2000/svg">
  <symbol id="item" viewBox="0 0 192 64"  fill="none">
    <path fill-rule="evenodd" clip-rule="evenodd" d="M22 0C12.007.014 6.816.215 3.515 3.516 0 7.029 0 12.686 0 24v16c0 11.314 0 16.97 3.515 20.485C7.029 64 12.686 64 24 64h16c11.314 0 16.97 0 20.485-3.515C64 56.971 64 51.314 64 40c0 9.092 0 14.53 1.824 18.14L96.29 27.676l3.535 3.535-.006.007 26.541 26.54C128 54.15 128 48.779 128 40c0 11.314 0 16.97 3.515 20.485C135.029 64 140.686 64 152 64h16c11.314 0 16.971 0 20.485-3.515 1.208-1.207 2-2.668 2.521-4.523-.332.025-.668.038-1.006.038h-20c-7.18 0-13-5.82-13-13a12.99 12.99 0 0 1 6.069-11A12.99 12.99 0 0 1 157 21c0-7.18 5.82-13 13-13h20c.338 0 .674.013 1.006.038-.521-1.855-1.313-3.316-2.521-4.523C184.971 0 179.314 0 168 0h-16c-11.314 0-16.971 0-20.485 3.515C128 7.029 128 12.686 128 24c0-11.314 0-16.97-3.515-20.485C120.971 0 115.314 0 104 0H88C76.686 0 71.03 0 67.515 3.515 64 7.029 64 12.686 64 24c0-11.314 0-16.97-3.515-20.485C56.971 0 51.314 0 40 0H27v37.5h22.5v5H22V0Zm101.129 61.6L96.282 34.753 69.216 61.82C72.816 64 78.351 64 88 64h16c9.963 0 15.539 0 19.129-2.4ZM190 13c.618 0 1.219.07 1.796.203C192 16.09 192 19.622 192 24v4.748a8.012 8.012 0 0 1-2 .252h-20a8 8 0 0 1 0-16h20Zm0 22c.691 0 1.361.087 2 .252V40c0 4.379 0 7.91-.204 10.797A8.016 8.016 0 0 1 190 51h-20a8 8 0 0 1 0-16h20Z" fill="currentColor"/>
  </symbol>
</svg>
  