<svg width="99" height="35" viewBox="0 0 99 35" fill="none" xmlns="http://www.w3.org/2000/svg">
  <symbol id="item" viewBox="0 0 99 35"  fill="none">
    <g filter="url(#a)"><path d="M22.146 15.417a9.162 9.162 0 0 0-4.75-8.032 4.48 4.48 0 0 0 .5-2.073 4.376 4.376 0 0 0-1.74-3.51C15.125 1 14.094.5 12.156.625 10.198.75 9.083 1.948 9.083 1.948c-.052.052-.104.104-.146.156a3.057 3.057 0 0 0 .73 4.604c.197.115.447.021.53-.187l.272-.74.03-.094v-.01c-.051-.02-.093-.042-.135-.062a2.322 2.322 0 0 1-.802-3.094c.094-.167.917-1.406 3.188-1.209.344.042.719.125 1.104.282.177.062.344.146.51.24.01 0 .01.01.021.01a3.363 3.363 0 0 1 1.698 2.927c0 1.01-.343 2.02-1.041 2.635l-.01.01c-.105.094-.21.188-.334.282-.406.24-.896.396-1.375.48V4.342a.434.434 0 0 0-.313-.416l-1.135-.344V8.26h-.99c-.25 0-.479.157-.573.396l-.291.792 1.718.02a9.876 9.876 0 0 1 3.042.626c.292.104.573.229.844.375a6.477 6.477 0 0 1 3.031 3.427 6.495 6.495 0 0 1 .334 3.323 6.97 6.97 0 0 1-.594 2.02 7.034 7.034 0 0 1-6.375 4.053c-1.5 0-2.896-.47-4.042-1.271a6.381 6.381 0 0 1-.52-.406A5.907 5.907 0 0 1 6.822 21c-.75-.854-1.23-1.948-1.23-3.135 0-2.625 2.126-4.584 4.75-4.584.626 0 1.22.115 1.761.334.51.218.948.53 1.292.916.364.469.593 1.063.593 1.709 0 .625-.208 1.208-.562 1.666-.458.532-1.115.604-1.417.615a3.294 3.294 0 0 1-.979-.177.4.4 0 0 0-.5.24l-.177.479c.396.208.844.333 1.313.375h.03c.043 0 .084 0 .136.01h.271c.063 0 .125-.01.188-.01 2.062-.198 3.729-2.115 3.729-4.303a4.342 4.342 0 0 0-2.75-4.041 1.394 1.394 0 0 0-.188-.073 6.395 6.395 0 0 0-2.291-.417c-1.98 0-3.75.886-4.938 2.281a6.432 6.432 0 0 0-1.552 4.198v.188c0 .052 0 .104.01.156v.01l.032.375c.395 3.844 3.635 6.834 7.53 6.855v1.625l1.178-.302a.366.366 0 0 0 .27-.344v-.896c4.897-.167 8.824-4.188 8.824-9.125v-.208Z" fill="url(#b)"/></g><g filter="url(#c)" fill="currentColor"><path d="M34.938 16.063c0 .53-.396 2.479-3.698 2.479h-3.48V9.01h3.48c2.927 0 3.28 2.073 3.28 2.49 0 1.313-.874 1.917-1.655 2.188.947.208 2.072.791 2.072 2.374ZM31.03 9.457h-1.833v3.938h2.114c.782 0 1.803-.584 1.803-1.834-.01-1.354-.886-2.104-2.084-2.104Zm2.334 6.532c0-1.97-2.073-2.146-2.48-2.146h-1.698v4.177h2.042c.01.01 2.136-.042 2.136-2.031ZM47.781 13.74c0 3.447-2.062 4.958-4.593 4.958-2.532 0-4.594-1.51-4.594-4.958 0-3.334 2.062-4.948 4.593-4.948 2.532 0 4.594 1.583 4.594 4.948Zm-1.562 0c0-3.063-1.354-4.521-3.032-4.521-1.666 0-3.03 1.49-3.03 4.52 0 3.157 1.364 4.521 3.03 4.521 1.678 0 3.032-1.364 3.032-4.52ZM61.781 18.531h-1.395L59.25 11.99l-3.542 6.541-3.24-6.114-.708 6.114h-.583L52.271 9l3.896 7.396L60.187 9l1.646 9.52-.052.011ZM72.656 16.063c0 .53-.396 2.479-3.698 2.479H65.48V9.01h3.48c2.926 0 3.28 2.073 3.28 2.49 0 1.313-.874 1.917-1.656 2.188.938.208 2.073.791 2.073 2.374ZM68.75 9.457h-1.833v3.938h2.114c.781 0 1.802-.584 1.802-1.834-.02-1.354-.885-2.104-2.083-2.104Zm2.323 6.532c0-1.97-2.073-2.146-2.48-2.146h-1.697v4.177h2.041c.021.01 2.136-.042 2.136-2.031ZM75.646 18.531 79.916 9l4.376 9.531h-1.573l-.823-1.802h-4.802l-.813 1.802h-.635Zm1.666-2.291h4.355l-2.198-4.792-2.156 4.792ZM94.23 9l-3.449 5.417v4.114h-1.437v-3.948L85.604 9h1.73l3.166 4.75L93.52 9h.71Z"/></g><g filter="url(#d)" fill="currentColor"><path d="M27.76 24.52c0-.957.771-1.718 1.72-1.718.624 0 1.176.344 1.478.844l-.333.198a1.312 1.312 0 0 0-1.146-.688c-.76 0-1.333.615-1.333 1.354 0 .74.573 1.344 1.333 1.344.552 0 .969-.302 1.188-.729l.343.177a1.699 1.699 0 0 1-1.52.927c-.98.01-1.73-.76-1.73-1.708ZM35.27 22.844h.386v2.979h1.73v.375H35.27v-3.354ZM41.48 24.938v-2.105h.385v2.115c0 .52.343.917.895.917.542 0 .907-.365.907-.917v-2.115h.385v2.105c0 .791-.542 1.291-1.292 1.291-.77.01-1.28-.51-1.28-1.291ZM48.48 22.844h1.426c.625 0 1.042.343 1.042.885a.78.78 0 0 1-.448.73c.323.135.51.416.51.791 0 .583-.427.948-1.062.948h-1.48v-3.354h.011Zm.385.343v1.105h1.072c.407 0 .626-.24.626-.563 0-.323-.25-.541-.657-.541h-1.041Zm0 1.459v1.187h1.093c.417 0 .677-.25.677-.593 0-.355-.24-.594-.697-.594h-1.073Z"/></g><defs><filter id="a" x=".302" y=".606" width="25.844" height="33.686" filterUnits="userSpaceOnUse" color-interpolation-filters="sRGB"><feFlood flood-opacity="0" result="BackgroundImageFix"/><feColorMatrix in="SourceAlpha" values="0 0 0 0 0 0 0 0 0 0 0 0 0 0 0 0 0 0 127 0"/><feOffset dy="4"/><feGaussianBlur stdDeviation="2"/><feColorMatrix values="0 0 0 0 0 0 0 0 0 0 0 0 0 0 0 0 0 0 0.25 0"/><feBlend in2="BackgroundImageFix" result="effect1_dropShadow"/><feBlend in="SourceGraphic" in2="effect1_dropShadow" result="shape"/></filter><filter id="c" x="23.76" y="8.792" width="74.469" height="17.906" filterUnits="userSpaceOnUse" color-interpolation-filters="sRGB"><feFlood flood-opacity="0" result="BackgroundImageFix"/><feColorMatrix in="SourceAlpha" values="0 0 0 0 0 0 0 0 0 0 0 0 0 0 0 0 0 0 127 0"/><feOffset dy="4"/><feGaussianBlur stdDeviation="2"/><feColorMatrix values="0 0 0 0 0 0 0 0 0 0 0 0 0 0 0 0 0 0 0.25 0"/><feBlend in2="BackgroundImageFix" result="effect1_dropShadow"/><feBlend in="SourceGraphic" in2="effect1_dropShadow" result="shape"/></filter><filter id="d" x="23.76" y="22.802" width="31.25" height="11.427" filterUnits="userSpaceOnUse" color-interpolation-filters="sRGB"><feFlood flood-opacity="0" result="BackgroundImageFix"/><feColorMatrix in="SourceAlpha" values="0 0 0 0 0 0 0 0 0 0 0 0 0 0 0 0 0 0 127 0"/><feOffset dy="4"/><feGaussianBlur stdDeviation="2"/><feColorMatrix values="0 0 0 0 0 0 0 0 0 0 0 0 0 0 0 0 0 0 0.25 0"/><feBlend in2="BackgroundImageFix" result="effect1_dropShadow"/><feBlend in="SourceGraphic" in2="effect1_dropShadow" result="shape"/></filter><linearGradient id="b" x1="5.414" y1="2.461" x2="19.551" y2="25.152" gradientUnits="userSpaceOnUse"><stop stop-color="#CDAE81"/><stop offset="1" stop-color="#B29265"/></linearGradient></defs>
  </symbol>
</svg>
  