<svg width="32" height="32" viewBox="0 0 32 32" fill="none" xmlns="http://www.w3.org/2000/svg">
  <symbol id="item" viewBox="0 0 32 32"  fill="none">
    <path fill-rule="evenodd" clip-rule="evenodd" d="M17.096 18.906c0 2.107 1.741 3.816 3.89 3.816 2.148 0 3.889-1.709 3.889-3.816 0-2.107-1.741-3.816-3.89-3.816-2.148 0-3.89 1.709-3.89 3.816ZM11.786 6c2.092 0 3.787 1.715 3.787 3.83v8.751c0 3.259 2.364 5.576 5.412 5.576.282 0 .557-.02.827-.062A8.496 8.496 0 0 1 16.43 26C11.774 26 8 22.298 8 17.731V9.83C8 7.715 9.695 6 11.787 6Z" fill="#D82E2E"/>
  </symbol>
</svg>
  