
<svg width="1em" height="auto"    viewBox="0 0 80 56" fill="none" xmlns="http://www.w3.org/2000/svg">
<symbol id="item"
width="1em"
height="auto"
viewBox="0 0 80 56"
fill="none"
>
<rect width="80" height="56" rx="8" fill="#0F161F"/><path fill-rule="evenodd" clip-rule="evenodd" d="M15.248 33.912C14.416 33.187 14 32.214 14 30.994v-7.763h2.28v7.582c0 1.203.683 1.962 2.165 1.962 1.481 0 2.163-.759 2.163-1.962v-7.582h2.297v7.763c0 1.22-.416 2.193-1.248 2.918-.832.725-1.898 1.088-3.212 1.088-1.3 0-2.365-.363-3.197-1.088Zm17.429-10.681v2.175H29.53v9.363h-2.297v-9.363h-3.13v-2.175h8.573Zm6.126 9.544c1.065 0 1.964-.346 2.68-1.055.715-.71 1.081-1.616 1.081-2.72s-.366-2.011-1.081-2.72c-.716-.709-1.615-1.072-2.68-1.072-1.066 0-1.965.363-2.68 1.072-.716.709-1.082 1.616-1.082 2.72s.366 2.01 1.082 2.72c.715.709 1.614 1.055 2.68 1.055Zm0 2.225c-1.682 0-3.113-.577-4.295-1.73-1.165-1.171-1.748-2.589-1.748-4.27 0-1.681.583-3.1 1.748-4.253C35.69 23.577 37.12 23 38.802 23c1.682 0 3.113.577 4.295 1.747 1.182 1.154 1.765 2.572 1.765 4.253s-.583 3.099-1.765 4.27C41.915 34.422 40.484 35 38.803 35Zm9.97-9.643v3.412h2.364c.866 0 1.582-.775 1.582-1.714 0-.94-.716-1.698-1.581-1.698h-2.364Zm4.095 9.412-2.346-4.005h-1.748v4.005h-2.298V23.231h4.662c1.081 0 1.997.379 2.746 1.12.749.742 1.132 1.649 1.132 2.704 0 1.434-.899 2.753-2.247 3.363l2.58 4.351h-2.48ZM68 28.571v.89c0 1.649-.533 2.984-1.598 4.006C65.336 34.489 63.955 35 62.274 35c-1.798 0-3.296-.577-4.478-1.73-1.182-1.171-1.764-2.589-1.764-4.254 0-1.68.582-3.099 1.747-4.269C58.961 23.577 60.41 23 62.141 23c2.18 0 4.078 1.055 5.077 2.687l-1.964 1.12c-.55-.939-1.748-1.598-3.13-1.598-1.115 0-2.03.362-2.747 1.088-.715.709-1.065 1.615-1.065 2.72 0 1.087.366 1.994 1.082 2.703.733.709 1.698 1.055 2.897 1.055 1.78 0 2.98-.825 3.395-2.193h-3.529v-2.01H68Z" fill="url(#a)"/><defs><linearGradient id="a" x1="14" y1="23" x2="65" y2="35" gradientUnits="userSpaceOnUse"><stop stop-color="#E9D0FC"/><stop offset=".344" stop-color="#C7C0FC"/><stop offset=".568" stop-color="#C8EBFD"/><stop offset=".74" stop-color="#D6BFE4"/><stop offset=".88" stop-color="#FAE0D3"/><stop offset="1" stop-color="#FBCCD0"/></linearGradient></defs>
</symbol>
</svg>
  