<svg width="427" height="109" viewBox="0 0 427 109" fill="none" xmlns="http://www.w3.org/2000/svg">
  <symbol id="item" viewBox="0 0 427 109"  fill="none">
    <path d="M176.131 87.818c11.219 0 19.656-5.272 25.131-12.182l-7.988-6.909c-4.039 5.091-9.962 8.819-17.143 8.819-12.116 0-20.822-9.092-20.822-22.364 0-13.637 8.526-22.818 20.643-22.818 6.731 0 12.386 2.909 17.143 8.818l7.987-6.818C194.441 26.09 185.286 22 175.952 22 155.488 22 144 36.818 144 55.182c0 21.182 14.809 32.636 32.131 32.636Z" fill="#272D36"/><path d="M224.062 88c13.463 0 22.977-9.364 22.977-22.818 0-13.637-9.514-22.91-22.977-22.91-13.822 0-22.976 9.819-22.976 22.91 0 13 9.154 22.818 22.976 22.818Zm0-9.273c-7.539 0-12.745-6-12.745-13.545 0-7.727 5.116-13.727 12.745-13.727 7.18 0 12.745 5.545 12.745 13.727 0 8-5.654 13.545-12.745 13.545ZM250.192 87.273h10.052V65.182c0-8.727 4.487-13.727 10.501-13.727 5.923 0 8.706 4.727 8.706 12.727v23.09h10.052v-22.09c0-8.727 4.577-13.727 10.232-13.727 5.924 0 8.526 4.727 8.526 12.727v23.09h10.053V61.637c0-13.272-5.745-19.363-15.348-19.363-6.462 0-12.027 2.545-15.707 7.363h-.179c-2.603-5-7.18-7.363-13.104-7.363-5.026 0-10.052 2.363-13.642 6.727h-.09v-6.09h-10.052v44.363ZM323.428 87.273h10.052V65.182c0-8.727 4.487-13.727 10.501-13.727 5.924 0 8.706 4.727 8.706 12.727v23.09h10.052v-22.09c0-8.727 4.578-13.727 10.232-13.727 5.924 0 8.526 4.727 8.526 12.727v23.09h10.053V61.637c0-13.272-5.744-19.363-15.348-19.363-6.462 0-12.027 2.545-15.707 7.363h-.179c-2.603-5-7.18-7.363-13.104-7.363-5.026 0-10.052 2.363-13.642 6.727h-.09v-6.09h-10.052v44.363ZM410.665 88C421.794 88 427 82 427 74.546c0-8.819-5.834-10.546-15.168-14.273-4.219-1.637-6.911-3.182-6.911-5.364 0-2.727 2.782-3.818 4.757-3.818 3.41 0 7.449 1.364 10.95 4.727l5.026-8c-4.847-4-9.873-5.545-15.438-5.545-8.975 0-15.437 5.272-15.437 12.545 0 8.727 6.193 12 13.373 14.546 5.744 2 8.616 3.09 8.616 5.363 0 2.637-2.244 4.364-6.103 4.364-5.385 0-9.155-1.727-12.655-5.182l-5.026 7.636C397.561 85.636 403.575 88 410.665 88Z" fill="#272D36"/><circle cx="32.382" cy="33.283" r="32.285" fill="#FF4E64"/><circle cx="79.016" cy="33.283" r="32.285" fill="#885ED5"/><circle cx="32.382" cy="76.33" r="32.285" fill="#138BFF"/><circle cx="79.016" cy="76.33" r="32.285" fill="#FBD3E0"/>
  </symbol>
</svg>
  