<svg width="32" height="32" viewBox="0 0 32 32" fill="none" xmlns="http://www.w3.org/2000/svg">
  <symbol id="item" viewBox="0 0 32 32"  fill="none">
    <path fill-rule="evenodd" clip-rule="evenodd" d="M11 18a7 7 0 1 1 0-14 7 7 0 0 1 0 14Z" fill="#FF4E64"/><path fill-rule="evenodd" clip-rule="evenodd" d="M11 28a7 7 0 1 1 0-14 7 7 0 0 1 0 14Z" fill="#272D36"/><path fill-rule="evenodd" clip-rule="evenodd" d="M21 18a7 7 0 1 1 0-14 7 7 0 0 1 0 14Z" fill="#5C33CF"/><path fill-rule="evenodd" clip-rule="evenodd" d="M21 28a7 7 0 1 1 0-14 7 7 0 0 1 0 14Z" fill="#FFA7B2"/>
  </symbol>
</svg>
  