<svg width="148" height="24" viewBox="0 0 148 24" fill="none" xmlns="http://www.w3.org/2000/svg">
  <symbol id="item" viewBox="0 0 148 24"  fill="none">
    <path fill-rule="evenodd" clip-rule="evenodd" d="M23.576 9.662a4.487 4.487 0 0 0-.393-5.071L19.473 0 11.21 14.338a4.487 4.487 0 0 0 .393 5.071L15.313 24l8.263-14.338Zm-13.62-3.79a4.505 4.505 0 0 1 .387 4.98l-6.58 11.75L.96 19.035a4.505 4.505 0 0 1-.386-4.98l6.58-11.75L9.956 5.87Zm19.307 9.658a3.396 3.396 0 0 1 .056 4.151l-2.667 4.053-2.404-3.1a3.396 3.396 0 0 1-.056-4.152l2.667-4.053 2.404 3.1Z" fill="#284DCD"/><path fill-rule="evenodd" clip-rule="evenodd" d="M113.215 18.096V1.97h3.012v6.114c.913-1.152 2.237-1.728 3.881-1.728 1.643 0 2.967.532 4.017 1.64 1.05 1.062 1.598 2.524 1.598 4.385 0 1.861-.548 3.323-1.644 4.386-1.095 1.108-2.419 1.64-4.017 1.64-1.689 0-2.967-.576-3.835-1.728v1.417h-3.012Zm3.743-3.322c.639.62 1.415.93 2.419.93.959 0 1.735-.31 2.374-.93.639-.62.959-1.418.959-2.393 0-.975-.32-1.772-.959-2.392-.639-.62-1.415-.93-2.374-.93-.958 0-1.78.31-2.419.93-.639.62-.913 1.417-.913 2.392 0 .975.319 1.772.913 2.393Zm-57.61-4.652v7.974h-3.014v-7.088c0-1.418-.639-2.127-1.872-2.127-.684 0-1.232.266-1.643.753-.41.488-.639 1.197-.639 2.127v6.335h-3.013v-7.044c0-1.462-.639-2.17-1.917-2.17-.64 0-1.142.265-1.598.752-.41.488-.64 1.197-.64 2.038v6.424H42V6.666h3.013v1.506c.822-1.24 1.963-1.86 3.424-1.86 1.643 0 2.739.664 3.287 1.949.821-1.285 2.1-1.95 3.743-1.95 1.187 0 2.145.355 2.785 1.02.776.708 1.095 1.639 1.095 2.79ZM71.763 7.95c1.278 1.063 1.917 2.525 1.917 4.43 0 1.905-.639 3.367-1.917 4.43-1.278 1.064-2.785 1.596-4.52 1.596-1.734 0-3.24-.532-4.519-1.595-1.278-1.064-1.917-2.57-1.917-4.43 0-1.861.639-3.368 1.917-4.431 1.278-1.063 2.785-1.595 4.52-1.595 1.734 0 3.24.532 4.519 1.595Zm-6.939 6.867c.685.62 1.46.886 2.42.886.912 0 1.689-.31 2.373-.886.685-.62 1.005-1.418 1.005-2.437s-.32-1.816-1.005-2.392c-.684-.62-1.46-.93-2.373-.93-.913 0-1.735.31-2.42.93-.685.62-1.004 1.418-1.004 2.392 0 1.02.365 1.817 1.004 2.437Zm21.593 3.278V10.3c0-1.196-.411-2.127-1.187-2.88-.776-.709-1.78-1.063-3.013-1.063-1.69 0-3.013.709-3.972 2.17v-1.86h-3.013v11.43h3.013v-5.803c0-.975.274-1.728.776-2.348a2.544 2.544 0 0 1 1.963-.887c1.598 0 2.42.798 2.42 2.437v6.601h3.013Zm13.33-5.006h-9.04c.092.886.457 1.595 1.005 2.082.594.488 1.324.753 2.192.753 1.46 0 2.556-.708 3.24-2.082l2.237 1.24c-1.095 2.216-2.967 3.324-5.523 3.324-1.69 0-3.104-.576-4.291-1.684-1.187-1.152-1.735-2.57-1.735-4.342 0-1.772.593-3.234 1.78-4.342 1.187-1.107 2.694-1.683 4.428-1.683 1.69 0 3.059.532 4.109 1.595 1.096 1.063 1.598 2.437 1.598 4.12v1.02ZM93.95 8.571c-.776 0-1.46.222-2.054.709a3.71 3.71 0 0 0-1.187 1.684h6.3a3.025 3.025 0 0 0-1.005-1.773c-.547-.398-1.232-.62-2.054-.62Zm7.715 11.43-.457 2.703a4.385 4.385 0 0 0 1.552.266c.913 0 1.689-.222 2.329-.665.639-.443 1.141-1.152 1.552-2.126l5.615-13.513h-3.378l-2.876 7.399-3.059-7.399h-3.378l4.839 11.519-.365 1.019c-.274.709-.685 1.063-1.324 1.063-.365 0-.685-.088-1.05-.265Zm33.599-1.905h3.058c-.502-.753-.776-1.683-.776-2.924v-4.785c0-1.373-.456-2.392-1.324-3.1-.867-.665-2.145-1.02-3.834-1.02-1.507 0-2.694.355-3.607 1.064-.913.664-1.369 1.506-1.369 2.436 0 .355.091.665.228.975l2.693-.886c-.045-.089-.045-.177-.045-.266 0-.399.182-.665.548-.93.365-.222.867-.355 1.552-.355 1.415 0 2.145.576 2.145 1.728v.443l-3.515.532c-1.232.221-2.282.62-3.058 1.24-.776.62-1.142 1.462-1.142 2.57 0 1.107.366 1.95 1.096 2.614.73.664 1.689.975 2.876.975 1.78 0 3.104-.71 3.926-2.127 0 .753.182 1.373.548 1.816Zm-1.598-2.88c-.548.577-1.278.842-2.191.842-.503 0-.959-.088-1.279-.398-.319-.222-.456-.576-.456-1.02 0-.885.639-1.461 1.963-1.683l2.83-.443v.222c0 1.063-.319 1.905-.867 2.48Zm6.026 2.88V1.97h3.013v16.126h-3.013Zm5.295-16.126v16.126H148V1.97h-3.013Z" fill="currentColor"/>
  </symbol>
</svg>
  