<svg width="32" height="32" viewBox="0 0 32 32" fill="none" xmlns="http://www.w3.org/2000/svg">
  <symbol id="item" viewBox="0 0 32 32"  fill="none">
    <path d="M15.336 6a.624.624 0 0 0-.614.63c0 .362.277.63.614.63a.624.624 0 0 0 .614-.63.624.624 0 0 0-.614-.63ZM15.336 24.74a.624.624 0 0 0-.614.63c0 .362.277.63.614.63a.624.624 0 0 0 .614-.63.624.624 0 0 0-.614-.63ZM11.654 9.78c0-.347.276-.63.614-.63.337 0 .613.283.613.63 0 .346-.276.63-.613.63a.614.614 0 0 1-.614-.63ZM12.268 12.567c-.2 0-.353.157-.353.362s.153.362.353.362c.2 0 .353-.157.353-.362a.352.352 0 0 0-.353-.362ZM9 12.93c0-.111.092-.206.2-.206.107 0 .199.095.199.205 0 .11-.092.205-.2.205A.196.196 0 0 1 9 12.929ZM9.2 15.67c-.108 0-.2.094-.2.204 0 .11.092.205.2.205.107 0 .199-.095.199-.205a.206.206 0 0 0-.2-.205ZM9 19.228c0-.11.092-.204.2-.204.107 0 .199.094.199.204 0 .11-.092.205-.2.205A.196.196 0 0 1 9 19.228ZM12.268 15.512c-.2 0-.353.157-.353.362s.153.362.353.362c.2 0 .353-.157.353-.362a.352.352 0 0 0-.353-.362ZM11.915 19.228c0-.204.153-.362.353-.362.2 0 .353.158.353.362a.352.352 0 0 1-.353.363.352.352 0 0 1-.353-.363ZM12.268 21.748a.624.624 0 0 0-.614.63c0 .362.276.63.614.63a.624.624 0 0 0 .613-.63.624.624 0 0 0-.613-.63ZM14.308 9.622c0-.63.476-1.055 1.028-1.055.614 0 1.028.488 1.028 1.055s-.476 1.055-1.028 1.055c-.614 0-1.028-.488-1.028-1.055ZM18.711 8.724c-.552 0-1.028.426-1.028 1.056 0 .567.415 1.055 1.028 1.055.553 0 1.028-.489 1.028-1.055 0-.567-.414-1.056-1.028-1.056ZM17.683 22.378c0-.63.476-1.055 1.028-1.055.614 0 1.028.488 1.028 1.055s-.476 1.055-1.028 1.055c-.613 0-1.028-.488-1.028-1.055ZM18.711 14.866c-.552 0-1.028.425-1.028 1.055 0 .567.415 1.055 1.028 1.055.553 0 1.028-.488 1.028-1.055s-.414-1.055-1.028-1.055ZM14.308 22.22c0-.63.476-1.055 1.028-1.055.614 0 1.028.489 1.028 1.056 0 .566-.476 1.055-1.028 1.055-.614 0-1.028-.489-1.028-1.055ZM15.336 11.37c-.644 0-1.212.488-1.212 1.244 0 .677.476 1.26 1.212 1.244.644 0 1.212-.582 1.212-1.244 0-.661-.476-1.244-1.212-1.244ZM14.124 19.228c0-.756.568-1.244 1.212-1.244.736 0 1.212.583 1.212 1.244 0 .662-.568 1.244-1.212 1.244-.736.016-1.212-.567-1.212-1.244ZM20.874 11.622a1.317 1.317 0 0 0-.506 1.764c.215.41.675.709 1.15.693.17 0 .4-.063.568-.174a1.317 1.317 0 0 0 .507-1.763c-.353-.63-1.09-.866-1.719-.52ZM14.093 16.551a1.448 1.448 0 0 1 .583-1.968c.706-.394 1.534-.126 1.918.598a1.448 1.448 0 0 1-.583 1.969 1.29 1.29 0 0 1-.644.204 1.536 1.536 0 0 1-1.274-.803ZM20.752 17.7a1.552 1.552 0 0 0-.614 2.111c.276.488.828.835 1.365.835.215 0 .491-.063.69-.205a1.552 1.552 0 0 0 .614-2.11c-.414-.772-1.304-1.055-2.055-.63Z" fill="#FF5111"/>
  </symbol>
</svg>
  