<svg width="32" height="32" viewBox="0 0 32 32" fill="none" xmlns="http://www.w3.org/2000/svg">
  <symbol id="item" viewBox="0 0 32 32"  fill="none">
    <circle cx="16" cy="16" r="11" fill="currentColor"/><path d="m10.393 16.787.626.398c-.38.745-.983 1.117-1.807 1.117-.582 0-1.068-.19-1.459-.57-.386-.385-.579-.878-.579-1.477 0-.598.199-1.088.595-1.468a1.993 1.993 0 0 1 1.443-.578c.428 0 .795.093 1.101.28.307.183.532.44.674.774l-.642.422c-.248-.495-.623-.742-1.125-.742-.35 0-.64.12-.872.36-.233.234-.35.551-.35.952 0 .402.114.722.342.961.227.235.52.352.88.352.285 0 .517-.065.697-.195.18-.13.338-.326.476-.586ZM15.53 16.255c0 .641-.212 1.144-.635 1.508-.417.36-.906.54-1.466.54-.56 0-1.052-.18-1.475-.54-.417-.364-.626-.867-.626-1.508 0-.63.209-1.127.626-1.492.423-.37.914-.554 1.475-.554.56 0 1.049.184 1.466.554.423.365.634.862.634 1.492Zm-3.005.946c.248.244.55.367.904.367s.655-.123.903-.367c.249-.245.373-.56.373-.946 0-.385-.124-.7-.373-.945a1.24 1.24 0 0 0-.903-.367 1.24 1.24 0 0 0-.904.367c-.248.245-.373.56-.373.945 0 .386.125.701.373.946ZM16.106 18.193v-3.875h.809v3.875h-.809Zm-.055-4.492v-.899h.92v.899h-.92ZM21.318 15.56v2.633h-.809v-2.399c0-.265-.076-.474-.23-.625-.147-.15-.361-.226-.641-.226a.953.953 0 0 0-.738.336c-.195.224-.293.513-.293.867v2.047H17.8v-3.875h.808v.648a1.543 1.543 0 0 1 1.34-.758c.401 0 .729.12.983.36.259.24.388.57.388.992ZM22.775 15.255c0 .162.079.29.237.383.164.094.413.172.746.235.454.093.787.231.998.414.217.182.325.435.325.758 0 .359-.137.658-.412.898-.27.24-.64.36-1.11.36-.438 0-.806-.108-1.101-.321a1.816 1.816 0 0 1-.635-.828l.658-.406c.217.583.579.875 1.086.875a.91.91 0 0 0 .531-.149.481.481 0 0 0 .215-.406.4.4 0 0 0-.215-.367c-.142-.089-.38-.167-.713-.235-.893-.172-1.34-.562-1.34-1.172 0-.333.138-.596.413-.789.274-.198.605-.296.99-.296.407 0 .735.08.983.242.254.156.452.396.595.718l-.595.344c-.18-.463-.502-.695-.967-.695a.904.904 0 0 0-.491.125c-.132.078-.198.182-.198.312Z" fill="currentColor"/><ellipse cx="22.907" cy="24.122" rx="1.919" ry="1.983" fill="#FF8B00"/>
  </symbol>
</svg>
  