<svg width="118" height="24" viewBox="0 0 118 24" fill="none" xmlns="http://www.w3.org/2000/svg">
  <symbol id="item" viewBox="0 0 118 24"  fill="none">
    <circle cx="14.1" cy="12.9" r="8.7" fill="#49B356"/><circle cx="2.1" cy="4.5" r="2.1" fill="currentColor"/><path d="M31.503 9.234c0 .452.241.832.7 1.118.458.285 1.206.523 2.22.737 1.327.262 2.316.713 2.968 1.284.651.595.965 1.38.965 2.354 0 1-.41 1.88-1.23 2.569-.821.713-1.907 1.07-3.259 1.07-1.423 0-2.581-.357-3.426-1.046-.845-.69-1.4-1.618-1.641-2.759l2.003-.999c.362 1.879 1.375 2.83 3.04 2.83.676 0 1.231-.143 1.617-.452.41-.285.603-.69.603-1.165 0-.523-.241-.927-.724-1.213-.482-.285-1.23-.547-2.268-.737-1.158-.238-2.075-.642-2.75-1.237-.676-.594-1.014-1.379-1.014-2.33 0-.975.386-1.784 1.182-2.378.772-.595 1.81-.88 3.065-.88 2.292 0 3.812 1.023 4.584 3.044l-1.785 1.022c-.483-1.403-1.424-2.116-2.848-2.116-.579 0-1.061.095-1.447.31-.362.237-.555.546-.555.974ZM39.297 21.6V9.71h2.172v1.213c.29-.428.723-.785 1.23-1.047a3.859 3.859 0 0 1 1.713-.404c1.11 0 2.052.404 2.8 1.213.748.808 1.134 1.878 1.134 3.234 0 1.332-.386 2.402-1.183 3.21-.796.833-1.761 1.237-2.92 1.237-1.158 0-2.075-.428-2.775-1.284V21.6h-2.171Zm6.177-9.417c-.458-.476-1.037-.713-1.713-.713-.7 0-1.255.237-1.713.713a2.406 2.406 0 0 0-.7 1.736c0 .69.241 1.26.7 1.736.458.476 1.037.713 1.713.713.7 0 1.255-.237 1.713-.713.459-.476.7-1.046.7-1.736-.024-.69-.241-1.26-.7-1.736ZM56.84 10.66c.94.785 1.4 1.879 1.4 3.258 0 1.38-.46 2.473-1.376 3.258-.917.785-2.027 1.189-3.282 1.189s-2.365-.404-3.282-1.19c-.917-.784-1.375-1.878-1.375-3.257 0-1.38.458-2.473 1.375-3.258.917-.785 2.027-1.189 3.282-1.189s2.34.404 3.258 1.189Zm-4.995 5.041c.482.452 1.061.666 1.737.666.676 0 1.255-.214 1.737-.666.483-.451.724-1.046.724-1.783 0-.737-.241-1.332-.724-1.784-.482-.451-1.061-.665-1.737-.665-.676 0-1.255.213-1.737.665-.483.452-.724 1.047-.724 1.784 0 .737.241 1.332.724 1.783ZM64.56 9.591v1.974c-.217-.12-.796-.072-1.037-.072-.628 0-1.134.238-1.496.714-.362.475-.555 1.07-.555 1.783v4.162H59.3V9.71h2.172v1.331c.53-1.046 1.327-1.57 2.389-1.57.217 0 .458.049.7.12Zm1.062.119V7.427h2.172V9.71h1.858v1.736h-1.858v3.828c0 .785.362 1.19 1.086 1.19.241 0 .482-.024.724-.096l.217 1.76c-.435.166-.917.238-1.448.238-1.834 0-2.727-.904-2.727-2.687v-4.233l-.024-1.736Zm6.998 2.069c0 .523.676.927 2.027 1.189.99.214 1.713.523 2.172.927.458.404.675.975.675 1.665 0 .808-.313 1.474-.917 2.021-.603.523-1.423.785-2.461.785-.99 0-1.81-.238-2.461-.714a4.264 4.264 0 0 1-1.448-1.807l1.737-1.094c.193.547.483.999.845 1.332.362.333.82.5 1.351.5.362 0 .676-.072.941-.238.266-.167.41-.405.41-.69 0-.262-.144-.5-.434-.642-.29-.167-.748-.31-1.4-.428-1.978-.38-2.968-1.26-2.968-2.64 0-.76.314-1.355.942-1.783.627-.428 1.375-.642 2.268-.642.917 0 1.64.166 2.172.499.53.333.989.88 1.35 1.617l-1.568.927c-.386-.975-1.037-1.474-1.93-1.474-.869-.048-1.303.19-1.303.69Zm5.646 6.349V6.238h2.172v4.494c.676-.856 1.617-1.284 2.8-1.284 1.182 0 2.147.404 2.92 1.19.771.808 1.157 1.878 1.157 3.257 0 1.356-.386 2.45-1.182 3.234-.796.809-1.762 1.213-2.92 1.213-1.206 0-2.147-.428-2.775-1.284v1.046h-2.172v.024Zm2.727-2.426c.459.452 1.038.69 1.738.69s1.278-.238 1.737-.69c.458-.451.676-1.046.676-1.76 0-.713-.218-1.307-.676-1.76-.459-.45-1.038-.689-1.737-.689-.7 0-1.28.238-1.738.69-.458.452-.675 1.046-.675 1.76 0 .69.217 1.284.675 1.76Zm15.54-1.26h-6.587c.072.642.313 1.165.748 1.546.434.38.965.57 1.592.57 1.062 0 1.834-.523 2.365-1.545l1.617.927c-.797 1.641-2.148 2.473-4.006 2.473-1.206 0-2.244-.404-3.113-1.236-.844-.832-1.279-1.903-1.279-3.21 0-1.309.435-2.379 1.303-3.21.87-.833 1.93-1.237 3.186-1.237 1.206 0 2.22.404 2.992 1.189.772.784 1.182 1.807 1.182 3.02v.713Zm-4.223-3.33c-.555 0-1.061.167-1.472.5-.41.333-.7.761-.868 1.26h4.584c-.096-.546-.362-.998-.748-1.307-.386-.31-.892-.452-1.496-.452Zm4.923-1.402V7.427h2.172V9.71h1.858v1.736h-1.858v3.828c0 .785.362 1.19 1.086 1.19.241 0 .482-.024.723-.096l.218 1.76c-.435.166-.917.238-1.448.238-1.834 0-2.727-.904-2.727-2.687v-4.233l-.024-1.736Zm6.008 8.418c.628 0 1.159-.5 1.159-1.141a1.15 1.15 0 0 0-1.159-1.142c-.627 0-1.158.5-1.158 1.142a1.15 1.15 0 0 0 1.158 1.141Zm2.124 0V9.71h2.172v8.418h-2.172Zm10.834-7.467c.942.785 1.4 1.879 1.4 3.258 0 1.38-.458 2.473-1.375 3.258-.917.785-2.027 1.189-3.282 1.189s-2.365-.404-3.282-1.19c-.917-.784-1.375-1.878-1.375-3.257 0-1.38.458-2.473 1.375-3.258.917-.785 2.027-1.189 3.282-1.189s2.316.404 3.257 1.189Zm-5.019 5.041c.483.452 1.062.666 1.738.666.675 0 1.255-.214 1.737-.666.483-.451.724-1.046.724-1.783 0-.737-.241-1.332-.724-1.784-.482-.451-1.062-.665-1.737-.665-.676 0-1.255.213-1.738.665-.482.452-.724 1.047-.724 1.784 0 .737.242 1.332.724 1.783ZM105.243 7.38c0 .643.531 1.144 1.16 1.144.628 0 1.16-.5 1.16-1.144 0-.643-.532-1.143-1.16-1.143-.653 0-1.16.5-1.16 1.143Z" fill="currentColor"/>
  </symbol>
</svg>
  