<svg width="200" height="24" viewBox="0 0 200 24" fill="none" xmlns="http://www.w3.org/2000/svg">
  <symbol id="item" viewBox="0 0 200 24"  fill="none">
    <g clip-path="url(#a)" fill="currentColor"><path d="M44.05 9.828c.116.141.232.504.27 1.008.04.479-.193 1.38-.694 2.378l-1.983 3.903-3.544-7.391h-1.494l4.53 9.044h.258l4.66-9.044h-2.11l.106.102ZM147.431 10.395c.039-.169.092-.31.141-.426.102-.218.141-.233.155-.247h-2.124l.053.04c.052.052.155.284.243.633.091.324.155 1.047.155 1.913v3.876c0 .866-.078 1.575-.166 1.923a2.12 2.12 0 0 1-.13.413c-.102.218-.141.232-.155.246h2.124l-.116-.13c-.141-.17-.335-1.071-.335-2.456v-3.875c.004-.86.092-1.586.155-1.91ZM128.685 13.083c-.761-.479-1.364-1.085-1.364-1.807 0-.79.592-1.293 1.275-1.293.772.039 1.145.557 1.286 1.1.141.373.141.489.141.58h.131l.902-1.55-.258-.155c-.359-.218-1.25-.49-2.124-.49-.747 0-1.363.209-1.853.607-.476.401-.722.93-.722 1.589-.015 1.603 1.416 2.31 2.497 3.012.761.479 1.364 1.226 1.364 2.223 0 .969-.645 1.613-1.571 1.613-1.096 0-1.713-.775-1.713-1.807 0-.645.155-1.138.451-1.487l-.063-.091-1.547.673-.024.077c-.053.116-.103.44-.103.761 0 .698.258 1.265.786 1.72.529.45 1.223.672 2.1.672.838 0 1.518-.246 2.071-.722.554-.49.839-1.138.839-1.938.01-1.761-1.42-2.638-2.501-3.287ZM6.091 16.987c-.243.208-.8.518-1.455.814a7.52 7.52 0 0 1-2.667.518c-.426 0-.514-.025-.514-.388v-6.267c0-1.124.078-1.769.233-1.938H0l.039.102c.063.155.13.839.13 1.836v5.168c0 1.124-.053 1.769-.169 1.938h5.834l.645-1.938h-.194l-.194.155ZM107.014 9.726l-4.404 9.044h1.92l-.063-.064c-.18-.208-.528-.866.141-2.519h4.34l1.174 2.586h1.493l-4.34-9.044h-.261v-.003Zm-2.008 5.556 1.765-3.904 1.765 3.904h-3.53ZM170.454 16.987l-7.532-7.261h-.514l-.131 9.044h1.417l-.835-7.261 7.532 7.26h.514l.451-9.043h-1.479l.577 7.261ZM85.33 18.512c-1.044 0-1.907-.373-2.59-1.137-.684-.762-1.018-1.797-1.018-3.129 0-1.356.32-2.417.965-3.153.645-.736 1.44-1.11 2.382-1.11.722 0 1.377.31 1.726.634.165.155.32.335.45.543.272.412.297.528.335.634h.13l.8-1.55-.373-.194c-.243-.13-.63-.257-1.173-.388a7.231 7.231 0 0 0-1.698-.193c-1.455 0-2.639.45-3.566 1.356-.926.891-1.391 2.04-1.391 3.425 0 1.497.45 2.674 1.353 3.516.912.838 2.138 1.264 3.67 1.264 1.403 0 2.562-.426 3.503-1.264l-.374-.363c-.838.733-1.881 1.11-3.132 1.11ZM22.403 10.395c.04-.169.092-.31.141-.426.102-.218.141-.233.155-.247h-2.124l.053.043c.052.052.155.285.243.634.091.324.155 1.046.155 1.913v3.875c0 .867-.078 1.575-.17 1.924-.038.169-.077.296-.13.412-.102.218-.14.233-.155.247h2.125l-.117-.13c-.14-.17-.334-1.072-.334-2.456v-3.876c.003-.863.095-1.589.158-1.913ZM66.17 16.987c-.242.208-.77.518-1.43.814-.63.271-1.687.518-2.716.518-.426 0-.514-.025-.514-.388v-3.685l2.963.45v-1.292l-2.963.45v-3.23c0-.401.116-.387.514-.387.913 0 1.804.169 2.304.363.243.091.476.193.694.31.427.246.49.31.543.363h.194l-.388-1.808-.335.064c-.465.091-1.906.193-3.657.193h-1.324l.038.103c.064.155.13.838.13 1.835v5.168c0 1.124-.052 1.769-.165 1.938h5.834l.645-1.938h-.194l-.172.159ZM189.72 20.553a5.839 5.839 0 1 0 0-11.678 5.839 5.839 0 0 0 0 11.678ZM197.208 8.847a2.7 2.7 0 1 0 0-5.4 2.7 2.7 0 0 0 0 5.4Z"/></g><defs><clipPath id="a"><path fill="currentColor" d="M0 0h199.908v24H0z"/></clipPath></defs>
  </symbol>
</svg>
  