<svg width="86" height="24" viewBox="0 0 86 24" fill="none" xmlns="http://www.w3.org/2000/svg">
  <symbol id="item" viewBox="0 0 86 24"  fill="none">
    <path fill-rule="evenodd" clip-rule="evenodd" d="M9.1 0a7.317 7.317 0 1 1-7.344 7.317A7.33 7.33 0 0 1 9.101 0Z" fill="#09B2DE"/><path fill-rule="evenodd" clip-rule="evenodd" d="M13.17 23.415a7.317 7.317 0 1 0 0-14.635 7.317 7.317 0 0 0 0 14.635Z" fill="#1965AF"/><path fill-rule="evenodd" clip-rule="evenodd" d="M5.854 24c3.233 0 5.853-2.49 5.853-5.56 0-3.072-2.62-5.562-5.853-5.562C2.62 12.878 0 15.368 0 18.44 0 21.51 2.62 24 5.854 24Z" fill="#2B4BCE"/><path opacity=".9" fill-rule="evenodd" clip-rule="evenodd" d="M19.916 11.122a4.098 4.098 0 1 1-4.112 4.097 4.104 4.104 0 0 1 4.112-4.097Z" fill="#052B73"/><path d="M32 18.807h2.462v-5.215c0-1.47.898-2.31 2.067-2.31 1.312 0 1.977.84 1.977 2.188v5.337h2.552v-5.705c0-2.467-1.474-3.937-3.775-3.937-1.186 0-2.174.507-2.821 1.347V5.017h-2.463v13.79ZM46.603 19c1.186 0 2.175-.525 2.804-1.383v1.19l2.48-.017V9.34l-2.516.018v5.197c0 1.47-.863 2.293-2.031 2.293-1.33 0-1.977-.823-1.977-2.153V9.358h-2.534v5.67c0 2.484 1.383 3.972 3.774 3.972ZM59.37 19c2.39 0 4.655-1.907 4.655-4.918 0-3.01-2.23-4.917-4.673-4.917-1.313 0-2.39.578-3.038 1.488V5h-2.462v13.808h2.444v-1.313c.647.945 1.78 1.505 3.074 1.505Zm-.504-2.275c-1.527 0-2.696-1.19-2.696-2.66 0-1.47 1.169-2.66 2.696-2.66 1.492 0 2.678 1.173 2.678 2.66 0 1.488-1.186 2.66-2.678 2.66ZM70.248 18.983c3.002 0 4.799-1.558 4.799-4.008 0-1.277-.611-2.292-1.618-2.957.737-.613 1.186-1.47 1.186-2.503 0-2.222-1.779-3.657-4.331-3.657-2.606 0-4.368 1.435-4.368 3.657 0 1.032.486 1.872 1.205 2.485-1.043.683-1.69 1.715-1.69 2.975 0 2.45 1.762 4.008 4.817 4.008Zm0-2.17c-1.564 0-2.373-.823-2.373-1.838 0-1.015.845-1.837 2.409-1.837 1.546 0 2.354.822 2.354 1.837 0 1.015-.826 1.838-2.39 1.838Zm.018-5.688c-1.438 0-2.031-.682-2.031-1.592 0-.893.701-1.61 2.067-1.61 1.348 0 2.013.717 2.013 1.61 0 .927-.665 1.592-2.049 1.592ZM81.2 18.983c3.002 0 4.8-1.558 4.8-4.008 0-1.277-.612-2.293-1.618-2.957.737-.613 1.186-1.47 1.186-2.503 0-2.223-1.78-3.658-4.331-3.658-2.606 0-4.368 1.436-4.368 3.658 0 1.032.485 1.872 1.204 2.485-1.042.682-1.69 1.715-1.69 2.975 0 2.45 1.762 4.008 4.817 4.008Zm0-2.17c-1.563 0-2.372-.823-2.372-1.838 0-1.015.845-1.838 2.409-1.838 1.545 0 2.354.823 2.354 1.838 0 1.015-.827 1.838-2.391 1.838Zm.018-5.688c-1.437 0-2.03-.682-2.03-1.593 0-.892.7-1.61 2.066-1.61 1.349 0 2.013.718 2.013 1.61 0 .928-.664 1.593-2.049 1.593Z" fill="currentColor"/>
  </symbol>
</svg>
  