<svg width="32" height="32" viewBox="0 0 32 32" fill="none" xmlns="http://www.w3.org/2000/svg">
  <symbol id="item" viewBox="0 0 32 32"  fill="none">
    <path fill-rule="evenodd" clip-rule="evenodd" d="M23.147 14.052a3.74 3.74 0 0 0-.328-4.226L19.727 6l-6.885 11.948a3.74 3.74 0 0 0 .328 4.226L16.26 26l6.886-11.948Zm-11.35-3.16a3.754 3.754 0 0 1 .322 4.151l-5.482 9.792L4.3 21.863a3.754 3.754 0 0 1-.321-4.15L9.46 7.92l2.336 2.973Zm16.089 8.05a2.83 2.83 0 0 1 .047 3.459l-2.223 3.378-2.003-2.585a2.83 2.83 0 0 1-.047-3.46l2.223-3.377 2.003 2.585Z" fill="#284DCD"/>
  </symbol>
</svg>
  