<svg width="132" height="24" viewBox="0 0 132 24" fill="none" xmlns="http://www.w3.org/2000/svg">
  <symbol id="item" viewBox="0 0 132 24"  fill="none">
    <path fill-rule="evenodd" clip-rule="evenodd" d="M9.862 14.934c0 2.274 1.88 4.117 4.197 4.117 2.318 0 4.197-1.843 4.197-4.117 0-2.273-1.88-4.117-4.197-4.117-2.318 0-4.197 1.844-4.197 4.117ZM4.135 1.01C6.39 1.01 8.22 2.86 8.22 5.14v9.443c0 3.515 2.55 6.016 5.839 6.016.303 0 .601-.023.892-.067a9.165 9.165 0 0 1-5.807 2.055c-5.023 0-9.095-3.995-9.095-8.922V5.141C.05 2.86 1.88 1.01 4.135 1.01Z" fill="#D82E2E"/><path d="M27.044 19.102h10.335v-2.7h-6.977V5.785h-3.358v13.316ZM42.103 19.383c1.744 0 3.189-.806 3.808-2.213v1.932h3.094V9.724h-3.207v4.82c0 1.35-.807 2.476-2.438 2.476-1.182 0-2.026-.637-2.026-2.288V9.724h-3.208v5.646c0 2.57 1.313 4.013 3.977 4.013ZM55.952 19.383c2.945 0 5.065-1.331 5.534-3.45l-3.151-.6c-.282 1.143-1.107 1.743-2.402 1.743-1.594 0-2.57-1.012-2.57-2.738 0-1.65.957-2.626 2.552-2.626 1.294 0 2.138.6 2.4 1.726l3.17-.544c-.487-2.213-2.456-3.451-5.477-3.451-3.657 0-5.927 1.876-5.927 4.951 0 3.039 2.307 4.99 5.871 4.99ZM70.352 19.102h3.601l-3.976-5.814 3.845-3.564h-3.939l-4.052 3.808V5.504h-3.207v13.598h3.207v-2.55l1.782-1.52 2.739 4.07Z" fill="currentColor"/><path d="M75.787 22.947c2.701 0 4.258-.975 5.308-3.414l4.24-9.809h-3.32l-2.157 5.758c-.15.45-.226.694-.282 1.032h-.056a4.689 4.689 0 0 0-.3-1.05l-2.251-5.74h-3.545l4.464 9.36-.075.28c-.375.788-1.22 1.182-2.345 1.182-.375 0-.731-.018-1.275-.112v2.382c.525.094 1.181.131 1.594.131ZM90.555 19.383c3.263 0 4.933-1.2 4.933-3.188 0-1.65-.92-2.607-3.226-2.87l-2.758-.281c-.863-.094-1.2-.319-1.2-.769 0-.544.581-.788 1.82-.788 1.687 0 2.87.413 3.826 1.276l1.5-1.538c-1.05-1.144-2.888-1.782-5.158-1.782-3.151 0-4.914 1.107-4.914 3.02 0 1.65 1.087 2.607 3.376 2.888l2.495.244c1.069.112 1.35.319 1.35.844 0 .581-.581.863-1.894.863-1.951 0-3.283-.563-4.165-1.614l-1.725 1.463c1.163 1.463 3.132 2.232 5.74 2.232ZM99.874 5.504h-3.208v13.598h3.208V5.504ZM106.901 19.383c3.414 0 5.871-1.819 5.871-4.989s-2.457-4.951-5.871-4.951c-3.414 0-5.853 1.782-5.853 4.951 0 3.17 2.439 4.99 5.853 4.99Zm0-2.156c-1.595 0-2.607-.995-2.607-2.833s1.012-2.794 2.607-2.794c1.594 0 2.607.956 2.607 2.794s-1.013 2.833-2.607 2.833ZM112.551 11.825h2.12v3.995c0 2.27 1.256 3.488 4.126 3.488.826 0 1.52-.093 2.176-.262v-2.438c-.356.075-.787.15-1.331.15-1.182 0-1.764-.544-1.764-1.65v-3.283h3.095v-2.1h-3.095V6.291l-3.207 1.2v2.232h-2.12v2.1ZM126.767 19.383c3.264 0 4.934-1.2 4.934-3.188 0-1.65-.92-2.607-3.227-2.87l-2.757-.281c-.863-.094-1.201-.319-1.201-.769 0-.544.582-.788 1.82-.788 1.688 0 2.87.413 3.826 1.276l1.501-1.538c-1.05-1.144-2.889-1.782-5.158-1.782-3.151 0-4.915 1.107-4.915 3.02 0 1.65 1.088 2.607 3.377 2.888l2.494.244c1.07.112 1.351.319 1.351.844 0 .581-.581.863-1.894.863-1.951 0-3.283-.563-4.165-1.614l-1.725 1.463c1.163 1.463 3.132 2.232 5.739 2.232Z" fill="currentColor"/>
  </symbol>
</svg>
  