<svg width="32" height="32" viewBox="0 0 32 32" fill="none" xmlns="http://www.w3.org/2000/svg">
  <symbol id="item" viewBox="0 0 32 32"  fill="none">
    <path fill-rule="evenodd" clip-rule="evenodd" d="M16.426 23.414a7.183 7.183 0 0 0 7.186-7.18 7.183 7.183 0 0 0-7.186-7.18 7.183 7.183 0 0 0-7.185 7.18 7.183 7.183 0 0 0 7.185 7.18Zm0 2.386c5.288 0 9.574-4.283 9.574-9.566 0-5.284-4.286-9.567-9.574-9.567-5.287 0-9.573 4.284-9.573 9.567s4.286 9.566 9.573 9.566Z" fill="currentColor"/><path d="M10.629 15.45a4.627 4.627 0 0 0 4.628-4.625A4.627 4.627 0 0 0 10.63 6.2 4.627 4.627 0 0 0 6 10.825a4.627 4.627 0 0 0 4.629 4.625Z" fill="#1CA30F"/>
  </symbol>
</svg>
  