<svg width="32" height="32" viewBox="0 0 32 32" fill="none" xmlns="http://www.w3.org/2000/svg">
  <symbol id="item" viewBox="0 0 32 32"  fill="none">
    <path opacity=".8" d="M13.33 5a6.506 6.506 0 0 1 6.509 6.495 6.506 6.506 0 0 1-6.495 6.508 6.506 6.506 0 0 1-6.508-6.495v-.007A6.491 6.491 0 0 1 13.331 5Z" fill="#06BEE1"/><path opacity=".8" d="M16.928 25.919a6.495 6.495 0 1 0 0-12.99 6.495 6.495 0 0 0 0 12.99Z" fill="#1768AC"/><path opacity=".8" d="M10.128 16.235a5.127 5.127 0 1 1 0 10.255 5.127 5.127 0 1 1 0-10.255Z" fill="#2541B2"/><path opacity=".8" d="M23.436 22.151a3.563 3.563 0 1 0 0-7.127 3.563 3.563 0 0 0 0 7.127Z" fill="#03256C"/>
  </symbol>
</svg>
  