<svg width="156" height="25" viewBox="0 0 156 25" fill="none" xmlns="http://www.w3.org/2000/svg">
  <symbol id="item" viewBox="0 0 156 25"  fill="none">
    <g clip-path="url(#a)"><path d="M30.462 8.254c0 .6.294 1.09.882 1.473.588.382 1.535.707 2.846.977 1.707.357 2.972.927 3.805 1.71.83.777 1.246 1.82 1.246 3.122 0 1.302-.527 2.47-1.576 3.415-1.05.944-2.446 1.414-4.181 1.414-1.838 0-3.303-.458-4.39-1.369-1.085-.915-1.788-2.133-2.094-3.663l2.56-1.327c.457 2.5 1.756 3.751 3.903 3.751.866 0 1.564-.195 2.087-.586.522-.391.784-.899.784-1.527 0-.69-.307-1.226-.915-1.617-.608-.391-1.576-.72-2.899-.99-1.486-.3-2.662-.844-3.528-1.63-.865-.786-1.302-1.818-1.302-3.09 0-1.273.498-2.346 1.498-3.136 1-.786 2.307-1.181 3.928-1.181 2.94 0 4.896 1.347 5.867 4.042L36.69 9.39c-.617-1.86-1.83-2.787-3.638-2.787-.735 0-1.348.138-1.842.416-.494.279-.738.686-.738 1.223m10.003 16.377V8.903h2.78V10.5c.384-.57.91-1.031 1.588-1.38a4.695 4.695 0 0 1 2.205-.529c1.425 0 2.622.533 3.585 1.593.964 1.065 1.445 2.495 1.445 4.292 0 1.796-.506 3.169-1.523 4.258-1.012 1.086-2.266 1.63-3.748 1.63-1.482 0-2.67-.56-3.552-1.684v5.956h-2.78v-.017Zm7.896-12.447c-.588-.628-1.323-.944-2.205-.944-.882 0-1.617.312-2.204.931-.588.624-.882 1.39-.882 2.304 0 .915.294 1.68.882 2.304.587.62 1.322.932 2.204.932.882 0 1.617-.312 2.205-.932.588-.62.882-1.389.882-2.304 0-.915-.294-1.676-.882-2.291Zm14.568-2.021c1.192 1.031 1.788 2.47 1.788 4.312 0 1.843-.592 3.282-1.776 4.325-1.184 1.044-2.584 1.56-4.201 1.56-1.617 0-3.017-.52-4.201-1.56-1.184-1.04-1.776-2.482-1.776-4.325 0-1.842.592-3.285 1.776-4.325 1.184-1.04 2.584-1.56 4.2-1.56 1.618 0 3.014.525 4.19 1.573Zm-6.418 6.67a3.19 3.19 0 0 0 2.229.878c.853 0 1.592-.295 2.217-.886.625-.59.939-1.372.939-2.345 0-.974-.314-1.755-.94-2.35a3.12 3.12 0 0 0-2.216-.886 3.12 3.12 0 0 0-2.217.886c-.625.59-.94 1.372-.94 2.35 0 .977.311 1.759.928 2.358m16.29-8.11-.012 2.6c-.277-.171-1.008-.084-1.33-.084-.81 0-1.454.312-1.932.932-.478.623-.719 1.41-.719 2.37v5.502h-2.78V8.903h2.78v1.776c.678-1.393 1.69-2.088 3.042-2.088.34 0 .654.046.948.133m1.371.18V5.891h2.78v3.011h2.385v2.292H76.96v5.077c0 1.048.465 1.572 1.388 1.572.323 0 .633-.045.927-.133l.265 2.338a5.185 5.185 0 0 1-1.853.316c-2.34 0-3.508-1.181-3.508-3.552v-7.91Zm8.966 2.74c0 .69.862 1.214 2.58 1.572 1.279.27 2.21.678 2.79 1.222.58.545.87 1.285.87 2.213 0 1.077-.393 1.967-1.169 2.661-.78.695-1.829 1.044-3.152 1.044-1.322 0-2.31-.316-3.143-.944a5.809 5.809 0 0 1-1.866-2.403l2.229-1.44c.249.732.612 1.319 1.09 1.751.478.433 1.053.653 1.731.653.457 0 .858-.108 1.2-.324.348-.216.52-.52.52-.91 0-.358-.185-.65-.552-.866-.368-.216-.964-.407-1.788-.574-2.544-.507-3.818-1.672-3.818-3.48 0-1.003.396-1.793 1.192-2.371.796-.578 1.756-.865 2.891-.865s2.09.224 2.793.674c.698.449 1.274 1.16 1.73 2.133l-2.008 1.214c-.498-1.301-1.323-1.954-2.47-1.954-1.147 0-1.654.328-1.654.99m7.231 8.4V4.32h2.78v5.955c.866-1.122 2.067-1.684 3.598-1.684 1.53 0 2.764.528 3.748 1.585.984 1.056 1.478 2.49 1.478 4.304 0 1.813-.506 3.227-1.523 4.292-1.017 1.064-2.266 1.593-3.748 1.593-1.56 0-2.744-.562-3.552-1.685v1.369h-2.78v-.009Zm3.463-3.235c.587.599 1.33.898 2.229.898.898 0 1.637-.304 2.217-.91.58-.608.87-1.381.87-2.325 0-.944-.29-1.718-.87-2.325-.58-.607-1.319-.911-2.217-.911-.898 0-1.637.304-2.217.91-.58.608-.87 1.382-.87 2.325 0 .944.286 1.722.862 2.338m19.928-1.664h-8.427c.09.853.404 1.53.948 2.034.543.503 1.228.753 2.049.753 1.352 0 2.36-.683 3.022-2.046l2.074 1.214c-1.029 2.17-2.744 3.256-5.141 3.256-1.559 0-2.886-.549-3.981-1.65-1.094-1.103-1.641-2.513-1.641-4.235 0-1.721.555-3.152 1.666-4.246 1.11-1.093 2.474-1.638 4.091-1.638s2.838.52 3.838 1.56 1.498 2.378 1.498 4.008v.99h.004Zm-5.426-4.404a2.89 2.89 0 0 0-1.886.661c-.539.441-.906.998-1.115 1.676h5.867c-.13-.736-.449-1.306-.947-1.717-.498-.412-1.139-.62-1.919-.62Zm6.3-1.842V5.884h2.781v3.01h2.38v2.292h-2.38v5.078c0 1.048.461 1.572 1.388 1.572.322 0 .633-.046.927-.133l.265 2.337a5.185 5.185 0 0 1-1.854.316c-2.339 0-3.507-1.18-3.507-3.551v-7.91Zm7.705 11.141c.812 0 1.47-.67 1.47-1.497 0-.828-.658-1.497-1.47-1.497-.813 0-1.47.67-1.47 1.497 0 .827.657 1.497 1.47 1.497ZM125.015 8.674h3.017v1.502h.025c.898-1.102 2.119-1.664 3.36-1.664 1.474 0 2.646.562 3.315 1.805h.045c.919-1.198 2.323-1.805 3.936-1.805 2.417 0 3.961 1.477 3.961 4.995v6.637h-3.018v-5.91c0-1.83-.551-2.977-1.955-2.977-1.266 0-2.303 1.102-2.303 3.165v5.722h-3.017v-5.91c0-1.83-.601-2.977-1.981-2.977-1.38 0-2.372 1.102-2.372 3.165v5.722h-3.017V8.674h.004ZM147.704 14.276l-3.867-5.601h3.454l2.075 3.28h.044l2.095-3.28h3.43l-3.846 5.626 3.911 5.84h-3.315l-2.258-3.282h-.045l-2.303 3.281h-3.266l3.891-5.86v-.004Z" fill="currentColor"/><path fill-rule="evenodd" clip-rule="evenodd" d="M12.5 21.095a8.631 8.631 0 1 0-8.632-8.631 8.631 8.631 0 0 0 8.632 8.63Zm0 2.868c6.351 0 11.5-5.149 11.5-11.5C24 6.114 18.851.964 12.5.964S1 6.113 1 12.464c0 6.35 5.149 11.499 11.5 11.499Z" fill="currentColor"/><path d="M5.554 11.082a5.557 5.557 0 0 0 5.555-5.56c0-3.07-2.487-5.56-5.555-5.56A5.557 5.557 0 0 0 0 5.523c0 3.07 2.487 5.56 5.554 5.56Z" fill="#49B356"/></g><defs><clipPath id="a"><path fill="currentColor" d="M0 0h156v25H0z"/></clipPath></defs>
  </symbol>
</svg>
  