
<svg width="1em" height="1em"    viewBox="0 0 198 263" fill="none" xmlns="http://www.w3.org/2000/svg">
<symbol id="item"
width="1em"
height="1em"
viewBox="0 0 198 263"
fill="none"
>
<path d="M81.143 254.626c0-4.55 3.88-8.27 8.63-8.27 4.75 0 8.63 3.72 8.63 8.27 0 4.55-3.88 8.27-8.63 8.27-4.75 0-8.63-3.51-8.63-8.27Zm0-245.98c0-4.55 3.88-8.27 8.63-8.27 4.75 0 8.63 3.72 8.63 8.27 0 4.55-3.88 8.27-8.63 8.27-4.75 0-8.63-3.52-8.63-8.27Zm-43.15 41.34c0-4.55 3.88-8.27 8.63-8.27 4.75 0 8.63 3.72 8.63 8.27 0 4.55-3.88 8.27-8.63 8.27-4.75 0-8.63-3.52-8.63-8.27Zm3.67 41.34c0-2.69 2.16-4.75 4.96-4.75s4.96 2.07 4.96 4.75c0 2.69-2.16 4.75-4.96 4.75s-4.96-2.06-4.96-4.75Zm-41 0c0-1.45 1.29-2.69 2.8-2.69 1.51 0 2.8 1.24 2.8 2.69s-1.29 2.69-2.8 2.69c-1.51 0-2.8-1.03-2.8-2.69Zm0 38.66c0-1.45 1.29-2.69 2.8-2.69 1.51 0 2.8 1.24 2.8 2.69s-1.29 2.69-2.8 2.69c-1.51 0-2.8-1.25-2.8-2.69Zm0 44.03c0-1.45 1.29-2.69 2.8-2.69 1.51 0 2.8 1.24 2.8 2.69s-1.29 2.69-2.8 2.69c-1.51 0-2.8-1.04-2.8-2.69Zm41-44.03c0-2.69 2.16-4.75 4.96-4.75s4.96 2.07 4.96 4.75c0 2.69-2.16 4.75-4.96 4.75s-4.96-2.07-4.96-4.75Zm0 44.03c0-2.69 2.16-4.75 4.96-4.75s4.96 2.07 4.96 4.75c0 2.69-2.16 4.75-4.96 4.75s-4.96-2.07-4.96-4.75Zm-3.67 41.34c0-4.55 3.88-8.27 8.63-8.27 4.75 0 8.63 3.72 8.63 8.27 0 4.55-3.88 8.27-8.63 8.27-4.75 0-8.63-3.52-8.63-8.27Zm37.32-167.44c0-8.27 6.69-13.85 14.46-13.85 8.63 0 14.46 6.41 14.46 13.85 0 7.44-6.69 13.85-14.46 13.85-8.63 0-14.46-6.41-14.46-13.85Zm47.47 2.07c0-8.27 6.69-13.85 14.46-13.85 8.63 0 14.46 6.41 14.46 13.85 0 7.44-6.69 13.85-14.46 13.85-8.63 0-14.46-6.41-14.46-13.85Zm0 165.37c0-8.27 6.69-13.85 14.46-13.85 8.63 0 14.46 6.41 14.46 13.85 0 7.44-6.69 13.85-14.46 13.85-8.63 0-14.46-6.41-14.46-13.85Zm0-84.75c0-8.27 6.69-13.85 14.46-13.85 8.63 0 14.46 6.41 14.46 13.85 0 7.44-6.69 13.85-14.46 13.85-8.63 0-14.46-6.41-14.46-13.85Zm-47.47 82.68c0-8.27 6.69-13.85 14.46-13.85 8.63 0 14.46 6.41 14.46 13.85 0 7.44-6.69 13.85-14.46 13.85-8.63 0-14.46-6.41-14.46-13.85Zm-2.59-126.09c0-9.92 7.98-16.33 17.04-16.33 10.36 0 17.04 7.65 17.04 16.33 0 8.68-7.98 16.33-17.04 16.33-10.35.2-17.04-7.44-17.04-16.33Zm0 86.82c0-9.92 7.98-16.33 17.04-16.33 10.36 0 17.04 7.65 17.04 16.33 0 8.68-7.98 16.33-17.04 16.33-10.35.2-17.04-7.45-17.04-16.33Zm87.82-76.69c-4.75-8.48-1.51-18.4 7.12-23.15 8.85-4.55 19.2-1.45 24.16 6.82 4.75 8.48 1.51 18.4-7.12 23.15-2.37 1.45-5.61 2.27-7.98 2.27-6.69.21-13.16-3.72-16.18-9.09Zm-88.25 41.54c-5.39-9.51-1.73-20.67 8.2-25.84 9.92-5.17 21.58-1.65 26.97 7.85 5.39 9.51 1.73 20.67-8.2 25.84-2.8 1.65-6.26 2.69-9.06 2.69-7.12-.2-14.46-4.33-17.91-10.54Zm85.01 42.79c-5.83-10.13-1.94-22.12 8.63-27.7 10.57-5.58 23.09-1.86 28.91 8.27 5.83 10.13 1.94 22.12-8.63 27.7-2.8 1.86-6.69 2.69-9.71 2.69-7.55 0-15.32-4.55-19.2-10.96Z" fill="#FF5111"/>
</symbol>
</svg>
  