<svg width="144" height="24" viewBox="0 0 144 24" fill="none" xmlns="http://www.w3.org/2000/svg">
  <symbol id="item" viewBox="0 0 144 24"  fill="none">
    <g clip-path="url(#a)"><path fill-rule="evenodd" clip-rule="evenodd" d="M10.734 15.234c0 2.487 2.055 4.503 4.59 4.503 2.535 0 4.59-2.016 4.59-4.503 0-2.488-2.055-4.504-4.59-4.504-2.535 0-4.59 2.016-4.59 4.504ZM4.469 0c2.468 0 4.468 2.024 4.468 4.52v10.33c0 3.846 2.79 6.582 6.387 6.582.332 0 .657-.025.975-.073a10.024 10.024 0 0 1-6.351 2.248c-5.494 0-9.948-4.37-9.948-9.76V4.52C0 2.024 2 0 4.469 0Z" fill="#D82E2E"/><path d="M29.527 19.794H40.83v-2.955H33.2V5.225h-3.672v14.569ZM45.998 20.101c1.908 0 3.488-.882 4.165-2.421v2.114h3.385V9.534H50.04v5.273c0 1.478-.883 2.709-2.667 2.709-1.293 0-2.216-.698-2.216-2.503v-5.48h-3.509v6.177c0 2.811 1.437 4.391 4.35 4.391ZM61.146 20.101c3.222 0 5.54-1.456 6.053-3.775l-3.447-.657c-.308 1.252-1.21 1.909-2.626 1.909-1.744 0-2.811-1.109-2.811-2.996 0-1.806 1.047-2.873 2.79-2.873 1.416 0 2.34.657 2.627 1.888l3.467-.595c-.534-2.421-2.688-3.776-5.991-3.776-4 0-6.483 2.052-6.483 5.417 0 3.324 2.523 5.458 6.421 5.458ZM76.897 19.794h3.94l-4.35-6.361 4.205-3.9h-4.308L71.952 13.7V4.917h-3.508v14.877h3.508v-2.791l1.95-1.662 2.995 4.453Z" fill="currentColor"/><path d="M82.842 24c2.954 0 4.657-1.067 5.806-3.735l4.637-10.731h-3.632l-2.36 6.3c-.164.492-.246.759-.307 1.128h-.061a5.13 5.13 0 0 0-.329-1.15l-2.462-6.278h-3.877l4.882 10.239-.082.308c-.41.862-1.333 1.293-2.564 1.293-.41 0-.8-.021-1.395-.124v2.606c.574.103 1.292.144 1.744.144ZM98.994 20.101c3.57 0 5.396-1.313 5.396-3.488 0-1.806-1.005-2.852-3.529-3.14l-3.016-.307c-.944-.103-1.313-.349-1.313-.841 0-.595.636-.862 1.99-.862 1.847 0 3.14.451 4.186 1.395l1.641-1.682c-1.149-1.252-3.16-1.95-5.642-1.95-3.447 0-5.375 1.21-5.375 3.304 0 1.805 1.19 2.852 3.693 3.16l2.728.266c1.17.124 1.477.35 1.477.924 0 .636-.635.944-2.072.944-2.133 0-3.59-.616-4.554-1.765l-1.888 1.6c1.272 1.601 3.426 2.442 6.278 2.442ZM109.188 4.917h-3.509v14.877h3.509V4.917ZM116.874 20.101c3.734 0 6.422-1.99 6.422-5.458 0-3.467-2.688-5.417-6.422-5.417-3.734 0-6.402 1.95-6.402 5.417 0 3.468 2.668 5.458 6.402 5.458Zm0-2.36c-1.745 0-2.852-1.087-2.852-3.098 0-2.01 1.107-3.057 2.852-3.057 1.743 0 2.851 1.046 2.851 3.057s-1.108 3.099-2.851 3.099ZM123.054 11.832h2.319v4.37c0 2.483 1.373 3.817 4.513 3.817a9.34 9.34 0 0 0 2.38-.287v-2.668c-.39.083-.861.165-1.456.165-1.293 0-1.93-.595-1.93-1.806v-3.59h3.386v-2.3h-3.386V5.78l-3.507 1.313v2.442h-2.319v2.298ZM138.603 20.101c3.57 0 5.397-1.313 5.397-3.488 0-1.806-1.006-2.852-3.53-3.14l-3.015-.307c-.944-.103-1.314-.349-1.314-.841 0-.595.637-.862 1.991-.862 1.846 0 3.139.451 4.185 1.395l1.641-1.682c-1.148-1.252-3.159-1.95-5.641-1.95-3.447 0-5.376 1.21-5.376 3.304 0 1.805 1.19 2.852 3.693 3.16l2.728.266c1.171.124 1.478.35 1.478.924 0 .636-.635.944-2.072.944-2.134 0-3.59-.616-4.555-1.765l-1.887 1.6c1.272 1.601 3.426 2.442 6.277 2.442Z" fill="currentColor"/></g><defs><clipPath id="a"><path fill="currentColor" d="M0 0h144v24H0z"/></clipPath></defs>
  </symbol>
</svg>
  