<svg width="32" height="32" viewBox="0 0 32 32" fill="none" xmlns="http://www.w3.org/2000/svg">
  <symbol id="item" viewBox="0 0 32 32"  fill="none">
    <path d="m18.721 15.474-1.691-.676c-1.24-.451-1.993-.827-2.331-1.128-.338-.263-.489-.714-.489-1.278 0-1.278 1.053-2.18 2.594-2.18 1.015 0 1.88.488 2.67 1.466l3.044-.94C21.24 8.37 19.36 7.167 16.917 7.167c-1.617 0-3.008.526-4.21 1.503-1.128.978-1.692 2.256-1.692 3.797 0 2.143 1.278 3.722 3.797 4.661l1.88.715c1.165.45 1.954.827 2.33 1.165.338.3.526.752.526 1.353 0 .64-.225 1.203-.676 1.692-.49.601-1.203.864-2.18.864-1.542 0-2.444-.714-3.497-2.744l-3.007.94c1.24 3.27 3.42 4.887 6.428 4.887 1.767 0 3.233-.526 4.436-1.616 1.278-1.128 1.917-2.52 1.917-4.21-.075-2.143-1.316-3.572-4.248-4.7Z" fill="currentColor"/><path d="M14.549 8.293c0 1.278-1.015 2.256-2.293 2.256-1.279 0-2.256-1.015-2.256-2.293 0-.602.226-1.128.677-1.58.45-.45.977-.676 1.579-.676a2.278 2.278 0 0 1 2.293 2.293Z" fill="#F7CD00"/>
  </symbol>
</svg>
  