
<svg width="1em" height="1em"    viewBox="0 0 26 31" fill="none" xmlns="http://www.w3.org/2000/svg">
<symbol id="item"
width="1em"
height="1em"
viewBox="0 0 26 31"
fill="none"
>
<path fill-rule="evenodd" clip-rule="evenodd" d="M14.014 19.885c0 3.247 2.683 5.879 5.993 5.879 3.31 0 5.993-2.632 5.993-5.88 0-3.246-2.683-5.878-5.993-5.878-3.31 0-5.993 2.632-5.993 5.879ZM5.834 0c3.223 0 5.835 2.642 5.835 5.9v13.485c0 5.02 3.641 8.59 8.338 8.59.433 0 .858-.032 1.274-.095a13.089 13.089 0 0 1-8.293 2.935C5.815 30.815 0 25.11 0 18.075V5.9C0 2.642 2.612 0 5.834 0Z" fill="#D82E2E"/>
</symbol>
</svg>
  