<svg width="32" height="32" viewBox="0 0 32 32" fill="none" xmlns="http://www.w3.org/2000/svg">
  <symbol id="item" viewBox="0 0 32 32"  fill="none">
    <path d="M24.844 17.81a9.162 9.162 0 0 0-4.75-8.03c.323-.625.5-1.323.5-2.073a4.376 4.376 0 0 0-1.74-3.51c-1.031-.803-2.062-1.303-4-1.178-1.958.125-3.073 1.323-3.073 1.323a3.028 3.028 0 0 0-.886 2.125 3.057 3.057 0 0 0 1.47 2.635c.197.115.447.021.53-.187l.272-.74.03-.093v-.01c-.051-.022-.093-.042-.134-.063a2.322 2.322 0 0 1-.803-3.094c.094-.167.917-1.406 3.188-1.208.344.041.719.125 1.104.28.177.063.344.147.51.24.01 0 .01.01.021.01a3.363 3.363 0 0 1 1.698 2.928c0 1.01-.343 2.02-1.041 2.635l-.01.01c-.105.095-.21.188-.334.282-.406.24-.896.396-1.375.48V6.736a.434.434 0 0 0-.313-.416l-1.135-.344v4.678h-.99c-.25 0-.479.156-.573.395l-.291.792 1.719.02a9.878 9.878 0 0 1 3.041.626c.292.104.573.229.844.375a6.477 6.477 0 0 1 3.031 3.427 6.495 6.495 0 0 1 .334 3.323 6.97 6.97 0 0 1-.594 2.02 7.034 7.034 0 0 1-6.375 4.053c-1.5 0-2.896-.469-4.042-1.271a6.384 6.384 0 0 1-.52-.406 5.912 5.912 0 0 1-.636-.615c-.75-.854-1.23-1.948-1.23-3.135 0-2.625 2.126-4.584 4.75-4.584.626 0 1.22.115 1.761.334.51.218.948.53 1.292.916.364.47.593 1.063.593 1.709 0 .625-.208 1.208-.562 1.666-.458.532-1.115.604-1.417.615a3.294 3.294 0 0 1-.979-.177.4.4 0 0 0-.5.24l-.177.479c.396.208.844.333 1.313.375h.03c.043 0 .084 0 .136.01h.271c.063 0 .125-.01.188-.01 2.062-.198 3.729-2.115 3.729-4.303a4.342 4.342 0 0 0-2.75-4.041c-.063-.031-.125-.052-.188-.073a6.395 6.395 0 0 0-2.291-.417c-1.98 0-3.75.886-4.938 2.282A6.433 6.433 0 0 0 7 19.477v.188c0 .052 0 .104.01.156v.01l.032.376c.396 3.843 3.635 6.833 7.53 6.854v1.625l1.178-.302a.366.366 0 0 0 .27-.344v-.896c4.897-.167 8.824-4.187 8.824-9.125v-.208Z" fill="url(#a)"/><defs><linearGradient id="a" x1="8.112" y1="4.856" x2="22.249" y2="27.546" gradientUnits="userSpaceOnUse"><stop stop-color="#CDAE81"/><stop offset="1" stop-color="#B29265"/></linearGradient></defs>
  </symbol>
</svg>
  