
<svg width="1em" height="auto"    viewBox="0 0 1245 263" fill="none" xmlns="http://www.w3.org/2000/svg">
<symbol id="item"
width="1em"
height="auto"
viewBox="0 0 1245 263"
fill="none"
>
<path d="M81.143 254.626c0-4.55 3.88-8.27 8.63-8.27 4.75 0 8.63 3.72 8.63 8.27 0 4.55-3.88 8.27-8.63 8.27-4.75 0-8.63-3.51-8.63-8.27Zm0-245.98c0-4.55 3.88-8.27 8.63-8.27 4.75 0 8.63 3.72 8.63 8.27 0 4.55-3.88 8.27-8.63 8.27-4.75 0-8.63-3.52-8.63-8.27Zm-43.15 41.34c0-4.55 3.88-8.27 8.63-8.27 4.75 0 8.63 3.72 8.63 8.27 0 4.55-3.88 8.27-8.63 8.27-4.75 0-8.63-3.52-8.63-8.27Zm3.67 41.34c0-2.69 2.16-4.75 4.96-4.75s4.96 2.07 4.96 4.75c0 2.69-2.16 4.75-4.96 4.75s-4.96-2.06-4.96-4.75Zm-41 0c0-1.45 1.29-2.69 2.8-2.69 1.51 0 2.8 1.24 2.8 2.69s-1.29 2.69-2.8 2.69c-1.51 0-2.8-1.03-2.8-2.69Zm0 38.66c0-1.45 1.29-2.69 2.8-2.69 1.51 0 2.8 1.24 2.8 2.69s-1.29 2.69-2.8 2.69c-1.51 0-2.8-1.25-2.8-2.69Zm0 44.03c0-1.45 1.29-2.69 2.8-2.69 1.51 0 2.8 1.24 2.8 2.69s-1.29 2.69-2.8 2.69c-1.51 0-2.8-1.04-2.8-2.69Zm41-44.03c0-2.69 2.16-4.75 4.96-4.75s4.96 2.07 4.96 4.75c0 2.69-2.16 4.75-4.96 4.75s-4.96-2.07-4.96-4.75Zm0 44.03c0-2.69 2.16-4.75 4.96-4.75s4.96 2.07 4.96 4.75c0 2.69-2.16 4.75-4.96 4.75s-4.96-2.07-4.96-4.75Zm-3.67 41.34c0-4.55 3.88-8.27 8.63-8.27 4.75 0 8.63 3.72 8.63 8.27 0 4.55-3.88 8.27-8.63 8.27-4.75 0-8.63-3.52-8.63-8.27Zm37.32-167.44c0-8.27 6.69-13.85 14.46-13.85 8.63 0 14.46 6.41 14.46 13.85 0 7.44-6.69 13.85-14.46 13.85-8.63 0-14.46-6.41-14.46-13.85Zm47.47 2.07c0-8.27 6.69-13.85 14.46-13.85 8.63 0 14.46 6.41 14.46 13.85 0 7.44-6.69 13.85-14.46 13.85-8.63 0-14.46-6.41-14.46-13.85Zm0 165.37c0-8.27 6.69-13.85 14.46-13.85 8.63 0 14.46 6.41 14.46 13.85 0 7.44-6.69 13.85-14.46 13.85-8.63 0-14.46-6.41-14.46-13.85Zm0-84.75c0-8.27 6.69-13.85 14.46-13.85 8.63 0 14.46 6.41 14.46 13.85 0 7.44-6.69 13.85-14.46 13.85-8.63 0-14.46-6.41-14.46-13.85Zm-47.47 82.68c0-8.27 6.69-13.85 14.46-13.85 8.63 0 14.46 6.41 14.46 13.85 0 7.44-6.69 13.85-14.46 13.85-8.63 0-14.46-6.41-14.46-13.85Zm-2.59-126.09c0-9.92 7.98-16.33 17.04-16.33 10.36 0 17.04 7.65 17.04 16.33 0 8.68-7.98 16.33-17.04 16.33-10.35.2-17.04-7.44-17.04-16.33Zm0 86.82c0-9.92 7.98-16.33 17.04-16.33 10.36 0 17.04 7.65 17.04 16.33 0 8.68-7.98 16.33-17.04 16.33-10.35.2-17.04-7.45-17.04-16.33Zm87.82-76.69c-4.75-8.48-1.51-18.4 7.12-23.15 8.85-4.55 19.2-1.45 24.16 6.82 4.75 8.48 1.51 18.4-7.12 23.15-2.37 1.45-5.61 2.27-7.98 2.27-6.69.21-13.16-3.72-16.18-9.09Zm-88.25 41.54c-5.39-9.51-1.73-20.67 8.2-25.84 9.92-5.17 21.58-1.65 26.97 7.85 5.39 9.51 1.73 20.67-8.2 25.84-2.8 1.65-6.26 2.69-9.06 2.69-7.12-.2-14.46-4.33-17.91-10.54Zm85.01 42.79c-5.83-10.13-1.94-22.12 8.63-27.7 10.57-5.58 23.09-1.86 28.91 8.27 5.83 10.13 1.94 22.12-8.63 27.7-2.8 1.86-6.69 2.69-9.71 2.69-7.55 0-15.32-4.55-19.2-10.96Z" fill="#FF5111"/><path d="M350.243 194.02h-52.69V68.49h50.74c13.79 0 24.16 3.12 31.12 9.37 6.95 6.25 10.43 14.5 10.43 24.75 0 6.6-1.62 12.32-4.86 17.15-3.24 4.83-7.69 8.43-13.35 10.78 6.25 2.12 11.2 5.69 14.85 10.7 3.65 5.01 5.48 10.87 5.48 17.59 0 11.08-3.59 19.71-10.78 25.9-7.19 6.2-17.5 9.29-30.94 9.29Zm-.17-53.75h-31.47v34.3h31.29c13.67 0 20.51-5.72 20.51-17.15 0-5.42-1.77-9.64-5.3-12.64-3.54-3-8.55-4.51-15.03-4.51Zm-1.59-52.33h-29.88v32.71h29.88c13.2 0 19.8-5.42 19.8-16.27 0-5.19-1.65-9.22-4.95-12.11-3.3-2.88-8.25-4.33-14.85-4.33Zm54.39 33.06v-18.74h34.48v91.76h-21.04V121h-13.44Zm24.05-34.12c-3.89 0-7.07-1.21-9.55-3.62-2.48-2.42-3.71-5.51-3.71-9.28 0-3.89 1.24-7.07 3.71-9.55 2.48-2.48 5.66-3.71 9.55-3.71 3.77 0 6.9 1.24 9.37 3.71 2.47 2.47 3.71 5.66 3.71 9.55 0 3.77-1.24 6.87-3.71 9.28-2.47 2.41-5.6 3.62-9.37 3.62Zm75.61 88.4v18.21c-2.59.71-6.25 1.06-10.96 1.06-17.92 0-26.87-9.02-26.87-27.05v-48.44h-13.97v-16.8h13.97V78.4h21.04v23.87h17.15v16.8h-17.15v46.32c0 7.19 3.42 10.78 10.25 10.78l6.54-.89Zm7.72-27.05c0-13.55 4.3-24.96 12.91-34.21 8.6-9.25 19.57-13.88 32.88-13.88 12.61 0 22.66 3.57 30.14 10.7 7.48 7.13 11.93 15.35 13.35 24.66h-21.57c-1.3-5.07-3.92-9.13-7.87-12.2-3.95-3.06-8.69-4.6-14.23-4.6-7.43 0-13.38 2.74-17.86 8.22-4.48 5.48-6.72 12.58-6.72 21.3s2.24 15.79 6.72 21.22c4.48 5.43 10.43 8.13 17.86 8.13 5.54 0 10.28-1.53 14.23-4.6 3.95-3.06 6.57-7.13 7.87-12.2h21.57c-1.41 9.31-5.86 17.53-13.35 24.66-7.49 7.13-17.53 10.7-30.14 10.7-13.32 0-24.28-4.63-32.88-13.88-8.61-9.24-12.91-20.58-12.91-34.02Zm161.18 6.54c-20.51 0-32.53.94-36.07 2.83-3.65 1.89-5.48 5.3-5.48 10.25 0 7.9 5.24 11.85 15.74 11.85 17.21 0 25.81-6.72 25.81-20.16v-4.77Zm-29.53 41.37c-10.84 0-18.92-2.65-24.22-7.96-5.3-5.3-7.96-12.32-7.96-21.04 0-11.2 4.95-19.04 14.85-23.51 2.36-1.06 4.63-1.86 6.81-2.39 2.18-.53 6.63-1.06 13.35-1.59s15.62-.8 26.7-.8v-4.6c0-11.2-6.54-16.8-19.62-16.8-11.43 0-17.92 4.54-19.45 13.61h-20.51c.94-8.96 4.69-16.35 11.23-22.19 6.54-5.83 16.29-8.75 29.26-8.75 13.08 0 22.95 3.01 29.61 9.02s9.99 14.44 9.99 25.28V194h-19.45v-9.72c-6.6 7.91-16.8 11.86-30.59 11.86Zm104.96 0c-12.61 0-22.1-2.95-28.46-8.84-6.36-5.89-9.84-13.44-10.43-22.63h20.33c.24 4.24 2.06 7.66 5.48 10.25 3.42 2.59 8.19 3.89 14.32 3.89 5.42 0 9.61-.94 12.55-2.83 2.95-1.89 4.42-4.42 4.42-7.6 0-3.54-1.8-6.16-5.39-7.87s-7.99-2.98-13.17-3.8c-5.19-.83-10.37-1.92-15.56-3.27-5.19-1.36-9.58-4.04-13.17-8.04-3.59-4.01-5.39-9.49-5.39-16.44 0-8.01 3.33-14.82 9.99-20.42 6.66-5.6 15.47-8.4 26.43-8.4 6.25 0 11.76.97 16.53 2.92 4.77 1.94 8.49 4.51 11.14 7.69 2.65 3.18 4.66 6.42 6.01 9.72 1.36 3.3 2.15 6.66 2.39 10.08h-20.16c-.35-3.65-1.92-6.78-4.69-9.37-2.77-2.59-6.69-3.89-11.76-3.89-5.07 0-8.96.97-11.67 2.92-2.71 1.95-4.07 4.63-4.07 8.04 0 3.18 1.8 5.6 5.39 7.25 3.59 1.65 7.99 2.89 13.17 3.71 5.19.83 10.37 1.97 15.56 3.45 5.19 1.48 9.58 4.27 13.17 8.4 3.59 4.13 5.39 9.61 5.39 16.44 0 8.25-3.33 15.09-9.99 20.51-6.64 5.42-16.1 8.13-28.36 8.13Zm46.62-75.14v-18.74h34.48v91.76h-21.04V121h-13.44Zm24.04-34.12c-3.89 0-7.07-1.21-9.55-3.62-2.48-2.41-3.71-5.51-3.71-9.28 0-3.89 1.24-7.07 3.71-9.55 2.47-2.48 5.66-3.71 9.55-3.71 3.77 0 6.9 1.24 9.37 3.71 2.48 2.48 3.71 5.66 3.71 9.55 0 3.77-1.24 6.87-3.71 9.28-2.47 2.41-5.59 3.62-9.37 3.62Zm53.87 15.38v12.2c2.12-4.01 5.63-7.4 10.52-10.17 4.89-2.77 10.81-4.15 17.77-4.15 10.84 0 19.24 3.3 25.19 9.9 5.95 6.6 8.93 15.38 8.93 26.34v57.64h-21.04v-54.98c0-6.48-1.5-11.58-4.51-15.29-3.01-3.71-7.57-5.57-13.7-5.57-6.72 0-11.99 2-15.82 6.01s-5.75 9.55-5.75 16.62v53.22h-21.04v-91.76h19.45v-.01Zm127.24 93.88c-14.14 0-25.61-4.66-34.39-13.97-8.78-9.31-13.17-20.63-13.17-33.95 0-13.32 4.39-24.66 13.17-34.03 8.78-9.37 20.24-14.06 34.39-14.06 14.257 0 25.777 4.69 34.557 14.06 8.78 9.37 13.17 20.71 13.17 34.03s-4.39 24.63-13.17 33.95c-8.78 9.32-20.3 13.97-34.557 13.97Zm-26.52-47.91c0 8.72 2.5 15.79 7.51 21.22s11.34 8.13 19.01 8.13c7.777 0 14.167-2.71 19.177-8.13 5.01-5.42 7.51-12.49 7.51-21.22 0-8.84-2.5-15.97-7.51-21.39s-11.4-8.13-19.177-8.13c-7.66 0-14 2.71-19.01 8.13-5.01 5.42-7.51 12.55-7.51 21.39Zm101.237 47.21c-4.24 0-7.75-1.33-10.52-3.98-2.77-2.65-4.15-6.1-4.15-10.34 0-4.13 1.38-7.57 4.15-10.34 2.77-2.77 6.28-4.15 10.52-4.15 4.13 0 7.57 1.38 10.34 4.15 2.77 2.77 4.15 6.22 4.15 10.34 0 4.24-1.36 7.69-4.07 10.34-2.7 2.65-6.17 3.98-10.42 3.98Zm23.77-74.44v-18.74h34.48v91.76h-21.04V121h-13.44Zm24.04-34.12c-3.89 0-7.07-1.21-9.55-3.62-2.48-2.42-3.71-5.51-3.71-9.28 0-3.89 1.24-7.07 3.71-9.55 2.48-2.48 5.66-3.71 9.55-3.71 3.77 0 6.9 1.24 9.37 3.71 2.48 2.48 3.71 5.66 3.71 9.55 0 3.77-1.24 6.87-3.71 9.28-2.47 2.41-5.6 3.62-9.37 3.62Zm76.1 109.26c-14.14 0-25.61-4.66-34.39-13.97-8.78-9.31-13.17-20.63-13.17-33.95 0-13.32 4.39-24.66 13.17-34.03 8.78-9.37 20.24-14.06 34.39-14.06 14.26 0 25.78 4.69 34.56 14.06 8.78 9.37 13.17 20.71 13.17 34.03s-4.39 24.63-13.17 33.95c-8.78 9.32-20.3 13.97-34.56 13.97Zm-26.52-47.91c0 8.72 2.5 15.79 7.51 21.22s11.34 8.13 19.01 8.13c7.78 0 14.17-2.71 19.18-8.13 5.01-5.42 7.51-12.49 7.51-21.22 0-8.84-2.5-15.97-7.51-21.39s-11.4-8.13-19.18-8.13c-7.66 0-14 2.71-19.01 8.13-5.01 5.42-7.51 12.55-7.51 21.39Z" fill="currentColor"/>
</symbol>
</svg>
  