<svg width="134" height="24" viewBox="0 0 134 24" fill="none" xmlns="http://www.w3.org/2000/svg">
  <symbol id="item" viewBox="0 0 134 24"  fill="none">
    <path fill-rule="evenodd" clip-rule="evenodd" d="M12.5 21.132a8.631 8.631 0 1 0 0-17.262 8.631 8.631 0 1 0 0 17.262Zm0 2.868C18.851 24 24 18.852 24 12.5c0-6.35-5.149-11.498-11.5-11.498S1 6.15 1 12.5C1 18.85 6.149 24 12.5 24Z" fill="currentColor"/><path d="M5.554 11.12a5.557 5.557 0 0 0 5.555-5.56C11.109 2.49 8.622 0 5.554 0A5.557 5.557 0 0 0 0 5.56c0 3.07 2.487 5.56 5.554 5.56Z" fill="#49B356"/><path d="M31.226 8.439c0 .55.288 1.014.835 1.361.548.348 1.44.637 2.65.898 1.585.319 2.766.87 3.543 1.564.778.724 1.153 1.68 1.153 2.868 0 1.216-.49 2.288-1.47 3.128-.979.869-2.275 1.303-3.888 1.303-1.7 0-3.082-.434-4.09-1.274-1.008-.84-1.671-1.97-1.959-3.36l2.39-1.217c.433 2.288 1.643 3.447 3.63 3.447.807 0 1.47-.174 1.93-.55.49-.348.72-.84.72-1.42 0-.637-.288-1.13-.864-1.477-.576-.347-1.469-.666-2.708-.898-1.382-.29-2.477-.781-3.283-1.506-.807-.724-1.21-1.68-1.21-2.838 0-1.188.46-2.172 1.411-2.896.922-.724 2.16-1.072 3.659-1.072 2.736 0 4.55 1.245 5.472 3.707l-2.131 1.246c-.576-1.71-1.7-2.578-3.4-2.578-.69 0-1.267.116-1.727.377-.433.29-.663.666-.663 1.187ZM40.53 23.5V9.018h2.592v1.477c.346-.52.864-.955 1.47-1.274a4.532 4.532 0 0 1 2.044-.492c1.325 0 2.449.492 3.342 1.477.893.985 1.353 2.288 1.353 3.939 0 1.622-.46 2.925-1.41 3.91-.951 1.014-2.104 1.506-3.486 1.506-1.383 0-2.477-.521-3.313-1.564V23.5H40.53Zm7.374-11.47c-.548-.579-1.239-.868-2.045-.868-.836 0-1.498.29-2.045.868a2.961 2.961 0 0 0-.836 2.115c0 .84.288 1.535.836 2.114.547.58 1.238.869 2.045.869.835 0 1.497-.29 2.045-.869.547-.58.835-1.274.835-2.114-.029-.84-.288-1.535-.835-2.114Zm13.567-1.853c1.123.956 1.67 2.288 1.67 3.968 0 1.68-.547 3.012-1.642 3.968-1.094.956-2.42 1.448-3.917 1.448-1.498 0-2.823-.492-3.917-1.448-1.095-.956-1.642-2.288-1.642-3.968 0-1.68.547-3.012 1.642-3.968 1.094-.956 2.42-1.448 3.917-1.448 1.498 0 2.794.492 3.889 1.448Zm-5.963 6.14c.576.55 1.267.811 2.074.811.807 0 1.498-.26 2.074-.81.576-.551.864-1.275.864-2.173 0-.898-.288-1.622-.864-2.172-.576-.55-1.267-.811-2.074-.811-.806 0-1.498.26-2.074.81-.576.55-.864 1.275-.864 2.173 0 .898.288 1.622.864 2.172Zm15.18-7.444v2.404c-.26-.144-.95-.086-1.239-.086-.748 0-1.353.29-1.785.868-.433.58-.663 1.304-.663 2.173V19.3H64.41V9.018H67v1.622c.634-1.274 1.584-1.911 2.852-1.911.259 0 .547.058.835.144Zm1.267.145v-2.78h2.593v2.78h2.218v2.115h-2.218v4.663c0 .956.432 1.448 1.296 1.448.288 0 .576-.03.864-.116l.26 2.143c-.52.203-1.095.29-1.729.29-2.189 0-3.255-1.1-3.255-3.273v-5.155l-.029-2.115Zm8.354 2.52c0 .637.806 1.13 2.42 1.448 1.18.261 2.044.637 2.592 1.13.547.492.806 1.187.806 2.027 0 .985-.374 1.796-1.094 2.462-.72.637-1.7.956-2.938.956-1.181 0-2.16-.29-2.939-.869a5.176 5.176 0 0 1-1.728-2.201l2.074-1.332c.23.666.576 1.216 1.008 1.621.432.406.98.609 1.613.609.432 0 .807-.087 1.124-.29.317-.203.49-.492.49-.84 0-.319-.173-.608-.52-.782-.345-.203-.892-.376-1.67-.521-2.362-.464-3.543-1.535-3.543-3.215 0-.927.375-1.651 1.124-2.172.749-.522 1.642-.782 2.707-.782 1.095 0 1.959.202 2.593.608.633.405 1.18 1.072 1.613 1.97l-1.873 1.129c-.46-1.188-1.238-1.796-2.304-1.796-1.037-.058-1.555.232-1.555.84Zm6.74 7.733V4.79h2.592v5.474c.807-1.043 1.93-1.564 3.342-1.564 1.411 0 2.563.492 3.485 1.448.922.985 1.382 2.288 1.382 3.968 0 1.65-.46 2.983-1.41 3.939-.951.985-2.104 1.477-3.486 1.477-1.44 0-2.564-.521-3.313-1.564v1.274H87.05v.03Zm3.255-2.954c.547.55 1.238.84 2.074.84.835 0 1.526-.29 2.074-.84.547-.55.806-1.274.806-2.143 0-.87-.26-1.593-.806-2.143-.548-.55-1.239-.84-2.074-.84-.836 0-1.527.29-2.074.84-.547.55-.807 1.274-.807 2.143 0 .84.26 1.564.807 2.143Zm18.55-1.535h-7.864c.087.782.375 1.42.893 1.883.519.463 1.152.695 1.901.695 1.268 0 2.189-.637 2.823-1.883l1.93 1.13c-.951 1.998-2.564 3.012-4.782 3.012-1.44 0-2.678-.492-3.715-1.506-1.009-1.014-1.527-2.317-1.527-3.91s.518-2.897 1.555-3.91c1.037-1.014 2.305-1.506 3.803-1.506 1.44 0 2.65.492 3.571 1.448.922.956 1.412 2.201 1.412 3.678v.869Zm-5.041-4.055c-.662 0-1.267.203-1.757.608-.49.406-.835.927-1.037 1.535h5.473c-.115-.666-.432-1.216-.893-1.593-.461-.376-1.066-.55-1.786-.55Zm5.876-1.709v-2.78h2.593v2.78h2.217v2.115h-2.217v4.663c0 .956.432 1.448 1.296 1.448.288 0 .576-.03.864-.116l.259 2.143c-.518.203-1.094.29-1.728.29-2.189 0-3.255-1.1-3.255-3.273v-5.155l-.029-2.115Zm7.172 10.253c.749 0 1.383-.608 1.383-1.39 0-.753-.605-1.39-1.383-1.39-.749 0-1.382.608-1.382 1.39 0 .782.633 1.39 1.382 1.39Zm2.535 0V9.018h2.593v10.253h-2.593Zm12.933-9.094c1.124.956 1.671 2.288 1.671 3.968 0 1.68-.547 3.012-1.642 3.968-1.094.956-2.419 1.448-3.917 1.448-1.498 0-2.823-.492-3.918-1.448-1.094-.956-1.641-2.288-1.641-3.968 0-1.68.547-3.012 1.641-3.968 1.095-.956 2.42-1.448 3.918-1.448 1.498 0 2.765.492 3.888 1.448Zm-5.991 6.14c.576.55 1.267.811 2.074.811.806 0 1.498-.26 2.074-.81.576-.551.864-1.275.864-2.173 0-.898-.288-1.622-.864-2.172-.576-.55-1.268-.811-2.074-.811-.807 0-1.498.26-2.074.81-.576.55-.864 1.275-.864 2.173 0 .898.288 1.622.864 2.172Z" fill="currentColor"/><path d="M119.25 6.18c0 .784.634 1.393 1.384 1.393.75 0 1.385-.61 1.385-1.393s-.635-1.392-1.385-1.392a1.37 1.37 0 0 0-1.384 1.393Z" fill="#49B356"/>
  </symbol>
</svg>
  