<svg width="79" height="24" viewBox="0 0 79 24" fill="none" xmlns="http://www.w3.org/2000/svg">
  <symbol id="item" viewBox="0 0 79 24"  fill="none">
    <g clip-path="url(#a)" fill="currentColor"><path d="M0 13.5C0 19.299 4.703 24 10.5 24 16.3 24 21 19.299 21 13.5S16.3 3 10.5 3C4.703 3 0 7.701 0 13.5ZM20 3a3 3 0 1 0 6 0 3 3 0 0 0-6 0ZM26.226 18.677h1.74l1.049-5.418c.146-.767.305-1.982.305-1.982h.027s.013 1.123.067 1.823l.451 5.577h1.807l2.617-5.59c.371-.793.783-1.81.783-1.81h.027s-.306 1.163-.465 1.982l-1.049 5.418h1.767l1.832-9.449h-2.736l-2.285 4.903c-.544 1.175-.97 2.444-.97 2.444h-.013s-.013-1.36-.119-2.683l-.359-4.664H28.06l-1.833 9.449Zm13.614.199c2.325 0 3.786-1.903 3.786-4.07 0-2.01-1.408-3.093-3.148-3.093-2.324 0-3.839 1.863-3.839 4.004 0 2.074 1.422 3.158 3.201 3.158Zm-1.42-3.054c0-1.308.597-2.775 1.965-2.775 1.049 0 1.461.82 1.461 1.705 0 1.295-.584 2.788-1.966 2.788-1.049 0-1.46-.793-1.46-1.717Zm8.473 3.053c2.324 0 3.785-1.903 3.785-4.07 0-2.009-1.407-3.092-3.147-3.092-2.324 0-3.84 1.863-3.84 4.004 0 2.074 1.422 3.158 3.202 3.158Zm-1.421-3.053c0-1.308.598-2.775 1.966-2.775 1.048 0 1.46.82 1.46 1.705 0 1.295-.584 2.788-1.965 2.788-1.05 0-1.461-.793-1.461-1.717Zm8.009-3.925h-1.74l-1.315 6.78h1.78l.717-3.7c.186-.992.784-1.758 1.62-1.758.758 0 1.103.489.93 1.387l-.797 4.07h1.78l.824-4.28c.305-1.586-.478-2.683-1.833-2.683-.97 0-1.54.422-2.125 1.255h-.04l.199-1.07Zm3.812 6.78h1.966l.663-3.423h2.311c2.125 0 3.573-1.216 3.573-3.237 0-1.771-1.209-2.789-3.028-2.789h-3.652l-1.833 9.448Zm3.48-7.797h1.752c.864 0 1.316.462 1.316 1.228 0 1.124-.81 1.6-1.7 1.6h-1.913l.544-2.828Zm8.447 7.797h1.687v-.066c-.106-.159-.146-.476-.053-.939l.637-3.25c.372-1.97-.903-2.696-2.59-2.696-1.753 0-2.83.846-3.054 2.233h1.593c.16-.674.651-.964 1.395-.964.677 0 1.063.265 1.063.753 0 .674-.492.727-1.767.832-1.66.133-3.095.463-3.095 2.26 0 1.401 1.116 1.996 2.165 1.996.983 0 1.488-.463 1.9-.9h.026c-.026.251.006.504.093.74Zm-2.47-1.996c0-.925.943-.885 1.594-1.004a5.323 5.323 0 0 0 1.301-.344l-.212 1.07c-.134.622-.73 1.203-1.66 1.203-.598 0-1.023-.317-1.023-.925Zm4.17 4.216h1.116c1.315 0 1.899-.529 2.576-1.89l3.521-7.11h-1.807l-1.408 3.08a26.175 26.175 0 0 0-.624 1.533h-.027s-.106-.912-.2-1.533l-.464-3.08h-1.86l.982 4.824c.123.499.198 1.007.226 1.52 0 .846-.425 1.255-1.182 1.255h-.57l-.279 1.401Z"/></g><defs><clipPath id="a"><path fill="currentColor" d="M0 0h79v24H0z"/></clipPath></defs>
  </symbol>
</svg>
  