
<svg width="1em" height="1em"    viewBox="0 0 16 16" fill="none" xmlns="http://www.w3.org/2000/svg">
<symbol id="item"
width="1em"
height="1em"
viewBox="0 0 16 16"
fill="none"
>
<rect width=".65" height="13.031" rx=".325" transform="matrix(-.2661 -.96394 -.9678 .2517 14.491 6.629)" fill="currentColor"/><rect opacity=".25" width=".65" height="13.614" rx=".325" transform="matrix(-.2661 -.96394 -.9678 .2517 15.228 9.33)" fill="currentColor"/><rect opacity=".75" width=".65" height="12.307" rx=".325" transform="matrix(-.2661 -.96394 -.9678 .2517 15.727 10.632)" fill="currentColor"/><rect opacity=".5" width=".65" height="14.487" rx=".325" transform="matrix(-.2661 -.96394 -.9678 .2517 14.634 12.354)" fill="currentColor"/><rect opacity=".75" width=".65" height="7.914" rx=".325" transform="matrix(-.2661 -.96394 -.9678 .2517 16 13.524)" fill="currentColor"/><rect opacity=".5" width=".65" height="10.844" rx=".325" transform="matrix(-.2661 -.96394 -.9678 .2517 10.734 6.158)" fill="currentColor"/><rect opacity=".75" width=".65" height="14.566" rx=".325" transform="matrix(-.2661 -.96394 -.9678 .2517 14.852 3.623)" fill="currentColor"/><rect opacity=".5" width=".65" height="9.96" rx=".325" transform="matrix(-.2661 -.96394 -.9678 .2517 15.319 2.03)" fill="currentColor"/><rect opacity=".5" width=".65" height="12.583" rx=".325" transform="matrix(-.2661 -.96394 -.9678 .2517 12.35 8.616)" fill="currentColor"/><rect opacity=".25" width=".65" height="13.275" rx=".325" transform="matrix(-.2661 -.96394 -.9678 .2517 13.086 1.255)" fill="currentColor"/><rect opacity=".5" width=".65" height="9.184" rx=".325" transform="matrix(-.2661 -.96394 -.9678 .2517 9.964 .627)" fill="currentColor"/>
</symbol>
</svg>
  