<svg xmlns="http://www.w3.org/2000/svg" width="21" height="15" viewBox="0 0 21 15"><path style="fill:#fff;fill-opacity:1;stroke:none" d="M0 0h21v15H0z"/><path style="stroke:none;fill-rule:nonzero;fill:#dc171d;fill-opacity:1" d="M8.168 0h4.664v15H8.168Zm0 0"/><path style="stroke:none;fill-rule:nonzero;fill:#012a87;fill-opacity:1" d="M0 5h21v5H0Zm0 0"/><path style="stroke:none;fill-rule:nonzero;fill:#fff;fill-opacity:1" d="m10.5 5.207-.18.598.278.093Zm0 0"/><path style="stroke:none;fill-rule:nonzero;fill:#fff;fill-opacity:1" d="m10.5 5.207.18.598-.278.093Zm0 0"/><path style="stroke:none;fill-rule:nonzero;fill:#fff;fill-opacity:1" d="M11.055 5.64h-.582v.313Zm0 0"/><path style="stroke:none;fill-rule:nonzero;fill:#fff;fill-opacity:1" d="m11.055 5.64-.473.368-.172-.254Zm0 0"/><path style="stroke:none;fill-rule:nonzero;fill:#fff;fill-opacity:1" d="m9.945 5.64.473.368.172-.254Zm0 0"/><path style="stroke:none;fill-rule:nonzero;fill:#fff;fill-opacity:1" d="M9.945 5.64h.582v.313Zm0 0"/><path style="stroke:none;fill-rule:nonzero;fill:#fff;fill-opacity:1" d="m10.844 6.34-.18-.594-.277.094Zm0 0"/><path style="stroke:none;fill-rule:nonzero;fill:#fff;fill-opacity:1" d="m10.844 6.34-.473-.367.172-.254Zm0 0"/><path style="stroke:none;fill-rule:nonzero;fill:#fff;fill-opacity:1" d="m10.156 6.34.473-.367-.172-.254Zm0 0"/><path style="stroke:none;fill-rule:nonzero;fill:#fff;fill-opacity:1" d="m10.156 6.34.18-.594.277.094ZM13.61 6.59l-.18.594.277.097Zm0 0"/><path style="stroke:none;fill-rule:nonzero;fill:#fff;fill-opacity:1" d="m13.61 6.59.183.594-.277.097Zm0 0"/><path style="stroke:none;fill-rule:nonzero;fill:#fff;fill-opacity:1" d="M14.164 7.02h-.582v.312Zm0 0"/><path style="stroke:none;fill-rule:nonzero;fill:#fff;fill-opacity:1" d="m14.164 7.02-.469.367-.172-.25Zm0 0"/><path style="stroke:none;fill-rule:nonzero;fill:#fff;fill-opacity:1" d="m13.055 7.02.472.367.172-.25Zm0 0"/><path style="stroke:none;fill-rule:nonzero;fill:#fff;fill-opacity:1" d="M13.055 7.02h.586v.312Zm0 0"/><path style="stroke:none;fill-rule:nonzero;fill:#fff;fill-opacity:1" d="m13.953 7.719-.18-.594-.277.098Zm0 0"/><path style="stroke:none;fill-rule:nonzero;fill:#fff;fill-opacity:1" d="m13.953 7.719-.473-.367.172-.254Zm0 0"/><path style="stroke:none;fill-rule:nonzero;fill:#fff;fill-opacity:1" d="m13.27 7.719.468-.367-.168-.254Zm0 0"/><path style="stroke:none;fill-rule:nonzero;fill:#fff;fill-opacity:1" d="m13.27 7.719.18-.594.277.098ZM11.79 8.543l-.18.594.277.097Zm0 0"/><path style="stroke:none;fill-rule:nonzero;fill:#fff;fill-opacity:1" d="m11.79 8.543.179.594-.278.097Zm0 0"/><path style="stroke:none;fill-rule:nonzero;fill:#fff;fill-opacity:1" d="M12.344 8.973h-.582v.312Zm0 0"/><path style="stroke:none;fill-rule:nonzero;fill:#fff;fill-opacity:1" d="m12.344 8.973-.473.367-.172-.25Zm0 0"/><path style="stroke:none;fill-rule:nonzero;fill:#fff;fill-opacity:1" d="m11.234 8.973.473.367.172-.25Zm0 0"/><path style="stroke:none;fill-rule:nonzero;fill:#fff;fill-opacity:1" d="M11.234 8.973h.582v.312Zm0 0"/><path style="stroke:none;fill-rule:nonzero;fill:#fff;fill-opacity:1" d="m12.133 9.672-.18-.594-.277.098Zm0 0"/><path style="stroke:none;fill-rule:nonzero;fill:#fff;fill-opacity:1" d="m12.133 9.672-.473-.367.172-.254Zm0 0"/><path style="stroke:none;fill-rule:nonzero;fill:#fff;fill-opacity:1" d="m11.445 9.672.473-.367-.172-.254Zm0 0"/><path style="stroke:none;fill-rule:nonzero;fill:#fff;fill-opacity:1" d="m11.445 9.672.18-.594.277.098ZM7.39 6.59l.18.594-.277.097Zm0 0"/><path style="stroke:none;fill-rule:nonzero;fill:#fff;fill-opacity:1" d="m7.39 6.59-.183.594.277.097Zm0 0"/><path style="stroke:none;fill-rule:nonzero;fill:#fff;fill-opacity:1" d="M6.836 7.02h.582v.312Zm0 0"/><path style="stroke:none;fill-rule:nonzero;fill:#fff;fill-opacity:1" d="m6.836 7.02.469.367.172-.25Zm0 0"/><path style="stroke:none;fill-rule:nonzero;fill:#fff;fill-opacity:1" d="m7.945 7.02-.472.367-.172-.25Zm0 0"/><path style="stroke:none;fill-rule:nonzero;fill:#fff;fill-opacity:1" d="M7.945 7.02H7.36v.312Zm0 0"/><path style="stroke:none;fill-rule:nonzero;fill:#fff;fill-opacity:1" d="m7.047 7.719.18-.594.277.098Zm0 0"/><path style="stroke:none;fill-rule:nonzero;fill:#fff;fill-opacity:1" d="m7.047 7.719.473-.367-.172-.254Zm0 0"/><path style="stroke:none;fill-rule:nonzero;fill:#fff;fill-opacity:1" d="m7.73 7.719-.468-.367.168-.254Zm0 0"/><path style="stroke:none;fill-rule:nonzero;fill:#fff;fill-opacity:1" d="m7.73 7.719-.18-.594-.277.098ZM9.21 8.543l.18.594-.277.097Zm0 0"/><path style="stroke:none;fill-rule:nonzero;fill:#fff;fill-opacity:1" d="m9.21 8.543-.179.594.278.097Zm0 0"/><path style="stroke:none;fill-rule:nonzero;fill:#fff;fill-opacity:1" d="M8.656 8.973h.582v.312Zm0 0"/><path style="stroke:none;fill-rule:nonzero;fill:#fff;fill-opacity:1" d="m8.656 8.973.473.367.172-.25Zm0 0"/><path style="stroke:none;fill-rule:nonzero;fill:#fff;fill-opacity:1" d="m9.766 8.973-.473.367-.172-.25Zm0 0"/><path style="stroke:none;fill-rule:nonzero;fill:#fff;fill-opacity:1" d="M9.766 8.973h-.582v.312Zm0 0"/><path style="stroke:none;fill-rule:nonzero;fill:#fff;fill-opacity:1" d="m8.867 9.672.18-.594.277.098Zm0 0"/><path style="stroke:none;fill-rule:nonzero;fill:#fff;fill-opacity:1" d="m8.867 9.672.473-.367-.172-.254Zm0 0"/><path style="stroke:none;fill-rule:nonzero;fill:#fff;fill-opacity:1" d="m9.555 9.672-.473-.367.172-.254Zm0 0"/><path style="stroke:none;fill-rule:nonzero;fill:#fff;fill-opacity:1" d="m9.555 9.672-.18-.594-.277.098Zm0 0"/></svg>