<svg xmlns="http://www.w3.org/2000/svg" width="21" height="15" viewBox="0 0 21 15"><defs><clipPath id="a"><path d="M7 4h7v7H7Zm0 0"/></clipPath><clipPath id="b"><path d="m11.172 2.453-.031-.015Zm.933 9.89-.125-.081-.375.101-.328-.218v.082l-.078-.114.094-.097-.016-.301h.11l.066-.2.074-.035-.062-.101.094-.035-.012-.149-.094-.05.121-.016-.074-.363-.188-.2-.113.047.047.168h-.387l-.328-.152-.125-.063-.62-.152-.048.082-.218.02h-.063l-.094.164-.265-.2-.141.051.02.133-.348-.2-.012.13-.344-.164-.015.015-.168.07-.035-.136-.407-.215-.433-.148-.078-.383v-.086l-.168-.332.074-.399-.14-.05-.048-.168.235-.032h-.11l.016-.25-.344.118-.011-.102-.047.184-.188.082-.125-.13-.047-.136-.046-.266.105-.086.047.067.035-.078-.082-.602.129.031.058-.628.02-.02.121-.082-.152.016-.063-.149.282-.336-.254-.05-.188.199-.074-.23-.11.167-.03-.117-.137.05-.094.052.074-.301-.063-.035.036-.086-.082.023-.012-.172h.293l-.016-.078h-.09l-.175-.32-.094.035-.059-.117-.035.101-.09-.07.09-.066-.137-.047.032-.086-.114-.067-.027-.265-.113-.035.066-.047-.125-.352.012-.113.047-.352h.093l-.027.215.235.352.168.234.343.098v.015l.047-.082.188.235.093.113.047.05.528.27.093.051.035.027.247.32.14-.07 1.028-.25.03-.199.075.035-.012-.066.047-.031.219-.086v-.23l.074-.087.094-.382-.047-.153.219-.562v-.352h.11l.124-.2.156-.05.016-.183.215-.278.094.047.441-.168.14-.152-.034-.164h.093l.047.265.48.121.083-.086.03.016.423.098.011-.012.22-.137.015.149.187.023.153.13.035.034.23.215.282.02.171.027.215-.078.02.148.094.067.074-.149h.094l.066.383.074.016-.015.133-.012.015h.027l.188-.098.172-.066.48.18.094-.031.035.183.125.02-.031-.086h.105l.031.183.13-.148.292.2.078.362-.125.036.032.28.046.087.329.883-.172.164-.016.199-.14.187.156.114-.063.05.14.149.216.035.066.102.059.128.156.07.187-.136.125.016-.152.234.152.438-.187.164.082.265-.047.235.094.132.246.051-.246.363.043.067.062.07-.105.18.105.07-.547.48.125.333-.03.199-.188.066-.047.172-.215.098-.066.215-.043.117.218.117-.328.031.078.184-.156.164-.25.05-.078.153.188.098-.356.351.105.184-.277-.066-.312.199-.422.215-.094.152-.062-.05.062-.15-.281.114-.059-.113-.422.261-.187-.062-.34.062-.094-.046m.016-9.657-.035-.035h-.012v.02h.031Zm-.11 9.606.094.05Zm0 0 .094.05M5.547 5.47l.02-.117-.172-.118Zm-.375-.918h-.094l.047.148.047-.129Zm-.047-.149-.047.047.094.07Zm.422 1.067.02-.117-.172-.118Zm-.375-.918h-.094l.047.148.047-.129Zm-.047-.149-.047.047.094.07Zm.422 1.067.02-.117-.172-.118Zm-.375-.918h-.094l.047.148.047-.129Zm-.047-.149-.047.047.094.07Zm.281-.351v-.13l-.105.032.011.082Zm-.12-.364.027.063.066-.148-.094.07Zm.12.364v-.13l-.105.032.011.082Zm-.12-.364.027.063.066-.148-.094.07Zm.12.364v-.13l-.105.032.011.082Zm-.12-.364.027.063.066-.148-.094.07Zm1.663 5.094-.11.016-.093.133.156-.032Zm0 0-.11.016-.093.133.156-.032Zm0 0-.11.016-.093.133.156-.032Zm.114-3.383-.036-.027-.093-.05.093.05Zm0 0"/></clipPath><clipPath id="c"><path d="M5 2h11v11H5Zm0 0"/></clipPath><clipPath id="d"><path d="m11.172 2.453-.031-.015Zm.933 9.89-.125-.081-.375.101-.328-.218v.082l-.078-.114.094-.097-.016-.301h.11l.066-.2.074-.035-.062-.101.094-.035-.012-.149-.094-.05.121-.016-.074-.363-.188-.2-.113.047.047.168h-.387l-.328-.152-.125-.063-.62-.152-.048.082-.218.02h-.063l-.094.164-.265-.2-.141.051.02.133-.348-.2-.012.13-.344-.164-.015.015-.168.07-.035-.136-.407-.215-.433-.148-.078-.383v-.086l-.168-.332.074-.399-.14-.05-.048-.168.235-.032h-.11l.016-.25-.344.118-.011-.102-.047.184-.188.082-.125-.13-.047-.136-.046-.266.105-.086.047.067.035-.078-.082-.602.129.031.058-.628.02-.02.121-.082-.152.016-.063-.149.282-.336-.254-.05-.188.199-.074-.23-.11.167-.03-.117-.137.05-.094.052.074-.301-.063-.035.036-.086-.082.023-.012-.172h.293l-.016-.078h-.09l-.175-.32-.094.035-.059-.117-.035.101-.09-.07.09-.066-.137-.047.032-.086-.114-.067-.027-.265-.113-.035.066-.047-.125-.352.012-.113.047-.352h.093l-.027.215.235.352.168.234.343.098v.015l.047-.082.188.235.093.113.047.05.528.27.093.051.035.027.247.32.14-.07 1.028-.25.03-.199.075.035-.012-.066.047-.031.219-.086v-.23l.074-.087.094-.382-.047-.153.219-.562v-.352h.11l.124-.2.156-.05.016-.183.215-.278.094.047.441-.168.14-.152-.034-.164h.093l.047.265.48.121.083-.086.03.016.423.098.011-.012.22-.137.015.149.187.023.153.13.035.034.23.215.282.02.171.027.215-.078.02.148.094.067.074-.149h.094l.066.383.074.016-.015.133-.012.015h.027l.188-.098.172-.066.48.18.094-.031.035.183.125.02-.031-.086h.105l.031.183.13-.148.292.2.078.362-.125.036.032.28.046.087.329.883-.172.164-.016.199-.14.187.156.114-.063.05.14.149.216.035.066.102.059.128.156.07.187-.136.125.016-.152.234.152.438-.187.164.082.265-.047.235.094.132.246.051-.246.363.043.067.062.07-.105.18.105.07-.547.48.125.333-.03.199-.188.066-.047.172-.215.098-.066.215-.043.117.218.117-.328.031.078.184-.156.164-.25.05-.078.153.188.098-.356.351.105.184-.277-.066-.312.199-.422.215-.094.152-.062-.05.062-.15-.281.114-.059-.113-.422.261-.187-.062-.34.062-.094-.046m.016-9.657-.035-.035h-.012v.02h.031Zm-.11 9.606.094.05Zm0 0 .094.05M5.547 5.47l.02-.117-.172-.118Zm-.375-.918h-.094l.047.148.047-.129Zm-.047-.149-.047.047.094.07Zm.422 1.067.02-.117-.172-.118Zm-.375-.918h-.094l.047.148.047-.129Zm-.047-.149-.047.047.094.07Zm.422 1.067.02-.117-.172-.118Zm-.375-.918h-.094l.047.148.047-.129Zm-.047-.149-.047.047.094.07Zm.281-.351v-.13l-.105.032.011.082Zm-.12-.364.027.063.066-.148-.094.07Zm.12.364v-.13l-.105.032.011.082Zm-.12-.364.027.063.066-.148-.094.07Zm.12.364v-.13l-.105.032.011.082Zm-.12-.364.027.063.066-.148-.094.07Zm1.663 5.094-.11.016-.093.133.156-.032Zm0 0-.11.016-.093.133.156-.032Zm0 0-.11.016-.093.133.156-.032Zm.114-3.383-.036-.027-.093-.05.093.05Zm0 0"/></clipPath><clipPath id="e"><path d="M5 2h12v11H5Zm0 0"/></clipPath><clipPath id="f"><path d="m11.172 2.453-.031-.015Zm.933 9.89-.125-.081-.375.101-.328-.218v.082l-.078-.114.094-.097-.016-.301h.11l.066-.2.074-.035-.062-.101.094-.035-.012-.149-.094-.05.121-.016-.074-.363-.188-.2-.113.047.047.168h-.387l-.328-.152-.125-.063-.62-.152-.048.082-.218.02h-.063l-.094.164-.265-.2-.141.051.02.133-.348-.2-.012.13-.344-.164-.015.015-.168.07-.035-.136-.407-.215-.433-.148-.078-.383v-.086l-.168-.332.074-.399-.14-.05-.048-.168.235-.032h-.11l.016-.25-.344.118-.011-.102-.047.184-.188.082-.125-.13-.047-.136-.046-.266.105-.086.047.067.035-.078-.082-.602.129.031.058-.628.02-.02.121-.082-.152.016-.063-.149.282-.336-.254-.05-.188.199-.074-.23-.11.167-.03-.117-.137.05-.094.052.074-.301-.063-.035.036-.086-.082.023-.012-.172h.293l-.016-.078h-.09l-.175-.32-.094.035-.059-.117-.035.101-.09-.07.09-.066-.137-.047.032-.086-.114-.067-.027-.265-.113-.035.066-.047-.125-.352.012-.113.047-.352h.093l-.027.215.235.352.168.234.343.098v.015l.047-.082.188.235.093.113.047.05.528.27.093.051.035.027.247.32.14-.07 1.028-.25.03-.199.075.035-.012-.066.047-.031.219-.086v-.23l.074-.087.094-.382-.047-.153.219-.562v-.352h.11l.124-.2.156-.05.016-.183.215-.278.094.047.441-.168.14-.152-.034-.164h.093l.047.265.48.121.083-.086.03.016.423.098.011-.012.22-.137.015.149.187.023.153.13.035.034.23.215.282.02.171.027.215-.078.02.148.094.067.074-.149h.094l.066.383.074.016-.015.133-.012.015h.027l.188-.098.172-.066.48.18.094-.031.035.183.125.02-.031-.086h.105l.031.183.13-.148.292.2.078.362-.125.036.032.28.046.087.329.883-.172.164-.016.199-.14.187.156.114-.063.05.14.149.216.035.066.102.059.128.156.07.187-.136.125.016-.152.234.152.438-.187.164.082.265-.047.235.094.132.246.051-.246.363.043.067.062.07-.105.18.105.07-.547.48.125.333-.03.199-.188.066-.047.172-.215.098-.066.215-.043.117.218.117-.328.031.078.184-.156.164-.25.05-.078.153.188.098-.356.351.105.184-.277-.066-.312.199-.422.215-.094.152-.062-.05.062-.15-.281.114-.059-.113-.422.261-.187-.062-.34.062-.094-.046m.016-9.657-.035-.035h-.012v.02h.031Zm-.11 9.606.094.05Zm0 0 .094.05M5.547 5.47l.02-.117-.172-.118Zm-.375-.918h-.094l.047.148.047-.129Zm-.047-.149-.047.047.094.07Zm.422 1.067.02-.117-.172-.118Zm-.375-.918h-.094l.047.148.047-.129Zm-.047-.149-.047.047.094.07Zm.422 1.067.02-.117-.172-.118Zm-.375-.918h-.094l.047.148.047-.129Zm-.047-.149-.047.047.094.07Zm.281-.351v-.13l-.105.032.011.082Zm-.12-.364.027.063.066-.148-.094.07Zm.12.364v-.13l-.105.032.011.082Zm-.12-.364.027.063.066-.148-.094.07Zm.12.364v-.13l-.105.032.011.082Zm-.12-.364.027.063.066-.148-.094.07Zm1.663 5.094-.11.016-.093.133.156-.032Zm0 0-.11.016-.093.133.156-.032Zm0 0-.11.016-.093.133.156-.032Zm.114-3.383-.036-.027-.093-.05.093.05Zm0 0"/></clipPath></defs><path style="fill:#072b5f;fill-opacity:1;stroke:none" d="M0 0h21v15H0z"/><path style="fill:none;stroke-width:2;stroke-linecap:butt;stroke-linejoin:miter;stroke:#fff;stroke-opacity:1;stroke-miterlimit:4" d="M182.98 133.528c0 27.291-22.173 49.444-49.48 49.444s-49.48-22.153-49.48-49.444c0-27.361 22.173-49.514 49.48-49.514s49.48 22.153 49.48 49.514Zm0 0" transform="matrix(.0525 0 0 .05625 3.491 -.019)"/><path style="fill:none;stroke-width:1.99;stroke-linecap:butt;stroke-linejoin:miter;stroke:#fff;stroke-opacity:1;stroke-miterlimit:4" d="M225.539 133.667c0 50.833-41.22 92.083-92.039 92.083-50.818 0-92.039-41.25-92.039-92.083 0-50.834 41.22-92.084 92.039-92.084 50.818 0 92.039 41.25 92.039 92.084Zm0 0" transform="matrix(.0525 0 0 .05625 3.491 -.019)"/><path style="fill:none;stroke-width:1.987;stroke-linecap:butt;stroke-linejoin:miter;stroke:#fff;stroke-opacity:1;stroke-miterlimit:4" d="M265.643 133.667c0 72.986-59.152 132.152-132.143 132.152S1.357 206.653 1.357 133.667C1.357 60.68 60.51 1.583 133.5 1.583s132.143 59.098 132.143 132.084Zm0 0" transform="matrix(.0525 0 0 .05625 3.491 -.019)"/><path style="fill:none;stroke-width:2;stroke-linecap:butt;stroke-linejoin:miter;stroke:#fff;stroke-opacity:1;stroke-miterlimit:4" d="M-99.982 133.528h466.964M133.5.014V367" transform="matrix(.0525 0 0 .05625 3.491 -.019)"/><path style="fill:none;stroke-width:2;stroke-linecap:butt;stroke-linejoin:miter;stroke:#fff;stroke-opacity:1;stroke-miterlimit:4" d="m.027 133.484 467.047.02M133.504-99.976l.02 467" transform="matrix(.04547 .02813 -.02625 .04871 7.935 -2.767)"/><path style="fill:none;stroke-width:2;stroke-linecap:butt;stroke-linejoin:miter;stroke:#fff;stroke-opacity:1;stroke-miterlimit:4" d="m-99.976 133.504 467 .02m-233.54-233.551.02 467.047" transform="matrix(.02625 .04871 -.04547 .02813 13.065 -2.767)"/><path style="stroke:none;fill-rule:nonzero;fill:#fff;fill-opacity:1" d="m11.176 2.438-.031-.012Zm.937 9.914-.125-.082-.375.101-.328-.219v.082l-.078-.113.09-.101-.012-.301h.106l.066-.2.074-.035-.058-.101.093-.035-.015-.149-.094-.05.121-.016-.074-.363-.188-.2-.109.047.047.168h-.39l-.329-.152-.125-.063-.625-.152-.047.082-.218.02h-.06l-.093.164-.27-.2-.14.051.02.133-.348-.2-.012.13-.344-.164-.015.015-.172.07-.031-.136-.407-.215-.437-.148-.078-.387v-.086l-.168-.328.074-.403-.14-.05-.047-.168.234-.032h-.11l.016-.25-.34.114-.015-.098-.047.184-.188.082-.125-.133-.047-.133-.046-.266.105-.086.047.067.035-.082-.082-.602.129.032.059-.63.02-.019.12-.082-.152.016-.063-.153.282-.332-.254-.05-.188.199-.074-.23-.113.163-.028-.113-.14.05-.094.052.074-.301-.058-.035.03-.086-.077.02-.016-.173h.297l-.016-.078h-.093l-.172-.32-.094.035-.063-.117-.03.101-.095-.07.094-.066-.14-.047.03-.086-.109-.066-.03-.266-.11-.035.062-.051-.125-.348.016-.117.047-.348h.094l-.032.215.235.348.168.238.347.098v.016l.047-.086.188.238.093.113.047.051.528.27.093.05.036.032.246.32.14-.07 1.032-.25.03-.204.075.036-.012-.063.047-.035.219-.086v-.23l.074-.086.094-.387-.047-.149.223-.566v-.352h.105l.13-.199.151-.05.02-.184.215-.281.094.05.44-.171.048-.047.094-.102-.036-.164h.094l.047.266.484.117.079-.082.03.011.423.102.015-.016.219-.132.016.148.187.02.152.132.036.036.23.214.281.02.176.027.215-.078.02.149.093.066.075-.148h.093l.067.382.074.016-.016.137-.011.015h.027l.187-.101.172-.067.48.18.094-.027.036.18.125.019-.032-.086h.106l.035.188.125-.153.297.2.078.367-.125.035.031.281.047.082.328.887-.176.168-.011.199-.14.184.151.117-.058.05.14.149.215.035.067.102.058.129.157.07.187-.137.125.016-.152.234.152.438-.187.164.082.265-.047.235.093.136.247.051-.247.363.047.067.059.07-.105.18.105.07-.547.48.125.337-.031.199-.188.066-.047.168-.214.102-.067.215-.047.113.22.121-.325.031.078.184-.16.168-.246.047-.082.152.187.098-.355.351.11.188-.282-.067-.317.2-.418.214-.093.153-.063-.051.063-.152-.281.117-.063-.117-.422.265-.187-.062-.34.062-.094-.047m.016-9.675-.036-.036h-.011v.02h.031Zm-.11 9.625.094.05Zm0 0 .094.05M5.543 5.465l.016-.121-.172-.117Zm-.375-.922h-.094l.047.148.047-.128Zm-.047-.152-.047.05.094.07Zm.422 1.074.016-.121-.172-.117Zm-.375-.922h-.094l.047.148.047-.128Zm-.047-.152-.047.05.094.07Zm.422 1.074.016-.121-.172-.117Zm-.375-.922h-.094l.047.148.047-.128Zm-.047-.152-.047.05.094.07Zm.281-.348V3.91l-.109.031.016.086Zm-.125-.367.032.066.062-.152-.094.07Zm.125.367V3.91l-.109.031.016.086Zm-.125-.367.032.066.062-.152-.094.07Zm.125.367V3.91l-.109.031.016.086Zm-.125-.367.032.066.062-.152-.094.07ZM6.945 8.78l-.11.016-.093.137.156-.036Zm0 0-.11.016-.093.137.156-.036Zm0 0-.11.016-.093.137.156-.036Zm.114-3.386-.036-.032-.093-.05.093.05Zm0 0"/><g clip-path="url(#a)"><g clip-path="url(#b)"><path style="fill:none;stroke-width:2;stroke-linecap:butt;stroke-linejoin:miter;stroke:#072b5f;stroke-opacity:1;stroke-miterlimit:4" d="M183.01 133.522c0 27.312-22.143 49.469-49.506 49.469-27.362 0-49.506-22.157-49.506-49.47 0-27.381 22.144-49.538 49.506-49.538 27.363 0 49.507 22.157 49.507 49.539Zm0 0" transform="matrix(.0524 0 0 .05606 3.501 .018)"/></g></g><g clip-path="url(#c)"><g clip-path="url(#d)"><path style="fill:none;stroke-width:2;stroke-linecap:butt;stroke-linejoin:miter;stroke:#072b5f;stroke-opacity:1;stroke-miterlimit:4" d="M226.03 133.522c0 51.071-41.454 92.458-92.526 92.458-51.072 0-92.526-41.387-92.526-92.458 0-51.141 41.454-92.528 92.526-92.528 51.072 0 92.526 41.387 92.526 92.528Zm0 0" transform="matrix(.0524 0 0 .05606 3.501 .018)"/></g></g><g clip-path="url(#e)"><g clip-path="url(#f)"><path style="fill:none;stroke-width:2;stroke-linecap:butt;stroke-linejoin:miter;stroke:#072b5f;stroke-opacity:1;stroke-miterlimit:4" d="M266.515 133.522c0 73.437-59.571 133.008-133.01 133.008C60.064 266.53.493 206.96.493 133.522.494 60.015 60.065.513 133.504.513c73.44 0 133.011 59.502 133.011 133.009ZM.01 133.522h467.029M133.504.027v467.028" transform="matrix(.0524 0 0 .05606 3.501 .018)"/><path style="fill:none;stroke-width:2;stroke-linecap:butt;stroke-linejoin:miter;stroke:#072b5f;stroke-opacity:1;stroke-miterlimit:4" d="m-99.983 133.487 466.96-.001m-233.48-233.514v467.03" transform="matrix(.04537 .02803 -.0262 .04855 7.936 -2.721)"/><path style="fill:none;stroke-width:2;stroke-linecap:butt;stroke-linejoin:miter;stroke:#072b5f;stroke-opacity:1;stroke-miterlimit:4" d="M.024 133.49h467.03M133.492-99.99l-.002 466.96" transform="matrix(.0262 .04855 -.04537 .02803 13.056 -2.721)"/></g></g></svg>