<svg xmlns="http://www.w3.org/2000/svg" width="21" height="15" viewBox="0 0 21 15"><path style="fill:#fff;fill-opacity:1;stroke:none" d="M0 0h21v15H0z"/><path style="stroke:none;fill-rule:nonzero;fill:#003087;fill-opacity:1" d="M21 0v15H0Zm0 0"/><path style="stroke:none;fill-rule:nonzero;fill:gold;fill-opacity:1" d="M0 6.25V0h8.75Zm0 0"/><path style="stroke:none;fill-rule:nonzero;fill:#101820;fill-opacity:1" d="m5.832 2.707 2.023 3.75-2.023 3.75-2.02-3.75Zm3.5 3.75-3.5 2.168-3.5-2.168 3.5-2.164Zm0 0"/><path style="stroke:none;fill-rule:nonzero;fill:#101820;fill-opacity:1" d="M8.863 6.457c0 1.793-1.355 3.25-3.031 3.25-1.672 0-3.031-1.457-3.031-3.25s1.36-3.246 3.031-3.246c1.676 0 3.031 1.453 3.031 3.246Zm0 0"/><path style="stroke:none;fill-rule:nonzero;fill:#fff;fill-opacity:1" d="M8.457 6.457c0 1.555-1.176 2.813-2.625 2.813-1.45 0-2.625-1.258-2.625-2.813 0-1.55 1.176-2.812 2.625-2.812 1.45 0 2.625 1.261 2.625 2.812Zm0 0"/><path style="stroke:none;fill-rule:nonzero;fill:#d50032;fill-opacity:1" d="M5.832 8.332 4.316 5.52h3.032Zm0-3.75 1.516 2.813H4.316Zm0 0"/></svg>