<svg xmlns="http://www.w3.org/2000/svg" width="21" height="15" viewBox="0 0 21 15"><path style="stroke:none;fill-rule:nonzero;fill:#000;fill-opacity:1" d="M0 0h21v7.5H0Zm0 0"/><path style="stroke:none;fill-rule:nonzero;fill:#007a3d;fill-opacity:1" d="M0 7.5h21V15H0Zm0 0"/><path style="stroke:none;fill-rule:nonzero;fill:#fff;fill-opacity:1" d="M0 5h21v5H0Zm0 0"/><path style="stroke:none;fill-rule:nonzero;fill:#c4111b;fill-opacity:1" d="m0 0 7 7.5L0 15ZM11.898 7.5c0 1.105-.625 2-1.398 2-.773 0-1.398-.895-1.398-2s.625-2 1.398-2c.773 0 1.398.895 1.398 2Zm0 0"/><path style="stroke:none;fill-rule:nonzero;fill:#fff;fill-opacity:1" d="M12.426 7.5c0 1.105-.63 2-1.403 2s-1.398-.895-1.398-2 .625-2 1.398-2c.774 0 1.403.895 1.403 2Zm0 0"/><path style="stroke:none;fill-rule:nonzero;fill:#c4111b;fill-opacity:1" d="m10.125 8.71.598-.608.59.617-.22-.996.595-.618-.735-.007-.223-.996-.234.992h-.734l.59.62Zm0 0"/></svg>