<svg width="21" height="15" viewBox="0 0 21 15" xmlns="http://www.w3.org/2000/svg"><defs><linearGradient x1="50%" y1="0%" x2="50%" y2="100%" id="a"><stop stop-color="#FFF" offset="0%"/><stop stop-color="#F0F0F0" offset="100%"/></linearGradient><linearGradient x1="50%" y1="0%" x2="50%" y2="100%" id="b"><stop stop-color="#1C6DC1" offset="0%"/><stop stop-color="#1660AD" offset="100%"/></linearGradient></defs><g fill="none" fill-rule="evenodd"><path fill="url(#a)" d="M0 0h21v15H0z"/><path d="M0 0h4v4H0V0Zm6 0h4v4H6V0Zm4 0h11v2H10V0Zm0 4h11v2H10V4Zm0 4h11v2H10V8ZM0 12h21v2H0v-2Zm6-6h4v4H6V6ZM0 6h4v4H0V6Z" fill="url(#b)"/></g></svg>