<svg width="21" height="15" viewBox="0 0 21 15" xmlns="http://www.w3.org/2000/svg"><defs><linearGradient x1="50%" y1="0%" x2="50%" y2="100%" id="a"><stop stop-color="#FFF" offset="0%"/><stop stop-color="#F0F0F0" offset="100%"/></linearGradient><linearGradient x1="50%" y1="0%" x2="50%" y2="100%" id="b"><stop stop-color="#FF202D" offset="0%"/><stop stop-color="#FD0D1B" offset="100%"/></linearGradient><linearGradient x1="50%" y1="0%" x2="50%" y2="100%" id="c"><stop stop-color="#2027AC" offset="0%"/><stop stop-color="#191F94" offset="100%"/></linearGradient><linearGradient x1="50%" y1="0%" x2="50%" y2="100%" id="d"><stop stop-color="#FF212E" offset="0%"/><stop stop-color="#FD0D1B" offset="100%"/></linearGradient></defs><g fill="none" fill-rule="evenodd"><path fill="url(#a)" d="M0 0h21v15H0z"/><path fill="url(#b)" d="M0 0h21v5H0z"/><path d="m8 4 .5-.5.5.5v1H8V4Zm2 0 .5-.5.5.5v1h-1V4Zm2 0 .5-.5.5.5v1h-1V4Z" fill="#1895DB" opacity=".5"/><path d="m9 4 .5-.5.5.5v1H9V4Zm2 0 .5-.5.5.5v1h-1V4Z" fill="#191F94" opacity=".5"/><path fill="url(#c)" d="M0 10h21v5H0z"/><path d="M0 10V5h21v5H0Zm12 0h1l-.273.547c-.126.25-.454.453-.727.453v-1Zm-2 0h1v1h-1v-1Zm-2 0h1v1a.876.876 0 0 1-.727-.453L8 10Z" fill="url(#a)"/><path d="M10 5h1v1h-1V5Zm2 0h.5l.5 1h-1V5ZM8.5 5H9v1H8l.5-1ZM9 6h1v1H9V6Zm2 0h1v1h-1V6Zm-1 1h1v1h-1V7Zm2 0h1v1h-1V7Zm-1 1h1v1h-1V8ZM8 7h1v1H8V7Zm1 1h1v1H9V8ZM8 9h1v1H8V9Zm2 0h1v1h-1V9Zm2 0h1v1h-1V9Zm-1 1h1v1h-1v-1Zm-2 0h1v1H9v-1Z" fill="url(#d)"/></g></svg>