<svg width="32" height="32" viewBox="0 0 32 32" fill="none" xmlns="http://www.w3.org/2000/svg">
  <symbol id="item" viewBox="0 0 32 32"  fill="none">
    <path d="M4 22.085a.5.5 0 0 0 0 1v-1Zm2.732.5.01-.5h-.01v.5Zm9.22-7.317-.451-.216.45.216ZM4 9.502a.5.5 0 1 0 0 1v-1Zm2.732.5v.5h.01l-.01-.5Zm10.776 8.806a.5.5 0 1 0-.772.635l.772-.635Zm-4.258-4.88a.5.5 0 1 0 .772-.636l-.772.636ZM4 23.085h2.732v-1H4v1Zm2.72 0c1.18.027 2.816-.224 4.557-1.32 1.74-1.096 3.554-3.017 5.125-6.28l-.901-.433c-1.506 3.127-3.205 4.89-4.756 5.867-1.551.976-2.987 1.19-4.002 1.167l-.022 1Zm9.682-7.6c.8-1.662 3.28-4.985 8.135-4.985v-1c-5.389 0-8.145 3.702-9.036 5.552l.9.433Zm8.135-4.985H28v-1h-3.463v1ZM4 10.502h2.732v-1H4v1Zm20.537 12.585H28v-1h-3.463v1Zm-7.801-3.644c1.439 1.75 3.952 3.644 7.8 3.644v-1c-3.477 0-5.728-1.698-7.028-3.28l-.772.636Zm-9.993-8.941c1.533-.035 4.068.467 6.507 3.426l.772-.636c-2.652-3.218-5.492-3.83-7.301-3.79l.022 1Z" fill="currentColor"/><path d="M25.125 6.436a.5.5 0 0 0-.708.707l.707-.707Zm2.818 3.526.36.347a.5.5 0 0 0-.006-.7l-.354.353Zm-3.532 2.937a.5.5 0 0 0 .72.695l-.72-.695Zm.006-5.756 3.173 3.173.707-.708-3.172-3.172-.708.707Zm3.167 2.472-3.173 3.284.72.695 3.172-3.285-.72-.694ZM25.125 19.005a.5.5 0 0 0-.708.707l.707-.707Zm2.818 3.526.36.348a.5.5 0 0 0-.006-.701l-.354.353Zm-3.532 2.938a.5.5 0 0 0 .72.694l-.72-.694Zm.006-5.757 3.173 3.173.707-.707-3.172-3.173-.708.707Zm3.167 2.472-3.173 3.285.72.694 3.172-3.284-.72-.695Z" fill="currentColor"/>
  </symbol>
</svg>
  