<svg width="32" height="32" viewBox="0 0 32 32" fill="none" xmlns="http://www.w3.org/2000/svg">
  <symbol id="item" viewBox="0 0 32 32"  fill="none">
    <path d="M9.347 8.13a.5.5 0 1 0 .675.739l-.675-.738ZM21.79 24.678a.5.5 0 1 0-.577-.817l.577.817Zm-5.72.822c-5.04 0-9.154-4.236-9.154-9.5h-1c0 5.783 4.53 10.5 10.155 10.5v-1Zm0-18.999c5.04 0 9.156 4.236 9.156 9.5h1c0-5.782-4.53-10.5-10.155-10.5v1Zm-6.048 2.369C11.637 7.393 13.754 6.5 16.07 6.5v-1c-2.58 0-4.935.996-6.724 2.63l.675.739ZM21.213 23.86a8.88 8.88 0 0 1-5.142 1.64v1a9.88 9.88 0 0 0 5.72-1.823l-.578-.817ZM25.226 16v3.572h1V16h-1Zm-18.31 0v-2.251h-1v2.25h1Z" fill="currentColor"/><path d="M23.276 15.7a.5.5 0 0 0-.8.6l.8-.6Zm2.45 4.1-.4.3a.5.5 0 0 0 .8 0l-.4-.3Zm3.25-3.5a.5.5 0 0 0-.8-.6l.8.6Zm-6.5 0 2.85 3.8.8-.6-2.85-3.8-.8.6Zm3.65 3.8 2.85-3.8-.8-.6-2.85 3.8.8.6ZM8.866 17.374a.5.5 0 1 0 .8-.6l-.8.6Zm-2.45-4.1.4-.3a.5.5 0 0 0-.8 0l.4.3Zm-3.25 3.5a.5.5 0 0 0 .8.6l-.8-.6Zm6.5 0-2.85-3.8-.8.6 2.85 3.8.8-.6Zm-3.65-3.8-2.85 3.8.8.6 2.85-3.8-.8-.6Z" fill="currentColor"/>
  </symbol>
</svg>
  