<svg width="32" height="32" viewBox="0 0 32 32" fill="none" xmlns="http://www.w3.org/2000/svg">
  <symbol id="item" viewBox="0 0 32 32"  fill="none">
    <path d="M25.967 9.138a.5.5 0 0 0-.807-.592l.807.592Zm-4.603 5.426.403.296-.403-.296Zm-1.71.366-.247.435.247-.435Zm-4.26-2.415.248-.435a.5.5 0 0 0-.649.137l.402.298Zm-7.257 8.93a.5.5 0 0 0 .803.596l-.803-.596Zm5.66.631a.5.5 0 1 0-.138-.99l.139.99Zm-5.802.308-.492.088a.5.5 0 0 0 .562.407l-.07-.495Zm-.485-5.575a.5.5 0 0 0-.984.175l.984-.175Zm17.65-8.263-4.199 5.722.806.591 4.2-5.721-.807-.592Zm-5.26 5.949-4.258-2.415-.494.87 4.26 2.415.492-.87Zm-4.906-2.278-6.857 9.228.803.596 6.856-9.228-.803-.596Zm5.967 2.05a.82.82 0 0 1-1.06.228l-.494.87a1.82 1.82 0 0 0 2.36-.505l-.806-.592Zm-7.302 6.819-5.733.803.139.99 5.733-.803-.139-.99Zm-5.172 1.21L7.51 16.81l-.984.175.977 5.488.984-.176Z" fill="currentColor"/>
  </symbol>
</svg>
  