<svg width="32" height="32" viewBox="0 0 32 32" fill="none" xmlns="http://www.w3.org/2000/svg">
  <symbol id="item" viewBox="0 0 32 32" stroke-width="1" fill="none">
    <path d="m13.898 10.354-2.872-2.871c-.266-.267-.71-.256-.989.023l-2 2c-2.53 2.531 1.291 7.366 4.179 10.254 2.87 2.87 7.746 6.734 10.278 4.202l2-2c.28-.28.29-.722.023-.988l-2.872-2.872c-.266-.267-.71-.256-.989.023l-2 2s-.963-.002-3.897-2.885c-2.933-2.882-2.884-3.897-2.884-3.897l2-2c.28-.28.29-.722.023-.989Z" stroke="currentColor" stroke-linecap="round" stroke-linejoin="round"/>
  </symbol>
</svg>
  