<svg width="32" height="32" viewBox="0 0 32 32" fill="none" xmlns="http://www.w3.org/2000/svg">
  <symbol id="item" viewBox="0 0 32 32"  fill="none">
    <path d="m16.73 10.154-.428.257.146.243h.283v-.5ZM14.54 6.5l.428-.257L14.822 6h-.283v.5ZM25.5 13.154h.5-.5Zm0 9.346H25h.5ZM6 9.5v13h1v-13H6ZM22.5 25h-13v1h13v-1ZM25 13.154V22.5h1v-9.346h-1Zm-2.5-3.5h-5.77v1h5.77v-1Zm-5.34.243-2.193-3.654-.857.514 2.192 3.654.858-.514ZM14.539 6H9.5v1h5.039V6ZM26 13.154a3.5 3.5 0 0 0-3.5-3.5v1a2.5 2.5 0 0 1 2.5 2.5h1ZM7 9.5A2.5 2.5 0 0 1 9.5 7V6A3.5 3.5 0 0 0 6 9.5h1Zm-1 13A3.5 3.5 0 0 0 9.5 26v-1A2.5 2.5 0 0 1 7 22.5H6ZM22.5 26a3.5 3.5 0 0 0 3.5-3.5h-1a2.5 2.5 0 0 1-2.5 2.5v1Z" fill="currentColor"/>
  </symbol>
</svg>
  