<svg width="32" height="32" viewBox="0 0 32 32" fill="none" xmlns="http://www.w3.org/2000/svg">
  <symbol id="item" viewBox="0 0 32 32"  fill="none">
    <path d="M15.5 19a.5.5 0 1 0 1 0h-1ZM16 4l.332-.373a.5.5 0 0 0-.665 0L16 4Zm-4.375 3.227a.5.5 0 1 0 .665.746l-.665-.746Zm8.084.746a.5.5 0 0 0 .666-.746l-.666.746ZM12.16 11.5a.5.5 0 1 0 0-1v1Zm7.68-1a.5.5 0 1 0 0 1v-1ZM16.5 19V4h-1v15h1ZM12.29 7.973l4.043-3.6-.666-.746-4.042 3.6.665.746Zm3.377-3.6 4.042 3.6.666-.746-4.043-3.6-.665.746Zm9.433 8.341v13.572h1V12.714h-1ZM23.886 27.5H8.114v1h15.772v-1ZM6.9 26.286V12.714h-1v13.572h1ZM8.114 11.5h4.046v-1H8.114v1Zm11.726 0h4.046v-1H19.84v1Zm-11.726 16c-.67 0-1.214-.544-1.214-1.214h-1c0 1.223.991 2.214 2.214 2.214v-1ZM25.1 26.286c0 .67-.544 1.214-1.214 1.214v1a2.214 2.214 0 0 0 2.214-2.214h-1Zm1-13.572a2.214 2.214 0 0 0-2.214-2.214v1c.67 0 1.214.544 1.214 1.214h1Zm-19.2 0c0-.67.544-1.214 1.214-1.214v-1A2.214 2.214 0 0 0 5.9 12.714h1Z" fill="currentColor"/>
  </symbol>
</svg>
  