
<svg width="1em" height="1em"    viewBox="0 0 32 32" fill="none" xmlns="http://www.w3.org/2000/svg">
<symbol id="item"
width="1em"
height="1em"
viewBox="0 0 32 32"
fill="none"
>
<path d="M25.147 25.854a.5.5 0 1 0 .706-.708l-.706.708Zm-4.305-5.003-.353-.354.353.354Zm-5.938 1.957A7.904 7.904 0 0 1 7 14.904H6a8.904 8.904 0 0 0 8.904 8.904v-1ZM7 14.904A7.904 7.904 0 0 1 14.904 7V6A8.904 8.904 0 0 0 6 14.904h1ZM14.904 7a7.904 7.904 0 0 1 7.904 7.904h1A8.904 8.904 0 0 0 14.904 6v1Zm7.904 7.904a7.878 7.878 0 0 1-2.32 5.593l.707.707a8.878 8.878 0 0 0 2.613-6.3h-1Zm-2.32 5.593a7.878 7.878 0 0 1-5.584 2.31v1a8.878 8.878 0 0 0 6.291-2.603l-.706-.707Zm0 .707 4.659 4.65.706-.708-4.658-4.65-.706.708Z" fill="var(--color--bulma-100)"/>
</symbol>
</svg>
  