<svg width="32" height="32" viewBox="0 0 32 32" fill="none" xmlns="http://www.w3.org/2000/svg">
  <symbol id="item" viewBox="0 0 32 32"  fill="none">
    <path d="M25 16a9 9 0 0 1-9 9v1c5.523 0 10-4.477 10-10h-1Zm-9 9a9 9 0 0 1-9-9H6c0 5.523 4.477 10 10 10v-1Zm-9-9a9 9 0 0 1 9-9V6C10.477 6 6 10.477 6 16h1Zm9-9a9 9 0 0 1 9 9h1c0-5.523-4.477-10-10-10v1ZM20.053 12.7a.5.5 0 0 0-.707-.707l.707.707Zm-8.106 6.691a.5.5 0 1 0 .707.707l-.707-.707Zm7.399.707a.5.5 0 1 0 .707-.707l-.707.707Zm-6.692-8.105a.5.5 0 0 0-.707.707l.707-.707Zm6.692 0-3.7 3.699.708.707 3.699-3.7-.707-.706Zm-3.7 3.699-3.699 3.7.707.706 3.7-3.699-.707-.707Zm4.407 3.7-3.7-3.7-.707.707 3.7 3.7.707-.708Zm-3.7-3.7-3.699-3.7-.707.708 3.7 3.699.707-.707Z" fill="currentColor"/>
  </symbol>
</svg>
  