<svg width="32" height="32" viewBox="0 0 32 32" fill="none" xmlns="http://www.w3.org/2000/svg">
  <symbol id="item" viewBox="0 0 32 32"  fill="none">
    <path d="M15.5 19a.5.5 0 1 0 1 0h-1ZM16 4l.332-.373a.5.5 0 0 0-.665 0L16 4Zm-4.375 3.227a.5.5 0 1 0 .665.746l-.665-.746Zm8.084.746a.5.5 0 0 0 .666-.746l-.666.746ZM12.16 11.5a.5.5 0 0 0 0-1v1Zm7.68-1a.5.5 0 0 0 0 1v-1ZM16.5 19V4h-1v15h1ZM12.29 7.973l4.042-3.6-.665-.746-4.042 3.6.665.746Zm3.377-3.6 4.042 3.6.666-.746-4.043-3.6-.665.746ZM25.1 13.4v12.2h1V13.4h-1Zm-1.9 14.1H8.8v1h14.4v-1ZM6.9 25.6V13.4h-1v12.2h1Zm1.9-14.1h3.36v-1H8.8v1Zm11.04 0h3.36v-1h-3.36v1ZM8.8 27.5a1.9 1.9 0 0 1-1.9-1.9h-1a2.9 2.9 0 0 0 2.9 2.9v-1Zm16.3-1.9a1.9 1.9 0 0 1-1.9 1.9v1a2.9 2.9 0 0 0 2.9-2.9h-1Zm1-12.2a2.9 2.9 0 0 0-2.9-2.9v1c1.05 0 1.9.85 1.9 1.9h1Zm-19.2 0c0-1.05.85-1.9 1.9-1.9v-1a2.9 2.9 0 0 0-2.9 2.9h1Z" fill="currentColor"/>
  </symbol>
</svg>
  