<svg width="32" height="32" viewBox="0 0 32 32" fill="none" xmlns="http://www.w3.org/2000/svg">
  <symbol id="item" viewBox="0 0 32 32"  fill="none">
    <path d="m7.902 22.202-.483-.129.483.129Zm1.424-6.793-.469.174.469-.174Zm.058 1.209-.483-.128.483.128Zm13.743-2.726.218-.45-.218.45Zm.111 3.54-.246-.434.246.435Zm.107-3.99L10.307 7.118l-.436.9 13.038 6.325.436-.9ZM6.872 10.237l1.985 5.347.938-.348L7.81 9.888l-.938.348Zm2.029 6.254-1.482 5.583.966.257 1.482-5.584-.966-.256Zm2.165 8.401 12.418-7.023-.492-.87-12.419 7.022.492.871Zm-3.647-2.818c-.568 2.14 1.72 3.908 3.647 2.818l-.493-.87c-1.156.653-2.529-.407-2.188-1.691l-.966-.257Zm1.438-6.49a1.5 1.5 0 0 1 .044.907l.966.256a2.5 2.5 0 0 0-.072-1.511l-.938.348Zm1.45-8.466c-2.027-.984-4.219 1.006-3.435 3.12l.938-.349c-.47-1.268.844-2.462 2.06-1.871l.437-.9Zm12.602 7.225c1.088.528 1.136 2.06.083 2.655l.492.87c1.755-.991 1.674-3.545-.139-4.424l-.436.9Z" fill="currentColor"/>
  </symbol>
</svg>
  