<svg width="32" height="32" viewBox="0 0 32 32" fill="none" xmlns="http://www.w3.org/2000/svg">
  <symbol id="item" viewBox="0 0 32 32"  fill="none">
    <path d="m7.875 10.228.347.36.003-.003-.35-.357ZM12.42 5.77l-.347-.36-.003.003.35.357ZM21.538 26.5H10.462v1h11.076v-1Zm-11.076 0c-1.623 0-2.962-1.355-2.962-3.055h-1c0 2.227 1.762 4.055 3.962 4.055v-1ZM7.5 23.445V12.302h-1v11.143h1Zm0-11.143c0-.652.263-1.272.722-1.714l-.694-.72A3.38 3.38 0 0 0 6.5 12.302h1Zm.725-1.717 4.545-4.459-.7-.714-4.545 4.46.7.713Zm4.542-4.456a2.23 2.23 0 0 1 1.548-.629v-1a3.23 3.23 0 0 0-2.242.91l.694.72Zm1.548-.629h7.223v-1h-7.223v1Zm7.223 0c1.623 0 2.962 1.355 2.962 3.055h1c0-2.227-1.762-4.055-3.962-4.055v1ZM24.5 8.555v14.89h1V8.555h-1Zm0 14.89c0 1.7-1.338 3.055-2.962 3.055v1c2.201 0 3.962-1.828 3.962-4.055h-1ZM13.688 5.01v4.781h1v-4.78h-1Zm0 4.781c0 .914-.718 1.633-1.577 1.633v1c1.437 0 2.577-1.192 2.577-2.633h-1Zm-1.577 1.633H7.025v1h5.086v-1ZM14.663 16a.5.5 0 1 0-1 0h1Zm-1 4a.5.5 0 0 0 1 0h-1Zm.654-2.5a.5.5 0 0 0 0 1v-1Zm3.121 1a.5.5 0 0 0 0-1v1Zm.56-2.5a.5.5 0 0 0-1 0h1Zm-1 4a.5.5 0 0 0 1 0h-1ZM9.5 20a.5.5 0 0 0 1 0h-1Zm.5-4v-.5a.5.5 0 0 0-.5.5h.5Zm0 1.659a.5.5 0 1 0 0 1v-1ZM18.779 20a.5.5 0 1 0 1 0h-1Zm.5-4v-.5a.5.5 0 0 0-.5.5h.5Zm0 1.659a.5.5 0 1 0 0 1v-1ZM13.663 16v4h1v-4h-1Zm.654 2.5h3.121v-1h-3.12v1Zm2.681-2.5v4h1v-4h-1ZM10.5 20v-4h-1v4h1Zm-.5-1.341h1.501v-1H10v1Zm1.501 0c.544 0 .985-.185 1.29-.501.297-.309.43-.707.43-1.079h-1c0 .14-.05.281-.15.385-.093.096-.262.195-.57.195v1Zm1.72-1.58c0-.371-.133-.77-.43-1.078-.305-.316-.746-.501-1.29-.501v1c.308 0 .477.099.57.195.1.103.15.245.15.384h1Zm-1.72-1.579H10v1h1.501v-1ZM19.78 20v-4h-1v4h1Zm-.5-1.341h1.501v-1h-1.501v1Zm1.501 0c.544 0 .985-.185 1.29-.501.297-.309.43-.707.43-1.079h-1c0 .14-.05.281-.15.385-.093.096-.262.195-.57.195v1Zm1.72-1.58c0-.372-.134-.77-.431-1.078-.305-.316-.746-.501-1.289-.501v1c.307 0 .476.099.57.195.1.104.15.245.15.384h1ZM20.78 15.5h-1.501v1h1.501v-1Z" fill="currentColor"/>
  </symbol>
</svg>
  