<svg width="32" height="32" viewBox="0 0 32 32" fill="none" xmlns="http://www.w3.org/2000/svg">
  <symbol id="item" viewBox="0 0 32 32"  fill="none">
    <path d="M23.815 13.808a.5.5 0 1 0-1 0h1Zm-14.615 0a.5.5 0 1 0-1 0h1Zm7.308 9.5a.5.5 0 1 0-1 0h1ZM18.93 26a.5.5 0 1 0 0-1v1Zm-5.846-1a.5.5 0 1 0 0 1v-1Zm6.807-14.115v4.384h1v-4.384h-1Zm-7.769 4.384v-4.384h-1v4.384h1Zm3.885 3.885a3.885 3.885 0 0 1-3.885-3.885h-1a4.885 4.885 0 0 0 4.885 4.885v-1Zm3.884-3.885a3.885 3.885 0 0 1-3.884 3.885v1a4.885 4.885 0 0 0 4.884-4.885h-1ZM16.008 7a3.885 3.885 0 0 1 3.884 3.885h1A4.885 4.885 0 0 0 16.008 6v1Zm0-1a4.885 4.885 0 0 0-4.885 4.885h1A3.885 3.885 0 0 1 16.008 7V6Zm6.807 7.808v1.461h1v-1.461h-1ZM9.2 15.269v-1.461h-1v1.461h1Zm6.808 6.808A6.808 6.808 0 0 1 9.2 15.269h-1a7.808 7.808 0 0 0 7.808 7.808v-1Zm6.807-6.808a6.808 6.808 0 0 1-6.807 6.808v1a7.808 7.808 0 0 0 7.807-7.808h-1Zm-7.307 8.039V25.5h1v-2.192h-1Zm.5 2.692h2.923v-1h-2.923v1Zm0-1h-2.923v1h2.923v-1Z" fill="currentColor"/>
  </symbol>
</svg>
  