<svg width="32" height="32" viewBox="0 0 32 32" fill="none" xmlns="http://www.w3.org/2000/svg">
  <symbol id="item" viewBox="0 0 32 32"  fill="none">
    <path d="m7.875 10.228.347.36.003-.003-.35-.357ZM12.42 5.77l-.347-.36-.003.003.35.357ZM21.538 26.5H10.462v1h11.076v-1Zm-11.076 0c-1.623 0-2.962-1.355-2.962-3.055h-1c0 2.227 1.762 4.055 3.962 4.055v-1ZM7.5 23.445V12.302h-1v11.143h1Zm0-11.143c0-.652.263-1.272.722-1.714l-.694-.72A3.38 3.38 0 0 0 6.5 12.302h1Zm.725-1.717 4.545-4.459-.7-.714-4.545 4.46.7.713Zm4.542-4.456a2.23 2.23 0 0 1 1.548-.629v-1a3.23 3.23 0 0 0-2.242.91l.694.72Zm1.548-.629h7.223v-1h-7.223v1Zm7.223 0c1.623 0 2.962 1.355 2.962 3.055h1c0-2.227-1.762-4.055-3.962-4.055v1ZM24.5 8.555v14.89h1V8.555h-1Zm0 14.89c0 1.7-1.338 3.055-2.962 3.055v1c2.201 0 3.962-1.828 3.962-4.055h-1ZM13.688 5.01v4.781h1v-4.78h-1Zm0 4.781c0 .914-.718 1.633-1.577 1.633v1c1.437 0 2.577-1.192 2.577-2.633h-1Zm-1.577 1.633H7.025v1h5.086v-1ZM12.385 19.224a.5.5 0 0 0-.77.638l.77-.638Zm2.462-3.824h.5a.5.5 0 0 0-.5-.5v.5Zm-.833-.5a.5.5 0 0 0 0 1v-1Zm5.356 1.15a.5.5 0 1 0 .298-.954l-.298.955Zm-2.215 3.354a.5.5 0 1 0-.5.866l.5-.866Zm-5.54.458c.425.513 1.063 1.038 1.937 1.038v-1c-.439 0-.822-.26-1.167-.676l-.77.638Zm1.937 1.038c.353 0 .803-.118 1.171-.45.381-.344.624-.872.624-1.59h-1c0 .48-.154.721-.294.848a.768.768 0 0 1-.5.192v1Zm1.795-2.04V15.4h-1v3.46h1Zm-.5-3.96h-.833v1h.833v-1Zm4.821.196c-.768-.24-1.488-.264-2.049-.046-.59.23-.982.728-.982 1.391h1c0-.208.097-.363.345-.46.278-.107.75-.13 1.388.07l.298-.955Zm-3.03 1.345c0 .566.287.963.638 1.239.328.258.75.44 1.093.589.375.163.67.293.88.454.187.144.251.267.251.425h1c0-.562-.294-.951-.643-1.219-.327-.25-.748-.429-1.089-.577-.372-.162-.666-.295-.875-.459-.185-.146-.256-.278-.256-.452h-1Zm2.862 2.707c0 .204-.063.334-.146.423-.089.096-.236.18-.455.224-.447.088-1.098-.018-1.744-.391l-.5.866c.803.464 1.7.652 2.438.506.374-.074.729-.239.993-.523.27-.29.414-.671.414-1.105h-1Z" fill="currentColor"/>
  </symbol>
</svg>
  