<svg width="32" height="32" viewBox="0 0 32 32" fill="none" xmlns="http://www.w3.org/2000/svg">
  <symbol id="item" viewBox="0 0 32 32"  fill="none">
    <path d="M11.385 14.539a.5.5 0 1 0-1 0h1Zm-1 10.961a.5.5 0 0 0 1 0h-1Zm1-19a.5.5 0 1 0-1 0h1Zm-1 2.923a.5.5 0 0 0 1 0h-1Zm11.23 13.154a.5.5 0 0 0-1 0h1Zm-1 2.923a.5.5 0 1 0 1 0h-1Zm1-19a.5.5 0 0 0-1 0h1Zm-1 10.962a.5.5 0 1 0 1 0h-1Zm-10.23-2.923V25.5h1V14.539h-1Zm0-8.039v2.923h1V6.5h-1Zm10.23 16.077V25.5h1v-2.923h-1Zm0-16.077v10.962h1V6.5h-1ZM8.5 9.923h4.77v-1H8.5v1Zm6.27 1.5v1.116h1v-1.116h-1Zm-1.5 2.616H8.5v1h4.77v-1ZM7 12.539v-1.116H6v1.116h1Zm1.5 1.5a1.5 1.5 0 0 1-1.5-1.5H6a2.5 2.5 0 0 0 2.5 2.5v-1Zm6.27-1.5a1.5 1.5 0 0 1-1.5 1.5v1a2.5 2.5 0 0 0 2.5-2.5h-1Zm-1.5-2.616a1.5 1.5 0 0 1 1.5 1.5h1a2.5 2.5 0 0 0-2.5-2.5v1Zm-4.77-1a2.5 2.5 0 0 0-2.5 2.5h1a1.5 1.5 0 0 1 1.5-1.5v-1Zm10.23 9.039h4.77v-1h-4.77v1Zm6.27 1.5v1.115h1V19.46h-1Zm-1.5 2.615h-4.77v1h4.77v-1Zm-6.27-1.5V19.46h-1v1.116h1Zm1.5 1.5a1.5 1.5 0 0 1-1.5-1.5h-1a2.5 2.5 0 0 0 2.5 2.5v-1Zm6.27-1.5a1.5 1.5 0 0 1-1.5 1.5v1a2.5 2.5 0 0 0 2.5-2.5h-1Zm-1.5-2.616a1.5 1.5 0 0 1 1.5 1.5h1a2.5 2.5 0 0 0-2.5-2.5v1Zm-4.77-1a2.5 2.5 0 0 0-2.5 2.5h1a1.5 1.5 0 0 1 1.5-1.5v-1Z" fill="currentColor"/>
  </symbol>
</svg>
  