<svg width="32" height="32" viewBox="0 0 32 32" fill="none" xmlns="http://www.w3.org/2000/svg">
  <symbol id="item" viewBox="0 0 32 32"  fill="none">
    <path d="m7.875 10.228.347.36.003-.003-.35-.357ZM12.42 5.77l-.347-.36-.003.003.35.357ZM21.538 26.5H10.462v1h11.076v-1Zm-11.076 0c-1.623 0-2.962-1.355-2.962-3.055h-1c0 2.227 1.762 4.055 3.962 4.055v-1ZM7.5 23.445V12.302h-1v11.143h1Zm0-11.143c0-.652.263-1.272.722-1.714l-.694-.72A3.38 3.38 0 0 0 6.5 12.302h1Zm.725-1.717 4.545-4.459-.7-.714-4.545 4.46.7.713Zm4.542-4.456a2.23 2.23 0 0 1 1.548-.629v-1a3.23 3.23 0 0 0-2.242.91l.694.72Zm1.548-.629h7.223v-1h-7.223v1Zm7.223 0c1.623 0 2.962 1.355 2.962 3.055h1c0-2.227-1.762-4.055-3.962-4.055v1ZM24.5 8.555v14.89h1V8.555h-1Zm0 14.89c0 1.7-1.338 3.055-2.962 3.055v1c2.201 0 3.962-1.828 3.962-4.055h-1ZM13.688 5.01v4.781h1v-4.78h-1Zm0 4.781c0 .914-.718 1.633-1.577 1.633v1c1.437 0 2.577-1.192 2.577-2.633h-1Zm-1.577 1.633H7.025v1h5.086v-1ZM14.845 20a.5.5 0 0 0 1 0h-1Zm1-4a.5.5 0 1 0-1 0h1Zm-.5 1.659a.5.5 0 0 0 0 1v-1Zm0-2.159a.5.5 0 0 0 0 1v-1ZM12.846 20a.5.5 0 1 0 1 0h-1Zm.5-4h.5a.5.5 0 0 0-.902-.297l.402.298Zm-1.924 2.596-.401.298a.5.5 0 0 0 .803 0l-.402-.297ZM9.5 16.002l.402-.298a.5.5 0 0 0-.902.298h.5ZM9 19.999a.5.5 0 0 0 1 0H9Zm10.107-3.735a.5.5 0 1 0 .863.505l-.863-.505Zm1.785 1.615-.02-.5a.5.5 0 0 0 .02 1v-.5Zm-1.208 1.158a.5.5 0 0 0-.946.323l.946-.323Zm-3.84.962v-3.998h-1v3.998h1Zm-.5-1.34h1.49v-1h-1.49v1Zm1.49 0c.54 0 .98-.186 1.282-.503a1.56 1.56 0 0 0 .427-1.077h-1a.56.56 0 0 1-.15.386c-.09.096-.257.194-.56.194v1Zm1.709-1.58c0-.37-.132-.768-.427-1.077-.303-.316-.742-.502-1.283-.502v1c.303 0 .469.098.56.194a.56.56 0 0 1 .15.385h1Zm-1.71-1.579h-1.488v1h1.488v-1ZM13.847 20v-4h-1v4h1Zm-.902-4.297L11.022 18.3l.803.595 1.924-2.596-.804-.595Zm-1.12 2.596-1.923-2.596-.804.595 1.924 2.596.803-.595ZM9 16v3.998h1v-3.998H9Zm10.97.768c.043-.072.272-.268.833-.268v-1c-.724 0-1.394.248-1.696.763l.863.505Zm.833-.268c.347 0 .577.073.703.154.111.072.134.138.134.202h1c0-.453-.239-.815-.593-1.043-.338-.217-.775-.313-1.244-.313v1Zm.837.356c0 .11-.113.496-.768.523l.04.999c1.183-.048 1.728-.868 1.728-1.522h-1Zm-.748 1.522c.435 0 .734.084.906.19.15.093.202.196.202.334h1c0-.52-.264-.929-.675-1.184-.389-.24-.894-.34-1.433-.34v1Zm1.108.523c0 .156-.059.277-.213.38-.177.117-.497.218-1.012.218v1c.623 0 1.164-.119 1.566-.386.424-.282.659-.71.659-1.212h-1Zm-1.225.598c-.71 0-1.019-.252-1.09-.463l-.947.323c.284.835 1.188 1.14 2.037 1.14v-1Z" fill="currentColor"/>
  </symbol>
</svg>
  