<svg width="32" height="32" viewBox="0 0 32 32" fill="none" xmlns="http://www.w3.org/2000/svg">
  <symbol id="item" viewBox="0 0 32 32"  fill="none">
    <path d="m16.895 18.09.33-.375-.33.375Zm4.944 4.365-.33.375.33-.375Zm0-12.91-.33-.375.33.375Zm-4.944 4.365.33.375-.33-.375Zm8.605 6.455h.5-.5Zm0-8.73H25h.5ZM7.395 18.09l.33-.375-.33.375Zm4.944 4.365.331-.375-.33.375Zm0-12.91-.33-.375.33.375ZM7.395 13.91l.33.375-.33-.375ZM16 20.365h.5-.5Zm0-8.73h-.5.5Zm.564 6.83 4.944 4.364.662-.75-4.945-4.364-.661.75Zm4.944-9.295-4.944 4.365.661.75L22.17 9.92l-.662-.75ZM26 20.365v-8.73h-1v8.73h1Zm-8.775-2.65c-.967-.854-.967-2.576 0-3.43l-.661-.75c-1.419 1.252-1.419 3.678 0 4.93l.661-.75Zm4.283 5.114c.92.811 2.069.844 2.972.328.892-.51 1.52-1.534 1.52-2.792h-1c0 .92-.453 1.602-1.016 1.924-.553.315-1.234.303-1.814-.21l-.662.75ZM22.17 9.92c.58-.512 1.261-.524 1.814-.209.563.322 1.016 1.004 1.016 1.924h1c0-1.258-.628-2.283-1.52-2.792-.903-.516-2.053-.483-2.972.327l.662.75ZM7.064 18.465l4.944 4.364.662-.75-4.945-4.364-.661.75Zm4.944-9.295-4.944 4.365.661.75L12.67 9.92l-.662-.75ZM16.5 20.365v-8.73h-1v8.73h1Zm-8.775-2.65c-.967-.854-.967-2.576 0-3.43l-.661-.75c-1.419 1.252-1.419 3.678 0 4.93l.661-.75Zm4.283 5.114c.92.811 2.069.844 2.972.328.892-.51 1.52-1.534 1.52-2.792h-1c0 .92-.453 1.602-1.016 1.924-.553.315-1.234.303-1.814-.21l-.662.75ZM12.67 9.92c.58-.512 1.261-.524 1.814-.209.563.322 1.016 1.004 1.016 1.924h1c0-1.258-.628-2.283-1.52-2.792-.903-.516-2.053-.483-2.972.327l.662.75Z" fill="currentColor"/>
  </symbol>
</svg>
  