<svg width="32" height="32" viewBox="0 0 32 32" fill="none" xmlns="http://www.w3.org/2000/svg">
  <symbol id="item" viewBox="0 0 32 32"  fill="none">
    <path d="m7.875 10.228.347.36.003-.003-.35-.357ZM12.42 5.77l-.347-.36-.003.003.35.357ZM21.538 26.5H10.462v1h11.076v-1Zm-11.076 0c-1.623 0-2.962-1.355-2.962-3.055h-1c0 2.227 1.762 4.055 3.962 4.055v-1ZM7.5 23.445V12.302h-1v11.143h1Zm0-11.143c0-.652.263-1.272.722-1.714l-.694-.72A3.38 3.38 0 0 0 6.5 12.302h1Zm.725-1.717 4.545-4.459-.7-.714-4.545 4.46.7.713Zm4.542-4.456a2.23 2.23 0 0 1 1.548-.629v-1a3.23 3.23 0 0 0-2.242.91l.694.72Zm1.548-.629h7.223v-1h-7.223v1Zm7.223 0c1.623 0 2.962 1.355 2.962 3.055h1c0-2.227-1.762-4.055-3.962-4.055v1ZM24.5 8.555v14.89h1V8.555h-1Zm0 14.89c0 1.7-1.338 3.055-2.962 3.055v1c2.201 0 3.962-1.828 3.962-4.055h-1ZM13.688 5.01v4.781h1v-4.78h-1Zm0 4.781c0 .914-.718 1.633-1.577 1.633v1c1.437 0 2.577-1.192 2.577-2.633h-1Zm-1.577 1.633H7.025v1h5.086v-1ZM15.167 20a.5.5 0 0 0 1 0h-1Zm.5-4v-.5a.5.5 0 0 0-.5.5h.5Zm0 1.659a.5.5 0 0 0 0 1v-1ZM13.301 20a.5.5 0 1 0 1 0h-1Zm.5-4h.5a.5.5 0 0 0-.904-.295l.404.295ZM11.9 18.596l-.404.295a.5.5 0 0 0 .807 0l-.403-.295ZM10 16l.403-.295A.5.5 0 0 0 9.5 16h.5Zm-.5 4a.5.5 0 0 0 1 0h-1Zm11.382 0a.5.5 0 0 0 1 0h-1Zm.5-4h.5a.5.5 0 0 0-.891-.311l.391.311Zm-2.268 2.853-.391-.311a.5.5 0 0 0 .391.81v-.5Zm2.886.5a.5.5 0 0 0 0-1v1ZM16.167 20v-4h-1v4h1Zm-.5-1.341h1.471v-1h-1.47v1Zm1.471 0c.538 0 .974-.188 1.274-.505.292-.309.421-.706.421-1.075h-1a.567.567 0 0 1-.148.388c-.09.095-.251.192-.547.192v1Zm1.695-1.58c0-.368-.13-.765-.421-1.074-.3-.318-.736-.505-1.274-.505v1c.296 0 .457.097.547.191a.567.567 0 0 1 .148.388h1ZM17.138 15.5h-1.47v1h1.47v-1ZM14.301 20v-4h-1v4h1Zm-.904-4.295-1.9 2.596.806.59 1.901-2.596-.807-.59ZM12.303 18.3l-1.9-2.596-.806.59 1.9 2.596.806-.59ZM9.5 16v4h1v-4h-1Zm12.382 4v-4h-1v4h1Zm-.891-4.311-2.268 2.853.782.622 2.268-2.853-.782-.622Zm-1.877 3.664H22v-1h-2.886v1Z" fill="currentColor"/>
  </symbol>
</svg>
  