<svg width="32" height="32" viewBox="0 0 32 32" fill="none" xmlns="http://www.w3.org/2000/svg">
  <symbol id="item" viewBox="0 0 32 32"  fill="none">
    <path d="m7.875 10.228.347.36.003-.003-.35-.357ZM12.42 5.77l-.347-.36-.003.003.35.357ZM21.538 26.5H10.462v1h11.076v-1Zm-11.076 0c-1.623 0-2.962-1.355-2.962-3.055h-1c0 2.227 1.762 4.055 3.962 4.055v-1ZM7.5 23.445V12.302h-1v11.143h1Zm0-11.143c0-.652.263-1.272.722-1.714l-.694-.72A3.38 3.38 0 0 0 6.5 12.302h1Zm.725-1.717 4.545-4.459-.7-.714-4.545 4.46.7.713Zm4.542-4.456a2.23 2.23 0 0 1 1.548-.629v-1a3.23 3.23 0 0 0-2.242.91l.694.72Zm1.548-.629h7.223v-1h-7.223v1Zm7.223 0c1.623 0 2.962 1.355 2.962 3.055h1c0-2.227-1.762-4.055-3.962-4.055v1ZM24.5 8.555v14.89h1V8.555h-1Zm0 14.89c0 1.7-1.338 3.055-2.962 3.055v1c2.201 0 3.962-1.828 3.962-4.055h-1ZM13.688 5.01v4.781h1v-4.78h-1Zm0 4.781c0 .914-.718 1.633-1.577 1.633v1c1.437 0 2.577-1.192 2.577-2.633h-1Zm-1.577 1.633H7.025v1h5.086v-1ZM12.497 16.5a.5.5 0 0 0 0-1v1ZM10 16v-.5a.5.5 0 0 0-.5.5h.5Zm0 4h-.5a.5.5 0 0 0 .5.5V20Zm2.567.5a.5.5 0 1 0 0-1v1ZM10 17.416a.5.5 0 0 0 0 1v-1Zm2.567 1a.5.5 0 1 0 0-1v1ZM21.93 16.5a.5.5 0 0 0 0-1v1Zm-2.497-.5v-.5a.5.5 0 0 0-.5.5h.5Zm0 4h-.5a.5.5 0 0 0 .5.5V20Zm2.567.5a.5.5 0 0 0 0-1v1Zm-2.567-3.084a.5.5 0 1 0 0 1v-1Zm2.567 1a.5.5 0 0 0 0-1v1Zm-3.907-2.09a.5.5 0 1 0-.758-.652l.758.652Zm-4.186 3.336a.5.5 0 1 0 .758.652l-.758-.652Zm.758-3.988a.5.5 0 1 0-.758.652l.758-.652Zm2.67 4.64a.5.5 0 1 0 .758-.652l-.758.652ZM12.497 15.5H10v1h2.497v-1ZM9.5 16v4h1v-4h-1Zm.5 4.5h2.567v-1H10v1Zm0-2.084h2.567v-1H10v1ZM21.93 15.5h-2.497v1h2.497v-1Zm-2.997.5v4h1v-4h-1Zm.5 4.5H22v-1h-2.567v1Zm0-2.084H22v-1h-2.567v1Zm-2.098-2.742-3.428 3.988.758.652 3.428-3.988-.758-.652Zm-3.428.652 3.428 3.988.758-.652-3.428-3.988-.758.652Z" fill="currentColor"/>
  </symbol>
</svg>
  