<svg width="32" height="32" viewBox="0 0 32 32" fill="none" xmlns="http://www.w3.org/2000/svg">
  <symbol id="item" viewBox="0 0 32 32"  fill="none">
    <path d="m7.875 10.228.347.36.003-.003-.35-.357ZM12.42 5.77l-.347-.36-.003.003.35.357ZM21.538 26.5H10.462v1h11.076v-1Zm-11.076 0c-1.623 0-2.962-1.355-2.962-3.055h-1c0 2.227 1.762 4.055 3.962 4.055v-1ZM7.5 23.445V12.302h-1v11.143h1Zm0-11.143c0-.652.263-1.272.722-1.714l-.694-.72A3.38 3.38 0 0 0 6.5 12.302h1Zm.725-1.717 4.545-4.459-.7-.714-4.545 4.46.7.713Zm4.542-4.456a2.23 2.23 0 0 1 1.548-.629v-1a3.23 3.23 0 0 0-2.242.91l.694.72Zm1.548-.629h7.223v-1h-7.223v1Zm7.223 0c1.623 0 2.962 1.355 2.962 3.055h1c0-2.227-1.762-4.055-3.962-4.055v1ZM24.5 8.555v14.89h1V8.555h-1Zm0 14.89c0 1.7-1.338 3.055-2.962 3.055v1c2.201 0 3.962-1.828 3.962-4.055h-1ZM13.688 5.01v4.781h1v-4.78h-1Zm0 4.781c0 .914-.718 1.633-1.577 1.633v1c1.437 0 2.577-1.192 2.577-2.633h-1Zm-1.577 1.633H7.025v1h5.086v-1ZM21.321 15.938a.5.5 0 1 0-1 0h1Zm-.5 3.052h-.5a.5.5 0 0 0 .5.5v-.5Zm1.868.5a.5.5 0 0 0 0-1v1Zm-3.888-.5a.5.5 0 0 0 1 0h-1Zm.5-3.052h.5a.5.5 0 0 0-.9-.3l.4.3Zm-1.48 1.981-.401.3a.5.5 0 0 0 .8 0l-.4-.3Zm-1.482-1.981.4-.3a.5.5 0 0 0-.9.3h.5Zm-.5 3.052a.5.5 0 1 0 1 0h-1Zm-6.05-3.052a.5.5 0 1 0-1 0h1Zm-1 3.052a.5.5 0 0 0 1 0h-1Zm.5-2.09a.5.5 0 0 0 0 1v-1Zm2.283 1a.5.5 0 1 0 0-1v1Zm.5-1.962a.5.5 0 1 0-1 0h1Zm-1 3.052a.5.5 0 0 0 1 0h-1Zm2.314 0a.5.5 0 1 0 1 0h-1Zm1-2.983a.5.5 0 0 0-1 0h1Zm.605.431a.5.5 0 1 0 0-1v1Zm-2.21-1a.5.5 0 1 0 0 1v-1Zm7.54.5v3.052h1v-3.052h-1Zm.5 3.552h1.868v-1H20.82v1Zm-1.02-.5v-3.052h-1v3.052h1Zm-.9-3.351-1.481 1.98.8.6 1.482-1.982-.801-.598Zm-.68 1.98-1.481-1.98-.801.598 1.48 1.982.802-.6Zm-2.382-1.681v3.052h1v-3.052h-1Zm-7.05 0v3.052h1v-3.052h-1Zm.5 1.962h2.283v-1H9.29v1Zm1.783-1.962v3.052h1v-3.052h-1Zm3.314 3.052v-2.983h-1v2.983h1Zm.605-3.552h-2.21v1h2.21v-1Z" fill="currentColor"/>
  </symbol>
</svg>
  