<svg width="32" height="32" viewBox="0 0 32 32" fill="none" xmlns="http://www.w3.org/2000/svg">
  <symbol id="item" viewBox="0 0 32 32"  fill="none">
    <path d="m15.105 18.09-.33-.375.33.375Zm-4.944 4.365.33.375-.33-.375Zm0-12.91.33-.375-.33.375Zm4.944 4.365-.33.375.33-.375ZM6.5 20.365H6h.5Zm0-8.73H7h-.5Zm18.105 6.455-.33-.375.33.375Zm-4.944 4.365-.331-.375.33.375Zm0-12.91.33-.375-.33.375Zm4.944 4.365-.33.375.33-.375ZM16 20.365h-.5.5Zm0-8.73h.5-.5Zm-1.225 6.08L9.83 22.08l.662.75 4.944-4.365-.661-.75ZM9.83 9.92l4.945 4.365.661-.75-4.944-4.365-.662.75ZM7 20.365v-8.73H6v8.73h1Zm8.436-1.9c1.419-1.252 1.419-3.678 0-4.93l-.661.75c.967.854.967 2.576 0 3.43l.661.75ZM9.83 22.08c-.58.512-1.261.524-1.814.209C7.453 21.967 7 21.285 7 20.365H6c0 1.258.628 2.283 1.52 2.792.903.516 2.053.483 2.972-.328l-.662-.75Zm.662-12.91c-.92-.81-2.069-.843-2.972-.327-.892.51-1.52 1.534-1.52 2.792h1c0-.92.453-1.602 1.016-1.924.553-.315 1.234-.303 1.814.21l.662-.75Zm13.783 8.545L19.33 22.08l.662.75 4.944-4.365-.661-.75ZM19.33 9.92l4.945 4.365.661-.75-4.944-4.365-.662.75ZM16.5 20.365v-8.73h-1v8.73h1Zm8.436-1.9c1.419-1.252 1.419-3.678 0-4.93l-.661.75c.967.854.967 2.576 0 3.43l.661.75ZM19.33 22.08c-.58.512-1.261.524-1.814.209-.563-.322-1.016-1.004-1.016-1.924h-1c0 1.258.628 2.283 1.52 2.792.903.516 2.053.483 2.972-.328l-.662-.75Zm.662-12.91c-.92-.81-2.069-.843-2.972-.327-.892.51-1.52 1.534-1.52 2.792h1c0-.92.453-1.602 1.016-1.924.553-.315 1.234-.303 1.814.21l.662-.75Z" fill="currentColor"/>
  </symbol>
</svg>
  