<svg width="32" height="32" viewBox="0 0 32 32" fill="none" xmlns="http://www.w3.org/2000/svg">
  <symbol id="item" viewBox="0 0 32 32"  fill="none">
    <path d="m7.875 10.228.347.36.003-.003-.35-.357ZM12.42 5.77l-.347-.36-.003.003.35.357ZM21.538 26.5H10.462v1h11.076v-1Zm-11.076 0c-1.623 0-2.962-1.355-2.962-3.055h-1c0 2.227 1.762 4.055 3.962 4.055v-1ZM7.5 23.445V12.302h-1v11.143h1Zm0-11.143c0-.652.263-1.272.722-1.714l-.694-.72A3.38 3.38 0 0 0 6.5 12.302h1Zm.725-1.717 4.545-4.459-.7-.714-4.545 4.46.7.713Zm4.542-4.456a2.23 2.23 0 0 1 1.548-.629v-1a3.23 3.23 0 0 0-2.242.91l.694.72Zm1.548-.629h7.223v-1h-7.223v1Zm7.223 0c1.623 0 2.962 1.355 2.962 3.055h1c0-2.227-1.762-4.055-3.962-4.055v1ZM24.5 8.555v14.89h1V8.555h-1Zm0 14.89c0 1.7-1.338 3.055-2.962 3.055v1c2.201 0 3.962-1.828 3.962-4.055h-1ZM13.688 5.01v4.781h1v-4.78h-1Zm0 4.781c0 .914-.718 1.633-1.577 1.633v1c1.437 0 2.577-1.192 2.577-2.633h-1Zm-1.577 1.633H7.025v1h5.086v-1ZM10.375 18.995a.5.5 0 0 0-.75.66l.75-.66Zm2.008-2.93h.5a.5.5 0 0 0-.5-.5v.5Zm-.697-.5a.5.5 0 0 0 0 1v-1Zm2.357 4.37a.5.5 0 0 0 1 0h-1Zm1-3.935a.5.5 0 1 0-1 0h1Zm-.5 1.623a.5.5 0 1 0 0 1v-1Zm0-2.122a.5.5 0 0 0 0 1v-1Zm7.152 1.269a.5.5 0 1 0 .61-.793l-.61.793ZM22 19.56l.305.396a.5.5 0 0 0 .195-.396H22Zm0-1.385h.5a.5.5 0 0 0-.5-.5v.5Zm-.597-.5a.5.5 0 0 0 0 1v-1Zm-11.778 1.98c.367.417.92.844 1.675.844v-1c-.346 0-.648-.19-.925-.505l-.75.66Zm1.675.844c.304 0 .697-.095 1.023-.371.343-.291.56-.74.56-1.341h-1c0 .342-.113.499-.207.578a.602.602 0 0 1-.376.134v1Zm1.583-1.712v-2.723h-1v2.723h1Zm-.5-3.223h-.697v1h.697v-1Zm2.66 4.37V16h-1v3.935h1Zm-.5-1.312h1.573v-1h-1.573v1Zm1.573 0c.554 0 1.006-.176 1.322-.484.311-.302.456-.7.456-1.077h-1a.504.504 0 0 1-.154.36c-.1.098-.287.201-.624.201v1Zm1.778-1.561c0-.377-.145-.774-.456-1.077-.316-.308-.768-.484-1.322-.484v1c.337 0 .524.103.624.2a.504.504 0 0 1 .154.361h1Zm-1.778-1.561h-1.573v1h1.573v-1Zm6.189.476c-.386-.297-.803-.477-1.467-.477v1c.432 0 .637.1.857.27l.61-.793Zm-1.467-.477c-1.44 0-2.548 1.057-2.548 2.467h1c0-.826.627-1.467 1.548-1.467v-1Zm-2.548 2.467c0 1.41 1.107 2.468 2.548 2.468v-1c-.922 0-1.548-.641-1.548-1.468h-1Zm2.548 2.468c.663 0 1.08-.18 1.467-.477l-.61-.793c-.22.17-.425.27-.857.27v1Zm1.662-.874v-1.385h-1v1.385h1Zm-.5-1.885h-.597v1H22v-1Z" fill="currentColor"/>
  </symbol>
</svg>
  