<svg width="32" height="32" viewBox="0 0 32 32" fill="none" xmlns="http://www.w3.org/2000/svg">
  <symbol id="item" viewBox="0 0 32 32"  fill="none">
    <path d="m7.875 10.228.347.36.003-.003-.35-.357ZM12.42 5.77l-.347-.36-.003.003.35.357ZM21.538 26.5H10.462v1h11.076v-1Zm-11.076 0c-1.623 0-2.962-1.355-2.962-3.055h-1c0 2.227 1.762 4.055 3.962 4.055v-1ZM7.5 23.445V12.302h-1v11.143h1Zm0-11.143c0-.652.263-1.272.722-1.714l-.694-.72A3.38 3.38 0 0 0 6.5 12.302h1Zm.725-1.717 4.545-4.459-.7-.714-4.545 4.46.7.713Zm4.542-4.456a2.23 2.23 0 0 1 1.548-.629v-1a3.23 3.23 0 0 0-2.242.91l.694.72Zm1.548-.629h7.223v-1h-7.223v1Zm7.223 0c1.623 0 2.962 1.355 2.962 3.055h1c0-2.227-1.762-4.055-3.962-4.055v1ZM24.5 8.555v14.89h1V8.555h-1Zm0 14.89c0 1.7-1.338 3.055-2.962 3.055v1c2.201 0 3.962-1.828 3.962-4.055h-1ZM13.688 5.01v4.781h1v-4.78h-1Zm0 4.781c0 .914-.718 1.633-1.577 1.633v1c1.437 0 2.577-1.192 2.577-2.633h-1Zm-1.577 1.633H7.025v1h5.086v-1ZM17.573 19.734a.5.5 0 1 0 1 0h-1Zm.5-3.934h.5a.5.5 0 0 0-.903-.296l.403.296Zm-1.871 2.553-.404.296a.5.5 0 0 0 .807 0l-.403-.296ZM14.33 15.8l.403-.296a.5.5 0 0 0-.903.296h.5Zm-.5 3.934a.5.5 0 1 0 1 0h-1Zm-.98-3.63a.5.5 0 1 0-.794-.608l.795.608Zm-3.747 3.253a.5.5 0 1 0 .794.608l-.794-.608Zm.794-3.86a.5.5 0 0 0-.794.607l.794-.608Zm2.16 4.468a.5.5 0 0 0 .794-.608l-.795.608ZM20.59 15.8a.5.5 0 1 0-1 0h1Zm-.5 4h-.5a.5.5 0 0 0 .5.5v-.5Zm2.41.5a.5.5 0 1 0 0-1v1Zm-3.927-.566V15.8h-1v3.934h1Zm-.903-4.23-1.872 2.553.807.591 1.871-2.552-.806-.592Zm-1.065 2.553-1.872-2.553-.806.592 1.872 2.553.806-.592ZM13.83 15.8v3.934h1V15.8h-1Zm-1.774-.304-2.953 3.861.794.608 2.954-3.861-.795-.608Zm-2.953.608 2.953 3.86.795-.607-2.954-3.86-.794.607ZM19.59 15.8v4h1v-4h-1Zm.5 4.5h2.41v-1h-2.41v1Z" fill="currentColor"/>
  </symbol>
</svg>
  