<svg width="32" height="32" viewBox="0 0 32 32" fill="none" xmlns="http://www.w3.org/2000/svg">
  <symbol id="item" viewBox="0 0 32 32"  fill="none">
    <path d="m7.875 10.228.347.36.003-.003-.35-.357ZM12.42 5.77l-.347-.36-.003.003.35.357ZM21.538 26.5H10.462v1h11.076v-1Zm-11.076 0c-1.623 0-2.962-1.355-2.962-3.055h-1c0 2.227 1.762 4.055 3.962 4.055v-1ZM7.5 23.445V12.302h-1v11.143h1Zm0-11.143c0-.652.263-1.272.722-1.714l-.694-.72A3.38 3.38 0 0 0 6.5 12.302h1Zm.725-1.717 4.545-4.459-.7-.714-4.545 4.46.7.713Zm4.542-4.456a2.23 2.23 0 0 1 1.548-.629v-1a3.23 3.23 0 0 0-2.242.91l.694.72Zm1.548-.629h7.223v-1h-7.223v1Zm7.223 0c1.623 0 2.962 1.355 2.962 3.055h1c0-2.227-1.762-4.055-3.962-4.055v1ZM24.5 8.555v14.89h1V8.555h-1Zm0 14.89c0 1.7-1.338 3.055-2.962 3.055v1c2.201 0 3.962-1.828 3.962-4.055h-1ZM13.688 5.01v4.781h1v-4.78h-1Zm0 4.781c0 .914-.718 1.633-1.577 1.633v1c1.437 0 2.577-1.192 2.577-2.633h-1Zm-1.577 1.633H7.025v1h5.086v-1ZM9.5 20a.5.5 0 0 0 1 0h-1Zm.5-4v-.5a.5.5 0 0 0-.5.5h.5Zm0 1.659a.5.5 0 1 0 0 1v-1ZM13.976 20a.5.5 0 1 0 1 0h-1Zm.5-4v-.5a.5.5 0 0 0-.5.5h.5Zm0 1.659a.5.5 0 1 0 0 1v-1ZM19.697 20a.5.5 0 0 0 1 0h-1Zm1-3.889a.5.5 0 1 0-1 0h1ZM22 16.5a.5.5 0 0 0 0-1v1Zm-3.605-1a.5.5 0 1 0 0 1v-1ZM10.5 20v-4h-1v4h1Zm-.5-1.341h1.514v-1H10v1Zm1.514 0c.546 0 .99-.184 1.296-.5.3-.308.435-.707.435-1.08h-1a.55.55 0 0 1-.152.383c-.094.097-.266.197-.579.197v1Zm1.73-1.58A1.55 1.55 0 0 0 12.81 16c-.306-.315-.75-.499-1.295-.499v1c.312 0 .485.1.579.197a.55.55 0 0 1 .152.382h1Zm-1.73-1.579H10v1h1.514v-1Zm3.463 4.5v-4h-1v4h1Zm-.5-1.341h1.514v-1h-1.514v1Zm1.514 0c.546 0 .989-.184 1.295-.5.3-.308.435-.707.435-1.08h-1a.55.55 0 0 1-.151.383c-.095.097-.267.197-.58.197v1Zm1.73-1.58a1.55 1.55 0 0 0-.435-1.08c-.306-.315-.75-.499-1.295-.499v1c.312 0 .484.1.579.197a.55.55 0 0 1 .151.382h1Zm-1.73-1.579h-1.514v1h1.514v-1Zm4.706 4.5v-3.889h-1V20h1ZM22 15.5h-3.605v1H22v-1Z" fill="currentColor"/>
  </symbol>
</svg>
  