<svg width="32" height="32" viewBox="0 0 32 32" fill="none" xmlns="http://www.w3.org/2000/svg">
  <symbol id="item" viewBox="0 0 32 32"  fill="none">
    <path d="M15.5 25.5a.5.5 0 1 0 1 0h-1Zm1-19a.5.5 0 1 0-1 0h1Zm-5.75 15.133a.5.5 0 0 0 1 0h-1Zm1-11.266a.5.5 0 1 0-1 0h1ZM6 18.54a.5.5 0 1 0 1 0H6Zm1-5.078a.5.5 0 0 0-1 0h1Zm13.25 8.172a.5.5 0 0 0 1 0h-1Zm1-11.266a.5.5 0 1 0-1 0h1ZM25 18.54a.5.5 0 1 0 1 0h-1Zm1-5.078a.5.5 0 0 0-1 0h1ZM16.5 25.5v-19h-1v19h1Zm-4.75-3.867V10.367h-1v11.266h1ZM7 18.539v-5.078H6v5.078h1Zm14.25 3.094V10.367h-1v11.266h1ZM26 18.539v-5.078h-1v5.078h1Z" fill="currentColor"/>
  </symbol>
</svg>
  