<svg width="32" height="32" viewBox="0 0 32 32" fill="none" xmlns="http://www.w3.org/2000/svg">
  <symbol id="item" viewBox="0 0 32 32" stroke-width="1" fill="none">
    <path d="M21.775 4.164a.5.5 0 0 0-.967.255l.967-.255Zm.895 5.35.1.49a.5.5 0 0 0 .384-.617l-.484.127Zm-5.064.514a.5.5 0 0 0 .198.98l-.198-.98Zm8.714 6.538a.5.5 0 1 0-.998.05l.998-.05ZM20.808 4.419l1.379 5.223.967-.255-1.38-5.223-.966.255Zm1.763 4.605-4.965 1.005.198.98 4.965-1.005-.198-.98Zm-.187 15.253c-3.957 3.957-10.408 3.933-14.409-.068l-.707.707c4.385 4.386 11.47 4.422 15.824.068l-.707-.707Zm-14.409-.068c-4-4-4.025-10.452-.068-14.41L7.2 9.094c-4.353 4.354-4.317 11.438.068 15.823l.707-.707ZM7.907 9.8c3.958-3.956 10.409-3.932 14.41.069l.707-.707C18.638 4.775 11.554 4.739 7.2 9.093l.707.707Zm17.415 6.817a10.07 10.07 0 0 1-2.938 7.661l.708.707a11.07 11.07 0 0 0 3.229-8.418l-1 .05Z" fill="currentColor"/><path d="M11.903 20.892v-7.354c0-.846.949-1.346 1.646-.866l5.473 3.762a1.05 1.05 0 0 1-.02 1.745l-5.471 3.591a1.051 1.051 0 0 1-1.628-.878Z" stroke="currentColor"/>
  </symbol>
</svg>
  