<svg width="32" height="32" viewBox="0 0 32 32" fill="none" xmlns="http://www.w3.org/2000/svg">
  <symbol id="item" viewBox="0 0 32 32" stroke-width="1" fill="none">
    <path d="M6.5 8.327c0-1.01.818-1.827 1.827-1.827h15.346a1.827 1.827 0 1 1 0 3.654H8.327A1.827 1.827 0 0 1 6.5 8.327ZM6.5 15.077a2 2 0 0 1 2-2h15a2 2 0 0 1 2 2v1.846a2 2 0 0 1-2 2h-15a2 2 0 0 1-2-2v-1.846ZM6.5 23.673c0-1.009.818-1.827 1.827-1.827h15.346a1.827 1.827 0 1 1 0 3.654H8.327A1.827 1.827 0 0 1 6.5 23.673Z" stroke="currentColor" stroke-linecap="round"/>
  </symbol>
</svg>
  