<svg width="32" height="32" viewBox="0 0 32 32" fill="none" xmlns="http://www.w3.org/2000/svg">
  <symbol id="item" viewBox="0 0 32 32" stroke-width="1" fill="none">
    <path d="M23.308 16A7.308 7.308 0 0 1 16 23.308M23.308 16A7.308 7.308 0 0 0 16 8.692M23.308 16H25.5M16 23.308A7.308 7.308 0 0 1 8.692 16M16 23.308V25.5M8.692 16A7.308 7.308 0 0 1 16 8.692M8.692 16H6.5M16 8.692V6.5M9.282 9.282l1.55 1.55m10.335 10.335 1.55 1.55m0-13.435-1.55 1.55M10.833 21.168l-1.55 1.55" stroke="currentColor" stroke-linecap="round"/>
  </symbol>
</svg>
  