<svg width="32" height="32" viewBox="0 0 32 32" fill="none" xmlns="http://www.w3.org/2000/svg">
  <symbol id="item" viewBox="0 0 32 32"  fill="none">
    <path d="M8.107 20.22a.5.5 0 1 0-.708-.708l.708.707ZM5.68 21.23a.5.5 0 1 0 .707.708l-.707-.707Zm4.116.68a.5.5 0 1 0-.707-.707l.707.707Zm-4.7 3.286a.5.5 0 1 0 .707.707l-.707-.707Zm6.39-1.596a.5.5 0 1 0-.706-.707l.707.707Zm-2.505 1.092a.5.5 0 0 0 .707.707l-.707-.707Zm9.726-14.59v-.5.5Zm7.13-4.94.485-.124a.5.5 0 0 0-.364-.362l-.12.485ZM9.017 18.294l-.441-.236a.5.5 0 0 0 .087.59l.354-.354Zm3.697 3.697-.353.354a.5.5 0 0 0 .589.087l-.236-.441Zm-1.73-9.872a.5.5 0 1 0-.121-.992l.121.992ZM4 16.384l-.415-.279a.5.5 0 0 0 .624.734L4 16.384Zm3.881.3a.5.5 0 1 0 .184-.983l-.184.983Zm12 3.453a.5.5 0 0 0-.994-.119l.993.119ZM14.627 27l-.455-.207a.5.5 0 0 0 .733.622L14.628 27Zm.683-4.064a.5.5 0 1 0-.983.182l.983-.182ZM7.4 19.512l-1.718 1.719.707.707 1.719-1.719-.708-.707Zm1.691 1.69-3.993 3.994.707.707 3.993-3.993-.707-.707Zm1.69 1.691-1.798 1.799.707.707 1.799-1.799-.707-.707Zm7.928-12.292c.335 0 .662.1.94.285l.555-.831a2.69 2.69 0 0 0-1.495-.454v1Zm.94.285c.277.186.494.45.622.759l.924-.383a2.69 2.69 0 0 0-.991-1.207l-.555.831Zm.622.759c.128.309.161.649.096.976l.981.195a2.69 2.69 0 0 0-.153-1.554l-.924.383Zm.096.976a1.69 1.69 0 0 1-.462.866l.707.707a2.69 2.69 0 0 0 .736-1.378l-.98-.195Zm-.462.866a1.69 1.69 0 0 1-.866.462l.195.981a2.69 2.69 0 0 0 1.378-.736l-.707-.707Zm-.866.462a1.69 1.69 0 0 1-.976-.096l-.383.924a2.69 2.69 0 0 0 1.554.153l-.195-.98Zm-.976-.096a1.69 1.69 0 0 1-.759-.622l-.832.555a2.69 2.69 0 0 0 1.208.991l.383-.924Zm-.759-.622a1.69 1.69 0 0 1-.285-.94h-1c0 .533.158 1.053.453 1.495l.832-.555Zm-.285-.94c0-.448.178-.878.495-1.195l-.707-.707a2.69 2.69 0 0 0-.788 1.903h1Zm.495-1.195a1.69 1.69 0 0 1 1.195-.495v-1a2.69 2.69 0 0 0-1.902.788l.707.707ZM19.87 6.37l4.76 4.76.707-.707-4.76-4.76-.707.707Zm6.09-1.694c-.708-.176-3.077-.566-6.274.983-3.193 1.546-7.156 4.999-11.111 12.4l.882.471c3.887-7.274 7.715-10.543 10.664-11.971 2.944-1.426 5.066-1.045 5.597-.913l.241-.97ZM8.661 18.648l3.698 3.698.707-.708-3.697-3.697-.708.707Zm4.287 3.785c7.426-3.973 10.875-7.949 12.413-11.144 1.54-3.2 1.136-5.563.962-6.25l-.97.245c.13.511.524 2.625-.893 5.571-1.42 2.951-4.685 6.791-11.984 10.696l.472.882Zm-2.087-11.305c-1.864.227-4.738 1.2-7.277 4.977l.83.558c2.361-3.513 4.963-4.347 6.568-4.543l-.121-.992ZM4 16.384l.208.455h-.001l.005-.002.036-.014c.034-.014.09-.034.167-.058.153-.048.388-.11.7-.16.625-.098 1.56-.146 2.766.079l.184-.983c-1.325-.247-2.376-.199-3.105-.083a5.926 5.926 0 0 0-.845.193 3.707 3.707 0 0 0-.313.114l-.006.003-.003.001h-.001l.208.455Zm14.887 3.634c-.192 1.604-1.025 4.206-4.538 6.567l.557.83c3.778-2.539 4.75-5.413 4.974-7.278l-.993-.119ZM14.627 27l.456.207v-.002l.002-.002.002-.006a.785.785 0 0 0 .035-.085c.02-.054.048-.13.079-.229.061-.197.135-.48.192-.845.114-.73.163-1.78-.082-3.102l-.983.182c.223 1.204.175 2.14.077 2.765-.05.313-.111.55-.159.703a2.791 2.791 0 0 1-.072.203l-.002.006v-.002l.456.207Z" fill="currentColor"/>
  </symbol>
</svg>
  