<svg width="32" height="32" viewBox="0 0 32 32" fill="none" xmlns="http://www.w3.org/2000/svg">
  <symbol id="item" viewBox="0 0 32 32"  fill="none">
    <path d="m12.391 6.701-.215.451.003.002.212-.453Zm3.52 4.154.014.5a.5.5 0 0 0 .4-.78l-.413.28Zm-5.28-.376.213-.453h-.002l-.211.453ZM19.609 6.7l-.199-.459a.431.431 0 0 0-.013.006l.212.453Zm-3.525 4.154-.414-.28a.5.5 0 0 0 .4.78l.014-.5Zm5.28-.376.214.452.012-.006-.225-.446ZM8.327 18.116a.5.5 0 0 0-1 0h1Zm16.343 0a.5.5 0 1 0-1 0h1ZM12.18 7.154c.066.03.176.105.33.24.15.132.319.301.501.5.364.396.762.887 1.133 1.37a43.249 43.249 0 0 1 1.328 1.832l.02.03a.288.288 0 0 1 .005.007l.001.002.415-.28.414-.28-.001-.001s0-.002-.002-.002a.838.838 0 0 1-.005-.009l-.022-.032a44.203 44.203 0 0 0-1.36-1.876 22.065 22.065 0 0 0-1.19-1.438 7.768 7.768 0 0 0-.576-.573 2.54 2.54 0 0 0-.566-.396l-.425.906Zm3.733 3.701-.014-.5h-.012l-.034.001a38.103 38.103 0 0 1-.623.01c-.41.002-.966.001-1.554-.015a22.791 22.791 0 0 1-1.727-.104c-.548-.059-.93-.138-1.104-.22l-.426.904c.345.163.884.253 1.424.31.562.06 1.204.093 1.806.11a46.4 46.4 0 0 0 2.264.004h.012l-.012-.5Zm-5.07-.83a1.577 1.577 0 0 1-.499-.365l-.737.676c.23.25.506.453.814.596l.421-.907Zm-.499-.365a1.587 1.587 0 0 1-.321-.53l-.94.341c.116.32.294.614.524.865l.737-.676Zm-.321-.53a1.595 1.595 0 0 1-.095-.614l-.999-.044c-.014.34.038.68.154 1l.94-.342Zm-.095-.614c.01-.21.06-.414.148-.603l-.907-.423a2.593 2.593 0 0 0-.24.982l1 .044Zm.148-.603c.088-.19.213-.36.366-.5l-.675-.738c-.25.23-.454.507-.598.815l.907.423Zm.366-.5c.154-.14.333-.25.528-.32l-.34-.94c-.319.115-.612.293-.863.522l.675.738Zm.528-.32c.196-.07.403-.101.61-.091l.049-.999a2.568 2.568 0 0 0-.998.15l.34.94Zm.61-.091c.207.01.41.061.597.15l.43-.902a2.568 2.568 0 0 0-.978-.247l-.05.999Zm7.818-.754c-.194.09-.388.237-.568.395-.185.163-.381.36-.578.574a21.96 21.96 0 0 0-1.191 1.439 43.815 43.815 0 0 0-1.36 1.875l-.022.032a.838.838 0 0 1-.006.008l-.001.003.413.281.414.28.002-.002.005-.007.02-.03.08-.115a43.495 43.495 0 0 1 1.248-1.716c.371-.484.77-.975 1.134-1.371.183-.199.352-.368.501-.499.155-.136.266-.21.333-.241l-.424-.906Zm-3.313 4.607-.013.5H16.085a37.715 37.715 0 0 1 .175.004 44.84 44.84 0 0 0 2.09-.008 23.698 23.698 0 0 0 1.805-.11c.54-.057 1.079-.147 1.424-.31l-.427-.905c-.174.083-.555.162-1.103.221-.525.056-1.138.088-1.727.104a45.207 45.207 0 0 1-2.212.004h-.011l-.014.5Zm5.506.07a2.583 2.583 0 0 0 1.275-1.463l-.945-.326c-.135.39-.415.711-.78.896l.45.893Zm1.275-1.463c.22-.635.183-1.33-.1-1.94l-.906.422c.173.374.195.802.06 1.192l.946.326Zm-.1-1.94A2.58 2.58 0 0 0 21.347 6.2l-.357.934c.383.146.695.436.869.81l.906-.421ZM21.347 6.2a2.567 2.567 0 0 0-1.937.042l.398.918c.376-.163.8-.172 1.182-.026l.357-.934ZM7.327 18.116v5.692h1v-5.692h-1Zm0 5.692c0 .58.229 1.138.638 1.55l.71-.706a1.196 1.196 0 0 1-.349-.844h-1Zm.638 1.55c.41.41.966.642 1.546.642v-1a1.18 1.18 0 0 1-.837-.348l-.709.705ZM9.511 26h12.974v-1H9.51v1Zm12.974 0a2.18 2.18 0 0 0 1.545-.643l-.708-.705a1.18 1.18 0 0 1-.837.348v1Zm1.545-.643c.41-.411.64-.968.64-1.55h-1c0 .318-.126.621-.348.845l.708.705Zm.64-1.55v-5.691h-1v5.692h1Zm-8.758-8.23h8.746v-1h-8.746v1Zm8.746 0c.357 0 .698-.143.95-.395l-.709-.706a.34.34 0 0 1-.241.1v1Zm.95-.395c.251-.253.392-.595.392-.951h-1c0 .092-.037.18-.101.245l.709.706ZM26 14.23v-2.538h-1v2.538h1Zm0-2.538c0-.357-.14-.699-.392-.951l-.709.705a.348.348 0 0 1 .101.246h1Zm-.392-.951a1.34 1.34 0 0 0-.95-.395v1a.34.34 0 0 1 .241.1l.709-.705Zm-.95-.395H7.342v1h17.316v-1Zm-17.316 0a1.34 1.34 0 0 0-.95.395l.709.705a.34.34 0 0 1 .241-.1v-1Zm-.95.395a1.348 1.348 0 0 0-.392.95h1c0-.092.037-.18.101-.245l-.709-.705Zm-.392.95v2.539h1v-2.538H6Zm0 2.539c0 .356.14.698.392.95l.709-.705A.348.348 0 0 1 7 14.231H6Zm.392.95c.252.253.594.396.95.396v-1a.34.34 0 0 1-.241-.1l-.709.705Zm.95.396h8.57v-1h-8.57v1Zm8.07-4.642v14.501h1v-14.5h-1Z" fill="currentColor"/>
  </symbol>
</svg>
  