<svg width="32" height="32" viewBox="0 0 32 32" fill="none" xmlns="http://www.w3.org/2000/svg">
  <symbol id="item" viewBox="0 0 32 32" stroke-width="1" fill="none">
    <path d="m11.13 14.751 1.01-1.92 1.623 1.774m7.29.146-.955-2.026-1.802 2.085m-9.383 6.184h14.174M22.74 23.5l2.037-9.738a1.98 1.98 0 0 0 .756-.559c.202-.243.341-.53.405-.835.261-1.089-.317-2.204-1.289-2.496-.972-.292-1.974.349-2.235 1.437a2.208 2.208 0 0 0 .383 1.848l-3.618 3.698-2.152-4.634a2.104 2.104 0 0 0 .799-1.693c0-1.116-.818-2.028-1.825-2.028-1.007 0-1.824.912-1.824 2.036a2.12 2.12 0 0 0 .798 1.694l-2.152 4.634-3.618-3.707a2.207 2.207 0 0 0 .383-1.857c-.262-1.086-1.262-1.73-2.236-1.44-.974.29-1.55 1.416-1.29 2.504.065.306.204.593.406.836.202.243.461.435.756.56l2.037 9.737h13.478v.004Z" stroke="currentColor" stroke-linecap="round" stroke-linejoin="round"/>
  </symbol>
</svg>
  