<svg width="32" height="32" viewBox="0 0 32 32" fill="none" xmlns="http://www.w3.org/2000/svg">
  <symbol id="item" viewBox="0 0 32 32" stroke-width="1" fill="none">
    <path d="M9.8 7.03a10.891 10.891 0 0 1 12.4 0m2.77 2.77a10.89 10.89 0 0 1 0 12.4M7.03 9.8a10.891 10.891 0 0 0 0 12.4m2.77 2.769a10.892 10.892 0 0 0 12.4 0M11.967 10.167a7.096 7.096 0 0 1 8.066 0m1.8 1.8a7.095 7.095 0 0 1 0 8.065m-11.665-8.065a7.095 7.095 0 0 0 0 8.065m1.8 1.8a7.096 7.096 0 0 0 8.065 0m.338-9.946-.257-.257a1.09 1.09 0 0 1-.128-1.391l2.583-3.74a.545.545 0 0 1 .83-.07l2.176 2.176a.546.546 0 0 1-.07.83l-3.74 2.583a1.09 1.09 0 0 1-1.394-.131Zm-8.485 8.484-.257-.257a1.09 1.09 0 0 0-1.39-.127l-3.74 2.582a.545.545 0 0 0-.07.831l2.175 2.175a.546.546 0 0 0 .83-.07l2.583-3.739a1.091 1.091 0 0 0-.13-1.395Zm8.228 0 .257-.257a1.09 1.09 0 0 1 1.39-.127l3.74 2.582a.544.544 0 0 1 .07.831l-2.175 2.175a.546.546 0 0 1-.83-.07l-2.583-3.739a1.09 1.09 0 0 1 .13-1.395Zm-8.485-8.484.257-.257a1.09 1.09 0 0 0 .128-1.391L9.43 6.498a.545.545 0 0 0-.83-.07L6.424 8.604a.545.545 0 0 0 .07.83l3.74 2.583a1.09 1.09 0 0 0 1.394-.131Z" stroke="currentColor" stroke-linecap="round" stroke-linejoin="round"/>
  </symbol>
</svg>
  