<svg width="32" height="32" viewBox="0 0 32 32" fill="none" xmlns="http://www.w3.org/2000/svg">
  <symbol id="item" viewBox="0 0 32 32" stroke-width="1" fill="none">
    <path d="M6.265 14.91v11.44a1.21 1.21 0 0 0 1.215 1.089h17.43a.991.991 0 0 0 .964-1.09V14.911m-19.609 0L4.288 5.22a.588.588 0 0 1 .594-.66h22.626a.507.507 0 0 1 .468.66l-2.102 9.69m-19.609 0h19.609m-14.707 7.08a1.634 1.634 0 0 0 1.634-1.633v-.545a1.634 1.634 0 1 0-3.268 0v.545a1.634 1.634 0 0 0 1.634 1.634Zm0 0c.926 0 2.724.458 2.724 1.635v1.089m-2.724-2.723c-.926 0-2.723.457-2.723 1.634v1.089m7.08-6.536h1.63m-1.63 1.634h2.992m1.911 0h2.99m-11.16-7.626h7.08m-3.812 10.35h1.629M15.52 24.17h2.723m2.184 0h2.99" stroke="currentColor" stroke-miterlimit="10" stroke-linecap="round"/>
  </symbol>
</svg>
  