
<svg width="1em" height="1em"    viewBox="0 0 32 32" fill="none" xmlns="http://www.w3.org/2000/svg">
<symbol id="item"
width="1em"
height="1em"
viewBox="0 0 32 32"
fill="none"
>
<path d="m13.638 16.075 2.01 1.922 3.348-4.464m-7.457-4.618a2.018 2.018 0 0 0 2.606-1.08c.698-1.631 3.012-1.631 3.71 0a2.018 2.018 0 0 0 2.606 1.08c1.648-.66 3.284.976 2.624 2.624a2.018 2.018 0 0 0 1.08 2.606c1.631.698 1.631 3.012 0 3.71a2.018 2.018 0 0 0-1.08 2.606c.66 1.648-.976 3.284-2.624 2.624a2.018 2.018 0 0 0-2.606 1.08c-.698 1.631-3.012 1.631-3.71 0a2.018 2.018 0 0 0-2.606-1.08c-1.648.66-3.284-.976-2.624-2.624a2.018 2.018 0 0 0-1.08-2.606c-1.631-.698-1.631-3.012 0-3.71a2.018 2.018 0 0 0 1.08-2.606c-.66-1.648.976-3.284 2.624-2.624Z" stroke="var(--color--bulma-100)" stroke-linecap="round" stroke-linejoin="round"/>
</symbol>
</svg>
  