<svg width="32" height="32" viewBox="0 0 32 32" fill="none" xmlns="http://www.w3.org/2000/svg">
  <symbol id="item" viewBox="0 0 32 32" stroke-width="1" fill="none">
    <path d="M8 8.5h10.91c.963 0 1.888.395 2.57 1.098a3.81 3.81 0 0 1 1.066 2.652 3.81 3.81 0 0 1-1.066 2.652A3.581 3.581 0 0 1 18.91 16M8 23.5h12.364c.964 0 1.889-.395 2.57-1.098A3.81 3.81 0 0 0 24 19.75a3.81 3.81 0 0 0-1.065-2.652A3.581 3.581 0 0 0 20.364 16h-9.455M10.91 8.5v15M13.818 8.5V4M18.182 8.5V4M13.818 28v-4.5M18.182 28v-4.5" stroke="currentColor" stroke-linecap="round" stroke-linejoin="round"/>
  </symbol>
</svg>
  