<svg width="32" height="32" viewBox="0 0 32 32" fill="none" xmlns="http://www.w3.org/2000/svg">
  <symbol id="item" viewBox="0 0 32 32" stroke-width="1" fill="none">
    <path d="M20.325 16a4.38 4.38 0 0 1-4.375 4.385A4.38 4.38 0 0 1 11.575 16a4.38 4.38 0 0 1 4.375-4.385A4.38 4.38 0 0 1 20.325 16Z" stroke="currentColor"/><path d="M14.623 6.843a2.737 2.737 0 0 1 2.654 0l6.096 3.452a2.63 2.63 0 0 1 1.327 2.253v6.904a2.63 2.63 0 0 1-1.326 2.253l-6.097 3.452a2.736 2.736 0 0 1-2.654 0l-6.096-3.452A2.63 2.63 0 0 1 7.2 19.452v-6.904a2.63 2.63 0 0 1 1.327-2.253l6.097-3.452Z" stroke="currentColor"/>
  </symbol>
</svg>
  