
<svg width="1em" height="1em"    viewBox="0 0 32 32" fill="none" xmlns="http://www.w3.org/2000/svg">
<symbol id="item"
width="1em"
height="1em"
viewBox="0 0 32 32"
fill="none"
>
<path d="m12.993 14.268-5.777-2.954a1.175 1.175 0 0 1-.531-1.578c.29-.584.994-.821 1.578-.531l6.23 3.179s.972 4.755-1.95 8.844m-.492-11.207a1.384 1.384 0 0 1 .034-1.157c.309-.621.825-.764 1.22-.709a.19.19 0 0 1 .104.028c.405.084.762.309 1.027.628.48.544 1.499 1.519 3.203 2.106.988.327 1.44.833 1.97 1.753.321.582.69 1.258.983 1.944 0 0 .521 1.55 1.764 2.167l3.124 1.511M11.306 16.06l-3.901-1.937a1.176 1.176 0 0 1-.53-1.578l.488-.986m2.49 6.385-2.135-1.06a1.176 1.176 0 0 1-.53-1.578l.503-1.013M22.72 24.83l-3.336-1.637c-1.902-.991-2.354-1.028-2.354-1.028s-.517-.14-1.232-.26c-2.21-.323-3.951-.788-5.976-1.723l-1.478-.733c-.583-.29-1.013-1.09-.723-1.674l.37-.747m16.638.895-3.133 6.308M16.44 12.65c.241-.58.683-1.386 2.055-1.22" stroke="var(--color--bulma-100)" stroke-width=".8" stroke-miterlimit="10" stroke-linecap="round" stroke-linejoin="round"/>
</symbol>
</svg>
  