
<svg width="1em" height="1em"    viewBox="0 0 32 32" fill="none" xmlns="http://www.w3.org/2000/svg">
<symbol id="item"
width="1em"
height="1em"
viewBox="0 0 32 32"
fill="none"
>
<path d="m20.438 22.616-.337.217.337-.216Zm-.108-.166.337-.217-.337.217Zm-8.66 0-.336-.217.336.217Zm-.108.166.336.218-.336-.218Zm-4.918.106.327-.23-.327.23Zm-.057-.08-.327.23.327-.23ZM8.137 9.67l.366.163-.365-.163Zm4.855-.72-.303.263.303-.262Zm6.016 0 .302.263-.302-.262Zm4.855.72.365-.163-.365.163Zm1.55 12.972.327.231-.327-.231Zm-.057.08-.326-.23.326.23ZM11.412 12.597a.4.4 0 1 0-.8 0h.8Zm-.8 3.945a.4.4 0 0 0 .8 0h-.8Zm-1.49-2.372a.4.4 0 0 0 0 .8v-.8Zm3.78.8a.4.4 0 1 0 0-.8v.8Zm10.03 8.631c-.86 0-1.669-.444-2.159-1.2l-.671.434c.632.976 1.688 1.566 2.83 1.566v-.8Zm-2.158-1.2-.107-.167-.673.434.107.166.673-.433Zm-.108-.167c-.943-1.457-2.519-2.335-4.218-2.335v.8c1.418 0 2.746.732 3.546 1.97l.672-.435Zm-4.218-2.335h-.896v.8h.896v-.8Zm-.896 0c-1.7 0-3.275.878-4.218 2.335l.671.435c.802-1.238 2.129-1.97 3.547-1.97v-.8Zm-4.218 2.335-.108.166.672.435.108-.166-.672-.435Zm-.108.166A2.573 2.573 0 0 1 9.067 23.6v.8c1.142 0 2.2-.59 2.831-1.566l-.672-.435ZM9.067 23.6c-.818 0-1.604-.41-2.096-1.108l-.654.461a3.381 3.381 0 0 0 2.75 1.447v-.8ZM6.97 22.491l-.057-.08-.653.461.057.081.653-.462Zm-.057-.08a2.813 2.813 0 0 1-.513-1.632h-.8c0 .757.228 1.481.66 2.093l.653-.461ZM6.4 20.779v-1.064h-.8v1.064h.8Zm0-1.064c0-3.393.728-6.81 2.103-9.882l-.73-.326A25.163 25.163 0 0 0 5.6 19.715h.8Zm2.103-9.882c.392-.877 1.24-1.433 2.149-1.433v-.8c-1.238 0-2.364.755-2.88 1.907l.73.326ZM10.652 8.4h.284v-.8h-.284v.8Zm.284 0c.663 0 1.303.294 1.754.813l.604-.525A3.128 3.128 0 0 0 10.936 7.6v.8Zm1.754.813c.366.422.893.668 1.448.668v-.8c-.317 0-.626-.14-.844-.393l-.604.525Zm1.448.668h3.725v-.8h-3.725v.8Zm3.725 0c.555 0 1.081-.246 1.447-.668l-.604-.525a1.12 1.12 0 0 1-.843.393v.8Zm1.448-.668c.45-.52 1.09-.813 1.754-.813v-.8c-.901 0-1.76.399-2.359 1.088l.605.525Zm1.754-.813h.283v-.8h-.283v.8Zm.283 0c.91 0 1.757.556 2.15 1.433l.73-.326c-.516-1.152-1.641-1.907-2.88-1.907v.8Zm2.15 1.433a24.367 24.367 0 0 1 2.102 9.882h.8c0-3.504-.75-7.033-2.172-10.208l-.73.326Zm2.102 9.882v1.064h.8v-1.064h-.8Zm0 1.064c0 .594-.178 1.157-.513 1.632l.653.461c.432-.612.66-1.337.66-2.093h-.8Zm-.513 1.632-.057.08.653.463.057-.081-.653-.462Zm-.058.081a2.583 2.583 0 0 1-2.096 1.108v.8a3.382 3.382 0 0 0 2.75-1.446l-.654-.462Zm-8.902-4.76c0 .1-.073.15-.127.15v.8c.528 0 .927-.44.927-.95h-.8Zm-.127.15c-.054 0-.127-.05-.127-.15h-.8c0 .51.399.95.927.95v-.8Zm-.127-.15c0-.099.073-.15.127-.15v-.8c-.528 0-.927.442-.927.95h.8Zm.127-.15c.054 0 .127.052.127.15h.8c0-.508-.4-.95-.927-.95v.8Zm5.194-4.736c0 .028-.01.049-.023.063a.049.049 0 0 1-.037.017v.8c.49 0 .86-.41.86-.88h-.8Zm-.06.08a.049.049 0 0 1-.036-.017.089.089 0 0 1-.023-.063h-.8c0 .47.369.88.86.88v-.8Zm-.06-.08c0-.027.011-.049.024-.062a.049.049 0 0 1 .036-.017v-.8a.87.87 0 0 0-.86.88h.8Zm.06-.08a.05.05 0 0 1 .037.018.089.089 0 0 1 .023.062h.8a.87.87 0 0 0-.86-.88v.8Zm.06 3.525a.09.09 0 0 1-.023.062.05.05 0 0 1-.037.018v.8c.49 0 .86-.41.86-.88h-.8Zm-.06.08a.049.049 0 0 1-.036-.018.089.089 0 0 1-.023-.062h-.8c0 .47.369.88.86.88v-.8Zm-.06-.08c0-.027.011-.049.024-.062a.049.049 0 0 1 .036-.017v-.8a.87.87 0 0 0-.86.879h.8Zm.06-.08c.011 0 .024.004.037.018a.089.089 0 0 1 .023.062h.8a.87.87 0 0 0-.86-.88v.8Zm-1.668-1.642c0 .027-.01.048-.023.062a.05.05 0 0 1-.037.017v.8c.491 0 .86-.41.86-.88h-.8Zm-.06.08a.049.049 0 0 1-.035-.018.09.09 0 0 1-.024-.062h-.8c0 .47.37.88.86.88v-.8Zm-.059-.08a.09.09 0 0 1 .024-.063.049.049 0 0 1 .036-.017v-.8a.87.87 0 0 0-.86.88h.8Zm.06-.08a.05.05 0 0 1 .036.018.089.089 0 0 1 .023.062h.8a.87.87 0 0 0-.86-.88v.8Zm3.45.08c0 .027-.01.048-.023.062a.05.05 0 0 1-.036.017v.8c.49 0 .86-.41.86-.88h-.8Zm-.059.08a.049.049 0 0 1-.036-.018.09.09 0 0 1-.023-.062h-.8c0 .47.369.88.86.88v-.8Zm-.06-.08a.09.09 0 0 1 .024-.063.049.049 0 0 1 .036-.017v-.8a.87.87 0 0 0-.86.88h.8Zm.06-.08a.05.05 0 0 1 .036.018.089.089 0 0 1 .024.062h.8a.87.87 0 0 0-.86-.88v.8Zm-12.186-1.893v1.973h.8v-1.973h-.8Zm0 1.973v1.972h.8V14.57h-.8Zm-1.49.4h1.89v-.8h-1.89v.8Zm1.89 0h1.89v-.8h-1.89v.8Z" fill="var(--color--bulma-100)"/>
</symbol>
</svg>
  