<svg width="32" height="32" viewBox="0 0 32 32" fill="none" xmlns="http://www.w3.org/2000/svg">
  <symbol id="item" viewBox="0 0 32 32" stroke-width="1" fill="none">
    <path d="M10.148 8.516A9.46 9.46 0 0 1 16 6.5a9.46 9.46 0 0 1 5.852 2.016M8.153 10.643A9.456 9.456 0 0 0 6.5 16a9.5 9.5 0 0 0 19 0c0-1.987-.61-3.832-1.654-5.357M9.753 22.73l4.942-5.086c.387-.398.603-.931.603-1.486v-4.366m7.297 10.938-4.867-5.089a2.131 2.131 0 0 1-.59-1.473v-4.376" stroke="currentColor" stroke-linecap="round"/>
  </symbol>
</svg>
  