<svg width="32" height="32" viewBox="0 0 32 32" fill="none" xmlns="http://www.w3.org/2000/svg">
  <symbol id="item" viewBox="0 0 32 32" stroke-width="1" fill="none">
    <path d="M16 5c5.337 0 9.5 2.356 9.5 7.196C25.5 18.332 24.841 27 15.968 27S6.5 18.399 6.5 12.197C6.5 7.356 10.663 5 16 5Zm5.759 3.329c-.494 1.105-1.261 2.121-2.287 2.865a.164.164 0 0 1-.078.03c-.848.107-1.66.442-2.28.988a.156.156 0 0 1-.08.037 5.773 5.773 0 0 1-2.066 0 .164.164 0 0 1-.08-.037c-.622-.545-1.434-.88-2.283-.987a.164.164 0 0 1-.077-.03c-1.026-.745-1.793-1.761-2.287-2.866a6.446 6.446 0 0 0-1.303 3.868v.117c0 .038-.014.07-.04.097-.527.545-.834 1.226-.834 1.958 0 1.913 1.966 3.182 3.934 3.182.148 0 .296-.007.444-.02.063-.005.12.021.152.07a.134.134 0 0 1-.003.156 2.718 2.718 0 0 0-.525 1.59c0 .538.166 1.056.473 1.514.023.034.03.072.019.112a.143.143 0 0 1-.075.091c-.576.308-1.194.813-1.194 1.475 0 .714.715 1.245 1.341 1.55.997.487 2.25.68 3.369.68 1.12 0 2.371-.193 3.368-.68.626-.305 1.341-.836 1.341-1.55 0-.662-.618-1.168-1.194-1.475a.144.144 0 0 1-.074-.091.133.133 0 0 1 .019-.112c.307-.458.472-.976.472-1.514a2.72 2.72 0 0 0-.525-1.59.133.133 0 0 1-.003-.156.162.162 0 0 1 .153-.07c.148.014.296.02.444.02 1.967 0 3.934-1.269 3.934-3.182 0-.732-.307-1.413-.834-1.958a.136.136 0 0 1-.04-.097v-.117a6.447 6.447 0 0 0-1.303-3.868h.002ZM16 22.026c.423 0 2.801.038 2.801.668 0 .629-2.378.667-2.801.667-.423 0-2.801-.038-2.801-.667 0-.63 2.378-.668 2.801-.668Zm-3.706-8.99c.576 0 1.196.102 1.71.347.394.187.784.493.86.915a.8.8 0 0 1 0 .283c-.075.423-.466.729-.86.916-.514.245-1.134.347-1.71.347-.575 0-1.196-.102-1.71-.347-.394-.187-.785-.493-.86-.916a.794.794 0 0 1 0-.283c.075-.422.466-.728.86-.915.514-.245 1.135-.347 1.71-.347Zm7.411 0c.576 0 1.196.102 1.71.347.394.187.784.493.86.915a.79.79 0 0 1 0 .283c-.075.423-.466.729-.86.916-.514.245-1.134.347-1.71.347-.575 0-1.195-.102-1.71-.347-.394-.187-.785-.493-.86-.916a.8.8 0 0 1 0-.283c.075-.422.466-.728.86-.915.515-.245 1.135-.347 1.71-.347Zm-5.415 5.823 1.075-1.377a.786.786 0 0 1 .634-.299c.259 0 .485.107.635.3l1.075 1.376a.657.657 0 0 1 .06.744.778.778 0 0 1-.695.388h-2.15a.779.779 0 0 1-.693-.388.656.656 0 0 1 .06-.744Z" stroke="#1C1B17" stroke-linecap="round" stroke-linejoin="round"/>
  </symbol>
</svg>
  