
<svg width="1em" height="1em"    viewBox="0 0 32 32" fill="none" xmlns="http://www.w3.org/2000/svg">
<symbol id="item"
width="1em"
height="1em"
viewBox="0 0 32 32"
fill="none"
>
<path d="m7.769 7.589-.283-.283.283.283Zm-.18.18.283.283-.283-.283Zm0 3.335.283-.282-.283.282Zm1.73 1.736-.283.282a.4.4 0 0 0 .566 0l-.283-.282Zm3.504-3.516.284.283a.4.4 0 0 0 0-.565l-.284.282Zm-1.73-1.735.284-.283h-.001l-.283.283Zm3.754 7.789a.4.4 0 0 0 .567-.565l-.567.565Zm-3.393-4.537a.4.4 0 0 0-.567.564l.567-.564ZM21.54 21.521l-.044.398a.4.4 0 0 0 .442-.442l-.398.044Zm-1.814-3.538.284-.282h-.001l-.283.282Zm-4.592-2.892.045-.398a.4.4 0 0 0-.443.44l.398-.042Zm6.506 3.074a.4.4 0 1 0-.316.735l.316-.735Zm2.042.839.004.4a.4.4 0 0 0 .385-.492l-.389.092Zm-2.233-3.287-.247.315.247-.315Zm-3.81-2.086-.128.379.128-.379Zm-2.758-1.526.246-.315-.003-.002-.244.317Zm-2.456-2.395a.4.4 0 0 0-.488.634l.488-.634Zm.567-.744a.4.4 0 0 0-.425.678l.425-.678Zm2.642 2.13-.213.338.213-.338Zm2.902 1.227-.088.39.088-.39Zm4.004 1.673.212-.339-.212.339Zm2.56 3.036.047.398a.4.4 0 0 0 .33-.53l-.377.132Zm-1.222-.418a.4.4 0 0 0-.113.792l.113-.792Zm-4.747 4.851a.4.4 0 0 0-.743.296l.743-.296Zm.036 2.212-.093.389a.4.4 0 0 0 .493-.385l-.4-.004Zm-3.276-2.24.315-.246-.315.245Zm-2.08-3.822.38-.128-.38.128Zm-1.52-2.768.316-.245-.316.245Zm-1.815-2.983a.4.4 0 1 0-.632.491l.632-.491Zm6.79 11.728a.4.4 0 0 0-.789.133l.789-.133Zm-.347 1.507-.134.377a.4.4 0 0 0 .532-.332l-.398-.045Zm-3.027-2.568-.34.21.001.002.34-.212Zm-1.667-4.017-.39.087.39-.087ZM11 15.604l-.34.211h.001l.34-.211Zm-1.445-3.075a.4.4 0 0 0-.68.423l.68-.423Zm7.654-.347a.4.4 0 0 0-.567-.564l.567.564ZM11.478 16.8a.4.4 0 1 0 .567.565l-.566-.565Zm3.473-5.929a.4.4 0 1 0-.567-.564l.567.564Zm-4.722 3.604a.4.4 0 0 0 .567.564l-.566-.565ZM7.486 7.305l-.18.18.567.566.18-.181-.567-.565Zm-.18.18a2.763 2.763 0 0 0 0 3.9l.567-.564a1.963 1.963 0 0 1 0-2.77l-.567-.565Zm0 3.9 1.73 1.736.567-.565-1.73-1.735-.567.565Zm2.297 1.736 3.505-3.515-.567-.565-3.504 3.515.566.565Zm3.505-4.08-1.73-1.736-.567.565 1.73 1.736.567-.565Zm-1.731-1.736a2.751 2.751 0 0 0-3.89 0l.566.566a1.952 1.952 0 0 1 2.758 0l.566-.566Zm-2.652 4.943 2.847-2.856-.566-.565-2.847 2.856.566.565Zm6.69 2.564-3.96-3.973-.567.565 3.96 3.973.567-.565Zm2.317 5.171c1.117 1.12 2.48 1.791 3.765 1.936l.089-.795c-1.081-.122-2.282-.697-3.288-1.706l-.566.565Zm4.207 1.494c-.144-1.284-.812-2.651-1.928-3.776l-.568.564c1.006 1.014 1.58 2.219 1.7 3.3l.796-.088Zm-1.929-3.776c-.554-.555-1.429-1.262-2.315-1.847a11.61 11.61 0 0 0-1.32-.766c-.417-.2-.834-.354-1.195-.395l-.09.795c.228.026.548.133.937.321.382.184.803.432 1.227.712.85.562 1.681 1.235 2.19 1.745l.566-.565Zm-5.273-2.567c.04.363.192.781.392 1.2.203.425.47.881.761 1.327.584.889 1.288 1.767 1.842 2.322l.566-.565c-.508-.51-1.179-1.343-1.739-2.196a10.803 10.803 0 0 1-.708-1.232c-.186-.391-.293-.713-.318-.942l-.796.086Zm6.588 3.766c.79.34 1.602.512 2.362.504l-.008-.8c-.636.007-1.338-.138-2.038-.44l-.316.736Zm2.747.012c-.299-1.26-1.127-2.533-2.376-3.51l-.493.63c1.124.88 1.839 2.003 2.09 3.064l.78-.184Zm-2.376-3.51c-.919-.72-2.607-1.702-3.927-2.15l-.257.758c1.222.414 2.832 1.349 3.69 2.022l.494-.63Zm-3.927-2.15c-.95-.322-1.836-.832-2.641-1.462l-.493.63c.863.676 1.828 1.234 2.877 1.59l.257-.758Zm-2.644-1.463-2.7-2.079-.487.634 2.7 2.078.487-.633Zm-2.557-2.145 2.854 1.79.425-.677-2.854-1.791-.425.678Zm2.855 1.79c.927.58 1.946 1.035 3.026 1.279l.176-.78c-.978-.221-1.913-.636-2.778-1.176l-.424.678Zm3.026 1.279c1.256.283 2.956 1.045 3.88 1.622l.424-.678c-.987-.617-2.77-1.418-4.128-1.724l-.176.78Zm3.879 1.622c1.208.758 2.036 1.802 2.395 2.83l.755-.265c-.426-1.22-1.384-2.402-2.725-3.243l-.425.678Zm2.726 2.3c-.37.044-.766.038-1.175-.02l-.113.791c.472.067.937.076 1.382.024l-.094-.795Zm-6.665 5.126c.262.657.386 1.31.38 1.912l.8.008a5.842 5.842 0 0 0-.437-2.216l-.743.296Zm.872 1.527c-1.057-.253-2.176-.969-3.054-2.097l-.631.49c.974 1.253 2.243 2.085 3.5 2.385l.185-.778Zm-3.054-2.097c-.67-.862-1.602-2.478-2.015-3.704l-.759.256c.447 1.324 1.425 3.017 2.143 3.94l.631-.492Zm-2.015-3.704c-.355-1.052-.912-2.02-1.584-2.885l-.632.49c.627.808 1.136 1.698 1.457 2.65l.759-.255Zm-1.585-2.885-2.13-2.738-.632.491 2.131 2.738.631-.491Zm3.871 9.123c.079.467.092.916.045 1.33l.795.09a5.58 5.58 0 0 0-.051-1.553l-.789.133Zm.576.997c-1.025-.364-2.066-1.195-2.822-2.403l-.678.424c.839 1.341 2.016 2.301 3.232 2.733l.268-.754Zm-2.82-2.402c-.576-.927-1.335-2.632-1.618-3.893l-.78.174c.304 1.363 1.103 3.151 1.717 4.14l.68-.421Zm-1.618-3.893c-.243-1.086-.692-2.105-1.274-3.036l-.679.424c.542.867.952 1.801 1.172 2.786l.781-.174Zm-1.274-3.036L9.556 12.53l-.68.423 1.786 2.863.679-.423Zm5.302-3.774-5.165 5.181.567.565 5.165-5.182-.567-.564Zm-2.259-1.312-4.155 4.168.567.564 4.155-4.168-.567-.564Z" fill="#1A212A"/>
</symbol>
</svg>
  