<svg width="32" height="32" viewBox="0 0 32 32" fill="none" xmlns="http://www.w3.org/2000/svg">
  <symbol id="item" viewBox="0 0 32 32"  fill="none">
    <path d="M9.15 27.106a.5.5 0 0 0 .633-.774l-.634.774Zm-2.39-3.217.1-.49-1.355-.279.864 1.081.39-.312Zm16.895.465.467-.178-.122-.32-.342-.002-.003.5Zm.224 1.99a.5.5 0 1 0 .934-.356l-.934.356Zm-5.02-3.847.453-.212-.132-.282-.31-.006-.01.5Zm-4.792-.095.01-.5-.29-.005-.148.247.428.258Zm.786-2.707a.5.5 0 0 0 0 1v-1Zm7.842 1a.5.5 0 1 0 0-1v1Zm-8.123.718a.5.5 0 0 0 .194-.98l-.194.98Zm-8.057.566-.482.133.162.586.543-.271-.223-.448Zm8.423-16.887a.5.5 0 0 0-.495-.869l.495.87Zm-.648 17.29a.5.5 0 1 0 1 0h-1Zm.5-18.882V3h-.5v.5h.5Zm1.756 0h.5V3h-.5v.5Zm0 .93h-.5v.5h.5v-.5Zm1.86.5a.5.5 0 0 0 0-1v1Zm7.888 22.778a.5.5 0 0 0-.588-.81l.588.81Zm-6.701-.405.353-.354-.146-.146h-.207v.5Zm-.04 0v-.5h-.162l-.13.095.293.405Zm-6.407 0 .354-.354-.147-.146h-.207v.5Zm-.039 0v-.5h-.162l-.131.095.293.405Zm-6.054-.354a.5.5 0 0 0-.707.707l.707-.706Zm2.73-.617c-.613-.502-1.27-1.187-1.78-1.756a28.543 28.543 0 0 1-.838-.98l-.011-.015a.297.297 0 0 1-.003-.003v-.001a333.488 333.488 0 0 1-.782.624l.002.002.003.004.013.016a25.245 25.245 0 0 0 .871 1.02c.521.581 1.218 1.312 1.891 1.863l.634-.774Zm-3.124-1.953c.522.107 1.865.185 3.517.246 1.678.062 3.734.108 5.73.142a705.948 705.948 0 0 0 7.097.083l.48.003.126.001H23.652l.003-.5.003-.5H23.488l-.479-.004a791.135 791.135 0 0 1-7.087-.083c-1.993-.034-4.043-.08-5.71-.141-1.692-.063-2.932-.14-3.352-.227l-.202.98Zm16.529.153.69 1.812.935-.356-.69-1.812-.935.356Zm-3.058-.498-.818-1.749-.906.424.819 1.749.905-.424Zm-1.26-2.037-4.793-.095-.02 1 4.792.095.02-1Zm-5.231.147-1.02 1.693.856.517 1.02-1.694-.856-.516Zm.769-15.56 7.084 13.908.89-.454L15.3 6.131l-.891.454Zm.445 14.111h7.842v-1h-7.842v1Zm-.087-.263c-2.255-.445-4.372-.168-5.914.214-.773.191-1.408.41-1.851.582a11.44 11.44 0 0 0-.655.278l-.038.018-.01.005-.004.002h-.001l.222.448.223.448h.001l.006-.003.028-.014a10.386 10.386 0 0 1 .59-.25c.41-.16 1.004-.364 1.729-.544 1.454-.36 3.414-.61 5.48-.203l.194-.98Zm-7.769 1.414c-1.45-5.261.506-9.428 2.863-12.313a20.973 20.973 0 0 1 4.629-4.16 12.55 12.55 0 0 1 .444-.278l.005-.003-.248-.434c-.247-.435-.248-.434-.248-.434l-.003.002a.888.888 0 0 1-.034.02 13.754 13.754 0 0 0-.463.29A21.966 21.966 0 0 0 9.085 8.9c-2.484 3.04-4.616 7.534-3.052 13.21l.964-.266Zm7.403-.951.28-.414h.002s0 .001 0 0l-.006-.003a2.796 2.796 0 0 1-.178-.145 4.769 4.769 0 0 1-.514-.539c-.412-.499-.923-1.293-1.284-2.448-.719-2.305-.862-6.12 1.702-12.017l-.917-.398c-2.633 6.055-2.548 10.122-1.74 12.712.404 1.292.981 2.198 1.467 2.787.243.295.462.509.624.652a3.784 3.784 0 0 0 .274.22l.006.005.003.001c.001.001.001.001.281-.413Zm.89 1.486V3.5h-1v18.881h1ZM14.79 4h1.756V3H14.79v1Zm1.256-.5v.93h1V3.5h-1Zm.5 1.43h1.86v-1h-1.86v1Zm9.16 21.968c-1.727 1.252-3.167 1.23-4.161.936a4.337 4.337 0 0 1-1.507-.802 2.227 2.227 0 0 1-.09-.082c-.002 0-.003-.002-.003-.002v.001l-.352.354-.354.354.002.002.003.003.01.009.03.029c.026.023.062.056.109.095a5.34 5.34 0 0 0 1.868.997c1.28.38 3.044.357 5.033-1.084l-.588-.81Zm-6.113-.095h-.04v1h.04v-1Zm-.333.095c-1.727 1.252-3.167 1.23-4.162.936a4.336 4.336 0 0 1-1.506-.802 2.13 2.13 0 0 1-.094-.084h.001v.001l-.353.354c-.354.353-.353.354-.353.354l.002.002.003.003.01.009.03.029c.026.023.062.056.108.095a5.34 5.34 0 0 0 1.868.997c1.28.38 3.045.357 5.033-1.084l-.587-.81Zm-6.114-.095h-.039v1h.04v-1Zm-.332.095c-1.728 1.252-3.168 1.23-4.162.936a4.336 4.336 0 0 1-1.507-.802 2.187 2.187 0 0 1-.093-.084v.001l-.352.354-.354.354h.001l.001.002.003.003.01.009.03.029c.026.023.062.056.109.095a5.34 5.34 0 0 0 1.868.997c1.28.38 3.044.357 5.033-1.084l-.587-.81Z" fill="currentColor"/>
  </symbol>
</svg>
  