<svg width="32" height="32" viewBox="0 0 32 32" fill="none" xmlns="http://www.w3.org/2000/svg">
  <symbol id="item" viewBox="0 0 32 32" stroke-width="1" fill="none">
    <path d="m21.444 7.553 1.694 1.406M5.05 22.225l5.38 4.628m15.267-22.67 1.67 1.387c.277.23.087.67-.275.638l-1.346-.121a.448.448 0 0 0-.385.159l-13.83 16.681-2.711-2.231L24.618 4.242a.797.797 0 0 1 1.08-.06ZM8.587 20.442l3.37 2.874c.082.07.122.174.106.279-.065.434-.355 1.65-1.633 3.258 0 0-2.191 2.316-5.218.364A1.554 1.554 0 0 1 4.5 25.91V23.17c0-.485.27-.931.706-1.166L8.177 20.4a.367.367 0 0 1 .41.043Zm12.01 4.757c0 1.438-1.195 2.604-2.67 2.604-1.473 0-2.668-1.166-2.668-2.604 0-1.438 1.195-2.603 2.669-2.603s2.668 1.165 2.668 2.603Z" stroke="currentColor" stroke-miterlimit="10"/>
  </symbol>
</svg>
  