
<svg width="1em" height="1em"    viewBox="0 0 32 32" fill="none" xmlns="http://www.w3.org/2000/svg">
<symbol id="item"
width="1em"
height="1em"
viewBox="0 0 32 32"
fill="none"
>
<path d="M7.8 18.214a18.747 18.747 0 0 0 5.982 5.987m-1.503-8.01c-1.108 1.742-1.39 3.444-.567 4.257.83.819 2.549.501 4.289-.652m2.201-11.993a18.747 18.747 0 0 1 5.983 5.987m-7.733-1.525c1.63-.99 3.197-1.225 3.978-.455.76.751.577 2.262-.33 3.862m-6.318 2.54 4.187-4.108m-9.073 10.19c1.438.294 4.406.557 7.9-1.175a14.068 14.068 0 0 0 6.323-6.328c1.732-3.48 1.469-6.45 1.175-7.905a1.521 1.521 0 0 0-1.19-1.191c-1.453-.279-4.422-.542-7.9 1.19a14.068 14.068 0 0 0-6.323 6.328c-1.732 3.481-1.469 6.451-1.175 7.906a1.524 1.524 0 0 0 1.19 1.175Z" stroke="var(--color--bulma-100)" stroke-width=".8" stroke-miterlimit="10" stroke-linecap="round" stroke-linejoin="round"/>
</symbol>
</svg>
  