
<svg width="1em" height="1em"    viewBox="0 0 32 32" fill="none" xmlns="http://www.w3.org/2000/svg">
<symbol id="item"
width="1em"
height="1em"
viewBox="0 0 32 32"
fill="none"
>
<path d="M12.395 8.244a.4.4 0 1 0-.678.425l.678-.425Zm-.207.424.344-.205-.005-.008-.339.213Zm4.485 2.822.09-.39a.418.418 0 0 0-.06-.009l-.03.4Zm.052 0 .03-.4a.4.4 0 0 0-.125.01l.095.39Zm8.707 1.225.39.09a.4.4 0 0 0-.123-.387l-.267.297Zm-2.051 8.93-.268.298a.4.4 0 0 0 .657-.208l-.39-.09Zm-4.21-1.327.007-.4h-.003l-.003.4Zm-4.498.102-.031.398h.002l.03-.398Zm-3.71-1.536.282-.284-.005-.005-.276.29Zm-1.009-1.276-.39-.087a.4.4 0 0 0 .04.278l.35-.191ZM12.13 7.79l-.39-.09v.004l.39.086Zm-.538-.858.09-.39-.09.39Zm-.858.537-.39-.09v.003l.39.087ZM9.91 19.644a.4.4 0 0 0-.78-.179l.78.179Zm-2.47 5.771-.09.39.09-.39Zm.86-.539-.39-.09.39.09Zm-1.4-.318-.391-.087.39.087Zm13.788-10.843-.01.4h.003l.007-.4Zm-.387.002.012-.4-.328-.01-.074.32.39.09Zm-.506 2.205-.39-.09-.11.476.488.013.012-.4Zm.387-.002-.011.4h.004l.007-.4Zm2.023.233-.097.388.395.098.092-.397-.39-.09Zm.506-2.205.39.09.088-.383-.38-.095-.098.388Zm-5.408 2.098-.014-.4-.307.01-.069.3.39.09Zm-.523 2.278-.39-.09-.117.508.52-.018-.013-.4Zm2.489-.112.001.4.317-.001.072-.31-.39-.089Zm.523-2.278.39.09.113-.492-.505.002.002.4Zm-7.18-.914.228-.329-.486-.337-.132.576.39.09Zm-.523 2.278-.39-.09-.062.269.229.153.223-.332Zm2.258.893-.072.394.376.068.086-.372-.39-.09Zm.52-2.266.39.09.093-.403-.405-.08-.078.393Zm.816.097.035-.399h-.016l-.018.399Zm1.623.011.023.4.3-.018.067-.292-.39-.09Zm.506-2.205.39.09.116-.505-.518.015.012.4Zm-1.622-.011-.034.399h.01l.024-.4Zm-.813-.11.071-.393-.376-.069-.085.373.39.09Zm-.507 2.205-.39-.09-.09.39.39.09.09-.39ZM11.717 8.67l.132.21.678-.424-.132-.21-.678.424Zm.127.203c1.013 1.705 2.8 2.863 4.798 3.017l.062-.798c-1.728-.133-3.287-1.137-4.172-2.628l-.688.409Zm4.74 3.008a.514.514 0 0 0 .236-.002l-.19-.777a.288.288 0 0 1 .074-.008c.036.002.064.009.058.007l-.179.78Zm.11.008c.776.058 1.549.03 2.302-.011.76-.041 1.493-.093 2.225-.09l.004-.8c-.762-.003-1.53.051-2.272.09-.748.041-1.478.067-2.199.013l-.06.798Zm4.527-.1c1.455.007 2.928.315 3.944 1.225l.534-.595c-1.23-1.102-2.94-1.422-4.474-1.43l-.004.8Zm3.821.838-2.051 8.93.78.18 2.05-8.931-.779-.18Zm-1.393 8.723c-1.22-1.102-2.936-1.407-4.471-1.43l-.012.799c1.472.023 2.945.32 3.947 1.225l.536-.594Zm-4.474-1.43c-.77-.006-1.538.048-2.278.088-.747.04-1.473.067-2.194.014l-.06.798c.776.057 1.546.028 2.297-.013.76-.041 1.492-.093 2.229-.088l.006-.8Zm-4.47.102c-1.307-.103-2.58-.55-3.46-1.421l-.563.568c1.054 1.044 2.53 1.538 3.96 1.65l.063-.797Zm-3.741-1.137.276-.289-.005-.005a4.818 4.818 0 0 1-.93-1.174l-.702.383c.198.362.472.707.688.953a7.889 7.889 0 0 0 .362.388l.024.024.007.006.002.002h.001l.277-.288Zm-.62-1.19 2.176-9.816-.781-.173-2.175 9.816.78.173Zm2.175-9.813a1.116 1.116 0 0 0-.838-1.338l-.18.78a.316.316 0 0 1 .238.379l.78.179Zm-.838-1.338a1.116 1.116 0 0 0-1.338.838l.78.179a.316.316 0 0 1 .379-.238l.179-.78Zm-1.339.84L6.51 24.47l.78.175 3.834-17.088-.78-.175ZM8.69 24.965l1.22-5.321-.78-.179-1.22 5.322.78.178Zm-1.34.84a1.118 1.118 0 0 0 1.34-.84l-.78-.178a.318.318 0 0 1-.381.239l-.18.78Zm-.841-1.334c-.135.6.24 1.197.84 1.334l.18-.78a.318.318 0 0 1-.24-.38l-.78-.174Zm14.19-11.156c-.074-.002-.149 0-.212 0a3.7 3.7 0 0 1-.174.002l-.023.8c.075.001.15 0 .213-.001a3.7 3.7 0 0 1 .174-.001l.023-.8Zm-.788.312-.506 2.205.78.18.506-2.206-.78-.179Zm-.128 2.694c.076.002.15.001.213 0 .067-.002.122-.002.175 0l.022-.8c-.075-.003-.15-.001-.212 0-.067.001-.122.002-.175 0l-.023.8Zm.392 0c.652.01 1.315.066 1.933.22l.194-.776c-.7-.175-1.43-.233-2.113-.245l-.014.8Zm2.42-.079.506-2.205-.78-.179-.506 2.205.78.18Zm.213-2.683c-.7-.174-1.43-.232-2.113-.244l-.014.8c.653.011 1.316.067 1.934.22l.193-.776Zm-5.895 2.397-.523 2.279.78.179.523-2.279-.78-.179Zm-.12 2.768c.876-.03 1.649-.108 2.477-.112l-.003-.8c-.824.004-1.713.086-2.5.112l.026.8Zm2.866-.422.523-2.279-.78-.179-.523 2.279.78.179Zm.131-2.768c-.823.003-1.712.085-2.5.112l.027.8c.875-.03 1.648-.109 2.477-.112l-.004-.8Zm-7.568-.604L11.7 17.21l.78.179.523-2.279-.78-.179Zm-.356 2.7c.722.486 1.558.8 2.41.955l.142-.788a5.576 5.576 0 0 1-2.106-.83l-.446.663Zm2.87.65.521-2.266-.78-.179-.52 2.267.78.179Zm.209-2.748c-.764-.15-1.494-.418-2.105-.84l-.456.656c.725.503 1.566.803 2.406.97l.155-.786Zm.704.888c.568.05 1.131.045 1.68.013l-.047-.799c-.523.03-1.045.035-1.564-.01l-.07.796Zm2.047-.297.506-2.205-.78-.18-.506 2.206.78.179Zm.104-2.695c-.54.017-1.07.02-1.586-.01l-.048.798c.552.034 1.108.029 1.658.012l-.024-.8Zm-1.577-.01a8.167 8.167 0 0 1-.774-.104l-.144.787c.284.052.572.09.851.114l.067-.797Zm-1.236.2-.507 2.205.78.179.507-2.205-.78-.18Zm-.206 2.684c.294.068.58.105.884.12l.037-.8a4.093 4.093 0 0 1-.742-.1l-.18.78Z" fill="var(--color--bulma-100)"/>
</symbol>
</svg>
  