
<svg width="1em" height="1em"    viewBox="0 0 32 32" fill="none" xmlns="http://www.w3.org/2000/svg">
<symbol id="item"
width="1em"
height="1em"
viewBox="0 0 32 32"
fill="none"
>
<path d="m10.798 11.717 1.156 1.167a.876.876 0 0 0 .573.292l2.211.22m2.794-.923 3.894-3.72a.828.828 0 0 1 1.15.023c.32.332.31.846-.022 1.165l-3.37 3.2a.915.915 0 0 0-.243.915l1.247 3.94 3.055 5.865a.993.993 0 0 1-.41 1.369l-.071.037a.988.988 0 0 1-1.336-.382l-2.527-4.633a.638.638 0 0 0-1.009-.127l-2.266 2.214a1.128 1.128 0 0 1-.887.344l-3.56-.27a1.015 1.015 0 0 1-.926-1.117c.054-.534.543-.93 1.076-.891l2.74.23a.623.623 0 0 0 .496-.185l1.061-.948c.301-.317.422-.782.29-1.207l-.826-2.562a.905.905 0 0 0-.755-.62l-2.38-.25a.832.832 0 0 1-.54-.264l-2.06-1.951c-.235-.25-.27-.608-.149-.907m.46-5.045a1.867 1.867 0 1 1 .197 3.728 1.867 1.867 0 0 1-.198-3.728Zm7.518 3.182a2.036 2.036 0 1 1-4.053.398 2.036 2.036 0 0 1 4.053-.398Z" stroke="var(--color--bulma-100)" stroke-width=".8" stroke-miterlimit="10" stroke-linecap="round" stroke-linejoin="round"/>
</symbol>
</svg>
  