<svg width="32" height="32" viewBox="0 0 32 32" fill="none" xmlns="http://www.w3.org/2000/svg">
  <symbol id="item" viewBox="0 0 32 32" stroke-width="1" fill="none">
    <path d="m19.254 6.144.89-.891c1.67-1.67 4.404-1.67 6.07 0l.53.53a4.303 4.303 0 0 1 0 6.07l-.89.89m-15.818 2.622 5.33-5.333m-2.569 15.767-.948.948a4.303 4.303 0 0 1-6.07 0l-.53-.53a4.31 4.31 0 0 1 .004-6.073l.948-.948m15.764-2.565-5.33 5.334m1.116-12.391 4.697 4.697M8.562 18.762l4.697 4.697m1.323-14.264 2.796-2.794 1.707 1.707-2.796 2.795-1.707-1.708Zm6.51 6.508 2.794-2.795 1.707 1.708-2.795 2.795-1.707-1.708Zm-2.403-1.999a.28.28 0 0 1-.394 0 .277.277 0 0 1 0-.393.277.277 0 0 1 .394 0 .28.28 0 0 1 0 .393ZM5.393 18.39l2.796-2.795 1.707 1.708L7.1 20.096 5.393 18.39Zm6.513 6.508L14.7 22.1l1.708 1.707-2.795 2.796-1.707-1.707Zm.845-5.257a.277.277 0 0 1-.394 0 .28.28 0 0 1 0-.394.277.277 0 0 1 .394 0 .28.28 0 0 1 0 .394Z" stroke="currentColor" stroke-miterlimit="10"/>
  </symbol>
</svg>
  