<svg width="32" height="32" viewBox="0 0 32 32" fill="none" xmlns="http://www.w3.org/2000/svg">
  <symbol id="item" viewBox="0 0 32 32"  fill="none">
    <path d="M6 6.5a.5.5 0 0 0 0 1v-1ZM19.333 21v-.5a.5.5 0 0 0-.5.5h.5Zm2.5 0h.5a.5.5 0 0 0-.5-.5v.5ZM15.5 14a1.5 1.5 0 0 1-1.5 1.5v1a2.5 2.5 0 0 0 2.5-2.5h-1ZM14 15.5a1.5 1.5 0 0 1-1.5-1.5h-1a2.5 2.5 0 0 0 2.5 2.5v-1ZM12.5 14a1.5 1.5 0 0 1 1.5-1.5v-1a2.5 2.5 0 0 0-2.5 2.5h1Zm1.5-1.5a1.5 1.5 0 0 1 1.5 1.5h1a2.5 2.5 0 0 0-2.5-2.5v1ZM9.5 14A1.5 1.5 0 0 1 8 15.5v1a2.5 2.5 0 0 0 2.5-2.5h-1ZM8 15.5A1.5 1.5 0 0 1 6.5 14h-1A2.5 2.5 0 0 0 8 16.5v-1ZM6.5 14A1.5 1.5 0 0 1 8 12.5v-1A2.5 2.5 0 0 0 5.5 14h1ZM8 12.5A1.5 1.5 0 0 1 9.5 14h1A2.5 2.5 0 0 0 8 11.5v1ZM21.5 14a1.5 1.5 0 0 1-1.5 1.5v1a2.5 2.5 0 0 0 2.5-2.5h-1ZM20 15.5a1.5 1.5 0 0 1-1.5-1.5h-1a2.5 2.5 0 0 0 2.5 2.5v-1ZM18.5 14a1.5 1.5 0 0 1 1.5-1.5v-1a2.5 2.5 0 0 0-2.5 2.5h1Zm1.5-1.5a1.5 1.5 0 0 1 1.5 1.5h1a2.5 2.5 0 0 0-2.5-2.5v1ZM25.5 9v10h1V9h-1ZM6 7.5h18v-1H6v1Zm18 13H6v1h18v-1Zm1.5-1.5a1.5 1.5 0 0 1-1.5 1.5v1a2.5 2.5 0 0 0 2.5-2.5h-1Zm1-10A2.5 2.5 0 0 0 24 6.5v1A1.5 1.5 0 0 1 25.5 9h1Zm-7.167 12.5h2.5v-1h-2.5v1Zm2-.5v5.833h1V21h-1ZM21 27.167h-.833v1H21v-1Zm-1.167-.334V21h-1v5.833h1Zm.334.334a.333.333 0 0 1-.334-.334h-1c0 .737.597 1.334 1.334 1.334v-1Zm1.166-.334c0 .184-.149.334-.333.334v1c.736 0 1.333-.597 1.333-1.334h-1Z" fill="currentColor"/>
  </symbol>
</svg>
  