<svg width="32" height="32" viewBox="0 0 32 32" fill="none" xmlns="http://www.w3.org/2000/svg">
  <symbol id="item" viewBox="0 0 32 32" stroke-width="1" fill="none">
    <path d="M11.5 13.028c0 2.501-2.015 4.528-4.5 4.528s-4.5-2.027-4.5-4.528C2.5 10.528 4.515 8.5 7 8.5s4.5 2.027 4.5 4.528Zm0 0c0 2.501 2.015 4.528 4.5 4.528s4.5-2.027 4.5-4.528m-9 0c0-2.5 2.015-4.528 4.5-4.528s4.5 2.027 4.5 4.528m0 0c0 2.501 2.015 4.528 4.5 4.528s4.5-2.027 4.5-4.528c0-2.5-2.015-4.528-4.5-4.528s-4.5 2.027-4.5 4.528Zm-5.082 5.944c0 2.5-2.014 4.528-4.5 4.528-2.485 0-4.5-2.027-4.5-4.528 0-2.501 2.015-4.528 4.5-4.528 2.486 0 4.5 2.027 4.5 4.528Zm10.225 0c0 2.5-2.015 4.528-4.5 4.528s-4.5-2.027-4.5-4.528c0-2.501 2.015-4.528 4.5-4.528s4.5 2.027 4.5 4.528Z" stroke="currentColor" stroke-miterlimit="10"/>
  </symbol>
</svg>
  