
<svg width="1em" height="1em"    viewBox="0 0 32 32" fill="none" xmlns="http://www.w3.org/2000/svg">
<symbol id="item"
width="1em"
height="1em"
viewBox="0 0 32 32"
fill="none"
>
<path d="M10.953 9.231a2.44 2.44 0 1 0-4.873.26 2.44 2.44 0 0 0 4.873-.26ZM15.825 13.992a2.662 2.662 0 1 0-.52-5.298 2.662 2.662 0 0 0 .52 5.298ZM9.87 13.488l1.512 1.526c.199.217.449.35.748.38l2.89.289M18.671 14.476l5.089-4.861a1.083 1.083 0 0 1 1.503.03 1.069 1.069 0 0 1-.028 1.523l-4.406 4.182a1.195 1.195 0 0 0-.317 1.196l2.478 6.932m-6.099 0-1.414-4.741a1.182 1.182 0 0 0-.987-.811l-3.111-.326a1.086 1.086 0 0 1-.705-.346l-2.691-2.55c-.308-.325-.355-.794-.195-1.185" stroke="#1A212A" stroke-width=".8" stroke-miterlimit="10" stroke-linecap="round" stroke-linejoin="round"/><path d="M4.692 23.2v0a2.304 2.304 0 0 1 3.025-.136l.275.219a2.707 2.707 0 0 0 3.314.043l.218-.164a2.973 2.973 0 0 1 3.578 0l.195.147c.993.748 2.37.71 3.321-.09v0a2.666 2.666 0 0 1 3.376-.047l.12.094c.965.769 2.339.75 3.283-.046l.203-.17a2.28 2.28 0 0 1 2.935 0v0" stroke="#1A212A" stroke-width=".8" stroke-linecap="round" stroke-linejoin="round"/>
</symbol>
</svg>
  