<svg width="32" height="32" viewBox="0 0 32 32" fill="none" xmlns="http://www.w3.org/2000/svg">
  <symbol id="item" viewBox="0 0 32 32"  fill="none">
    <path d="m18.556 12.078.439.24-.44-.24ZM15.189 13.5a.5.5 0 0 0 0 1v-1Zm-1.731-6.658a.5.5 0 0 0 .384.924l-.384-.924Zm-.697 3.823a.5.5 0 1 0 .694-.72l-.694.72Zm-.221-1.757-.5-.024.5.024Zm1.346-1.16a.5.5 0 1 0-.415-.91l.415.91Zm-.47 11.044a.5.5 0 0 0-1 0h1Zm4.43-1.633a.5.5 0 1 0-.796.605l.796-.605ZM22.5 18.25c0 3.417-2.996 6.25-6.772 6.25v1c4.257 0 7.772-3.212 7.772-7.25h-1Zm-6.772 6.25c-2.308 0-4.336-1.065-5.556-2.677l-.797.604c1.411 1.865 3.736 3.073 6.353 3.073v-1Zm2.646-12.005.02.008.367-.93-.022-.009-.365.93Zm.02.008c2.432.962 4.106 3.187 4.106 5.747h1c0-3.019-1.971-5.582-4.739-6.677l-.368.93ZM15.188 7.5c1.842 0 3.27 1.378 3.27 3h1c0-2.244-1.947-4-4.27-4v1Zm3.27 3c0 .467-.115.91-.324 1.304l.885.467c.281-.533.44-1.135.44-1.771h-1Zm-.324 1.304-.018.035.878.478.025-.046-.885-.467Zm-.018.035c-.531.974-1.633 1.661-2.928 1.661v1c1.648 0 3.094-.876 3.806-2.183l-.878-.478Zm-4.275-4.073c.41-.17.865-.266 1.347-.266v-1c-.614 0-1.2.122-1.731.342l.384.924ZM9.5 19.75c0-2.037 1.79-3.75 4.079-3.75v-1c-2.77 0-5.079 2.092-5.079 4.75h1Zm.861 2.304A3.544 3.544 0 0 1 9.5 19.75h-1c0 1.119.414 2.144 1.099 2.952l.762-.648ZM13.578 16c1.672 0 3.09.921 3.722 2.213l.898-.44C17.391 16.125 15.615 15 13.578 15v1Zm3.722 2.213.002.004.898-.44-.002-.003-.898.439Zm-3.845-8.268c-.28-.27-.434-.63-.416-1.013l-.999-.048a2.313 2.313 0 0 0 .72 1.78l.695-.719Zm-.416-1.013c.025-.507.35-.957.847-1.184l-.415-.91c-.796.364-1.386 1.122-1.43 2.046l.998.048Zm4.363 9.86c0 .968-.857 1.814-1.993 1.814v1c1.617 0 2.993-1.225 2.993-2.814h-1Zm-1.993 1.814c-1.137 0-1.993-.846-1.993-1.814h-1c0 1.589 1.375 2.814 2.993 2.814v-1Zm1.64-2.843c.098.129.177.268.235.415l.93-.369a2.754 2.754 0 0 0-.368-.65l-.796.605Zm.235.415c.076.191.118.398.118.614h1c0-.345-.067-.677-.188-.983l-.93.369Z" fill="currentColor"/>
  </symbol>
</svg>
  