
<svg width="1em" height="1em"    viewBox="0 0 32 32" fill="none" xmlns="http://www.w3.org/2000/svg">
<symbol id="item"
width="1em"
height="1em"
viewBox="0 0 32 32"
fill="none"
>
<path d="M13.192 10.166a.4.4 0 1 0 .681-.42l-.68.42Zm-1.341-3.7a.4.4 0 1 0-.681.42l.68-.42Zm10.06 12-.33.227.003.004.327-.23Zm1.874.938.26.303.006-.005-.266-.299Zm.453-1.27-.398-.037v.006l.398.03Zm2.752.06-.398.04.001.013.397-.053Zm-1.21 3.175-.286-.28-.003.004.29.276Zm-2.176.997v-.4h-.014l-.014.001.028.4Zm-3.87-2.479.349-.195-.005-.008-.004-.008-.34.211ZM13.443 5.452a.4.4 0 0 0-.66.452l.66-.452Zm1.078 2.99a.4.4 0 1 0 .66-.453l-.66.452ZM16 21.098l.011-.4H16v.4Zm3.216-15.194a.4.4 0 1 0-.658-.455l.658.455ZM10.06 18.466l.327.232.002-.005-.329-.227Zm-1.874.938-.266.299.005.004.26-.303Zm-.454-1.27.4-.031-.001-.006-.399.037ZM6.1 16.894l.082.392.007-.002.008-.002-.097-.388Zm-1.089 1.27.397.053.001-.013-.398-.04Zm1.21 3.174.29-.276-.004-.003-.286.28Zm2.176.998.028-.399-.014-.001h-.014v.4Zm3.87-2.479-.34-.211-.004.008-.005.008.35.195ZM20.8 6.887a.4.4 0 0 0-.68-.423l.68.423Zm-3.36 9.287 1.995-1.27-.429-.675-1.995 1.27.43.675Zm1.12 2.583 2.085-1.3-.423-.679-2.086 1.3.423.68Zm-4.686-9.01-2.022-3.281-.681.42 2.022 3.28.681-.42Zm3.113 2.264 4.595 6.682.66-.453-4.596-6.682-.66.453Zm4.598 6.686c.537.759.962 1.078 1.349 1.207l.253-.76c-.157-.051-.458-.216-.949-.909l-.653.462Zm1.349 1.207c.382.127.777.09 1.112-.197l-.52-.607c-.088.075-.177.099-.34.045l-.252.759Zm1.118-.202c.22-.195.352-.503.433-.756.085-.269.136-.556.153-.782l-.797-.061a2.827 2.827 0 0 1-.119.601c-.07.223-.15.354-.202.4l.532.598Zm.586-1.532c.024-.267.119-.502.277-.66l-.565-.566c-.325.325-.473.755-.509 1.154l.797.072Zm.277-.66c.156-.156.38-.246.655-.246v-.8c-.452 0-.892.152-1.22.48l.565.566Zm.655-.246c.087 0 .135 0 .205.018l.194-.776c-.172-.043-.305-.042-.4-.042v.8Zm.205.018c.437.11.774.51.818.952l.796-.08a1.917 1.917 0 0 0-1.42-1.648l-.194.776Zm.82.965c.02.154.002.61-.162 1.173-.161.554-.452 1.17-.938 1.67l.573.558c.602-.62.946-1.364 1.133-2.004.184-.631.226-1.204.186-1.503l-.793.106Zm-1.103 2.846c-.542.568-1.197.873-1.887.873v.8c.942 0 1.798-.42 2.466-1.121l-.58-.552Zm-1.915.874c-.787.055-1.415-.103-1.96-.46-.553-.364-1.051-.954-1.533-1.815l-.698.39c.516.923 1.091 1.633 1.792 2.093.71.467 1.518.656 2.455.59l-.056-.798Zm-3.502-2.29-3.72-5.987-.679.422 3.719 5.986.68-.422ZM12.783 5.903 14.52 8.44l.66-.452-1.738-2.537-.66.452Zm5.75 18.129A2.53 2.53 0 0 1 16 26.566v.8a3.33 3.33 0 0 0 3.333-3.333h-.8ZM16 26.566a2.53 2.53 0 0 1-2.533-2.533h-.8A3.33 3.33 0 0 0 16 27.366v-.8Zm-2.533-2.533A2.53 2.53 0 0 1 16 21.499v-.8a3.33 3.33 0 0 0-3.333 3.334h.8Zm2.522-2.534c1.398.039 2.544 1.164 2.544 2.534h.8c0-1.831-1.52-3.284-3.322-3.334l-.022.8Zm-1-6.002-2.027-1.27-.424.678 2.025 1.27.425-.678Zm-1.385 2.581-2.086-1.3-.423.68 2.086 1.3.423-.68Zm4.954-12.627L9.73 18.239l.658.454 8.828-12.788-.658-.455ZM9.733 18.235c-.49.693-.792.858-.95.91l.254.759c.387-.13.811-.448 1.349-1.207l-.653-.462Zm-.95.91c-.161.054-.25.03-.338-.045l-.52.607c.335.288.73.324 1.112.197l-.253-.76Zm-.332-.04c-.052-.047-.132-.178-.202-.4a2.828 2.828 0 0 1-.119-.602l-.798.061c.018.226.069.513.154.782.08.253.213.56.433.756l.532-.598Zm-.321-1.008c-.037-.398-.184-.828-.509-1.153l-.566.566c.16.158.254.394.278.66l.797-.073Zm-.509-1.153c-.328-.328-.768-.48-1.22-.48v.8c.274 0 .499.09.654.245l.566-.565Zm-1.22-.48c-.094 0-.227 0-.4.042l.195.776a.748.748 0 0 1 .205-.018v-.8Zm-.385.039c-.762.16-1.328.861-1.404 1.621l.796.08c.045-.45.386-.837.773-.918l-.165-.783ZM4.614 18.11c-.04.299.002.872.186 1.502.187.641.53 1.386 1.133 2.004l.573-.558c-.486-.5-.777-1.116-.938-1.67-.164-.562-.182-1.018-.161-1.172l-.793-.106Zm1.316 3.503c.668.702 1.524 1.122 2.466 1.122v-.8c-.69 0-1.345-.305-1.887-.873l-.579.551Zm2.438 1.121c.937.066 1.745-.124 2.455-.59.701-.46 1.276-1.17 1.792-2.093l-.698-.39c-.482.861-.98 1.45-1.533 1.814-.545.358-1.173.516-1.96.461l-.056.798Zm4.238-2.667 8.193-13.181-.68-.423-8.192 13.182.679.422Z" fill="var(--color--bulma-100)"/>
</symbol>
</svg>
  