
<svg width="1em" height="1em"    viewBox="0 0 32 32" fill="none" xmlns="http://www.w3.org/2000/svg">
<symbol id="item"
width="1em"
height="1em"
viewBox="0 0 32 32"
fill="none"
>
<path d="M10.262 8.663a.4.4 0 0 0 .493.63l-.493-.63Zm10.983.63a.4.4 0 0 0 .493-.63l-.493.63ZM8.968 11.199a.4.4 0 1 0-.66-.452l.66.452Zm14.725-.452a.4.4 0 0 0-.66.452l.66-.452ZM9.852 22.037a.4.4 0 0 0 .574.558l-.574-.557Zm4.924-4.494.287.279-.287-.279Zm.965-5.49a.4.4 0 0 0-.8 0h.8Zm6.158 10.54a.4.4 0 0 0 .578-.553l-.578.553Zm-4.277-5.052-.29.276.29-.276Zm-.155-5.489a.4.4 0 0 0-.8 0h.8ZM24.514 16A8.514 8.514 0 0 1 16 24.514v.8A9.314 9.314 0 0 0 25.314 16h-.8ZM16 24.514A8.514 8.514 0 0 1 7.486 16h-.8A9.314 9.314 0 0 0 16 25.314v-.8ZM10.755 9.293A8.476 8.476 0 0 1 16 7.486v-.8a9.276 9.276 0 0 0-5.738 1.977l.493.63ZM16 7.486c1.979 0 3.8.675 5.245 1.807l.493-.63A9.276 9.276 0 0 0 16 6.686v.8ZM7.486 16c0-1.782.547-3.434 1.482-4.8l-.66-.453A9.272 9.272 0 0 0 6.685 16h.8Zm15.546-4.8a8.472 8.472 0 0 1 1.482 4.8h.8a9.272 9.272 0 0 0-1.621-5.253l-.66.452ZM10.426 22.594l4.637-4.773-.574-.558-4.637 4.774.574.557Zm5.315-6.445v-4.098h-.8v4.098h.8Zm-.678 1.672a2.4 2.4 0 0 0 .678-1.672h-.8a1.6 1.6 0 0 1-.452 1.114l.574.558Zm7.414 4.218-4.566-4.775-.578.552 4.566 4.776.578-.553Zm-5.01-5.881v-4.107h-.8v4.107h.8Zm.444 1.106a1.6 1.6 0 0 1-.444-1.106h-.8a2.4 2.4 0 0 0 .666 1.658l.578-.552Z" fill="var(--color--bulma-100)"/>
</symbol>
</svg>
  