
<svg width="1em" height="1em"    viewBox="0 0 32 32" fill="none" xmlns="http://www.w3.org/2000/svg">
<symbol id="item"
width="1em"
height="1em"
viewBox="0 0 32 32"
fill="none"
>
<path d="m23.049 22.475-4.006-3.981-1.121 1.12 4.006 3.982m-3.555-11.254 4.46-4.46m-3.11 5.617 4.364-4.365m-13.9-2.528 9.837 10.554c.28.3.272.77-.018 1.06a1.271 1.271 0 0 1-1.798 0l-4.486-4.488a.15.15 0 0 0-.212 0l-.311.312a.15.15 0 0 0 0 .211l4.446 4.448a1.327 1.327 0 0 1 0 1.877.796.796 0 0 1-1.119.006L6.236 10.545a.6.6 0 0 1-.114-.705l1.071-2.068a.6.6 0 0 1 .26-.258L9.476 6.48a.6.6 0 0 1 .71.125Zm11.991 16.336-.51 1.375a.3.3 0 0 0 .072.32l.817.79a.3.3 0 0 0 .42-.004l1.855-1.855a.3.3 0 0 0-.004-.427l-.816-.79a.3.3 0 0 0-.309-.067l-1.345.48a.3.3 0 0 0-.18.178Zm2.423-12.16a3.232 3.232 0 1 1-6.464 0 3.232 3.232 0 0 1 6.464 0Z" stroke="var(--color--bulma-100)" stroke-width=".8"/>
</symbol>
</svg>
  