
<svg width="1em" height="1em"    viewBox="0 0 32 32" fill="none" xmlns="http://www.w3.org/2000/svg">
<symbol id="item"
width="1em"
height="1em"
viewBox="0 0 32 32"
fill="none"
>
<path d="M6.645 8.995a.4.4 0 1 0 0 .8v-.8Zm2.65 7.94a.4.4 0 1 0 .619.508l-.618-.507Zm-1.956-.074a.4.4 0 1 0 .79-.123l-.79.123Zm-.887-10.85a.4.4 0 1 0-.79.124l.79-.123Zm13.514 3.46a.4.4 0 0 0 .003.8l-.003-.8Zm1.929-1.527-.4-.003v.001l.4.002ZM19.968 6l.001-.4h-.001V6Zm-3.96 0v-.4a.4.4 0 0 0-.4.4h.4Zm2.838 13.35a.4.4 0 1 0 .76-.249l-.76.25ZM6.057 5.6a.4.4 0 1 0 0 .8v-.8Zm1.738.8a.4.4 0 0 0 0-.8v.8Zm.063 16.697a.4.4 0 0 0 .8 0h-.8Zm.8-3.871a.4.4 0 0 0-.8 0h.8Zm-1.69 3.995a.4.4 0 0 0 0 .8v-.8Zm2.58.8a.4.4 0 0 0 0-.8v.8Zm8.32-9.644a.4.4 0 0 0 .215.771l-.215-.77Zm1.532.218-.015.4.015-.4Zm4.457 4.805-.4-.015.4.015Zm-4.805 4.457-.015.4.015-.4Zm-4.457-4.805-.4-.015.4.015Zm1.836-3.008a.4.4 0 1 0-.528-.6l.528.6ZM6.645 9.795h9.363v-.8H6.645v.8Zm9.054-.654-6.403 7.795.618.507 6.403-7.794-.618-.508Zm-7.57 7.597L6.453 6.011l-.79.123 1.677 10.726.79-.123Zm11.84-6.467a2.333 2.333 0 0 0 2.326-2.326l-.8-.003a1.533 1.533 0 0 1-1.529 1.529l.003.8Zm2.326-2.324A2.33 2.33 0 0 0 19.969 5.6l-.003.8a1.53 1.53 0 0 1 1.529 1.54l.8.007ZM19.968 5.6h-3.96v.8h3.96v-.8Zm-4.36.4v3.395h.8V6h-.8Zm.02 3.52 3.218 9.83.76-.249-3.218-9.83-.76.249ZM6.058 6.4h1.737v-.8H6.057v.8Zm4.058 12.874a1.858 1.858 0 0 1-1.858 1.858v.8a2.658 2.658 0 0 0 2.658-2.658h-.8Zm-1.858 1.858A1.858 1.858 0 0 1 6.4 19.274h-.8a2.658 2.658 0 0 0 2.658 2.658v-.8ZM6.4 19.274c0-1.026.832-1.858 1.858-1.858v-.8A2.658 2.658 0 0 0 5.6 19.274h.8Zm1.858-1.858c1.026 0 1.858.832 1.858 1.858h.8a2.658 2.658 0 0 0-2.658-2.658v.8Zm.4 5.68v-3.87h-.8v3.87h.8Zm-1.69.924h2.58v-.8h-2.58v.8ZM25.6 19.226a6.374 6.374 0 0 1-6.374 6.374v.8a7.174 7.174 0 0 0 7.174-7.174h-.8ZM19.226 25.6a6.374 6.374 0 0 1-6.374-6.374h-.8a7.174 7.174 0 0 0 7.174 7.174v-.8Zm-6.374-6.374a6.374 6.374 0 0 1 6.374-6.374v-.8a7.174 7.174 0 0 0-7.174 7.174h.8Zm6.374-6.374a6.374 6.374 0 0 1 6.374 6.374h.8a7.174 7.174 0 0 0-7.174-7.174v.8Zm-1.143 2.296c.413-.115.85-.17 1.302-.154l.03-.799a5.04 5.04 0 0 0-1.547.182l.215.771Zm1.302-.154a4.235 4.235 0 0 1 4.072 4.39l.8.031a5.035 5.035 0 0 0-4.842-5.22l-.03.8Zm4.072 4.39a4.235 4.235 0 0 1-4.39 4.073l-.03.8a5.035 5.035 0 0 0 5.22-4.842l-.8-.03Zm-4.39 4.073a4.235 4.235 0 0 1-4.072-4.39l-.8-.03a5.035 5.035 0 0 0 4.842 5.22l.03-.8Zm-4.072-4.39a4.224 4.224 0 0 1 1.436-3.023l-.528-.6a5.024 5.024 0 0 0-1.708 3.593l.8.03Z" fill="var(--color--bulma-100)"/>
</symbol>
</svg>
  