<svg width="32" height="32" viewBox="0 0 32 32" fill="none" xmlns="http://www.w3.org/2000/svg">
  <symbol id="item" viewBox="0 0 32 32"  fill="none">
    <path d="M25.422 15.204a.5.5 0 1 0-1 0h1Zm-10.44-8.782v-.5h-.02l.02.5ZM5.62 15.783l-.5-.02v.02h.5Zm8.916-8.805a.5.5 0 1 0-.846-.533l.846.533Zm-1.002 3.69.447-.223a.448.448 0 0 0-.01-.02l-.437.243Zm.579.58.305-.397a.5.5 0 0 0-.082-.051l-.223.447Zm1.895 14.92a.5.5 0 1 0 .456-.89l-.456.89Zm-3.729-6.718h-.5a.43.43 0 0 0 0 .023l.5-.023Zm-1.35-4.15.353-.353-.354.354Zm-.87-.675.278-.416a.6.6 0 0 0-.025-.016l-.252.432Zm-4.672-.056a.5.5 0 1 0 .466.884l-.466-.884Zm16.672 8.42a.5.5 0 1 0 .707-.707l-.707.707ZM9.16 8.674a.5.5 0 1 0-.708.707l.707-.707Zm5.82 1.944.22.45.011-.006-.231-.444ZM6.595 21.356a.5.5 0 0 0 .99.147l-.99-.147Zm9.965-14.35a.5.5 0 1 0 .132-.991l-.133.991Zm.237 3.355a.5.5 0 0 0-.343-.939l.343.94Zm-.023 2.214a.5.5 0 1 0 .022-1l-.022 1Zm9.606-4.64v.5a.5.5 0 0 0 .5-.5h-.5Zm.25 2.215a.5.5 0 1 0-.782-.625l.781.625ZM15.27 5.922H14.98v1H15.272v-1Zm-.309 0c-2.627.101-5.065 1.113-6.897 2.945l.707.707c1.643-1.643 3.837-2.56 6.229-2.653l-.039-.999ZM8.065 8.867c-1.831 1.832-2.843 4.27-2.945 6.897l1 .038c.092-2.391 1.01-4.585 2.652-6.228l-.707-.707ZM5.12 15.783V16.073h1V15.782h-1Zm0 .29c0 2.733 1.014 5.274 2.945 7.205l.707-.707c-1.736-1.736-2.652-4.02-2.652-6.498h-1Zm2.945 7.205c1.931 1.931 4.473 2.946 7.206 2.946v-1c-2.478 0-4.762-.916-6.499-2.653l-.707.707Zm7.206 2.946c2.733 0 5.275-1.015 7.206-2.946l-.707-.707c-1.737 1.737-4.02 2.652-6.499 2.652v1Zm7.206-2.946c1.93-1.93 2.945-4.472 2.945-7.205h-1c0 2.478-.916 4.762-2.652 6.498l.707.707Zm2.945-7.205V15.204h-1V16.073h1ZM13.69 6.445c-.557.885-.909 1.649-1.015 2.377-.11.752.05 1.42.422 2.09l.874-.487c-.284-.51-.379-.959-.306-1.459.076-.523.342-1.147.871-1.988l-.846-.533Zm-.156 4.223-.447.224v.002l.002.003.004.008a1.213 1.213 0 0 0 .051.088c.033.054.081.125.144.205.124.154.322.357.601.496l.447-.894a.837.837 0 0 1-.267-.227 1.027 1.027 0 0 1-.088-.13v.001l-.447.224Zm2.93 14.61c-1.81-.928-2.682-1.895-3.13-2.834-.457-.957-.506-1.942-.555-3.016l-1 .045c.048 1.05.095 2.235.652 3.402.566 1.184 1.624 2.292 3.577 3.293l.456-.89ZM12.78 19.45c0-1.462-.09-3.096-1.497-4.503l-.707.707c1.101 1.102 1.204 2.364 1.204 3.796h1Zm-1.85-4.15.353-.353-.001-.001-.004-.003-.012-.013-.044-.043-.132-.133-.707.707.132.133.044.043.012.013.003.003h.001v.001l.354-.354Zm.16-.546a1.943 1.943 0 0 0-.205-.166 11.216 11.216 0 0 0-.453-.315l-.068-.047-.02-.012-.004-.004h-.002v-.001l-.277.416-.278.416h.002c0 .002.002.003.004.004l.018.012a13.35 13.35 0 0 1 .27.184c.077.053.155.108.217.154.075.055.097.074.089.066l.707-.707Zm-.777-.561c-1.37-.798-3.015-.63-4.925.376l.466.884c1.757-.925 3.007-.949 3.955-.396l.504-.864Zm12.454 8.089L9.158 8.674l-.707.707L22.06 22.989l.707-.707ZM14.76 10.169c-4.536 2.218-7.459 6.453-8.164 11.187l.99.147c.658-4.421 3.384-8.368 7.613-10.435l-.439-.899Zm1.933-4.154c-.467-.062-.941-.093-1.421-.093v1c.436 0 .867.028 1.288.084l.133-.991Zm-.238 3.407c-.578.211-1.148.462-1.706.753l.462.887c.52-.271 1.05-.504 1.587-.7l-.343-.94Zm-2.646 2.221c.934.719 1.954.91 2.966.932l.022-1c-.898-.02-1.677-.185-2.378-.724l-.61.792Zm9.571-.996c-.79 0-1.39-.28-1.798-.731-.413-.457-.665-1.132-.665-1.981h-1c0 1.044.312 1.975.923 2.651.615.682 1.496 1.061 2.54 1.061v-1Zm-2.463-2.712c0-.849.252-1.518.663-1.969.407-.446 1.008-.722 1.8-.722v-1c-1.041 0-1.922.372-2.539 1.048-.612.672-.924 1.598-.924 2.643h1Zm2.463-2.691c.793 0 1.406.277 1.822.726.42.452.68 1.12.68 1.965h1c0-1.049-.325-1.976-.947-2.646-.626-.674-1.514-1.045-2.555-1.045v1Zm2.47 4.281c-.399.498-.8.77-1.192.922-.4.156-.82.2-1.278.2v1c.518 0 1.078-.049 1.64-.268.57-.221 1.11-.605 1.61-1.23l-.78-.624Zm.531-2.09h-5.964v1h5.964v-1Z" fill="currentColor"/>
  </symbol>
</svg>
  