<svg width="32" height="32" viewBox="0 0 32 32" fill="none" xmlns="http://www.w3.org/2000/svg">
  <symbol id="item" viewBox="0 0 32 32" stroke-width="1" fill="none">
    <path d="M6.275 21.244a1.99 1.99 0 0 0 3.948.502l.249-1.898a1 1 0 0 1 .991-.87h4.457a1.896 1.896 0 0 0 0-3.793h-3.75a1 1 0 0 1-.992-1.124l.102-.821a1 1 0 0 1 .993-.876h4.438a1.932 1.932 0 1 0 0-3.864H9.614a2 2 0 0 0-1.985 1.755l-1.354 10.99ZM21.207 10.267A2 2 0 0 1 23.193 8.5h.558a2 2 0 0 1 1.986 2.233l-1.293 11a2 2 0 0 1-1.986 1.767H21.9a2 2 0 0 1-1.987-2.233l1.294-11Z" stroke="currentColor"/>
  </symbol>
</svg>
  