<svg width="32" height="32" viewBox="0 0 32 32" fill="none" xmlns="http://www.w3.org/2000/svg">
  <symbol id="item" viewBox="0 0 32 32" stroke-width="1" fill="none">
    <path d="M13.23 7.67c.66.904.876 2.108.554 3.175-.341 1.182-1.264 2.136-1.713 3.283a4.59 4.59 0 0 0-.028 3.319c.392 1.058 1.023 1.878 2.2 2.448 1.164.563 2.198.55 3.286.207a4.665 4.665 0 0 0 2.585-2.081c.621-1.064.797-2.38 1.512-3.38a3.753 3.753 0 0 1 2.835-1.536m-.264 6.863a9.107 9.107 0 1 1-16.395-7.936 9.107 9.107 0 0 1 16.395 7.936Z" stroke="currentColor" stroke-miterlimit="10" stroke-linecap="round"/>
  </symbol>
</svg>
  