<svg width="32" height="32" viewBox="0 0 32 32" fill="none" xmlns="http://www.w3.org/2000/svg">
  <symbol id="item" viewBox="0 0 32 32"  fill="none">
    <path d="m12.304 15.501-.497-.053a.5.5 0 0 0 .096.352l.4-.299Zm2.727 3.038-.327.378a.5.5 0 0 0 .433.11l-.106-.488Zm3.967-.865.107.488a.5.5 0 0 0 .327-.24l-.434-.248ZM12.861 7.156a.5.5 0 0 0-.762-.648l.762.648Zm-4.879 5.532-.458-.2a.5.5 0 0 0-.04.167l.498.033Zm.811 3.383-.445.227a.5.5 0 0 0 .526.267l-.08-.494Zm3.591-.078a.5.5 0 0 0-.16-.987l.16.987Zm-3.155.325a.5.5 0 1 0-.871-.49l.871.49Zm-1.145 3.093-.492.087c.005.03.013.06.024.09l.468-.177Zm2.6 3.104-.217.45a.501.501 0 0 0 .186.049l.031-.5Zm3.46-.577.176.468a.5.5 0 0 0 .314-.37l-.49-.098Zm1.338-3.187a.5.5 0 0 0-.904-.426l.904.426ZM6.288 11.93a.5.5 0 0 0 .088.996l-.088-.996Zm1.628 1.074a.5.5 0 0 0 .125-.992l-.125.992Zm-1.733 5.919a.5.5 0 1 0 .069.998l-.07-.998Zm1.885.873A.5.5 0 1 0 8 18.797l.068.998Zm3.094 2.869a.5.5 0 1 0-.954-.3l.954.3Zm-1.066 1.924a.5.5 0 0 0 .989-.148l-.99.148Zm4.324-3.068a.5.5 0 0 0-.551.835l.55-.835Zm4.986-4.14a.5.5 0 1 0-.811.585l.81-.585Zm4.908-1 .495.069a.496.496 0 0 0 0-.137l-.495.068Zm-1.212 3.047a.5.5 0 1 0-.861.508l.86-.508ZM22.4 21.9a.5.5 0 1 0 .982.187l-.982-.187Zm-5.632 3.504a.5.5 0 1 0 .973.229l-.973-.23Zm-.203-18.392a.5.5 0 1 0 .14-.99l-.14.99Zm7.64 7.699a.5.5 0 1 0-.915.404l.915-.404Zm1.119-.05a.5.5 0 0 0-.99.137l.99-.137Zm-8.619-3.23a.5.5 0 1 0-.14-.99l.14.99Zm3.807 3.387a.5.5 0 1 0-.984-.177l.984.177Zm5.867-6.884v.5a.5.5 0 0 0 .5-.5h-.5Zm.25 2.215a.5.5 0 1 0-.782-.625l.781.625Zm-2.208 5.923a9.151 9.151 0 0 1-9.15 9.15v1c5.605 0 10.15-4.544 10.15-10.15h-1Zm-9.15 9.15a9.151 9.151 0 0 1-9.152-9.15h-1c0 5.606 4.545 10.15 10.151 10.15v-1Zm-9.152-9.15a9.151 9.151 0 0 1 9.151-9.151v-1c-5.606 0-10.15 4.545-10.15 10.15h1Zm7.359-4.341-.457-.202-.001.002-.003.006-.01.02a24.61 24.61 0 0 0-.153.367c-.1.244-.236.585-.376.973-.275.763-.588 1.754-.672 2.55l.994.106c.07-.667.346-1.56.619-2.316a24.08 24.08 0 0 1 .506-1.28l.008-.018.002-.005-.457-.203Zm-1.175 3.77-.401.298.001.002.004.004.013.018.048.064a26.378 26.378 0 0 0 .825 1.03c.523.623 1.225 1.407 1.91 1.999l.654-.757c-.623-.539-1.285-1.274-1.798-1.885a28.617 28.617 0 0 1-.795-.992l-.045-.06-.012-.016a.054.054 0 0 0-.002-.003l-.001-.001-.401.298Zm2.833 3.525 3.968-.865-.213-.977-3.967.865.212.977ZM12.48 6.832a92.961 92.961 0 0 0-.381-.324h-.001l-.001.002a.495.495 0 0 0-.004.005l-.013.016a8.26 8.26 0 0 0-.21.267c-.135.18-.318.436-.513.748-.387.617-.84 1.478-1.042 2.401l.977.215c.167-.763.553-1.512.912-2.085a9.777 9.777 0 0 1 .657-.922l-.381-.323Zm-1.676 3.222-.155.476h.001l.01.004.041.014c.038.014.096.035.17.065.147.06.357.151.603.278a6.55 6.55 0 0 1 1.648 1.191l.714-.7a7.548 7.548 0 0 0-1.903-1.379 8.074 8.074 0 0 0-.95-.416 1.295 1.295 0 0 0-.023-.007h-.001l-.001-.001-.154.475Zm0 0a108.71 108.71 0 0 0-.234-.442l-.002.002-.006.003-.022.011a6.218 6.218 0 0 0-.346.201c-.224.137-.53.336-.859.584-.64.484-1.432 1.207-1.811 2.075l.917.4c.271-.623.89-1.217 1.497-1.677a9.57 9.57 0 0 1 1.08-.704l.015-.008.003-.002-.232-.443Zm-2.822 2.634a60.63 60.63 0 0 0-.499-.033v.01a1.938 1.938 0 0 0-.003.083 6.963 6.963 0 0 0 .07 1.027c.093.662.31 1.563.798 2.523l.891-.454a7.109 7.109 0 0 1-.7-2.21 5.969 5.969 0 0 1-.06-.863 1.977 1.977 0 0 1 .002-.05v-.001.001l-.499-.033Zm.892 3.876 3.51-.57-.16-.988-3.51.572.16.986Zm-.08-.491a68.268 68.268 0 0 0-.436-.245l-.002.002a7.855 7.855 0 0 0-.497 1.16c-.223.67-.43 1.598-.267 2.508l.984-.175c-.119-.67.03-1.412.232-2.016a6.855 6.855 0 0 1 .414-.976l.006-.011.001-.002-.436-.245Zm-.71 3.338-.467.177v.004c.002.001.002.004.004.007a4.174 4.174 0 0 0 .043.105 8.456 8.456 0 0 0 .646 1.213c.453.704 1.165 1.569 2.157 2.048l.435-.9c-.751-.364-1.34-1.05-1.751-1.689a7.468 7.468 0 0 1-.598-1.14l-.002-.003-.467.178Zm2.6 3.104-.03.499h.002a.23.23 0 0 0 .006 0l.018.001a4.933 4.933 0 0 0 .294.005 9.832 9.832 0 0 0 3.346-.614l-.353-.936a8.829 8.829 0 0 1-3.24.546h-.012l-.03.499Zm3.46-.577.49.097v-.001l.001-.006.004-.021.017-.083a45.62 45.62 0 0 1 .28-1.278c.178-.768.389-1.56.546-1.895l-.904-.426c-.212.45-.445 1.357-.617 2.094a48.37 48.37 0 0 0-.285 1.306l-.017.085-.005.023a.311.311 0 0 1-.001.008l.49.097Zm-7.812-9.51.044.498h-.001.002l.015-.001.07-.004c.063-.002.162-.005.293-.003.262.003.655.022 1.16.086l.126-.992c-.545-.069-.975-.09-1.274-.094a6.747 6.747 0 0 0-.44.009l-.026.002h-.012l.043.499Zm-.08 7.492 1.816-.125L8 18.799l-1.817.125.069.998Zm4.433 2.595-.477-.15v.002l-.002.004-.003.012a4.816 4.816 0 0 0-.125.636c-.05.392-.076.939.018 1.57l.989-.148a4.78 4.78 0 0 1-.016-1.296 3.808 3.808 0 0 1 .093-.48v-.002.001l-.477-.15Zm3.46-.577-.276.418.002.001.005.004.02.012a8.983 8.983 0 0 0 .326.204c.216.131.516.307.856.487.654.345 1.544.753 2.251.806l.075-.997c-.475-.035-1.196-.344-1.859-.693a15.577 15.577 0 0 1-1.105-.646l-.016-.01a.108.108 0 0 1-.004-.003l-.276.417Zm3.222 1.434.199.459v-.001h.003a.98.98 0 0 1 .006-.004l.023-.01a8.514 8.514 0 0 0 .372-.182 9.74 9.74 0 0 0 .92-.543c.685-.459 1.536-1.164 1.935-2.076l-.916-.401c-.28.64-.93 1.213-1.575 1.646a8.76 8.76 0 0 1-1.147.644l-.016.008h-.003v.001l.199.459Zm3-2.558.475-.156v-.002a.287.287 0 0 0-.003-.005l-.006-.02a12.903 12.903 0 0 0-.122-.354c-.081-.232-.197-.55-.332-.896-.262-.672-.624-1.516-.973-2l-.811.585c.264.366.585 1.093.853 1.779a27.545 27.545 0 0 1 .436 1.202l.006.018a.294.294 0 0 1 .002.006l.475-.157Zm3.947-4.433-.496-.07v.006a2.217 2.217 0 0 1-.025.136 6.406 6.406 0 0 1-.618 1.72c-.518.963-1.392 1.927-2.881 2.147l.146.99c1.91-.283 3.01-1.536 3.616-2.664a7.411 7.411 0 0 0 .75-2.178l.002-.012v-.005l-.494-.07Zm-1.643 3.301-.43.254-.001-.001-.001-.001v-.002c-.001 0-.001 0 0 0a2.302 2.302 0 0 1 .16.467c.076.334.127.842.002 1.502l.982.187c.154-.806.095-1.454-.01-1.91a3.308 3.308 0 0 0-.235-.682 1.217 1.217 0 0 0-.034-.064l-.001-.002v-.001h-.001l-.43.253Zm-5.304 3.69-.5.015v.003a.623.623 0 0 1 .001.058l.003.172c.002.146.003.348-.002.569-.008.458-.036.944-.1 1.216l.973.229c.092-.39.119-.977.127-1.427a20.505 20.505 0 0 0-.002-.831V23.357l-.5.015ZM15.27 6.922c.44 0 .872.03 1.295.09l.14-.99c-.47-.066-.948-.1-1.435-.1v1Zm8.02 8.194c.245.554.451.775.527 1.332l.991-.135c-.102-.743-.45-1.255-.603-1.601l-.915.404Zm1.043-.316c.058.415.088.84.088 1.273h1c0-.479-.033-.95-.097-1.411l-.99.137Zm-7.768-4.359c-.77.11-1.963.34-3.261.822l.348.938a15.017 15.017 0 0 1 3.053-.77l-.14-.99Zm2.432 7.233.434.248v-.001l.002-.001a10.879 10.879 0 0 0 1.08-3.1l-.985-.178a9.875 9.875 0 0 1-.94 2.738l-.02.037-.005.008v.001l.434.248Zm4.381-7.027c-.79 0-1.39-.28-1.798-.731-.413-.457-.665-1.132-.665-1.981h-1c0 1.044.312 1.975.923 2.651.615.682 1.496 1.061 2.54 1.061v-1Zm-2.463-2.712c0-.849.252-1.518.663-1.969.407-.446 1.008-.722 1.8-.722v-1c-1.041 0-1.922.372-2.539 1.048-.612.672-.924 1.598-.924 2.643h1Zm2.463-2.691c.793 0 1.406.277 1.822.726.42.452.68 1.12.68 1.965h1c0-1.049-.325-1.976-.947-2.646-.626-.674-1.514-1.045-2.555-1.045v1Zm2.47 4.281c-.399.498-.8.77-1.192.922-.4.156-.82.2-1.278.2v1c.518 0 1.078-.049 1.64-.268.57-.221 1.11-.604 1.61-1.23l-.78-.624Zm.532-2.09h-5.965v1h5.965v-1Z" fill="currentColor"/>
  </symbol>
</svg>
  