<svg width="32" height="32" viewBox="0 0 32 32" fill="none" xmlns="http://www.w3.org/2000/svg">
  <symbol id="item" viewBox="0 0 32 32" stroke-width="1" fill="none">
    <path d="M5.007 15.972c0-3.633 3.153-6.983 7.571-7.772 4.418-.79 8.574 1.256 9.862 4.658" stroke="currentColor" stroke-miterlimit="10" stroke-linecap="round"/><path d="M10.055 15.26S7.861 13.955 5 15.943m12.195-2.001s1.68-2.05 5.231-1.084m-5.231 1.083s-4.182-1.37-7.15 1.306m2.33-7.007s-2.97 1.452-2.323 6.975m2.34-6.96s3.412.241 4.78 5.634M12.137 6.3l-.053-.3" stroke="currentColor" stroke-miterlimit="10" stroke-linecap="round"/><path d="M12.246 6.894 12.084 6m3.222 18.466L15.598 26" stroke="currentColor" stroke-miterlimit="10"/><path d="m15.426 25.102.172.897" stroke="currentColor" stroke-miterlimit="10" stroke-linecap="round"/><path d="m13.544 15.136 1.245 6.587" stroke="currentColor" stroke-miterlimit="10"/><path d="m27 16.2-3.392 6.878H7.878m10.084-2.738h6.99M9.309 25.986l1.769-2.902m7.733-.025 1.66-2.703m4.554 5.63-1.766-2.902" stroke="currentColor" stroke-linecap="round" stroke-linejoin="round"/>
  </symbol>
</svg>
  