<svg width="32" height="32" viewBox="0 0 32 32" fill="none" xmlns="http://www.w3.org/2000/svg">
  <symbol id="item" viewBox="0 0 32 32" stroke-width="1" fill="none">
    <path d="M13.944 27V12.142c0-.295.12-.579.332-.787.213-.209.5-.326.802-.326h9.788c.3 0 .59.117.802.326.212.208.332.492.332.787V27M6 27v-6.196c0-.295.12-.578.332-.787.213-.208.501-.326.802-.326h4.883" stroke="currentColor" stroke-linecap="round" stroke-linejoin="round"/><path d="M17.776 8.873V5m4.388 3.873V5m-.181 1.937h-4.01m-1.78 6.971h7.555m-7.555 2.872h7.555m-7.555 2.874h7.555m-7.555 2.872h7.555m-7.555 2.872h7.555M8.083 22.526h3.93m-3.93 2.872h3.93" stroke="currentColor" stroke-miterlimit="10" stroke-linecap="round"/>
  </symbol>
</svg>
  