<svg width="32" height="32" viewBox="0 0 32 32" fill="none" xmlns="http://www.w3.org/2000/svg">
  <symbol id="item" viewBox="0 0 32 32"  fill="none">
    <path d="M11.357 27a.5.5 0 0 0 1 0h-1Zm1-1.443a.5.5 0 1 0-1 0h1ZM20.643 27a.5.5 0 1 0 1 0h-1Zm1-1.443a.5.5 0 1 0-1 0h1ZM9.5 22.8a.5.5 0 0 0-1 0h1ZM12 4.5a.5.5 0 0 0 0 1v-1Zm9 1a.5.5 0 0 0 0-1v1ZM8.5 19a.5.5 0 0 0 1 0h-1Zm3.857-1.797a.5.5 0 1 0 1 0h-1Zm1-6.299a.5.5 0 1 0-1 0h1Zm-1 11.548a.5.5 0 1 0 1 0h-1Zm1-.972a.5.5 0 1 0-1 0h1ZM16 15.5a.5.5 0 0 0 1 0h-1Zm1-4.596a.5.5 0 1 0-1 0h1Zm-1 11.548a.5.5 0 0 0 1 0h-1Zm1-2.731a.5.5 0 1 0-1 0h1Zm2.643-6.221a.5.5 0 0 0 1 0h-1Zm1-2.596a.5.5 0 1 0-1 0h1Zm-1 11.548a.5.5 0 1 0 1 0h-1Zm1-4.452a.5.5 0 1 0-1 0h1Zm2.857-6a.5.5 0 0 0 1 0h-1Zm1 4.34a.5.5 0 1 0-1 0h1ZM6.28 20.05a.5.5 0 0 0 .44.9l-.44-.9Zm20.94-9.1a.5.5 0 1 0-.44-.9l.44.9ZM12.356 27v-1.443h-1V27h1Zm9.286 0v-1.443h-1V27h1ZM20.214 7.885V5.507h-1v2.378h1Zm-7.428-2.378v2.378h1V5.507h-1Zm-1.298 2.947h10.024v-1H11.488v1Zm10.024 0c1.102 0 1.988.884 1.988 1.965h1c0-1.642-1.342-2.965-2.988-2.965v1ZM23.5 22.8a1.977 1.977 0 0 1-1.988 1.965v1c1.646 0 2.988-1.323 2.988-2.965h-1Zm-1.988 1.965H11.488v1h10.024v-1Zm-10.024 0A1.977 1.977 0 0 1 9.5 22.8h-1c0 1.642 1.342 2.965 2.988 2.965v-1ZM9.5 10.42c0-1.081.886-1.965 1.988-1.965v-1c-1.646 0-2.988 1.323-2.988 2.965h1ZM12 5.5h9v-1h-9v1ZM9.5 19v-8.58h-1V19h1Zm3.857-1.797v-6.299h-1v6.299h1Zm0 5.25v-.973h-1v.972h1ZM17 15.5v-4.596h-1V15.5h1Zm0 6.952v-2.731h-1v2.731h1Zm3.643-8.952v-2.596h-1V13.5h1Zm0 8.952V18h-1v4.452h1ZM23.5 10.42V12h1v-1.58h-1Zm0 5.921v6.46h1v-6.46h-1ZM6.72 20.95l20.5-10-.44-.9-20.5 10 .44.9Z" fill="currentColor"/>
  </symbol>
</svg>
  