
<svg width="1em" height="1em"    viewBox="0 0 32 32" fill="none" xmlns="http://www.w3.org/2000/svg">
<symbol id="item"
width="1em"
height="1em"
viewBox="0 0 32 32"
fill="none"
>
<path d="M25.91 28.439v.5h.011l-.011-.5Zm-17.43 0v-.5h-.005l.005.5Zm-1.215-1.09h-.5v.025l.003.025.497-.05ZM27.522 6.502l.014-.5h-.014v.5Zm.468.66-.477-.151-.013.042-.006.045.496.063Zm-1.116 20.187h-.5v.025l.002.025.498-.05ZM14.39 25.715a.5.5 0 0 0 1 0h-1Zm-5.447 0a.5.5 0 0 0 1 0h-1Zm7.58-7.036a.5.5 0 1 0 0 1v-1Zm1.63 1a.5.5 0 1 0 0-1v1Zm-1.63.634a.5.5 0 0 0 0 1v-1Zm2.992 1a.5.5 0 1 0 0-1v1Zm1.911-1a.5.5 0 1 0 0 1v-1Zm2.99 1a.5.5 0 1 0 0-1v1Zm-11.16-8.626a.5.5 0 0 0 0 1v-1Zm7.08 1a.5.5 0 1 0 0-1v1Zm-3.812 9.35a.5.5 0 1 0 0 1v-1Zm1.629 1a.5.5 0 1 0 0-1v1Zm-1.634.633a.5.5 0 1 0 0 1v-1Zm2.723 1a.5.5 0 0 0 0-1v1Zm2.184-1a.5.5 0 1 0 0 1v-1Zm2.99 1a.5.5 0 1 0 0-1v1ZM11.778 6.002a.5.5 0 1 0 0 1v-1Zm-4.379 8.053a.5.5 0 0 0-.98.2l.98-.2ZM25.91 27.94H8.48v1h17.43v-1Zm-17.435 0a.71.71 0 0 1-.48-.182l-.668.745c.318.285.73.44 1.158.437l-.01-1Zm-.48-.182a.71.71 0 0 1-.232-.457l-.995.099c.042.424.242.818.56 1.103l.667-.745Zm-.23-.408V15.911h-1v11.438h1ZM27.507 7.002h.003l.471-.881a1.006 1.006 0 0 0-.445-.119l-.029 1Zm.003 0 .002.003.816-.58a1.006 1.006 0 0 0-.346-.304l-.472.882Zm.002.003.002.003.987-.156a1.005 1.005 0 0 0-.174-.427l-.815.58Zm.002.003v.003l.953.301c.047-.148.059-.306.034-.46l-.987.156Zm-.02.09-1.116 8.75.992.126 1.116-8.75-.992-.126Zm-1.12 8.813v11.438h1V15.911h-1Zm.002 11.488a.492.492 0 0 1-.021.2l.951.307a1.49 1.49 0 0 0 .065-.607l-.995.1Zm-.021.2a.49.49 0 0 1-.1.174l.75.663c.135-.154.238-.334.302-.53l-.952-.307Zm-.1.174a.493.493 0 0 1-.16.12l.42.907c.187-.086.353-.21.49-.364l-.75-.663Zm-.16.12a.491.491 0 0 1-.197.046l.023 1c.206-.005.408-.052.594-.139l-.42-.907ZM7.264 16.411h19.609v-1H7.265v1Zm4.902 7.08c.566 0 1.11-.224 1.51-.625l-.708-.707a1.134 1.134 0 0 1-.802.332v1Zm1.51-.625c.4-.4.625-.943.625-1.509h-1c0 .301-.12.59-.333.802l.707.707Zm.625-1.509v-.544h-1v.544h1Zm0-.544c0-.566-.225-1.11-.626-1.51l-.707.708c.213.213.333.501.333.802h1Zm-.626-1.51c-.4-.4-.943-.624-1.509-.624v1c.301 0 .59.12.802.332l.707-.707Zm-1.509-.624c-.566 0-1.108.225-1.509.625l.708.707c.212-.213.5-.332.801-.332v-1Zm-1.509.625c-.4.4-.625.943-.625 1.509h1c0-.301.12-.59.333-.802l-.708-.707Zm-.625 1.509v.544h1v-.544h-1Zm0 .544c0 .566.225 1.11.625 1.51l.708-.708a1.134 1.134 0 0 1-.333-.802h-1Zm.625 1.51c.4.4.943.624 1.51.624v-1c-.301 0-.59-.119-.802-.332l-.708.707Zm4.733 2.848v-1.09h-1v1.09h1Zm0-1.09c0-.888-.684-1.424-1.305-1.712a4.893 4.893 0 0 0-1.919-.422v1c.401 0 1.009.103 1.5.33.51.236.724.517.724.804h1Zm-3.224-2.134c-.525 0-1.279.127-1.918.422-.62.288-1.305.824-1.305 1.712h1c0-.287.214-.568.724-.804a3.901 3.901 0 0 1 1.5-.33v-1Zm-3.223 2.134v1.09h1v-1.09h-1Zm7.58-4.946h1.63v-1h-1.63v1Zm0 1.634h2.992v-1h-2.991v1Zm4.903 0h2.99v-1h-2.99v1Zm-8.17-7.626h7.08v-1h-7.08v1Zm3.268 10.35h1.629v-1h-1.63v1Zm-.005 1.633h2.723v-1H16.52v1Zm4.907 0h2.99v-1h-2.99v1Zm-9.65-18.668h15.745v-1H11.778v1Zm-4.022 8.81-.357-1.757-.98.2.357 1.755.98-.199Z" fill="var(--color--bulma-100)"/><path d="m5.242 13.622.211-.359-.211.359Zm2.757 0-.211-.359.211.359Zm-.962-8.379a.417.417 0 0 0-.833 0h.833Zm-.833 3.334a.417.417 0 1 0 .833 0h-.833Zm.833 1.65a.417.417 0 0 0-.833 0h.833Zm-.833.641a.417.417 0 0 0 .833 0h-.833ZM4.12 2.848h5v-.834h-5v.834Zm7.083 2.083v3.325h.833V4.931h-.833ZM2.037 8.256V4.931h-.833v3.325h.833Zm3.416 5.007c-2.006-1.184-3.416-2.966-3.416-5.007h-.833c0 2.452 1.685 4.461 3.826 5.725l.423-.718Zm5.75-5.007c0 2.041-1.409 3.823-3.415 5.007l.423.718c2.141-1.264 3.826-3.273 3.826-5.725h-.833ZM5.03 13.981c.98.578 2.2.578 3.181 0l-.423-.718a2.299 2.299 0 0 1-2.335 0l-.423.718ZM9.12 2.848c1.151 0 2.084.932 2.084 2.083h.833a2.917 2.917 0 0 0-2.916-2.917v.834Zm-5-.834a2.917 2.917 0 0 0-2.916 2.917h.833c0-1.15.933-2.083 2.084-2.083v-.834Zm2.084 3.23v3.333h.833V5.243h-.833Zm0 4.982v.642h.833v-.642h-.833Z" fill="var(--color--bulma-100)"/>
</symbol>
</svg>
  