
<svg width="1em" height="1em"    viewBox="0 0 32 32" fill="none" xmlns="http://www.w3.org/2000/svg">
<symbol id="item"
width="1em"
height="1em"
viewBox="0 0 32 32"
fill="none"
>
<path d="m24.292 14.652.304-.26-.304.26Zm-.43 5.452-.26-.305.26.305Zm-5.452-.432.304-.26-.304.26Zm.43-5.451-.259-.304.26.304Zm3.38 2.24a.4.4 0 0 0 .247.76l-.246-.76Zm.997.517a.4.4 0 0 0-.246-.76l.246.76Zm-.622.481a.4.4 0 0 0 .47.647l-.47-.647Zm1.105.185a.4.4 0 0 0-.472-.647l.471.647Zm-.448.672a.4.4 0 1 0 .649.467l-.65-.467Zm1.116-.182a.4.4 0 1 0-.649-.467l.65.467Zm-1.91-3.78a.4.4 0 1 0-.24.762l.24-.763Zm.515 1a.4.4 0 1 0 .24-.764l-.24.764Zm-.792.027a.4.4 0 1 0-.002.8l.002-.8Zm.782.802a.4.4 0 1 0 .002-.8l-.002.8Zm-2.484 1.683a.4.4 0 0 0-.247-.76l.247.76Zm-1.024-.508a.4.4 0 0 0 .247.76l-.247-.76Zm1.07 1.617a.4.4 0 1 0 .007-.8l-.007.8Zm-.81-.807a.4.4 0 1 0-.006.8l.006-.8Zm.514 1.88a.4.4 0 1 0 .254-.758l-.254.759Zm-.524-1.018a.4.4 0 1 0-.253.759l.253-.759Zm-.309-3.074a.4.4 0 0 0-.644-.475l.644.475Zm-1.125.179a.4.4 0 0 0 .644.474l-.644-.474Zm1.818.677a.4.4 0 0 0-.475-.644l.475.644Zm-1.132-.16a.4.4 0 0 0 .475.645l-.475-.644Zm3.685 6a.4.4 0 0 0-.787-.147l.787.147Zm-1.38 1.06.123.38-.124-.38Zm-3.91 1.268-.124-.38.124.38Zm-2.418.156-.191.351a.414.414 0 0 0 .043.02l.148-.371Zm-7.405-8.291-.382.12a.352.352 0 0 0 .006.017l.376-.137ZM18.447 6.94a.4.4 0 0 0 .247.76l-.247-.76Zm1.315.851-.347.2.347-.2Zm1.289 4.094a.4.4 0 1 0 .767-.226l-.767.226Zm-6.657 7.71a.4.4 0 0 0 .246-.762l-.246.762ZM9.43 14.994l.313-.248-.313.248Zm-1.66-.322-.243-.317.244.317Zm3.603-2.955a.4.4 0 1 0 .714-.36l-.714.36Zm-.543-1.965.357-.18-.003-.006-.354.186Zm.561-1.658-.166-.364-.004.002.17.362Zm1.559.488-.348.199.002.002.346-.2Zm2.293 6.41a.4.4 0 1 0 .775-.196l-.775.197Zm-3.166 2.573a.4.4 0 0 0 .623.5l-.623-.5Zm.942-3.007a.4.4 0 1 0-.758.258l.758-.258Zm.468-7.565a.4.4 0 1 0 .247.761l-.247-.76Zm1.573.995-.359.177.359-.177Zm1.877 5.626a.4.4 0 0 0 .774-.202l-.774.202Zm-1.17-7.24a.4.4 0 1 0 .228.767l-.229-.767Zm1.558 1.03-.363.167.001.003.362-.17Zm1.564 4.849a.4.4 0 0 0 .763-.238l-.763.238Zm-7.755.236a.4.4 0 1 0-.144.787l.144-.787Zm1.905 1.16a.4.4 0 1 0 .144-.786l-.144.787Zm10.95 1.263a3.467 3.467 0 0 1-.386 4.887l.519.609a4.267 4.267 0 0 0 .476-6.016l-.609.52Zm-.386 4.887a3.467 3.467 0 0 1-4.888-.386l-.609.52a4.267 4.267 0 0 0 6.016.475l-.52-.609Zm-4.888-.386a3.467 3.467 0 0 1 .386-4.888l-.519-.608a4.267 4.267 0 0 0-.476 6.015l.609-.52Zm.386-4.888a3.467 3.467 0 0 1 4.888.387l.608-.52a4.267 4.267 0 0 0-6.015-.475l.52.608Zm3.367 2.696.75-.243-.246-.76-.75.242.246.761Zm.599.885.634-.462-.472-.647-.634.462.472.647Zm.835.677.467-.649-.649-.467-.468.649.65.467Zm-1.683-3.667.755.238.24-.764-.755-.237-.24.763Zm-.04 1.065.785.002.002-.8-.784-.002-.002.8Zm-1.946.925-.777.252.247.76.777-.252-.247-.76Zm.3 1.069-.817-.007-.006.8.816.007.007-.8Zm-.049 1.115-.778-.26-.253.759.777.26.254-.759Zm-1.73-3.809-.482.654.644.474.481-.653-.644-.475Zm.86.687-.656.485.475.644.657-.485-.475-.644Zm2.242 6.337c-.073.39-.344.705-.717.826l.247.761a1.866 1.866 0 0 0 1.257-1.44l-.787-.147Zm-.717.826-3.91 1.269.247.76 3.91-1.268-.247-.76Zm-3.91 1.269c-.474.154-1.108.58-2.145.164l-.297.743c1.377.551 2.373-.044 2.69-.146l-.248-.761Zm-2.103.184c-.878-.478-2.313-1.465-3.717-2.856-1.404-1.392-2.757-3.168-3.503-5.22l-.752.274c.8 2.198 2.236 4.07 3.692 5.514 1.457 1.443 2.952 2.476 3.898 2.991l.382-.703Zm3.569-17.082a.611.611 0 0 1 .721.29l.694-.4a1.411 1.411 0 0 0-1.663-.651l.247.76Zm.722.29c.873 1.513 1.204 2.43 1.635 3.894l.767-.226c-.443-1.505-.796-2.486-1.71-4.068l-.692.4ZM14.64 18.835c-.954-.308-1.92-.995-2.79-1.79a19.807 19.807 0 0 1-2.108-2.298l-.627.496a20.606 20.606 0 0 0 2.195 2.392c.903.825 1.97 1.601 3.084 1.962l.246-.762Zm-4.898-4.088c-.5-.63-1.486-.955-2.216-.391l.488.633c.281-.216.785-.145 1.101.255l.627-.497Zm-2.216-.391c-.46.354-.812 1.225-.38 2.61l.764-.24c-.372-1.191.001-1.657.104-1.737l-.488-.633Zm4.56-2.998-.9-1.785-.714.36.9 1.785.714-.36Zm-.903-1.79a.814.814 0 0 1 .377-1.11l-.34-.725a1.613 1.613 0 0 0-.745 2.205l.708-.37Zm.373-1.109a.805.805 0 0 1 1.046.323l.694-.398a1.605 1.605 0 0 0-2.072-.653l.332.728Zm1.047.325c.743 1.28 1.998 3.69 2.639 6.21l.775-.197c-.668-2.626-1.964-5.11-2.723-6.415l-.691.402Zm.097 9.283c.196-.244.453-.628.567-1.213.114-.582.079-1.33-.25-2.295l-.757.258c.293.861.304 1.465.222 1.884-.081.416-.26.683-.406.865l.623.5Zm1.033-10.312c.38-.123.79.054.967.41l.717-.354a1.603 1.603 0 0 0-1.93-.817l.246.761Zm.967.411c.66 1.332 1.695 3.372 2.236 5.449l.774-.202c-.566-2.171-1.642-4.287-2.293-5.602l-.717.355Zm1.294-1.024a.803.803 0 0 1 .967.43l.726-.335a1.603 1.603 0 0 0-1.922-.862l.23.767Zm.968.433c.577 1.218 1.317 2.726 1.926 4.679l.763-.238c-.628-2.016-1.393-3.573-1.966-4.783l-.723.342Zm-5.973 5.702 2.05.374.143-.787-2.049-.374-.144.787Z" fill="var(--color--bulma-100)"/>
</symbol>
</svg>
  