
<svg width="1em" height="1em"    viewBox="0 0 32 32" fill="none" xmlns="http://www.w3.org/2000/svg">
<symbol id="item"
width="1em"
height="1em"
viewBox="0 0 32 32"
fill="none"
>
<path d="m19.433 13.925.4-.024-.4.024Zm.221-.935-.346-.2.346.2Zm-.415 2.342.346.2-.346-.2Zm.222-.938-.399.024.4-.024Zm-3-6.317a.4.4 0 1 0 0 .8v-.8Zm2.905-.035.197.348a.388.388 0 0 0 .021-.013l-.218-.335Zm2.984-1.395.4-.02a.4.4 0 0 0-.4-.38v.4Zm1.287 5.705.27-.294a.37.37 0 0 0-.018-.017l-.252.31Zm-.105-.085.253-.31a.401.401 0 0 0-.061-.041l-.192.35Zm-.942-.22-.019-.4-.009.001.028.4Zm-.34-.011-.051.396.01.001.04-.397Zm-1.207-2.027a.4.4 0 1 0-.793-.102l.793.102Zm3.832 2.844-.315-.247.315.247Zm-.519.17-.108.385.108-.385Zm.9-1.042.355-.183-.355.183Zm-.044.444.314.247-.314-.248ZM22.383 7.31l-.4.02.4-.02Zm.19.492-.312.251.311-.25Zm1.512 5.035-.315.247.315-.247Zm-3.208-5.783-.218-.335.218.335Zm3.489 3.23a.4.4 0 1 0-.594-.536l.594.536Zm-2.421 1.487a.4.4 0 0 0 .594.536l-.594-.536Zm-7.389-1.826a.4.4 0 0 0 0 .8v-.8Zm5.322 2.45a.4.4 0 0 0 .324-.732l-.324.732Zm-3.316-1.907-.162.365.162-.365Zm-3.17 1.353a.4.4 0 1 0 0 .8v-.8Zm1.116.8a.4.4 0 0 0 0-.8v.8Zm4.39 2.614a.4.4 0 1 0 .369.71l-.37-.71Zm2.25 5.705a.4.4 0 0 0 .435.67l-.436-.67Zm2.013-.833-.218-.335.218.335Zm-.208-3.398.117-.383-.117.383Zm-3.31.393a.4.4 0 0 0-.164.783l.164-.783Zm.811 2.481a.4.4 0 0 0 .385.701l-.385-.701Zm1.634-.44.192.35-.192-.35Zm-.115-1.144-.082.391.082-.391Zm-5.88-1.722a.4.4 0 1 0-.557.575l.556-.575Zm3.02 3.992.354-.186-.017-.032-.022-.029-.315.247Zm3.114 2.347-.334.221.021.032.027.028.286-.28Zm-1.967-2.968-.36.172.011.026.016.023.333-.22Zm-1.682-4.47a.4.4 0 0 0-.722.344l.722-.343Zm4.9 8.712-.285.28.285-.28Zm-1.651.774-.36.175.36-.175Zm-.628-1.071-.237.322.237-.322Zm.256.307.36-.175-.36.175Zm-.898-.883.354-.186-.354.186Zm.245.284.236-.323-.236.323ZM16.5 17.092l-.192.351.192-.351Zm.303.248.315-.247-.315.247Zm-3.598-2.897a.4.4 0 0 0 0-.8v.8Zm-5.397-.8a.4.4 0 0 0 0 .8v-.8Zm7.553 7.142a4.168 4.168 0 0 1-4.168 4.168v.8a4.968 4.968 0 0 0 4.968-4.968h-.8Zm-4.168 4.168a4.168 4.168 0 0 1-4.168-4.168h-.8a4.968 4.968 0 0 0 4.968 4.968v-.8Zm-4.168-4.168a4.168 4.168 0 0 1 4.168-4.167v-.8a4.968 4.968 0 0 0-4.968 4.967h.8Zm4.168-4.167a4.168 4.168 0 0 1 4.168 4.167h.8a4.968 4.968 0 0 0-4.968-4.967v.8Zm7.883-.21.509-.876-.692-.401-.508.875.691.402Zm.785-2.038-.029-.469-.798.048.028.47.799-.049Zm.14-1.18 1.152-1.992-.692-.401-1.153 1.992.692.401Zm-.169.711a1.267 1.267 0 0 1 .168-.71l-.692-.402a2.067 2.067 0 0 0-.274 1.16l.798-.048Zm-.247 1.632c.204-.352.3-.757.276-1.163l-.799.048c.015.25-.044.497-.169.713l.692.402ZM16.46 8.877c1.043 0 1.997.137 3.102-.487l-.394-.696c-.874.493-1.55.383-2.708.383v.8Zm3.123-.5 1.512-.988-.438-.67-1.511.988.437.67Zm2.66-1.33h.106v-.8h-.105v.8Zm-.293-.38.032.663.8-.04-.033-.663-.8.04Zm.31 1.386c1.028 1.274 1.888 2.644 2.639 4.11l.712-.365c-.772-1.506-1.661-2.925-2.728-4.247l-.623.502Zm2.636 4.124-.337.429.63.494.336-.428-.629-.495Zm-.497.414a4.493 4.493 0 0 0-.492-.533l-.543.588c.148.135.283.281.405.438l.63-.493Zm-.511-.55-.104-.085-.505.621.104.085.505-.62Zm-.165-.125a2.191 2.191 0 0 0-1.153-.268l.037.799c.254-.012.505.047.733.17l.383-.701Zm-1.162-.268c-.077.005-.167 0-.271-.01l-.082.795c.12.013.262.023.408.013l-.055-.798Zm-.261-.01a1.457 1.457 0 0 1-1.258-1.629l-.793-.102a2.257 2.257 0 0 0 1.949 2.525l.102-.793Zm2.26.968a.091.091 0 0 1-.097.031l-.215.77a.891.891 0 0 0 .94-.307l-.629-.494Zm.338-.443c.002.003.003.009-.002.014l.63.495a.813.813 0 0 0 .084-.874l-.712.365ZM21.983 7.33c.014.267.113.52.278.723l.623-.502a.451.451 0 0 1-.102-.26l-.799.039Zm2.48 5.307a.128.128 0 0 1-.063-.046l-.63.493c.116.148.28.268.479.324l.215-.77ZM21.097 7.39a2.1 2.1 0 0 1 1.149-.342v-.8a2.9 2.9 0 0 0-1.587.472l.438.67Zm2.676 2.359-1.827 2.023.594.536 1.827-2.023-.594-.536Zm-9.215.997h1.33v-.8h-1.33v.8Zm1.843.108 3.478 1.542.324-.732-3.478-1.541-.324.731Zm-.513-.108c.176 0 .351.037.513.108l.324-.731a2.067 2.067 0 0 0-.837-.177v.8Zm-2.495 1.896h1.116v-.8h-1.116v.8Zm5.875 3.323c-.075.04-.141.043-.152.044a.329.329 0 0 1-.045 0l-.013-.001c.01.002.033.006.07.015.074.017.18.045.315.082.27.074.636.18 1.04.299.808.238 1.758.526 2.355.708l.233-.765c-.597-.182-1.55-.471-2.361-.71-.406-.12-.779-.228-1.055-.304a10.575 10.575 0 0 0-.343-.089 2.012 2.012 0 0 0-.189-.033.467.467 0 0 0-.062 0c-.016 0-.086.005-.162.045l.369.71Zm3.873 1.56v1.904h.8v-1.904h-.8Zm-.197 2.268-1.796 1.168.436.67 1.796-1.168-.436-.67Zm.197-.364a.433.433 0 0 1-.197.364l.436.67c.35-.227.561-.616.561-1.034h-.8Zm-.303-2.317a.43.43 0 0 1 .303.413h.8c0-.54-.35-1.02-.87-1.178l-.233.765Zm-3.358.794 2.412.505.164-.783-2.412-.505-.164.783Zm2.425.521v.371h.8v-.37h-.8Zm-.009.386-1.44.791.384.701 1.441-.79-.385-.702Zm.009-.015a.017.017 0 0 1-.009.015l.385.701a.817.817 0 0 0 .424-.716h-.8Zm-.013-.387a.017.017 0 0 1 .013.017h.8c0-.387-.27-.72-.65-.8l-.163.783Zm-6.355-1.538c.228.221.486.415.772.571l.384-.702c-.22-.12-.42-.27-.6-.444l-.556.575Zm.952.715 2.31 2.949.63-.494-2.31-2.949-.63.494Zm2.271 2.888 1.444 2.748.708-.372-1.444-2.748-.708.372Zm1.806 3.168.397.292.474-.644-.398-.293-.473.645Zm.53.452.372.764.72-.35-.372-.764-.72.35Zm1.107 1.223h.98v-.8h-.98v.8Zm1.796-.817v-.299h-.8v.3h.8Zm-.234-.871-1.252-1.274-.57.56 1.251 1.274.57-.56Zm-1.204-1.215-1.966-2.967-.667.441 1.966 2.968.667-.442Zm-1.938-2.918-2.044-4.298-.722.343 2.043 4.298.723-.343Zm3.376 4.705a.817.817 0 0 0-.234-.572l-.57.56a.016.016 0 0 1 .004.012h.8Zm-2.53.657c.136.28.42.46.733.46v-.8a.017.017 0 0 1-.015-.01l-.719.35Zm-.506-.924a.433.433 0 0 1 .134.16l.719-.35a1.234 1.234 0 0 0-.379-.454l-.474.644Zm-.759-.712c.087.166.21.31.362.42l.473-.645a.433.433 0 0 1-.127-.147l-.708.372Zm2.978 2.095a.817.817 0 0 0 .817-.817h-.8c0 .01-.007.017-.017.017v.8Zm-6.873-7.875c.08.044.14.093.18.144l.63-.494a1.367 1.367 0 0 0-.426-.352l-.384.702Zm-3.103-3.8H7.808v.8h5.397v-.8Z" fill="var(--color--bulma-100)"/>
</symbol>
</svg>
  