
<svg width="1em" height="1em"    viewBox="0 0 32 32" fill="none" xmlns="http://www.w3.org/2000/svg">
<symbol id="item"
width="1em"
height="1em"
viewBox="0 0 32 32"
fill="none"
>
<path d="M15.627 25.106a.4.4 0 1 0 .441.668l-.44-.668Zm3.756-2.001.024-.4a.4.4 0 0 0-.244.066l.22.334Zm4.23.255-.023.4a.4.4 0 0 0 .401-.533l-.377.133Zm-1.859-6.49a.4.4 0 1 0-.754.266l.754-.265Zm-2.87 6.283a.4.4 0 0 0 .757-.26l-.756.26Zm-.523-3.978a.4.4 0 0 0-.756.26l.756-.26Zm-2.814 6.59a.4.4 0 1 0 .441-.667l-.44.667Zm-2.93-2.413.221-.334a.4.4 0 0 0-.244-.066l.024.4Zm-4.23.255-.382-.12a.4.4 0 0 0 .406.52l-.024-.4Zm2.643-7.113a.4.4 0 1 0-.764-.239l.764.239Zm1.383 6.717a.4.4 0 0 0 .771.21l-.771-.21Zm1.935-4.053a.4.4 0 0 0-.771-.21l.771.21Zm7.85-6.197a6.065 6.065 0 0 1-6.066 6.065v.8a6.865 6.865 0 0 0 6.865-6.865h-.8Zm-6.066 6.065a6.065 6.065 0 0 1-6.065-6.065h-.8a6.865 6.865 0 0 0 6.865 6.865v-.8Zm-6.065-6.065a6.065 6.065 0 0 1 6.065-6.065v-.8a6.865 6.865 0 0 0-6.865 6.865h.8Zm6.065-6.065a6.065 6.065 0 0 1 6.065 6.065h.8a6.865 6.865 0 0 0-6.865-6.865v.8Zm-2.18 6.065a.01.01 0 0 1 .01-.01v.8a.79.79 0 0 0 .79-.79h-.8Zm.01-.01a.01.01 0 0 1 .01.01h-.8c0 .436.354.79.79.79v-.8Zm.01.01a.01.01 0 0 1-.01.01v-.8a.79.79 0 0 0-.79.79h.8Zm-.01.01a.01.01 0 0 1-.01-.01h.8a.79.79 0 0 0-.79-.79v.8Zm2.126-.01a.01.01 0 0 1 .01-.01v.8a.79.79 0 0 0 .79-.79h-.8Zm.01-.01a.01.01 0 0 1 .01.01h-.8c0 .436.354.79.79.79v-.8Zm.01.01a.01.01 0 0 1-.01.01v-.8a.79.79 0 0 0-.79.79h.8Zm-.01.01a.01.01 0 0 1-.01-.01h.8a.79.79 0 0 0-.79-.79v.8Zm2.125-.01a.01.01 0 0 1 .01-.01v.8a.79.79 0 0 0 .79-.79h-.8Zm.01-.01a.01.01 0 0 1 .01.01h-.8c0 .436.354.79.79.79v-.8Zm.01.01a.01.01 0 0 1-.01.01v-.8a.79.79 0 0 0-.79.79h.8Zm-.01.01a.01.01 0 0 1-.01-.01h.8a.79.79 0 0 0-.79-.79v.8Zm-2.165 12.803 3.536-2.335-.441-.668-3.536 2.335.441.668Zm3.291-2.27 4.23.255.049-.798-4.23-.255-.049.798Zm4.632-.277-2.237-6.357-.754.266 2.236 6.357.755-.266Zm-4.35-.334-1.28-3.718-.756.26 1.28 3.718.756-.26Zm-3.653 2.205-3.15-2.08-.44.668 3.15 2.08.44-.668Zm-3.394-2.145-4.23.255.047.798 4.23-.255-.047-.799Zm-3.825.773 2.26-7.232-.763-.239-2.26 7.233.763.238Zm4.415-.305 1.164-4.263-.771-.21-1.165 4.263.772.21Z" fill="var(--color--bulma-100)"/>
</symbol>
</svg>
  