
<svg width="1em" height="1em"    viewBox="0 0 32 32" fill="none" xmlns="http://www.w3.org/2000/svg">
<symbol id="item"
width="1em"
height="1em"
viewBox="0 0 32 32"
fill="none"
>
<path d="m13.115 22.204.823-2.13a.915.915 0 0 0-.043-.702l-2.446-4.916a2.04 2.04 0 0 1 .955-2.758l5.515-2.632m2.517 2.898.874 1.893c.088.183.249.331.439.398l1.872.66c.529.185.81.772.624 1.301-.187.53-.773.81-1.302.624l-2.808-.988a.786.786 0 0 1-.44-.399l-1.22-2.594-3.31 1.61a.513.513 0 0 0-.235.71l1.673 3.302a.873.873 0 0 1 .056.706l-1.358 3.891m-8.558-2.69 15.374 5.01c.42.148.895.055 1.205-.262.31-.318.496-.847.001-1.692m-1.367-6.914L8.962 11.712m14.227-3.938a1.912 1.912 0 1 1-3.449 1.654 1.912 1.912 0 0 1 3.45-1.654Z" stroke="var(--color--bulma-100)" stroke-width=".8" stroke-miterlimit="10" stroke-linecap="round" stroke-linejoin="round"/>
</symbol>
</svg>
  