
<svg width="1em" height="1em"    viewBox="0 0 32 32" fill="none" xmlns="http://www.w3.org/2000/svg">
<symbol id="item"
width="1em"
height="1em"
viewBox="0 0 32 32"
fill="none"
>
<path d="m25.12 17.08-.294.27.002.002.293-.273Zm-2.5-2.486-.256.308.256-.308Zm-1.994-2.467.339-.213-.007-.01-.332.223ZM18.702 9.91l.265-.3-.005-.004-.26.304Zm-1.15-.678-.398.03a.4.4 0 0 0 .233.334l.165-.364Zm-.485-1.249-.099.388.01.002.09-.39Zm-1.7-.221-.156.368.028.01.128-.379Zm-1.144-.38-.086-.391h-.004l.09.39Zm-1.982 1.854-.303-.261a.4.4 0 0 0 .215.65l.088-.39Zm1.075.244.152.37a.4.4 0 0 0-.063-.76l-.089.39Zm-2.956 1.367.156.368a.394.394 0 0 0 .059-.03l-.215-.338Zm-4.168 2.714a.4.4 0 0 0 .583.547l-.583-.547Zm2.819 9.896a.4.4 0 1 0 .71.368l-.71-.367Zm2.197-3.075-.324-.235.324.235Zm3.267-4.26.2.345.006-.003-.206-.343Zm3.373.326.06-.396-.012-.002-.048.398Zm3.081 1.905.135-.377-.135.377Zm3.7.323-.093-.389-.005.001.098.388Zm.926-.864.399-.034a.305.305 0 0 0-.003-.024l-.396.058ZM9.14 12.131a.4.4 0 1 0-.773-.205l.773.205Zm1.708 9.054a.4.4 0 1 0-.058-.798l.058.798Zm14.274-4.106.294-.27-.001-.002-.004-.004-.014-.015-.053-.057a58.4 58.4 0 0 0-.848-.893c-.512-.527-1.151-1.163-1.62-1.552l-.51.616c.431.358 1.043.965 1.556 1.493a57.39 57.39 0 0 1 .836.88l.052.056.013.015.003.003.001.001.295-.27Zm-2.246-2.793c-.844-.7-1.539-1.783-1.91-2.372l-.677.427c.364.577 1.12 1.767 2.076 2.56l.511-.615Zm-1.917-2.383c-.213-.315-.616-.804-1.002-1.245-.385-.439-.782-.864-.989-1.047l-.53.598c.163.146.53.536.917.976.384.44.758.896.94 1.166l.664-.448Zm-1.996-2.297c-.227-.195-.547-.381-.79-.511a9.2 9.2 0 0 0-.443-.222l-.008-.004h-.002v-.001l-.167.364-.165.364.006.003.023.01a6.439 6.439 0 0 1 .378.19c.236.127.49.28.647.415l.521-.608Zm-1.41-.374.4-.03V9.2l-.001-.003-.001-.012a2.802 2.802 0 0 0-.02-.187 4.496 4.496 0 0 0-.081-.449 2.244 2.244 0 0 0-.184-.52c-.078-.148-.232-.373-.509-.436l-.178.78c-.076-.018-.07-.064-.02.03.041.079.08.194.113.33a3.644 3.644 0 0 1 .079.488l.003.032v.008l.4-.03Zm-.386-1.637c-.255-.065-.627-.089-.93-.112-.34-.027-.602-.053-.741-.1l-.256.758c.255.086.631.116.935.14.343.026.624.046.795.09l.197-.776Zm-1.644-.202a1.533 1.533 0 0 1-.176-.098c-.078-.048-.18-.112-.293-.168-.231-.114-.544-.219-.916-.136l.173.78c.123-.026.24 0 .386.073.077.037.149.082.234.134.077.047.178.109.281.152l.311-.737Zm-1.389-.401c-.133.03-.258.104-.355.169-.106.07-.217.159-.328.254-.222.19-.464.429-.685.657a23.13 23.13 0 0 0-.809.882l-.013.015-.003.004-.001.001.302.262.303.26h.001l.003-.004.012-.014a9.69 9.69 0 0 1 .221-.25c.146-.162.345-.38.558-.6.215-.22.438-.44.633-.607a2.76 2.76 0 0 1 .25-.196c.078-.051.105-.057.092-.054l-.18-.78Zm-1.98 2.634 1.074.244.178-.78-1.075-.244-.177.78Zm1.163-.146-.151-.37h-.002a.482.482 0 0 0-.005.003l-.02.008a64.081 64.081 0 0 0-1.202.511c-.645.284-1.415.638-1.791.878l.43.675c.314-.2 1.022-.53 1.683-.82a59.098 59.098 0 0 1 1.185-.505l.019-.007.004-.002h.001l-.15-.371Zm-3.113.999c-1.63.694-3.282 2.304-4.011 3.082l.583.547c.727-.775 2.279-2.27 3.741-2.893l-.313-.736Zm-.481 13.346c.491-.951 1.117-2.25 1.81-3.209l-.648-.468c-.738 1.02-1.4 2.396-1.873 3.31l.71.367Zm1.81-3.208c.198-.274.464-.657.757-1.076.294-.422.618-.884.936-1.324.319-.44.628-.852.894-1.174.133-.161.252-.296.353-.398.107-.108.174-.16.204-.178l-.402-.692a1.906 1.906 0 0 0-.372.309c-.123.125-.258.279-.4.45a25.2 25.2 0 0 0-.925 1.214c-.323.446-.65.913-.944 1.335-.296.424-.556.798-.749 1.064l.648.47Zm3.149-4.153c.05-.03.202-.068.502-.06.277.008.609.05.952.11.34.059.68.131.972.194.279.06.54.118.693.137l.096-.794c-.105-.013-.316-.06-.62-.125a24.381 24.381 0 0 0-1.005-.2 7.708 7.708 0 0 0-1.067-.121c-.31-.009-.672.015-.935.173l.412.686Zm3.108.38c-.001-.001.037.008.13.054.085.043.19.104.313.182.247.155.54.36.85.58.305.215.626.442.916.632.28.183.567.355.796.437l.27-.753c-.13-.046-.344-.168-.628-.354-.275-.18-.583-.398-.893-.616a22.238 22.238 0 0 0-.884-.603 4.634 4.634 0 0 0-.38-.22 1.287 1.287 0 0 0-.372-.131l-.118.791Zm3.005 1.885c.222.08.555.142.907.192.362.052.775.094 1.175.125.4.03.79.05 1.108.056.159.003.302.003.421-.002.11-.004.229-.013.32-.036l-.194-.776a2.055 2.055 0 0 1-.157.012 6.916 6.916 0 0 1-.375.002 19.01 19.01 0 0 1-1.062-.054c-.388-.03-.783-.07-1.123-.119-.35-.05-.612-.103-.75-.153l-.27.753Zm3.927.337c.288-.069.585-.265.798-.46a1.77 1.77 0 0 0 .294-.343.795.795 0 0 0 .14-.485l-.796.069c-.006-.064.02-.075-.019-.013a.98.98 0 0 1-.16.183c-.158.145-.336.245-.442.27l.185.779Zm1.23-1.312c-.038-.262-.2-.513-.305-.66a3.25 3.25 0 0 0-.21-.263l-.016-.017-.005-.005-.001-.002h-.001l-.292.272-.293.273.002.002.01.01.037.044c.032.038.075.09.119.152.1.14.155.255.164.31l.791-.116ZM8.366 11.926c-.435 1.648-.63 3.944-.35 5.818.138.934.4 1.805.843 2.44.456.653 1.116 1.064 1.988 1l-.058-.797c-.538.039-.946-.193-1.274-.662-.34-.488-.578-1.218-.708-2.099-.261-1.754-.078-3.94.332-5.495l-.773-.205Zm8.286.456a.7.7 0 0 0 .7.7v-.8a.1.1 0 0 1 .1.1h-.8Zm.7.7a.7.7 0 0 0 .7-.7h-.8a.1.1 0 0 1 .1-.1v.8Zm.7-.7a.7.7 0 0 0-.7-.7v.8a.1.1 0 0 1-.1-.1h.8Zm-.7-.7a.7.7 0 0 0-.7.7h.8a.1.1 0 0 1-.1.1v-.8Z" fill="var(--color--bulma-100)"/>
</symbol>
</svg>
  