
<svg width="1em" height="1em"    viewBox="0 0 32 32" fill="none" xmlns="http://www.w3.org/2000/svg">
<symbol id="item"
width="1em"
height="1em"
viewBox="0 0 32 32"
fill="none"
>
<path d="m13.21 14.31 2.596-1.496m-2.597 1.496v2.978m0-2.978-2.582-1.496m5.179 0 2.582 1.496m-2.582-1.496V9.822m2.582 4.488v2.978m0-2.978 2.583-1.496m-2.583 4.474-2.582 1.496m2.582-1.496 2.583 1.496m-5.165 0-2.597-1.496m2.597 1.496v2.991m-2.597-4.487-2.582 1.496m-.819-9.427.819.465v2.992m0 0L8.03 14.31l-.804-.48m0 3.938.804-.48 2.597 1.496m0 0v2.991l-.819.48m3.401 1.962v-.946l2.597-1.496m0 0 2.582 1.496v.946m3.401-1.976-.818-.466v-2.991m0 0 2.596-1.496.819.48m-.014-3.938-.804.48-2.597-1.496m0 0V9.823l.819-.466m-3.401-1.962v.931l-2.583 1.496m0 0-2.597-1.495V7.38M8.095 25.109H27m-2.388-9.303a8.806 8.806 0 1 1-17.612 0 8.806 8.806 0 0 1 17.612 0Z" stroke="var(--color--bulma-100)" stroke-width=".8" stroke-linecap="round"/>
</symbol>
</svg>
  