
<svg width="1em" height="1em"    viewBox="0 0 32 32" fill="none" xmlns="http://www.w3.org/2000/svg">
<symbol id="item"
width="1em"
height="1em"
viewBox="0 0 32 32"
fill="none"
>
<path d="M13.718 15.001a.4.4 0 0 0-.8-.027l.8.027Zm.708 2.085a.4.4 0 1 0 .154-.785l-.154.785Zm-5.81-6.153a.4.4 0 0 0 0 .8v-.8Zm5.45.8a.4.4 0 1 0 0-.8v.8Zm-5.45.64a.4.4 0 0 0 0 .8v-.8Zm5.45.8a.4.4 0 0 0 0-.8v.8Zm13.747-1.052-.003.4h.003v-.4Zm-1.874-.013h-.4v.397l.397.003.003-.4Zm-2.032-.654h-.4v.4h.4v-.4Zm-.774-1.113-.338-.213-.387.613h.725v-.4Zm.175-.762-.397.048v.005l.397-.053Zm-1.048-.992-.04.398h.004l.036-.398Zm-1.135 1.754v.4h.718l-.377-.61-.34.21Zm-2.252 0-.4.032.03.368h.37v-.4Zm-2.387-1.095h-.4v.4h.4v-.4Zm-1.509-.012v.4h.4v-.4h-.4Zm-9.129 1.519v.4h.4v-.4h-.4Zm1.172 2.782h.4v-.4h-.4v.4Zm0 6.334.4.014v-.014h-.4Zm1.123 1.779-.17.362.002.001.168-.363Zm.848.181h.4v-.4h-.4v.4Zm2.78 0v-.4h-.4v.4h.4Zm.475-6.975v-.4h-.4v.4h.4Zm7.04 0h.4v-.4h-.4v.4Zm0 8.216h-.4v.4h.4v-.4Zm2.176-8.421v-.4h-.4v.4h.4Zm2.445-.775v-.4h-.4v.4h.4Zm2.032-.617.003-.4-.403-.003v.403h.4Zm1.874.013-.003.4h.003v-.4ZM6.868 17.3a.4.4 0 1 0 .578.553l-.578-.553Zm2.524-1.48a.4.4 0 0 0-.578-.553l.578.553Zm9.49-.954a.4.4 0 0 0 .8 0h-.8Zm.8-1.935a.4.4 0 0 0-.8 0h.8Zm-7.436 5.626h1.883v-.8h-1.883v.8Zm1.883 0c1.294 0 2.358-1.014 2.358-2.3h-.8c0 .821-.683 1.5-1.558 1.5v.8Zm2.358-2.3v-1.39h-.8v1.39h.8Zm-3.169-1.27-.4-.013V14.984a.83.83 0 0 0 0 .078 2.692 2.692 0 0 0 .152.823c.172.479.555 1.045 1.356 1.202l.154-.785c-.433-.085-.643-.372-.756-.686a1.897 1.897 0 0 1-.106-.575V15l-.4-.013Zm-4.701-3.254h5.45v-.8h-5.45v.8Zm0 1.44h5.45v-.8h-5.45v.8Zm19.783-.87a.589.589 0 0 0-.587-.582v.8a.21.21 0 0 1-.213-.219h.8Zm-.584-.582-1.874-.013-.006.8 1.874.013.006-.8Zm-1.477.387v-.037h-.8v.037h.8Zm0-.037a1.03 1.03 0 0 0-1.036-1.017v.8c.14 0 .236.11.236.217h.8Zm-1.036-1.017h-1.396v.8h1.396v-.8Zm-.997.4v-.496h-.8v.496h.8Zm0-.496a1.03 1.03 0 0 0-1.036-1.017v.8c.14 0 .236.11.236.217h.8ZM23.27 9.941h-.137v.8h.137v-.8Zm.202.613c.18-.285.284-.644.232-1.028l-.793.106a.744.744 0 0 1-.116.496l.677.426Zm.233-1.023c-.086-.716-.693-1.278-1.409-1.343l-.072.797c.357.032.648.318.687.642l.794-.096ZM22.301 8.19c-.93-.095-1.763.603-1.763 1.535h.8c0-.423.389-.79.882-.74l.08-.795Zm-1.763 1.535c0 .32.105.598.247.828l.68-.421a.765.765 0 0 1-.127-.407h-.8Zm.587.217h-2.252v.8h2.252v-.8Zm-1.854.369c-.041-.525-.242-.904-.53-1.147a1.344 1.344 0 0 0-.858-.317v.8c.096 0 .23.033.342.127.102.087.222.256.249.6l.797-.063Zm-1.388-1.464h-1.397v.8h1.397v-.8Zm-.997.4v-.81h-.8v.81h.8Zm0-.81a.84.84 0 0 0-.849-.836v.8c.02 0 .032.007.04.014.007.007.009.014.009.022h.8Zm-.849-.836h-.611v.8h.611v-.8Zm-.611 0a.84.84 0 0 0-.849.836h.8c0-.008.002-.015.01-.022a.055.055 0 0 1 .039-.014v-.8Zm-.849.836v.798h.8v-.798h-.8Zm.4.398h-8.68v.8h8.68v-.8Zm-8.68 0a.84.84 0 0 0-.849.836h.8c0-.008.003-.015.01-.022a.055.055 0 0 1 .039-.014v-.8Zm-.849.836v1.083h.8V9.67h-.8Zm.4.683h-.412v.8h.412v-.8Zm-.412 0a.835.835 0 0 0-.836.823h.8c0 .003-.001-.002.008-.01a.042.042 0 0 1 .028-.013v-.8Zm-.836.823v1.392h.8v-1.392h-.8Zm0 1.392c0 .764.64 1.367 1.398 1.367v-.8a.586.586 0 0 1-.598-.567h-.8Zm1.398 1.367H7.02v-.8H5.998v.8Zm.623 5.92c-.031.904.488 1.75 1.352 2.155l.34-.724c-.584-.273-.912-.83-.893-1.403l-.8-.027Zm1.354 2.156a2.41 2.41 0 0 0 1.016.219v-.8a1.61 1.61 0 0 1-.68-.145l-.336.726Zm.616 2.378c0 .413.353.738.749.738v-.8c.02 0 .03.008.034.012.004.004.017.02.017.05h-.8Zm.749.738h2.07v-.8H9.34v.8Zm2.07 0a.757.757 0 0 0 .762-.75h-.8c0-.018.008-.032.015-.04a.034.034 0 0 1 .023-.01v.8Zm.762-.75V21.83h-.8v2.546h.8Zm-.4-2.147a.867.867 0 0 0 .874-.86h-.8c0 .022-.022.06-.074.06v.8Zm.874-.86v-6.516h-.8v6.516h.8Zm-.4-6.116h7.04v-.8h-7.04v.8Zm6.64-.4v8.216h.8v-8.216h-.8Zm.4 8.616c.518 0 1.135-.198 1.623-.505.471-.295.953-.777.953-1.408h-.8c0 .205-.175.478-.578.73-.384.242-.855.383-1.198.383v.8Zm2.576-1.913V14.65h-.8v6.908h.8Zm-.4-6.508h1.646v-.8h-1.646v.8Zm1.646 0c.646 0 1.198-.52 1.198-1.175h-.8c0 .191-.17.375-.398.375v.8Zm2.195-.775a1.03 1.03 0 0 0 1.036-1.017h-.8c0 .107-.096.217-.236.217v.8Zm.633-.617 1.874.013.006-.8-1.874-.013-.006.8Zm1.877.013c.31 0 .587-.252.587-.581h-.8a.21.21 0 0 1 .213-.219v.8Zm.587-.581v-.787h-.8v.787h.8ZM7.446 17.853l1.946-2.033-.578-.553L6.868 17.3l.578.553Zm12.235-2.987v-1.935h-.8v1.935h.8Zm-13.06-1.33v6.333h.8v-6.334h-.8Zm1.97 8.293v2.56h.8v-2.56h-.8Zm15.316-7.555h1.396v-.8h-1.396v.8Z" fill="var(--color--bulma-100)"/>
</symbol>
</svg>
  