
<svg width="1em" height="1em"    viewBox="0 0 32 32" fill="none" xmlns="http://www.w3.org/2000/svg">
<symbol id="item"
width="1em"
height="1em"
viewBox="0 0 32 32"
fill="none"
>
<path d="m14.222 22.221 2 3.221L18 22.222m2.843-11.243a1.255 1.255 0 0 0-1.613.112c-.448.448-.493 1.143-.112 1.613M17.55 14.25a1.255 1.255 0 0 0-1.613.112c-.448.448-.493 1.142-.112 1.613m-1.546 1.568a1.255 1.255 0 0 0-1.613.112c-.448.448-.492 1.142-.112 1.613m.926-9.089a1.255 1.255 0 0 0-1.613.112c-.448.448-.493 1.143-.112 1.613m1.384 2.252a1.255 1.255 0 0 0-1.613.112c-.448.449-.492 1.143-.112 1.614m3.92-3.92a1.255 1.255 0 0 1 .113-1.614c.448-.448 1.142-.493 1.613-.112m-.9-3.63a7.84 7.84 0 1 1-.32 15.678 7.84 7.84 0 0 1 .32-15.679Z" stroke="var(--color--bulma-100)" stroke-width=".8" stroke-miterlimit="10" stroke-linecap="round" stroke-linejoin="round"/>
</symbol>
</svg>
  