
<svg width="1em" height="1em"    viewBox="0 0 32 32" fill="none" xmlns="http://www.w3.org/2000/svg">
<symbol id="item"
width="1em"
height="1em"
viewBox="0 0 32 32"
fill="none"
>
<path d="M16.622 13.539a.44.44 0 0 0-.75-.46l.75.46Zm-.92 3.977.421-.128-.003-.008-.418.136Zm2.966 3.155-.168.406h.001l.167-.406Zm2.086 1.569.376-.229a.43.43 0 0 0-.015-.024l-.36.253Zm.377.619-.376.228.376-.228Zm.625 1.675-.414.15a.44.44 0 0 0 .13.187l.284-.337Zm1.05.882-.282.337a.44.44 0 0 0 .457.067l-.174-.404Zm2.717-1.174.175.404a.44.44 0 0 0 .265-.417l-.44.013ZM23.716 9.44a.44.44 0 0 0-.852.217l.852-.217Zm-2.888 5.108-.282.337.282-.337Zm.895-1.066-.283.337.283-.337Zm.239 7.775a.44.44 0 0 0-.159-.865l.159.865Zm-3.891-1.35a.44.44 0 1 0-.437.765l.437-.764Zm-1.738 6.447a.44.44 0 1 0 .779-.41l-.779.41Zm.726-6.427a.44.44 0 1 0-.674-.565l.674.565Zm5.875-10.709a.44.44 0 0 0 .692.543l-.692-.543Zm2.136-2.013.347.27a.44.44 0 0 0-.064-.607l-.283.337ZM9.27 11.09l.338.283-.337-.283Zm-3.575 6.806a.44.44 0 1 0 .869.138l-.869-.138ZM24.898 7.06l.283-.337-.283.337Zm-.95-.52.121-.422-.122.422Zm-6.397.297a.44.44 0 0 0-.868.139l.868-.14Zm1.33 13.884a.44.44 0 1 0 .87-.14l-.87.14ZM7.969 13.783a.44.44 0 1 0-.871.124l.87-.124Zm7.488 8.926a.44.44 0 0 0 .202-.856l-.202.856Zm.416-9.63c-.875 1.426-1.063 3.114-.588 4.573l.836-.272c-.393-1.207-.242-2.628.502-3.841l-.75-.46Zm-.59 4.565c.486 1.604 1.692 2.804 3.218 3.433l.335-.813c-1.313-.541-2.31-1.554-2.712-2.876l-.842.256Zm3.22 3.434c.791.324 1.438.767 1.892 1.415l.72-.506c-.578-.824-1.383-1.357-2.28-1.723l-.333.814Zm1.877 1.39.376.62.752-.458-.377-.619-.751.458Zm.376.62c.165.27.244.479.314.708.068.222.143.527.273.888l.827-.3c-.122-.336-.171-.558-.258-.845a3.74 3.74 0 0 0-.404-.909l-.752.457Zm.718 1.783 1.051.882.565-.674-1.05-.882-.566.674Zm1.508.949 2.716-1.174-.348-.807-2.717 1.173.35.808Zm2.982-1.59c-.154-5.198-.951-9.689-2.247-14.79l-.852.217c1.285 5.06 2.068 9.484 2.22 14.598l.879-.026Zm-5.418-9.345c.481.403 1.198.341 1.601-.14l-.674-.565a.257.257 0 0 1-.361.031l-.566.674Zm1.601-.14c.404-.48.34-1.197-.14-1.6l-.566.674a.257.257 0 0 1 .032.361l.674.566Zm-.14-1.6a1.136 1.136 0 0 0-1.601.14l.674.565a.257.257 0 0 1 .361-.031l.566-.674Zm-1.601.14c-.404.48-.34 1.197.14 1.6l.566-.674a.257.257 0 0 1-.032-.361l-.674-.566Zm1.398 7.107c-1.407.257-2.713.098-3.732-.484l-.437.764c1.242.709 2.772.87 4.328.585l-.159-.865Zm-4.691 5.553c-.692-1.315-1.006-2.46-1-3.45a3.912 3.912 0 0 1 .947-2.568l-.674-.565a4.79 4.79 0 0 0-1.152 3.128c-.008 1.178.365 2.467 1.1 3.864l.779-.41ZM23.626 9.76l1.79-2.285-.692-.543-1.79 2.285.692.543Zm1.727-2.893-.172-.145-.566.674.173.144.565-.673Zm-1.284-.75c-5.31-1.535-11.301.12-15.135 4.69l.674.565c3.606-4.298 9.236-5.85 14.217-4.41l.244-.845Zm-15.135 4.69a14.59 14.59 0 0 0-3.239 7.088l.869.138a13.71 13.71 0 0 1 3.044-6.661l-.674-.566ZM25.18 6.722a3.059 3.059 0 0 0-1.112-.605l-.244.845c.283.082.55.233.79.434l.566-.674Zm-8.498.253 2.199 13.745.868-.14-2.199-13.744-.868.139Zm-9.586 6.931c.29 2.034 1.381 3.997 2.884 5.562 1.502 1.566 3.443 2.762 5.475 3.24l.202-.856c-1.843-.434-3.64-1.531-5.043-2.993-1.404-1.463-2.388-3.263-2.647-5.077l-.871.124Z" fill="var(--color--bulma-100)"/>
</symbol>
</svg>
  