<?xml version="1.0" encoding="utf-8"?>
<!-- Generator: Adobe Illustrator 21.1.0, SVG Export Plug-In . SVG Version: 6.00 Build 0)  -->
<svg version="1.1" id="Layer_1" xmlns="http://www.w3.org/2000/svg" xmlns:xlink="http://www.w3.org/1999/xlink" x="0px" y="0px"
	 viewBox="310 200 1300 680" style="enable-background:new 0 0 1920 1080;" xml:space="preserve">
<style type="text/css">
	.st0{fill:#FFFFFF;}
	.st1{fill:url(#SVGID_1_);}
	.st2{fill:#F7DD00;}
	.st3{fill:#F44545;}
	.st4{fill:#31B5FF;}
	.st5{fill:#3B60B8;}
	.st6{fill:#DB0000;}
	.st7{fill:#0084FC;}
	.st8{fill:#863361;}
	.st9{fill:#9E2546;}
	.st10{fill:#FF9B03;}
	.st11{fill:#FD9203;}
	.st12{fill:#FFB002;}
	.st13{fill:#F36802;}
	.st14{fill:#E57C07;}
</style>
<g>
	<g>
		<g>
			<path class="st0" d="M755.8,644.2l-3.6,2.8c-2-2.6-4.4-4.5-7.2-5.9c-2.8-1.3-5.8-2-9.2-2c-3.6,0-7,0.9-10.1,2.6
				c-3.1,1.7-5.5,4.1-7.2,7s-2.6,6.3-2.6,9.9c0,5.6,1.9,10.2,5.7,13.9s8.6,5.6,14.4,5.6c6.4,0,11.7-2.5,16-7.5l3.6,2.7
				c-2.3,2.9-5.1,5.1-8.5,6.7c-3.4,1.6-7.2,2.4-11.4,2.4c-8,0-14.3-2.7-18.9-8c-3.9-4.5-5.8-9.9-5.8-16.3c0-6.7,2.3-12.3,7-16.9
				c4.7-4.6,10.6-6.8,17.6-6.8c4.3,0,8.1,0.8,11.5,2.5C750.8,638.8,753.6,641.1,755.8,644.2z"/>
			<path class="st0" d="M735.9,683.7c-8.3,0-15-2.8-19.8-8.4c-4-4.7-6.1-10.4-6.1-17c0-7,2.5-12.9,7.4-17.7s11.1-7.2,18.4-7.2
				c4.4,0,8.5,0.9,12.1,2.7s6.6,4.3,8.9,7.5l0.7,0.9l-5.5,4.2l-0.7-0.9c-1.9-2.4-4.1-4.3-6.7-5.5c-2.6-1.3-5.5-1.9-8.7-1.9
				c-3.4,0-6.6,0.8-9.5,2.5c-2.9,1.6-5.2,3.9-6.8,6.6c-1.6,2.8-2.4,5.9-2.4,9.4c0,5.3,1.8,9.6,5.4,13.1c3.6,3.5,8.2,5.3,13.6,5.3
				c6.1,0,11-2.3,15.1-7.1l0.7-0.8l5.5,4.1l-0.7,1c-2.4,3-5.4,5.4-9,7.1C744.3,682.8,740.3,683.7,735.9,683.7z M735.8,635.7
				c-6.7,0-12.4,2.2-16.8,6.5c-4.4,4.3-6.7,9.7-6.7,16c0,6,1.9,11.2,5.5,15.5c4.4,5,10.4,7.6,18,7.6c4,0,7.7-0.8,10.9-2.3
				c2.8-1.3,5.3-3.1,7.3-5.4l-1.7-1.3c-4.4,4.7-9.8,7.1-16.2,7.1c-6.1,0-11.3-2-15.3-5.9s-6.1-8.9-6.1-14.8c0-3.9,0.9-7.4,2.7-10.5
				s4.4-5.6,7.7-7.5c3.3-1.8,6.9-2.8,10.7-2.8c3.5,0,6.8,0.7,9.7,2.1c2.6,1.2,4.9,3,6.8,5.3l1.7-1.3c-2-2.4-4.4-4.4-7.3-5.8
				C743.6,636.5,739.9,635.7,735.8,635.7z"/>
		</g>
		<g>
			<path class="st0" d="M793.2,634.5c6.9,0,12.7,2.3,17.4,6.9c4.7,4.6,7,10.3,7,17s-2.3,12.4-7,17c-4.6,4.7-10.3,7-17,7
				c-6.8,0-12.5-2.3-17.1-7c-4.7-4.6-7-10.2-7-16.8c0-4.4,1.1-8.5,3.2-12.2c2.1-3.7,5-6.7,8.7-8.8
				C785,635.6,788.9,634.5,793.2,634.5z M793.4,639c-3.4,0-6.6,0.9-9.6,2.6c-3,1.8-5.4,4.1-7.1,7.1c-1.7,3-2.5,6.3-2.5,10
				c0,5.4,1.9,10,5.6,13.7c3.8,3.7,8.3,5.6,13.6,5.6c3.5,0,6.8-0.9,9.8-2.6c3-1.7,5.4-4.1,7.1-7.1c1.7-3,2.5-6.3,2.5-9.9
				c0-3.6-0.8-6.9-2.5-9.8c-1.7-2.9-4.1-5.3-7.1-7C800.1,639.9,796.8,639,793.4,639z"/>
			<path class="st0" d="M793.6,683.7c-7.1,0-13.1-2.5-18-7.3s-7.3-10.8-7.3-17.7c0-4.6,1.1-8.9,3.3-12.8c2.2-3.9,5.3-7,9.1-9.2
				s8-3.3,12.5-3.3c7.2,0,13.3,2.4,18.2,7.3c4.9,4.8,7.3,10.8,7.3,17.9c0,7-2.5,13-7.3,17.9C806.5,681.2,800.5,683.7,793.6,683.7z
				 M793.2,635.7c-4,0-7.8,1-11.3,3s-6.2,4.8-8.2,8.4c-2,3.5-3,7.5-3,11.6c0,6.2,2.2,11.6,6.6,16c4.4,4.4,9.9,6.6,16.3,6.6
				c6.3,0,11.8-2.2,16.2-6.6c4.4-4.4,6.6-9.8,6.6-16.2s-2.2-11.8-6.6-16.2C805.3,637.9,799.7,635.7,793.2,635.7z M793.4,679.2
				c-5.6,0-10.5-2-14.4-6c-4-4-6-8.9-6-14.6c0-3.9,0.9-7.4,2.7-10.6c1.8-3.2,4.3-5.7,7.5-7.6c3.2-1.9,6.6-2.8,10.2-2.8
				c3.6,0,7.1,0.9,10.4,2.8c3.2,1.9,5.8,4.4,7.6,7.5s2.7,6.6,2.7,10.4c0,3.8-0.9,7.4-2.7,10.5c-1.8,3.2-4.3,5.7-7.5,7.5
				C800.6,678.3,797.1,679.2,793.4,679.2z M793.4,640.2c-3.1,0-6.2,0.8-9,2.5c-2.8,1.6-5.1,3.9-6.7,6.7c-1.6,2.8-2.4,5.9-2.4,9.4
				c0,5.1,1.7,9.4,5.3,12.9s7.7,5.3,12.8,5.3c3.3,0,6.4-0.8,9.3-2.4c2.8-1.6,5-3.8,6.6-6.6s2.4-5.9,2.4-9.4c0-3.4-0.8-6.5-2.4-9.2
				c-1.6-2.7-3.8-5-6.7-6.6C799.7,641,796.6,640.2,793.4,640.2z"/>
		</g>
		<g>
			<path class="st0" d="M832.5,635.7h4.6v45.7h-4.6V635.7z"/>
			<path class="st0" d="M838.3,682.5h-6.9v-48h6.9V682.5z M833.7,680.2h2.2v-43.3h-2.2V680.2z"/>
		</g>
		<g>
			<path class="st0" d="M854,681.3v-45.7h1l30.4,35v-35h4.5v45.7h-1l-30.1-34.6v34.6H854z"/>
			<path class="st0" d="M891.1,682.5h-2.8l-28.4-32.6v32.6h-7.1v-48h2.7l28.7,33v-33h6.9L891.1,682.5L891.1,682.5z M855.2,680.2h2.3
				v-36.6l31.2,35.8v-42.5h-2.1v37l-31.4-36.1V680.2z"/>
		</g>
		<g>
			<path class="st0" d="M951.5,643.4l-3.5,3.4c-2.5-2.5-5.3-4.4-8.4-5.7c-3-1.3-6-1.9-8.9-1.9c-3.6,0-7,0.9-10.2,2.6
				c-3.2,1.8-5.7,4.1-7.5,7.2c-1.8,3-2.7,6.2-2.7,9.5c0,3.4,0.9,6.7,2.8,9.8c1.8,3.1,4.4,5.5,7.6,7.3c3.2,1.8,6.8,2.7,10.7,2.7
				c4.7,0,8.7-1.3,11.9-4c3.2-2.6,5.2-6.1,5.8-10.3h-14.6v-4.4h19.7c0,7.1-2.1,12.7-6.3,16.8c-4.1,4.1-9.7,6.2-16.7,6.2
				c-8.4,0-15.1-2.9-20.1-8.6c-3.8-4.4-5.7-9.5-5.7-15.4c0-4.3,1.1-8.3,3.3-12.1c2.2-3.7,5.2-6.6,8.9-8.7c3.8-2.1,8.1-3.2,12.9-3.2
				c3.9,0,7.5,0.7,10.9,2.1C944.9,638,948.3,640.3,951.5,643.4z"/>
			<path class="st0" d="M931.3,683.7c-8.8,0-15.8-3-21-9c-4-4.6-6-10.1-6-16.1c0-4.5,1.2-8.8,3.4-12.7c2.3-3.9,5.4-7,9.4-9.2
				c3.9-2.2,8.5-3.3,13.4-3.3c4,0,7.8,0.7,11.4,2.2c3.5,1.4,7,3.8,10.4,7l0.9,0.9l-5.3,5l-0.8-0.8c-2.4-2.4-5.1-4.2-8-5.5
				c-6.4-2.7-12.6-2.3-18.1,0.7c-3,1.6-5.4,3.9-7.1,6.7c-1.7,2.8-2.5,5.8-2.5,8.9c0,3.2,0.9,6.3,2.6,9.2c1.7,2.9,4.1,5.2,7.2,6.9
				c3.1,1.7,6.5,2.5,10.1,2.5c4.4,0,8.2-1.2,11.2-3.7c2.7-2.2,4.4-4.9,5.1-8.2h-14.3v-6.8h22.1v1.2c0,7.3-2.3,13.3-6.6,17.6
				C944.4,681.5,938.5,683.7,931.3,683.7z M930.6,635.7c-4.6,0-8.7,1-12.3,3s-6.4,4.8-8.5,8.3s-3.1,7.4-3.1,11.5
				c0,5.5,1.8,10.4,5.4,14.6c4.7,5.5,11.1,8.2,19.1,8.2c6.6,0,11.9-2,15.8-5.9c3.7-3.7,5.7-8.6,5.9-14.8h-17.3v2h14.7l-0.2,1.4
				c-0.6,4.5-2.7,8.2-6.2,11.1c-3.5,2.8-7.7,4.2-12.7,4.2c-4.1,0-7.8-0.9-11.2-2.8c-3.4-1.9-6.1-4.5-8.1-7.7
				c-1.9-3.3-2.9-6.8-2.9-10.4c0-3.6,1-7,2.8-10.1c1.9-3.2,4.6-5.7,8-7.6c6.1-3.3,13-3.8,20.1-0.7c2.8,1.2,5.5,2.9,7.9,5.2l1.8-1.7
				c-2.8-2.5-5.8-4.4-8.7-5.6C937.8,636.4,934.3,635.7,930.6,635.7z"/>
		</g>
		<g>
			<path class="st0" d="M988,635.7l21.3,45.7h-4.9l-7.2-15h-19.7l-7.1,15h-5.1l21.6-45.7H988z M987.5,645.4l-7.8,16.5h15.6
				L987.5,645.4z"/>
			<path class="st0" d="M1011.2,682.5h-7.5l-7.2-15h-18.2l-7.1,15h-7.7l22.7-48h2.6L1011.2,682.5z M1005.1,680.2h2.3l-20-42.9
				l-20.3,42.9h2.5l7.1-15H998L1005.1,680.2z M997.1,663.1h-19.4l9.7-20.5L997.1,663.1z M981.5,660.7h11.9l-5.9-12.6L981.5,660.7z"
				/>
		</g>
		<g>
			<path class="st0" d="M1020.8,681.3l6.5-45.7h0.7l18.6,37.5l18.4-37.5h0.7l6.6,45.7h-4.5l-4.5-32.7l-16.1,32.7h-1.2l-16.3-32.9
				l-4.5,32.9H1020.8z"/>
			<path class="st0" d="M1073.7,682.5h-6.9l-4.1-29.8l-14.8,29.8h-2.6l-14.9-30.1l-4.1,30.1h-6.8l6.9-48h2.5l0.3,0.7l17.5,35.3
				l17.6-36h2.5L1073.7,682.5z M1068.9,680.2h2.1l-6-41.6l-18.3,37.3l-18.5-37.4l-6,41.7h2l4.9-35.7l17.6,35.4l17.4-35.1
				L1068.9,680.2z"/>
		</g>
		<g>
			<path class="st0" d="M1087.1,635.7h4.6v45.7h-4.6V635.7z"/>
			<path class="st0" d="M1092.8,682.5h-6.9v-48h6.9V682.5z M1088.3,680.2h2.2v-43.3h-2.2V680.2z"/>
		</g>
		<g>
			<path class="st0" d="M1108.6,681.3v-45.7h1l30.4,35v-35h4.5v45.7h-1l-30.1-34.6v34.6H1108.6z"/>
			<path class="st0" d="M1145.7,682.5h-2.8l-28.4-32.6v32.6h-7.1v-48h2.7l28.7,33v-33h6.9L1145.7,682.5L1145.7,682.5z M1109.8,680.2
				h2.3v-36.6l31.2,35.8v-42.5h-2.1v37l-31.4-36.1V680.2z"/>
		</g>
		<g>
			<path class="st0" d="M1206.1,643.4l-3.5,3.4c-2.5-2.5-5.3-4.4-8.4-5.7c-3-1.3-6-1.9-8.9-1.9c-3.6,0-7,0.9-10.2,2.6
				c-3.2,1.8-5.7,4.1-7.5,7.2c-1.8,3-2.7,6.2-2.7,9.5c0,3.4,0.9,6.7,2.8,9.8c1.8,3.1,4.4,5.5,7.6,7.3s6.8,2.7,10.7,2.7
				c4.7,0,8.7-1.3,11.9-4c3.2-2.6,5.2-6.1,5.8-10.3h-14.6v-4.4h19.7c0,7.1-2.1,12.7-6.3,16.8c-4.1,4.1-9.7,6.2-16.7,6.2
				c-8.4,0-15.1-2.9-20.1-8.6c-3.8-4.4-5.7-9.5-5.7-15.4c0-4.3,1.1-8.3,3.3-12.1c2.2-3.7,5.2-6.6,8.9-8.7c3.8-2.1,8.1-3.2,12.9-3.2
				c3.9,0,7.5,0.7,10.9,2.1C1199.5,638,1202.9,640.3,1206.1,643.4z"/>
			<path class="st0" d="M1185.9,683.7c-8.8,0-15.8-3-21-9c-4-4.6-6-10.1-6-16.1c0-4.5,1.2-8.8,3.4-12.7c2.3-3.9,5.4-7,9.4-9.2
				c3.9-2.2,8.5-3.3,13.4-3.3c4,0,7.8,0.7,11.4,2.2c3.5,1.4,7,3.8,10.4,7l0.9,0.9l-5.3,5l-0.8-0.8c-2.4-2.4-5.1-4.2-8-5.5
				c-6.4-2.7-12.6-2.3-18.1,0.7c-3,1.6-5.4,3.9-7.1,6.7s-2.5,5.8-2.5,8.9c0,3.2,0.9,6.3,2.6,9.2s4.1,5.2,7.2,6.9s6.5,2.5,10.1,2.5
				c4.4,0,8.2-1.2,11.2-3.7c2.7-2.2,4.4-4.9,5.1-8.2h-14.3v-6.8h22.1v1.2c0,7.3-2.3,13.3-6.6,17.6
				C1199,681.5,1193.1,683.7,1185.9,683.7z M1185.2,635.7c-4.6,0-8.7,1-12.3,3c-3.6,2-6.4,4.8-8.5,8.3s-3.1,7.4-3.1,11.5
				c0,5.5,1.8,10.4,5.4,14.6c4.7,5.5,11.1,8.2,19.1,8.2c6.6,0,11.9-2,15.8-5.9c3.7-3.7,5.7-8.6,5.9-14.8h-17.3v2h14.7l-0.2,1.4
				c-0.6,4.5-2.7,8.2-6.2,11.1c-3.5,2.8-7.7,4.2-12.7,4.2c-4.1,0-7.8-0.9-11.2-2.8c-3.4-1.9-6.1-4.5-8.1-7.7
				c-1.9-3.3-2.9-6.8-2.9-10.4c0-3.6,1-7,2.8-10.1c1.9-3.2,4.6-5.7,8-7.6c6.1-3.3,13-3.8,20.1-0.7c2.8,1.2,5.5,2.9,7.9,5.2l1.8-1.7
				c-2.8-2.5-5.8-4.4-8.7-5.6C1192.4,636.4,1188.9,635.7,1185.2,635.7z"/>
		</g>
	</g>
	<g>
		<g>
			<path class="st0" d="M917.1,719.2l-1.5,1.4c-1.1-1-2.2-1.8-3.5-2.4c-1.3-0.5-2.5-0.8-3.7-0.8c-1.5,0-2.9,0.4-4.3,1.1
				c-1.4,0.7-2.4,1.7-3.1,3c-0.7,1.3-1.1,2.6-1.1,4s0.4,2.8,1.2,4.1s1.8,2.3,3.2,3s2.8,1.1,4.5,1.1c2,0,3.6-0.6,5-1.7
				c1.4-1.1,2.2-2.5,2.4-4.3H910v-1.8h8.2c0,2.9-0.9,5.3-2.6,7c-1.7,1.7-4,2.6-7,2.6c-3.5,0-6.3-1.2-8.4-3.6c-1.6-1.8-2.4-4-2.4-6.4
				c0-1.8,0.5-3.5,1.4-5c0.9-1.6,2.2-2.8,3.7-3.6c1.6-0.9,3.4-1.3,5.4-1.3c1.6,0,3.1,0.3,4.6,0.9
				C914.3,716.9,915.7,717.9,917.1,719.2z"/>
			<path class="st0" d="M908.6,735.9c-3.6,0-6.5-1.3-8.7-3.7c-1.6-1.9-2.5-4.1-2.5-6.7c0-1.9,0.5-3.6,1.4-5.2
				c0.9-1.6,2.2-2.9,3.9-3.8c1.6-0.9,3.5-1.4,5.5-1.4c1.7,0,3.2,0.3,4.7,0.9c1.5,0.6,2.9,1.6,4.3,2.9l0.3,0.3l-2,1.9l-0.3-0.3
				c-1-1-2.2-1.8-3.4-2.3c-2.7-1.2-5.3-1-7.6,0.3c-1.3,0.7-2.3,1.7-3,2.9s-1.1,2.5-1.1,3.8c0,1.4,0.4,2.7,1.1,3.9
				c0.7,1.2,1.8,2.2,3,2.9c1.3,0.7,2.7,1.1,4.3,1.1c1.9,0,3.5-0.5,4.7-1.6c1.2-1,1.9-2.2,2.2-3.6h-6v-2.6h9v0.4c0,3-0.9,5.5-2.7,7.3
				C914,735,911.6,735.9,908.6,735.9z M908.3,715.8c-1.9,0-3.7,0.4-5.2,1.3c-1.5,0.8-2.7,2-3.6,3.5c-0.9,1.5-1.3,3.1-1.3,4.9
				c0,2.3,0.8,4.4,2.3,6.2c2,2.3,4.7,3.5,8.1,3.5c2.8,0,5-0.8,6.7-2.5c1.6-1.6,2.4-3.7,2.5-6.4h-7.5v1.1h6.1l-0.1,0.4
				c-0.3,1.8-1.1,3.4-2.5,4.5c-1.4,1.2-3.2,1.7-5.2,1.7c-1.7,0-3.2-0.4-4.6-1.2c-1.4-0.8-2.5-1.8-3.3-3.2c-0.8-1.3-1.2-2.8-1.2-4.3
				s0.4-2.9,1.2-4.2s1.9-2.4,3.3-3.1c2.5-1.4,5.3-1.6,8.3-0.3c1.2,0.5,2.3,1.3,3.3,2.2l0.9-0.9c-1.2-1.1-2.5-1.9-3.8-2.5
				C911.4,716.1,909.9,715.8,908.3,715.8z"/>
		</g>
		<g>
			<path class="st0" d="M929.9,716h3.8c2.1,0,3.6,0.1,4.3,0.3c1.1,0.3,2.1,0.8,2.8,1.7s1.1,1.9,1.1,3.1c0,1-0.2,1.9-0.7,2.7
				s-1.2,1.4-2.1,1.8c-0.9,0.4-2.2,0.6-3.8,0.6l6.9,8.9h-2.4l-6.9-8.9h-1.1v8.9h-1.9L929.9,716L929.9,716z M931.8,717.8v6.5h3.3
				c1.3,0,2.2-0.1,2.8-0.4c0.6-0.2,1.1-0.6,1.4-1.2c0.3-0.5,0.5-1.1,0.5-1.8c0-0.6-0.2-1.2-0.5-1.7s-0.8-0.9-1.4-1.1
				c-0.6-0.2-1.5-0.3-2.8-0.3H931.8z"/>
			<path class="st0" d="M942.8,735.4h-3.3l-0.1-0.1l-6.7-8.7h-0.5v8.9h-2.6v-19.8h4.2c2.2,0,3.6,0.1,4.4,0.3c1.2,0.3,2.2,0.9,3,1.8
				c0.8,0.9,1.1,2.1,1.1,3.4c0,1.1-0.3,2.1-0.8,2.9c-0.5,0.9-1.3,1.5-2.3,1.9c-0.8,0.4-1.9,0.6-3.2,0.6L942.8,735.4z M939.9,734.6
				h1.4l-6.9-8.9h0.7c1.5,0,2.8-0.2,3.6-0.6c0.8-0.4,1.5-0.9,1.9-1.6c0.4-0.7,0.7-1.6,0.7-2.5c0-1.2-0.3-2.1-1-2.9
				c-0.7-0.8-1.5-1.3-2.6-1.5c-0.7-0.2-2.1-0.3-4.2-0.3h-3.4v18.3h1.2v-8.9h1.6l0.1,0.1L939.9,734.6z M935.1,724.7h-3.7v-7.2h3.7
				c1.4,0,2.3,0.1,2.9,0.4c0.6,0.3,1.1,0.7,1.5,1.3s0.6,1.2,0.6,1.9s-0.2,1.4-0.6,2c-0.4,0.6-0.9,1-1.6,1.3
				C937.4,724.6,936.4,724.7,935.1,724.7z M932.2,723.9h2.9c1.2,0,2.1-0.1,2.7-0.3c0.5-0.2,1-0.6,1.3-1c0.3-0.5,0.5-1,0.5-1.6
				s-0.2-1.1-0.5-1.5c-0.3-0.5-0.7-0.8-1.2-1s-1.4-0.3-2.7-0.3h-3V723.9z"/>
		</g>
		<g>
			<path class="st0" d="M962.9,715.5c2.9,0,5.3,1,7.2,2.9s2.9,4.3,2.9,7.1s-1,5.2-2.9,7.1c-1.9,1.9-4.3,2.9-7.1,2.9s-5.2-1-7.2-2.9
				c-1.9-1.9-2.9-4.3-2.9-7c0-1.8,0.4-3.5,1.3-5.1c0.9-1.6,2.1-2.8,3.6-3.7C959.5,715.9,961.2,715.5,962.9,715.5z M963,717.3
				c-1.4,0-2.7,0.4-4,1.1c-1.3,0.7-2.2,1.7-3,3c-0.7,1.2-1.1,2.6-1.1,4.2c0,2.3,0.8,4.2,2.4,5.7c1.6,1.6,3.5,2.3,5.7,2.3
				c1.5,0,2.8-0.4,4.1-1.1c1.3-0.7,2.2-1.7,2.9-2.9s1.1-2.6,1.1-4.2c0-1.5-0.4-2.9-1.1-4.1s-1.7-2.2-3-2.9
				C965.8,717.7,964.5,717.3,963,717.3z"/>
			<path class="st0" d="M963.1,735.9c-2.9,0-5.4-1-7.4-3s-3-4.4-3-7.3c0-1.9,0.5-3.7,1.4-5.3s2.2-2.9,3.8-3.8
				c1.6-0.9,3.3-1.4,5.2-1.4c3,0,5.5,1,7.5,3s3,4.5,3,7.4s-1,5.4-3,7.4C968.5,734.8,966,735.9,963.1,735.9z M962.9,715.8
				c-1.7,0-3.3,0.4-4.8,1.3c-1.5,0.8-2.6,2-3.5,3.5c-0.8,1.5-1.3,3.2-1.3,4.9c0,2.6,0.9,4.9,2.8,6.8c1.9,1.9,4.2,2.8,6.9,2.8
				s5-0.9,6.8-2.8c1.9-1.9,2.8-4.2,2.8-6.8c0-2.7-0.9-5-2.8-6.9C968.1,716.8,965.7,715.8,962.9,715.8z M963,734
				c-2.3,0-4.3-0.8-5.9-2.4c-1.6-1.6-2.5-3.6-2.5-6c0-1.6,0.4-3.1,1.1-4.3c0.7-1.3,1.8-2.3,3.1-3.1c2.7-1.5,5.8-1.5,8.5,0
				c1.3,0.8,2.4,1.8,3.1,3.1c0.7,1.3,1.1,2.7,1.1,4.3s-0.4,3-1.1,4.3c-0.7,1.3-1.8,2.3-3.1,3.1C966,733.6,964.6,734,963,734z
				 M963,717.7c-1.3,0-2.6,0.4-3.8,1.1c-1.2,0.7-2.1,1.6-2.8,2.8s-1,2.5-1,4c0,2.2,0.8,4,2.2,5.5c1.5,1.5,3.3,2.2,5.4,2.2
				c1.4,0,2.7-0.3,3.9-1s2.1-1.6,2.8-2.8s1-2.5,1-4c0-1.4-0.3-2.8-1-3.9c-0.7-1.2-1.6-2.1-2.8-2.8C965.7,718,964.4,717.7,963,717.7z
				"/>
		</g>
		<g>
			<path class="st0" d="M985,716h1.9v11.5c0,1.4,0,2.2,0.1,2.6c0.1,0.8,0.3,1.4,0.7,1.9c0.3,0.5,0.9,0.9,1.6,1.3
				c0.7,0.3,1.4,0.5,2.2,0.5c0.6,0,1.2-0.1,1.8-0.4c0.6-0.3,1.1-0.6,1.5-1.1s0.7-1.1,0.9-1.7c0.1-0.5,0.2-1.5,0.2-3V716h1.9v11.5
				c0,1.7-0.2,3.1-0.5,4.1s-1,2-2,2.7c-1,0.8-2.2,1.2-3.6,1.2c-1.5,0-2.9-0.4-4-1.1s-1.8-1.7-2.2-2.9c-0.2-0.7-0.3-2.1-0.3-4V716
				H985z"/>
			<path class="st0" d="M991.5,735.9c-1.6,0-3-0.4-4.2-1.2s-2-1.8-2.4-3.1c-0.2-0.8-0.4-2.1-0.4-4.1v-11.9h2.6v11.9
				c0,1.7,0,2.3,0.1,2.5c0.1,0.7,0.3,1.3,0.6,1.7s0.8,0.8,1.4,1.1c1.2,0.6,2.5,0.6,3.7,0.1c0.5-0.2,1-0.6,1.3-1
				c0.4-0.4,0.6-1,0.8-1.6c0.1-0.4,0.2-1.4,0.2-2.9v-11.9h2.6v11.9c0,1.7-0.2,3.2-0.5,4.2c-0.4,1.1-1.1,2.1-2.1,2.9
				C994.3,735.4,993,735.9,991.5,735.9z M985.3,716.3v11.1c0,1.9,0.1,3.2,0.3,3.9c0.3,1.1,1,2,2.1,2.7c1,0.7,2.3,1,3.8,1
				c1.3,0,2.5-0.4,3.4-1.1c0.9-0.7,1.6-1.6,1.9-2.6c0.3-1,0.5-2.4,0.5-4v-11.1H996v11.1c0,1.6-0.1,2.6-0.2,3.1
				c-0.2,0.7-0.5,1.4-0.9,1.9s-1,0.9-1.6,1.2c-1.3,0.6-2.9,0.6-4.3-0.1c-0.8-0.4-1.4-0.8-1.7-1.4c-0.4-0.6-0.6-1.2-0.7-2
				c-0.1-0.3-0.1-1.2-0.1-2.6v-11.1L985.3,716.3L985.3,716.3z"/>
		</g>
		<g>
			<path class="st0" d="M1010.2,716h3.8c2.2,0,3.6,0.1,4.4,0.3c1.1,0.3,2,0.8,2.7,1.7c0.7,0.8,1,1.9,1,3.1c0,1.3-0.3,2.3-1,3.1
				s-1.6,1.4-2.8,1.7c-0.9,0.2-2.5,0.3-4.8,0.3h-1.4v8.9h-1.9V716z M1012.1,717.8v6.5h3.2c1.3,0,2.3-0.1,2.9-0.4
				c0.6-0.2,1.1-0.6,1.4-1.2c0.3-0.5,0.5-1.1,0.5-1.8c0-0.6-0.2-1.2-0.5-1.8c-0.3-0.5-0.8-0.9-1.4-1.1c-0.6-0.2-1.5-0.3-2.8-0.3
				L1012.1,717.8L1012.1,717.8z"/>
			<path class="st0" d="M1012.5,735.4h-2.6v-19.8h4.2c2.2,0,3.7,0.1,4.5,0.3c1.2,0.3,2.1,0.9,2.9,1.8c0.7,0.9,1.1,2,1.1,3.4
				s-0.4,2.5-1.1,3.4c-0.7,0.9-1.7,1.5-3,1.8c-0.9,0.2-2.5,0.3-4.9,0.3h-1v8.8H1012.5z M1010.6,734.6h1.2v-8.9h1.7
				c2.3,0,3.9-0.1,4.8-0.3c1.1-0.3,2-0.8,2.6-1.5c0.6-0.8,0.9-1.7,0.9-2.9s-0.3-2.1-1-2.9c-0.6-0.8-1.5-1.3-2.5-1.5
				c-0.7-0.2-2.2-0.3-4.3-0.3h-3.4V734.6z M1015.4,724.7h-3.6v-7.2h3.7c1.3,0,2.3,0.1,2.9,0.4c0.6,0.3,1.2,0.7,1.5,1.3
				c0.4,0.6,0.6,1.2,0.6,2c0,0.7-0.2,1.4-0.6,2c-0.4,0.6-0.9,1-1.6,1.3C1017.7,724.6,1016.7,724.7,1015.4,724.7z M1012.5,723.9h2.9
				c1.2,0,2.2-0.1,2.7-0.3s0.9-0.5,1.3-1c0.3-0.5,0.5-1,0.5-1.6s-0.1-1.1-0.5-1.6c-0.3-0.5-0.7-0.8-1.2-1s-1.4-0.3-2.6-0.3h-3v5.8
				H1012.5z"/>
		</g>
	</g>
</g>
<g>
	<g>
		<linearGradient id="SVGID_1_" gradientUnits="userSpaceOnUse" x1="948.8124" y1="614.3534" x2="1099.8235" y2="305.3882">
			<stop  offset="0" style="stop-color:#FF9B03"/>
			<stop  offset="8.513948e-02" style="stop-color:#FE9803"/>
			<stop  offset="0.149" style="stop-color:#FC8E03"/>
			<stop  offset="0.2059" style="stop-color:#F87E02"/>
			<stop  offset="0.2588" style="stop-color:#F36702"/>
			<stop  offset="0.3089" style="stop-color:#EC4A01"/>
			<stop  offset="0.3562" style="stop-color:#E42601"/>
			<stop  offset="0.3981" style="stop-color:#DB0000"/>
			<stop  offset="0.675" style="stop-color:#54519B"/>
			<stop  offset="0.8546" style="stop-color:#0084FC"/>
		</linearGradient>
		<path class="st1" d="M1109.9,469.9c0-68.7-55.7-124.6-124.3-124.9v0c-0.1,0-0.2,0-0.3,0c-0.1,0-0.2,0-0.3,0c-0.5,0-1,0-1.5,0
			c-0.5,0-1,0-1.5,0c-2.1,0-4.2,0.2-6.3,0.3v38.1c3.2-0.4,6.4,0,9.6,0c47.3,0.2,85.7,39.2,85.7,86.5c0,32.1-17.7,60.4-43.9,75.3
			c-6.6,3.7-13.8,6.6-21.3,8.6c-1.1,0.3-2.2,0.5-3.3,0.8c-0.1,0-0.3,0.1-0.4,0.1c-5.4,1.1-11,1.7-16.7,1.7c-3.3,0-6.5,0.4-9.6,0v38
			c3.1,0.2,6.2,0.4,9.3,0.4v0c0.1,0,0.2,0,0.3,0c0.1,0,0.2,0,0.3,0c0.4,0,0.7,0,1.1,0c0.7,0,1.4,0,2.1,0c0.8,0,1.7-0.1,2.5-0.1
			c0.2,0,0.3,0,0.5,0c1.4-0.1,2.8-0.2,4.2-0.3c1-0.1,2-0.2,3-0.3c0.1,0,0.3,0,0.4,0c19.6-2.3,37.8-9.1,53.5-19.3
			c0.1,0,0.1-0.1,0.2-0.1l0,0C1087.3,552.2,1109.9,513.6,1109.9,469.9z"/>
		<rect x="867.7" y="556.4" class="st2" width="19.2" height="19.2"/>
		<rect x="829.3" y="537.1" class="st2" width="19.2" height="19.2"/>
		<rect x="829.3" y="537.1" class="st2" width="19.2" height="19.2"/>
		<rect x="810.1" y="441" class="st3" width="19.2" height="19.2"/>
		<rect x="848.5" y="517.9" class="st3" width="19.2" height="19.2"/>
		<rect x="944.6" y="364.1" class="st4" width="19.2" height="19.2"/>
		<rect x="944.6" y="344.9" class="st5" width="19.2" height="19.2"/>
		<rect x="829.3" y="479.5" class="st3" width="19.2" height="19.2"/>
		<rect x="829.3" y="460.2" class="st6" width="19.2" height="19.2"/>
		<rect x="963.8" y="344.9" class="st7" width="19.2" height="19.2"/>
		<rect x="925.4" y="344.9" class="st4" width="19.2" height="19.2"/>
		<rect x="867.7" y="364.1" class="st4" width="19.2" height="19.2"/>
		<rect x="963.8" y="364.1" class="st8" width="19.2" height="19.2"/>
		<rect x="983.1" y="364.1" class="st5" width="19.2" height="19.2"/>
		<rect x="906.2" y="383.3" class="st4" width="19.2" height="19.2"/>
		<rect x="906.2" y="364.1" class="st5" width="19.2" height="19.2"/>
		<rect x="925.4" y="364.1" class="st7" width="19.2" height="19.2"/>
		<rect x="925.4" y="383.3" class="st8" width="19.2" height="19.2"/>
		<rect x="887" y="364.1" class="st7" width="19.2" height="19.2"/>
		<rect x="867.7" y="402.6" class="st8" width="19.2" height="19.2"/>
		<rect x="887" y="383.3" class="st5" width="19.2" height="19.2"/>
		<rect x="848.5" y="441" class="st9" width="19.2" height="19.2"/>
		<rect x="867.7" y="441" class="st7" width="19.2" height="19.2"/>
		<rect x="887" y="402.6" class="st9" width="19.2" height="19.2"/>
		<rect x="848.5" y="421.8" class="st6" width="19.2" height="19.2"/>
		<rect x="887" y="421.8" class="st6" width="19.2" height="19.2"/>
		<rect x="867.7" y="421.8" class="st3" width="19.2" height="19.2"/>
		<rect x="848.5" y="460.2" class="st3" width="19.2" height="19.2"/>
		<rect x="867.7" y="460.2" class="st6" width="19.2" height="19.2"/>
		<rect x="944.6" y="556.4" class="st10" width="19.2" height="19.2"/>
		<rect x="944.6" y="575.6" class="st11" width="19.2" height="19.2"/>
		<rect x="963.8" y="575.6" class="st2" width="19.2" height="19.2"/>
		<rect x="925.4" y="575.6" class="st12" width="19.2" height="19.2"/>
		<rect x="963.8" y="556.4" class="st11" width="19.2" height="19.2"/>
		<rect x="983.1" y="556.4" class="st13" width="19.2" height="19.2"/>
		<rect x="906.2" y="537.1" class="st10" width="19.2" height="19.2"/>
		<rect x="906.2" y="556.4" class="st14" width="19.2" height="19.2"/>
		<rect x="925.4" y="556.4" class="st2" width="19.2" height="19.2"/>
		<rect x="925.4" y="537.1" class="st13" width="19.2" height="19.2"/>
		<rect x="887" y="556.4" class="st10" width="19.2" height="19.2"/>
		<rect x="867.7" y="517.9" class="st10" width="19.2" height="19.2"/>
		<rect x="867.7" y="537.1" class="st14" width="19.2" height="19.2"/>
		<rect x="887" y="537.1" class="st12" width="19.2" height="19.2"/>
		<rect x="848.5" y="479.5" class="st6" width="19.2" height="19.2"/>
		<rect x="867.7" y="479.5" class="st2" width="19.2" height="19.2"/>
		<rect x="887" y="517.9" class="st3" width="19.2" height="19.2"/>
		<rect x="848.5" y="498.7" class="st10" width="19.2" height="19.2"/>
		<rect x="887" y="498.7" class="st8" width="19.2" height="19.2"/>
		<rect x="867.7" y="498.7" class="st9" width="19.2" height="19.2"/>
		<rect x="848.5" y="383.3" class="st4" width="19.2" height="19.2"/>
		<rect x="906.2" y="402.6" class="st8" width="11.4" height="11.4"/>
		<rect x="944.6" y="383.3" class="st7" width="11.4" height="11.4"/>
		<rect x="944.6" y="544.9" class="st2" width="11.4" height="11.4"/>
		<rect x="887" y="441" class="st3" width="11.4" height="11.4"/>
		<rect x="887" y="487.2" class="st3" width="11.4" height="11.4"/>
		<rect x="887" y="464.1" class="st8" width="11.4" height="11.4"/>
		<rect x="906.2" y="525.7" class="st2" width="11.4" height="11.4"/>
	</g>
</g>
</svg>
