
<svg width="auto" height="1em"    viewBox="0 0 260 320" fill="none" xmlns="http://www.w3.org/2000/svg">
<symbol id="item"
width="auto"
height="1em"
viewBox="0 0 260 320"
fill="none"
>
<path d="M130 306.659C59.523 275.957 12.233 206.876 12.233 129.754V12.244h235.351v117.51c0 77.122-47.289 146.203-117.584 176.905Zm130-176.905V0H0v129.754C0 214.734 52.402 287.105 130 320c77.416-32.713 130-105.083 130-190.246Z" fill="var(--color--bulma-100)"/><path fill-rule="evenodd" clip-rule="evenodd" d="M130 312.874c36.699-15.534 68.104-40.754 90.196-74.198 21.18-31.982 33.413-69.995 33.413-109.104V6.03H6.39v123.542c0 39.109 12.234 77.122 33.413 109.104C61.896 272.302 93.301 297.34 130 312.874Z" fill="var(--color--bulma-100)"/><path fill-rule="evenodd" clip-rule="evenodd" d="M242.105 154.972H17.71c-1.279-8.406-1.826-16.996-1.826-25.585v-11.513H243.93v11.513c0 8.589-.548 17.179-1.826 25.585ZM45.097 229.353H214.9c7.303-11.696 13.328-24.123 18.076-37.282H27.021c4.747 12.976 10.773 25.586 18.076 37.282Zm84.901 73.467c-20.266-8.772-38.89-21.199-54.775-36.185h109.55c-15.884 14.986-34.508 27.413-54.775 36.185Zm0-222.228h113.933V43.31H129.998v37.282ZM15.884 108.736h105.168v-93.57H15.884v93.57Z" fill="#C3281E"/><path fill-rule="evenodd" clip-rule="evenodd" d="M49.845 90.824c0 5.849-1.461 8.59-3.835 10.417 3.104 3.29 11.32 4.752 17.894 2.742-4.383-2.742-5.66-6.945-5.66-12.245-2.922 0-5.66-.365-8.4-.914Zm29.943 1.097v-5.3c-2.373-3.472-5.112-7.493-8.216-10.051v14.62c0 5.3-1.46 8.59-3.834 10.234 3.104 3.29 11.32 4.752 17.893 2.741-4.382-2.924-5.843-7.858-5.843-12.244Zm25.744-41.85c9.312-4.57 7.486-16.265 6.391-19.19-1.461 2.742-4.382 4.387-9.495 4.387h-6.025c1.278 2.01 2.556 4.203 3.652 6.579 4.747.182 6.208 5.3 5.477 8.224ZM90.195 71.27c5.113 0 7.121 3.472 6.756 8.224 8.946-4.752 7.486-15.169 6.208-18.093-1.461 1.828-3.47 3.473-8.4 3.473H79.972V42.029h4.564a15.71 15.71 0 0 0-3.104-6.579h-2.008c-3.834 0-7.303-.548-11.138-2.01l3.287 8.59v22.66c4.017 1.28 6.755 3.656 9.494 6.58h9.13Zm-8.581-8.407h6.755c7.486-7.675 6.208-17.178 11.32-17.178C92.57 28.14 82.71 19.55 60.8 20.099c-6.572.183-9.859.183-15.154-1.828l4.017 10.418c3.834-1.463 8.581-2.376 13.328-2.376 14.242 0 24.101 7.858 24.101 22.113-.182 5.482-1.825 10.6-5.477 14.437Zm-46.01-3.472c0 12.427 8.033 22.479 20.448 24.123 4.565.549 9.495 0 13.694-2.01V87.9c-4.564 1.462-8.946 2.193-13.328 1.828-18.076-.731-30.127-14.803-33.96-31.8 3.468 0 4.746-4.75 7.668-10.233 4.382-7.859 11.685-14.62 20.266-17.544 3.652-1.28 8.034-2.194 12.598-2.194 1.096 0 2.191 0 3.287.183 1.46 3.838 1.278 12.61-.548 16.63-2.008-5.3-6.39-7.675-11.137-7.675-11.686.183-18.989 10.965-18.989 22.296ZM58.06 39.654v24.488c6.025 0 13.146.914 18.44 5.3 7.67 6.397 11.868 14.62 16.25 19.372 4.748 5.3 10.773 4.752 15.885 1.097-.73 7.675-8.946 13.523-12.78 14.437-6.391-4.569-13.33-17.727-18.624-24.489-4.93-6.396-9.494-8.955-19.171-8.955V81.87c-2.922-.183-5.66-.732-8.216-1.828V39.654c2.738-.731 5.477-.914 8.216 0Z" fill="var(--color--bulma-100)"/>
</symbol>
</svg>
  