<svg width="24" height="24" viewBox="0 0 24 24" fill="none" xmlns="http://www.w3.org/2000/svg">
  <symbol id="item" viewBox="0 0 24 24"  fill="none">
    <path d="M7.93 16.117H9.8V8.285H8.33l-2.463 1.744.878 1.368 1.186-.878v5.598ZM13.789 16.22c1.618 0 2.895-.844 2.895-2.27 0-1.06-.593-1.766-1.38-2.063v-.034c.502-.216.947-.844.947-1.596 0-1.345-1.072-2.075-2.463-2.075-1.367 0-2.439.707-2.439 2.075 0 .741.433 1.368.935 1.596v.034c-.764.308-1.368 1.003-1.368 2.064 0 1.39 1.254 2.268 2.873 2.268Zm0-5.04c-.456 0-.776-.319-.776-.752s.331-.787.776-.787c.455 0 .786.342.786.787 0 .433-.33.752-.786.752Zm0 3.512c-.57 0-1.015-.434-1.015-.992 0-.57.422-.98 1.015-.98.592 0 1.014.41 1.014.98a.99.99 0 0 1-1.014.992Z" fill="currentColor"/><path fill-rule="evenodd" clip-rule="evenodd" d="M20.77 12c0 5.177-4.196 9.373-9.372 9.373S2.026 17.177 2.026 12s4.196-9.373 9.372-9.373a9.33 9.33 0 0 1 5.658 1.9h1.245v-1.6A11.348 11.348 0 0 0 11.398.6C5.103.6 0 5.704 0 12s5.103 11.4 11.398 11.4c6.296 0 11.399-5.104 11.399-11.4 0-.085-.001-.17-.003-.253h-2.027c.002.084.003.168.003.253Z" fill="currentColor"/><path fill-rule="evenodd" clip-rule="evenodd" d="M19.82 10.227V3.893h2.027v6.334h-2.026Z" fill="currentColor"/><path fill-rule="evenodd" clip-rule="evenodd" d="M24 8.073h-6.332V6.047H24v2.026Z" fill="currentColor"/>
  </symbol>
</svg>
  