<svg width="32" height="32" viewBox="0 0 32 32" fill="none" xmlns="http://www.w3.org/2000/svg">
  <symbol id="item" viewBox="0 0 32 32"  fill="none">
    <path d="M10.574 21.489h2.493V11.046h-1.961l-3.283 2.326 1.17 1.824 1.581-1.17v7.463ZM18.385 21.626c2.158 0 3.86-1.125 3.86-3.025 0-1.414-.79-2.356-1.84-2.751v-.046c.67-.289 1.262-1.125 1.262-2.128 0-1.794-1.428-2.766-3.282-2.766-1.824 0-3.253.942-3.253 2.766 0 .988.578 1.824 1.246 2.128v.046c-1.018.41-1.823 1.337-1.823 2.75 0 1.855 1.672 3.026 3.83 3.026Zm0-6.719c-.608 0-1.034-.425-1.034-1.003 0-.578.44-1.049 1.034-1.049.607 0 1.048.456 1.048 1.049 0 .578-.44 1.003-1.048 1.003Zm0 4.682c-.76 0-1.353-.578-1.353-1.323 0-.76.562-1.307 1.353-1.307.79 0 1.352.547 1.352 1.307 0 .715-.562 1.323-1.352 1.323Z" fill="currentColor"/><path fill-rule="evenodd" clip-rule="evenodd" d="M27.694 16c0 6.902-5.595 12.498-12.496 12.498-6.902 0-12.496-5.596-12.496-12.498 0-6.902 5.595-12.498 12.496-12.498 2.834 0 5.447.944 7.543 2.534h1.66V3.903A15.13 15.13 0 0 0 15.198.8C6.804.8 0 7.605 0 16s6.804 15.2 15.198 15.2c8.393 0 15.198-6.805 15.198-15.2 0-.113-.002-.226-.004-.338h-2.703c.003.112.005.225.005.338Z" fill="currentColor"/><path fill-rule="evenodd" clip-rule="evenodd" d="M26.427 13.636V5.19h2.702v8.445h-2.702Z" fill="currentColor"/><path fill-rule="evenodd" clip-rule="evenodd" d="M32 10.764h-8.443V8.062H32v2.702Z" fill="currentColor"/>
  </symbol>
</svg>
  