<svg width="32" height="32" viewBox="0 0 32 32" fill="none" xmlns="http://www.w3.org/2000/svg">
  <symbol id="item" viewBox="0 0 32 32"  fill="none">
    <path d="M8.508 21.489h6.93v-2.235H12.05l-.015-.045 1.596-1.657c1.398-1.444 1.717-2.31 1.717-3.511 0-1.946-1.595-3.131-3.389-3.131-1.808 0-2.933.896-3.556 1.976l1.763 1.261c.44-.668.973-.957 1.596-.957.638 0 1.094.486 1.094 1.14 0 .745-.456 1.383-1.277 2.25l-3.1 3.298.03 1.61ZM18.819 21.489h2.492V11.046h-1.96l-3.283 2.326 1.17 1.824 1.58-1.17v7.463Z" fill="currentColor"/><path fill-rule="evenodd" clip-rule="evenodd" d="M27.694 16c0 6.902-5.595 12.498-12.496 12.498-6.901 0-12.496-5.596-12.496-12.498 0-6.902 5.595-12.498 12.496-12.498 2.834 0 5.447.944 7.543 2.534h1.66V3.903A15.13 15.13 0 0 0 15.198.8C6.804.8 0 7.605 0 16s6.804 15.2 15.198 15.2c8.393 0 15.198-6.805 15.198-15.2 0-.113-.002-.226-.004-.338H27.69c.003.112.005.225.005.338Z" fill="currentColor"/><path fill-rule="evenodd" clip-rule="evenodd" d="M26.427 13.636V5.19h2.702v8.445h-2.702Z" fill="currentColor"/><path fill-rule="evenodd" clip-rule="evenodd" d="M32 10.764h-8.443V8.062H32v2.702Z" fill="currentColor"/>
  </symbol>
</svg>
  