<svg width="24" height="24" viewBox="0 0 24 24" fill="none" xmlns="http://www.w3.org/2000/svg">
  <symbol id="item" viewBox="0 0 24 24"  fill="none">
    <path d="M6.381 16.117h5.198V14.44H9.037l-.011-.034 1.196-1.243c1.05-1.083 1.289-1.733 1.289-2.633 0-1.46-1.197-2.349-2.542-2.349-1.357 0-2.2.673-2.668 1.482l1.323.947c.33-.502.73-.719 1.196-.719.48 0 .821.365.821.855 0 .559-.342 1.038-.957 1.688l-2.326 2.473.023 1.209ZM14.114 16.117h1.87V8.285h-1.471l-2.462 1.744.878 1.368 1.185-.878v5.598Z" fill="currentColor"/><path fill-rule="evenodd" clip-rule="evenodd" d="M20.77 12c0 5.177-4.196 9.373-9.372 9.373S2.026 17.177 2.026 12s4.196-9.373 9.372-9.373a9.33 9.33 0 0 1 5.658 1.9h1.245v-1.6A11.347 11.347 0 0 0 11.398.6C5.103.6 0 5.704 0 12s5.103 11.4 11.398 11.4c6.296 0 11.399-5.104 11.399-11.4 0-.085-.001-.17-.003-.253h-2.027c.002.084.003.168.003.253Z" fill="currentColor"/><path fill-rule="evenodd" clip-rule="evenodd" d="M19.82 10.227V3.893h2.027v6.334h-2.026Z" fill="currentColor"/><path fill-rule="evenodd" clip-rule="evenodd" d="M24 8.073h-6.332V6.047H24v2.026Z" fill="currentColor"/>
  </symbol>
</svg>
  