
<svg width="1em" height="1em"    viewBox="0 0 24 24" fill="none" xmlns="http://www.w3.org/2000/svg">
<symbol id="item"
width="1em"
height="1em"
viewBox="0 0 24 24"
fill="none"
>
<path d="M21.7 14.42c-1.335 5.356-6.762 8.617-12.12 7.28C4.224 20.366.963 14.94 2.3 9.583 3.635 4.224 9.06.964 14.418 2.3c5.358 1.336 8.618 6.763 7.283 12.12Z" fill="#F7931A"/><path d="M16.41 10.575c.199-1.33-.814-2.046-2.2-2.523l.45-1.802-1.098-.274-.437 1.755c-.289-.072-.585-.14-.88-.207l.441-1.766-1.096-.274-.45 1.802a36.683 36.683 0 0 1-.7-.164v-.006l-1.513-.378-.292 1.172s.814.187.797.198c.445.111.525.405.512.638L9.432 10.8c.03.008.07.019.114.036l-.116-.028-.718 2.876c-.054.135-.192.338-.503.26.011.017-.797-.198-.797-.198l-.545 1.256 1.428.356c.266.066.526.136.782.201l-.454 1.824 1.096.273.45-1.804c.3.082.59.157.874.227l-.448 1.796 1.098.273.454-1.82c1.87.354 3.278.212 3.87-1.48.477-1.363-.024-2.15-1.008-2.662.717-.165 1.257-.636 1.4-1.61Zm-2.507 3.516c-.34 1.362-2.634.626-3.378.441l.603-2.415c.744.185 3.13.553 2.775 1.974Zm.34-3.535c-.31 1.24-2.22.61-2.84.455l.547-2.19c.62.154 2.614.442 2.292 1.735Z" fill="var(--color--bulma-100)"/><circle cx="12" cy="12" r="12" fill="#335DF4"/><path d="M16 17.285c-.651.357-1.759.715-3.023.715-1.8 0-3.419-.644-4.466-1.84-.632-.66-1.067-1.553-1.245-2.66H6.001V12.41h1.107v-.286c0-.214.02-.447.038-.643H6v-1.108h1.324c.238-1.088.771-2.018 1.483-2.695C9.874 6.606 11.317 6 13.077 6c1.185 0 2.173.267 2.825.554l-.494 1.66c-.514-.25-1.324-.482-2.213-.482-.989 0-1.858.322-2.51.982-.415.394-.712.982-.87 1.661h5.178v1.108H9.577c-.04.196-.04.41-.04.624v.304h5.455V13.5H9.755c.139.767.435 1.34.85 1.75.673.66 1.62.963 2.648.963.968 0 1.878-.303 2.332-.535L16 17.285Z" fill="var(--color--bulma-100)"/>
</symbol>
</svg>
  