<svg width="174" height="174" viewBox="0 0 174 174" fill="none" xmlns="http://www.w3.org/2000/svg">
  <symbol id="item" viewBox="0 0 174 174"  fill="none">
    <path opacity=".1" d="M74.008 80.62h65.221c1.914 0 3.19 1.972 2.436 3.712l-14.935 34.713a2.656 2.656 0 0 1-2.436 1.595H85.869a2.686 2.686 0 0 1-2.523-1.798L71.485 84.129c-.58-1.711.696-3.509 2.523-3.509Z" fill="currentColor"/><path d="M68.817 73.631a.963.963 0 0 1-.609-.203 1.11 1.11 0 0 1-.29-1.537L87.87 42.63c1.334-1.856 3.857-2.378 5.771-1.189l29.116 17.748a4.288 4.288 0 0 1 1.972 2.813 4.442 4.442 0 0 1-.696 3.364l-5.539 7.772a1.11 1.11 0 0 1-1.537.261 1.11 1.11 0 0 1-.261-1.537l5.539-7.772a2.104 2.104 0 0 0 .348-1.653 2.102 2.102 0 0 0-.986-1.392L92.51 43.326c-.957-.58-2.175-.319-2.842.58L69.716 73.167c-.203.29-.551.464-.899.464Z" fill="currentColor"/><path d="M84.158 73.631c-.203 0-.435-.058-.609-.174a1.11 1.11 0 0 1-.29-1.537l16.936-25.259a1.11 1.11 0 0 1 1.537-.29 1.11 1.11 0 0 1 .29 1.537L85.086 73.167a1.21 1.21 0 0 1-.928.464Z" fill="currentColor"/><path d="M118.726 72.094c-.203 0-.377-.058-.58-.145L84.013 51.446a1.093 1.093 0 0 1-.377-1.508 1.093 1.093 0 0 1 1.508-.377l34.133 20.503c.522.319.696.986.377 1.508-.174.319-.551.522-.928.522Z" fill="currentColor"/><path d="m84.303 51.765-1.189-.841c-1.102-.812-10.788-7.975-9.831-13.63.348-2.146 2.088-3.712 5.162-4.669 3.074-.928 5.365-.609 6.873.957 3.944 4.176-.029 15.544-.522 16.82l-.493 1.363Zm-2.784-17.458c-.696 0-1.508.145-2.436.435-2.204.667-3.422 1.653-3.625 2.9-.493 2.929 4.089 7.685 7.772 10.585 1.392-4.466 2.552-10.962.493-13.108-.522-.551-1.247-.812-2.204-.812Z" fill="currentColor"/><path d="M71.195 58.725a6.103 6.103 0 0 1-1.624-.232c-2.059-.667-3.364-2.639-3.828-5.8-.464-3.161.203-5.423 2.001-6.641 4.727-3.277 15.341 2.378 16.53 3.045l1.276.696-1.015 1.044c-.84.841-7.946 7.888-13.34 7.888Zm.348-11.513c-1.015 0-1.885.174-2.523.609-1.044.725-1.392 2.262-1.073 4.524.32 2.262 1.102 3.625 2.32 4.031 2.813.928 8.207-2.9 11.63-6.061-3.104-1.537-7.367-3.103-10.354-3.103Z" fill="currentColor"/><path d="m55.296 63.417 19.691 55.129.119.332H112.23c.333 0 .602.269.602.602 0 .37-.278.631-.602.631H74.244l-20.092-56.27-.001-.003a3.437 3.437 0 0 0-3.256-2.307h-6.351a.601.601 0 1 1 0-1.204h6.35c1.965 0 3.748 1.26 4.402 3.09Z" fill="#62676D" stroke="#62676D"/><path d="M111.505 110.526h.334l.128-.309 13.949-33.785.002-.005a2.415 2.415 0 0 0-.222-2.232 2.376 2.376 0 0 0-1.982-1.064H58.493a.601.601 0 1 1 0-1.204h65.221c1.199 0 2.315.586 2.974 1.6l.003.004c.662.994.788 2.267.332 3.358l-.001.002-14.401 34.839H71.688a.601.601 0 1 1 0-1.204h39.817ZM81.606 138.845a6.753 6.753 0 0 1-6.75-6.75 6.753 6.753 0 0 1 6.75-6.75 6.753 6.753 0 0 1 6.75 6.75 6.753 6.753 0 0 1-6.75 6.75Zm0-12.267a5.55 5.55 0 0 0-5.546 5.546 5.55 5.55 0 0 0 5.546 5.546 5.55 5.55 0 0 0 5.546-5.546 5.55 5.55 0 0 0-5.546-5.546ZM106.343 138.845a6.752 6.752 0 0 1-6.75-6.75 6.752 6.752 0 0 1 6.75-6.75 6.752 6.752 0 0 1 6.75 6.75 6.752 6.752 0 0 1-6.75 6.75Zm0-12.267a5.55 5.55 0 0 0-5.546 5.546 5.55 5.55 0 0 0 5.546 5.546 5.55 5.55 0 0 0 5.546-5.546 5.55 5.55 0 0 0-5.546-5.546Z" fill="#62676D" stroke="#62676D"/><path d="M44.37 102.138h-5.655a1.102 1.102 0 1 1 0-2.204h5.655a1.102 1.102 0 1 1 0 2.204ZM53.157 102.138h-1.769a1.102 1.102 0 1 1 0-2.204h1.77a1.102 1.102 0 1 1 0 2.204ZM39.498 129.456h-5.655a1.102 1.102 0 1 1 0-2.204h5.655a1.102 1.102 0 1 1 0 2.204ZM48.285 129.456h-1.769a1.102 1.102 0 1 1 0-2.204h1.77a1.102 1.102 0 1 1 0 2.204ZM58.029 129.456H56.26a1.102 1.102 0 1 1 0-2.204h1.769a1.102 1.102 0 1 1 0 2.204Z" fill="currentColor"/><path d="M92.169 99.122V98.02l-.83.726c-.846.74-1.95 1.326-3.73 1.326-1.524 0-3-.737-3.92-1.974l-.002-.002c-1.537-2.041-1.142-4.654.604-7.805 1.737-3.136 4.714-6.62 7.98-10.235h.001l.009-.01a.384.384 0 0 1 .316-.144c.104 0 .21.044.305.136 3.264 3.626 6.244 7.113 7.987 10.25 1.753 3.156 2.155 5.767.618 7.808l-.002.002a4.94 4.94 0 0 1-3.95 1.974c-1.78 0-2.884-.586-3.73-1.326l-.83-.726V102.9h2.444c.236 0 .428.201.428.428 0 .236-.201.428-.428.428h-5.713a.435.435 0 0 1-.428-.428c0-.236.2-.428.428-.428h2.443v-3.777Zm.801-17.761-.373-.42-.373.42c-3.292 3.697-5.865 6.888-7.32 9.546-1.438 2.628-1.892 4.943-.532 6.695.786 1.014 2.002 1.643 3.295 1.643.934 0 1.679-.172 2.32-.516.635-.34 1.132-.829 1.6-1.402a.427.427 0 0 1 .314-.141h1.42c.118 0 .237.053.314.14.466.572.956 1.061 1.588 1.402.64.345 1.385.517 2.333.517a4.155 4.155 0 0 0 3.3-1.65c1.339-1.765.879-4.075-.564-6.7-1.458-2.653-4.03-5.837-7.322-9.534Z" fill="#62676D" stroke="#62676D"/>
  </symbol>
</svg>
  