<svg width="174" height="174" viewBox="0 0 174 174" fill="none" xmlns="http://www.w3.org/2000/svg">
  <symbol id="item" viewBox="0 0 174 174"  fill="none">
    <path opacity=".1" d="M78.5 133.136c1.906 0 3.664-1.505 4.103-3.462l1.319-6.471c1.319-.451 2.49-.903 3.81-1.655l5.274 3.612a4.151 4.151 0 0 0 5.275-.602l2.637-2.709c1.319-1.354 1.612-3.612.586-5.418l-3.516-5.417c.586-1.204 1.172-2.559 1.612-3.913l6.3-1.354c1.905-.452 3.37-2.107 3.37-4.214V97.62c0-1.956-1.465-3.762-3.37-4.214l-6.3-1.354c-.44-1.354-.88-2.558-1.612-3.913l3.516-5.417c1.026-1.656.879-3.913-.586-5.418l-2.637-2.709c-1.319-1.354-3.517-1.655-5.275-.602l-5.275 3.612c-1.172-.602-2.49-1.204-3.809-1.655l-1.319-6.471c-.44-1.204-2.051-2.709-4.102-2.709h-5.568c-1.905 0-3.663 1.505-4.103 3.461l-1.318 6.471c-1.319.452-2.491.903-3.81 1.656l-5.275-3.612c-1.465-1.355-3.663-1.053-4.981.3l-2.784 2.86c-1.319 1.355-1.612 3.612-.586 5.418l3.516 5.417c-.586 1.204-1.172 2.559-1.611 3.913l-6.008 1.204c-1.904.301-3.37 2.107-3.37 4.063v3.913c0 1.956 1.465 3.762 3.37 4.214l6.154 1.354c.44 1.354.88 2.558 1.612 3.913l-3.517 5.417c-1.025 1.656-.879 3.913.586 5.418l2.638 2.709c1.318 1.354 3.516 1.655 5.275.602l5.274-3.612c1.172.602 2.491 1.204 3.81 1.655l1.318 6.471c.44 1.957 2.052 3.462 4.103 3.462h5.275v-.301Z" fill="currentColor"/><path d="M97.688 84.868c.469-.938.781-1.876 1.094-2.814l6.722-1.407c2.033-.469 3.596-2.189 3.596-4.377v-4.065c0-2.032-1.563-3.908-3.596-4.377l-6.722-1.407c-.47-1.407-.938-2.658-1.72-4.065l3.752-5.628a4.517 4.517 0 0 0-.625-5.628l-2.814-2.814c-1.407-1.407-3.752-1.72-5.628-.626l-5.628 3.753c-1.25-.626-2.658-1.251-4.065-1.72l-1.407-6.723c-.313-1.407-2.032-2.97-4.221-2.97h-4.065c-2.032 0-3.908 1.563-4.377 3.596l-1.407 6.722c-1.407.47-2.658.938-4.065 1.72l-5.628-3.752a4.518 4.518 0 0 0-5.628.625l-2.658 2.658c-1.407 1.407-1.72 3.752-.625 5.628l3.752 5.628c-.625 1.25-1.25 2.658-1.72 4.065l-6.41 1.25C41.564 68.453 40 70.33 40 72.361v4.065c0 2.032 1.563 3.908 3.596 4.377l6.566 1.407c.469 1.408.938 2.658 1.72 4.065l-3.753 5.628a4.518 4.518 0 0 0 .626 5.628l2.814 2.814c1.407 1.407 3.752 1.72 5.628.626l5.628-3.752c1.25.625 2.658 1.25 4.065 1.72l1.407 6.722c.469 2.032 2.188 3.595 4.377 3.595h4.065c2.032 0 3.908-1.563 4.377-3.595l1.407-6.723c1.095-.312 2.189-.781 3.127-1.25M87.838 107.537c-.156.469-.312.938-.312 1.407v2.657c0 1.564 1.094 2.971 2.658 3.283l4.064.782c.313.782.47 1.407.938 2.189l-2.188 3.439c-.938 1.251-.626 3.127.469 4.221l1.876 1.876c1.094 1.095 2.814 1.251 4.22.469l3.44-2.188c.625.312 1.407.625 2.189.938l.781 4.064c.313 1.564 1.72 2.658 3.283 2.658h2.658c1.563 0 2.97-1.094 3.283-2.658l.782-4.064c.782-.313 1.407-.469 2.189-.938l3.439 2.188c1.251.938 3.127.626 4.221-.469l1.876-1.876c1.094-1.094 1.251-2.814.469-4.221l-2.189-3.439c.313-.626.626-1.407.938-2.189l4.065-.782c1.563-.312 2.658-1.719 2.658-3.283v-2.814c0-1.563-1.095-2.97-2.658-3.283l-4.065-.781c-.312-.782-.469-1.407-.938-2.189l2.189-3.44c.938-1.25.625-3.126-.469-4.22l-2.501-1.72c-1.095-1.094-2.814-1.25-4.221-.47l-3.44 2.19c-.625-.313-1.407-.626-2.188-.938l-.782-4.065c-.313-1.563-1.72-2.658-3.283-2.658h-2.502c-1.563 0-2.97 1.095-3.283 2.658l-.781 4.065c-.782.312-1.407.469-2.189.938l-3.44-2.19c-1.25-.937-3.126-.624-4.22.47l-1.72 1.876c-1.094 1.094-1.25 2.814-.47 4.221l2.19 3.439" stroke="#62676D" stroke-width="2" stroke-miterlimit="10" stroke-linecap="round" stroke-linejoin="round"/><path d="M90.027 78.771c.313-1.407.626-2.814.626-4.221 0-8.911-7.192-16.259-16.26-16.259-4.22 0-7.972 1.564-10.786 4.221M58.448 71.58c-.157.938-.313 1.876-.313 2.814 0 8.91 7.191 16.258 16.259 16.258 3.595 0 6.878-1.094 9.536-3.126" stroke="currentColor" stroke-width="2" stroke-miterlimit="10" stroke-linecap="round" stroke-linejoin="round"/><path d="M74.394 81.898a7.504 7.504 0 1 0 0-15.008 7.504 7.504 0 0 0 0 15.008Z" stroke="currentColor" stroke-width="2" stroke-miterlimit="10"/><path d="M118.011 110.194c0-4.377-3.439-7.816-7.817-7.816-4.377 0-7.816 3.439-7.816 7.816 0 4.378 3.439 7.817 7.816 7.817 1.564 0 3.127-.469 4.378-1.407" stroke="#62676D" stroke-width="2" stroke-miterlimit="10" stroke-linecap="round"/>
  </symbol>
</svg>
  