<svg width="174" height="174" viewBox="0 0 174 174" fill="none" xmlns="http://www.w3.org/2000/svg">
  <symbol id="item" viewBox="0 0 174 174"  fill="none">
    <path opacity=".1" d="M103.82 129.746H44.022a6.61 6.61 0 0 1-6.612-6.612V71.659a6.61 6.61 0 0 1 6.612-6.612h59.798a6.61 6.61 0 0 1 6.612 6.612v51.475c-.029 3.654-2.987 6.612-6.612 6.612Z" fill="currentColor"/><path d="M75.4 53.331c-.319 0-.638-.145-.87-.406-.377-.464-.29-1.16.174-1.537l10.527-8.41a5.527 5.527 0 0 1 6.757 0l10.324 8.41c.464.377.551 1.073.145 1.537-.406.464-1.073.551-1.537.145l-10.295-8.41c-1.16-.899-2.842-.899-4.031.029L76.096 53.07c-.203.203-.464.261-.696.261Z" fill="currentColor"/><path d="M97.73 116.109H60.9a9.413 9.413 0 0 1-9.418-9.418v-36.83a.601.601 0 1 1 1.204 0v36.801a8.21 8.21 0 0 0 8.214 8.214h36.83c.333 0 .602.269.602.602 0 .35-.286.631-.602.631ZM125.106 92.097a.601.601 0 0 1-.602-.602V69.861a.601.601 0 1 1 1.204 0v21.634a.601.601 0 0 1-.602.602Z" fill="currentColor" stroke="currentColor"/><path d="M125.106 70.963c-.232 0-.464-.087-.667-.232l-8.091-6.206c-.493-.377-.58-1.073-.203-1.537.377-.493 1.073-.58 1.537-.203l8.091 6.206c.493.377.58 1.073.203 1.537-.203.29-.551.435-.87.435Z" fill="currentColor"/><path d="m54.176 113.19-.006-.008-.007-.009a.6.6 0 0 1 .106-.833l.001-.001 26.738-20.155.003-.002a.6.6 0 0 1 .833.106l.003.004a.6.6 0 0 1-.106.833h-.001l-26.738 20.156-.013.009-.011.01a.49.49 0 0 1-.342.112.534.534 0 0 1-.46-.222ZM104.725 100.018l-.011-.01-.013-.01-9.074-6.841-.001-.001a.578.578 0 0 1-.109-.835.578.578 0 0 1 .836-.11l.003.002 9.074 6.842.001.001c.271.208.319.56.11.834a.612.612 0 0 1-.474.24.492.492 0 0 1-.342-.112Z" fill="currentColor" stroke="currentColor"/><path d="M52.113 70.963c-.319 0-.667-.145-.87-.435a1.077 1.077 0 0 1 .203-1.537l8.091-6.206a1.077 1.077 0 0 1 1.537.203c.377.493.29 1.16-.203 1.537l-8.09 6.206a.988.988 0 0 1-.668.232Z" fill="currentColor"/><path d="M117.015 76.147a.601.601 0 0 1-.602-.602V58.609c0-3.176-2.602-5.778-5.778-5.778h-44.08c-3.176 0-5.778 2.602-5.778 5.778v16.936a.602.602 0 1 1-1.204 0V58.609c0-3.842 3.14-6.982 6.982-6.982h44.08c3.842 0 6.982 3.14 6.982 6.982v16.936a.601.601 0 0 1-.602.602Z" fill="currentColor" stroke="currentColor"/><path d="M122.293 134.792c-10.817 0-19.604-8.787-19.604-19.604 0-10.817 8.787-19.604 19.604-19.604 10.817 0 19.604 8.787 19.604 19.604 0 10.817-8.787 19.604-19.604 19.604Zm0-36.975c-9.599 0-17.4 7.801-17.4 17.4 0 9.599 7.801 17.4 17.4 17.4 9.599 0 17.4-7.801 17.4-17.4 0-9.599-7.801-17.4-17.4-17.4Z" fill="currentColor"/><path d="M109.109 129.369c-.29 0-.551-.116-.783-.319a1.103 1.103 0 0 1 0-1.566l26.158-26.158a1.103 1.103 0 0 1 1.566 0 1.103 1.103 0 0 1 0 1.566l-26.158 26.129c-.232.232-.493.348-.783.348ZM88.595 98.339a5.112 5.112 0 0 1-3.16-1.102L51.445 70.76c-.493-.377-.58-1.073-.203-1.537.377-.493 1.073-.551 1.537-.203l34.017 26.477a2.92 2.92 0 0 0 3.625 0L124.44 69.02a1.077 1.077 0 0 1 1.537.203c.377.493.29 1.16-.203 1.537L91.756 97.237a5.051 5.051 0 0 1-3.16 1.102Z" fill="currentColor"/><path d="M88.508 82.904c-6.248 0-11.303-5.082-11.303-11.303 0-6.22 5.083-11.303 11.303-11.303 6.248 0 11.303 5.082 11.303 11.303a.602.602 0 1 1-1.204 0c0-5.584-4.546-10.099-10.099-10.099-5.584 0-10.099 4.546-10.099 10.099 0 5.554 4.545 10.099 10.1 10.099a.602.602 0 1 1 0 1.204Z" fill="currentColor" stroke="currentColor"/><path d="M92.024 71.456v-.007c-.033-2.355-1.902-4.234-4.24-4.234a4.25 4.25 0 0 0-4.242 4.241 4.25 4.25 0 0 0 4.241 4.241 4.25 4.25 0 0 0 4.241-4.241Zm-4.24 5.416c-3.002 0-5.446-2.444-5.446-5.445 0-3 2.444-5.445 5.445-5.445 3 0 5.444 2.443 5.445 5.443-.028 3.005-2.476 5.447-5.445 5.447Z" fill="currentColor" stroke="currentColor"/><path d="M92.597 76.872a.602.602 0 0 1-.602-.602v-9.657a.602.602 0 1 1 1.204 0v9.657c0 .333-.269.602-.602.602Z" fill="currentColor" stroke="currentColor"/><path d="M95.903 80.41a3.906 3.906 0 0 1-3.908-3.908v-4.988a.602.602 0 1 1 1.204 0v4.988a2.703 2.703 0 1 0 5.408 0v-4.988a.601.601 0 1 1 1.204 0v4.988a3.906 3.906 0 0 1-3.908 3.908Z" fill="currentColor" stroke="currentColor"/>
  </symbol>
</svg>
  