<svg width="174" height="174" viewBox="0 0 174 174" fill="none" xmlns="http://www.w3.org/2000/svg">
  <symbol id="item" viewBox="0 0 174 174"  fill="none">
    <path opacity=".1" d="M106.72 103.153H46.951a6.61 6.61 0 0 1-6.612-6.612V45.066a6.61 6.61 0 0 1 6.612-6.612h59.769a6.61 6.61 0 0 1 6.612 6.612v51.475a6.61 6.61 0 0 1-6.612 6.612Z" fill="currentColor"/><path d="M52.838 76.502a1.102 1.102 0 0 1-1.102-1.102V64.554c0-5.481 4.466-9.947 9.947-9.947h.348a1.102 1.102 0 1 1 0 2.204h-.348c-4.263 0-7.743 3.48-7.743 7.743V75.4c0 .609-.493 1.102-1.102 1.102Z" fill="currentColor"/><path d="M125.831 81.454a.601.601 0 0 1-.602-.602V64.554c0-4.54-3.704-8.243-8.243-8.243h-.609a.601.601 0 1 1 0-1.204h.609c5.205 0 9.447 4.242 9.447 9.447v16.298a.601.601 0 0 1-.602.602Z" fill="currentColor" stroke="currentColor"/><path d="M125.831 76.502a1.102 1.102 0 0 1-1.102-1.102V64.554c0-4.263-3.48-7.743-7.743-7.743h-.609a1.102 1.102 0 1 1 0-2.204h.609c5.481 0 9.947 4.466 9.947 9.947V75.4c0 .609-.493 1.102-1.102 1.102ZM105.995 56.84H79.692a1.102 1.102 0 1 1 0-2.204h26.303a1.102 1.102 0 1 1 0 2.204Z" fill="currentColor"/><path d="M73.247 60.61v.007c.025 1.803-1.483 3.321-3.328 3.321h-.957a3.324 3.324 0 0 1-3.328-3.328v-7.54a3.324 3.324 0 0 1 3.328-3.328h.957a3.324 3.324 0 0 1 3.328 3.328v7.54Zm-4.285-9.693a2.121 2.121 0 0 0-2.124 2.124v7.54c0 1.175.949 2.124 2.124 2.124h.957a2.121 2.121 0 0 0 2.124-2.124v-7.54a2.121 2.121 0 0 0-2.124-2.124h-.957ZM113.006 60.61v.007c.025 1.803-1.483 3.321-3.328 3.321h-.957a3.324 3.324 0 0 1-3.328-3.328v-7.54a3.324 3.324 0 0 1 3.328-3.328h.957a3.324 3.324 0 0 1 3.328 3.328v7.54Zm-4.285-9.693a2.121 2.121 0 0 0-2.124 2.124v7.54c0 1.175.949 2.124 2.124 2.124h.957a2.121 2.121 0 0 0 2.124-2.124v-7.54a2.121 2.121 0 0 0-2.124-2.124h-.957ZM48.202 118.141v-.001l4.031-38.367v-.005a.609.609 0 0 1 1.21.135v.003l-4.031 38.362v.001c-.463 4.505 2.806 8.582 7.319 9.045l51.184 5.394.005.001c.321.03.568.325.535.672a.6.6 0 0 1-.604.534H107.761l-51.158-5.391c-5.178-.551-8.951-5.207-8.4-10.383ZM124.965 87.458l.001-.005a.608.608 0 0 1 1.208.135l-.579 5.566-.001.002a.6.6 0 0 1-.604.536H124.901a.608.608 0 0 1-.515-.669l.579-5.565Z" fill="currentColor" stroke="currentColor"/><path d="m67.235 96.307-.01-.001-.01-.001-2.842-.29-.008-.001h-.007a.194.194 0 0 1-.139-.075.176.176 0 0 1-.04-.134l.001-.013.001-.012.29-2.842.001-.008v-.007a.194.194 0 0 1 .075-.139.175.175 0 0 1 .134-.04l.013.001.012.001 2.842.29.008.001h.007c.054.004.103.031.139.075a.175.175 0 0 1 .04.134l-.001.013-.001.012-.29 2.842-.001.008v.007a.196.196 0 0 1-.07.142.18.18 0 0 1-.144.037ZM78.902 97.552l-.008-.001h-.007a.194.194 0 0 1-.139-.075.176.176 0 0 1-.04-.134l.001-.013.001-.012.29-2.842.001-.008v-.007a.194.194 0 0 1 .075-.139.176.176 0 0 1 .134-.04l.013.001.012.001 2.842.29.008.001h.007c.054.005.103.031.139.075a.176.176 0 0 1 .04.134l-.001.013-.001.012-.29 2.842-.002.013c-.006.079-.092.186-.243.178l-2.832-.29ZM93.43 99.088h-.014a.194.194 0 0 1-.139-.075.175.175 0 0 1-.04-.134l.001-.013.001-.012.29-2.842.001-.008v-.007a.194.194 0 0 1 .075-.139.176.176 0 0 1 .134-.04l.013.001.012.001 2.842.29.008.001h.007c.054.004.103.031.139.075a.176.176 0 0 1 .04.134l-.001.013-.001.012-.29 2.842-.001.013c-.007.079-.093.185-.244.178l-2.832-.29ZM107.96 100.626l-.008-.001-.007-.001a.197.197 0 0 1-.139-.074.178.178 0 0 1-.041-.134l.002-.013.001-.012.29-2.842.001-.008.001-.007a.195.195 0 0 1 .074-.139.177.177 0 0 1 .134-.04l.013.001.012.001 2.842.29.008.001h.007c.054.005.103.031.139.075a.177.177 0 0 1 .041.134l-.002.013-.001.012-.29 2.842h-.001l-.001.013c-.006.079-.092.186-.243.178l-2.832-.289ZM66.075 107.269l-.01-.001-.01-.001-2.842-.29-.008-.001-.007-.001a.195.195 0 0 1-.139-.074.177.177 0 0 1-.04-.134l.001-.013.001-.012.29-2.842.001-.008v-.007a.197.197 0 0 1 .075-.139.177.177 0 0 1 .134-.041l.013.002.012.001 2.842.29.008.001.007.001c.054.004.103.03.139.074a.177.177 0 0 1 .04.134l-.001.013-.001.012-.29 2.842-.001.008v.007a.195.195 0 0 1-.07.142.18.18 0 0 1-.144.037ZM80.604 108.806l-.01-.001-.01-.001-2.842-.29-.008-.001-.007-.001a.194.194 0 0 1-.139-.074.177.177 0 0 1-.04-.134l.001-.013.001-.012.29-2.842.001-.008v-.007a.196.196 0 0 1 .075-.139.177.177 0 0 1 .134-.041l.013.002.012.001 2.842.29.008.001.007.001c.054.004.103.03.138.074a.177.177 0 0 1 .042.134l-.002.013-.001.012-.29 2.842-.001.008v.007a.195.195 0 0 1-.07.142.18.18 0 0 1-.144.037ZM92.27 110.051l-.007-.001-.007-.001a.195.195 0 0 1-.139-.074.177.177 0 0 1-.04-.134l.001-.013.001-.012.29-2.842.001-.008v-.007a.196.196 0 0 1 .075-.139.177.177 0 0 1 .134-.041l.013.002.012.001 2.842.29.008.001.007.001c.054.004.103.03.139.074a.176.176 0 0 1 .04.134l-.001.013-.001.012-.29 2.842-.001.008v.007a.167.167 0 0 1-.063.127.27.27 0 0 1-.18.049l-2.833-.289ZM62.053 117.968l-.008-.001-.007-.001a.195.195 0 0 1-.139-.074.177.177 0 0 1-.04-.134l.001-.013.001-.012.29-2.842.001-.008v-.007a.196.196 0 0 1 .075-.139.177.177 0 0 1 .134-.041l.013.002.012.001 2.842.29.008.001.007.001c.054.004.103.03.139.074a.177.177 0 0 1 .04.134l-.001.013-.001.012-.29 2.842-.002.013c-.006.079-.092.186-.243.178l-2.832-.289ZM79.444 119.768l-.01-.001-.01-.001-2.842-.29-.008-.001-.007-.001a.195.195 0 0 1-.139-.074.177.177 0 0 1-.04-.134l.001-.013.001-.012.29-2.842.001-.008v-.007a.197.197 0 0 1 .075-.139.177.177 0 0 1 .134-.041l.013.002.012.001 2.842.29.008.001.007.001c.054.004.103.03.138.074a.177.177 0 0 1 .042.134l-.002.013-.002.012-.29 2.842v.015a.195.195 0 0 1-.07.142.18.18 0 0 1-.144.037ZM93.973 121.305l-.01-.001-.01-.001-2.842-.29-.008-.001-.007-.001a.195.195 0 0 1-.139-.074.177.177 0 0 1-.04-.134l.001-.013.001-.012.29-2.842.001-.008v-.007a.196.196 0 0 1 .075-.139.177.177 0 0 1 .134-.041l.013.002.012.001 2.842.29.008.001.007.001c.054.004.103.03.138.074a.177.177 0 0 1 .042.134l-.002.013-.001.012-.29 2.842-.001.008v.007a.195.195 0 0 1-.07.142.18.18 0 0 1-.144.037ZM117.911 90.273h-.003c-1.992-.21-2.961-1.147-3.809-1.968l-.039-.038-.016-.015c-.378-.378-.761-.76-1.237-1.06-.498-.312-1.08-.523-1.86-.602h-.001c-.792-.08-1.405.006-1.953.204-.498.18-.929.45-1.352.715l-.084.053-.01.006c-.989.65-2.141 1.381-4.168 1.168-1.992-.21-2.961-1.147-3.81-1.968l-.038-.037-.016-.016c-.378-.379-.76-.76-1.237-1.06-.498-.312-1.08-.523-1.86-.602h-.001c-.792-.08-1.404.006-1.953.204-.498.18-.928.45-1.352.715l-.084.053-.01.006c-.988.65-2.17 1.38-4.167 1.168-1.993-.21-2.962-1.147-3.81-1.968l-.04-.037-.015-.016c-.378-.379-.76-.76-1.237-1.06-.498-.312-1.08-.523-1.86-.602-.78-.08-1.392.007-1.942.204-.516.185-.963.465-1.402.74l-.046.028-.01.006c-.989.65-2.141 1.381-4.168 1.168-1.992-.21-2.961-1.147-3.81-1.968l-.038-.038-.016-.015c-.378-.379-.76-.76-1.237-1.06-.498-.312-1.08-.523-1.86-.602-.78-.08-1.392.007-1.942.204-.516.185-.963.465-1.402.74l-.046.028-.01.006c-.989.65-2.141 1.381-4.168 1.168-1.992-.21-2.961-1.147-3.81-1.968l-.038-.038-.016-.015c-.378-.379-.76-.76-1.237-1.06-.498-.312-1.08-.523-1.86-.602h-.004a.608.608 0 0 1 .135-1.21c1.99.21 2.96 1.148 3.807 1.968l.04.037.015.016c.378.378.76.76 1.237 1.06.498.312 1.08.523 1.86.602.78.08 1.392-.007 1.942-.204.516-.185.963-.465 1.402-.74l.046-.028.01-.006c.989-.65 2.141-1.381 4.168-1.168 1.992.21 2.961 1.147 3.81 1.968l.038.038.016.015c.378.378.76.76 1.237 1.06.498.312 1.08.523 1.86.602.78.08 1.392-.007 1.942-.204.516-.185.963-.465 1.402-.74l.046-.028.01-.006c.989-.65 2.141-1.381 4.168-1.168 1.992.21 2.961 1.147 3.81 1.968l.038.037.016.016c.378.378.76.76 1.237 1.06.498.312 1.08.523 1.86.602.78.08 1.392-.007 1.942-.204.516-.185.963-.465 1.402-.74l.046-.028.01-.006c.989-.65 2.141-1.381 4.168-1.168 1.992.21 2.961 1.147 3.809 1.968l.039.037.016.016c.378.378.761.76 1.237 1.06.498.312 1.08.523 1.86.602.78.08 1.392-.007 1.942-.204.516-.185.963-.465 1.402-.74l.046-.028.01-.006c.989-.65 2.141-1.381 4.168-1.168 1.992.21 2.961 1.147 3.809 1.968l.039.037.016.016c.378.378.761.76 1.237 1.06.498.312 1.08.523 1.86.602h.001c.792.08 1.411-.006 1.962-.204.533-.191.982-.48 1.42-.763l.013-.009.004-.002c.989-.65 2.141-1.381 4.168-1.168h.005a.608.608 0 0 1-.137 1.21c-.791-.08-1.409.006-1.96.204-.533.19-.982.48-1.42.763l-.013.009-.006.004c-.85.566-1.848 1.192-3.464 1.192-.236 0-.47 0-.699-.026Z" fill="currentColor" stroke="currentColor"/><path d="M125.831 76.502H52.838a1.102 1.102 0 1 1 0-2.204h72.993a1.102 1.102 0 1 1 0 2.204ZM122.293 134.792c-10.817 0-19.604-8.787-19.604-19.604 0-10.817 8.787-19.604 19.604-19.604 10.817 0 19.604 8.787 19.604 19.604 0 10.817-8.787 19.604-19.604 19.604Zm0-36.975c-9.599 0-17.4 7.801-17.4 17.4 0 9.599 7.801 17.4 17.4 17.4 9.599 0 17.4-7.801 17.4-17.4 0-9.599-7.801-17.4-17.4-17.4Z" fill="currentColor"/><path d="M130.094 119.248h-9.28a1.102 1.102 0 1 1 0-2.204h9.28a1.102 1.102 0 1 1 0 2.204Z" fill="currentColor"/><path d="M120.843 119.248a1.102 1.102 0 0 1-1.102-1.102v-11.484a1.102 1.102 0 1 1 2.204 0v11.484c0 .609-.493 1.102-1.102 1.102Z" fill="currentColor"/>
  </symbol>
</svg>
  