<svg width="174" height="174" viewBox="0 0 174 174" fill="none" xmlns="http://www.w3.org/2000/svg">
  <symbol id="item" viewBox="0 0 174 174"  fill="none">
    <path opacity=".1" d="M102.515 106.517H58.464a10.174 10.174 0 0 1-10.179-10.179V53.621a10.174 10.174 0 0 1 10.179-10.179h44.051a10.174 10.174 0 0 1 10.179 10.179v42.717a10.174 10.174 0 0 1-10.179 10.179Z" fill="currentColor"/><path d="M62.85 115.304V83.121h49.46v10.52a.601.601 0 1 1-1.204 0v-9.316H64.054v31.008a5.154 5.154 0 0 0 5.14 5.14H95.73c.333 0 .602.269.602.602 0 .316-.251.573-.602.573H69.194c-3.494 0-6.344-2.85-6.344-6.344Z" fill="currentColor" stroke="currentColor"/><path d="M112.984 84.796H62.176a4.468 4.468 0 0 1-4.466-4.466v-5.916a4.468 4.468 0 0 1 4.466-4.466h50.779a4.468 4.468 0 0 1 4.466 4.466v5.916c0 2.465-2.001 4.466-4.437 4.466ZM62.176 72.181a2.265 2.265 0 0 0-2.262 2.262v5.916a2.265 2.265 0 0 0 2.262 2.262h50.779a2.265 2.265 0 0 0 2.262-2.262v-5.916a2.265 2.265 0 0 0-2.262-2.262H62.176Z" fill="currentColor"/><path d="M87.58 121.648a.601.601 0 0 1-.602-.602V71.079a.602.602 0 1 1 1.204 0v49.996c0 .316-.252.573-.602.573Z" fill="currentColor" stroke="currentColor"/><path d="M68.275 64.845c-1.294-2.48-.857-5.128 1.11-6.91l.003-.002c2.043-1.882 6.025-2.835 9.828-.355l.002.001c3.127 2.02 5.332 5.244 6.776 8.048 1.36 2.645 2.022 4.87 2.138 5.26l.012.042.185.662-.706.063-.027.002-.027.006h-.001l-.053.006a17.971 17.971 0 0 1-.716.053c-.462.025-1.099.047-1.858.047-2.297 0-5.692-.209-8.91-1.192-3.22-.985-6.191-2.724-7.757-5.73Zm1.947-6.027-.003.003c-.783.719-1.274 1.586-1.425 2.541-.15.954.047 1.954.567 2.932 1.61 3.094 4.956 4.665 8.249 5.462 3.31.802 6.688.852 8.532.808l.696-.017-.238-.654c-.471-1.295-1.332-3.387-2.635-5.517-1.3-2.125-3.06-4.319-5.337-5.782h-.001c-1.442-.92-2.898-1.297-4.213-1.297-1.684 0-3.197.622-4.192 1.52Z" fill="currentColor" stroke="currentColor"/><path d="m87.546 71.659-.019-.003-.019-.002-.706-.063.185-.662.012-.042c.117-.39.777-2.615 2.138-5.26 1.444-2.804 3.649-6.028 6.776-8.048 3.83-2.48 7.786-1.502 9.832.355 1.973 1.815 2.43 4.436 1.114 6.907l-.003.006c-1.551 3.006-4.514 4.744-7.732 5.729-3.213.983-6.608 1.192-8.905 1.192-1.532 0-2.542-.087-2.673-.11Zm1.042-1.764-.232.647.687.022c1.832.058 5.204.016 8.515-.786 3.294-.798 6.647-2.377 8.271-5.486l.001-.002c.504-.976.7-1.974.554-2.925-.146-.955-.629-1.823-1.414-2.544l-.001-.002c-1.795-1.634-5.146-2.317-8.378-.255l-.002.002c-2.29 1.477-4.056 3.67-5.36 5.795-1.307 2.13-2.17 4.223-2.64 5.534ZM87.58 144.79a.601.601 0 0 1-.602-.602v-8.178a.601.601 0 1 1 1.204 0v8.178c0 .333-.27.602-.602.602ZM87.58 44.015a.602.602 0 0 1-.602-.602v-8.178a.602.602 0 1 1 1.204 0v8.178c0 .333-.27.602-.602.602ZM142.042 90.299h-8.178a.601.601 0 1 1 0-1.204h8.178c.333 0 .602.27.602.602 0 .353-.26.602-.602.602ZM41.296 90.299h-8.178a.602.602 0 1 1 0-1.204h8.178c.333 0 .602.27.602.602 0 .353-.26.602-.602.602ZM54.839 57.587c-.141 0-.286-.052-.442-.185l-5.758-5.759a.603.603 0 0 1 0-.858c.24-.24.619-.24.858 0l5.771 5.77a.603.603 0 0 1-.429 1.032ZM49.068 128.811c-.14 0-.285-.052-.44-.184a.602.602 0 0 1 .01-.847l5.772-5.771c.24-.24.619-.24.858 0 .24.239.24.619 0 .858l-5.77 5.771a.55.55 0 0 1-.43.173ZM120.321 57.587c-.141 0-.285-.052-.44-.184a.602.602 0 0 1 .011-.847l5.771-5.771a.602.602 0 0 1 .858 0c.24.24.24.619 0 .858l-5.757 5.758a.736.736 0 0 1-.443.186ZM68.609 131.945l.002-.004a.62.62 0 0 1 .795-.313.62.62 0 0 1 .314.793l-3.247 7.509v.001a.61.61 0 0 1-.8.314.62.62 0 0 1-.311-.791l3.247-7.509ZM108.687 39.493l.002-.004a.62.62 0 0 1 .795-.313.62.62 0 0 1 .314.793l-3.244 7.501a.621.621 0 0 1-.559.373.666.666 0 0 1-.245-.05.62.62 0 0 1-.31-.791l3.247-7.509ZM37.377 68.62v-.001l-.005-.002a.62.62 0 0 1-.313-.795.62.62 0 0 1 .793-.314l7.509 3.247.004.002a.62.62 0 0 1 .32.78c-.13.245-.367.376-.56.376a.661.661 0 0 1-.245-.049l-7.504-3.245ZM66.99 39.285l-.003-.01c-.116-.275.024-.632.342-.766.274-.116.63.023.765.338l3.013 7.593.004.009c.116.275-.024.632-.342.766l-.015.006-.015.008a.436.436 0 0 1-.182.034.592.592 0 0 1-.55-.381l-3.016-7.597ZM36.366 109.956l-.003-.008c-.115-.274.023-.629.338-.764l7.593-3.014.01-.004c.274-.116.631.024.765.342l.455-.191-.455.191c.116.274-.022.629-.338.764l-7.592 3.014-.02.008-.02.01a.44.44 0 0 1-.182.034.591.591 0 0 1-.55-.382ZM130.065 72.923l-.003-.008c-.115-.274.023-.63.338-.764l7.593-3.014h.001c.309-.124.64.02.774.338.116.274-.022.63-.338.765l-7.592 3.013-.02.008-.02.01a.432.432 0 0 1-.182.034.593.593 0 0 1-.551-.382Z" fill="currentColor" stroke="currentColor"/><path d="M118.929 137.054c-10.759 0-19.517-8.758-19.517-19.517s8.758-19.517 19.517-19.517 19.517 8.758 19.517 19.517-8.729 19.517-19.517 19.517Zm0-36.888c-9.57 0-17.342 7.772-17.342 17.342 0 9.57 7.772 17.342 17.342 17.342 9.57 0 17.342-7.772 17.342-17.342 0-9.57-7.772-17.342-17.342-17.342Z" fill="currentColor"/><path d="M116.754 125.918c-.29 0-.551-.116-.783-.319a1.103 1.103 0 0 1 0-1.566l13.456-13.456a1.103 1.103 0 0 1 1.566 0 1.103 1.103 0 0 1 0 1.566l-13.456 13.456a1.095 1.095 0 0 1-.783.319Z" fill="currentColor"/><path d="M116.754 125.918c-.29 0-.551-.116-.783-.319l-8.091-8.062a1.103 1.103 0 0 1 0-1.566 1.103 1.103 0 0 1 1.566 0l8.091 8.091a1.103 1.103 0 0 1 0 1.566c-.232.203-.522.29-.783.29Z" fill="currentColor"/>
  </symbol>
</svg>
  