
<svg width="1em" height="1em"    viewBox="0 0 174 174" fill="none" xmlns="http://www.w3.org/2000/svg">
<symbol id="item"
width="1em"
height="1em"
viewBox="0 0 174 174"
fill="none"
>
<path opacity=".1" d="m130.101 100.953-1.679-1.937c-1.032-1.162-2.84-1.162-3.873.13-1.033 1.291-2.84 1.162-3.873 0l-8.005-9.683c-.903-1.033-2.324-1.292-3.356-.517l-4.777 3.228c-1.033.774-2.454.516-3.357-.517l-5.94-6.971c-1.161-1.42-3.227-1.163-4.13.387L73.034 114.38c-.775 1.291-2.453 1.679-3.615.775l-4.39-2.97c-1.162-.774-2.71-.516-3.615.775l-11.748 17.688c-.388.645.129 1.42.774 1.291l36.15-6.585c3.357-.645 6.456-2.582 8.393-5.551l4.002-5.81c1.033-1.42 2.711-2.324 4.39-2.066l5.939 2.066c1.936.258 4.894 1.162 8.521-1.162l12.265-8.392c1.033-1.033.904-2.582 0-3.486ZM100.829 71.376l1.549.774c2.969 1.42 6.455 1.42 9.425-.129 3.098-1.678 6.842-1.55 9.941.13l1.808 1.032c1.161.646 2.582-.129 2.582-1.55V56.787c0-.645-.388-1.162-.904-1.549l-3.486-1.937c-3.099-1.678-6.843-1.807-9.941-.129-2.97 1.55-6.456 1.55-9.425.13-1.162-.517-2.582.258-2.582 1.549v14.847c0 .775.387 1.291 1.033 1.679Z" fill="currentColor"/><path d="m93.376 53.232 3.356 1.678c2.453 1.162 5.423 1.162 7.876-.129l1.678-.904c2.582-1.29 5.681-1.29 8.263.13l5.165 2.969M93.376 48.232l3.356 1.678c2.453 1.162 5.423 1.162 7.876-.129l1.678-.904c2.582-1.29 5.681-1.29 8.263.13l5.294 2.969" stroke="currentColor" stroke-width="2" stroke-miterlimit="10" stroke-linecap="round" stroke-linejoin="round"/><path d="m93.376 58.286 3.356 1.678c2.453 1.163 5.423 1.163 7.876-.129l1.678-.903c2.582-1.291 5.681-1.291 8.263.129l5.294 2.97V47.05l-5.294-2.97c-2.453-1.42-5.681-1.42-8.263-.128l-1.678.903c-2.453 1.292-5.423 1.292-7.876.13l-3.356-1.679v14.98ZM93.376 81.394V43.436" stroke="currentColor" stroke-width="2" stroke-miterlimit="10" stroke-linecap="round" stroke-linejoin="round"/><path d="m43 124.275 13.169-18.334c.904-1.162 2.453-1.42 3.615-.645l4.39 2.84c1.29.775 2.84.387 3.744-.774L86.38 79.474c1.033-1.42 3.099-1.678 4.26-.387l6.069 6.584c.904.904 2.324 1.162 3.486.517l4.906-3.099c1.162-.645 2.582-.516 3.486.517l8.263 9.166c1.033 1.162 2.969 1.162 4.002 0a2.587 2.587 0 0 1 3.873 0l3.357 3.486" stroke="var(--color--bulma-100)" stroke-width="2" stroke-miterlimit="10" stroke-linecap="round" stroke-linejoin="round"/><path d="m67.272 123.747 8.65-7.101c1.163-.904 2.841-1.033 4.132-.259l2.324 1.421c1.55.903 3.615.516 4.648-.904l6.714-8.78c1.42-1.807 4.131-1.807 5.551-.129l7.489 8.78c.387.516 1.032.903 1.678 1.162l4.519 1.291c.903.258 1.936.129 2.84-.388l7.488-4.26M52.684 73.369c1.593 1.838 4.044 2.941 6.617 2.941 2.941 0 5.515-1.348 7.108-3.554.735.368 1.47.49 2.328.49 1.226 0 2.329-.367 3.187-.98.735.735 1.715 1.348 2.94 1.348 2.207 0 3.922-1.716 3.922-3.922 0-2.205-1.715-3.921-3.921-3.921-.368 0-.613 0-.858.122-.735-2.083-2.819-3.676-5.27-3.676a5.08 5.08 0 0 0-1.96.367c-1.594-2.573-4.412-4.166-7.598-4.166-4.412 0-8.211 3.309-8.824 7.475-.368-.122-.613-.122-.98-.122-2.206 0-3.922 1.716-3.922 3.921 0 1.594.858 2.942 2.206 3.554" stroke="var(--color--bulma-100)" stroke-width="2" stroke-miterlimit="10" stroke-linecap="round" stroke-linejoin="round"/>
</symbol>
</svg>
  