<svg width="174" height="174" viewBox="0 0 174 174" fill="none" xmlns="http://www.w3.org/2000/svg">
  <symbol id="item" viewBox="0 0 174 174"  fill="none">
    <path opacity=".1" d="M127.716 122.496h-53.68V41.499A10.631 10.631 0 0 1 84.68 30.856h32.393a10.631 10.631 0 0 1 10.643 10.643v80.997Z" fill="currentColor"/><path d="m82.522 115.252-.005-.005-2.175-2.262-.007-.007v-.001c-.007-.006-.03-.029-.058-.052a.569.569 0 0 0-.537-.108l-3.052.485a1.822 1.822 0 0 1-1.663-.614 1.803 1.803 0 0 1-.34-1.75l2.435-7.304c.119-.336.453-.491.754-.386.314.11.48.436.384.77l-2.434 7.3-.025.077v.037a.57.57 0 0 0 .05.338.65.65 0 0 0 .125.176l.349-.349-.349.349c.038.037.15.149.325.183a.522.522 0 0 0 .308-.028l3.016-.479h.001c.59-.09 1.18.114 1.59.546l2.175 2.291.01.01.353-.354-.353.354v.001l.001.001.003.002.005.005.012.011.033.028a.605.605 0 0 0 .531.116.59.59 0 0 0 .457-.454l3.177-9.442c.119-.337.453-.492.754-.387.313.11.48.436.384.769l-3.187 9.475v.001a1.77 1.77 0 0 1-1.295 1.173c-.074.009-.133.018-.184.025a1.87 1.87 0 0 1-.28.026c-.47 0-.947-.203-1.288-.567Zm-5.74-3.642.001-.003-.001.006v-.003Zm-.974-.225v.002a.09.09 0 0 1 0-.003v.001ZM93.581 112.997Zm-.33.559.448-.224-.447.224v.002l.002.002.002.005.006.011.016.028a.691.691 0 0 0 .284.262l.224-.447-.224.447a.56.56 0 0 0 .456.024h.099l.147-.156 2.175-2.291c.41-.432 1-.636 1.59-.546h.002l3.1.493.039.006H101.213c.018 0 .074 0 .142-.013a.781.781 0 0 0 .194-.069l.073-.036.057-.057a.58.58 0 0 0 .176-.514v-.037l-.026-.077-2.436-7.308-.002-.007c-.106-.301.051-.637.389-.755.3-.105.635.05.754.386l2.435 7.304a1.805 1.805 0 0 1-.341 1.75c-.416.485-1.054.726-1.646.616l-.013-.002-3.103-.493-.039-.006h-.042c-.016 0-.073 0-.137.01a.61.61 0 0 0-.33.165l-.009.01-2.164 2.28c-.38.352-.866.551-1.33.551-.123 0-.253-.02-.428-.049a1.779 1.779 0 0 1-1.302-1.177l-2-6.058-.003-.008c-.106-.301.051-.637.389-.755.3-.105.634.05.754.386l2 6.056.01.034.017.033Zm7.621-2.668-.001-.005v.002l.001.002v.001Zm.973-.229c-.002-.011-.001-.008.001.003v-.002l-.001-.001Z" fill="currentColor" stroke="currentColor"/><path d="M87.812 105.792c-1.218 0-2.204-.725-3.045-1.334-.464-.348-.928-.696-1.305-.812-.435-.145-1.015-.145-1.624-.145-1.044 0-2.233 0-3.19-.696-.957-.696-1.334-1.827-1.653-2.842-.174-.58-.377-1.131-.61-1.479-.26-.348-.724-.667-1.188-1.015-.87-.609-1.827-1.305-2.204-2.465-.348-1.102 0-2.233.319-3.19.203-.609.377-1.16.377-1.624 0-.464-.174-1.015-.377-1.624-.32-.986-.696-2.088-.32-3.19.378-1.16 1.335-1.856 2.205-2.465.493-.348.957-.696 1.189-1.015.26-.348.435-.899.609-1.479.319-.986.696-2.117 1.653-2.842.957-.696 2.146-.696 3.19-.696.609 0 1.189 0 1.624-.145.377-.116.84-.464 1.305-.812.84-.638 1.827-1.334 3.045-1.334s2.204.725 3.045 1.334c.464.348.928.696 1.305.812.435.145.986.145 1.624.145 1.044 0 2.233 0 3.19.696.957.696 1.334 1.827 1.653 2.842.174.58.377 1.131.609 1.479.26.348.725.667 1.189 1.015.87.609 1.827 1.305 2.204 2.465.348 1.102 0 2.233-.319 3.19-.203.609-.377 1.16-.377 1.624 0 .464.174 1.015.377 1.624.319.986.696 2.088.319 3.19-.377 1.16-1.334 1.856-2.204 2.465-.493.348-.957.696-1.19 1.015-.26.348-.434.899-.608 1.479-.32.986-.696 2.117-1.653 2.842-.957.696-2.146.696-3.19.696-.61 0-1.19 0-1.624.145-.377.116-.841.464-1.305.812-.87.609-1.827 1.334-3.045 1.334Zm-5.858-4.466c.725 0 1.45 0 2.146.232.725.232 1.334.696 1.943 1.131.638.464 1.247.928 1.74.928.493 0 1.102-.435 1.74-.928.609-.435 1.218-.899 1.943-1.131.754-.232 1.537-.232 2.29-.232.755 0 1.509 0 1.886-.261.377-.29.609-1.015.84-1.74.233-.725.465-1.479.929-2.088.464-.638 1.073-1.073 1.682-1.508.638-.464 1.247-.899 1.392-1.363.145-.435-.087-1.16-.319-1.856-.232-.725-.493-1.479-.493-2.291 0-.812.26-1.566.493-2.291.232-.696.464-1.421.319-1.856-.145-.464-.754-.899-1.392-1.363-.61-.435-1.247-.899-1.682-1.508-.464-.638-.696-1.392-.928-2.088-.232-.725-.464-1.45-.841-1.74-.377-.261-1.131-.261-1.885-.261s-1.537 0-2.291-.232c-.725-.232-1.334-.696-1.943-1.131-.638-.464-1.247-.928-1.74-.928-.493 0-1.102.435-1.74.928-.61.435-1.218.899-1.943 1.131-.754.232-1.537.232-2.291.232-.725 0-1.508 0-1.885.261-.377.29-.61 1.015-.841 1.74-.232.725-.464 1.479-.928 2.088-.464.638-1.073 1.073-1.682 1.508-.638.464-1.247.899-1.392 1.363-.145.435.087 1.16.319 1.856.232.725.493 1.479.493 2.291 0 .812-.261 1.566-.493 2.291-.232.696-.464 1.421-.32 1.856.146.464.755.899 1.393 1.363.609.435 1.247.899 1.682 1.508.464.638.696 1.392.928 2.088.232.725.464 1.45.84 1.74.378.29 1.16.261 1.886.261h.145Z" fill="currentColor"/><path d="M52.548 107.329h-1.711a2.92 2.92 0 0 1-2.93-2.929V82.447c0-7.279 5.917-13.195 13.196-13.195h25.723a1.102 1.102 0 1 1 0 2.204H61.103c-6.061 0-11.02 4.93-11.02 11.02V104.4c0 .406.348.754.754.754h1.71c.61 0 1.103.493 1.103 1.102-.03.58-.493 1.073-1.102 1.073ZM77.778 135.372a1.102 1.102 0 0 1-1.102-1.102v-14.442a1.102 1.102 0 1 1 2.204 0v14.442c0 .609-.493 1.102-1.102 1.102ZM66.99 66.004c-5.365 0-9.744-4.379-9.744-9.744s4.379-9.744 9.744-9.744 9.744 4.379 9.744 9.744-4.35 9.744-9.744 9.744Zm0-17.284c-4.147 0-7.54 3.393-7.54 7.54s3.393 7.54 7.54 7.54 7.54-3.393 7.54-7.54c.029-4.176-3.364-7.54-7.54-7.54Z" fill="currentColor"/><path d="M55.94 135.372a1.102 1.102 0 0 1-1.101-1.102V84.738a1.102 1.102 0 1 1 2.204 0v49.532c0 .609-.493 1.102-1.102 1.102ZM66.99 135.372a1.102 1.102 0 0 1-1.102-1.102v-28.101a1.102 1.102 0 1 1 2.204 0v28.101c0 .609-.493 1.102-1.102 1.102ZM66.99 97.005a1.102 1.102 0 0 1-1.102-1.102v-.812a1.102 1.102 0 1 1 2.204 0v.812c0 .609-.493 1.102-1.102 1.102ZM66.99 89.349a1.102 1.102 0 0 1-1.102-1.102v-.812a1.102 1.102 0 1 1 2.204 0v.812c0 .609-.493 1.102-1.102 1.102ZM66.99 81.664a1.102 1.102 0 0 1-1.102-1.102v-.812a1.102 1.102 0 1 1 2.204 0v.812c0 .609-.493 1.102-1.102 1.102Z" fill="currentColor"/><path d="M124.526 106.829h-1.711a.601.601 0 1 1 0-1.204h1.711c.682 0 1.254-.572 1.254-1.254V82.418c0-6.335-5.152-11.52-11.491-11.52H87.812a.602.602 0 1 1 0-1.204h26.448c7.003 0 12.695 5.692 12.695 12.695V104.4a2.44 2.44 0 0 1-2.429 2.429ZM97.585 134.872a.601.601 0 0 1-.602-.602v-14.442a.601.601 0 1 1 1.204 0v14.429c-.023.359-.314.615-.602.615ZM108.344 65.504c-5.089 0-9.244-4.155-9.244-9.244 0-5.089 4.155-9.244 9.244-9.244 5.088 0 9.244 4.155 9.244 9.244 0 5.089-4.156 9.244-9.244 9.244Zm0-17.284c-4.424 0-8.04 3.617-8.04 8.04 0 4.423 3.616 8.04 8.04 8.04 4.423 0 8.04-3.617 8.04-8.04 0-4.453-3.619-8.04-8.04-8.04Z" fill="currentColor" stroke="currentColor"/><path d="M119.393 134.872a.601.601 0 0 1-.602-.602V84.738a.601.601 0 1 1 1.204 0v49.532a.601.601 0 0 1-.602.602ZM108.344 134.872a.601.601 0 0 1-.602-.602v-28.101a.601.601 0 1 1 1.204 0v28.101a.601.601 0 0 1-.602.602ZM108.344 96.505a.601.601 0 0 1-.602-.602v-.812a.601.601 0 1 1 1.204 0v.812a.601.601 0 0 1-.602.602ZM108.344 88.849a.601.601 0 0 1-.602-.602v-.812a.601.601 0 1 1 1.204 0v.812a.601.601 0 0 1-.602.602ZM108.344 81.164a.601.601 0 0 1-.602-.602v-.812a.601.601 0 1 1 1.204 0v.812a.601.601 0 0 1-.602.602ZM96.476 90.19v.003c.027 4.852-3.95 8.806-8.81 8.806-4.856 0-8.808-3.952-8.808-8.809 0-4.857 3.952-8.809 8.809-8.809 4.856 0 8.809 3.952 8.809 8.809Zm-8.81-7.634a7.629 7.629 0 0 0-7.633 7.634 7.629 7.629 0 0 0 7.634 7.634A7.629 7.629 0 0 0 95.3 90.19c0-4.19-3.413-7.634-7.634-7.634Z" fill="currentColor" stroke="currentColor"/>
  </symbol>
</svg>
  