<svg width="174" height="174" viewBox="0 0 174 174" fill="none" xmlns="http://www.w3.org/2000/svg">
  <symbol id="item" viewBox="0 0 174 174"  fill="none">
    <path opacity=".1" d="m132.798 77.836-7.454-5.884c3.269-4.185 2.615-10.2-1.569-13.6-4.185-3.269-10.2-2.615-13.6 1.57l-7.323-5.885c-1.83-1.438-4.577-1.177-6.015.654L58 103.466c-1.439 1.831-1.177 4.577.654 6.016l7.453 5.884c-3.269 4.185-2.615 10.2 1.57 13.6 4.184 3.269 10.199 2.615 13.599-1.569l7.454 5.884c1.83 1.438 4.576 1.177 6.015-.654l38.837-48.775c1.308-1.831 1.046-4.577-.784-6.016Z" fill="currentColor"/><path d="m65.66 69.619.542-.68" stroke="currentColor" stroke-width="2" stroke-miterlimit="10" stroke-linecap="round" stroke-linejoin="round"/><path d="m70.26 63.642 12.448-15.756c.406-.543 1.082-.543 1.488-.136l26.788 21.325c.541.408.541 1.087.135 1.494l-35.04 44.688c-.406.543-1.083.543-1.489.136L47.802 93.932c-.541-.407-.541-1.087-.135-1.494l14.07-17.794" stroke="currentColor" stroke-width="2" stroke-miterlimit="10" stroke-linecap="round" stroke-linejoin="round"/><path d="m117.343 65.68-7.712-6.113a10.145 10.145 0 0 0-1.624-14.126c-4.329-3.396-10.552-2.717-14.07 1.63l-7.576-6.112c-1.895-1.494-4.736-1.223-6.224.679L39.955 92.302c-1.488 1.902-1.218 4.754.676 6.248l7.712 6.112a10.146 10.146 0 0 0 1.624 14.127c4.329 3.395 10.553 2.716 14.07-1.63l7.712 6.112c1.894 1.494 4.735 1.222 6.223-.679l40.182-50.664c1.353-1.902 1.083-4.754-.811-6.248Z" stroke="currentColor" stroke-width="2" stroke-miterlimit="10" stroke-linejoin="round"/><path d="M102.596 55.628a3.254 3.254 0 0 0 3.247-3.26c0-1.8-1.454-3.26-3.247-3.26a3.253 3.253 0 0 0-3.247 3.26c0 1.8 1.453 3.26 3.247 3.26ZM55.649 114.85a3.254 3.254 0 0 0 3.247-3.26 3.253 3.253 0 0 0-3.247-3.26 3.253 3.253 0 0 0-3.247 3.26c0 1.8 1.454 3.26 3.247 3.26Z" stroke="currentColor" stroke-width="2" stroke-miterlimit="10" stroke-linejoin="round"/><path d="M75.808 76.41a4.067 4.067 0 0 0 4.058-4.075 4.067 4.067 0 0 0-4.058-4.075 4.067 4.067 0 0 0-4.06 4.075 4.067 4.067 0 0 0 4.06 4.075ZM80.813 97.192a4.067 4.067 0 0 0 4.06-4.075 4.067 4.067 0 0 0-4.06-4.075 4.067 4.067 0 0 0-4.058 4.075 4.067 4.067 0 0 0 4.058 4.075Z" stroke="currentColor" stroke-width="2" stroke-miterlimit="10" stroke-linejoin="round"/><path d="m65.12 86.597 24.893-7.742" stroke="currentColor" stroke-width="2" stroke-miterlimit="10" stroke-linecap="round" stroke-linejoin="round"/>
  </symbol>
</svg>
  