<svg width="174" height="174" viewBox="0 0 174 174" fill="none" xmlns="http://www.w3.org/2000/svg">
  <symbol id="item" viewBox="0 0 174 174"  fill="none">
    <path opacity=".1" d="M97.933 123.366h-49.88a6.442 6.442 0 0 1-6.438-6.438V37.12c0-3.567 2.9-6.438 6.438-6.438h49.88c3.567 0 6.438 2.9 6.438 6.438v79.808a6.423 6.423 0 0 1-6.438 6.438Z" fill="currentColor"/><path d="M110.2 134.125c-2.349 0-3.567-1.45-4.524-2.61-.957-1.16-1.566-1.827-2.813-1.827s-1.856.667-2.813 1.827c-.957 1.16-2.175 2.61-4.524 2.61s-3.567-1.45-4.524-2.61c-.957-1.16-1.566-1.827-2.813-1.827s-1.856.667-2.813 1.827c-.957 1.16-2.175 2.61-4.524 2.61s-3.567-1.45-4.524-2.61c-.957-1.16-1.566-1.827-2.813-1.827s-1.856.667-2.813 1.827c-.957 1.16-2.175 2.61-4.524 2.61s-3.567-1.45-4.524-2.61c-.957-1.16-1.566-1.827-2.813-1.827a1.102 1.102 0 1 1 0-2.204c2.35 0 3.567 1.45 4.524 2.61.957 1.16 1.566 1.827 2.813 1.827s1.856-.667 2.813-1.827c.957-1.16 2.175-2.61 4.524-2.61 2.35 0 3.567 1.45 4.524 2.61.957 1.16 1.566 1.827 2.813 1.827s1.856-.667 2.813-1.827c.957-1.16 2.175-2.61 4.524-2.61 2.35 0 3.567 1.45 4.524 2.61.957 1.16 1.566 1.827 2.813 1.827s1.856-.667 2.813-1.827c.957-1.16 2.175-2.61 4.524-2.61s3.567 1.45 4.524 2.61c.957 1.16 1.566 1.827 2.813 1.827s1.856-.667 2.813-1.827c.957-1.16 2.175-2.61 4.524-2.61a1.102 1.102 0 1 1 0 2.204c-1.247 0-1.856.667-2.813 1.827-.957 1.16-2.175 2.61-4.524 2.61Z" fill="currentColor"/><path d="M117.537 108.714a.601.601 0 0 1-.602-.602v-7.076a.601.601 0 1 1 1.204 0v7.076a.601.601 0 0 1-.602.602ZM58.812 108.714a.601.601 0 0 1-.602-.602V52.635c0-4.016 3.285-7.301 7.301-7.301h45.356c4.016 0 7.301 3.285 7.301 7.301v13.05a.601.601 0 1 1-1.204 0v-13.05a6.07 6.07 0 0 0-6.068-6.068H65.482a6.07 6.07 0 0 0-6.068 6.068v55.477c0 .333-.27.602-.602.602Z" fill="#0F161F" stroke="#0F161F"/><path d="M112.375 46.567a.601.601 0 0 1-.602-.602V43.5a3.576 3.576 0 0 0-3.574-3.574h-40.05a3.576 3.576 0 0 0-3.573 3.574v2.465a.601.601 0 1 1-1.204 0V43.5c0-2.624 2.154-4.778 4.778-4.778h40.049c2.624 0 4.778 2.154 4.778 4.778v2.465a.601.601 0 0 1-.602.602Z" fill="#0F161F" stroke="#0F161F"/><path d="M117.537 129.166a1.102 1.102 0 0 1-1.102-1.102v-12.905a1.102 1.102 0 1 1 2.204 0v12.905c0 .609-.493 1.102-1.102 1.102ZM58.812 129.166a1.102 1.102 0 0 1-1.102-1.102v-12.905a1.102 1.102 0 1 1 2.204 0v12.905c0 .609-.493 1.102-1.102 1.102Z" fill="currentColor"/><path d="M61.393 115.913h-2.581a1.102 1.102 0 1 1 0-2.204h2.581c.609 0 1.102.493 1.102 1.102a1.12 1.12 0 0 1-1.102 1.102ZM110.084 115.913h-4.872a1.102 1.102 0 1 1 0-2.204h4.872c.609 0 1.102.493 1.102 1.102a1.12 1.12 0 0 1-1.102 1.102Zm-9.744 0h-4.872a1.102 1.102 0 1 1 0-2.204h4.872c.609 0 1.102.493 1.102 1.102a1.12 1.12 0 0 1-1.102 1.102Zm-9.744 0h-4.872a1.102 1.102 0 1 1 0-2.204h4.872c.609 0 1.102.493 1.102 1.102.029.58-.493 1.102-1.102 1.102Zm-9.715 0h-4.872a1.102 1.102 0 1 1 0-2.204h4.872c.609 0 1.102.493 1.102 1.102a1.12 1.12 0 0 1-1.102 1.102Zm-9.744 0h-4.872a1.102 1.102 0 1 1 0-2.204h4.872c.609 0 1.102.493 1.102 1.102a1.12 1.12 0 0 1-1.102 1.102ZM117.537 115.913h-2.581a1.102 1.102 0 1 1 0-2.204h2.581c.609 0 1.102.493 1.102 1.102a1.12 1.12 0 0 1-1.102 1.102Z" fill="currentColor"/><path d="M88.16 82.005c-5.494 0-9.94-4.473-9.94-9.94 0-5.466 4.474-9.94 9.94-9.94 5.494 0 9.94 4.473 9.94 9.94s-4.446 9.94-9.94 9.94Zm0-18.676a8.73 8.73 0 0 0-8.736 8.736 8.73 8.73 0 0 0 8.736 8.736 8.73 8.73 0 0 0 8.736-8.736 8.73 8.73 0 0 0-8.736-8.736Z" fill="#0F161F" stroke="#0F161F"/><path d="M103.327 97.23a.601.601 0 0 1-.602-.602c0-8.02-6.517-14.536-14.536-14.536-8.02 0-14.536 6.517-14.536 14.536a.601.601 0 1 1-1.204 0c0-8.685 7.084-15.769 15.77-15.769 8.675 0 15.754 7.07 15.768 15.743-.045.368-.341.628-.66.628Z" fill="#0F161F" stroke="#0F161F"/><path d="M123.83 97.846c-8.004 0-14.5-6.496-14.5-14.5s6.496-14.5 14.5-14.5 14.5 6.496 14.5 14.5-6.496 14.5-14.5 14.5Zm0-26.767c-6.757 0-12.267 5.51-12.267 12.267s5.51 12.267 12.267 12.267 12.267-5.51 12.267-12.267c.029-6.757-5.481-12.267-12.267-12.267Z" fill="currentColor"/><path d="M117.972 90.335a1.103 1.103 0 0 1-.783-1.885l11.745-11.745a1.103 1.103 0 0 1 1.566 0 1.103 1.103 0 0 1 0 1.566l-11.745 11.745c-.232.203-.493.319-.783.319Z" fill="currentColor"/><path d="M129.717 90.335c-.29 0-.58-.116-.783-.319l-11.745-11.745a1.103 1.103 0 0 1 0-1.566 1.103 1.103 0 0 1 1.566 0L130.5 88.45a1.103 1.103 0 0 1 0 1.566c-.232.203-.493.319-.783.319Z" fill="currentColor"/>
  </symbol>
</svg>
  