<svg width="174" height="174" viewBox="0 0 174 174" fill="none" xmlns="http://www.w3.org/2000/svg">
  <symbol id="item" viewBox="0 0 174 174"  fill="none">
    <path opacity=".1" d="M106.633 104.835h-69.28a6.442 6.442 0 0 1-6.439-6.438v-54.81c0-3.567 2.9-6.438 6.438-6.438h69.281c3.567 0 6.438 2.9 6.438 6.438v54.81a6.423 6.423 0 0 1-6.438 6.438Z" fill="currentColor"/><path d="M64.641 104.132H45.682V61.509a9.414 9.414 0 0 1 9.418-9.418h64.612a9.413 9.413 0 0 1 9.418 9.418v30.276a.601.601 0 1 1-1.204 0V61.509a8.21 8.21 0 0 0-8.214-8.214H55.1a8.21 8.21 0 0 0-8.214 8.214v41.419h17.755c.333 0 .602.269.602.602a.621.621 0 0 1-.602.602Z" fill="#0F161F" stroke="#0F161F"/><path d="M40.55 116.406v-13.478h23.766l.145-.243 2.059-3.44h41.447a.601.601 0 1 1 0 1.204H67.2l-.146.243-2.058 3.44H41.753v12.274a3.99 3.99 0 0 0 3.98 3.98h55.622a.601.601 0 1 1 0 1.204H45.733a5.193 5.193 0 0 1-5.184-5.184ZM133.777 94.069c-.141 0-.285-.052-.44-.184a.602.602 0 0 1 .011-.848 6.578 6.578 0 0 0 1.944-4.674V53.157a.601.601 0 1 1 1.204 0v35.206c0 2.07-.816 4.031-2.289 5.504l.353.354-.353-.354a.637.637 0 0 1-.43.202Z" fill="#0F161F" stroke="#0F161F"/><path d="M135.894 79.076h-7.192a.601.601 0 1 1 0-1.204h7.192a.601.601 0 1 1 0 1.204ZM64.641 104.132H54.585V63.887c0-1.725 1.4-3.125 3.125-3.125h59.363c1.725 0 3.125 1.4 3.125 3.125v28.681a.601.601 0 1 1-1.204 0V63.887c0-1.06-.862-1.921-1.921-1.921H57.71c-1.06 0-1.921.862-1.921 1.921v39.041h8.852c.333 0 .602.269.602.602a.621.621 0 0 1-.602.602Z" fill="#0F161F" stroke="#0F161F"/><path d="M76.502 100.449a.601.601 0 0 1-.602-.602V61.364a.602.602 0 1 1 1.204 0v38.483c0 .333-.27.602-.602.602ZM98.339 100.449a.601.601 0 0 1-.602-.602V61.364a.601.601 0 1 1 1.204 0v38.483c0 .333-.27.602-.602.602ZM100.601 114.746H74.414c-1.839 0-3.473-1.853-3.473-4.343s1.634-4.343 3.473-4.343h27.666a.601.601 0 1 1 0 1.204H74.414c-.704 0-1.281.445-1.659 1.009-.382.571-.61 1.329-.61 2.13 0 .791.238 1.549.621 2.12.376.559.952 1.019 1.648 1.019h26.187a.601.601 0 1 1 0 1.204ZM105.524 129.253v.012l.001.012a.56.56 0 0 1-.574.578h-36.54a.601.601 0 1 1 0-1.204h36.511c.333 0 .602.269.602.602ZM63.8 129.855h-5.684a.601.601 0 1 1 0-1.204H63.8a.601.601 0 1 1 0 1.204Z" fill="#0F161F" stroke="#0F161F"/><path d="M76.502 75.77H55.216a.602.602 0 1 1 0-1.204h21.286a.601.601 0 1 1 0 1.204ZM119.625 75.77H98.339a.601.601 0 1 1 0-1.204h21.286a.601.601 0 1 1 0 1.204ZM98.339 91.169H76.502a.602.602 0 1 1 0-1.204h21.837a.601.601 0 1 1 0 1.204Z" fill="#0F161F" stroke="#0F161F"/><path d="M65.134 96.686c-.145 0-.261-.029-.406-.087a1.115 1.115 0 0 1-.638-1.421l4.031-10.295h-5.829a1.102 1.102 0 1 1 0-2.204h6.264c.638 0 1.218.319 1.566.841.348.522.435 1.189.203 1.769L66.178 95.99c-.174.435-.58.696-1.044.696ZM108.286 96.686c-.145 0-.261-.029-.406-.087a1.115 1.115 0 0 1-.638-1.421l4.031-10.295h-5.829a1.102 1.102 0 1 1 0-2.204h6.264c.638 0 1.218.319 1.566.841.348.522.435 1.189.203 1.769l-4.176 10.701c-.174.435-.58.696-1.015.696ZM86.652 83.549c-.145 0-.26-.029-.406-.087a1.115 1.115 0 0 1-.638-1.421l4.031-10.295H83.81a1.102 1.102 0 1 1 0-2.204h6.264c.638 0 1.218.319 1.566.841.348.522.435 1.189.203 1.769l-4.176 10.701c-.174.406-.58.696-1.015.696ZM125.251 134.792a19.542 19.542 0 0 1-13.862-5.742c-7.627-7.627-7.627-20.068 0-27.724 7.627-7.627 20.068-7.627 27.724 0 3.712 3.712 5.742 8.613 5.742 13.862 0 5.249-2.03 10.15-5.742 13.862a19.542 19.542 0 0 1-13.862 5.742Zm0-36.975c-4.466 0-8.903 1.682-12.296 5.075-6.786 6.786-6.786 17.806 0 24.592 6.786 6.786 17.806 6.786 24.592 0 6.786-6.786 6.786-17.806 0-24.592a17.467 17.467 0 0 0-12.296-5.075Z" fill="currentColor"/><path d="M112.172 129.398c-.29 0-.551-.116-.783-.319a1.103 1.103 0 0 1 0-1.566l26.158-26.158a1.103 1.103 0 0 1 1.566 0 1.103 1.103 0 0 1 0 1.566l-26.158 26.129c-.232.232-.493.348-.783.348ZM135.894 53.07c-3.915 0-7.105-3.19-7.105-7.105 0-3.915 3.19-7.105 7.105-7.105 3.915 0 7.105 3.19 7.105 7.105 0 3.915-3.19 7.105-7.105 7.105Zm0-12.006a4.914 4.914 0 0 0-4.901 4.901 4.914 4.914 0 0 0 4.901 4.901 4.914 4.914 0 0 0 4.901-4.901 4.895 4.895 0 0 0-4.901-4.901Z" fill="currentColor"/>
  </symbol>
</svg>
  