<svg width="174" height="174" viewBox="0 0 174 174" fill="none" xmlns="http://www.w3.org/2000/svg">
  <symbol id="item" viewBox="0 0 174 174"  fill="none">
    <path opacity=".1" d="M106.836 103.008H46.69a6.61 6.61 0 0 1-6.612-6.612V44.573a6.61 6.61 0 0 1 6.612-6.612h60.175a6.61 6.61 0 0 1 6.612 6.612v51.823c-.029 3.654-2.987 6.612-6.641 6.612Z" fill="currentColor"/><path d="M98.832 122.083H61.509c-5.233 0-9.476-4.27-9.476-9.476V64.206c0-5.233 4.27-9.476 9.476-9.476h.377a.602.602 0 1 1 0 1.204h-.377a8.272 8.272 0 0 0-8.272 8.272v48.372a8.273 8.273 0 0 0 8.272 8.272h37.323c.333 0 .602.269.602.602 0 .37-.278.631-.602.631Z" fill="currentColor" stroke="currentColor"/><path d="M52.635 76.212a1.102 1.102 0 0 1-1.102-1.102V64.206c0-5.51 4.495-9.976 9.976-9.976h.377a1.102 1.102 0 1 1 0 2.204h-.377a7.772 7.772 0 0 0-7.772 7.772V75.11c0 .609-.493 1.102-1.102 1.102Z" fill="currentColor"/><path d="M126.005 91.546a.601.601 0 0 1-.602-.602V64.235a8.273 8.273 0 0 0-8.272-8.272h-.638a.601.601 0 1 1 0-1.204h.638c5.233 0 9.476 4.27 9.476 9.476v26.709a.601.601 0 0 1-.602.602Z" fill="currentColor" stroke="currentColor"/><path d="M126.005 76.212a1.102 1.102 0 0 1-1.102-1.102V64.206a7.772 7.772 0 0 0-7.772-7.772h-.638a1.102 1.102 0 1 1 0-2.204h.638c5.51 0 9.976 4.495 9.976 9.976V75.11c0 .609-.493 1.102-1.102 1.102ZM106.053 56.434H79.634a1.102 1.102 0 1 1 0-2.204h26.419a1.102 1.102 0 1 1 0 2.204Z" fill="currentColor"/><path d="M102.276 128.093v.023l.002.022a.529.529 0 0 1-.546.586H60.291c-3.378 0-6.141-2.763-6.141-6.141v-3.828a.601.601 0 1 1 1.204 0v3.828a4.906 4.906 0 0 0 4.908 4.908h41.412c.333 0 .602.269.602.602ZM69.803 63.561h-.957a3.374 3.374 0 0 1-3.357-3.357v-7.569a3.374 3.374 0 0 1 3.357-3.357h.957a3.374 3.374 0 0 1 3.357 3.357v7.569a3.337 3.337 0 0 1-3.357 3.357Zm-.957-13.05c-1.17 0-2.153.943-2.153 2.153v7.569c0 1.17.943 2.153 2.153 2.153h.957c1.17 0 2.153-.943 2.153-2.153v-7.569c0-1.17-.943-2.153-2.153-2.153h-.957ZM109.794 63.561h-.957a3.374 3.374 0 0 1-3.357-3.357v-7.569a3.374 3.374 0 0 1 3.357-3.357h.957a3.374 3.374 0 0 1 3.357 3.357v7.569a3.355 3.355 0 0 1-3.357 3.357Zm-.986-13.05a2.153 2.153 0 0 0-2.153 2.153v7.569c0 1.17.943 2.153 2.153 2.153h.957a2.153 2.153 0 0 0 2.153-2.153v-7.569c0-1.17-.943-2.153-2.153-2.153h-.957Z" fill="currentColor" stroke="currentColor"/><path d="M126.005 76.212h-73.37a1.102 1.102 0 1 1 0-2.204h73.37a1.102 1.102 0 1 1 0 2.204Z" fill="currentColor"/><path d="M68.73 88.762h-2.871a.218.218 0 0 1-.225-.225v-2.871c0-.13.095-.225.225-.225h2.87c.13 0 .226.095.226.225v2.871c0 .13-.095.225-.225.225ZM83.404 88.762h-2.871a.218.218 0 0 1-.225-.225v-2.871c0-.13.095-.225.225-.225h2.87c.13 0 .226.095.226.225v2.871c0 .13-.095.225-.225.225ZM98.107 88.762h-2.871a.218.218 0 0 1-.225-.225v-2.871c0-.13.095-.225.225-.225h2.87c.13 0 .226.095.226.225v2.871c0 .13-.095.225-.225.225ZM112.781 88.762h-2.871a.218.218 0 0 1-.225-.225v-2.871c0-.13.095-.225.225-.225h2.871c.13 0 .225.095.225.225v2.871c0 .13-.095.225-.225.225ZM68.73 99.84h-2.871a.218.218 0 0 1-.225-.225v-2.871c0-.13.095-.225.225-.225h2.87c.13 0 .226.095.226.225v2.871c0 .13-.095.225-.225.225ZM83.404 99.84h-2.871a.218.218 0 0 1-.225-.225v-2.871c0-.13.095-.225.225-.225h2.87c.13 0 .226.095.226.225v2.871c0 .13-.095.225-.225.225ZM98.107 99.84h-2.871a.218.218 0 0 1-.225-.225v-2.871c0-.13.095-.225.225-.225h2.87c.13 0 .226.095.226.225v2.871c0 .13-.095.225-.225.225ZM112.781 99.84h-2.871a.218.218 0 0 1-.225-.225v-2.871c0-.13.095-.225.225-.225h2.871c.13 0 .225.095.225.225v2.871c0 .13-.095.225-.225.225ZM68.73 110.918h-2.871a.218.218 0 0 1-.225-.225v-2.871c0-.13.095-.225.225-.225h2.87c.13 0 .226.095.226.225v2.871c0 .13-.095.225-.225.225ZM83.404 110.918h-2.871a.218.218 0 0 1-.225-.225v-2.871c0-.13.095-.225.225-.225h2.87c.13 0 .226.095.226.225v2.871c0 .13-.095.225-.225.225ZM98.107 110.918h-2.871a.218.218 0 0 1-.225-.225v-2.871c0-.13.095-.225.225-.225h2.87c.13 0 .226.095.226.225v2.871c0 .13-.095.225-.225.225Z" fill="currentColor" stroke="currentColor"/><path d="M122.467 134.821c-10.875 0-19.691-8.845-19.691-19.691 0-10.846 8.845-19.691 19.691-19.691 10.846 0 19.691 8.845 19.691 19.691 0 10.846-8.816 19.691-19.691 19.691Zm0-37.178c-9.628 0-17.487 7.83-17.487 17.487 0 9.657 7.83 17.487 17.487 17.487 9.657 0 17.487-7.83 17.487-17.487 0-9.657-7.859-17.487-17.487-17.487Z" fill="currentColor"/><path d="M114.318 124.381a1.103 1.103 0 0 1-.783-1.885l16.298-16.298a1.103 1.103 0 0 1 1.566 0 1.103 1.103 0 0 1 0 1.566l-16.298 16.298a1.05 1.05 0 0 1-.783.319Z" fill="currentColor"/><path d="M130.616 124.381c-.29 0-.58-.116-.783-.319l-16.298-16.298a1.103 1.103 0 0 1 0-1.566 1.103 1.103 0 0 1 1.566 0l16.298 16.298a1.103 1.103 0 0 1 0 1.566c-.203.232-.493.319-.783.319Z" fill="currentColor"/>
  </symbol>
</svg>
  