<svg width="174" height="174" viewBox="0 0 174 174" fill="none" xmlns="http://www.w3.org/2000/svg">
  <symbol id="item" viewBox="0 0 174 174"  fill="none">
    <path opacity=".1" d="M118.204 140.94H55.999a6.61 6.61 0 0 1-6.612-6.612V80.707a6.61 6.61 0 0 1 6.612-6.612h62.205a6.61 6.61 0 0 1 6.612 6.612v53.621a6.61 6.61 0 0 1-6.612 6.612Z" fill="currentColor"/><path d="M126.701 134.067c-10.817 0-19.604-8.787-19.604-19.604 0-10.817 8.787-19.604 19.604-19.604 10.817 0 19.604 8.787 19.604 19.604 0 10.817-8.787 19.604-19.604 19.604Zm0-36.975c-9.599 0-17.4 7.801-17.4 17.4 0 9.599 7.801 17.4 17.4 17.4 9.599 0 17.4-7.801 17.4-17.4 0-9.599-7.801-17.4-17.4-17.4Z" fill="currentColor"/><path d="M118.61 123.685c-.29 0-.551-.116-.783-.319a1.103 1.103 0 0 1 0-1.566l16.211-16.211a1.103 1.103 0 0 1 1.566 0 1.103 1.103 0 0 1 0 1.566l-16.211 16.211a1.233 1.233 0 0 1-.783.319Z" fill="currentColor"/><path d="M134.821 123.685c-.29 0-.551-.116-.783-.319l-16.211-16.211a1.103 1.103 0 0 1 0-1.566 1.103 1.103 0 0 1 1.566 0l16.211 16.211a1.103 1.103 0 0 1-.783 1.885ZM51.011 118.378c-.116 0-.203-.029-.319-.058-4.147-1.276-7.047-5.162-7.047-9.483V66.584c0-8.12 6.612-14.732 14.732-14.732h50.547c4.321 0 8.236 2.9 9.483 7.047a1.088 1.088 0 0 1-.725 1.363 1.088 1.088 0 0 1-1.363-.725c-.986-3.219-4.031-5.481-7.366-5.481H58.377c-6.902 0-12.528 5.626-12.528 12.528v42.253c0 3.364 2.262 6.409 5.481 7.366.58.174.899.783.725 1.363-.145.493-.58.812-1.044.812Z" fill="currentColor"/><path d="M45.124 112.491c-.116 0-.203-.029-.319-.058-4.147-1.276-7.047-5.162-7.047-9.483V65.424c0-10.701 8.73-19.43 19.43-19.43h45.849c4.321 0 8.236 2.9 9.483 7.047a1.088 1.088 0 0 1-.725 1.363 1.088 1.088 0 0 1-1.363-.725c-.986-3.219-4.031-5.481-7.395-5.481H57.188c-9.512 0-17.226 7.743-17.226 17.226v37.526c0 3.364 2.262 6.409 5.481 7.395.58.174.9.783.725 1.363-.116.493-.55.783-1.044.783Z" fill="currentColor"/><path d="m76.23 106.991-.005-.004c-.814-.596-1.188-1.543-1.016-2.477l.001-.008.002-.009 1.304-7.685.001-.004a2.874 2.874 0 0 0-.813-2.51l-.01-.01-5.567-5.451-.003-.003a2.477 2.477 0 0 1-.643-2.595c.318-.953 1.093-1.603 2.062-1.738l.007-.001 7.715-1.131.012-.002.012-.002a2.86 2.86 0 0 0 2.101-1.544l.003-.006 3.451-6.989.002-.004a2.507 2.507 0 0 1 2.27-1.416c.974 0 1.842.54 2.27 1.416l.002.004 3.451 6.99.003.005a2.86 2.86 0 0 0 2.102 1.544l.012.002.012.002 7.714 1.13.008.002c.968.135 1.744.785 2.061 1.738.31.928.065 1.907-.642 2.595l-.003.003-5.568 5.452-.01.01a2.873 2.873 0 0 0-.813 2.51v.003l1.304 7.677.001.004c.159.982-.226 1.941-.997 2.486a2.58 2.58 0 0 1-2.705.201l-6.865-3.621-.012-.006-.012-.006a2.908 2.908 0 0 0-2.597 0l-.011.006-.011.005-6.902 3.625-.001.001a2.55 2.55 0 0 1-1.187.291 2.489 2.489 0 0 1-1.49-.48Z" stroke="currentColor" stroke-width="2.5"/><path d="M103.559 124.142H59.45a9.413 9.413 0 0 1-9.418-9.418V67.657a9.414 9.414 0 0 1 9.418-9.418h55.361a9.414 9.414 0 0 1 9.418 9.418V89.61a.601.601 0 1 1-1.204 0V67.657a8.21 8.21 0 0 0-8.214-8.214H59.45a8.21 8.21 0 0 0-8.214 8.214v47.067a8.21 8.21 0 0 0 8.214 8.214h44.138c.329 0 .596.263.602.59a.646.646 0 0 1-.631.614Z" fill="currentColor" stroke="currentColor"/>
  </symbol>
</svg>
  