
<svg width="1em" height="1em"    viewBox="0 0 174 174" fill="none" xmlns="http://www.w3.org/2000/svg">
<symbol id="item"
width="1em"
height="1em"
viewBox="0 0 174 174"
fill="none"
>
<path opacity=".1" d="M92.688 112.491c20.547 0 37.203-16.656 37.203-37.203 0-20.547-16.656-37.203-37.203-37.203-20.547 0-37.203 16.656-37.203 37.203 0 20.547 16.656 37.203 37.203 37.203Z" fill="currentColor"/><path d="M120.696 97.655c-.05 0-.124 0-.174-.025a.942.942 0 0 1-.745-1.118c.497-2.46.745-4.996.745-7.506 0-20.975-17.048-38.023-38.023-38.023a38.191 38.191 0 0 0-18.092 4.573.94.94 0 0 1-1.268-.373.94.94 0 0 1 .373-1.267c5.79-3.156 12.376-4.797 19.012-4.797 21.994 0 39.887 17.894 39.887 39.887 0 2.66-.273 5.319-.77 7.878-.125.448-.498.77-.945.77ZM82.499 128.894c-21.994 0-39.887-17.894-39.887-39.888 0-.92.025-1.864.1-2.808a.91.91 0 0 1 .993-.87c.522.025.92.497.87.994-.05.895-.1 1.79-.1 2.684 0 20.975 17.049 38.024 38.024 38.024 3.927 0 7.779-.597 11.482-1.765a.97.97 0 0 1 1.192.621.97.97 0 0 1-.62 1.193 40.931 40.931 0 0 1-12.054 1.815Z" fill="var(--color--bulma-100)"/><path d="M95.372 68.926a.967.967 0 0 1-.894-.621.923.923 0 0 1 .571-1.193 38.133 38.133 0 0 0 12.923-7.68c.398-.347.969-.322 1.317.075.348.398.323.97-.074 1.318a39.708 39.708 0 0 1-13.57 8.076c-.049 0-.173.025-.273.025ZM56.38 118.853a.94.94 0 0 1-.696-.298c-.348-.397-.323-.969.075-1.317 7.356-6.635 16.85-10.314 26.765-10.314 3.355 0 6.71.423 9.94 1.243a.944.944 0 0 1 .672 1.143.944.944 0 0 1-1.143.671 37.897 37.897 0 0 0-9.47-1.193c-9.443 0-18.489 3.48-25.497 9.817-.199.149-.423.248-.646.248Z" fill="var(--color--bulma-100)"/><path d="M104.99 97.034h-.099a.95.95 0 0 1-.845-1.044c.248-2.287.372-4.648.372-6.984 0-20.975-9.84-38.023-21.944-38.023-3.653 0-7.281 1.616-10.512 4.672a.968.968 0 0 1-1.342-.025.969.969 0 0 1 .025-1.342c3.579-3.404 7.654-5.194 11.804-5.194 13.122 0 23.808 17.894 23.808 39.887 0 2.411-.124 4.847-.372 7.183 0 .522-.423.87-.895.87ZM82.499 128.894c-13.122 0-23.808-17.894-23.808-39.888 0-1.317.05-2.659.124-3.951a.945.945 0 1 1 1.889.1 65.9 65.9 0 0 0-.1 3.851c0 20.975 9.842 38.024 21.945 38.024 3.578 0 7.157-1.566 10.313-4.499.373-.347.97-.323 1.342.05.348.373.323.969-.05 1.342-3.578 3.256-7.58 4.971-11.655 4.971Z" fill="var(--color--bulma-100)"/><path d="M121.467 89.95H43.531a.944.944 0 1 1 0-1.888h77.911c.522 0 .944.422.944.944s-.422.945-.919.945Z" fill="var(--color--bulma-100)"/><path d="M111.153 132c-9.22 0-16.725-7.505-16.725-16.725 0-9.22 7.505-16.726 16.725-16.726 9.22 0 16.726 7.506 16.726 16.726 0 9.22-7.481 16.725-16.726 16.725Zm0-31.587c-8.176 0-14.861 6.661-14.861 14.862s6.66 14.861 14.861 14.861 14.862-6.66 14.862-14.861-6.661-14.862-14.862-14.862Z" fill="currentColor"/><path d="M104.244 123.153c-.248 0-.472-.1-.671-.274a.946.946 0 0 1 0-1.342l13.843-13.842a.945.945 0 0 1 1.342 0 .945.945 0 0 1 0 1.342l-13.843 13.842a1.057 1.057 0 0 1-.671.274Z" fill="currentColor"/><path d="M118.087 123.153c-.249 0-.472-.1-.671-.274l-13.843-13.842a.946.946 0 0 1 0-1.342.945.945 0 0 1 1.342 0l13.843 13.842a.945.945 0 0 1-.671 1.616ZM85.58 82.073H42.29a5.876 5.876 0 0 1-5.865-5.865v-12.65a5.876 5.876 0 0 1 5.865-5.865H85.58a5.876 5.876 0 0 1 5.865 5.865v12.65a5.876 5.876 0 0 1-5.865 5.865ZM42.29 59.582a3.988 3.988 0 0 0-3.976 3.976v12.65a3.988 3.988 0 0 0 3.976 3.976H85.58a3.988 3.988 0 0 0 3.976-3.976v-12.65a3.988 3.988 0 0 0-3.976-3.976H42.289Z" fill="currentColor"/><path d="M46.091 74.195c-.373 0-.745-.224-.87-.597l-2.758-7.157c-.2-.497.05-1.019.546-1.218.473-.199 1.02.05 1.218.547l2.759 7.132c.199.497-.05 1.02-.547 1.218a.976.976 0 0 1-.348.075ZM51.583 74.195a.877.877 0 0 1-.348-.075.946.946 0 0 1-.546-1.218l2.758-7.132a.947.947 0 0 1 1.218-.547c.497.199.72.72.547 1.218l-2.759 7.132a.924.924 0 0 1-.87.622Z" fill="currentColor"/><path d="M46.09 74.17a.877.877 0 0 1-.347-.075.968.968 0 0 1-.547-1.217l2.759-7.108a.968.968 0 0 1 1.218-.547c.472.199.72.72.546 1.218l-2.758 7.108a.924.924 0 0 1-.87.62Z" fill="currentColor"/><path d="M51.583 74.17c-.373 0-.745-.224-.87-.597l-2.758-7.107c-.199-.497.05-1.02.547-1.218.497-.199 1.018.05 1.217.547l2.759 7.107c.199.497-.05 1.02-.547 1.218-.124.025-.248.05-.348.05ZM61.127 74.195c-.373 0-.746-.224-.87-.597l-2.759-7.132c-.198-.497.05-1.02.547-1.218.472-.199 1.019.05 1.218.547l2.758 7.132c.2.497-.05 1.02-.546 1.218-.125.025-.224.05-.348.05ZM66.619 74.195a.877.877 0 0 1-.348-.075.947.947 0 0 1-.547-1.218l2.759-7.132a.946.946 0 0 1 1.218-.547c.497.199.72.72.546 1.218l-2.758 7.132c-.125.398-.473.622-.87.622Z" fill="currentColor"/><path d="M61.127 74.17a.877.877 0 0 1-.348-.075.968.968 0 0 1-.547-1.217l2.758-7.108a.968.968 0 0 1 1.218-.547c.472.199.72.72.547 1.218l-2.734 7.108a.932.932 0 0 1-.895.62Z" fill="currentColor"/><path d="M66.619 74.17c-.373 0-.746-.224-.87-.597l-2.758-7.107c-.2-.497.05-1.02.546-1.218.497-.199 1.02.05 1.218.547l2.758 7.107c.2.497-.05 1.02-.546 1.218-.1.025-.224.05-.348.05ZM76.187 74.195c-.373 0-.746-.224-.87-.597l-2.759-7.132c-.198-.497.05-1.02.547-1.218.472-.199 1.019.05 1.218.547l2.758 7.132c.2.497-.05 1.02-.546 1.218-.125.025-.224.05-.348.05ZM81.679 74.195a.877.877 0 0 1-.348-.075.968.968 0 0 1-.547-1.218l2.759-7.132a.947.947 0 0 1 1.218-.547c.472.199.72.72.546 1.218l-2.758 7.132a.901.901 0 0 1-.87.622Z" fill="currentColor"/><path d="M76.187 74.17a.877.877 0 0 1-.348-.075.968.968 0 0 1-.547-1.217l2.759-7.108a.947.947 0 0 1 1.218-.547c.496.199.72.72.546 1.218l-2.758 7.108a.901.901 0 0 1-.87.62Z" fill="currentColor"/><path d="M81.679 74.17c-.373 0-.746-.224-.87-.597l-2.758-7.107c-.2-.497.05-1.02.546-1.218.473-.199 1.02.05 1.218.547l2.759 7.107c.198.497-.05 1.02-.547 1.218-.124.025-.224.05-.348.05Z" fill="currentColor"/>
</symbol>
</svg>
  