<svg width="174" height="174" viewBox="0 0 174 174" fill="none" xmlns="http://www.w3.org/2000/svg">
  <symbol id="item" viewBox="0 0 174 174"  fill="none">
    <path opacity=".1" d="M129.514 88.421H45.443c-3.8 0-6.351-3.828-4.93-7.337l11.542-28.13a10.67 10.67 0 0 1 9.86-6.612h51.098c4.321 0 8.236 2.61 9.86 6.612l11.542 28.13c1.45 3.509-1.131 7.337-4.901 7.337Z" fill="currentColor"/><path d="M122.293 134.792a19.542 19.542 0 0 1-13.862-5.742c-7.627-7.627-7.627-20.068 0-27.724 7.627-7.627 20.068-7.627 27.724 0 3.712 3.712 5.742 8.613 5.742 13.862 0 5.249-2.03 10.15-5.742 13.862a19.542 19.542 0 0 1-13.862 5.742Zm0-36.975c-4.466 0-8.903 1.682-12.296 5.075-6.786 6.786-6.786 17.806 0 24.592 6.786 6.786 17.806 6.786 24.592 0 6.786-6.786 6.786-17.806 0-24.592a17.367 17.367 0 0 0-12.296-5.075Z" fill="currentColor"/><path d="M109.214 129.398c-.29 0-.551-.116-.783-.319a1.103 1.103 0 0 1 0-1.566l26.158-26.158a1.103 1.103 0 0 1 1.566 0 1.103 1.103 0 0 1 0 1.566l-26.158 26.129a1.036 1.036 0 0 1-.783.348Z" fill="currentColor"/><path d="M98.687 120.517H45.994a.601.601 0 1 1 0-1.204h52.693a.601.601 0 1 1 0 1.204ZM92.8 127.854H60.668a.601.601 0 1 1 0-1.204H92.8a.601.601 0 1 1 0 1.204ZM100.891 127.854h-3.48a.601.601 0 1 1 0-1.204h3.48a.601.601 0 1 1 0 1.204ZM40.803 120.517h-3.857a.601.601 0 1 1 0-1.204h3.857a.601.601 0 1 1 0 1.204Z" fill="currentColor" stroke="currentColor"/><path d="M52.229 120.517a.601.601 0 0 1-.602-.602V84.071a.601.601 0 1 1 1.204 0v35.844c0 .333-.27.602-.602.602ZM122.873 91.865a.601.601 0 0 1-.602-.602v-7.221a.601.601 0 1 1 1.204 0v7.22a.601.601 0 0 1-.602.603ZM77.604 120.517a.601.601 0 0 1-.602-.602V87.696a.601.601 0 1 1 1.204 0v32.248c0 .295-.26.573-.602.573ZM68.121 105.118a.601.601 0 0 1-.602-.602v-7.801a.602.602 0 1 1 1.204 0v7.801c0 .333-.27.602-.602.602Z" fill="currentColor" stroke="currentColor"/><path d="M128.905 70.934a1.11 1.11 0 0 1-1.015-.667l-8.352-19.836c-.609-1.479-2.03-2.407-3.625-2.407H59.189a3.962 3.962 0 0 0-3.625 2.378l-8.555 19.865c-.232.551-.899.812-1.45.58-.551-.232-.812-.899-.58-1.45l8.555-19.865a6.15 6.15 0 0 1 5.655-3.712h56.724a6.098 6.098 0 0 1 5.655 3.77l8.352 19.836c.232.551-.029 1.218-.58 1.45-.145.029-.29.058-.435.058Z" fill="currentColor"/><path d="M54.868 79.808c-5.51 0-9.976-4.466-9.976-9.976a1.102 1.102 0 1 1 2.204 0 7.772 7.772 0 0 0 7.772 7.772 7.803 7.803 0 0 0 6.525-3.538c.32-.522 1.015-.638 1.537-.319s.667 1.015.32 1.537a9.964 9.964 0 0 1-8.382 4.524Z" fill="currentColor"/><path d="M69.687 79.808a9.94 9.94 0 0 1-8.265-4.408c-.348-.493-.203-1.19.29-1.537.493-.348 1.189-.203 1.537.29a7.76 7.76 0 0 0 6.438 3.422 7.772 7.772 0 0 0 7.772-7.772 1.102 1.102 0 1 1 2.204 0c0 5.539-4.466 10.005-9.976 10.005Z" fill="currentColor"/><path d="M87.435 79.808c-5.51 0-9.976-4.466-9.976-9.976a1.102 1.102 0 1 1 2.204 0 7.772 7.772 0 0 0 15.544 0 1.102 1.102 0 1 1 2.204 0c0 5.51-4.466 9.976-9.976 9.976Z" fill="currentColor"/><path d="M105.212 79.808c-5.51 0-9.976-4.466-9.976-9.976a1.102 1.102 0 1 1 2.204 0 7.772 7.772 0 0 0 7.772 7.772 7.806 7.806 0 0 0 6.496-3.48 1.145 1.145 0 0 1 1.537-.319c.493.348.638 1.015.319 1.537-1.885 2.784-5.017 4.466-8.352 4.466ZM62.321 75.777c-.087 0-.145 0-.232-.029a1.074 1.074 0 0 1-.84-1.305l5.886-27.782a1.074 1.074 0 0 1 1.305-.841c.61.116.986.725.841 1.305l-5.887 27.782a1.11 1.11 0 0 1-1.073.87Z" fill="currentColor"/><path d="M119.973 79.808a9.964 9.964 0 0 1-8.381-4.524c-.319-.522-.203-1.189.319-1.537.522-.319 1.189-.203 1.537.319a7.803 7.803 0 0 0 6.525 3.538 7.772 7.772 0 0 0 7.772-7.772 1.102 1.102 0 1 1 2.204 0c.029 5.51-4.466 9.976-9.976 9.976Z" fill="currentColor"/><path d="M112.549 75.777c-.522 0-.957-.348-1.073-.87l-5.887-27.782c-.116-.61.261-1.19.841-1.305.58-.116 1.189.26 1.305.84l5.887 27.783c.116.609-.261 1.189-.841 1.305-.087.029-.174.029-.232.029ZM78.561 70.934h-.029a1.121 1.121 0 0 1-1.073-1.131l.725-22.939c.029-.609.551-1.102 1.131-1.073a1.121 1.121 0 0 1 1.073 1.131l-.725 22.939c-.029.58-.522 1.073-1.102 1.073ZM96.31 70.934c-.58 0-1.074-.464-1.103-1.073l-.725-22.939a1.084 1.084 0 0 1 1.073-1.131 1.084 1.084 0 0 1 1.131 1.073l.725 22.939a1.084 1.084 0 0 1-1.073 1.131h-.029Z" fill="currentColor"/>
  </symbol>
</svg>
  