<svg width="174" height="174" viewBox="0 0 174 174" fill="none" xmlns="http://www.w3.org/2000/svg">
  <symbol id="item" viewBox="0 0 174 174"  fill="none">
    <path opacity=".1" d="M80.569 109.738c19.33 0 34.999-15.67 34.999-35s-15.67-34.999-35-34.999-34.999 15.67-34.999 35 15.67 34.999 35 34.999Z" fill="currentColor"/><path d="M86.779 134c-6.57 0-11.924-5.355-11.924-11.924a1.048 1.048 0 1 1 2.097 0c0 5.438 4.417 9.826 9.827 9.826s9.826-4.416 9.826-9.826a1.048 1.048 0 1 1 2.098 0c0 6.569-5.327 11.924-11.924 11.924ZM115.568 93.342c-10.24 0-18.576-8.336-18.576-18.576s8.336-18.576 18.576-18.576 18.576 8.336 18.576 18.576-8.336 18.576-18.576 18.576Zm0-35.082c-9.081 0-16.506 7.397-16.506 16.506 0 9.081 7.397 16.506 16.506 16.506s16.506-7.397 16.506-16.506c-.028-9.109-7.425-16.506-16.506-16.506Z" fill="currentColor"/><path d="M107.867 83.488c-.276 0-.525-.11-.745-.303a1.05 1.05 0 0 1 0-1.49l15.374-15.375a1.05 1.05 0 0 1 1.491 0 1.05 1.05 0 0 1 0 1.49l-15.375 15.375a1.066 1.066 0 0 1-.745.303Z" fill="currentColor"/><path d="M123.269 83.488c-.276 0-.525-.11-.746-.303L107.149 67.81a1.05 1.05 0 0 1 0-1.49 1.05 1.05 0 0 1 1.491 0l15.374 15.374a1.05 1.05 0 0 1 0 1.49 1.174 1.174 0 0 1-.745.304Z" fill="currentColor"/><path d="M117.334 123.125H56.251c-1.739 0-3.285-.911-4.14-2.429a4.685 4.685 0 0 1 .083-4.803l6.872-11.317V84.234c0-15.071 12.256-27.575 27.326-27.851 4.058-.083 8.005.745 11.731 2.401.525.249.746.856.525 1.38-.249.525-.856.773-1.38.525a25.196 25.196 0 0 0-10.82-2.236c-13.94.276-25.284 11.841-25.284 25.78v20.923l-7.176 11.814a2.655 2.655 0 0 0-.056 2.677c.47.856 1.353 1.352 2.319 1.352h61.083c.994 0 1.877-.524 2.347-1.407.469-.884.441-1.905-.111-2.733l-6.845-10.461v-8.667a1.048 1.048 0 1 1 2.098 0v8.032l6.514 9.937c.966 1.49 1.049 3.312.193 4.858-.856 1.628-2.429 2.567-4.196 2.567Z" fill="currentColor"/><path d="M67.927 84.703c-.58 0-1.05-.47-1.05-1.05 0-10.626 8.64-19.265 19.267-19.265a1.048 1.048 0 1 1 0 2.097c-9.467 0-17.168 7.701-17.168 17.169 0 .58-.47 1.049-1.05 1.049ZM93.127 58.453c-.58 0-1.048-.47-1.048-1.049a5.3 5.3 0 0 0-5.3-5.3 5.301 5.301 0 0 0-5.3 5.3 1.048 1.048 0 1 1-2.097 0 7.398 7.398 0 0 1 14.794 0c0 .58-.469 1.05-1.049 1.05Z" fill="currentColor"/>
  </symbol>
</svg>
  