<svg width="174" height="174" viewBox="0 0 174 174" fill="none" xmlns="http://www.w3.org/2000/svg">
  <symbol id="item" viewBox="0 0 174 174"  fill="none">
    <path opacity=".1" d="M98.31 129.659H49.155V69.455c0-13.572 11.02-24.592 24.592-24.592s24.592 11.02 24.592 24.592v60.204h-.029Z" fill="currentColor"/><path d="M80.678 63.691h38.099v5.59a2.982 2.982 0 0 1-2.658 2.954h-.002l-17.656 1.856-.448.047V128.298c-.046.377-.348.629-.631.629a.601.601 0 0 1-.602-.602V73.037l19.178-2.011h.004a1.758 1.758 0 0 0 1.582-1.745v-4.415H80.649c-6.367 0-11.52 5.184-11.52 11.52v21.982c0 .682.572 1.254 1.254 1.254h1.71a.602.602 0 1 1 0 1.204h-1.71a2.44 2.44 0 0 1-2.43-2.429V76.415c0-7.004 5.694-12.724 12.725-12.724Z" fill="currentColor" stroke="currentColor"/><path d="M46.806 110.722h-1.77a2.45 2.45 0 0 1-2.435-2.436V88.073c0-8.091 6.583-14.645 14.645-14.645h5.336a1.102 1.102 0 1 1 0 2.204h-5.336c-6.873 0-12.441 5.597-12.441 12.441v20.213a.25.25 0 0 0 .232.232h1.769a1.102 1.102 0 1 1 0 2.204Z" fill="currentColor"/><path d="M86.594 59.443c-5.089 0-9.244-4.155-9.244-9.244 0-5.089 4.155-9.244 9.244-9.244 5.089 0 9.244 4.155 9.244 9.244 0 5.089-4.155 9.244-9.244 9.244Zm0-17.313c-4.452 0-8.07 3.617-8.07 8.069 0 4.452 3.618 8.069 8.07 8.069s8.069-3.617 8.069-8.069c0-4.453-3.647-8.069-8.07-8.069Z" fill="currentColor" stroke="currentColor"/><path d="M59.508 70.876c-4.67 0-8.497-3.799-8.497-8.497 0-4.669 3.799-8.497 8.497-8.497a8.49 8.49 0 0 1 8.497 8.497c0 4.669-3.8 8.497-8.497 8.497Zm0-14.79a6.287 6.287 0 0 0-6.293 6.293 6.287 6.287 0 0 0 6.293 6.293 6.287 6.287 0 0 0 6.293-6.293 6.287 6.287 0 0 0-6.293-6.293Z" fill="currentColor"/><path d="M75.516 128.927a.601.601 0 0 1-.602-.602V78.706a.602.602 0 1 1 1.204 0v49.619c0 .333-.27.602-.602.602Z" fill="currentColor" stroke="currentColor"/><path d="M50.228 129.427a1.102 1.102 0 0 1-1.102-1.102V90.799a1.102 1.102 0 1 1 2.204 0v37.526c0 .609-.493 1.102-1.102 1.102ZM60.146 129.427a1.102 1.102 0 0 1-1.102-1.102v-19.604a1.102 1.102 0 1 1 2.204 0v19.604c0 .609-.493 1.102-1.102 1.102ZM68.527 129.427a1.102 1.102 0 0 1-1.102-1.102v-19.604a1.102 1.102 0 1 1 2.204 0v19.604c0 .609-.493 1.102-1.102 1.102Z" fill="currentColor"/><path d="M116.435 89.371a.601.601 0 0 1-.602-.602V76.676a.601.601 0 1 1 1.204 0v12.093a.601.601 0 0 1-.602.602ZM116.435 64.547a.601.601 0 0 1-.602-.602V41.586a.601.601 0 1 1 1.204 0v22.359a.601.601 0 0 1-.602.602ZM86.594 128.927a.601.601 0 0 1-.602-.602v-28.13a.602.602 0 1 1 1.204 0v28.117c-.022.359-.313.615-.602.615ZM86.594 90.502a.602.602 0 0 1-.602-.602v-.812a.602.602 0 1 1 1.204 0v.799c-.022.359-.313.615-.602.615ZM86.594 82.817a.602.602 0 0 1-.602-.602v-.812a.602.602 0 1 1 1.204 0v.798c-.022.36-.313.616-.602.616ZM86.594 75.132a.602.602 0 0 1-.602-.602v-.812a.602.602 0 1 1 1.204 0v.798c-.022.36-.313.616-.602.616Z" fill="currentColor" stroke="currentColor"/><path d="M130.732 57.768h-15.37V43.326h15.37v14.442Zm-13.195-2.175h10.991V45.53h-10.991v10.063Z" fill="currentColor"/><path d="M143.057 62.205h-17.951v-5.51a1.102 1.102 0 1 1 2.204 0v3.306h11.832l-3.045-5.017 3.045-5.017h-9.512a1.102 1.102 0 1 1 0-2.204h13.427l-4.379 7.221 4.379 7.221ZM121.858 132.066c-10.759 0-19.546-8.758-19.546-19.546s8.758-19.546 19.546-19.546 19.546 8.758 19.546 19.546-8.787 19.546-19.546 19.546Zm0-36.859c-9.57 0-17.342 7.772-17.342 17.342 0 9.57 7.772 17.342 17.342 17.342 9.57 0 17.342-7.801 17.342-17.342 0-9.541-7.772-17.342-17.342-17.342Z" fill="currentColor"/><path d="M113.767 121.742c-.29 0-.551-.116-.783-.319a1.103 1.103 0 0 1 0-1.566l16.182-16.182a1.103 1.103 0 0 1 1.566 0 1.103 1.103 0 0 1 0 1.566l-16.182 16.153c-.232.232-.493.348-.783.348Z" fill="currentColor"/><path d="M129.949 121.742c-.29 0-.551-.116-.783-.319l-16.182-16.182a1.103 1.103 0 0 1 0-1.566 1.103 1.103 0 0 1 1.566 0l16.182 16.182a1.103 1.103 0 0 1 0 1.566 1.233 1.233 0 0 1-.783.319Z" fill="currentColor"/>
  </symbol>
</svg>
  