
<svg width="1em" height="1em"    viewBox="0 0 174 174" fill="none" xmlns="http://www.w3.org/2000/svg">
<symbol id="item"
width="1em"
height="1em"
viewBox="0 0 174 174"
fill="none"
>
<path opacity=".1" d="M77.256 125.831c23.56 0 42.659-19.099 42.659-42.659s-19.099-42.659-42.66-42.659c-23.559 0-42.658 19.1-42.658 42.659 0 23.56 19.099 42.659 42.659 42.659Z" fill="currentColor"/><path d="m58.182 129.311-.005-.006c-.898-1.051-1.157-2.462-.718-3.779v-.001l6.669-19.89c.119-.336.453-.491.754-.386.338.118.494.454.389.755l-.002.006-6.669 19.889v.003c-.322.932-.1 1.892.49 2.622l.389-.315-.389.315c.616.76 1.583 1.074 2.495.933h.003l8.497-1.363.002-.001a3.938 3.938 0 0 1 3.445 1.159l.001.002 5.943 6.203.007.008c.66.659 1.584.987 2.55.772l.004-.001a2.775 2.775 0 0 0 1.982-1.768l.004-.01 8.669-25.804v-.003c.12-.336.454-.491.755-.386.338.118.494.454.389.755l-.002.006-8.671 25.81v.001c-.436 1.308-1.513 2.261-2.858 2.571a3.892 3.892 0 0 1-3.703-1.107v-.001l-5.942-6.201v-.002a2.725 2.725 0 0 0-2.387-.815h-.001l-8.49 1.362h-.002c-1.372.206-2.73-.287-3.598-1.333Z" fill="#0F161F" stroke="#0F161F"/><path d="m97.822 137.41-.009-.002c-1.344-.31-2.42-1.263-2.857-2.57v-.001l-5.452-16.5-.002-.008c-.106-.301.051-.637.389-.755.3-.105.634.05.753.385l5.422 16.496.004.013c.315.875 1.024 1.554 1.984 1.769a2.682 2.682 0 0 0 2.56-.781l.001-.001 5.944-6.204.004-.005a.602.602 0 0 1 .847-.016c.257.257.252.636.029.858l-.007.008-5.944 6.204v.001a3.894 3.894 0 0 1-2.801 1.21c-.287 0-.564-.026-.865-.101Z" fill="#0F161F" stroke="#0F161F"/><path d="M122.467 83.259c.551-1.74 1.827-3.306 3.045-4.843 1.566-1.943 3.016-3.77 3.016-5.713s-1.479-3.77-3.016-5.713c-1.218-1.537-2.494-3.103-3.045-4.843-.58-1.827-.493-3.886-.406-5.887.116-2.436.203-4.727-.87-6.206-1.102-1.508-3.335-2.117-5.684-2.784-1.914-.522-3.915-1.073-5.452-2.204-1.508-1.102-2.639-2.813-3.712-4.466-1.363-2.059-2.639-4.002-4.437-4.582-1.711-.551-3.828.232-6.09 1.073-1.914.696-3.886 1.45-5.829 1.45-1.943 0-3.944-.725-5.829-1.45-1.74-.638-3.393-1.276-4.843-1.276-.435 0-.841.058-1.247.174-1.798.58-3.074 2.523-4.437 4.582-1.102 1.653-2.204 3.364-3.712 4.466-1.537 1.102-3.509 1.653-5.452 2.204-2.349.667-4.582 1.276-5.684 2.784-1.073 1.479-.986 3.77-.87 6.206.087 2.001.174 4.089-.406 5.887-.551 1.74-1.827 3.306-3.045 4.843-1.566 1.943-3.016 3.77-3.016 5.713s1.479 3.77 3.016 5.713c1.218 1.537 2.494 3.103 3.045 4.843.58 1.827.493 3.886.406 5.887-.116 2.436-.203 4.727.87 6.206 1.102 1.508 3.335 2.117 5.684 2.784 1.914.522 3.915 1.073 5.452 2.204 1.508 1.102 2.639 2.813 3.712 4.466 1.363 2.059 2.639 4.002 4.437 4.582 1.682.551 3.828-.232 6.09-1.073 1.914-.696 3.886-1.45 5.829-1.45 1.943 0 3.944.725 5.829 1.45l-.754 2.059c-1.74-.638-3.509-1.305-5.075-1.305-1.566 0-3.335.667-5.075 1.305-1.856.696-3.77 1.392-5.626 1.392a6.26 6.26 0 0 1-1.914-.29c-2.523-.812-4.089-3.19-5.597-5.481-1.015-1.566-2.001-3.016-3.161-3.886-1.189-.87-2.929-1.363-4.727-1.856-2.61-.725-5.336-1.479-6.873-3.596-1.537-2.088-1.421-4.901-1.305-7.598.087-1.885.145-3.683-.319-5.133-.435-1.363-1.537-2.697-2.668-4.147-1.711-2.146-3.509-4.379-3.509-7.105 0-2.726 1.769-4.959 3.509-7.105 1.16-1.421 2.233-2.784 2.668-4.147.464-1.45.406-3.219.319-5.133-.116-2.697-.232-5.51 1.305-7.598 1.537-2.117 4.263-2.871 6.873-3.596 1.827-.493 3.538-.986 4.727-1.856 1.189-.87 2.146-2.32 3.161-3.886 1.508-2.291 3.074-4.64 5.597-5.481 2.436-.783 5.017.174 7.54 1.102 1.74.638 3.509 1.305 5.075 1.305 1.566 0 3.335-.667 5.075-1.305 2.523-.928 5.104-1.914 7.54-1.102 2.523.812 4.089 3.19 5.597 5.481 1.015 1.566 2.001 3.016 3.161 3.886 1.189.87 2.929 1.363 4.727 1.856 2.61.725 5.336 1.479 6.873 3.596s1.421 4.901 1.305 7.598c-.087 1.885-.145 3.683.319 5.133.435 1.363 1.537 2.697 2.668 4.147 1.711 2.146 3.509 4.379 3.509 7.105 0 2.726-1.769 4.959-3.509 7.105-1.16 1.421-2.233 2.784-2.668 4.147l-2.117-.638Z" fill="currentColor"/><path d="M89.958 98.622c-14.282 0-25.92-11.637-25.92-25.919s11.638-25.919 25.92-25.919c14.282 0 25.919 11.637 25.919 25.919s-11.637 25.919-25.92 25.919Zm0-50.634c-13.616 0-24.715 11.099-24.715 24.715s11.099 24.715 24.715 24.715 24.715-11.099 24.715-24.715-11.099-24.715-24.715-24.715Z" fill="#0F161F" stroke="#0F161F"/><path d="M82.795 83.832h-2.813a3.25 3.25 0 0 1-3.241-3.241V71.34a3.25 3.25 0 0 1 3.24-3.241h2.814a3.25 3.25 0 0 1 3.24 3.241v9.251a3.232 3.232 0 0 1-3.24 3.241Zm-2.813-14.529c-1.117 0-2.037.92-2.037 2.037v9.251c0 1.117.92 2.037 2.037 2.037h2.813c1.117 0 2.037-.92 2.037-2.037V71.34c0-1.117-.92-2.037-2.037-2.037h-2.813ZM103.407 73.312v.009c.024 1.365-1.105 2.507-2.516 2.507a.601.601 0 1 1 0-1.204 1.31 1.31 0 0 0 1.312-1.312A1.31 1.31 0 0 0 100.891 72a.601.601 0 1 1 0-1.204 2.513 2.513 0 0 1 2.516 2.516Z" fill="#0F161F" stroke="#0F161F"/><path d="M100.398 79.685a.601.601 0 1 1 0-1.204 1.31 1.31 0 0 0 1.312-1.312 1.33 1.33 0 0 0-1.312-1.312.601.601 0 1 1 0-1.204 2.513 2.513 0 0 1 2.516 2.516 2.513 2.513 0 0 1-2.516 2.516Z" fill="#0F161F" stroke="#0F161F"/><path d="m84.902 81.251-.002-.004c-.149-.314-.005-.662.264-.775l.01-.004.01-.005c.314-.149.662-.004.775.264l.003.008.004.008c.454.984 1.482 1.354 2.25 1.5.788.148 1.506.095 1.48.095h9.832a1.31 1.31 0 0 0 1.312-1.312 1.33 1.33 0 0 0-1.312-1.312.601.601 0 1 1 0-1.204 2.514 2.514 0 0 1 2.516 2.516 2.532 2.532 0 0 1-2.516 2.516h-9.602a.9.9 0 0 0-.115-.012c-.055-.002-.11 0-.154.002a3.621 3.621 0 0 1-.28.01c-.549 0-1.447-.063-2.322-.389-.869-.324-1.687-.894-2.153-1.902ZM93.138 67.695a1.196 1.196 0 0 1-.306-.965c.084-.699.283-1.751.6-3.137.242-1.056.22-2.018-.25-2.689-.434-.628-1.183-.865-1.653-.982l-.496-.124-.113.498-1.11 4.899-.061.09c-.82 1.158-1.767 2.637-2.507 3.826a119.687 119.687 0 0 0-1.187 1.953 11.57 11.57 0 0 0-.1.173c0 .001 0 .003-.002.005a.592.592 0 0 1-.81.193l-.26.427.26-.427a.593.593 0 0 1-.21-.82l.002-.004.006-.01c.155-.259 2.133-3.558 3.717-5.85l.055-.08.021-.093 1.131-4.987a1.242 1.242 0 0 1 1.347-.949c.795.083 2.151.407 2.981 1.537.643.89.825 2.091.468 3.655v.001a45.026 45.026 0 0 0-.498 2.493l-.097.582h6.042c1.395 0 2.555 1.103 2.603 2.447.024.663-.235 1.319-.704 1.841-.516.513-1.141.773-1.841.773a.602.602 0 1 1 0-1.204c.365 0 .715-.142.964-.44.207-.25.348-.563.348-.93 0-.785-.74-1.283-1.399-1.283h-5.974c-.36 0-.717-.149-.967-.42Z" fill="#0F161F" stroke="#0F161F"/><path d="M98.571 111.795a1.189 1.189 0 1 0 0-2.378 1.189 1.189 0 0 0 0 2.378ZM123.482 84.825a1.13 1.13 0 1 0 0-2.261 1.13 1.13 0 0 0 0 2.261Z" fill="currentColor"/><path d="m95.787 108.315 3.219 1.189-.841 2.204-3.567-1.479 1.189-1.914ZM124.149 130.384c-10.817 0-19.604-8.787-19.604-19.604 0-10.817 8.787-19.604 19.604-19.604 10.817 0 19.604 8.787 19.604 19.604 0 10.817-8.816 19.604-19.604 19.604Zm0-36.975c-9.599 0-17.4 7.801-17.4 17.4 0 9.599 7.801 17.4 17.4 17.4 9.599 0 17.4-7.801 17.4-17.4 0-9.599-7.83-17.4-17.4-17.4Z" fill="currentColor"/><path d="M116.029 120.002c-.29 0-.551-.116-.783-.319a1.103 1.103 0 0 1 0-1.566l16.211-16.211a1.103 1.103 0 0 1 1.566 0 1.103 1.103 0 0 1 0 1.566l-16.211 16.211a1.05 1.05 0 0 1-.783.319Z" fill="currentColor"/><path d="M132.24 120.002c-.29 0-.551-.116-.783-.319l-16.211-16.211a1.103 1.103 0 0 1 0-1.566 1.103 1.103 0 0 1 1.566 0l16.211 16.211a1.103 1.103 0 0 1 0 1.566c-.203.232-.493.319-.783.319Z" fill="currentColor"/>
</symbol>
</svg>
  