<svg width="174" height="174" viewBox="0 0 174 174" fill="none" xmlns="http://www.w3.org/2000/svg">
  <symbol id="item" viewBox="0 0 174 174"  fill="none">
    <path opacity=".1" d="M111.534 126.875H33.321a4.072 4.072 0 0 1-4.06-4.06V69.948a4.072 4.072 0 0 1 4.06-4.06h78.184a4.072 4.072 0 0 1 4.06 4.06v52.896a4.022 4.022 0 0 1-4.031 4.031Z" fill="currentColor"/><path d="M133.023 129.63c-5.22 0-10.15-2.03-13.833-5.742-3.712-3.712-5.742-8.613-5.742-13.833 0-5.22 2.03-10.15 5.742-13.833 3.712-3.712 8.613-5.742 13.833-5.742 5.22 0 10.15 2.03 13.833 5.742 3.712 3.712 5.742 8.613 5.742 13.833 0 5.22-2.03 10.15-5.742 13.833a19.485 19.485 0 0 1-13.833 5.742Zm0-36.975c-4.64 0-9.019 1.798-12.296 5.104a17.312 17.312 0 0 0-5.104 12.296c0 4.64 1.798 9.019 5.104 12.296a17.312 17.312 0 0 0 12.296 5.104c4.64 0 9.019-1.798 12.296-5.104a17.312 17.312 0 0 0 5.104-12.296c0-4.64-1.798-9.019-5.104-12.296-3.306-3.306-7.656-5.104-12.296-5.104Z" fill="currentColor"/><path d="M119.944 124.207c-.29 0-.551-.116-.783-.319a1.103 1.103 0 0 1 0-1.566l26.129-26.129a1.103 1.103 0 0 1 1.566 0 1.103 1.103 0 0 1 0 1.566l-26.129 26.129a1.12 1.12 0 0 1-.783.319ZM52.809 100.427a6.71 6.71 0 0 1-6.438-4.93l-8.932-33.321a6.542 6.542 0 0 1 .667-5.046 6.663 6.663 0 0 1 4.03-3.103l59.973-16.066a6.542 6.542 0 0 1 5.046.667 6.663 6.663 0 0 1 3.103 4.031l5.249 19.546a1.147 1.147 0 0 1-.783 1.363c-.58.174-1.189-.203-1.363-.783l-5.22-19.575a4.51 4.51 0 0 0-2.088-2.697 4.428 4.428 0 0 0-3.364-.464L42.717 56.115a4.51 4.51 0 0 0-2.697 2.088 4.428 4.428 0 0 0-.464 3.364l8.932 33.321a4.438 4.438 0 0 0 5.452 3.132l5.48-1.479c.58-.145 1.19.203 1.335.783a1.147 1.147 0 0 1-.783 1.363l-5.481 1.479a5.373 5.373 0 0 1-1.682.261Z" fill="currentColor"/><path d="M41.44 73.863c-.492 0-.927-.319-1.072-.812-.145-.58.203-1.189.783-1.334 4.06-1.073 7.424-3.683 9.54-7.308 2.089-3.625 2.64-7.859 1.567-11.919a1.147 1.147 0 0 1 .783-1.363 1.147 1.147 0 0 1 1.363.783 17.724 17.724 0 0 1-1.798 13.601 17.89 17.89 0 0 1-10.875 8.352h-.29ZM107.793 55.477c-7.917 0-15.167-5.278-17.284-13.282a1.147 1.147 0 0 1 .783-1.363 1.147 1.147 0 0 1 1.363.783c2.233 8.352 10.875 13.34 19.227 11.107a1.147 1.147 0 0 1 1.363.783c.145.58-.203 1.189-.783 1.334a17.727 17.727 0 0 1-4.669.638ZM59.74 88.711c-.261 0-.493-.087-.725-.261-3.944-3.335-9.251-4.553-14.239-3.19-.58.145-1.189-.203-1.334-.783a1.147 1.147 0 0 1 .783-1.363 18.003 18.003 0 0 1 16.24 3.654c.464.406.522 1.102.116 1.566a1.085 1.085 0 0 1-.841.377Z" fill="currentColor"/><path d="M110.258 113.419H70.035c-3.654 0-6.641-2.987-6.641-6.641v-34.51c0-3.654 2.987-6.641 6.641-6.641h62.089c3.654 0 6.641 2.987 6.641 6.641v15.341a1.102 1.102 0 1 1-2.204 0V72.268a4.437 4.437 0 0 0-4.437-4.437H70.035a4.437 4.437 0 0 0-4.437 4.437v34.51a4.437 4.437 0 0 0 4.437 4.437h40.223a1.102 1.102 0 1 1 0 2.204Z" fill="currentColor"/><path d="M64.496 84.622a1.102 1.102 0 1 1 0-2.204c8.671 0 15.689-7.047 15.689-15.689a1.102 1.102 0 1 1 2.204 0c0 9.889-8.033 17.893-17.893 17.893ZM137.692 84.622c-9.86 0-17.893-8.033-17.893-17.893a1.102 1.102 0 1 1 2.204 0c0 8.671 7.047 15.689 15.689 15.689a1.102 1.102 0 1 1 0 2.204ZM81.287 112.984a1.102 1.102 0 0 1-1.102-1.102c0-8.671-7.047-15.689-15.689-15.689a1.102 1.102 0 1 1 0-2.204c9.86 0 17.893 8.033 17.893 17.893 0 .609-.493 1.102-1.102 1.102ZM102.428 90.596H97.15a1.102 1.102 0 1 1 0-2.204h5.278a3.614 3.614 0 0 0 3.596-3.596 3.614 3.614 0 0 0-3.596-3.596h-7.569a1.102 1.102 0 1 1 0-2.204h7.569c3.19 0 5.8 2.61 5.8 5.8a5.78 5.78 0 0 1-5.8 5.8Z" fill="currentColor"/><path d="M104.284 99.992h-9.396a1.102 1.102 0 1 1 0-2.204h9.396a3.614 3.614 0 0 0 3.596-3.596 3.614 3.614 0 0 0-3.596-3.596H97.15a1.102 1.102 0 1 1 0-2.204h7.134c3.19 0 5.8 2.61 5.8 5.8s-2.581 5.8-5.8 5.8Z" fill="currentColor"/><path d="M97.15 103.066a1.102 1.102 0 0 1-1.102-1.102V77.053a1.102 1.102 0 1 1 2.204 0v24.911c0 .609-.493 1.102-1.102 1.102ZM101.471 80.852a1.102 1.102 0 0 1-1.102-1.102v-2.668a1.102 1.102 0 1 1 2.204 0v2.668c0 .609-.493 1.102-1.102 1.102ZM101.471 103.066a1.102 1.102 0 0 1-1.102-1.102v-2.668a1.102 1.102 0 1 1 2.204 0v2.668c0 .609-.493 1.102-1.102 1.102Z" fill="currentColor"/>
  </symbol>
</svg>
  