<svg width="174" height="174" viewBox="0 0 174 174" fill="none" xmlns="http://www.w3.org/2000/svg">
  <symbol id="item" viewBox="0 0 174 174"  fill="none">
    <path opacity=".1" d="M112.926 145.174c13.486 0 24.418-10.932 24.418-24.418 0-13.486-10.932-24.418-24.418-24.418-13.486 0-24.418 10.932-24.418 24.418 0 13.486 10.932 24.418 24.418 24.418ZM90.654 34.336 54.172 70.847c-2.001 2.001-.58 5.394 2.233 5.394h72.674c2.813 0 4.234-3.393 2.233-5.394L95.149 34.365a3.195 3.195 0 0 0-4.495-.029Z" fill="currentColor"/><path d="M59.486 69.02v-.5h-9.171a2.555 2.555 0 0 1-2.41-1.605l-.461.191.462-.191c-.414-.998-.201-2.062.561-2.851l30.157-30.157c1.456-1.456 3.838-1.46 5.327.001l.002.002 29.895 29.896c.759.758.975 1.823.586 2.795a2.56 2.56 0 0 1-2.36 1.63h-.001l-9.86.231-.485.011-.003.486-.087 14.036v.003a.601.601 0 0 1-1.204.001v-.001l.084-15.694 11.516-.278c.847-.004 1.178-.676 1.246-.816a.045.045 0 0 0 .006-.011l-.447-.224.447.224c.101-.202.334-.943-.302-1.54L83.091 34.765a2.53 2.53 0 0 0-3.608 0l-30.16 30.16c-.627.628-.392 1.329-.313 1.526l.008.019.009.019.005.01c.072.145.404.817 1.283.817H60.69v37.78c0 .295-.26.573-.602.573a.601.601 0 0 1-.602-.602V69.02ZM60.262 119.241a.601.601 0 0 1-.602-.602v-6.815a.601.601 0 1 1 1.204 0v6.815c0 .333-.269.602-.602.602Z" fill="currentColor" stroke="currentColor"/><path d="M51.417 116.812a1.102 1.102 0 0 1-1.102-1.102V97.121a1.102 1.102 0 1 1 2.204 0v18.589c.03.609-.493 1.102-1.102 1.102Z" fill="currentColor"/><path d="M71.282 94.243a.602.602 0 0 1-.602-.602V75.052a.602.602 0 1 1 1.204 0v18.589c0 .333-.27.602-.602.602ZM60.262 126.607a.601.601 0 0 1-.602-.602v-.928a.601.601 0 1 1 1.204 0v.928c0 .333-.269.602-.602.602Z" fill="currentColor" stroke="currentColor"/><path d="M104.777 138.91c-14.065 0-25.52-11.455-25.52-25.52s11.455-25.52 25.52-25.52 25.52 11.455 25.52 25.52c0 14.094-11.455 25.52-25.52 25.52Zm0-48.836c-12.847 0-23.316 10.469-23.316 23.316s10.47 23.316 23.316 23.316c12.847 0 23.316-10.469 23.316-23.316s-10.469-23.316-23.316-23.316Z" fill="currentColor"/><path d="M107.3 113.767h-6.293a1.102 1.102 0 1 1 0-2.204h6.293a4.499 4.499 0 0 0 4.495-4.495 4.48 4.48 0 0 0-4.495-4.495h-8.99a1.102 1.102 0 1 1 0-2.204h8.99c3.683 0 6.699 3.016 6.699 6.699a6.683 6.683 0 0 1-6.699 6.699Z" fill="currentColor"/><path d="M109.533 124.961H98.31a1.102 1.102 0 1 1 0-2.204h11.194a4.499 4.499 0 0 0 4.495-4.495 4.499 4.499 0 0 0-4.495-4.495h-8.497a1.102 1.102 0 1 1 0-2.204h8.497c3.683 0 6.699 3.016 6.699 6.699s-2.987 6.699-6.67 6.699Z" fill="currentColor"/><path d="M101.007 128.615a1.102 1.102 0 0 1-1.102-1.102V97.875a1.102 1.102 0 1 1 2.204 0v29.638c0 .609-.493 1.102-1.102 1.102ZM106.169 102.167a1.102 1.102 0 0 1-1.102-1.102v-3.19a1.102 1.102 0 1 1 2.204 0v3.19c0 .609-.493 1.102-1.102 1.102ZM106.169 128.615a1.102 1.102 0 0 1-1.102-1.102v-3.19a1.102 1.102 0 1 1 2.204 0v3.19c0 .609-.493 1.102-1.102 1.102Z" fill="currentColor"/>
  </symbol>
</svg>
  