<svg width="216" height="248" viewBox="0 0 216 248" fill="none" xmlns="http://www.w3.org/2000/svg">
  <symbol id="item" viewBox="0 0 216 248"  fill="none">
    <path fill-rule="evenodd" clip-rule="evenodd" d="M107.973 248 216 137.675l-35.532-83.244h20.046V0H15.432v54.431h20.1L0 137.675 107.973 248Z" fill="#ED2127"/><path fill-rule="evenodd" clip-rule="evenodd" d="M25.562 10.345v33.742h164.824V10.345H25.562Z" fill="#FBEE23"/><path fill-rule="evenodd" clip-rule="evenodd" d="M107.973 54.431H46.562c-9.44 22.044-30.918 72.413-34.524 80.97 8.273 8.449 84.056 85.898 95.935 98.03v-179Z" fill="currentColor"/><path fill-rule="evenodd" clip-rule="evenodd" d="M169.386 54.431h-61.412v178.946c11.88-12.132 87.663-89.527 95.936-98.03a49429.321 49429.321 0 0 0-34.524-80.916Z" fill="#FBEE23"/><path fill-rule="evenodd" clip-rule="evenodd" d="m49.055 22.801 3.606 17.007h4.667l5.568-23.993h-4.295l-3.553 18.468-3.607-18.468h-4.454l-3.66 18.468-3.606-18.468h-4.348l5.515 23.993h4.879L49.055 22.8ZM70.852 31.305l2.598-8.179 2.599 8.178H70.85Zm7.901 8.503h4.508l-7.53-20.96h-4.455l-7.53 20.96h4.507l1.538-4.875h7.477l1.485 4.875ZM83.313 18.848v3.628h5.622v17.332h4.295V22.476h5.516l.848-3.628h-16.28ZM103.254 18.848v20.96h4.19v-9.1h6.204V27.08h-6.204v-4.604h7.212l.848-3.628h-12.25ZM127.702 37.046c-4.083 0-5.091-3.412-5.091-7.583 0-4.17 1.008-7.582 5.091-7.582s5.091 3.412 5.091 7.582-1.008 7.583-5.091 7.583Zm0-18.469c-7 0-9.917 4.874-9.917 10.832 0 6.012 2.917 10.832 9.917 10.832s9.917-4.874 9.917-10.832c0-5.958-2.917-10.832-9.917-10.832ZM150.026 27.947h-3.235v-5.47h3.235c1.167 0 2.917.162 2.917 2.545s-1.75 2.925-2.917 2.925Zm2.652 2.978v-.216c1.379 0 4.826-1.354 4.826-5.795 0-4.496-3.341-6.066-7.159-6.066h-7.796v20.96h4.242v-8.72h.372c1.431 0 6.47 8.72 6.47 8.72h5.356l-6.311-8.883ZM170.763 36.179h-3.235V22.476h3.235c2.811 0 4.402 2.763 4.402 6.879.053 4.17-1.591 6.824-4.402 6.824Zm-.106-17.331h-7.318v20.96h7.318c6.523 0 9.281-4.496 9.281-10.453 0-5.958-2.758-10.507-9.281-10.507ZM73.238 70.95c0 .65.053 1.029.106 1.408.053.38.106.812.106 1.787 0 3.196-.742 4.712-1.22 4.712h-.212c-.053-.054-.159-.216-.265-.325-.848-1.245-2.015-2.545-5.144-2.545-2.917 0-4.826 2.112-4.826 5.2 0 4.603 1.114 8.286 2.068 11.264.53 1.734 1.008 3.25 1.008 4.225 0 .812-.371 1.57-.583 1.733-1.114 0-1.538-.379-2.334-1.191-1.06-1.084-2.545-2.6-5.886-2.6-1.432 0-4.72.487-4.72 5.091 0 2.004.69 3.737 1.325 5.362.69 1.733 1.432 3.574 1.432 5.957 0 .217 0 1.896-.53 1.896-2.121 0-2.917-1.354-4.19-3.737-1.06-2.058-2.386-4.658-5.515-4.658-5.09 0-5.09 7.745-5.09 10.67 0 16.464 15.272 22.422 25.56 22.422 1.963 0 3.076-.162 4.19-.325 1.114-.162 2.228-.325 4.349-.325 6.258 0 10.977 1.246 13.788 3.683a15.898 15.898 0 0 0-5.674-1.029c-5.356 0-7.372 1.3-9.228 2.871-.69.595-1.22 1.029-2.174 1.299l-7.637 2.221 7.743 1.787c3.235.758 5.038 3.358 6.894 6.066 2.015 2.925 4.296 6.229 8.485 6.229.372 0 .743-.055 1.114-.109-.371 2.004-.636 4.604-.636 7.583 0 4.278 1.007 5.957 2.386 7.691l.636.866c.584.921 1.22 1.787 1.857 2.6 2.227 2.979 4.295 5.795 4.295 9.694 0 2.059.106 3.738.212 5.308.106 1.625.16 3.141.16 5.037 0 5.687 3.87 7.474 5.939 8.449.212.108.477.217.636.325.425 1.95 2.281 2.6 3.447 2.979l.425.162.424.163c.583.271 1.432.65 2.917.65 3.871 0 5.568-2.925 5.886-5.362.053-.054.159-.054.212-.108 1.697-.759 5.251-2.384 5.251-7.475 0-2.653-.319-4.657-.637-6.445-.212-1.299-.371-2.437-.371-3.574 0-3.25 1.273-4.875 3.076-7.095 2.386-3.033 5.409-6.824 5.409-15.328 0-3.033-.159-5.307-.371-7.095.477.109 1.008.217 1.485.217 5.515 0 7.424-3.412 8.803-6.174 2.599-5.254 7.584-4.929 7.584-4.929s-3.978-6.986-13.417-6.986c-2.864 0-5.091.595-6.788 1.354.795-2.275 2.068-3.304 3.181-3.9 2.599-1.408 6.47-1.516 9.917-1.516 2.122 0 3.607.162 5.039.324 1.378.163 2.757.271 4.56.271 13.948 0 17.607-4.495 21.478-9.261 3.288-4.062 5.463-7.962 5.463-14.082 0-4.062-1.167-8.449-4.402-8.449-2.811 0-4.03 2.708-4.985 4.82-1.167 2.546-1.856 3.629-3.023 3.629-1.538 0-2.811-1.57-2.811-3.52 0-1.787 1.167-4.062 2.281-6.229 1.273-2.491 2.598-5.09 2.598-7.636 0-1.463-.583-2.708-1.644-3.629-.901-.758-2.015-1.137-3.235-1.137-2.492 0-4.454 2.112-6.363 4.116-1.22 1.3-2.864 3.033-3.872 3.141-.212-.162-.53-.92-.53-1.462 0-1.787.795-4.387 1.538-6.933.795-2.708 1.591-5.307 1.591-7.366 0-4.44-2.546-6.445-5.091-6.445-2.281 0-3.766 1.084-4.985 2.004-.902.65-1.485 1.03-2.175 1.084 0-.055-.053-.055-.053-.109v-4.008c0-4.712-.212-7.907-1.962-9.748-.848-.921-2.015-1.355-3.394-1.355-6.311 0-9.175 8.558-9.175 17.007 0 3.9.16 7.366.319 10.724.159 3.195.265 6.228.265 9.478 0 7.853-1.591 14.298-2.917 17.656-.424-3.737-1.114-9.37-5.356-9.37-3.553 0-4.349 4.604-5.303 9.966-.849 4.82-2.016 11.373-4.985 11.373-2.44 0-3.182-4.549-3.819-10.561-.689-5.849-1.432-12.511-6.523-12.511-5.568 0-5.886 7.366-6.151 12.186-.053.596-.053 1.354-.106 2.004-1.38-2.708-2.97-7.366-2.97-11.699 0-5.416.318-9.694.69-13.81.317-3.954.636-8.016.636-12.999 0-10.94-2.652-13.92-5.039-16.519l-.159-.162c-1.59-1.733-3.076-3.412-5.409-3.412-3.129.054-4.879 3.303-4.879 6.499Z" fill="currentColor"/><path fill-rule="evenodd" clip-rule="evenodd" d="m122.876 162.048-.371.595s-1.91-.649-3.66-.649c-3.182 0-4.348 2.22-4.348 2.22s1.06-.65 3.076-.65c2.704 0 4.719 1.517 4.719 2.058 0 .596-.848.867-1.538.867 0 1.354-1.803 3.195-7.159 3.195 0 2.708 1.644 4.496 1.644 5.308-1.379 0-1.538 1.354-1.538 3.737 0 0-1.909-7.637-1.909-10.67 0-4.549 1.803-7.961 5.568-7.961 2.758 0 5.516 1.95 5.516 1.95Zm11.508-15.273c.848 0 1.326.162 1.326.162-4.986.921-4.932 7.095-8.963 7.095-.848 0-1.432-.379-1.432-.379.584-1.138 2.44-1.408 2.44-2.925-1.326 0-2.228.109-3.5.379-.053-.487 3.924-4.332 10.129-4.332Zm-33.517 32.279v-3.304c0-.92-.371-1.3-1.166-1.3l2.068-4.874v-.487c-3.712 0-6.894-.759-6.894-3.467h-1.06c-.213 0-.69-.271-.69-.704 0-.325 1.22-1.787 4.19-1.787 2.227 0 3.552.975 3.552.975s-1.272-3.033-4.666-3.033c-2.016 0-2.546.271-2.546.271s1.22-1.571 2.864-1.571c5.144 0 6.47 3.304 6.47 9.099 0 6.174-2.122 10.182-2.122 10.182Zm-14.265-27.351c0 .542 1.644.921 2.651.921 0 .596-1.166 1.516-2.28 1.516-4.19 0-2.174-6.661-10.553-8.286 0 0 .424-.217 1.538-.217 6.629 0 8.538 5.254 12.144 5.254-1.06.108-3.5.162-3.5.812Zm83.897-43.761c-3.341 0-3.129 8.503-8.061 8.503-2.705 0-4.879-2.492-4.879-5.579 0-4.495 4.879-9.694 4.879-13.865 0-1.787-1.485-2.708-2.811-2.708-3.288 0-6.629 7.258-10.288 7.258-1.697 0-2.493-2.275-2.493-3.52 0-4.063 3.076-10.67 3.076-14.299 0-2.925-1.273-4.387-3.023-4.387-3.235 0-4.295 3.087-7.371 3.087-1.167 0-1.856-1.3-1.856-2.112 0-8.124.424-13.107-3.341-13.107-4.826 0-7.16 7.474-7.16 14.948 0 7.583.584 13.432.584 20.202 0 10.561-2.493 19.389-4.667 21.285 0 0-.53 6.174 1.856 6.174 4.773 0 12.622-13.702 22.273-13.702 4.349 0 4.667 2.762 4.667 3.845 0 3.575-4.985 5.416-4.985 7.691 0 1.137 1.75 1.246 3.872 1.246 6.363 0 11.03-4.008 11.03-4.008s-4.56 5.524-11.72 5.524c-3.129 0-5.568-1.029-5.568-2.87 0-2.979 5.886-5.362 5.886-8.341 0-.921-1.007-2.166-3.235-2.166-7.901 0-16.227 15.273-22.697 15.273-1.326 0-3.182-.921-3.182-4.387 0-2.979-.212-15.165-3.872-15.165-4.348 0-2.28 21.339-10.288 21.339-8.485 0-3.394-23.018-10.341-23.018-4.243 0-3.553 6.228-4.243 11.861-.53 4.604-1.856 8.774-4.613 8.774-3.66 0-6.205-1.733-9.334-3.683-1.962-1.246-4.084-2.491-5.834-3.791-2.81-2.167-4.401-4.333-7.159-4.333-1.485 0-3.129.812-3.129 2.383 0 3.033 3.13 4.225 3.13 6.824 0 1.463-2.122 2.654-4.562 2.654-7.371 0-11.773-4.928-11.773-6.932 0 0 3.66 5.307 12.145 5.307 1.803 0 2.492-.433 2.492-1.354 0-1.733-2.546-3.249-2.546-6.553 0-2.112 1.592-3.791 3.925-3.791 2.917 0 4.932 2.22 7.955 4.441 4.348 3.249 10.023 6.932 14.371 6.932 1.697 0 2.811-.758 2.811-2.545 0-1.679-4.932-6.337-4.932-15.761 0-10.832 1.326-16.844 1.326-26.81 0-10.398-2.44-12.835-4.667-15.272-1.644-1.842-2.545-2.763-3.924-2.763-2.28 0-3.076 2.6-3.076 4.333 0 1.084.265 1.138.265 3.196 0 3.683-.849 6.77-3.235 6.77-2.81 0-1.326-2.87-5.568-2.87-2.015 0-2.811 1.462-2.811 3.14 0 7.15 3.023 12.24 3.023 15.49 0 1.625-.902 3.846-2.546 3.846-4.19 0-3.447-3.791-8.273-3.791-2.068 0-2.704 1.191-2.704 3.033 0 3.52 2.757 6.228 2.757 11.373 0 2.275-.742 3.954-2.598 3.954-6.258 0-5.516-8.395-9.652-8.395-2.121 0-3.023 2.816-3.023 8.557 0 15.328 14.69 20.365 23.546 20.365 3.766 0 4.19-.65 8.538-.65 20.524 0 18.88 12.836 18.88 12.836s-2.599-6.066-10.766-6.066c-7.901 0-7.053 2.979-10.871 4.116 7.902 1.787 8.591 12.24 14.955 12.24 2.864 0 4.242-2.22 4.242-2.22s-1.803 4.712-1.803 11.752c0 4.821 1.38 5.471 2.652 7.42 2.705 4.062 6.523 7.691 6.523 13.432.901 0 1.59-4.279 2.121-4.279.318 0 .637.65.637 1.625 0 2.221-2.334 6.066-2.334 13.053 0 4.17 2.546 5.524 4.455 6.391.477 0 3.129-5.741 3.129-5.741-1.591 4.495-1.114 6.986-1.114 7.311 0 1.192 1.114 1.409 2.599 1.95.795.271 1.272.704 2.704.704 3.341 0 3.978-3.087 3.978-4.278 0-1.192-1.22-3.521-1.22-4.875 0 0-.053-.812.159-.812.424 0 2.174 4.766 2.174 4.766 1.591-.704 4.243-1.733 4.243-5.633 0-4.549-2.705-10.669-2.705-13.486 0-.65.212-1.083.425-1.083.53 0 1.378 2.491 1.378 2.491 1.167-6.932 8.273-7.582 8.273-20.472 0-8.124-1.219-10.778-1.219-10.778s2.121 1.841 4.348 1.841c7.69 0 5.887-7.853 11.879-10.452 0-.759-3.234-3.575-8.909-3.575-7.159 0-9.44 3.954-9.44 3.954 0-11.428 7.849-12.132 15.751-12.132 4.242 0 6.046.595 9.599.595 12.993 0 16.174-3.953 19.887-8.557 3.288-4.062 4.985-7.582 4.985-12.727.424-2.817-.212-6.391-1.962-6.391Z" fill="#ED2127"/><path fill-rule="evenodd" clip-rule="evenodd" d="m114.337 167.301-.319.65s.637.433 1.963.433c2.704 0 3.871-2.22 3.606-2.491-.265-.271-1.432 1.679-3.5 1.679-1.22.054-1.75-.271-1.75-.271Z" fill="#ED2127"/><path fill-rule="evenodd" clip-rule="evenodd" d="M117.255 166.543c0 .217-.265.379-.583.379-.319 0-.584-.162-.584-.379s.265-.379.584-.379c.318 0 .583.216.583.379ZM96.73 165.569c.265.217.849 1.679 2.28 1.679 1.061 0 1.22-.433 1.538-.596.319-.216.69.163.478.488-.212.325-.584.704-1.962.704-1.75 0-2.811-1.463-2.917-1.842-.212-.65 0-.866.583-.433Z" fill="#ED2127"/><path fill-rule="evenodd" clip-rule="evenodd" d="M99.275 166.002c0 .216-.212.325-.478.325-.265 0-.477-.163-.477-.325 0-.217.212-.325.478-.325.265 0 .477.108.477.325Z" fill="#ED2127"/>
  </symbol>
</svg>
  