<svg fill="none" width="22" height="22" viewBox="0 0 22 22" xmlns="http://www.w3.org/2000/svg">
  <symbol id="item" viewBox="0 0 22 22"  fill="none">
    <clipPath id="a"><path d="M0 0h22v22H0z"/></clipPath><g clip-path="url(#a)" clip-rule="evenodd" fill-rule="evenodd"><path d="M0 8.556V0h22v8.533L11 22.001z" fill="currentColor"/><path d="m1.256 8.172 8.023 9.792V8.172z" fill="#d71920"/><g fill="#001522"><path d="m20.744 8.173-8.023 9.791V8.173zM9.256 2.975H7.843v.836h1.413c.107 0 .175-.028.205-.058.127-.107.116-.614 0-.71a.285.285 0 0 0-.205-.068zM1.222 1.236v5.715h19.556V1.236zm4.595 4.249c0 .174-.254.553-.457.553H2.407v-.884h2.388c.165 0 .165-.698 0-.698H2.982c-.214 0-.576-.195-.576-.427l-.01-1.305c0-.633.527-.565.966-.565h2.457v.768H3.43c-.224 0-.214.732 0 .732h1.618c.342 0 .78.087.78.583zm4.58-1.635c0 .282-.054.441-.197.584a.629.629 0 0 1-.467.173H7.862v1.43h-.887v-3.88h2.758c.253 0 .364.06.468.166.12.13.189.3.196.476zm4.6-.943h-2.615v.894h1.95v.818h-1.95v1.428h-.808v-3.9h3.422zm4.622 2.223c0 .474-.177.932-.78.932h-1.904c-.67 0-.778-.37-.778-.932l-.01-2.403c0-.311.273-.592.78-.592h1.94c.497 0 .732.37.732.592v.806h-.838c0-.406-.05-.582-.264-.582h-1.2c-.166 0-.342.223-.342.398v1.507c0 .079.148.32.284.32h1.248c.186-.02.273-.206.263-.545h.869z"/></g></g>
  </symbol>
</svg>
  