<svg width="164" height="164" viewBox="0 0 164 164" fill="none" xmlns="http://www.w3.org/2000/svg">
  <symbol id="item" viewBox="0 0 164 164"  fill="none">
    <path d="M82.5 147.997c-31.715-13.816-52.995-44.903-52.995-79.608V15.51h105.908v52.88c0 34.704-21.28 65.791-52.913 79.607ZM141 68.389V10H24v58.39c0 38.24 23.58 70.807 58.5 85.61 34.837-14.721 58.5-47.287 58.5-85.61Z" fill="currentColor"/><path fill-rule="evenodd" clip-rule="evenodd" d="M82.5 150.793c16.514-6.99 30.647-18.339 40.588-33.389 9.531-14.392 15.036-31.498 15.036-49.097V12.714H26.876v55.593c0 17.6 5.505 34.705 15.035 49.097 9.942 15.132 24.074 26.399 40.589 33.389Z" fill="currentColor"/><path fill-rule="evenodd" clip-rule="evenodd" d="M132.947 79.737H31.969c-.575-3.782-.821-7.648-.821-11.513v-5.18h102.621v5.18c0 3.865-.247 7.73-.822 11.513ZM44.294 113.21h76.411a87.878 87.878 0 0 0 8.134-16.777h-92.68c2.137 5.839 4.848 11.514 8.135 16.777Zm38.205 33.06c-9.12-3.947-17.5-9.54-24.648-16.283h49.297c-7.148 6.743-15.529 12.336-24.649 16.283Zm0.003h51.27V29.49h-51.27v16.776ZM31.148 58.931h47.325V16.825H31.148V58.93Z" fill="#C3281E"/><path fill-rule="evenodd" clip-rule="evenodd" d="M46.43 50.871c0 2.632-.657 3.865-1.725 4.687 1.397 1.48 5.094 2.139 8.052 1.234-1.972-1.234-2.547-3.125-2.547-5.51-1.315 0-2.547-.164-3.78-.411Zm13.475.493V48.98c-1.068-1.563-2.3-3.372-3.698-4.524v6.58c0 2.384-.657 3.865-1.725 4.605 1.397 1.48 5.094 2.138 8.052 1.233-1.972-1.316-2.63-3.536-2.63-5.51Zm11.584-18.832c4.19-2.056 3.37-7.32 2.876-8.635-.657 1.233-1.971 1.973-4.272 1.973H67.38c.576.905 1.15 1.892 1.644 2.961 2.136.082 2.793 2.385 2.464 3.7Zm-6.901 9.54c2.3 0 3.204 1.562 3.04 3.7 4.026-2.138 3.369-6.826 2.794-8.142-.658.823-1.562 1.563-3.78 1.563h-6.655v-10.28h2.054a7.07 7.07 0 0 0-1.397-2.96h-.904c-1.725 0-3.286-.247-5.012-.905l1.48 3.865v10.198c1.807.576 3.04 1.645 4.272 2.96h4.108Zm-3.862-3.784h3.04c3.369-3.454 2.794-7.73 5.094-7.73-3.204-7.895-7.64-11.76-17.5-11.513-2.958.082-4.437.082-6.82-.823l1.808 4.688c1.725-.658 3.862-1.07 5.998-1.07 6.408 0 10.845 3.537 10.845 9.952-.082 2.467-.821 4.77-2.465 6.496Zm-20.705-1.562c0 5.592 3.616 10.115 9.203 10.855 2.054.247 4.272 0 6.162-.904v2.878c-2.054.658-4.026.987-5.998.822-8.134-.328-13.557-6.66-15.282-14.309 1.56 0 2.136-2.138 3.45-4.605 1.973-3.537 5.259-6.58 9.12-7.895 1.644-.576 3.616-.987 5.67-.987.493 0 .986 0 1.479.082.657 1.727.575 5.674-.247 7.484-.904-2.385-2.876-3.454-5.012-3.454-5.258.082-8.545 4.934-8.545 10.033Zm10.106-8.882v11.02c2.712 0 5.916.411 8.299 2.385 3.45 2.878 5.34 6.58 7.312 8.717 2.136 2.385 4.848 2.139 7.148.494-.328 3.454-4.026 6.085-5.751 6.497-2.876-2.056-5.998-7.977-8.38-11.02-2.219-2.879-4.273-4.03-8.628-4.03v4.934c-1.314-.082-2.547-.329-3.697-.822V27.844c1.233-.329 2.465-.411 3.697 0Z" fill="currentColor"/>
  </symbol>
</svg>
  