<svg width="164" height="164" viewBox="0 0 164 164" fill="none" xmlns="http://www.w3.org/2000/svg">
  <symbol id="item" viewBox="0 0 164 164"  fill="none">
    <path fill-rule="evenodd" clip-rule="evenodd" d="M81.984 154 145 89.94l-20.727-48.335h11.693V10H28.002v31.605h11.725L19 89.94 81.984 154Z" fill="#ED2127"/><path fill-rule="evenodd" clip-rule="evenodd" d="M33.911 16.006V35.6h96.148V16.007H33.911Z" fill="#FBEE23"/><path fill-rule="evenodd" clip-rule="evenodd" d="M81.984 41.605H46.161c-5.507 12.8-18.035 42.046-20.139 47.015 4.826 4.906 49.033 49.876 55.962 56.921V41.605Z" fill="currentColor"/><path fill-rule="evenodd" clip-rule="evenodd" d="M117.809 41.605H81.985V145.51c6.93-7.044 51.137-51.983 55.963-56.92a29167.71 29167.71 0 0 0-20.139-46.984Z" fill="#FBEE23"/><path fill-rule="evenodd" clip-rule="evenodd" d="m47.615 23.24 2.104 9.874h2.722l3.248-13.931h-2.505L51.11 29.907l-2.104-10.724H46.41l-2.135 10.724-2.103-10.724h-2.537l3.217 13.931h2.846l1.918-9.874ZM60.33 28.177l1.516-4.749 1.516 4.749H60.33Zm4.61 4.937h2.629l-4.393-12.17h-2.599l-4.392 12.17h2.63l.896-2.83h4.362l.866 2.83ZM67.6 20.944v2.107h3.279v10.063h2.505V23.051h3.218l.495-2.107h-9.498ZM79.231 20.944v12.17h2.445v-5.283h3.619v-2.107h-3.62V23.05h4.208l.494-2.107h-7.145ZM93.493 31.51c-2.382 0-2.97-1.98-2.97-4.402s.588-4.403 2.97-4.403 2.97 1.981 2.97 4.403c0 2.421-.588 4.402-2.97 4.402Zm0-10.723c-4.084 0-5.785 2.83-5.785 6.29 0 3.49 1.701 6.289 5.785 6.289 4.083 0 5.785-2.83 5.785-6.29s-1.702-6.29-5.785-6.29ZM106.515 26.227h-1.887v-3.176h1.887c.681 0 1.702.094 1.702 1.478s-1.021 1.698-1.702 1.698Zm1.547 1.73v-.126c.804 0 2.815-.786 2.815-3.365 0-2.61-1.949-3.522-4.176-3.522h-4.548v12.17h2.475v-5.063h.217c.835 0 3.774 5.063 3.774 5.063h3.124l-3.681-5.157ZM118.612 31.007h-1.887v-7.956h1.887c1.639 0 2.568 1.604 2.568 3.994.03 2.421-.929 3.962-2.568 3.962Zm-.062-10.063h-4.269v12.17h4.269c3.805 0 5.414-2.61 5.414-6.07 0-3.459-1.609-6.1-5.414-6.1ZM61.722 51.197c0 .377.031.597.062.817.03.22.062.472.062 1.038 0 1.855-.433 2.736-.712 2.736h-.123c-.031-.031-.093-.126-.155-.189-.495-.723-1.176-1.478-3-1.478-1.702 0-2.816 1.227-2.816 3.02 0 2.672.65 4.81 1.206 6.54.31 1.007.588 1.887.588 2.453 0 .472-.216.912-.34 1.007-.65 0-.897-.22-1.361-.692-.619-.629-1.485-1.51-3.434-1.51-.835 0-2.753.283-2.753 2.957 0 1.163.402 2.17.773 3.113.402 1.006.835 2.075.835 3.459 0 .126 0 1.1-.309 1.1-1.237 0-1.701-.785-2.444-2.17-.619-1.194-1.392-2.704-3.217-2.704-2.97 0-2.97 4.497-2.97 6.196 0 9.56 8.91 13.019 14.91 13.019 1.146 0 1.795-.094 2.445-.189.65-.094 1.3-.189 2.537-.189 3.65 0 6.403.724 8.043 2.14a9.31 9.31 0 0 0-3.31-.598c-3.125 0-4.3.754-5.383 1.667-.402.345-.712.597-1.268.754l-4.455 1.29 4.517 1.037c1.886.44 2.938 1.95 4.021 3.522 1.176 1.699 2.506 3.617 4.95 3.617.216 0 .433-.032.65-.063-.217 1.163-.372 2.673-.372 4.403 0 2.484.588 3.459 1.392 4.466l.371.502c.34.535.712 1.038 1.083 1.51 1.3 1.73 2.506 3.365 2.506 5.629 0 1.195.062 2.17.124 3.082.062.943.093 1.824.093 2.925 0 3.302 2.258 4.339 3.464 4.906.124.062.279.126.371.188.248 1.132 1.33 1.51 2.011 1.73l.248.094.247.095c.34.157.836.377 1.702.377 2.258 0 3.248-1.698 3.433-3.113.031-.032.093-.032.124-.063.99-.441 3.063-1.384 3.063-4.34 0-1.541-.186-2.704-.371-3.743-.124-.754-.217-1.415-.217-2.075 0-1.887.743-2.83 1.794-4.12 1.392-1.761 3.156-3.962 3.156-8.9 0-1.761-.093-3.081-.217-4.119.279.063.588.126.867.126 3.217 0 4.33-1.981 5.135-3.585 1.516-3.05 4.424-2.862 4.424-2.862s-2.321-4.057-7.827-4.057c-1.67 0-2.97.346-3.96.787.464-1.321 1.207-1.919 1.856-2.265 1.516-.817 3.774-.88 5.785-.88 1.238 0 2.104.094 2.939.188.804.095 1.609.157 2.66.157 8.137 0 10.271-2.61 12.529-5.377 1.918-2.359 3.187-4.623 3.187-8.177 0-2.358-.681-4.906-2.568-4.906-1.64 0-2.351 1.573-2.908 2.8-.681 1.477-1.083 2.106-1.763 2.106-.897 0-1.64-.911-1.64-2.044 0-1.037.681-2.358 1.331-3.616.742-1.447 1.515-2.956 1.515-4.434 0-.85-.34-1.573-.959-2.107-.525-.44-1.175-.66-1.887-.66-1.454 0-2.598 1.226-3.712 2.39-.711.754-1.67 1.76-2.258 1.823-.124-.094-.31-.534-.31-.849 0-1.038.464-2.547.898-4.025.463-1.573.928-3.082.928-4.277 0-2.579-1.485-3.742-2.97-3.742-1.331 0-2.197.629-2.908 1.163-.526.378-.866.598-1.269.63 0-.032-.031-.032-.031-.064v-2.326c0-2.737-.123-4.592-1.144-5.661-.495-.535-1.176-.787-1.98-.787-3.681 0-5.352 4.97-5.352 9.875 0 2.264.093 4.277.186 6.227.093 1.855.155 3.616.155 5.503 0 4.56-.928 8.302-1.702 10.252-.247-2.17-.65-5.44-3.124-5.44-2.073 0-2.537 2.673-3.094 5.786-.495 2.799-1.176 6.604-2.908 6.604-1.423 0-1.856-2.641-2.227-6.132-.402-3.397-.836-7.265-3.805-7.265-3.248 0-3.434 4.277-3.589 7.076-.03.346-.03.786-.062 1.163-.804-1.572-1.732-4.276-1.732-6.792 0-3.145.186-5.63.402-8.02.186-2.295.371-4.654.371-7.547 0-6.352-1.546-8.082-2.939-9.592l-.092-.094c-.928-1.006-1.795-1.981-3.156-1.981-1.825.031-2.846 1.918-2.846 3.774Z" fill="currentColor"/><path fill-rule="evenodd" clip-rule="evenodd" d="m90.678 104.092-.217.346s-1.114-.377-2.135-.377c-1.856 0-2.536 1.289-2.536 1.289s.618-.377 1.794-.377c1.578 0 2.753.88 2.753 1.195 0 .346-.495.503-.897.503 0 .786-1.052 1.855-4.176 1.855 0 1.573.959 2.611.959 3.082-.805 0-.897.786-.897 2.17 0 0-1.114-4.434-1.114-6.195 0-2.642 1.052-4.623 3.248-4.623 1.609 0 3.218 1.132 3.218 1.132Zm6.713-8.868c.494 0 .773.094.773.094-2.908.535-2.877 4.12-5.228 4.12-.495 0-.836-.22-.836-.22.341-.66 1.424-.818 1.424-1.699-.774 0-1.3.064-2.042.22-.03-.282 2.29-2.515 5.909-2.515Zm-19.552 18.743v-1.919c0-.534-.216-.754-.68-.754l1.206-2.831v-.282c-2.165 0-4.021-.441-4.021-2.013h-.619c-.124 0-.402-.158-.402-.409 0-.189.711-1.038 2.444-1.038 1.299 0 2.072.566 2.072.566s-.742-1.761-2.722-1.761c-1.175 0-1.485.158-1.485.158s.712-.913 1.67-.913c3.001 0 3.775 1.919 3.775 5.284 0 3.585-1.238 5.912-1.238 5.912Zm-8.321-15.881c0 .314.959.534 1.546.534 0 .346-.68.88-1.33.88-2.444 0-1.268-3.867-6.156-4.81 0 0 .248-.127.897-.127 3.867 0 4.98 3.051 7.085 3.051-.62.063-2.042.094-2.042.472Zm48.94-25.41c-1.949 0-1.825 4.937-4.702 4.937-1.578 0-2.847-1.447-2.847-3.24 0-2.61 2.847-5.628 2.847-8.05 0-1.037-.867-1.572-1.64-1.572-1.918 0-3.867 4.214-6.002 4.214-.989 0-1.454-1.32-1.454-2.044 0-2.359 1.795-6.195 1.795-8.302 0-1.699-.743-2.548-1.764-2.548-1.887 0-2.505 1.793-4.3 1.793-.68 0-1.082-.755-1.082-1.227 0-4.717.247-7.61-1.95-7.61-2.814 0-4.176 4.34-4.176 8.68 0 4.402.34 7.799.34 11.73 0 6.132-1.453 11.258-2.722 12.359 0 0-.309 3.584 1.083 3.584 2.784 0 7.363-7.956 12.993-7.956 2.537 0 2.722 1.604 2.722 2.233 0 2.076-2.908 3.145-2.908 4.466 0 .66 1.021.723 2.259.723 3.712 0 6.434-2.327 6.434-2.327s-2.66 3.208-6.837 3.208c-1.825 0-3.248-.598-3.248-1.667 0-1.73 3.434-3.113 3.434-4.843 0-.535-.588-1.258-1.887-1.258-4.609 0-9.466 8.868-13.24 8.868-.774 0-1.856-.534-1.856-2.547 0-1.73-.124-8.805-2.259-8.805-2.536 0-1.33 12.39-6.001 12.39-4.95 0-1.98-13.365-6.033-13.365-2.474 0-2.072 3.616-2.474 6.887-.31 2.673-1.083 5.094-2.692 5.094-2.134 0-3.62-1.006-5.444-2.138-1.145-.724-2.382-1.447-3.403-2.201-1.64-1.259-2.568-2.516-4.177-2.516-.866 0-1.825.471-1.825 1.383 0 1.761 1.825 2.454 1.825 3.963 0 .85-1.237 1.54-2.66 1.54-4.3 0-6.868-2.86-6.868-4.024 0 0 2.135 3.081 7.085 3.081 1.051 0 1.453-.251 1.453-.786 0-1.006-1.485-1.886-1.485-3.805 0-1.226.929-2.201 2.29-2.201 1.701 0 2.877 1.289 4.64 2.579 2.537 1.886 5.847 4.025 8.384 4.025.99 0 1.64-.44 1.64-1.478 0-.975-2.878-3.68-2.878-9.152 0-6.29.773-9.78.773-15.566 0-6.038-1.422-7.454-2.722-8.869-.959-1.069-1.485-1.604-2.289-1.604-1.33 0-1.794 1.51-1.794 2.516 0 .63.154.66.154 1.856 0 2.138-.495 3.93-1.887 3.93-1.64 0-.773-1.666-3.248-1.666-1.175 0-1.64.85-1.64 1.824 0 4.151 1.764 7.107 1.764 8.994 0 .944-.526 2.233-1.485 2.233-2.444 0-2.01-2.201-4.826-2.201-1.206 0-1.578.691-1.578 1.76 0 2.045 1.609 3.617 1.609 6.605 0 1.32-.433 2.295-1.516 2.295-3.65 0-3.217-4.874-5.63-4.874-1.237 0-1.763 1.635-1.763 4.969 0 8.9 8.569 11.824 13.735 11.824 2.196 0 2.444-.377 4.98-.377 11.973 0 11.014 7.453 11.014 7.453s-1.516-3.522-6.28-3.522c-4.61 0-4.115 1.73-6.342 2.39 4.61 1.037 5.011 7.107 8.724 7.107 1.67 0 2.474-1.289 2.474-1.289s-1.051 2.736-1.051 6.824c0 2.799.804 3.176 1.547 4.308 1.577 2.359 3.805 4.466 3.805 7.799.525 0 .928-2.484 1.237-2.484.186 0 .371.377.371.943 0 1.29-1.361 3.522-1.361 7.579 0 2.422 1.485 3.208 2.599 3.711.278 0 1.825-3.333 1.825-3.333-.928 2.61-.65 4.056-.65 4.245 0 .692.65.818 1.516 1.132.464.157.742.409 1.577.409 1.95 0 2.321-1.793 2.321-2.484 0-.692-.712-2.045-.712-2.831 0 0-.03-.471.093-.471.247 0 1.268 2.767 1.268 2.767.928-.409 2.475-1.006 2.475-3.271 0-2.641-1.578-6.195-1.578-7.83 0-.378.124-.629.248-.629.31 0 .804 1.446.804 1.446.68-4.025 4.826-4.402 4.826-11.887 0-4.717-.711-6.258-.711-6.258s1.237 1.069 2.536 1.069c4.486 0 3.434-4.56 6.93-6.069 0-.44-1.887-2.076-5.197-2.076-4.176 0-5.507 2.296-5.507 2.296 0-6.635 4.579-7.044 9.188-7.044 2.475 0 3.527.345 5.6.345 7.579 0 9.434-2.295 11.6-4.968 1.918-2.359 2.908-4.403 2.908-7.39.248-1.636-.123-3.711-1.144-3.711Z" fill="#ED2127"/><path fill-rule="evenodd" clip-rule="evenodd" d="m85.697 107.143-.187.377s.372.251 1.146.251c1.577 0 2.258-1.289 2.103-1.446-.154-.157-.835.975-2.042.975-.711.031-1.02-.157-1.02-.157Z" fill="#ED2127"/><path fill-rule="evenodd" clip-rule="evenodd" d="M87.398 106.702c0 .126-.154.22-.34.22-.186 0-.34-.094-.34-.22s.154-.22.34-.22c.186 0 .34.126.34.22ZM75.426 106.137c.154.126.495.975 1.33.975.619 0 .712-.252.897-.346.186-.126.402.094.279.283-.124.189-.34.409-1.145.409-1.02 0-1.64-.85-1.702-1.07-.123-.377 0-.503.34-.251Z" fill="#ED2127"/><path fill-rule="evenodd" clip-rule="evenodd" d="M76.91 106.388c0 .126-.124.189-.278.189-.155 0-.279-.095-.279-.189 0-.126.124-.188.279-.188.154 0 .278.062.278.188Z" fill="#ED2127"/>
  </symbol>
</svg>
  