<svg width="164" height="164" viewBox="0 0 164 164" fill="none" xmlns="http://www.w3.org/2000/svg">
  <symbol id="item" viewBox="0 0 164 164"  fill="none">
    <path d="M82.5 8.154c-14.884 0-42.33 3.875-56.306 12.053C7.792 85.85 32.818 130.49 82.5 155.827c49.682-25.337 74.708-70.197 56.306-135.62C124.815 12.03 97.384 8.154 82.5 8.154Z" fill="#9C824A"/><path fill-rule="evenodd" clip-rule="evenodd" d="M53.978 10.962C64.455 8.97 75.047 8 82.5 8c7.453 0 18.041.97 28.516 2.962 10.473 1.992 20.849 5.01 27.867 9.111l.054.032.017.06c9.209 32.739 7.555 60.348-2.63 82.948-10.184 22.599-28.89 40.172-53.755 52.852l-.07.035-.069-.035c-24.863-12.68-43.57-30.197-53.754-52.769-10.185-22.573-11.839-50.182-2.63-83.031l.017-.06.053-.032c7.012-4.102 17.388-7.119 27.862-9.11ZM26.325 20.31c-9.175 32.768-7.512 60.28 2.63 82.759C39.095 125.54 57.717 143 82.5 155.654c24.783-12.654 43.405-30.169 53.545-52.669 10.142-22.506 11.805-50.018 2.63-82.676-6.971-4.06-17.28-7.058-27.716-9.043-10.459-1.99-21.028-2.957-28.46-2.957-7.43 0-18.003.967-28.464 2.957-10.437 1.985-20.746 4.983-27.71 9.043Z" fill="#9C824A"/><path d="M82.5 12.375c-14.623 0-31.087 1.882-52.65 10.738-16.053 57.3 2.57 103.227 52.65 128.258 50.08-25.031 68.689-70.958 52.637-128.258-21.564-8.856-38.014-10.738-52.637-10.738Z" fill="#003F90"/><path fill-rule="evenodd" clip-rule="evenodd" d="M29.791 22.97c21.585-8.865 38.07-10.75 52.709-10.75 14.64 0 31.11 1.885 52.695 10.75l.069.028.02.073c8.033 28.675 7.398 54.518-1.524 76.33-8.922 21.813-26.124 39.579-51.192 52.108l-.068.034-.068-.034c-25.068-12.529-42.274-30.294-51.2-52.108-8.924-21.812-9.564-47.655-1.53-76.33l.02-.073.07-.028Zm.186.257c-7.998 28.596-7.346 54.341 1.54 76.057 8.884 21.713 26.007 39.414 50.983 51.914 24.975-12.5 42.095-30.201 50.976-51.914 8.882-21.716 9.531-47.461 1.533-76.057-21.508-8.822-37.919-10.697-52.51-10.697-14.59 0-31.014 1.875-52.522 10.697Z" fill="#003F90"/><path d="M82.431 12.32c-14.554 0-30.18 2.172-44.28 7.541-14.624 58.67-3.835 101.511 44.363 131.469L82.43 12.32Zm.083 139.01c48.197-29.958 58.972-72.799 44.349-131.469-14.1-5.37-29.713-7.541-44.267-7.541l-.082 139.01Z" fill="currentColor"/><path fill-rule="evenodd" clip-rule="evenodd" d="M38.096 19.717c14.122-5.378 29.767-7.552 44.335-7.552v.155h.012v-.155h.153c14.568 0 30.2 2.174 44.321 7.552l.076.028.019.078c7.315 29.351 8.283 54.76 1.38 76.586-6.896 21.808-21.644 40.021-45.725 55.007v.191l-.234-.146c-24.124-14.995-38.898-33.222-45.805-55.052-6.906-21.826-5.942-47.235 1.373-76.586l.02-.078.075-.028Zm44.572 131.335c23.934-14.935 38.577-33.06 45.432-54.736 6.872-21.732 5.924-47.053-1.366-76.339-14.01-5.321-29.514-7.488-43.984-7.503l-.082 138.578Zm-.308 0c-23.935-14.935-38.58-33.06-45.44-54.736-6.875-21.732-5.93-47.053 1.36-76.339 14.01-5.321 29.527-7.488 43.998-7.503l.082 138.578Z" fill="currentColor"/><path d="M82.514 12.306c-14.637 0-29.452 2.228-41.491 6.448-15.145 61.493-2.983 103.019 41.504 131.399l-.013-137.847Z" fill="#EF0107"/><path fill-rule="evenodd" clip-rule="evenodd" d="M40.972 18.608c12.059-4.227 26.891-6.456 41.542-6.456v.154h.153l.014 138.128-.236-.151c-22.268-14.206-36.457-31.71-43.179-53.366-6.72-21.653-5.969-47.438 1.608-78.2l.02-.082.078-.027ZM82.36 12.46c-14.54.015-29.245 2.23-41.208 6.411-7.55 30.695-8.284 56.393-1.592 77.953 6.672 21.498 20.731 38.9 42.814 53.047L82.36 12.461Z" fill="#EF0107"/><path d="M82.541 12.306c14.637 0 29.452 2.228 41.505 6.448 15.145 61.493 2.982 103.019-41.518 131.399l.013-137.847Z" fill="#DB0007"/><path fill-rule="evenodd" clip-rule="evenodd" d="M82.541 12.306h-.153l-.014 138.128.236-.151c22.275-14.206 36.468-31.71 43.19-53.366 6.722-21.653 5.971-47.438-1.605-78.2l-.02-.082-.079-.027c-12.071-4.227-26.904-6.456-41.555-6.456v.154Zm41.376 6.566c-11.977-4.18-26.681-6.396-41.222-6.411l-.014 137.411c22.09-14.147 36.153-31.549 42.826-53.047 6.693-21.56 5.96-47.258-1.59-77.953Z" fill="#DB0007"/><path d="M63.603 105.099c-6.46 4.456-11.599 6.061-17.564 7.652l-3.6-5.632c5.483-2.794 11.16-6.683 16.877-12.314.48 5.465 3.009 9.339 4.287 10.294Z" fill="currentColor"/><path d="M62.723 104.864c-6.129 4.234-14.664 7.181-24.435 8.62l-1.993-3.044c8.37-3.155 16.45-7.859 22.718-14.474.948 4.234 2.39 7.044 3.71 8.898Z" fill="#9C824A"/><path d="M46.397 79.002c0 2.366-1.897 4.276-4.247 4.276-2.35 0-4.26-1.91-4.26-4.276a4.267 4.267 0 0 1 4.26-4.276c2.35 0 4.247 1.91 4.247 4.276Z" fill="currentColor"/><path d="M45.943 70.575v16.134h12.63c.824-5.41 3.875-11.153 10.788-16.134H45.943Z" fill="currentColor"/><path d="M46.452 86.71c-2.818.04-5.14-3.516-5.182-7.971-.027-4.456 2.227-8.109 5.058-8.164h.096" fill="currentColor"/><path d="M44.61 79.002c0 1.826-1.32 3.293-2.941 3.293-1.622 0-2.941-1.466-2.941-3.293 0-1.827 1.319-3.293 2.94-3.293 1.623 0 2.942 1.466 2.942 3.293Zm1.677-7.583V85.92H58.82c.989-4.815 3.422-9.935 9.496-14.501h-22.03Z" fill="#9C824A"/><path d="M46.754 85.92c-2.653.056-4.824-3.154-4.865-7.154-.028-3.998 2.102-7.292 4.755-7.347h.082" fill="#9C824A"/><path d="M106.482 90.487c0 13.464-10.83 24.367-24.202 24.367-13.359 0-24.202-10.903-24.202-24.367S68.921 66.119 82.28 66.119c13.372 0 24.202 10.904 24.202 24.368Z" fill="currentColor"/><path d="M105.218 90.487c0 12.758-10.267 23.094-22.938 23.094-12.657 0-22.923-10.336-22.923-23.094 0-12.744 10.266-23.094 22.923-23.094 12.671 0 22.938 10.336 22.938 23.094Z" fill="#9C824A"/><path d="M101.411 90.487c0 10.641-8.563 19.262-19.131 19.262-10.555 0-19.117-8.621-19.117-19.262s8.562-19.262 19.117-19.262c10.568 0 19.131 8.62 19.131 19.262Z" fill="currentColor"/><path d="M100.147 90.487c0 9.935-8 17.974-17.867 17.974-9.854 0-17.852-8.039-17.852-17.974s7.998-17.975 17.852-17.975c9.868 0 17.867 8.04 17.867 17.975Z" fill="#9C824A"/><path d="M89.729 90.487c.014 4.137-3.326 7.5-7.436 7.513-4.122 0-7.462-3.362-7.462-7.5v-.013c0-4.138 3.326-7.5 7.449-7.5 4.109-.014 7.448 3.349 7.448 7.486v.014Z" fill="currentColor"/><path d="M88.85 90.487c0 3.653-2.928 6.614-6.556 6.614s-6.57-2.947-6.583-6.6v-.014c0-3.653 2.94-6.614 6.569-6.614 3.628 0 6.57 2.947 6.57 6.6v.014Z" fill="#9C824A"/><path d="M85.661 90.487a3.407 3.407 0 0 1-3.38 3.403c-1.856 0-3.368-1.521-3.368-3.403a3.396 3.396 0 0 1 3.367-3.404 3.361 3.361 0 0 1 2.392.997 3.401 3.401 0 0 1 .989 2.407Z" fill="currentColor"/><path d="M84.727 90.487a2.472 2.472 0 0 1-.716 1.742 2.442 2.442 0 0 1-2.668.534 2.443 2.443 0 0 1-1.324-1.334 2.472 2.472 0 0 1-.185-.942 2.46 2.46 0 0 1 2.446-2.463 2.43 2.43 0 0 1 1.731.72 2.46 2.46 0 0 1 .716 1.743Z" fill="#9C824A"/><path d="M79.71 72.097h5.085v11.941H79.71V72.097Z" fill="currentColor"/><path d="M80.507 70.381h3.504v15.18h-3.504V70.38Z" fill="#9C824A"/><path d="m96.45 78.835 2.775 4.29-9.95 6.504-2.762-4.29 9.936-6.504Z" fill="currentColor"/><path d="m98.305 78.573 1.91 2.961-12.644 8.275-1.91-2.975 12.644-8.261Z" fill="#9C824A"/><path d="m75.147 91.455 2.721 4.317-10.018 6.394-2.721-4.332 10.018-6.379Z" fill="currentColor"/><path d="m76.852 91.206 1.882 2.99-12.726 8.122-1.883-2.99 12.727-8.122Z" fill="#9C824A"/><path d="M79.71 97.337h5.085v11.94H79.71v-11.94Z" fill="currentColor"/><path d="M80.507 95.635h3.504V110.8h-3.504V95.635Z" fill="#9C824A"/><path d="M77.319 96.063c.687.581 1.443 1.107 2.391 1.508l-.027 10.655c-4.797-.623-8.425-3.002-11.174-6.392l8.824-5.77" fill="#EF0107"/><path fill-rule="evenodd" clip-rule="evenodd" d="M68.599 101.848c2.722 3.335 6.303 5.678 11.024 6.309l.027-10.545c-.92-.395-1.659-.906-2.33-1.468l-8.721 5.704Zm8.728-5.794-.027-.042-8.88 5.808.043.052c2.757 3.4 6.398 5.789 11.212 6.414l.068.009.028-10.764-.037-.015c-.942-.399-1.692-.92-2.376-1.5l-.031.038Z" fill="#EF0107"/><path d="M87.227 96.105c-.7.567-1.443 1.107-2.39 1.494l.013 10.655c4.796-.623 8.425-3.002 11.173-6.393l-8.81-5.756" fill="#DB0007"/><path fill-rule="evenodd" clip-rule="evenodd" d="m87.247 96.054 8.865 5.793-.042.053c-2.757 3.4-6.399 5.789-11.213 6.414l-.067.009-.014-10.765.038-.015c.94-.384 1.676-.92 2.376-1.485l.03.038.027-.042Zm-.022.13c-.682.55-1.409 1.074-2.329 1.456l.014 10.545c4.72-.631 8.302-2.974 11.024-6.31l-8.71-5.69Z" fill="#DB0007"/><path d="m89.633 91.635 10.499-1.273c.083 2.642-.55 4.968-1.443 7.195l-9.084-5.922" fill="#DB0007"/><path d="M89.647 91.594c.04-.166.027-.318.096-.803l10.363-1.356c.041.485.013.664 0 .886l-10.46 1.273Z" fill="currentColor"/><path fill-rule="evenodd" clip-rule="evenodd" d="m100.16 89.367.006.063c.035.413.02.609.007.792a3.39 3.39 0 0 0-.007.102l-.003.05-10.596 1.29.021-.085c.02-.078.026-.152.036-.272.01-.12.025-.28.06-.524l.006-.046 10.47-1.37Zm-10.364 1.478a8.57 8.57 0 0 0-.052.472v.004c-.007.079-.012.142-.022.202l10.327-1.256a.941.941 0 0 1 .004-.053c.012-.173.025-.35-.002-.71l-10.255 1.341Z" fill="currentColor"/><path d="M104.984 82.807h13.592c-.426 1.619-.838 3.266-2.79 4-3.12 1.176-9.593 2.31-9.593 2.31-.123-1.785-.522-4.207-1.209-6.31Z" fill="currentColor"/><path d="m95.515 70.34 35.513.041-1.251 13.062-24.257 1.273c-1.306-5.839-5.718-11.415-10.005-14.376Z" fill="currentColor"/><path d="m96.78 71.267 45.338.04-1.732 10.642-35.182 1.744c-1.389-5.286-4.563-9.147-8.425-12.426Z" fill="#9C824A"/><path d="M104.984 82.807h12.52c-.412 1.439-.701 2.754-2.542 3.404-2.928 1.052-8.823 1.882-8.823 1.882a34.855 34.855 0 0 0-1.155-5.286ZM91.241 51.37c0 .581-.124 2.172-.192 2.615h7.036c-.426-1.882-.619-4.497-.673-6.517 0 .138-.124-4.055-.124-4.055 0-.29.124-.733.302-.872.248-.29.495-.29.798-.29.302-.139.852-.139.92 1.01l.18 4.345c.068 2.034.068 4.788-.18 6.379h6.776c-.055-.581-.248-2.034-.303-2.463.852 1.882 2.694 2.892 5.14 2.892 1.457 0 2.57-.568 3.422-1.15 0 .14.358.721.358.721h12.589c-.55-1.882-.907-4.497-1.1-6.517l-1.773-14.198-6.473-1.162c.55 1.882.921 4.636 1.154 6.517l.99 9.133c.179 1.592.303 3.335.303 5.217v.138l-.248-.581c-.495-1.163-.729-2.602-.921-4.774l-.234-2.906c-.371-4.636-2.872-6.656-8.383-6.656-.907 0-3.23.138-4.645.581l.371 5.203 1.471-.858c1.223-.733 2.13-1.024 3.229-1.024.866 0 1.416.291 1.663.872a13.31 13.31 0 0 0-3.49 1.01c-1.952.871-3.175 2.186-3.725 3.625v-.138l-.192-4.788c-.11-3.044-2.075-5.065-5.072-5.065-1.333 0-2.556.43-3.655 1.163-.069-.153-.124-.291-.193-.443l-.247-.582-5.622-.29c.248 1.024.62 3.916.674 4.926-.303-1.44-1.1-3.03-2.57-4.193-1.154-.733-2.625-1.162-4.15-1.162-2.076 0-4.22.872-5.622 2.325-1.47 1.439-2.199 3.473-2.267 5.784-.55-.582-1.278-1.149-2.13-1.44l-2.57-1.314h-.124c-.605-.29-.674-.43-.674-.568.07-.29.674-.58 1.471-.58 1.1 0 2.625.58 3.848 1.3l.124-4.635c-.921-.443-2.2-.72-4.04-.72-.977 0-2.805.138-4.399 1.01-.397.274-.782.565-1.154.872l.055-1.315c-1.47-.277-3.051-.277-5.003 1.605-.069-.152-.192-.872-.316-1.162l-6.047.29c.426 1.73.495 4.194.371 6.366l-.123 2.325v.29c-.07 1.163-.124 2.463-.248 3.625-.495-1.605-1.03-3.777-1.47-5.507l-2.996-13.615-8.549 1.3c.055.139.179.581.248 1.01.055.581.055 1.744-.742 4.207-1.402 3.902-3.354 9.852-5.25 14.044-.248.582-.742 1.453-.742 1.453h6.665c.124-1.01.55-2.753.976-4.054.92 0 3.299 0 4.398-.152.247 1.023.494 2.324.563 3.196l.11 1.01h13.331c-.302-2.173-.179-5.065-.068-6.67.123-1.882.494-3.182 1.292-3.902.604-.733 1.277-.872 1.772-.872-.068 2.602 1.581 3.764 3.052 4.484l2.624 1.314c.921.581.921.72.921 1.01-.055.43-.797.582-1.47.582-1.402 0-3.299-.872-5.374-3.183l-.124 6.074c1.65.872 3.725 1.301 5.567 1.301 3.05 0 6.294-1.44 7.146-4.193 1.526 2.892 4.522 4.193 7.463 4.193 2.624.002 4.576-.856 6.294-2.751Zm-45.903-5.937c.371-1.01.673-1.882 1.223-3.473.371 1.591.55 2.602.729 3.335-.729.138-1.1.138-1.952.138Zm37.41-1.591c0-2.02.728-2.892 1.457-2.892.247 0 .796-.152 1.044.872.123.429.178.72.178.858 0 .581-.302.733-.673.733v.138s-1.03.291-2.007.734v-.443Zm6.967 4.206c-1.292 1.15-2.213 1.882-3.738 1.882-1.223-.152-1.952-.872-2.378-1.882 1.279-.442 6.226-2.324 7.641-2.905 0 1.162.056 2.462.056 2.462v2.464l-1.58-2.02Zm22.786 2.021c-1.154 0-1.401-.872-1.456-1.44.055-.58.233-1.452 2.074-2.033.034.434.075.868.124 1.3v.581c.055.443.055.872.11 1.301-.233.152-.535.152-.852.291Z" fill="#9C824A"/><path d="M75.463 38.624c-.604-.138-1.525-.428-2.995-.428-1.155 0-2.68.29-3.849.872-1.347.871-2.323 2.02-2.378 3.334-.123 2.02.921 2.892 2.447 3.612 1.03.581 2.02 1.162 2.625 1.453.797.429 1.525.872 1.47 1.882-.068 1.01-.99 1.744-2.515 1.744-1.278 0-3.106-.872-4.398-2.035l-.055 3.044c1.1.582 2.873.872 4.522.872 2.804 0 6.294-1.3 6.35-4.497.068-2.463-1.65-3.335-2.68-3.902-1.045-.443-2.09-1.024-2.57-1.163-.495-.29-1.471-.58-1.402-1.743.11-1.01 1.278-1.453 2.501-1.453 1.03 0 2.075.29 2.872.733l.055-2.325ZM50.354 33.27l-6.486.872c.123.872-.124 2.602-.797 4.635-1.333 3.903-3.532 10.42-5.25 14.197h4.04c.234-1.314.536-2.463 1.155-4.054l5.992-.152c.233 1.162.673 3.044.728 4.206h5.443c-.674-1.605-1.526-4.926-2.075-7.25l-2.75-12.454Zm-6.486 13.174 2.94-8.538 1.774 8.4-4.715.138Zm22.003-7.819-.124 2.906c-.976-.152-2.199.139-3.174 1.149-.853.872-1.402 2.173-1.526 4.497-.124 1.882-.179 4.055-.069 5.798h-4.577c.303-1.743.427-3.764.481-5.66l.124-2.31c.123-1.882.123-3.764-.178-5.507l4.04-.138c.179.58.302 1.59.234 2.6 1.773-2.754 3.49-3.335 4.769-3.335Zm57.639-4.483-4.164-.733c.426 1.896.549 3.196.797 5.078l.976 9.119c.192 1.882.371 3.625.316 5.369h4.522c-.44-1.744-.619-3.487-.798-5.37l-1.649-13.463Zm-18.649 18.833c-.234-1.744-.358-3.487-.427-5.37l-.179-4.773c-.123-2.615-1.594-4.054-4.04-4.054-1.333 0-2.928.429-4.274 2.172-.055-.443-.248-1.591-.495-2.172l-3.655-.153c.302 1.744.426 3.474.48 5.356l.07 3.625c.054 1.882 0 3.625-.124 5.369h4.576c-.234-1.744-.357-3.487-.426-5.37l-.124-4.053c-.055-1.453 1.045-2.464 2.144-2.464 1.278 0 1.897.872 1.952 2.173l.192 4.345c.056 1.882.056 3.625-.068 5.369h4.398Zm14.306 0c-.55-1.453-.852-3.197-.976-5.078l-.248-2.893c-.247-3.473-1.703-5.798-7.338-5.798-.976 0-2.378.153-3.532.43l.178 2.615c1.154-.72 2.323-1.3 3.794-1.3 1.525 0 2.803.719 2.927 2.89-1.471.153-2.817.43-4.343 1.163-1.704.72-3.477 2.173-3.298 4.483.178 2.616 2.143 3.778 4.59 3.778 1.896 0 3.175-.872 3.903-1.743.124.58.316 1.01.495 1.453h3.848Zm-6.666-1.882c-1.347 0-2.446-.734-2.501-2.325 0-1.591.976-2.892 4.096-3.335l.179 2.463c.068.872.068 1.453.192 2.173-.44.581-1.168.872-1.966 1.024ZM87.997 39.067c-1.044-.733-2.267-1.024-3.545-1.024-2.996 0-6.968 2.173-6.845 7.68.055 5.646 4.343 7.389 7.34 7.389 2.624 0 4.219-1.01 5.496-2.311l-.92-1.315c-.673.582-1.773 1.453-3.546 1.453-1.897-.138-3.106-1.453-3.78-3.473l8.301-3.044c-.247-2.753-1.223-4.345-2.5-5.355Zm-2.872 5.355-3.299 1.3a15.263 15.263 0 0 1-.123-1.881c0-3.335 1.828-3.916 2.446-3.916.976-.138 1.828.443 2.144 1.605.357 1.301.234 2.463-1.168 2.892ZM65.568 82.143l2.79-4.276 9.923 6.531-2.79 4.29-9.923-6.545Z" fill="currentColor"/><path d="m64.647 80.676 1.925-2.961 12.602 8.316-1.924 2.961-12.603-8.316Z" fill="#9C824A"/><path d="m86.747 95.759 2.79-4.29 9.922 6.545-2.79 4.29-9.922-6.545Z" fill="currentColor"/><path d="m85.826 94.292 1.924-2.961 12.603 8.316-1.924 2.948-12.603-8.303Z" fill="#9C824A"/>
  </symbol>
</svg>
  