<svg width="164" height="164" viewBox="0 0 164 164" fill="none" xmlns="http://www.w3.org/2000/svg">
  <symbol id="item" viewBox="0 0 164 164"  fill="none">
    <path fill-rule="evenodd" clip-rule="evenodd" d="M12 66.448V12h140v54.3L82.006 152 12 66.448Z" fill="currentColor"/><path fill-rule="evenodd" clip-rule="evenodd" d="m19.994 64.004 51.053 62.308V64.004H19.994Z" fill="#D71920"/><path fill-rule="evenodd" clip-rule="evenodd" d="m144.01 64.007-51.054 62.308V64.007h51.054ZM70.903 30.933H61.91v5.32h8.993c.68 0 1.115-.183 1.303-.368.81-.684.741-3.908 0-4.52a1.81 1.81 0 0 0-1.303-.432ZM19.778 19.865v36.368h124.449V19.865H19.777ZM49.02 46.901c0 1.107-1.618 3.52-2.912 3.52H27.317v-5.625h15.2c1.048 0 1.048-4.438 0-4.438H30.974c-1.361 0-3.663-1.24-3.663-2.722l-.064-8.3c0-4.032 3.353-3.595 6.147-3.595H49.03v4.888h-15.2c-1.428 0-1.364 4.653 0 4.653h10.298c2.175 0 4.963.556 4.963 3.713l-.07 7.906Zm29.142-10.399c0 1.792-.342 2.803-1.248 3.71a4.001 4.001 0 0 1-2.974 1.105H62.03v9.103h-5.64V25.73H73.94c1.61 0 2.316.38 2.98 1.052a4.822 4.822 0 0 1 1.247 3.03l-.005 6.69Zm29.271-6.004H90.797v5.691h12.412v5.204H90.797v9.085h-5.145V25.663h21.781v4.835Zm29.417 14.144c0 3.021-1.127 5.932-4.968 5.932h-12.109c-4.267 0-4.953-2.351-4.953-5.931l-.064-15.29c0-1.98 1.737-3.768 4.968-3.768h12.34c3.164 0 4.662 2.35 4.662 3.768v5.129h-5.334c0-2.586-.318-3.705-1.679-3.705h-7.635c-1.057 0-2.18 1.42-2.18 2.536v9.59c0 .499.944 2.03 1.809 2.03h7.942c1.179-.128 1.737-1.305 1.671-3.465h5.53v3.174Z" fill="currentColor"/>
  </symbol>
</svg>
  