<svg width="164" height="164" viewBox="0 0 164 164" fill="none" xmlns="http://www.w3.org/2000/svg">
  <symbol id="item" viewBox="0 0 164 164"  fill="none">
    <path d="M131.172 115.521c-11.656 13.827-29.118 22.621-48.649 22.621-19.338 0-36.63-8.609-48.296-22.204l-13.81 16.576c15.51 16.622 37.638 27.033 62.195 27.033 24.704 0 46.931-10.523 62.44-27.324l-13.88-16.702Z" fill="currentColor"/><path fill-rule="evenodd" clip-rule="evenodd" d="m131.174 114.815 14.481 17.424-.269.291C129.795 149.42 107.448 160 82.613 160c-24.69 0-46.936-10.467-62.528-27.178l-.272-.291 14.409-17.295.35.408c11.582 13.498 28.751 22.045 47.951 22.045 19.391 0 36.728-8.73 48.302-22.459l.349-.415Zm-.006 1.411c-11.736 13.687-29.17 22.369-48.645 22.369-19.283 0-36.547-8.5-48.29-21.956l-13.21 15.857c15.413 16.365 37.307 26.598 61.59 26.598 24.428 0 46.422-10.345 61.836-26.887l-13.281-15.981Z" fill="currentColor"/><path d="M120.244 52.032v73.61a5.007 5.007 0 0 1-3.244 4.677l-34.245 13.253-34.257-13.253c-1.883-.706-3.243-2.55-3.243-4.677l.005-73.61h74.984Z" fill="currentColor"/><path fill-rule="evenodd" clip-rule="evenodd" d="M44.806 51.579h75.438v.453h.453v73.61a5.462 5.462 0 0 1-3.535 5.101l-.003.001-34.404 13.314-34.417-13.314-.002-.001c-2.053-.772-3.535-2.78-3.535-5.101l.005-74.063Zm74.984.906H45.714l-.005 73.157a4.57 4.57 0 0 0 2.949 4.253l.004.002 34.093 13.189 34.081-13.189.005-.002a4.555 4.555 0 0 0 2.949-4.253V52.485Z" fill="currentColor"/><path d="M47.037 108.856V63.491h71.406l.014 45.365h-71.42Z" fill="currentColor"/><path d="M118.457 104.601c-.63 1.004-2.172 1.71-3.958 1.71-1.814 0-3.364-.706-3.978-1.723-.629 1.017-2.172 1.723-3.978 1.723-1.807 0-3.33-.706-3.966-1.71-.635 1.004-2.17 1.71-3.964 1.71-1.814 0-3.343-.706-3.972-1.723h-.02c-.621 1.017-2.158 1.723-3.958 1.723-1.806 0-3.336-.706-3.958-1.71-.636 1.004-2.192 1.71-3.976 1.71-1.81 0-3.343-.706-3.974-1.723h.015c-.639 1.017-2.171 1.723-3.966 1.723-1.81 0-3.351-.706-3.981-1.71-.628 1.004-2.176 1.71-3.974 1.71-1.792 0-3.334-.706-3.962-1.723h-.016c-.619 1.017-2.164 1.723-3.95 1.723-1.816 0-3.346-.706-3.983-1.71v.026c-.63 1.01-2.166 1.684-3.948 1.684-1.824 0-3.356-.706-3.974-1.723v-.087l.022 20.051a4.742 4.742 0 0 0 3.09 4.439l32.627 12.646 32.604-12.646a4.743 4.743 0 0 0 3.098-4.439v-20.038.087" fill="#ED1A3B"/><path d="M118.457 102.507c-.63.997-2.171 1.711-3.958 1.711-1.814 0-3.364-.721-3.978-1.711-.629.99-2.172 1.711-3.978 1.711-1.807 0-3.33-.714-3.966-1.711-.635.997-2.17 1.711-3.964 1.711-1.814 0-3.343-.721-3.972-1.711h-.02c-.621.99-2.158 1.711-3.958 1.711-1.806 0-3.336-.714-3.958-1.711-.636.997-2.192 1.711-3.976 1.711-1.81 0-3.343-.721-3.974-1.711h.015c-.639.99-2.171 1.711-3.966 1.711-1.81 0-3.351-.714-3.981-1.711-.628.997-2.176 1.711-3.974 1.711-1.792 0-3.334-.721-3.962-1.711h-.016c-.619.99-2.164 1.711-3.95 1.711-1.816 0-3.346-.714-3.983-1.711v.033c-.63 1.003-2.166 1.678-3.948 1.678-1.824 0-3.356-.721-3.974-1.711v-2.484c.618 1.003 2.15 1.724 3.974 1.724 1.782 0 3.318-.708 3.948-1.712.637 1.004 2.167 1.712 3.982 1.712 1.787 0 3.332-.721 3.951-1.724h.016c.628 1.003 2.17 1.724 3.962 1.724 1.798 0 3.346-.708 3.974-1.712.63 1.004 2.172 1.712 3.98 1.712 1.796 0 3.328-.721 3.967-1.724h-.014c.63 1.003 2.162 1.724 3.973 1.724 1.785 0 3.34-.708 3.976-1.712.622 1.004 2.151 1.712 3.958 1.712 1.801 0 3.337-.721 3.959-1.724h.02c.629 1.003 2.157 1.724 3.97 1.724 1.795 0 3.33-.708 3.965-1.712.636 1.004 2.159 1.712 3.966 1.712 1.807 0 3.349-.721 3.978-1.724.615 1.003 2.164 1.724 3.978 1.724 1.787 0 3.329-.708 3.958-1.712v2.472Zm0-4.473c-.63.997-2.171 1.698-3.958 1.698-1.814 0-3.364-.707-3.978-1.698-.629.99-2.172 1.698-3.978 1.698-1.807 0-3.33-.7-3.966-1.698-.635.997-2.17 1.698-3.964 1.698-1.814 0-3.343-.707-3.972-1.698h-.02c-.621.99-2.158 1.698-3.958 1.698-1.806 0-3.336-.7-3.958-1.698-.636.997-2.192 1.698-3.976 1.698-1.81 0-3.343-.707-3.974-1.698h.015c-.639.99-2.171 1.698-3.966 1.698-1.81 0-3.351-.7-3.981-1.698-.628.997-2.176 1.698-3.974 1.698-1.792 0-3.334-.707-3.962-1.698h-.016c-.619.99-2.164 1.698-3.95 1.698-1.816 0-3.346-.7-3.983-1.698v.025c-.63 1.005-2.166 1.673-3.948 1.673-1.824 0-3.356-.707-3.974-1.698V95.55c.618.998 2.15 1.718 3.974 1.718 1.782 0 3.318-.7 3.948-1.712.637 1.011 2.167 1.712 3.982 1.712 1.787 0 3.332-.72 3.951-1.718h.016c.628.998 2.17 1.718 3.962 1.718 1.798 0 3.346-.7 3.974-1.712.63 1.011 2.172 1.712 3.98 1.712 1.796 0 3.328-.72 3.967-1.718h-.014c.63.998 2.162 1.718 3.973 1.718 1.785 0 3.34-.7 3.976-1.712.622 1.011 2.151 1.712 3.958 1.712 1.801 0 3.337-.72 3.959-1.718h.02c.629.998 2.157 1.718 3.97 1.718 1.795 0 3.33-.7 3.965-1.712.636 1.011 2.159 1.712 3.966 1.712 1.807 0 3.349-.72 3.978-1.718.615.998 2.164 1.718 3.978 1.718 1.787 0 3.329-.7 3.958-1.712v2.478Z" fill="#00AEEF"/><path d="M87.983 127.44s3.501 5.463 1.661 3.924c-1.344-1.157-3.184-3.82-4.514-6.012l-7.187 2.787s-4.124 5.009-3.21 2.795c.659-1.599 2.693-4.194 4.372-6.158l-4.922-5.931s-6.053-2.352-3.653-2.174c1.57.119 4.845 1.295 7.206 2.247l4.098-6.515s.385-6.481.958-4.149c.396 1.599.27 5.061.08 7.623l7.514 1.824s6.287-1.645 4.236-.383c-1.437.898-4.574 1.837-7.076 2.438l.436 7.684Z" fill="currentColor"/><path fill-rule="evenodd" clip-rule="evenodd" d="m82.111 112.42-.277-.017.277.017-.004.071-4.26 6.771-.215-.087a63.7 63.7 0 0 0-3.882-1.43c-1.247-.407-2.378-.71-3.129-.787.045.025.092.052.143.079.23.125.51.263.81.403a44.758 44.758 0 0 0 2.457 1.046l.186.074.05.02.017.006-.1.259.1-.259.067.026 5.117 6.167-.152.177a56.428 56.428 0 0 0-2.555 3.199c-.763 1.042-1.395 2.024-1.726 2.778a15.042 15.042 0 0 0 .758-.756c.454-.483.938-1.036 1.31-1.47.185-.216.342-.402.452-.534l.128-.155.034-.041.012-.013.215.175-.215-.175.046-.057 7.471-2.898.121.199a48.375 48.375 0 0 0 2.24 3.375c.763 1.042 1.516 1.948 2.15 2.511a5.503 5.503 0 0 0-.081-.178 15.338 15.338 0 0 0-.416-.804 43.953 43.953 0 0 0-.996-1.698c-.149-.243-.278-.449-.37-.595l-.107-.17-.029-.045-.01-.015.235-.149-.278.015-.449-7.914.225-.054c1.246-.3 2.648-.682 3.915-1.101 1.218-.403 2.291-.832 2.985-1.245a15.297 15.297 0 0 0-1.055.168c-.652.125-1.369.29-1.924.425a74.615 74.615 0 0 0-.876.218l-.052.013-.017.005-.07-.268.07.268-.068.017-7.812-1.896.018-.234c.095-1.278.174-2.777.18-4.154.005-1.326-.058-2.515-.23-3.283a15.133 15.133 0 0 0-.172 1.069c-.082.658-.148 1.39-.193 1.96a60.37 60.37 0 0 0-.064.9l-.004.053v.018Zm8.273 4.996.003-.001.197-.05c.169-.043.407-.103.687-.17a45.12 45.12 0 0 1 1.95-.43c.331-.064.65-.119.926-.155.271-.035.519-.054.7-.04a.664.664 0 0 1 .287.077.346.346 0 0 1 .16.41.627.627 0 0 1-.2.268c-.082.07-.191.146-.325.229m-4.385-.138-7.219-1.753c.089-1.232.16-2.647.164-3.957.006-1.386-.06-2.682-.268-3.518l-.27.066.27-.066m5.195 19.164.109.172c.092.147.222.355.373.601.3.489.683 1.128 1.009 1.721.163.296.313.582.431.835.117.247.211.478.253.656.02.082.038.193.014.298a.361.361 0 0 1-.11.192.354.354 0 0 1-.226.087.62.62 0 0 1-.322-.102 2.56 2.56 0 0 1-.321-.235l-.003-.003c-.697-.6-1.508-1.576-2.305-2.664a48.445 48.445 0 0 1-2.145-3.216l-6.901 2.678-.13.156c-.112.133-.27.321-.457.539-.374.437-.864.997-1.327 1.489-.231.246-.457.478-.66.668a3.821 3.821 0 0 1-.543.444.697.697 0 0 1-.278.106.347.347 0 0 1-.372-.236.619.619 0 0 1 .003-.334c.025-.105.069-.23.128-.375m-.461-11.753-.19-.075c-.162-.064-.39-.155-.656-.265a43.835 43.835 0 0 1-1.83-.794 15.87 15.87 0 0 1-.84-.418c-.24-.13-.452-.26-.59-.377a.688.688 0 0 1-.188-.231.36.36 0 0 1-.023-.223.351.351 0 0 1 .135-.203.63.63 0 0 1 .319-.1 2.58 2.58 0 0 1 .398.005c.823.062 2.063.396 3.373.824 1.239.404 2.563.901 3.701 1.355l3.937-6.258" fill="currentColor"/><path d="M82.257 125.993c.044.105.123.178.214.178.084 0 .149-.072.205-.178.079-.185.152-.62.125-1.526 0 0 .045-3.06 2.336.225 6.413 9.228-2.722 9.281-2.722 9.281h.088s-9.136-.053-2.714-9.281c2.29-3.285 2.318-.225 2.318-.225-.007.905.049 1.34.15 1.539v-.013" fill="currentColor"/><path fill-rule="evenodd" clip-rule="evenodd" d="M81.25 123.515c-.264.142-.664.52-1.233 1.335-1.592 2.288-2.191 3.969-2.235 5.195-.044 1.206.45 1.996 1.128 2.53.69.545 1.583.828 2.32.974a8.105 8.105 0 0 0 1.183.144l.046.002.046-.002a8.108 8.108 0 0 0 1.184-.144c.737-.146 1.629-.429 2.32-.974.678-.534 1.173-1.324 1.13-2.53-.042-1.226-.64-2.908-2.23-5.195-.569-.815-.97-1.193-1.235-1.335-.127-.068-.201-.071-.238-.064-.034.005-.07.024-.114.075-.097.116-.166.332-.205.56a3.009 3.009 0 0 0-.038.358V124.469c0 .456-.012.799-.035 1.055-.021.249-.055.442-.113.577l-.025.059-.431.375-.396-.329.094-.113-.163.039c-.076-.148-.117-.349-.142-.603-.027-.26-.04-.606-.04-1.061v-.004a1.682 1.682 0 0 0-.004-.104 3.015 3.015 0 0 0-.031-.276c-.038-.229-.104-.444-.2-.56-.042-.051-.078-.068-.11-.074-.035-.005-.107-.003-.233.065Zm.857.952.277-.003v.003c0 .449.012.773.036 1.006.01.102.022.181.035.243h.007c.01-.062.02-.14.03-.24.02-.233.03-.56.03-1.009v-.005l.279.005-.278-.005v-.012l.001-.028.006-.101c.006-.083.018-.199.04-.328.041-.242.127-.586.327-.824a.74.74 0 0 1 .449-.265c.192-.032.391.016.59.123.388.208.852.679 1.429 1.506v.001c1.617 2.326 2.281 4.112 2.33 5.491.048 1.4-.538 2.353-1.342 2.986-.79.622-1.782.929-2.557 1.081a8.84 8.84 0 0 1-1.269.155l-.024.001v.002h-.088v-.002l-.024-.001a8.842 8.842 0 0 1-1.269-.155c-.775-.152-1.766-.459-2.556-1.081-.803-.633-1.39-1.587-1.34-2.986.05-1.379.716-3.165 2.335-5.491.577-.828 1.04-1.299 1.425-1.507.198-.107.397-.155.589-.123.194.032.341.14.446.267.197.238.28.582.32.824a3.593 3.593 0 0 1 .043.457v.012l-.277.003Z" fill="currentColor"/><path d="M77.558 122.294c-.083.078-.122.165-.084.237.02.086.102.152.22.152h-.006c.213.014.633-.027 1.5-.329 0 0 2.933-.899.512 2.266-6.821 8.944-9.674.31-9.674.31v.059s-2.754-8.688 8.018-5.444c3.847 1.144.925 2.141.925 2.141-.884.256-1.261.455-1.41.608Z" fill="currentColor"/><path fill-rule="evenodd" clip-rule="evenodd" d="m70.273 124.846-.008-.028a8.189 8.189 0 0 1-.225-1.168c-.088-.744-.091-1.679.216-2.503.301-.808.903-1.521 2.067-1.853 1.183-.337 2.97-.288 5.64.517h.001c.955.284 1.439.546 1.656.752.103.098.127.167.132.202.005.033-.001.074-.038.131-.082.13-.27.263-.477.371-.098.051-.189.09-.255.118l-.078.03-.02.007a7.877 7.877 0 0 0-1.01.354c-.233.105-.4.209-.51.32a.563.563 0 0 0-.15.287.801.801 0 0 0-.017.129v.017l.277.002-.278-.002-.001.146.34.236.147-.211.006.26h.893l-.153-.106c.24-.051.527-.126.845-.237a.258.258 0 0 0 .02-.006l.081-.021a3.09 3.09 0 0 1 .274-.053c.23-.034.458-.036.6.02.063.025.092.054.108.084.016.032.037.101.012.24-.053.292-.288.785-.89 1.571-1.69 2.217-3.108 3.307-4.263 3.73-1.136.415-2.04.192-2.756-.283-.73-.486-1.274-1.242-1.638-1.894a8.22 8.22 0 0 1-.525-1.142l-.005-.016-.001-.003v-.001h-.001l-.016.003Zm-.493.221-.019.006.02-.003.018.051a8.672 8.672 0 0 0 .537 1.153c.383.687.98 1.53 1.815 2.086.85.564 1.938.823 3.255.342 1.298-.475 2.795-1.66 4.514-3.914.61-.797.916-1.379.994-1.808.04-.221.024-.425-.067-.597a.742.742 0 0 0-.393-.341c-.288-.114-.643-.089-.887-.054-.129.019-.243.044-.324.064l-.098.025-.028.008-.008.002-.002.001c-.001 0-.001.001.08.266l-.081-.265-.006.001-.005.002a6.27 6.27 0 0 1-1.194.291c.052-.03.117-.064.202-.102.207-.093.508-.203.943-.329l.006-.002.006-.002-.09-.262.09.262h.002l.002-.001.008-.003a3.582 3.582 0 0 0 .424-.186c.22-.114.522-.303.69-.565a.737.737 0 0 0 .118-.508c-.028-.193-.136-.367-.3-.523-.317-.303-.91-.594-1.879-.882-2.715-.818-4.622-.898-5.953-.519-1.349.385-2.078 1.235-2.435 2.193-.35.943-.339 1.978-.247 2.761a8.856 8.856 0 0 0 .242 1.252l.022.077.007.02.001.006v.002l.001.001.019-.006Zm7.826-2.727-.047-.046.045.049.002-.003Z" fill="currentColor"/><path d="M79.61 116.664c-.092-.059-.195-.059-.263 0-.074.046-.094.139-.074.246v-.008c.045.219.222.615.802 1.328 0 0 1.754 2.497-2.031 1.182-10.618-3.699-3.27-9.091-3.27-9.091l-.055.026s7.402-5.305 7.663 5.934c.089 4.003-1.762 1.532-1.762 1.532-.51-.74-.824-1.043-1.01-1.149Z" fill="currentColor"/><path fill-rule="evenodd" clip-rule="evenodd" d="m74.563 110.132-.042.033c-.053.043-.13.105-.224.185-.186.16-.44.392-.71.683-.535.577-1.155 1.405-1.427 2.371-.277.982-.19 2.096.675 3.198.851 1.086 2.44 2.139 5.118 3.072.953.331 1.606.441 2.042.383.224-.03.414-.108.551-.245a.74.74 0 0 0 .21-.477c.023-.309-.109-.638-.217-.858a3.434 3.434 0 0 0-.16-.288l-.054-.085a.46.46 0 0 0-.016-.023l-.005-.007-.001-.002v-.001l-.228.159.227-.159-.006-.008-.006-.008a5.474 5.474 0 0 1-.66-1.028c.16.146.405.426.761.943l.003.004.004.005.222-.166-.222.166v.001l.002.002.005.006.018.023.064.079c.055.064.133.152.226.244.177.174.45.404.751.482.16.042.343.044.521-.042.176-.086.31-.241.409-.444.191-.394.288-1.047.265-2.055-.066-2.833-.581-4.671-1.354-5.817-.785-1.163-1.82-1.593-2.84-1.635-1.006-.042-1.986.29-2.702.62a8.61 8.61 0 0 0-1.18.662l-.019.012-.005.004-.001.001.006.01-.006-.01.005.01Zm6.282 7.518v.001l.014.017.053.065c.046.054.112.129.19.206.168.164.352.302.502.341.066.017.107.01.138-.004.032-.016.09-.06.152-.188.13-.268.232-.808.21-1.801-.065-2.786-.572-4.5-1.26-5.52-.677-1.003-1.541-1.354-2.403-1.39-.878-.037-1.764.255-2.445.569a8.09 8.09 0 0 0-1.04.575l-.023.016.004.006.001.001v.001l-.004.002-.013.01-.055.043a8.101 8.101 0 0 0-.87.81c-.51.549-1.064 1.3-1.302 2.144-.233.829-.167 1.756.578 2.706.757.966 2.231 1.973 4.863 2.89.94.327 1.487.397 1.786.357.143-.019.205-.06.232-.087.025-.024.044-.061.049-.127.011-.151-.06-.364-.162-.571a2.914 2.914 0 0 0-.188-.327 5.947 5.947 0 0 1-.641-.968 4.467 4.467 0 0 1-.195-.42l-.003-.008v-.003l.165-.06-.182-.026v-.008l.158-.028-.147-.043.132-.444h.47v.277l.138-.241c.246.14.59.491 1.098 1.227Z" fill="currentColor"/><path d="M85.633 116.889c.02-.099 0-.204-.066-.258-.067-.033-.172-.026-.272.033-.18.087-.497.377-1.02 1.144 0 0-1.835 2.45-1.752-1.539.259-11.232 7.663-5.927 7.663-5.927l-.053-.04s7.354 5.392-3.29 9.099c-3.768 1.314-1.998-1.184-1.998-1.184.556-.727.755-1.11.788-1.328Z" fill="currentColor"/><path fill-rule="evenodd" clip-rule="evenodd" d="M84.06 110.759c-.688 1.019-1.195 2.732-1.26 5.516-.02.989.081 1.528.212 1.797.062.128.12.173.152.189.03.015.07.021.135.005.148-.038.33-.173.496-.335a3.102 3.102 0 0 0 .241-.268l.013-.017a7.41 7.41 0 0 1 .662-.854c.177-.189.328-.312.462-.377l.042-.021.56-.066.149.578-.032.083-.259-.1.26.1h-.001v.001l-.001.002-.003.007a5.087 5.087 0 0 1-.195.411 7.017 7.017 0 0 1-.624.971v.001a.248.248 0 0 0-.013.017c-.01.016-.026.039-.044.07-.038.06-.088.145-.137.242-.104.207-.177.422-.167.574.004.066.023.102.046.125.024.025.084.066.225.086.295.04.838-.031 1.772-.357 2.64-.919 4.118-1.928 4.878-2.895.748-.951.816-1.879.583-2.708-.237-.844-.79-1.596-1.3-2.145a8.23 8.23 0 0 0-.87-.81l-.027-.02-.008-.006-.058-.039a7.957 7.957 0 0 0-1.04-.575c-.68-.314-1.568-.606-2.446-.57-.862.035-1.727.386-2.403 1.388Zm6.293-.638.032.025a8.802 8.802 0 0 1 .934.869c.537.577 1.157 1.405 1.428 2.372.276.983.186 2.097-.681 3.2-.855 1.086-2.448 2.141-5.131 3.075-.95.331-1.598.441-2.031.383-.223-.031-.412-.109-.548-.248a.733.733 0 0 1-.202-.478c-.02-.308.115-.636.225-.856a3.59 3.59 0 0 1 .216-.372l.016-.024.005-.007.001-.002.227.159-.226-.16.003-.004.003-.004a6.434 6.434 0 0 0 .645-1.029 2.432 2.432 0 0 0-.152.15 6.888 6.888 0 0 0-.613.794l-.003.005-.004.005-.222-.166.222.166v.001l-.002.002-.005.007-.018.022a3.534 3.534 0 0 1-.288.32c-.176.172-.447.401-.748.477a.735.735 0 0 1-.519-.046c-.174-.086-.307-.241-.406-.444-.19-.394-.287-1.045-.266-2.05v-.001c.065-2.831.58-4.667 1.354-5.812.785-1.162 1.82-1.591 2.841-1.633 1.005-.041 1.986.291 2.702.62a8.805 8.805 0 0 1 1.115.618l.04.026s-.001 0 0 0v-.002l.001.001.002.001.005.003.017.014.004.003.027.02Z" fill="currentColor"/><path d="M87.273 122.683c.106-.008.2-.066.219-.153.04-.072-.013-.159-.093-.237-.158-.152-.536-.363-1.416-.608 0 0-2.908-.998.92-2.141 10.797-3.244 8.029 5.444 8.029 5.444l.013-.059s-2.866 8.634-9.676-.31c-2.441-3.166.495-2.267.495-2.267.868.303 1.305.344 1.51.331Z" fill="currentColor"/><path fill-rule="evenodd" clip-rule="evenodd" d="M92.636 119.293c-1.185-.338-2.976-.288-5.653.517-.95.283-1.431.545-1.647.751-.102.098-.126.167-.131.202-.005.034.001.075.037.132.083.13.269.263.475.371.097.051.188.09.254.118l.077.03.019.007c.879.245 1.314.47 1.525.673l.001.001a.603.603 0 0 1 .151.275.888.888 0 0 1 .023.123l.001.009v.006l-.276.022.277-.022.012.159-.349.243-.159-.227-.011.277h-.002l-.002-.001h-.007l-.026-.002a4.749 4.749 0 0 1-.426-.052 6.922 6.922 0 0 1-1.12-.289h-.001a.26.26 0 0 1-.02-.006l-.08-.021a2.776 2.776 0 0 0-.275-.053c-.23-.034-.457-.036-.599.02-.062.024-.09.053-.105.082-.016.031-.036.1-.01.24.055.293.294.786.9 1.571v.002c1.69 2.217 3.106 3.307 4.26 3.729 1.136.416 2.041.193 2.758-.283.731-.485 1.276-1.241 1.642-1.894a8.127 8.127 0 0 0 .502-1.076l.024-.065.005-.016.001-.004h.003l.001.001.008-.026a8.28 8.28 0 0 0 .227-1.168c.088-.745.093-1.679-.214-2.503-.301-.808-.904-1.521-2.07-1.853Zm2.554 5.777.006.002.001-.003.002-.005.006-.021a6.717 6.717 0 0 0 .095-.358c.056-.239.124-.577.171-.971.093-.783.106-1.818-.245-2.761-.356-.958-1.086-1.808-2.438-2.193-1.332-.379-3.243-.299-5.965.519-.964.288-1.555.579-1.87.882-.164.156-.27.33-.298.523a.74.74 0 0 0 .118.507c.166.262.467.451.686.566a3.822 3.822 0 0 0 .395.176l.027.01.008.003.002.001h.001l.09-.262-.09.262.008.003.008.002c.621.173.962.322 1.145.43a6.38 6.38 0 0 1-1.197-.291l-.005-.002-.005-.002-.082.265.082-.265h-.002l-.002-.001-.008-.002-.028-.008-.097-.025a3.546 3.546 0 0 0-.325-.064c-.244-.036-.598-.06-.886.054a.735.735 0 0 0-.392.342c-.09.173-.104.376-.063.597.081.429.39 1.01 1.005 1.807 1.717 2.254 3.212 3.439 4.51 3.914 1.317.481 2.406.222 3.257-.342.837-.556 1.434-1.399 1.818-2.085a8.711 8.711 0 0 0 .557-1.204Z" fill="currentColor"/><path d="M76.204 112.33s-.686.475-1.282.667c-.594.171-.85.621-.925.727 0 0-.34.78-.556.462-.232-.312.23-.898.23-.898.209-.351.534-.617.919-.753.593-.171 1.278-.64 1.278-.64 0-.001.67-.522 1.027-1.019.366-.507.857-.62.996-.64 0 0 .695-.251.938.053.226.325-.612.383-.612.383-.142.054-.642.159-1 .649-.346.501-1.013 1.009-1.013 1.009Zm12.486-.007s-.654-.507-1-1.017c-.363-.495-.866-.608-.985-.655 0 0-.855-.059-.63-.376.238-.31.94-.053.94-.053a1.502 1.502 0 0 1 .986.64c.364.496 1.026 1.033 1.026 1.033 0-.002.702.455 1.284.633.381.128.703.388.907.734 0 0 .464.601.246.918-.225.317-.55-.463-.55-.463-.086-.118-.344-.554-.94-.731-.575-.194-1.284-.663-1.284-.663Zm3.886 11.859s.292-.779.648-1.28c.392-.475.318-1.005.312-1.13 0 0-.185-.826.18-.7.363.125.35.859.35.859 0 .137.06.653-.304 1.148-.385.49-.669 1.281-.669 1.281s-.218.808-.205 1.408c0 .621-.35.998-.424 1.116 0 0-.438.615-.794.503-.384-.12.27-.675.27-.675.073-.112.425-.507.404-1.102 0-.615.232-1.428.232-1.428Zm-10.105 7.314s.843.032 1.42.232c.584.191 1.047-.014 1.18-.06 0 0 .714-.442.708-.046 0 .362-.708.601-.708.601-.133.04-.596.257-1.18.053-.577-.198-1.42-.237-1.42-.237s-.857.04-1.43.237c-.583.204-1.041-.013-1.187-.053 0 0-.72-.238-.72-.601-.003-.396.72.046.72.046.146.046.604.251 1.186.06.574-.2 1.43-.232 1.43-.232Zm-10.09-7.314s.237.813.226 1.428c0 .62.333.99.424 1.102 0 0 .64.555.275.675-.366.112-.805-.503-.805-.503-.085-.118-.42-.495-.42-1.116.003-.601-.215-1.408-.215-1.408s-.288-.791-.665-1.281c-.359-.495-.308-1.011-.308-1.148 0 0 0-.734.359-.859.353-.126.162.7.162.7-.013.125-.06.655.32 1.13.365.5.647 1.28.647 1.28Z" fill="currentColor"/><path d="M82.416 118.831a2.058 2.058 0 0 0-2.047 2.055 2.031 2.031 0 0 0 .594 1.454 2.04 2.04 0 0 0 1.453.601c1.149 0 2.07-.899 2.07-2.055 0-1.13-.921-2.055-2.07-2.055Z" fill="#FFC40D"/><path fill-rule="evenodd" clip-rule="evenodd" d="M80.258 120.886c0-1.191.971-2.165 2.158-2.165 1.21 0 2.18.974 2.18 2.165 0 1.218-.972 2.164-2.18 2.165m-2.157-2.165a2.145 2.145 0 0 0 1.328 2.001c.263.109.544.164.829.164m0-4.11a1.947 1.947 0 0 0-1.938 1.945v.001a1.928 1.928 0 0 0 1.937 1.944c1.09 0 1.962-.851 1.962-1.945a1.953 1.953 0 0 0-1.961-1.945Z" fill="#FFC40D"/><path d="m86.314 81.592.272 5.548 4.7-3.046L92.76 86.5l-5.54 3.196v1.158s6.446 3.613-1.41 3.474v.04c-2.75 2.292-5.353.025-5.353.025-7.857.138-1.418-3.461-1.418-3.461v-1.163l-4.9-3.799 1.162-2.511 4.381 3.741.255-5.538 6.376-.07Z" fill="currentColor"/><path d="M92.165 86.347c4.554 5.2 7.896-.274 7.896-.274 5.753-1.394 2.338-5.458 2.338-5.458 5.997-3.925-1.046-7.004-1.046-7.004-.047-5.214-4.495-4.826-4.495-4.826-4.647-4.052-9.088.447-9.088.447-6.965-5.787-12.252.89-12.252.89s-4.45-3.079-6.449 1.746c0 0-7.085-.197-4.44 6.943 0 0-5.475 5.47 1.672 8.164 0 0 3.8 7.023 9.023.337 0 0 3.211.192 2.706-4.324 0 0 4.069 1.69 7.92-.184 0-.002 1.23 2.764 3.878 1.216 0 0-.41 1.779 2.15 2.142l.187.185Z" fill="#22B24C"/><path fill-rule="evenodd" clip-rule="evenodd" d="m87.74 67.77.123-.093a9.47 9.47 0 0 1 2.317-1.254c1.919-.701 4.504-.832 7.087 1.225a5.771 5.771 0 0 1 2.343.578 4.817 4.817 0 0 1 2.014 1.845c.456.755.753 1.69.84 2.83.148.081.315.178.494.288.615.38 1.432.968 2.054 1.743.628.783 1.146 1.878.864 3.174-.217.999-.872 1.926-1.94 2.795.243.46.501 1.087.581 1.793.096.841-.066 1.81-.795 2.67-.637.752-1.619 1.317-2.966 1.7-.112.15-.259.335-.438.537-.438.492-1.106 1.123-1.978 1.569-.889.454-2.007.724-3.273.434-1.217-.278-2.44-1.042-3.65-2.389-1.258-.266-2.044-.88-2.444-1.656-.328.064-.65.081-.964.055a3.402 3.402 0 0 1-1.813-.727 4.3 4.3 0 0 1-.68-.67c-1.877.68-3.712.684-5.112.508-.446-.056-.852-.131-1.209-.21-.133 1.587-.783 2.634-1.676 3.258a3.79 3.79 0 0 1-1.62.635c-1.292 1.543-2.596 2.433-3.903 2.77-1.442.373-2.712.029-3.709-.543-.975-.56-1.718-1.35-2.203-1.964a9.77 9.77 0 0 1-.558-.781c-1.73-.715-2.875-1.65-3.498-2.78-.674-1.223-.63-2.484-.338-3.532.288-1.032.832-1.924 1.274-2.535.134-.185.262-.35.376-.49-.511-1.637-.564-3.014-.223-4.161.39-1.32 1.253-2.175 2.165-2.709.892-.522 1.853-.752 2.553-.857.18-.026.346-.046.496-.06.54-1.026 1.23-1.748 2.034-2.197.962-.537 1.964-.614 2.816-.51a6.933 6.933 0 0 1 2.1.633l.011.006c.12-.117.256-.244.406-.377a10.952 10.952 0 0 1 2.883-1.856c1.245-.537 2.765-.88 4.48-.661 1.488.19 3.061.793 4.678 1.966ZM65.433 79.612l-.004.005a7.905 7.905 0 0 0-.623.755c-.361.5-.74 1.143-.927 1.815-.183.657-.168 1.269.14 1.829.318.575 1.047 1.281 2.683 1.898l.397.15.2.37v.001l.004.005.023.04a7.529 7.529 0 0 0 .542.784c.39.496.924 1.043 1.552 1.403.606.348 1.266.505 2.005.314.766-.197 1.788-.813 3.002-2.367l.368-.47.582.034a1.523 1.523 0 0 0 .239-.024c.18-.032.399-.101.598-.24.305-.214.905-.829.685-2.8l-.214-1.914 1.778.739h.002l.022.01.109.04c.099.035.251.087.449.145.395.115.964.254 1.642.339 1.365.171 3.102.12 4.763-.69l1.059-.515.475 1.068.002.002.023.047c.025.045.064.115.12.197.113.17.272.365.466.516.187.146.385.235.606.254.215.018.556-.021 1.051-.311l2.273-1.329-.583 2.533-.002.048c0 .06.011.133.042.202v.001c.026.06.18.404 1.156.543l.374.053.454.45-.802.805.856-.746c1.032 1.178 1.899 1.642 2.553 1.791.641.147 1.212.022 1.728-.242.533-.272.985-.685 1.316-1.057a5.69 5.69 0 0 0 .473-.611v-.001l.001-.002.243-.398.458-.111c1.308-.317 1.916-.745 2.192-1.071.249-.294.312-.603.273-.95-.044-.382-.211-.78-.403-1.115a4.505 4.505 0 0 0-.329-.493l-.002-.001-.818-.974 1.07-.7c1.385-.907 1.786-1.62 1.878-2.042.084-.386-.034-.796-.417-1.273-.389-.485-.958-.912-1.476-1.232a8.83 8.83 0 0 0-.858-.465l-.006-.003h-.002v-.001l-.679-.297v-.742c0-1.138-.244-1.88-.54-2.367a2.543 2.543 0 0 0-1.075-.984 3.495 3.495 0 0 0-1.162-.325 3.552 3.552 0 0 0-.476-.02l-.013.002h-.002l-.474.04-.364-.317c-1.953-1.703-3.768-1.59-5.148-1.086a7.201 7.201 0 0 0-1.752.953 6.966 6.966 0 0 0-.63.52l-.002.003-.001.001-.731.74-.804-.667c-1.599-1.329-3.038-1.892-4.269-2.049-1.235-.157-2.342.085-3.29.493a8.682 8.682 0 0 0-2.276 1.47 8.676 8.676 0 0 0-.762.765 3.364 3.364 0 0 0-.032.039l-.004.005-.001.001-.66.834-.874-.605h-.001l-.002-.001-.022-.015a5.395 5.395 0 0 0-.547-.3 4.67 4.67 0 0 0-1.397-.429c-.51-.062-.996-.004-1.43.238-.428.239-.93.726-1.355 1.751l-.3.723-.778-.022h-.045a6.433 6.433 0 0 0-.825.069c-.545.082-1.191.249-1.74.57-.528.31-.941.743-1.135 1.395-.2.675-.21 1.739.399 3.381l.252.682-.512.512h-.001v.001Z" fill="currentColor"/><path d="m31.222 131.126.339.283c-1.167 2.115-1.333 3.608-.519 4.302.586.515 1.36.303 2.07-.495.302-.344.502-.74.502-1.045 0-.441-.33-.937-.695-1.684-.702-1.427-.672-2.576.576-4.016 1.25-1.427 2.885-1.902 3.922-1.011.45.403.685.965.728 1.691l.807-.245.282.245-2.492 3.025-.298-.291c.976-2.014 1.184-3.223.45-3.845-.56-.502-1.29-.329-1.938.417-.816.932-.346 1.474.273 2.629.324.641.58 1.137.448 1.897-.122.681-.53 1.467-1.186 2.233-1.359 1.539-2.91 2.009-4.008 1.057-.543-.489-.795-1.064-.761-1.942l-.985.329-.286-.25 2.77-3.284Zm9.35 1.037c1.135-.535 2.077-.515 2.921.06.85.595 1.207 1.447 1.084 2.754-.098 1.15-.637 2.458-1.54 3.759-.907 1.295-1.788 2.134-2.91 2.655-1.199.562-2.23.569-3.026 0-.822-.56-1.167-1.447-1.05-2.787.105-1.269.578-2.392 1.495-3.694.914-1.313 1.965-2.259 3.025-2.747Zm-3.02 8.562c.885.608 2.203-.396 4.032-3.012 1.833-2.637 2.32-4.195 1.435-4.823-.876-.601-2.18.396-4.017 3.026-1.83 2.622-2.339 4.195-1.45 4.809Zm12.21-3.455-.392-.212c-.346-.178-.485-.04-.763.482l-2.542 4.744c-.915 1.705-.957 2.715.03 3.231.445.224.91.204 1.32 0 .65-.363 1.083-1.103 1.715-2.28l1.84-3.422c.525-.998.632-1.566-.038-1.916-.007-.012-.041-.02-.048-.025l.357-.687 2.158 1.156-.365.667c-.674-.237-1.028.105-1.553 1.083l-1.895 3.528c-.545 1.03-.972 1.797-1.605 2.338-.944.794-1.868.898-2.873.337-1.543-.812-1.74-2.292-.648-4.379l2.747-5.114c.278-.529.297-.728-.033-.905l-.39-.212.354-.681 2.984 1.586-.36.681Zm8.293 3.693c-.303-.113-.456.012-.671.541l-2.824 7.128c-.224.542-.224.741.126.886l.424.171-.291.721-3.135-1.242.288-.734.414.172c.356.139.47 0 .699-.561l2.842-7.116c.204-.535.204-.719-.09-.839-.645-.272-1.614.627-2.55 2.544l-.431-.152 1.619-3.687 5.437 2.154-1.358 3.779-.399-.146c.628-2.04.547-3.368-.1-3.619Zm4.676 11.099c.362.112.47-.053.621-.621l.909-3.363-2.271-.608-.895 3.35c-.16.568-.142.754.223.858l.438.126-.213.747-3.256-.873.202-.754.436.1c.369.112.472-.04.625-.615l1.969-7.292c.167-.576.157-.78-.22-.887l-.434-.112.21-.74 3.254.886-.203.74-.428-.12c-.366-.105-.475.066-.644.641l-.806 3.032 2.274.609.809-3.034c.165-.561.15-.778-.22-.878l-.426-.112.192-.746 3.26.899-.19.732-.446-.119c-.364-.1-.469.072-.63.647l-1.967 7.294c-.158.575-.142.761.23.852l.425.133-.193.741-3.285-.874.22-.759.43.12Zm8.622 1.737.447.026c.192.013.264-.086.3-.304.01-.138.01-.277 0-.415l-.153-1.705-2.25-.324-.32.746c-.1.238-.182.528-.201.728-.106.66.135.91.78 1.049l-.107.754-2.497-.363.115-.76c.563-.066.934-.668 1.413-1.79l3.243-7.691.653.1 1.05 9.68c.045.461.166.64.489.698l-.112.773-2.95-.436.1-.766Zm-1.284-3.606 1.797.277-.354-3.687-1.443 3.41Zm7.848 2.404c-.047 1.368.127 1.877.958 1.915l-.019.787-2.551-.073v-.786c.797-.033.956-.535.992-1.87l.16-6.401c.018-.569-.04-.793-.423-.82l-.468-.006.033-.774 2.864.079 1.242 6.403 1.45-6.343 2.823.066-.027.78-.443-.032c-.373 0-.452.184-.462.772l-.178 7.564c-.02.595.042.78.422.78l.456.006-.025.78-3.31-.073.026-.773h.386c.375.014.459-.171.48-.753l.201-7.981-2.177 9.488-.434-.008-1.816-9.532-.16 6.805Zm12.038 1.632.562-.047.073.767-3.495.35-.079-.786.476-.04c.384-.047.424-.218.377-.813l-.734-7.511c-.04-.588-.133-.773-.51-.747l-.47.055-.087-.774 3.886-.37c1.615-.159 2.535.806 2.727 2.775.211 2.101-.668 3.15-2.641 3.342-.265.04-.555.046-.894.066l.305 3.02c.06.607.147.739.504.713Zm-.868-4.565c.1.025.239.025.438 0 1.198-.105 1.635-.641 1.463-2.399-.16-1.71-.616-2.219-1.662-2.126-.57.059-.655.172-.595.991l.356 3.534Zm8.751-5.934c-.318.053-.35.239-.232.8l1.542 7.525c.126.576.226.727.603.647l.43-.079.152.767-3.29.674-.165-.753.437-.1c.377-.072.397-.271.292-.845l-1.563-7.505c-.12-.555-.224-.728-.536-.661-.69.145-1 1.434-.735 3.548l-.43.079-.675-3.944 5.719-1.195.966 3.91-.43.086c-.601-2.035-1.39-3.111-2.085-2.954Zm4.17-.375c.265-1.21.847-1.97 1.827-2.273.986-.33 1.893-.086 2.86.785.86.78 1.568 1.996 2.065 3.489.503 1.506.616 2.721.377 3.931-.271 1.294-.893 2.107-1.84 2.412-.953.311-1.846.045-2.846-.853-.946-.839-1.563-1.889-2.051-3.408-.497-1.52-.63-2.928-.392-4.083Zm5.044 7.57c1.014-.323 1.014-1.981.02-5.014-.993-3.045-1.946-4.386-2.991-4.048-1 .329-1 1.974-.014 5.02 1.006 3.038 1.966 4.386 2.985 4.042Zm5.361-2.094c.683-.442.596-.945.046-2.113l-2.7-5.822-.278-.197c-.285-.212-.49-.35-.815-.192l-.092.046-.336-.688 2.038-.944 5.87 4.599-1.687-3.614c-.603-1.301-.954-1.631-1.755-1.262l-.317-.713 2.35-1.09.33.699c-.662.371-.609.853-.032 2.102l3.448 7.385-.51.238-7.261-5.714 2.271 4.929c.568 1.235.966 1.597 1.733 1.281l.344.694-2.316 1.076-.331-.7Zm13.391-14.475-.358.252c-1.562-1.685-2.508-1.982-3.628-1.217-.429.291-.508.411-.085 1.038l1.774 2.597a.53.53 0 0 0 .119-.066c.655-.45.59-1.117-.125-2.412l.358-.252 2.774 4.044-.372.258c-.947-1.156-1.535-1.42-2.184-.991-.034.026-.072.059-.093.072l1.999 2.941c.339.489.477.594.801.383l.523-.363.437.647-2.932 2.009-.437-.648.364-.257c.33-.205.271-.404-.053-.886l-4.276-6.243c-.331-.495-.497-.608-.808-.39l-.383.25-.431-.626 4.785-3.271 2.231 3.131Zm8.598 2.174c-.583.496-1.324.654-2.191.489-1.317-.265-2.688-1.183-3.938-2.65-.979-1.136-1.609-2.332-1.868-3.481-.297-1.296-.026-2.227.763-2.908.489-.423 1.059-.568 1.8-.437l-.132-.898.284-.243 2.906 3.17-.313.351c-1.886-1.606-3.222-2.082-3.971-1.454-.893.773-.297 2.22 1.821 4.677 2.125 2.491 3.422 3.277 4.421 2.432.748-.655.59-1.916-.522-3.733l.543-.105c1.424 2.127 1.549 3.812.397 4.79Z" fill="#FFC20E"/><path d="m20.418 46.867 1.69 3.49-4.75 1.294 1.482 2.95 4.763-1.298 1.487 2.953-4.767 1.289 1.47 2.936 4.776-1.285 1.5 2.954-4.8 1.275 1.493 2.935 4.788-1.264 2.131 4.09c.898-.251 1.778-.557 2.638-.915L23.18 46.083c-.807.34-1.724.608-2.761.784Zm13.07 1.227c-.33-1.572 3.254-3.45 6.132-5.764l-3.81-7.61c-1.504.822-3.179 2.107-4.846 3.982-.447.46-.84.943-1.22 1.423l3.745 7.969Z" fill="currentColor"/><path d="M42.028 34.561c-.924-1.256-3.301-1.423-6.218.158l3.81 7.611c2.642-2.154 4.679-4.697 2.408-7.769ZM23.179 46.082 34.32 68.27c3.12-1.291 5.695-3.118 6.564-4.468l-4.796-10.181-2.38-5.057a1.083 1.083 0 0 1-.219-.47l-3.745-7.969c-1.874 2.327-3.495 4.648-6.564 5.957Zm-2.761.785c-1.5.256-3.248.324-5.383.148l2.323 4.637 4.75-1.295-1.69-3.49Zm3.185 6.436-4.763 1.298 1.483 2.944 4.767-1.289-1.487-2.953Zm2.965 5.893-4.776 1.285 1.477 2.944 4.8-1.276-1.5-2.953Zm-1.806 7.164 1.738 3.5c1.678.092 3.454-.186 5.181-.674l-2.13-4.09-4.79 1.264Z" fill="#ED1A3B"/><path d="m39.552 42.39 2.114 4.213c1.505-1.262 3.108-2.764 4.82-4.194l-3.963-7.063c1.427 2.746-.519 5.056-2.971 7.043Z" fill="currentColor"/><path d="M33.708 48.565c.107.162.269.3.485.446 2.132 1.501 4.633-.03 7.473-2.408l-2.114-4.214c-3.147 2.532-7.14 4.52-5.844 6.176Z" fill="#ED1A3B"/><path fill-rule="evenodd" clip-rule="evenodd" d="M37.557 32.994c2.115-.632 4.16-.39 5.202 1.032.704.955 1.08 1.919 1.147 2.886.065.967-.185 1.862-.613 2.672-.835 1.582-2.402 2.936-3.908 4.077-.58.44-1.176.865-1.737 1.266l-.517.37c-.715.514-1.342.98-1.833 1.412-.508.446-.782.783-.889 1.02-.047.105-.045.155-.044.167 0 .008.003.043.058.113l-.715.556.82-.385 7.387 15.674-.266.42c-.473.746-1.309 1.527-2.313 2.26-1.021.744-2.28 1.484-3.667 2.132-2.758 1.289-6.124 2.26-9.217 2.097l-.526-.027L13.5 45.978l1.61.136c5.051.425 7.841-.575 9.823-2.072 1.014-.767 1.855-1.692 2.697-2.719.255-.31.513-.635.778-.968.59-.74 1.211-1.52 1.882-2.26 2.542-2.822 5.092-4.45 7.267-5.1ZM32.925 49.03a1.982 1.982 0 0 1-.366-.975 2.13 2.13 0 0 1 .197-1.069c.273-.604.794-1.152 1.343-1.635.566-.497 1.258-1.008 1.973-1.522l.536-.384a73.52 73.52 0 0 0 1.681-1.225c1.496-1.133 2.768-2.282 3.4-3.48.306-.578.446-1.14.408-1.706-.038-.564-.26-1.206-.799-1.937l-.002-.002c-.36-.493-1.384-.916-3.218-.368-1.774.53-4.055 1.93-6.44 4.58l-.003.002c-.632.696-1.19 1.397-1.762 2.115-.274.344-.55.692-.84 1.045-.872 1.063-1.82 2.119-3.006 3.015-2.174 1.642-5.028 2.661-9.48 2.525l10.52 20.963c2.56.015 5.395-.805 7.833-1.944 1.294-.605 2.45-1.288 3.367-1.956.697-.509 1.222-.985 1.565-1.387L32.925 49.03Z" fill="currentColor"/><path fill-rule="evenodd" clip-rule="evenodd" d="m41.719 35.763 1.595-.859 3.962 7.063-.79.442.582.692c-.86.722-1.69 1.459-2.506 2.183-.339.3-.675.6-1.01.894-1.13.992-2.24 1.934-3.312 2.677-1.065.738-2.158 1.329-3.256 1.555-1.136.234-2.263.073-3.304-.654a2.591 2.591 0 0 1-.707-.662 2.008 2.008 0 0 1-.409-.995 2.089 2.089 0 0 1 .16-1.037c.247-.594.731-1.126 1.243-1.592.71-.646 1.693-1.35 2.691-2.062.432-.309.867-.62 1.283-.928 1.446-1.073 2.747-2.17 3.503-3.327.718-1.098.908-2.174.275-3.39Zm3.611 6.439-1.78-3.174a6.446 6.446 0 0 1-.588 1.114c-.949 1.45-2.487 2.712-3.94 3.79-.492.365-.97.706-1.422 1.03-.946.675-1.783 1.272-2.412 1.845-.463.421-.7.733-.788.946-.038.092-.035.135-.034.146 0 .008.004.042.058.11l.02.028.02.028c.01.016.058.076.234.194l.008.006.009.005c.589.414 1.198.513 1.902.368.746-.154 1.602-.585 2.589-1.269.98-.679 2.023-1.56 3.148-2.549.32-.282.649-.573.983-.87.644-.572 1.312-1.164 1.993-1.748Z" fill="currentColor"/><path d="m143.583 46.867-1.694 3.49 4.733 1.294-1.47 2.95-4.765-1.298-1.483 2.953 4.766 1.289-1.47 2.936-4.772-1.285-1.496 2.954 4.786 1.275-1.484 2.935-4.792-1.264-2.131 4.09a23.128 23.128 0 0 1-2.634-.915l11.139-22.188c.814.34 1.708.608 2.767.784Zm-13.079 1.227c.324-1.572-3.257-3.45-6.129-5.764l3.813-7.61c1.496.822 3.164 2.107 4.865 3.982.417.46.813.943 1.205 1.423l-3.754 7.969Z" fill="currentColor"/><path d="M121.952 34.561c.934-1.256 3.309-1.423 6.236.158l-3.813 7.611c-2.648-2.154-4.688-4.697-2.423-7.769Zm18.864 11.521L129.677 68.27c-3.112-1.291-5.693-3.118-6.566-4.468l7.175-15.237a1.06 1.06 0 0 0 .217-.471l3.753-7.969c1.881 2.327 3.483 4.648 6.56 5.957Zm2.767.785c1.49.256 3.25.324 5.382.148l-2.343 4.637-4.733-1.295 1.694-3.49Zm-3.197 6.436 4.766 1.298-1.483 2.944-4.765-1.289 1.482-2.953Zm-2.959 5.893 4.773 1.285-1.483 2.944-4.786-1.276 1.496-2.953Zm1.807 7.164-1.747 3.5c-1.668.092-3.455-.186-5.177-.674l2.132-4.09 4.792 1.264Z" fill="#ED1A3B"/><path d="m124.434 42.39-2.111 4.213c-1.502-1.262-3.117-2.764-4.805-4.194l3.951-7.063c-1.43 2.746.522 5.056 2.965 7.043Z" fill="currentColor"/><path d="M130.286 48.565c-.12.162-.285.3-.484.446-2.144 1.501-4.627-.03-7.479-2.408l2.111-4.214c3.151 2.532 7.136 4.52 5.852 6.176Z" fill="#ED1A3B"/><path fill-rule="evenodd" clip-rule="evenodd" d="M122.681 35.098c-.536.73-.755 1.37-.792 1.935-.038.565.103 1.128.41 1.707.633 1.198 1.906 2.347 3.402 3.48.558.423 1.124.828 1.681 1.226l.536.383c.715.514 1.407 1.025 1.973 1.522.549.483 1.069 1.03 1.343 1.635.144.317.233.678.199 1.067-.031.358-.16.686-.365.976l-6.912 14.656c.344.402.87.878 1.569 1.387.917.668 2.074 1.351 3.368 1.956 2.439 1.139 5.273 1.959 7.826 1.944l10.533-20.963c-4.456.136-7.311-.883-9.483-2.525-1.185-.897-2.131-1.953-3-3.016-.293-.358-.572-.711-.849-1.06-.565-.713-1.116-1.409-1.741-2.1m-2.093 9.257-.82-.386-7.394 15.676.267.42c.475.746 1.312 1.526 2.317 2.258 1.022.745 2.282 1.485 3.669 2.133 2.758 1.289 6.122 2.26 9.21 2.098l.526-.028L150.5 45.978l-1.611.136c-5.055.425-7.846-.575-9.825-2.072-1.013-.766-1.851-1.691-2.691-2.718a87.19 87.19 0 0 1-.784-.98c-.585-.738-1.2-1.514-1.863-2.248-2.551-2.823-5.105-4.452-7.285-5.102-2.122-.633-4.166-.387-5.217 1.028l-.003.004c-.703.955-1.077 1.92-1.141 2.888-.064.966.187 1.861.616 2.671.836 1.58 2.403 2.935 3.909 4.076.58.44 1.176.865 1.737 1.267.176.125.349.248.517.37.715.513 1.342.978 1.833 1.41.508.447.782.784.89 1.023.048.104.046.154.045.167-.001.008-.003.042-.058.113l.717.554Zm-7.605-13.467c.372-.498 1.406-.918 3.241-.37 1.778.53 4.063 1.93 6.457 4.58" fill="currentColor"/><path fill-rule="evenodd" clip-rule="evenodd" d="m120.677 34.905 1.596.858c-.633 1.216-.443 2.292.276 3.39.756 1.156 2.057 2.254 3.504 3.327.416.308.85.619 1.282.927.998.714 1.982 1.416 2.693 2.063.511.466.996.998 1.242 1.592.129.312.202.663.16 1.038a2.013 2.013 0 0 1-.422 1.011 3.067 3.067 0 0 1-.672.63l-.006.005-.007.005c-1.044.731-2.174.894-3.313.66-1.099-.227-2.191-.818-3.255-1.556-1.071-.743-2.18-1.685-3.308-2.677-.333-.293-.667-.59-1.003-.889-.818-.726-1.649-1.465-2.51-2.188l-.573-.48 4.316-7.716Zm-2.006 7.296c.684.587 1.352 1.18 1.998 1.755.332.295.658.584.976.864 1.125.99 2.167 1.87 3.145 2.55.986.684 1.841 1.115 2.586 1.268.702.145 1.309.047 1.899-.363.174-.128.247-.2.281-.247l.007-.01.007-.008c.054-.07.058-.104.059-.111.001-.011.004-.054-.034-.146-.089-.213-.325-.525-.788-.946-.63-.573-1.467-1.17-2.413-1.846a94.73 94.73 0 0 1-1.422-1.03c-1.453-1.077-2.992-2.338-3.941-3.789a6.408 6.408 0 0 1-.587-1.11l-1.773 3.17Z" fill="currentColor"/><path d="M96.322 41.646c-1.026.823-2.806 2.017-4.792 3.22v15.805c2.238-1.356 4.514-2.81 6.665-3.968V40.322c-.74.49-1.396.944-1.873 1.324ZM107 37.356c-.092 0-.185.022-.278.022l-2.264 17.075c.086-.003.185-.027.278-.027 1.854 0 3.574.624 5.195 1.537l5.066-15.515c-2.482-1.772-5.15-3.093-7.997-3.093Zm22.803 11.654c-2.118 1.482-4.6 0-7.407-2.347l-6.592 13.744c2.681 2.313 5.063 4.225 7.3 3.382l7.183-15.225c-.119.163-.286.302-.484.447Zm-95.61 0c-.215-.144-.377-.283-.484-.445l7.175 15.224c2.258.843 4.633-1.068 7.313-3.382l-6.604-13.743c-2.817 2.346-5.28 3.828-7.4 2.346ZM82 48.973c-.66 0-1.541-.224-2.536-.58V64.29c.919.32 1.769.513 2.536.513.756 0 1.613-.193 2.522-.513V48.391c-.979.357-1.87.581-2.522.581ZM56.988 37.355c-2.838 0-5.504 1.322-7.984 3.092l5.07 15.515c1.606-.913 3.328-1.536 5.188-1.536.084 0 .18.024.268.026l-2.258-17.074c-.094 0-.183-.023-.284-.023Zm10.679 4.29a24.109 24.109 0 0 0-1.864-1.323v16.38c2.155 1.16 4.432 2.613 6.656 3.969V44.867c-1.993-1.205-3.773-2.398-4.792-3.221Z" fill="currentColor"/><path d="M72.459 44.867V60.67c2.493 1.518 4.931 2.912 7.004 3.62v-15.9c-2.073-.743-4.69-2.126-7.004-3.524Zm-15.187-7.489 2.258 17.075c1.768.085 3.934.99 6.273 2.25V40.322c-2.144-1.358-5.239-2.853-8.531-2.944Zm-15.68 9.285 6.604 13.744c1.797-1.553 3.728-3.254 5.878-4.445l-5.07-15.515c-2.684 1.908-5.158 4.336-7.412 6.216Zm42.928 1.728v15.9c2.085-.708 4.514-2.101 7.01-3.62V44.867c-2.303 1.398-4.918 2.78-7.01 3.524Zm13.676-8.07v16.381c2.336-1.259 4.494-2.164 6.261-2.25l2.264-17.074c-3.29.091-6.38 1.586-8.525 2.944Zm16.8.126-5.066 15.515c2.132 1.191 4.065 2.892 5.872 4.445l6.593-13.743c-2.244-1.882-4.712-4.31-7.399-6.217Z" fill="#ED1A3B"/><path fill-rule="evenodd" clip-rule="evenodd" d="M49.587 38.948c2.247-1.436 4.724-2.497 7.4-2.497 4.874 0 9.324 3 11.235 4.48l.006.004.005.004c1.357 1.084 4.09 2.887 6.89 4.421 1.396.765 2.788 1.452 4.017 1.944 1.259.505 2.242.763 2.859.763.62 0 1.604-.258 2.862-.763 1.227-.492 2.618-1.179 4.011-1.944 2.794-1.533 5.523-3.337 6.885-4.421l.005-.005.005-.003c1.915-1.48 6.361-4.48 11.232-4.48 2.681 0 5.162 1.06 7.411 2.497 2.246 1.434 4.34 3.296 6.234 4.98 1.932 1.719 3.618 3.216 5.142 4.072 1.499.843 2.566.921 3.488.276.175-.129.248-.2.282-.247l1.55.921-7.339 15.557-.344.13c-1.606.603-3.174.087-4.59-.759-1.308-.782-2.663-1.952-4.02-3.125l-.315-.272c-1.494-1.289-3.026-2.581-4.665-3.556-1.631-.971-3.313-1.594-5.098-1.594-1.284 0-2.94.565-4.885 1.527-1.921.951-4.001 2.225-6.116 3.527l-.174.107c-2.04 1.256-4.112 2.53-6.029 3.497-1.945.98-3.87 1.719-5.532 1.719-1.66 0-3.584-.738-5.529-1.719-1.915-.966-3.986-2.24-6.026-3.495l-.178-.11c-2.116-1.301-4.197-2.575-6.12-3.526-1.945-.962-3.601-1.527-4.884-1.527-1.784 0-3.466.623-5.098 1.594-1.639.975-3.172 2.267-4.668 3.556l-.311.27c-1.36 1.173-2.717 2.345-4.027 3.127-1.418.846-2.986 1.362-4.594.758l-.344-.13-7.332-15.556 1.576-.885c.01.017.058.077.234.195l.009.005.009.007c.923.65 1.994.573 3.497-.272 1.525-.856 3.212-2.353 5.143-4.071l.001-.001c1.894-1.685 3.987-3.546 6.23-4.98Zm78.787 11.547c-1.171.117-2.356-.288-3.478-.918-1.704-.958-3.521-2.574-5.366-4.216l-.092-.081c-1.914-1.703-3.902-3.465-6.005-4.808-2.101-1.342-4.237-2.212-6.434-2.212-4.219 0-8.243 2.65-10.117 4.097-1.466 1.167-4.284 3.023-7.136 4.589-1.431.785-2.89 1.508-4.209 2.037-1.289.517-2.547.894-3.538.894-.988 0-2.246-.377-3.535-.894-1.319-.529-2.78-1.252-4.213-2.037-2.857-1.565-5.681-3.422-7.145-4.59-1.87-1.446-5.897-4.096-10.118-4.096-2.192 0-4.324.87-6.423 2.211-2.102 1.344-4.089 3.106-6.003 4.809l-.085.075c-1.848 1.644-3.667 3.262-5.374 4.222-1.124.63-2.31 1.035-3.484.917l5.913 12.545c.758.16 1.618-.071 2.695-.714 1.169-.697 2.409-1.767 3.815-2.98l.27-.233c1.486-1.281 3.13-2.674 4.924-3.741 1.8-1.072 3.806-1.85 6.026-1.85m69.112-3.026-5.918 12.544c-.757.16-1.615-.07-2.692-.713-1.166-.697-2.404-1.766-3.808-2.978l-.272-.236c-1.486-1.28-3.129-2.674-4.922-3.741-1.801-1.072-3.806-1.85-6.027-1.85-1.727 0-3.702.733-5.69 1.716-2.01.995-4.163 2.315-6.263 3.608l-.138.085c-2.07 1.274-4.083 2.513-5.93 3.444-1.914.965-3.51 1.524-4.715 1.524-1.202 0-2.797-.559-4.711-1.524-1.846-.93-3.86-2.169-5.928-3.442l-.142-.088c-2.101-1.292-4.255-2.612-6.266-3.607-1.988-.983-3.964-1.715-5.69-1.715" fill="currentColor"/><path d="M82.246 33.434c14.805 0 26.805-6.493 26.805-14.487 0-8.003-12-14.494-26.805-14.494-14.8 0-26.81 6.491-26.81 14.494 0 7.994 12.01 14.487 26.81 14.487Z" fill="currentColor"/><path fill-rule="evenodd" clip-rule="evenodd" d="M63.075 8.3C68.006 5.636 74.785 4 82.245 4c7.464 0 14.242 1.635 19.172 4.3 4.911 2.656 8.088 6.4 8.088 10.646 0 4.243-3.177 7.985-8.088 10.64-4.93 2.666-11.708 4.302-19.171 4.302-7.46 0-14.24-1.636-19.17-4.301-4.913-2.656-8.093-6.398-8.093-10.64 0-4.247 3.18-7.99 8.092-10.646Zm.433.797c-4.792 2.59-7.617 6.094-7.617 9.85 0 3.751 2.825 7.253 7.617 9.843 4.773 2.58 11.398 4.191 18.738 4.191 7.342 0 13.966-1.61 18.738-4.191 4.791-2.59 7.613-6.092 7.613-9.844 0-3.755-2.823-7.258-7.613-9.849-4.772-2.58-11.396-4.19-18.738-4.19-7.34 0-13.964 1.61-18.738 4.19Z" fill="currentColor"/><path d="M82.273 31.08c13.148 0 23.833-5.431 23.833-12.133 0-6.71-10.685-12.133-23.833-12.133-13.18 0-23.828 5.424-23.828 12.133 0 6.702 10.648 12.134 23.828 12.134Z" fill="#FFC20E"/><path fill-rule="evenodd" clip-rule="evenodd" d="M65.417 10.364c4.31-2.195 10.266-3.55 16.856-3.55 6.574 0 12.532 1.355 16.847 3.55 4.315 2.195 6.986 5.228 6.986 8.582 0 3.352-2.671 6.385-6.986 8.581-4.315 2.196-10.273 3.554-16.847 3.554-6.59 0-12.547-1.358-16.856-3.554-4.31-2.196-6.972-5.23-6.972-8.58 0-3.355 2.662-6.388 6.972-8.583Zm0 0c-4.31 2.195-6.971 5.228-6.971 8.582 0 3.351 2.662 6.385 6.971 8.58 4.31 2.196 10.266 3.554 16.856 3.554 6.574 0 12.532-1.358 16.847-3.553 4.314-2.196 6.985-5.23 6.985-8.58 0-3.355-2.671-6.388-6.985-8.582-4.315-2.195-10.273-3.55-16.847-3.55-6.59 0-12.547 1.355-16.856 3.55Z" fill="currentColor"/><path d="M82.295 28.175c10.704 0 19.409-3.472 19.409-7.752 0-4.27-8.705-7.737-19.41-7.737-10.715 0-19.407 3.468-19.407 7.737 0 4.28 8.691 7.752 19.408 7.752Z" fill="currentColor"/><path fill-rule="evenodd" clip-rule="evenodd" d="M67.898 13.269c3.775-1.506 8.866-2.397 14.397-2.397 5.524 0 10.616.891 14.393 2.396 1.883.751 3.53 1.69 4.736 2.825 1.209 1.138 2.098 2.6 2.098 4.33s-.887 3.195-2.097 4.336c-1.205 1.137-2.852 2.078-4.736 2.83-3.778 1.508-8.87 2.4-14.394 2.4-5.53 0-10.622-.892-14.398-2.4-1.883-.752-3.529-1.693-4.734-2.83-1.208-1.142-2.094-2.606-2.094-4.336 0-1.729.887-3.19 2.096-4.33 1.205-1.134 2.85-2.074 4.733-2.824Zm-2.237 5.464c-.756.712-.955 1.284-.955 1.69 0 .41.2.985.956 1.699.76.717 1.957 1.447 3.586 2.098 3.248 1.297 7.86 2.14 13.047 2.14 5.18 0 9.792-.843 13.043-2.14 1.631-.652 2.83-1.381 3.59-2.099.757-.714.958-1.288.958-1.698 0-.405-.2-.977-.956-1.69-.761-.716-1.96-1.444-3.59-2.094-3.252-1.296-7.865-2.138-13.045-2.138-5.186 0-9.799.842-13.048 2.138-1.63.65-2.826 1.378-3.586 2.094Z" fill="currentColor"/><path d="M82.228 14.913c-10.322 0-18.665 8.357-18.665 18.64 0 10.303 8.343 18.641 18.665 18.641h-.23c10.3 0 18.673-8.338 18.673-18.64 0-10.284-8.373-18.641-18.672-18.641h.23Z" fill="currentColor"/><path fill-rule="evenodd" clip-rule="evenodd" d="M82.228 14.008h-.23v.002c-10.717.123-19.341 8.838-19.341 19.543 0 10.725 8.625 19.422 19.342 19.545v.001h.23v-.001c10.694-.123 19.349-8.819 19.349-19.545 0-10.706-8.655-19.42-19.35-19.543v-.002Zm-.115 1.81c-9.767.062-17.644 7.989-17.644 17.735 0 9.766 7.877 17.675 17.644 17.736 9.747-.061 17.652-7.972 17.652-17.736 0-9.745-7.906-17.673-17.652-17.735Z" fill="currentColor"/><path d="m79.124 48.964-3.842-6.512-7.036-1.147-1.768 2.233c.08.112.124.23.209.334l.304.437a18.704 18.704 0 0 0 9.74 7.067l.719.133 1.674-2.545Zm-4.809-17.989 3.02 9.295h9.549l3.018-9.295-7.802-5.639-7.785 5.64ZM82.1 21.57v-.013l5.81-3.789v-1.874c-1.87-.63-3.83-.959-5.804-.973a18.745 18.745 0 0 0-5.796.973v1.874l5.79 3.802Zm-10.76 6.45.204-7.392-1.505-1.168a16.977 16.977 0 0 0-2.186 2.208l-.077.078a18.591 18.591 0 0 0-4.028 9.251l1.664.73 5.928-3.707Zm17.616 14.433-3.84 6.512 1.662 2.545.695-.13a18.786 18.786 0 0 0 9.882-7.226l.146-.226c.093-.133.166-.278.252-.389l-1.78-2.233-7.017 1.147Zm3.937-14.433 5.911 3.708 1.668-.73a18.586 18.586 0 0 0-4.056-9.292l-.014-.003c-.662-.816-1.423-1.556-2.21-2.243l-1.51 1.169.211 7.39Z" fill="currentColor"/>
  </symbol>
</svg>
  