<svg width="24" height="24" viewBox="0 0 24 24" fill="none" xmlns="http://www.w3.org/2000/svg">
  <symbol id="item" viewBox="0 0 24 24"  fill="none">
    <path d="M21.7 14.42c-1.335 5.356-6.762 8.617-12.12 7.28C4.224 20.366.963 14.94 2.3 9.583 3.635 4.224 9.06.964 14.418 2.3c5.358 1.336 8.618 6.763 7.283 12.12Z" fill="#F7931A"/><path d="M16.41 10.575c.199-1.33-.814-2.046-2.2-2.523l.45-1.802-1.098-.274-.437 1.755c-.289-.072-.585-.14-.88-.207l.441-1.766-1.096-.274-.45 1.802a36.683 36.683 0 0 1-.7-.164v-.006l-1.513-.378-.292 1.172s.814.187.797.198c.445.111.525.405.512.638L9.432 10.8c.03.008.07.019.114.036l-.116-.028-.718 2.876c-.054.135-.192.338-.503.26.011.017-.797-.198-.797-.198l-.545 1.256 1.428.356c.266.066.526.136.782.201l-.454 1.824 1.096.273.45-1.804c.3.082.59.157.874.227l-.448 1.796 1.098.273.454-1.82c1.87.354 3.278.212 3.87-1.48.477-1.363-.024-2.15-1.008-2.662.717-.165 1.257-.636 1.4-1.61Zm-2.507 3.516c-.34 1.362-2.634.626-3.378.441l.603-2.415c.744.185 3.13.553 2.775 1.974Zm.34-3.535c-.31 1.24-2.22.61-2.84.455l.547-2.19c.62.154 2.614.442 2.292 1.735Z" fill="currentColor"/><circle cx="12" cy="12" r="12" fill="#15CA4F"/><path d="M12 20.478A8.475 8.475 0 0 1 3.522 12 8.475 8.475 0 0 1 12 3.522 8.475 8.475 0 0 1 20.478 12c0 4.685-3.805 8.478-8.478 8.478Zm2.268-15.42v1.265l-.907-.26-.803-.211V4.736h-1.302v1.116l-.777.212-.884.247V5.083A7.326 7.326 0 0 0 4.675 12a7.326 7.326 0 0 0 4.92 6.917v-1.364l.881.256.755.203v1.276c.248.025.509.038.757.038.198 0 .396-.013.595-.025v-1.277l.826-.215.86-.244v1.401a7.308 7.308 0 0 0 5.032-6.954c.012-3.247-2.107-5.999-5.033-6.953Z" fill="#0F161F"/><path d="M11.923 17.057c1.668 0 3.689-.848 3.689-3.208 0-1.936-1.357-2.388-3.123-3.067-1.089-.424-1.456-.678-1.442-1.159 0-.48.353-.777.933-.777.565 0 1.187.269 2.05.947l1.328-1.724c-.961-.82-2.163-1.329-3.477-1.3-1.866.028-3.293 1.286-3.293 2.953 0 1.979 1.526 2.7 3.053 3.223 1.13.381 1.484.621 1.484 1.173 0 .452-.34.848-1.131.848-.692 0-1.611-.354-2.374-1.188L8.235 15.46c1.074 1.103 2.402 1.597 3.688 1.597Z" fill="#0F161F"/>
  </symbol>
</svg>
  