<svg width="24" height="24" viewBox="0 0 24 24" fill="none" xmlns="http://www.w3.org/2000/svg">
  <symbol id="item" viewBox="0 0 24 24"  fill="none">
    <circle cx="12" cy="12" r="12" fill="#0033AD"/><path d="M11.779 3.732c.392-.204.871.27.663.662-.121.32-.58.405-.815.161-.248-.234-.167-.696.152-.823Zm-4.22.455c.239-.098.54.12.516.38.025.282-.32.49-.562.356-.322-.125-.285-.647.046-.736Zm8.643.744c-.373-.045-.432-.631-.073-.749.278-.135.533.119.574.382-.058.226-.247.432-.501.367ZM8.519 5.983c.399-.252.967.123.906.586-.02.467-.641.738-.991.422-.339-.248-.288-.817.085-1.008Zm6.083.268c.178-.459.898-.472 1.1-.026.2.347-.046.776-.402.894-.472.088-.92-.422-.698-.868Zm-3.331.842c-.004-.393.355-.687.729-.714.248.05.519.156.625.406.198.346.022.822-.336.98-.164.092-.358.058-.537.047-.273-.134-.503-.397-.481-.719Zm-6.275.574c.364-.224.855.185.717.58-.076.342-.536.481-.799.263-.28-.205-.236-.697.082-.843Zm13.475 0c.309-.24.818.035.781.424.021.356-.42.624-.726.441-.338-.152-.372-.671-.055-.866Zm-5.435.707c.51-.183 1.114.036 1.405.49.383.556.18 1.402-.415 1.72-.617.377-1.516.058-1.744-.63-.258-.616.118-1.387.754-1.58Zm-2.99.06c.565-.266 1.325-.042 1.597.536.321.562.073 1.345-.5 1.635-.575.326-1.386.08-1.664-.525-.312-.583-.035-1.376.567-1.645ZM7.052 9.459c.043-.364.386-.6.733-.625a.807.807 0 0 1 .711.713c-.024.373-.313.739-.71.737-.435.037-.817-.397-.734-.825Zm8.842-.546c.448-.26 1.07.119 1.05.633.03.545-.658.928-1.103.609-.463-.266-.427-1.015.053-1.242Zm-7.065 1.92c.523-.144 1.122.103 1.378.584.282.484.167 1.156-.27 1.512-.56.52-1.593.311-1.891-.4-.343-.651.073-1.525.783-1.696Zm5.67-.003c.51-.145 1.107.05 1.38.514.362.53.19 1.321-.349 1.663-.563.397-1.437.188-1.747-.432-.377-.642.002-1.55.717-1.745Zm-9.036.605c.452-.171.953.328.77.776-.112.408-.687.56-.985.258-.347-.282-.219-.911.215-1.034Zm12.253.65a.692.692 0 0 1 .646-.727c.31.05.61.3.586.636.028.445-.508.748-.888.539-.177-.09-.268-.273-.343-.448Zm-14.476-.43c.272-.119.609.117.546.419-.014.342-.519.473-.705.188-.163-.199-.065-.505.16-.607Zm17.149-.007c.192-.136.499-.038.575.185.128.245-.108.58-.383.538-.386.035-.51-.553-.192-.723Zm-10.083 1.642c.716-.186 1.485.41 1.49 1.147.046.745-.711 1.405-1.444 1.233-.566-.09-1.01-.636-.992-1.209a1.227 1.227 0 0 1 .946-1.171Zm2.835-.002c.726-.203 1.518.405 1.507 1.159.038.73-.696 1.369-1.413 1.224-.675-.088-1.173-.83-.985-1.484.095-.437.46-.792.89-.899Zm-5.465.454c.503-.086.974.475.77.952-.149.509-.889.647-1.216.231-.384-.399-.097-1.128.446-1.183Zm8.312.022c.448-.188.998.2.964.687.018.535-.662.904-1.1.592-.496-.28-.406-1.107.136-1.279Zm2.323 2.33c-.175-.327.143-.76.507-.7.18-.003.307.14.423.26.023.193.063.424-.098.574-.218.276-.713.197-.832-.134Zm-13.317-.609c.34-.226.828.111.752.508-.04.351-.483.552-.774.353-.313-.181-.301-.696.022-.86Zm6.707.735c.444-.196 1.01.19.968.68.033.541-.667.916-1.101.591-.483-.279-.403-1.1.133-1.27Zm-3.107.725c.379-.2.887.145.853.568.011.348-.328.645-.672.593-.284-.006-.47-.26-.56-.503.004-.264.113-.559.38-.658Zm6.293.006c.389-.24.942.105.905.558.01.473-.615.777-.977.466-.351-.244-.308-.83.072-1.024Zm1.094 2.705c-.173-.262.03-.578.312-.637.226.046.465.216.417.478-.033.354-.551.463-.729.159Zm-8.686-.228c.069-.207.236-.413.48-.36.357.026.462.563.15.728-.28.19-.605-.07-.63-.368Zm4.19.239c.069-.307.466-.457.728-.294.174.075.224.268.269.433a8.304 8.304 0 0 0-.066.258c-.108.127-.245.254-.424.25-.332.038-.631-.337-.507-.647Z" fill="currentColor"/>
  </symbol>
</svg>
  