<svg width="24" height="24" viewBox="0 0 24 24" fill="none" xmlns="http://www.w3.org/2000/svg">
  <symbol id="item" viewBox="0 0 24 24"  fill="none">
    <path d="M12 24c6.627 0 12-5.373 12-12S18.627 0 12 0 0 5.373 0 12s5.373 12 12 12Z" fill="#E52931"/><mask id="a" style="mask-type:alpha" maskUnits="userSpaceOnUse" x="0" y="0" width="24" height="24"><path d="M12 24c6.627 0 12-5.373 12-12S18.627 0 12 0 0 5.373 0 12s5.373 12 12 12Z" fill="#E52931"/></mask><g mask="url(#a)"><path d="M12.194 23.806c6.52-.107 11.72-5.48 11.612-12-.107-6.52-5.48-11.719-12-11.612-6.52.107-11.719 5.48-11.612 12 .107 6.52 5.48 11.719 12 11.612Z" fill="#E52931"/><path d="M23.168 15.33c0-3.396-2.668-6.063-6.063-6.063-2.061 0-4.001 1.091-5.092 2.667C6.92 8.176 3.04 3.447 1.949 5.144.615 7.084-.112 9.388-.112 11.934c0 6.67 5.456 12.125 12.125 12.125 4.122 0 7.638-2.06 9.82-5.092.85-.97 1.335-2.304 1.335-3.638Z" fill="#274DD4"/><path d="M7.07 14.598A5.904 5.904 0 1 0 7.011 2.79a5.904 5.904 0 0 0 .06 11.808Z" fill="#E52931"/></g><path d="m5.5 6.2 2.2 11.5h2.5L12 11l1.8 6.7h2.5l2.2-11.5h-2.3L15 13.6l-2-7.4h-2l-2 7.4-1.2-7.4H5.5Z" fill="#F9F9F9"/><path d="M18.3 9.9H5.5v1.8h12.8V9.9ZM18.3 13.2H5.5V15h12.8v-1.8Z" fill="#F9F9F9"/>
  </symbol>
</svg>
  