<svg width="24" height="24" viewBox="0 0 24 24" fill="none" xmlns="http://www.w3.org/2000/svg">
  <symbol id="item" viewBox="0 0 24 24"  fill="none">
    <circle cx="12" cy="12" r="12" fill="#0D34C4"/><path d="M7.483 12.174a1.347 1.347 0 0 0 1.27 1.418h.08a1.34 1.34 0 0 0 1.343-1.349 1.34 1.34 0 0 0-1.35-1.344c-.714 0-1.306.56-1.343 1.275ZM2.46 11.827a.436.436 0 1 0-.047.869.436.436 0 0 0 .046-.869ZM7.398 4.355a.44.44 0 0 0 .192-.586.44.44 0 0 0-.587-.192.434.434 0 0 0-.192.581c.107.219.368.31.587.197ZM8.763 6.74a.673.673 0 0 0 .298-.902.673.673 0 0 0-.9-.299.673.673 0 0 0-.3.902c.166.33.571.464.902.298ZM4.166 8.377a.558.558 0 0 0 .768-.16.558.558 0 0 0-.16-.768.558.558 0 0 0-.768.16.552.552 0 0 0 .16.768ZM4.982 11.587a.67.67 0 0 0-.71.635.67.67 0 0 0 .635.709.673.673 0 0 0 .075-1.344ZM4.24 16.104a.556.556 0 1 0 .503.993.556.556 0 0 0-.503-.993ZM6.854 10.195a.785.785 0 0 0 1.093-.23.785.785 0 0 0-.23-1.092.785.785 0 0 0-1.093.229.787.787 0 0 0 .23 1.093ZM15.146 6.686c.31.203.731.117.934-.192a.677.677 0 0 0-.192-.933.677.677 0 0 0-.934.192.666.666 0 0 0 .192.933ZM16.523 4.313c.202.133.469.074.602-.128a.433.433 0 0 0-.128-.603.436.436 0 0 0-.602.123.45.45 0 0 0 .128.608ZM15.248 10.888a1.344 1.344 0 0 0-1.419 1.27 1.344 1.344 0 0 0 1.27 1.418h.074c.742 0 1.344-.602 1.344-1.349a1.336 1.336 0 0 0-1.27-1.339ZM9.205 10.1a1.346 1.346 0 1 0 2.405-1.216 1.344 1.344 0 0 0-1.807-.598 1.352 1.352 0 0 0-.598 1.813ZM19.76 8.377a.556.556 0 1 0-.752-.245.564.564 0 0 0 .752.245ZM16.346 8.803a.79.79 0 1 0 .71 1.414.79.79 0 0 0-.71-1.414ZM11.947 4.11a.562.562 0 0 0 .586-.523.558.558 0 0 0-.522-.586.558.558 0 0 0-.587.517c-.016.31.219.57.523.592ZM11.941 7.593c.438.026.811-.31.832-.747a.785.785 0 0 0-.746-.832.785.785 0 0 0-.832.747c-.022.437.309.81.746.832ZM7.654 15.678a.79.79 0 1 0-.71-1.414.79.79 0 0 0 .71 1.414ZM12.453 8.75a1.343 1.343 0 0 0 .39 1.861 1.343 1.343 0 0 0 1.86-.39 1.343 1.343 0 0 0-1.124-2.08c-.454 0-.875.23-1.126.609ZM14.794 14.382a1.344 1.344 0 0 0-1.807-.598 1.344 1.344 0 0 0-.598 1.808 1.344 1.344 0 0 0 1.808.597 1.34 1.34 0 0 0 .603-1.797c0-.005 0-.005-.006-.01ZM17.146 14.286a.785.785 0 0 0-1.093.229.785.785 0 0 0 .23 1.093.785.785 0 0 0 1.093-.23.787.787 0 0 0-.23-1.092ZM19.728 12.264a.67.67 0 0 0-.635-.709.67.67 0 0 0-.71.635.67.67 0 0 0 .635.709.677.677 0 0 0 .71-.635ZM21.589 11.784a.436.436 0 1 0-.047.869.436.436 0 0 0 .047-.869ZM19.834 16.104a.558.558 0 0 0-.768.16.558.558 0 0 0 .16.768.558.558 0 0 0 .768-.16.552.552 0 0 0-.16-.768ZM7.472 20.168a.437.437 0 0 0-.602.123.436.436 0 0 0 .122.602c.203.134.47.075.603-.122a.428.428 0 0 0-.123-.603ZM16.602 20.125a.44.44 0 0 0-.192.587.44.44 0 0 0 .587.192.434.434 0 0 0 .192-.581.431.431 0 0 0-.587-.198ZM11.547 15.73a1.35 1.35 0 0 0-.39-1.866 1.35 1.35 0 0 0-1.866.39 1.345 1.345 0 0 0 1.125 2.085c.459.005.88-.224 1.13-.608ZM8.853 17.795a.677.677 0 0 0-.933.192.677.677 0 0 0 .192.933c.31.203.73.117.933-.192a.667.667 0 0 0-.192-.933ZM11.995 20.37a.562.562 0 0 0-.587.523.558.558 0 0 0 .523.587.558.558 0 0 0 .586-.517.563.563 0 0 0-.522-.592ZM12 16.888a.785.785 0 0 0-.832.747c-.027.437.31.81.747.832.437.021.81-.31.832-.747a.788.788 0 0 0-.747-.832ZM15.237 17.741a.674.674 0 1 0 .614 1.2.673.673 0 1 0-.614-1.2Z" fill="currentColor"/>
  </symbol>
</svg>
  