<svg width="24" height="24" viewBox="0 0 24 24" fill="none" xmlns="http://www.w3.org/2000/svg">
  <symbol id="item" viewBox="0 0 24 24"  fill="none">
    <path d="M21.7 14.42c-1.335 5.356-6.762 8.617-12.12 7.28C4.224 20.366.963 14.94 2.3 9.583 3.635 4.224 9.06.964 14.418 2.3c5.358 1.336 8.618 6.763 7.283 12.12Z" fill="#F7931A"/><path d="M16.41 10.575c.199-1.33-.814-2.046-2.2-2.523l.45-1.802-1.098-.274-.437 1.755c-.289-.072-.585-.14-.88-.207l.441-1.766-1.096-.274-.45 1.802a36.683 36.683 0 0 1-.7-.164v-.006l-1.513-.378-.292 1.172s.814.187.797.198c.445.111.525.405.512.638L9.432 10.8c.03.008.07.019.114.036l-.116-.028-.718 2.876c-.054.135-.192.338-.503.26.011.017-.797-.198-.797-.198l-.545 1.256 1.428.356c.266.066.526.136.782.201l-.454 1.824 1.096.273.45-1.804c.3.082.59.157.874.227l-.448 1.796 1.098.273.454-1.82c1.87.354 3.278.212 3.87-1.48.477-1.363-.024-2.15-1.008-2.662.717-.165 1.257-.636 1.4-1.61Zm-2.507 3.516c-.34 1.362-2.634.626-3.378.441l.603-2.415c.744.185 3.13.553 2.775 1.974Zm.34-3.535c-.31 1.24-2.22.61-2.84.455l.547-2.19c.62.154 2.614.442 2.292 1.735Z" fill="currentColor"/><circle cx="12" cy="12" r="12" fill="#0AB758"/><path d="M5.362 15.858h1.933v-2.657h.724l1.731 2.657h2.325l-2.005-2.924c1.044-.418 1.59-1.276 1.59-2.472 0-1.648-.925-2.843-3.013-2.843H5.362v8.24Zm1.933-4.351V9.325h1.032c.89 0 1.281.464 1.281 1.09 0 .685-.463 1.092-1.317 1.092h-.996ZM18.64 13.514c0-1.543-1.033-1.961-2.681-2.448-.783-.232-1.032-.43-1.032-.708 0-.29.237-.464.735-.464.486 0 1.056.162 1.732.626l1.103-1.346a5.236 5.236 0 0 0-2.159-.986V6.784h-1.28V8.14c-1.4.186-2.207 1.114-2.207 2.344 0 1.509 1.198 1.985 2.55 2.38.913.266 1.139.463 1.139.8 0 .302-.273.522-.736.522-.569 0-1.352-.255-2.016-.87l-1.139 1.358a4.335 4.335 0 0 0 2.396 1.207v1.334h1.27v-1.323c1.411-.186 2.324-1.056 2.324-2.379Z" fill="currentColor"/>
  </symbol>
</svg>
  