<svg width="24" height="24" viewBox="0 0 24 24" fill="none" xmlns="http://www.w3.org/2000/svg">
  <symbol id="item" viewBox="0 0 24 24"  fill="none">
    <circle cx="12" cy="12" r="12" fill="#D74545"/><path d="M20.188 9.861c-.77-.727-1.834-1.837-2.7-2.625l-.052-.037a.973.973 0 0 0-.285-.162c-2.09-.4-11.818-2.26-12.007-2.237a.354.354 0 0 0-.149.058l-.049.04a.588.588 0 0 0-.133.22l-.013.034v.216c1.095 3.12 5.42 13.344 6.27 15.744.052.163.15.472.331.488h.042c.097 0 .512-.562.512-.562s7.428-9.219 8.179-10.2c.097-.121.183-.251.256-.389a.647.647 0 0 0-.202-.588Zm-6.124.826 2.848-2.186 1.502 1.502-4.35.684Zm-1.742-.238L7.838 6.647l7.55 1.457-3.066 2.345Zm.77 1.761 4.946-.772-5.232 6.137.287-5.365ZM7.518 8.244l3.784 3.31-.23 5.246-3.554-8.556Z" fill="currentColor"/>
  </symbol>
</svg>
  