<svg width="24" height="24" viewBox="0 0 24 24" fill="none" xmlns="http://www.w3.org/2000/svg">
  <symbol id="item" viewBox="0 0 24 24"  fill="none">
    <path d="M12 24c6.627 0 12-5.373 12-12S18.627 0 12 0 0 5.373 0 12s5.373 12 12 12Z" fill="currentColor"/><path d="M16.1 14.2c0-2.1-1.4-2.7-3.6-3.4-1.1-.4-1.5-.6-1.5-1s.3-.6 1-.6 1.4.2 2.4.9l1.5-1.9c-.8-.7-1.9-1.2-3-1.4v-2h-1.7v1.9c-1.9.3-3 1.6-3 3.3 0 2.1 1.6 2.8 3.5 3.3 1.2.4 1.5.6 1.5 1.1 0 .4-.4.7-1 .7-.8 0-1.8-.4-2.7-1.2L8 15.8c1 1 2.1 1.5 3.3 1.7v1.9H13v-1.8c1.8-.4 3.1-1.6 3.1-3.4Z" fill="#E52931"/><mask id="a" style="mask-type:alpha" maskUnits="userSpaceOnUse" x="0" y="0" width="24" height="24"><path d="M12 24c6.627 0 12-5.373 12-12S18.627 0 12 0 0 5.373 0 12s5.373 12 12 12Z" fill="currentColor"/></mask><g mask="url(#a)" fill="#E52931"><path d="M0 0h6.5v24H0zM17.5 0H24v24h-6.5z"/></g>
  </symbol>
</svg>
  