
<svg width="1em" height="1em"    viewBox="0 0 24 24" fill="none" xmlns="http://www.w3.org/2000/svg">
<symbol id="item"
width="1em"
height="1em"
viewBox="0 0 24 24"
fill="none"
>
<path d="M12 24c6.627 0 12-5.373 12-12S18.627 0 12 0 0 5.373 0 12s5.373 12 12 12Z" fill="#274DD4"/><path d="M15.8 17.5H7.9v-1.7c1-.3 1.5-.8 1.5-1.9v-1.1H7.9v-1.3h1.5V10c0-1 .3-1.8.9-2.4.6-.6 1.2-.9 2.5-.9s2.4.4 3.3 2.3l-1.5.9c-.4-1-.8-1.3-1.5-1.3s-1.4.6-1.4 1.7v1.3h2v1.2h-2v.8c0 .9-.1 1.5-.8 2.1h5l-.1 1.8Z" fill="#F9F7F7" stroke="#E52931" stroke-width=".25" stroke-miterlimit="10"/>
</symbol>
</svg>
  