<svg width="24" height="24" viewBox="0 0 24 24" fill="none" xmlns="http://www.w3.org/2000/svg">
  <symbol id="item" viewBox="0 0 24 24"  fill="none">
    <path d="M12 24c6.627 0 12-5.373 12-12S18.627 0 12 0 0 5.373 0 12s5.373 12 12 12Z" fill="#E52931"/><path d="M9.3 16.6c1.5-.2 2.5-1.2 2.5-2.7 0-1.7-1.1-2.2-2.9-2.7-.9-.2-1.1-.5-1.1-.8 0-.3.3-.5.8-.5s1.2.2 1.9.7l1.2-1.5c-.7-.5-1.5-.9-2.4-1.1 0 0-.9-.1-1.4-.1-1.5.3-2.4 1.3-2.4 2.7 0 1.7 1.3 2.2 2.8 2.7 1 .3 1.2.5 1.2.9 0 .3-.3.6-.8.6-.6 0-1.5-.3-2.2-1l-1.2 1.5c.7.7 1.6 1.1 2.6 1.3 0 0 .8.1 1.4 0ZM18.7 13.9c0-1.7-1.1-2.2-2.9-2.7-.9-.3-1.1-.5-1.1-.8 0-.3.3-.5.8-.5s1.2.2 1.9.7l1.2-1.5c-.7-.5-1.6-.9-2.4-1.1V6.4h-1.4V8c-1.5.2-2.4 1.2-2.4 2.6 0 1.7 1.3 2.2 2.8 2.7 1 .3 1.2.5 1.2.9 0 .3-.3.6-.8.6-.6 0-1.5-.3-2.2-1l-1.2 1.5c.8.8 1.7 1.2 2.6 1.3v1.5h1.4v-1.5c1.5-.2 2.5-1.2 2.5-2.7Z" fill="#FCFCFC"/>
  </symbol>
</svg>
  