<svg width="24" height="24" viewBox="0 0 24 24" fill="none" xmlns="http://www.w3.org/2000/svg">
  <symbol id="item" viewBox="0 0 24 24"  fill="none">
    <g clip-path="url(#a)"><circle cx="12" cy="12" r="12" fill="#274DD4"/><mask id="b" style="mask-type:alpha" maskUnits="userSpaceOnUse" x="0" y="0" width="24" height="24"><circle cx="12" cy="12" r="12" fill="#274DD4"/></mask><g mask="url(#b)" fill="#FF3E44"><path d="m19.647 8.045.569 1.75h1.84l-1.489 1.08.569 1.75-1.489-1.08-1.488 1.08.569-1.75-1.489-1.08h1.84l.568-1.75ZM19.647.373l.569 1.75h1.84l-1.489 1.081.569 1.75-1.489-1.082-1.488 1.082.569-1.75-1.489-1.081h1.84l.568-1.75ZM19.647 16.03l.569 1.75h1.84l-1.489 1.081.569 1.75-1.489-1.082-1.488 1.082.569-1.75-1.489-1.081h1.84l.568-1.75ZM3.762 16.03l.569 1.75h1.84L4.681 18.86l.569 1.75-1.489-1.082-1.488 1.082.568-1.75-1.488-1.081h1.84l.568-1.75ZM3.763 8.045l.568 1.75h1.84l-1.489 1.08.569 1.75-1.488-1.08-1.489 1.08.569-1.75-1.489-1.08h1.84l.569-1.75ZM3.763.373l.568 1.75h1.84L4.682 3.204l.569 1.75-1.488-1.082-1.489 1.082.569-1.75-1.489-1.081h1.84l.569-1.75Z"/></g><path d="M17.115 14.64c0-2.69-1.762-3.419-4.579-4.269-1.337-.404-1.762-.748-1.762-1.234 0-.506.405-.81 1.256-.81.83 0 1.803.284 2.958 1.093l1.884-2.347c-.972-.789-2.35-1.456-3.687-1.72V2.905h-2.189v2.368c-2.39.323-3.768 1.942-3.768 4.087 0 2.63 2.046 3.46 4.356 4.147 1.56.466 1.945.81 1.945 1.396 0 .527-.466.91-1.256.91-.973 0-2.31-.444-3.444-1.517l-1.945 2.368a7.349 7.349 0 0 0 4.092 2.104v2.327h2.168v-2.307c2.411-.324 3.971-1.841 3.971-4.148Z" fill="currentColor"/></g><defs><clipPath id="a"><path fill="currentColor" d="M0 0h24v24H0z"/></clipPath></defs>
  </symbol>
</svg>
  