<svg width="24" height="24" viewBox="0 0 24 24" fill="none" xmlns="http://www.w3.org/2000/svg">
  <symbol id="item" viewBox="0 0 24 24"  fill="none">
    <path d="M12 24c6.627 0 12-5.373 12-12S18.627 0 12 0 0 5.373 0 12s5.373 12 12 12Z" fill="#274DD4"/><g clip-path="url(#a)"><mask id="b" style="mask-type:alpha" maskUnits="userSpaceOnUse" x="-1" y="-1" width="26" height="26"><path d="M12 24.25c6.765 0 12.25-5.485 12.25-12.25S18.765-.25 12-.25-.25 5.235-.25 12 5.235 24.25 12 24.25Z" fill="#274DD4" stroke="currentColor" stroke-width=".5"/></mask><g mask="url(#b)"><path d="M0 4.75h-.25v2.5h5v18h2.5v-18h17v-2.5h-17v-6h-2.5v6H0Z" fill="#E52931" stroke="currentColor" stroke-width=".5"/></g></g><path d="M9.5 17.6v-8H11v4.2l1.8-2h1.9l-2 2.1 2.1 3.7h-1.6L11.7 15l-.7.7v1.9H9.5ZM17.2 17.6h-1.5v-5.8h1.4v.8c.2-.4.5-.6.7-.8.2-.1.4-.2.7-.2.3 0 .7.1 1 .3l-.5 1.3c-.3-.2-.5-.3-.7-.3-.2 0-.4.1-.5.2-.1.1-.3.3-.4.6-.1.3-.1 1-.1 1.9v2h-.1Z" fill="#F9F7F7"/><defs><clipPath id="a"><rect width="24" height="24" rx="12" fill="currentColor"/></clipPath></defs>
  </symbol>
</svg>
  