
<svg width="1em" height="1em"    viewBox="0 0 24 24" fill="none" xmlns="http://www.w3.org/2000/svg">
<symbol id="item"
width="1em"
height="1em"
viewBox="0 0 24 24"
fill="none"
>
<path d="M21.7 14.42c-1.335 5.356-6.762 8.617-12.12 7.28C4.224 20.366.963 14.94 2.3 9.583 3.635 4.224 9.06.964 14.418 2.3c5.358 1.336 8.618 6.763 7.283 12.12Z" fill="#F7931A"/><path d="M16.41 10.575c.199-1.33-.814-2.046-2.2-2.523l.45-1.802-1.098-.274-.437 1.755c-.289-.072-.585-.14-.88-.207l.441-1.766-1.096-.274-.45 1.802a36.683 36.683 0 0 1-.7-.164v-.006l-1.513-.378-.292 1.172s.814.187.797.198c.445.111.525.405.512.638L9.432 10.8c.03.008.07.019.114.036l-.116-.028-.718 2.876c-.054.135-.192.338-.503.26.011.017-.797-.198-.797-.198l-.545 1.256 1.428.356c.266.066.526.136.782.201l-.454 1.824 1.096.273.45-1.804c.3.082.59.157.874.227l-.448 1.796 1.098.273.454-1.82c1.87.354 3.278.212 3.87-1.48.477-1.363-.024-2.15-1.008-2.662.717-.165 1.257-.636 1.4-1.61Zm-2.507 3.516c-.34 1.362-2.634.626-3.378.441l.603-2.415c.744.185 3.13.553 2.775 1.974Zm.34-3.535c-.31 1.24-2.22.61-2.84.455l.547-2.19c.62.154 2.614.442 2.292 1.735Z" fill="var(--color--bulma-100)"/><circle cx="12" cy="12" r="12" fill="#D74545"/><path d="M18.823 10.218c-.641-.606-1.528-1.532-2.25-2.188L16.53 8a.81.81 0 0 0-.237-.136C14.55 7.53 6.445 5.98 6.286 6a.295.295 0 0 0-.124.048l-.04.033a.49.49 0 0 0-.111.184L6 6.293v.18c.913 2.6 4.516 11.12 5.225 13.12.043.136.124.394.276.407h.034c.082 0 .428-.468.428-.468s6.19-7.682 6.815-8.5c.081-.101.153-.21.214-.324a.538.538 0 0 0-.169-.49Zm-5.103.688 2.373-1.822 1.252 1.252-3.625.57Zm-1.452-.198-3.736-3.17 6.292 1.215-2.556 1.955Zm.643 1.467 4.12-.644-4.36 5.115.24-4.47ZM8.264 8.87l3.154 2.759L11.225 16l-2.96-7.13Z" fill="var(--color--bulma-100)"/>
</symbol>
</svg>
  