<svg width="24" height="24" viewBox="0 0 24 24" fill="none" xmlns="http://www.w3.org/2000/svg">
  <symbol id="item" viewBox="0 0 24 24"  fill="none">
    <path d="M12 24c6.627 0 12-5.373 12-12S18.627 0 12 0 0 5.373 0 12s5.373 12 12 12Z" fill="#274DD4"/><mask id="a" style="mask-type:alpha" maskUnits="userSpaceOnUse" x="0" y="0" width="24" height="24"><path d="M12 24c6.627 0 12-5.373 12-12S18.627 0 12 0 0 5.373 0 12s5.373 12 12 12Z" fill="#274DD4"/></mask><g mask="url(#a)"><path d="m5.15 4.97 1.5-.5v-1.5l.9 1.2 1.5-.5-1 1.3.9 1.2-1.4-.4-.9 1.2v-1.5l-1.5-.5ZM.25 4.97l1.5-.5v-1.5l.9 1.2 1.5-.5-1 1.3.9 1.2-1.4-.4-.9 1.2v-1.5l-1.5-.5ZM10.05 4.97l1.5-.5v-1.5l.9 1.2 1.5-.5-.9 1.2.9 1.2-1.5-.5-.9 1.2v-1.3l-1.5-.5ZM14.95 4.97l1.5-.5v-1.5l.9 1.2 1.5-.5-.9 1.2.9 1.2-1.5-.5-.9 1.2v-1.3l-1.5-.5ZM19.85 4.97l1.5-.5v-1.5l.9 1.2 1.5-.5-.9 1.2.9 1.2-1.5-.5-.9 1.2v-1.3l-1.5-.5ZM5.15 19.026l1.5-.5v-1.5l.9 1.2 1.5-.5-1 1.3.9 1.2-1.4-.4-.9 1.2v-1.5l-1.5-.5ZM.25 19.026l1.5-.5v-1.5l.9 1.2 1.5-.5-1 1.3.9 1.2-1.4-.4-.9 1.2v-1.5l-1.5-.5ZM10.05 19.026l1.5-.5v-1.5l.9 1.2 1.5-.5-.9 1.2.9 1.2-1.5-.5-.9 1.2v-1.3l-1.5-.5ZM14.95 19.026l1.5-.5v-1.5l.9 1.2 1.5-.5-.9 1.2.9 1.2-1.5-.5-.9 1.2v-1.3l-1.5-.5ZM19.85 19.026l1.5-.5v-1.5l.9 1.2 1.5-.5-.9 1.2.9 1.2-1.5-.5-.9 1.2v-1.3l-1.5-.5Z" fill="#FF3E44"/><path d="M20.1 12.8c0-1.3-.8-1.6-2.2-2-.7-.2-.9-.3-.9-.6 0-.2.2-.4.6-.4.4.1.9.2 1.4.6l.9-1.1c-.5-.4-1.1-.7-1.8-.8V7.3h-1v1.1c-1.1.2-1.8.9-1.8 1.9 0 1.2 1 1.6 2.1 1.9.7.2.9.4.9.7 0 .2-.2.4-.6.4-.5 0-1.1-.2-1.6-.7l-.9 1.1c.6.6 1.2.9 2 1v1.1h1v-1.1c1.1-.1 1.9-.8 1.9-1.9Z" fill="currentColor"/><path d="M9.3 14.7H8L5.4 11v3.6H4V8.7h1.4L8 12.4V8.7h1.4v6h-.1ZM14.8 8.7l-2.5 4.6h2.2v1.3H10l2.5-4.6h-2.1V8.7h4.4Z" fill="#F9F7F7"/></g>
  </symbol>
</svg>
  