<svg width="24" height="24" viewBox="0 0 24 24" fill="none" xmlns="http://www.w3.org/2000/svg">
  <symbol id="item" viewBox="0 0 24 24"  fill="none">
    <circle cx="12" cy="12" r="12" fill="url(#a)"/><path d="M15.678 12.962c-.447-.255-.95-.33-1.45-.347-.418-.014-1.043-.28-1.043-1.032 0-.56.46-1.011 1.043-1.031.5-.018 1.003-.092 1.45-.347.402-.229.736-.559.968-.956a2.586 2.586 0 0 0 0-2.61 2.627 2.627 0 0 0-.968-.956 2.668 2.668 0 0 0-2.642 0c-.402.23-.736.559-.968.956a2.586 2.586 0 0 0-.354 1.305c0 .506.182.972.415 1.403.195.363.294 1.037-.376 1.42-.499.284-1.121.104-1.432-.387-.263-.416-.58-.804-1.023-1.058a2.668 2.668 0 0 0-2.643 0c-.402.23-.736.56-.968.956a2.586 2.586 0 0 0 0 2.61c.232.398.566.727.968.956a2.667 2.667 0 0 0 2.643 0c.443-.253.76-.641 1.023-1.056.215-.34.753-.775 1.432-.388.498.284.652.907.376 1.42-.233.431-.415.897-.415 1.403 0 .458.122.908.354 1.305.232.397.566.726.968.956a2.668 2.668 0 0 0 2.643 0c.401-.23.735-.56.967-.956a2.587 2.587 0 0 0 0-2.61 2.627 2.627 0 0 0-.968-.956Z" fill="currentColor"/><defs><linearGradient id="a" x1="6.768" y1="3.683" x2="23.348" y2="21.665" gradientUnits="userSpaceOnUse"><stop stop-color="#0073F4"/><stop offset="1" stop-color="#13A9FF"/></linearGradient></defs>
  </symbol>
</svg>
  