<svg width="24" height="24" viewBox="0 0 24 24" fill="none" xmlns="http://www.w3.org/2000/svg">
  <symbol id="item" viewBox="0 0 24 24"  fill="none">
    <g clip-path="url(#a)"><path d="M12 24c6.627 0 12-5.373 12-12S18.627 0 12 0 0 5.373 0 12s5.373 12 12 12Z" fill="#E52931"/><path d="M6.95 2.882s.122 0 .122-.121c-.121 0-.242-.12-.242-.12-.362-.363-.604-.605-.845-.967-.242.12-.362.242-.604.362.242.604.845.966 1.57.846Z" fill="#E52931"/><path d="M6.468 1.433c0 .483.241.845.483 1.207-.483-.724 0-1.69.845-1.932.12 0 .242-.12.362-.241-.483.362-1.086.603-1.69.966Z" fill="currentColor"/><path d="M6.83 2.64c-.241-.362-.362-.724-.483-1.207-.12 0-.241.12-.362.241.241.362.483.604.845.966Z" fill="currentColor"/><path d="m6.83 2.64.242.242C6.95 2.76 6.95 2.64 6.83 2.64ZM6.468 1.433c0-.121 0 0 0 0-.12 0-.12 0 0 0 0 .483.12.845.362 1.086l.242.242-.121-.12c-.242-.242-.483-.725-.483-1.208Z" fill="#DC2D26"/><path d="M8.158 1.674a2.667 2.667 0 0 1 1.932 0v.12c-.603-.24-1.328-.24-1.932-.12a3.675 3.675 0 0 0-.966.966c.483-.604 1.57-.604 2.053.242.362.603 1.57.845 2.174.362.483-.483 1.207-.483 1.57.12-.242-3.26-4.59-4.226-5.797-.965.242-.242.604-.483.966-.725Zm2.174-.12.241.24.363-.12-.242.362.12.363-.24-.121-.242.241v-.362l-.362-.12.362-.121v-.363Z" fill="currentColor"/><path d="M10.332 2.157v.362l.241-.241.363.12-.242-.362.242-.241-.363.12-.241-.362v.363l-.362.12.362.121ZM7.192 2.52c0 .12-.12.24-.12.24.12-.12.12-.24.12-.24ZM7.192 2.76s0-.12.12-.12c-.12 0-.12.12-.12.12Z" fill="#DC2D26"/><path d="m7.192 2.76.121-.12c.12-.362.483-.724.966-.845a2.355 2.355 0 0 1 1.811 0v-.12a2.667 2.667 0 0 0-1.932 0c-.362.24-.724.482-.966.844v.242c-.12 0-.12 0 0 0Z" fill="#DC2D26"/><path d="M9.124 5.297c0-.604-.241-1.329-.603-1.812a5.64 5.64 0 0 0-1.208-.603c.725.362.966 1.328.362 2.052-.362.483-.362 1.69.363 2.053.603.362.724 1.087.362 1.57 3.019-1.208 2.536-5.675-.845-5.796.362.12.724.362.966.724.362.483.603 1.208.603 1.812Zm.121.845-.362-.12-.242.24V5.9L8.4 5.78l.241-.121v-.362l.242.241.362-.12-.12.482.12.242Z" fill="currentColor"/><path d="m9.004 5.659-.242-.362-.12.362-.242.12.241.121v.363l.242-.242.362.12-.12-.24.12-.363-.241.12ZM7.434 2.882h-.362c.241-.121.362 0 .362 0Z" fill="#DC2D26"/><path d="M7.072 2.76c.12 0 .12 0 0 0 .12.122.12.122 0 0 .12 0 .12 0 0 0 .12 0 .12 0 0 0Z" fill="#DC2D26"/><path d="M7.192 2.882s.121 0 .121.12c.362.121.845.242 1.087.604.483.483.604 1.087.604 1.69h.12c0-.603-.241-1.328-.603-1.81-.242-.363-.604-.604-1.087-.604 0 0-.12-.121-.242 0Z" fill="#DC2D26"/><path d="M6.95 4.33a2.371 2.371 0 0 1-1.569 1.087v-.12c.604 0 1.087-.483 1.57-.966.12-.363.241-.846.12-1.329 0 .846-.965 1.45-1.81 1.087-.604-.241-1.691.121-1.812.845-.241.725-.724 1.087-1.449.846 2.053 2.415 6.158.724 5.192-2.657 0 .483-.12.845-.241 1.208ZM5.14 5.78l-.242-.121-.241.241v-.362l-.363-.12.363-.121v-.363l.241.242.362-.12-.241.361.12.363Z" fill="currentColor"/><path d="m4.898 5.176-.241-.242v.363l-.363.12.363.121V5.9l.241-.241.242.12-.121-.362.241-.241h-.362ZM7.072 2.882v.12c0 .363 0 .846-.242 1.329-.362.483-.845.966-1.449 1.086v.121a2.371 2.371 0 0 0 1.57-1.087 2.33 2.33 0 0 0 .362-1.207c-.12-.12-.12-.242-.241-.362Z" fill="#DC2D26"/><path d="M5.623 3.002c.483.121.966 0 1.328-.12-.725.12-1.328-.242-1.57-.846-.241.121-.483.363-.724.483.241.242.603.363.966.483Z" fill="currentColor"/><path d="M6.83 3.002c-.362.121-.845.121-1.207.121-.363-.12-.725-.241-.966-.483-.363.12-.604.362-.846.604.846.483 1.932.483 3.02-.242Z" fill="currentColor"/><path d="M7.07 2.76s-.12 0-.12.12l.12-.12c0 .12 0 0 0 0ZM6.83 3.002c.12 0 .242-.12.242-.12-.121 0-.242.12-.242.12Z" fill="#DC2D26"/><path d="M7.072 2.882H6.95c-.483.241-.845.241-1.328.12-.363-.12-.725-.241-.966-.483h-.121c.241.242.604.363.966.483.483.121.845.121 1.207-.12.121.12.242 0 .363 0Z" fill="#DC2D26"/><path d="M9.4 15.7H7.9v-2.4H5.7v2.4H4.2V9.9h1.5v2.3h2.2V9.9h1.5v5.8ZM16.1 15.7h-2l-2-2.5v2.5h-1.5V9.9h1.5v2.4L14 9.9h1.9l-2.3 2.8 2.5 3Z" fill="#FCFCFC"/><path d="M20.3 14c0-1.2-.8-1.5-2-1.9-.6-.2-.8-.3-.8-.5s.2-.4.5-.4c.4 0 .8.1 1.3.5l.8-1c-.4-.3-1-.6-1.6-.8V8.8h-1v1c-.9.2-1.5.9-1.5 1.9 0 1.1.9 1.5 1.9 1.8.7.2.8.4.8.6 0 .2-.2.4-.5.4-.4 0-1-.2-1.5-.7l-.8 1c.5.5 1.1.8 1.8.9v1h.9v-1c1-.1 1.7-.7 1.7-1.7Z" fill="#FCFCFC"/></g><defs><clipPath id="a"><path fill="currentColor" d="M0 0h24v24H0z"/></clipPath></defs>
  </symbol>
</svg>
  