<svg width="24" height="24" viewBox="0 0 24 24" fill="none" xmlns="http://www.w3.org/2000/svg">
  <symbol id="item" viewBox="0 0 24 24"  fill="none">
    <path d="M12 24c6.627 0 12-5.373 12-12S18.627 0 12 0 0 5.373 0 12s5.373 12 12 12Z" fill="#274DD4"/><path d="M16.246 18.2H7.3v-2.046c1.132-.361 1.699-.963 1.699-2.287v-1.324H7.3v-1.565h1.699V9.172c0-1.203.34-2.166 1.019-2.889.68-.722 1.359-1.083 2.83-1.083 1.473 0 2.718.481 3.738 2.769l-1.699 1.083c-.453-1.204-.906-1.565-1.699-1.565-.792 0-1.585.722-1.585 2.046v1.565h2.265v1.445h-2.265v.963c0 1.083-.113 1.805-.906 2.527h5.662l-.113 2.167Z" fill="#F9F7F7"/><path fill-rule="evenodd" clip-rule="evenodd" d="M17.005 19H6.5v-3.43l.557-.178c.49-.157.743-.33.887-.514.138-.176.255-.462.255-1.011v-.524H6.5v-3.165h1.699V9.172c0-1.361.388-2.536 1.236-3.437.389-.413.82-.766 1.397-1.004.568-.234 1.22-.331 2.017-.331.824 0 1.676.135 2.475.657.794.517 1.444 1.355 1.992 2.586l.281.63-3.111 1.984-.348-.923c-.213-.566-.384-.81-.506-.92-.084-.074-.185-.127-.444-.127-.24 0-.785.246-.785 1.246v.765h2.265v3.045h-2.265v.162c0 .557-.026 1.11-.192 1.64l-.03.088h5.021L17.005 19Zm-6.308-2.967c.287-.26.484-.522.62-.8.24-.491.286-1.036.286-1.728v-.962h2.265v-1.445h-2.265V9.533c0-1.324.793-2.046 1.585-2.046.6 0 1.006.207 1.364.83.115.2.225.442.335.735l1.699-1.083C15.566 5.68 14.32 5.2 12.849 5.2s-2.152.361-2.831 1.083c-.68.723-1.02 1.686-1.02 2.89v1.805H7.3v1.565h1.699v1.324c0 1.324-.567 1.926-1.699 2.287V18.2h8.946l.113-2.167h-5.662Z" fill="#F52029"/>
  </symbol>
</svg>
  