<svg width="24" height="24" viewBox="0 0 24 24" fill="none" xmlns="http://www.w3.org/2000/svg">
  <symbol id="item" viewBox="0 0 24 24"  fill="none">
    <g clip-path="url(#a)"><path d="M21.7 14.42c-1.335 5.356-6.762 8.617-12.12 7.28C4.224 20.366.963 14.94 2.3 9.583 3.635 4.224 9.06.964 14.418 2.3c5.358 1.336 8.618 6.763 7.283 12.12Z" fill="#F7931A"/><path d="M16.41 10.575c.199-1.33-.814-2.046-2.2-2.523l.45-1.802-1.098-.274-.437 1.755c-.289-.072-.585-.14-.88-.207l.441-1.766-1.096-.274-.45 1.802a36.683 36.683 0 0 1-.7-.164v-.006l-1.513-.378-.292 1.172s.814.187.797.198c.445.111.525.405.512.638L9.432 10.8c.03.008.07.019.114.036l-.116-.028-.718 2.876c-.054.135-.192.338-.503.26.011.017-.797-.198-.797-.198l-.545 1.256 1.428.356c.266.066.526.136.782.201l-.454 1.824 1.096.273.45-1.804c.3.082.59.157.874.227l-.448 1.796 1.098.273.454-1.82c1.87.354 3.278.212 3.87-1.48.477-1.363-.024-2.15-1.008-2.662.717-.165 1.257-.636 1.4-1.61Zm-2.507 3.516c-.34 1.362-2.634.626-3.378.441l.603-2.415c.744.185 3.13.553 2.775 1.974Zm.34-3.535c-.31 1.24-2.22.61-2.84.455l.547-2.19c.62.154 2.614.442 2.292 1.735Z" fill="currentColor"/><circle cx="12" cy="12" r="12" fill="#335DF4"/><path d="M16.8 18.343c-.782.428-2.11.857-3.627.857-2.16 0-4.103-.773-5.36-2.208-.759-.791-1.28-1.864-1.494-3.192H4.801v-1.306H6.13v-.344c0-.257.024-.536.046-.771H4.8v-1.33h1.59c.284-1.306.925-2.421 1.779-3.235C9.449 5.528 11.179 4.8 13.29 4.8c1.423 0 2.609.32 3.392.664l-.593 1.993c-.617-.3-1.59-.578-2.656-.578-1.187 0-2.23.386-3.012 1.178-.498.472-.854 1.178-1.044 1.993h6.214v1.33h-6.5c-.047.235-.047.492-.047.749v.365h6.546V13.8H9.306c.167.92.522 1.607 1.02 2.1.807.792 1.945 1.156 3.178 1.156 1.162 0 2.253-.364 2.798-.642l.498 1.928Z" fill="currentColor"/></g><defs><clipPath id="a"><path fill="currentColor" d="M0 0h24v24H0z"/></clipPath></defs>
  </symbol>
</svg>
  