<svg width="24" height="24" viewBox="0 0 24 24" fill="none" xmlns="http://www.w3.org/2000/svg">
  <symbol id="item" viewBox="0 0 24 24"  fill="none">
    <path d="M23.64 14.903c-1.602 6.428-8.114 10.34-14.544 8.738C2.669 22.038-1.244 15.527.359 9.098 1.962 2.67 8.473-1.244 14.902.36c6.43 1.603 10.342 8.115 8.739 14.544Z" fill="#FF9A1F"/><path d="M16.971 10.628c.23-1.47-.936-2.262-2.529-2.79l.517-1.992-1.261-.302-.504 1.94c-.331-.08-.672-.154-1.01-.229l.506-1.953L11.43 5l-.518 1.992c-.274-.06-.544-.12-.805-.182l.001-.006-1.74-.418-.335 1.296s.936.206.916.219c.511.122.604.447.588.705l-.588 2.27c.035.009.08.021.13.04l-.133-.031-.825 3.18c-.062.15-.22.373-.578.288.013.018-.917-.22-.917-.22L6 15.522l1.642.393c.305.074.604.15.9.223l-.523 2.016 1.26.302.517-1.994c.344.09.679.173 1.006.25l-.516 1.986 1.262.302.522-2.012c2.151.392 3.769.234 4.45-1.637.548-1.506-.028-2.375-1.16-2.942.825-.183 1.446-.704 1.611-1.78Zm-2.882 3.887c-.39 1.506-3.028.692-3.883.487l.693-2.67c.855.205 3.597.612 3.19 2.183Zm.39-3.909c-.356 1.37-2.551.675-3.263.504l.628-2.422c.712.17 3.006.49 2.635 1.918Z" fill="currentColor"/>
  </symbol>
</svg>
  