<svg width="24" height="24" viewBox="0 0 24 24" fill="none" xmlns="http://www.w3.org/2000/svg">
  <symbol id="item" viewBox="0 0 24 24"  fill="none">
    <path d="M21.7 14.42c-1.335 5.356-6.762 8.617-12.12 7.28C4.224 20.366.963 14.94 2.3 9.583 3.635 4.224 9.06.964 14.418 2.3c5.358 1.336 8.618 6.763 7.283 12.12Z" fill="#F7931A"/><path d="M16.41 10.575c.199-1.33-.814-2.046-2.2-2.523l.45-1.802-1.098-.274-.437 1.755c-.289-.072-.585-.14-.88-.207l.441-1.766-1.096-.274-.45 1.802a36.683 36.683 0 0 1-.7-.164v-.006l-1.513-.378-.292 1.172s.814.187.797.198c.445.111.525.405.512.638L9.432 10.8c.03.008.07.019.114.036l-.116-.028-.718 2.876c-.054.135-.192.338-.503.26.011.017-.797-.198-.797-.198l-.545 1.256 1.428.356c.266.066.526.136.782.201l-.454 1.824 1.096.273.45-1.804c.3.082.59.157.874.227l-.448 1.796 1.098.273.454-1.82c1.87.354 3.278.212 3.87-1.48.477-1.363-.024-2.15-1.008-2.662.717-.165 1.257-.636 1.4-1.61Zm-2.507 3.516c-.34 1.362-2.634.626-3.378.441l.603-2.415c.744.185 3.13.553 2.775 1.974Zm.34-3.535c-.31 1.24-2.22.61-2.84.455l.547-2.19c.62.154 2.614.442 2.292 1.735Z" fill="currentColor"/><circle cx="12" cy="12" r="12" fill="#274DD5"/><mask id="a" style="mask-type:alpha" maskUnits="userSpaceOnUse" x="0" y="0" width="24" height="24"><circle cx="12" cy="12" r="12" fill="#274DD4"/></mask><g mask="url(#a)"><path d="m9.412 2.34 3.957 6.094 7.018-1.88-4.572 5.646 3.957 6.093-6.783-2.603-4.573 5.646.38-7.256-6.782-2.603 7.018-1.88.38-7.256Z" fill="currentColor"/></g><path d="M16.263 14.2c0-2.242-1.47-2.85-3.816-3.557-1.114-.338-1.469-.624-1.469-1.029 0-.421.338-.674 1.047-.674.692 0 1.502.236 2.465.91l1.57-1.956a7.384 7.384 0 0 0-3.073-1.433v-2.04h-1.823v1.973c-1.992.27-3.14 1.618-3.14 3.406 0 2.192 1.705 2.883 3.63 3.456 1.3.388 1.62.675 1.62 1.163 0 .439-.388.76-1.046.76-.81 0-1.925-.372-2.87-1.265l-1.622 1.972a6.124 6.124 0 0 0 3.41 1.754v1.939h1.807v-1.922c2.01-.27 3.31-1.535 3.31-3.457Z" fill="#FF3E44"/>
  </symbol>
</svg>
  