<svg width="24" height="24" viewBox="0 0 24 24" fill="none" xmlns="http://www.w3.org/2000/svg">
  <symbol id="item" viewBox="0 0 24 24"  fill="none">
    <circle cx="12" cy="12" r="12" fill="url(#a)"/><path d="M16.414 13.154c-.537-.306-1.141-.395-1.74-.416-.502-.017-1.252-.335-1.252-1.238 0-.673.552-1.214 1.252-1.238.599-.02 1.204-.11 1.74-.416.482-.275.883-.67 1.161-1.147a3.103 3.103 0 0 0 0-3.133 3.152 3.152 0 0 0-1.16-1.146 3.201 3.201 0 0 0-3.172 0c-.482.275-.883.67-1.161 1.147a3.104 3.104 0 0 0-.425 1.566c0 .607.219 1.166.498 1.684.234.435.353 1.244-.452 1.703-.598.341-1.345.125-1.718-.465-.315-.498-.695-.964-1.228-1.268a3.202 3.202 0 0 0-3.171 0c-.482.275-.883.67-1.161 1.147a3.104 3.104 0 0 0 0 3.133c.278.476.679.871 1.16 1.146a3.201 3.201 0 0 0 3.172 0c.533-.303.913-.77 1.228-1.268.258-.408.904-.93 1.718-.465.598.341.782 1.088.451 1.704-.279.518-.497 1.076-.497 1.683 0 .55.147 1.09.425 1.567.278.476.679.871 1.16 1.146a3.202 3.202 0 0 0 3.172 0c.482-.275.883-.67 1.161-1.146a3.104 3.104 0 0 0 0-3.133 3.152 3.152 0 0 0-1.16-1.147Z" fill="currentColor"/><defs><linearGradient id="a" x1="6.768" y1="3.683" x2="23.348" y2="21.665" gradientUnits="userSpaceOnUse"><stop stop-color="#0073F4"/><stop offset="1" stop-color="#13A9FF"/></linearGradient></defs>
  </symbol>
</svg>
  