<svg width="24" height="24" viewBox="0 0 24 24" fill="none" xmlns="http://www.w3.org/2000/svg">
  <symbol id="item" viewBox="0 0 24 24"  fill="none">
    <path d="M12 24c6.627 0 12-5.373 12-12S18.627 0 12 0 0 5.373 0 12s5.373 12 12 12Z" fill="#0AB758"/><path d="M14.5 17.8c-.1 0-.3-.1-.4-.1-.3-.2-.5-.4-.7-.8-.1-.3-.1-.5-.1-.8v-5.6c0-.1 0-.1-.1-.1h-1.9c-.1 0-.1 0-.1.1v1.3c0 .5-.1 1-.2 1.4-.1.5-.3 1-.5 1.5-.3.6-.8 1.2-1.3 1.6-.4.3-.8.5-1.2.7-.2.1-.4.2-.6.1-.3-.1-.5-.3-.5-.6s.2-.5.4-.6c.6-.2 1-.5 1.4-.9.6-.6.9-1.4 1.1-2.2.1-.7.2-1.5.1-2.3 0-.1 0-.1-.1-.1H7.9c-.2 0-.4 0-.5-.2-.1-.1-.2-.4-.1-.6.1-.2.3-.4.5-.4H16c.3 0 .5.1.6.4.2.4-.1.9-.5.9h-1.5c-.1 0-.1 0-.1.1v5.9c0 .1 0 .1.1.1l.6-.3c.3-.2.5-.4.7-.6.3-.3.7-.2 1 .1.2.2.2.6-.1.9-.3.3-.7.6-1.1.8-.3.2-.6.3-1 .4h-.1c.1-.1 0-.1-.1-.1ZM16.2 6.7c.1.1.2.1.3.2.2.2.3.4.2.7 0 .2-.2.4-.5.4H7.9c-.2 0-.4-.1-.6-.3-.2-.3-.1-.8.3-1h8.6Z" fill="#FCFAFA"/>
  </symbol>
</svg>
  