<svg width="24" height="24" viewBox="0 0 24 24" fill="none" xmlns="http://www.w3.org/2000/svg">
  <symbol id="item" viewBox="0 0 24 24"  fill="none">
    <g clip-path="url(#a)"><path d="M23.64 14.903c-1.602 6.428-8.114 10.34-14.544 8.738C2.669 22.038-1.244 15.527.359 9.098 1.962 2.67 8.473-1.244 14.902.36c6.43 1.603 10.342 8.115 8.739 14.544Z" fill="#1E2329"/><path d="M9.087 10.803 12 7.89l2.915 2.914L16.61 9.11 12 4.5 7.392 9.108l1.695 1.695ZM4.5 12l1.695-1.695L7.89 12l-1.695 1.695L4.5 12Zm4.587 1.197L12 16.11l2.914-2.914 1.696 1.694L12 19.5l-4.61-4.61 1.697-1.693Zm7.023-1.196 1.695-1.695L19.5 12l-1.695 1.695L16.11 12Z" fill="#F0B90B"/><path d="M13.72 12 12 10.28l-1.271 1.27-.146.146-.301.301-.003.003.003.002L12 13.721 13.72 12V12" fill="#F0B90B"/></g><defs><clipPath id="a"><path fill="currentColor" d="M0 0h24v24H0z"/></clipPath></defs>
  </symbol>
</svg>
  