<svg width="24" height="24" viewBox="0 0 24 24" fill="none" xmlns="http://www.w3.org/2000/svg">
  <symbol id="item" viewBox="0 0 24 24"  fill="none">
    <path d="M21.7 14.42c-1.335 5.356-6.762 8.617-12.12 7.28C4.224 20.366.963 14.94 2.3 9.583 3.635 4.224 9.06.964 14.418 2.3c5.358 1.336 8.618 6.763 7.283 12.12Z" fill="#F7931A"/><path d="M16.41 10.575c.199-1.33-.814-2.046-2.2-2.523l.45-1.802-1.098-.274-.437 1.755c-.289-.072-.585-.14-.88-.207l.441-1.766-1.096-.274-.45 1.802a36.683 36.683 0 0 1-.7-.164v-.006l-1.513-.378-.292 1.172s.814.187.797.198c.445.111.525.405.512.638L9.432 10.8c.03.008.07.019.114.036l-.116-.028-.718 2.876c-.054.135-.192.338-.503.26.011.017-.797-.198-.797-.198l-.545 1.256 1.428.356c.266.066.526.136.782.201l-.454 1.824 1.096.273.45-1.804c.3.082.59.157.874.227l-.448 1.796 1.098.273.454-1.82c1.87.354 3.278.212 3.87-1.48.477-1.363-.024-2.15-1.008-2.662.717-.165 1.257-.636 1.4-1.61Zm-2.507 3.516c-.34 1.362-2.634.626-3.378.441l.603-2.415c.744.185 3.13.553 2.775 1.974Zm.34-3.535c-.31 1.24-2.22.61-2.84.455l.547-2.19c.62.154 2.614.442 2.292 1.735Z" fill="currentColor"/><circle cx="12" cy="12" r="12" fill="url(#a)"/><path d="M12.9 19.058h-1.55V17.41H8.314V6.894h3.036V4.942h1.55v1.966c.838.02 1.54.13 2.105.333a2.07 2.07 0 0 1 1.07.848c.115.194.204.387.264.58.065.189.097.39.097.601 0 .891-.41 1.617-1.23 2.178l-.313.184c-.097.062-.213.13-.347.205.375.114.718.262 1.028.446.31.184.582.403.813.658.352.386.528.886.528 1.499 0 .533-.164 1.03-.493 1.492-.315.443-.753.795-1.313 1.054-.57.264-1.306.405-2.21.424v1.648Zm0-8.02c.736-.099 1.162-.268 1.278-.509.116-.245.157-.533.125-.863-.033-.33-.134-.584-.306-.763-.167-.184-.533-.31-1.098-.375v2.51ZM11.35 8.5h-1.021v2.652h1.021V8.5Zm1.55 7.298c.861-.1 1.377-.392 1.549-.877.171-.486.162-.945-.028-1.38-.185-.438-.692-.669-1.522-.692v2.949Zm-2.571-3.048v3.055h1.021V12.75h-1.021Z" fill="currentColor"/><defs><linearGradient id="a" x1="5.146" y1="1.829" x2="17.527" y2="22.95" gradientUnits="userSpaceOnUse"><stop stop-color="#FF3D44"/><stop offset=".516" stop-color="#FF3D44"/><stop offset=".516" stop-color="#3356D2"/></linearGradient></defs>
  </symbol>
</svg>
  