<svg width="24" height="24" viewBox="0 0 24 24" fill="none" xmlns="http://www.w3.org/2000/svg">
  <symbol id="item" viewBox="0 0 24 24"  fill="none">
    <path d="M12 24c6.627 0 12-5.373 12-12S18.627 0 12 0 0 5.373 0 12s5.373 12 12 12Z" fill="#274DD4"/><path d="M9.013 6.1V11h-.9v2h.9v4.9h2.7V13h2.1c1.6 0 3.3-1.2 3.3-3.4s-1.5-3.5-3.4-3.5h-4.7Zm2.6 2h1.8c1 .1 1.5.6 1.5 1.4 0 .9-.6 1.4-1.5 1.4h-1.8V8.1Z" fill="#FCFAFA"/><path d="M8.113 14.2h6.7v1.7h-6.7v-1.7Z" fill="#E52931"/>
  </symbol>
</svg>
  