<svg width="24" height="24" viewBox="0 0 24 24" fill="none" xmlns="http://www.w3.org/2000/svg">
  <symbol id="item" viewBox="0 0 24 24"  fill="none">
    <path d="M12 24c6.627 0 12-5.373 12-12S18.627 0 12 0 0 5.373 0 12s5.373 12 12 12Z" fill="#274DD4"/><path d="M18.9 13.7c0-1.6-1-2-2.7-2.5-.8-.2-1-.4-1-.7 0-.4.3-.5.8-.5s1.1.2 1.7.6l1.1-1.4c-.6-.5-1.4-.9-2.2-1V6.7h-1.3v1.4c-1.4.2-2.2 1.2-2.2 2.4 0 1.6 1.2 2.1 2.6 2.5.9.3 1.1.5 1.1.8 0 .3-.3.5-.7.5-.6 0-1.4-.3-2-.9L13 14.9c.7.7 1.5 1.1 2.4 1.3v1.4h1.3v-1.4c1.3-.2 2.2-1.1 2.2-2.5ZM13 16.2h-2.3l-.8-1.9H7.5l-.7 1.9H4.7l3.2-8.6h1.8l3.3 8.6Zm-3.3-3.4-1-2.9-.9 2.9h1.9Z" fill="currentColor"/>
  </symbol>
</svg>
  