<svg width="24" height="24" viewBox="0 0 24 24" fill="none" xmlns="http://www.w3.org/2000/svg">
  <symbol id="item" viewBox="0 0 24 24"  fill="none">
    <path d="M12 24c6.627 0 12-5.373 12-12S18.627 0 12 0 0 5.373 0 12s5.373 12 12 12Z" fill="#E52931"/><path d="M8.8 17.6V9.3h1.6v4.4l1.9-2.1h2l-2.1 2.2 2.2 3.8h-1.7l-1.5-2.7-.7.8v1.9H8.8ZM16.9 17.6h-1.6v-6h1.5v.9c.3-.4.5-.7.7-.8.2-.1.4-.2.7-.2.4 0 .7.1 1.1.3l-.5 1.4c-.3-.2-.5-.3-.8-.3-.2 0-.4.1-.6.2-.2.1-.3.3-.4.7-.1.3-.1 1-.1 2v1.8Z" fill="#F9F7F7"/><mask id="a" style="mask-type:alpha" maskUnits="userSpaceOnUse" x="0" y="0" width="24" height="24"><path d="M12 24c6.627 0 12-5.373 12-12S18.627 0 12 0 0 5.373 0 12s5.373 12 12 12Z" fill="#274DD4"/></mask><g mask="url(#a)" fill="currentColor"><path d="M0 5h24v2H0V5Z"/><path d="M7-1v26H5V-1h2Z"/></g>
  </symbol>
</svg>
  