
<svg width="1em" height="1em"  id="Layer_1" data-name="Layer 1"   xmlns="http://www.w3.org/2000/svg" viewBox="0 0 60.53 80.29">
<symbol id="item"
width="1em"
height="1em"
viewBox="0 0 60.53 80.29"
fill="none"
>
<defs><style>.cls-5{fill:#606161}.cls-7{fill:var(--color--bulma-100)}</style></defs><path d="M161.47 18.71s-13 8.13-27 10.24c0 0 5.27 32.38 7.38 35.53s16.48 18.08 19.65 18.08 17.5-14.91 19.62-18.08S188.5 29 188.5 29c-14-2.11-27-10.24-27-10.24" transform="translate(-130.84 -2.26)" style="fill:#f5eb28"/><path d="M161.47 18.71s-13 8.13-27 10.24c0 0 5.27 32.38 7.38 35.53s16.48 18.08 19.65 18.08" transform="translate(-130.84 -2.26)" style="fill:#d9d226"/><path d="M161.47 76.17a120.81 120.81 0 0 1-14.75-14.64c-1.09-2.73-3.61-15.64-5.74-28.08a90.56 90.56 0 0 0 20.49-8.15A90.45 90.45 0 0 0 182 33.45c-2.12 12.44-4.65 25.35-5.74 28.08a120.65 120.65 0 0 1-14.74 14.64" transform="translate(-130.84 -2.26)" style="fill:#005e4c"/><path class="cls-5" d="m30.63 0 1.31 3.31 3.56.23-2.74 2.28.88 3.45-3.01-1.91-3.02 1.91.89-3.45-2.75-2.28 3.56-.23L30.63 0zM56.94 10.87l.97 2.45 2.62.17-2.02 1.67.65 2.55-2.22-1.41-2.22 1.41.65-2.55-2.03-1.67 2.63-.17.97-2.45zM3.6 10.87l.97 2.45 2.62.17-2.02 1.67.65 2.55L3.6 16.3l-2.22 1.41.65-2.55L0 13.49l2.63-.17.97-2.45z"/><path d="M161.47 76.17a120.81 120.81 0 0 1-14.75-14.64c-1.09-2.73-3.61-15.64-5.74-28.08a90.56 90.56 0 0 0 20.49-8.15" transform="translate(-130.84 -2.26)" style="fill:#005847"/><path class="cls-7" d="M156 58.82h-5.91V42.2h-2.36V37H156ZM175.85 48a13.52 13.52 0 0 1-2 7.87 6.36 6.36 0 0 1-5.48 2.91 6.8 6.8 0 0 1-5.83-2.93c-1.4-2-2.1-4.68-2.1-8.18a13.1 13.1 0 0 1 2.1-7.85 6.69 6.69 0 0 1 5.69-2.9 6.47 6.47 0 0 1 5.64 2.94q1.99 2.98 1.98 8.14ZM170 48q0-5.8-1.91-5.8t-1.9 5.19q0 6.2 1.85 6.2c.67 0 1.17-.46 1.48-1.36A13.63 13.63 0 0 0 170 48Z" transform="translate(-130.84 -2.26)"/>
</symbol>
</svg>
  