
<svg width="1em" height="1em"    viewBox="0 0 19 27" fill="none" xmlns="http://www.w3.org/2000/svg">
<symbol id="item"
width="1em"
height="1em"
viewBox="0 0 19 27"
fill="none"
>
<path d="M18.146 15.417a9.162 9.162 0 0 0-4.75-8.032 4.48 4.48 0 0 0 .5-2.073 4.376 4.376 0 0 0-1.74-3.51C11.125 1 10.094.5 8.156.625 6.198.75 5.083 1.948 5.083 1.948c-.052.052-.104.104-.146.156a3.057 3.057 0 0 0 .73 4.604c.197.115.447.021.53-.187l.272-.74.03-.094v-.01a1.695 1.695 0 0 1-.135-.062 2.322 2.322 0 0 1-.802-3.094c.094-.167.917-1.406 3.188-1.209.344.042.719.125 1.104.282.177.062.344.146.51.24.01 0 .01.01.021.01a3.363 3.363 0 0 1 1.698 2.927c0 1.01-.344 2.02-1.041 2.635l-.01.01c-.105.094-.21.188-.334.282-.406.24-.896.396-1.375.48V4.342a.434.434 0 0 0-.313-.416l-1.135-.344V8.26h-.99c-.25 0-.479.157-.573.396l-.291.792 1.718.02a9.876 9.876 0 0 1 3.042.626c.292.104.573.229.844.375a6.477 6.477 0 0 1 3.031 3.427 6.495 6.495 0 0 1 .333 3.323 6.97 6.97 0 0 1-.593 2.02 7.034 7.034 0 0 1-6.375 4.053c-1.5 0-2.896-.47-4.042-1.271a6.381 6.381 0 0 1-.52-.406A5.907 5.907 0 0 1 2.822 21c-.75-.854-1.23-1.948-1.23-3.135 0-2.625 2.126-4.584 4.75-4.584.626 0 1.22.115 1.761.334.51.218.948.53 1.292.916.364.469.593 1.063.593 1.709 0 .625-.208 1.208-.562 1.666-.458.532-1.115.604-1.417.615a3.294 3.294 0 0 1-.979-.177.4.4 0 0 0-.5.24l-.177.479a3.48 3.48 0 0 0 1.313.375h.03c.042 0 .084 0 .136.01h.271c.063 0 .125-.01.188-.01 2.062-.198 3.729-2.115 3.729-4.303a4.342 4.342 0 0 0-2.75-4.041 1.393 1.393 0 0 0-.188-.073 6.396 6.396 0 0 0-2.291-.417c-1.98 0-3.75.886-4.938 2.281A6.432 6.432 0 0 0 .302 17.23v.042c0 .052 0 .104.01.156v.01l.032.375c.396 3.844 3.635 6.834 7.53 6.855v1.625l1.178-.302a.366.366 0 0 0 .27-.344v-.896c4.897-.167 8.824-4.188 8.824-9.125v-.208Z" fill="url(#a)"/><defs><linearGradient id="a" x1="1.414" y1="2.461" x2="15.551" y2="25.152" gradientUnits="userSpaceOnUse"><stop stop-color="#CDAE81"/><stop offset="1" stop-color="#B29265"/></linearGradient></defs>
</symbol>
</svg>
  