
<svg width="1em" height="auto"    viewBox="0 0 172 32" fill="none" xmlns="http://www.w3.org/2000/svg">
<symbol id="item"
width="1em"
height="auto"
viewBox="0 0 172 32"
fill="none"
>
<path d="m11.153 19.78-.71 2.135H4c.128-.185.185-.897.185-2.136v-5.694c0-1.097-.071-1.851-.142-2.022L4 11.949h1.863c-.17.185-.256.897-.256 2.136v6.904c0 .4.1.428.569.428 1.08 0 2.218-.27 2.944-.57.725-.327 1.337-.669 1.607-.897l.213-.17h.213ZM24 14.795v4.271c0 1.524.213 2.52.37 2.706l.128.142H22.15c.015-.014.057-.029.171-.27.057-.129.1-.271.142-.456.1-.385.185-1.168.185-2.122v-4.27c0-.954-.071-1.752-.17-2.108-.1-.384-.214-.64-.27-.697l-.058-.043h2.347c-.014.014-.057.029-.17.27a2.588 2.588 0 0 0-.157.47c-.071.356-.17 1.154-.17 2.107Zm10.327-2.847h1.65l3.91 8.144 2.191-4.3c.555-1.096.81-2.093.768-2.62-.043-.555-.17-.953-.299-1.11l-.114-.114h2.333l-5.148 9.966h-.285l-5.006-9.966Zm25.193 7.83-.71 2.136h-6.443c.128-.185.185-.897.185-2.136v-5.694c0-1.097-.071-1.851-.143-2.022l-.042-.114h1.465c1.934 0 3.527-.114 4.038-.213l.37-.072.427 1.994h-.213c-.057-.057-.128-.129-.598-.4a6.28 6.28 0 0 0-.768-.34c-.554-.214-1.536-.4-2.545-.4-.441 0-.57-.014-.57.428v3.559l3.272-.498v1.423l-3.271-.498v4.058c0 .398.1.427.569.427 1.137 0 2.304-.27 3-.57.726-.327 1.309-.669 1.579-.897l.185-.17h.213ZM71.083 20.805c1.01.925 2.361 1.395 4.054 1.395 1.55 0 2.83-.47 3.868-1.395l-.413-.4c-.924.812-2.076 1.225-3.455 1.225-1.152 0-2.105-.413-2.859-1.253-.754-.84-1.124-1.979-1.124-3.445 0-1.495.356-2.662 1.067-3.474.711-.811 1.593-1.224 2.631-1.224.797 0 1.522.341 1.906.697.185.171.355.37.498.598.298.456.327.584.37.698h.142l.881-1.708-.412-.214c-.27-.142-.697-.285-1.294-.427a8.07 8.07 0 0 0-1.877-.214c-1.608 0-2.916.499-3.94 1.495-1.024.983-1.536 2.25-1.536 3.773 0 1.652.498 2.947 1.493 3.873ZM109.95 12.376l-.285-.17c-.398-.243-1.379-.542-2.346-.542-.825 0-1.508.228-2.048.67-.526.44-.796 1.024-.796 1.75-.015 1.766 1.564 2.549 2.759 3.318.839.527 1.507 1.352 1.507 2.449 0 1.067-.711 1.78-1.735 1.78-1.209 0-1.891-.855-1.891-1.994 0-.712.17-1.253.497-1.637l-.071-.1-1.706.74-.029.086c-.057.128-.114.484-.114.84 0 .769.285 1.395.868 1.893.583.499 1.351.74 2.318.74.924 0 1.678-.27 2.29-.797.611-.54.924-1.253.924-2.135.014-1.936-1.564-2.904-2.759-3.616-.839-.527-1.507-1.196-1.507-1.993 0-.869.654-1.424 1.408-1.424.853.043 1.265.612 1.422 1.21.156.413.156.541.156.64h.142l.996-1.708ZM123.475 19.067v-4.27c0-.954.099-1.752.17-2.108a2.6 2.6 0 0 1 .157-.47c.114-.241.156-.256.17-.27h-2.346l.057.043c.057.057.17.313.27.697.1.356.171 1.154.171 2.107v4.271c0 .954-.086 1.738-.185 2.122a2.574 2.574 0 0 1-.142.455c-.114.243-.157.257-.171.27h2.346l-.128-.141c-.156-.186-.369-1.182-.369-2.706ZM143.649 21.915l.498-9.966h-1.636l.64 8.001-8.319-8h-.569l-.142 9.965h1.564l-.924-8.001 8.319 8h.569Z" fill="currentColor"/><path fill-rule="evenodd" clip-rule="evenodd" d="M95.898 21.915h-1.65l-1.294-2.848h-4.792c-.74 1.823-.356 2.549-.157 2.777l.072.07h-2.12l4.864-9.965h.285l4.792 9.966Zm-5.347-8.144 1.948 4.3h-3.896l1.948-4.3Z" fill="currentColor"/><path d="M156.932 23.101a6.166 6.166 0 0 0 6.162-6.169 6.166 6.166 0 0 0-6.162-6.17 6.166 6.166 0 0 0-6.163 6.17 6.166 6.166 0 0 0 6.163 6.17Z" fill="currentColor"/><path d="M164.991 10.763a2.845 2.845 0 0 0 2.844-2.848 2.845 2.845 0 1 0-5.689 0 2.846 2.846 0 0 0 2.845 2.848Z" fill="#de0d3e"/>
</symbol>
</svg>
  