
<svg width="1em" height="auto"  fill="none"  viewBox="0 0 113 32"  xmlns="http://www.w3.org/2000/svg">
<symbol id="item"
width="1em"
height="auto"
viewBox="0 0 113 32"
fill="none"
>
<path clip-rule="evenodd" d="M12.134 0c5.384.02 9.733 4.397 9.72 9.78-.013 5.384-4.385 9.739-9.768 9.732-5.384-.007-9.744-4.373-9.744-9.756C2.352 4.358 6.736-.01 12.134 0z" fill="#09b2de" fill-rule="evenodd"/><path clip-rule="evenodd" d="M17.56 31.22c5.389 0 9.757-4.368 9.757-9.757s-4.368-9.756-9.756-9.756-9.756 4.368-9.756 9.756 4.368 9.756 9.756 9.756z" fill="#1965af" fill-rule="evenodd"/><path clip-rule="evenodd" d="M7.805 32c4.31 0 7.805-3.32 7.805-7.415 0-4.095-3.495-7.414-7.805-7.414S0 20.49 0 24.585C0 28.68 3.494 32 7.805 32z" fill="#2b4bce" fill-rule="evenodd"/><path clip-rule="evenodd" d="M26.554 14.83a5.463 5.463 0 1 1-5.482 5.463 5.473 5.473 0 0 1 5.482-5.464z" fill="#052b73" fill-rule="evenodd" opacity=".9"/><g fill="#020309"><path d="M42.113 26.362h3.233v-6.878c0-1.94 1.18-3.047 2.713-3.047 1.722 0 2.595 1.108 2.595 2.885v7.04h3.35v-7.525c0-3.254-1.934-5.193-4.954-5.193-1.557 0-2.855.67-3.704 1.777V8.174h-3.233zM61.283 26.616c1.558 0 2.855-.693 3.681-1.824v1.57l3.256-.023V13.875l-3.303.023v6.855c0 1.939-1.133 3.024-2.666 3.024-1.746 0-2.595-1.085-2.595-2.84v-7.04h-3.327v7.48c0 3.277 1.816 5.239 4.954 5.239zM78.042 26.616c3.138 0 6.11-2.516 6.11-6.486s-2.925-6.486-6.134-6.486c-1.722 0-3.137.762-3.987 1.962V8.15H70.8v18.21h3.209v-1.73c.849 1.246 2.335 1.985 4.034 1.985zm-.66-3c-2.006 0-3.54-1.57-3.54-3.51 0-1.938 1.534-3.508 3.54-3.508 1.958 0 3.515 1.547 3.515 3.509s-1.557 3.508-3.516 3.508zM92.322 26.593c3.94 0 6.3-2.055 6.3-5.286 0-1.685-.803-3.024-2.124-3.9.967-.809 1.557-1.94 1.557-3.302 0-2.93-2.335-4.824-5.686-4.824-3.42 0-5.733 1.893-5.733 4.824 0 1.362.637 2.47 1.58 3.278-1.368.9-2.217 2.262-2.217 3.924 0 3.231 2.312 5.286 6.323 5.286zm0-2.862c-2.052 0-3.114-1.085-3.114-2.424s1.109-2.424 3.161-2.424c2.03 0 3.091 1.085 3.091 2.424s-1.085 2.424-3.138 2.424zm.024-7.502c-1.888 0-2.666-.9-2.666-2.1 0-1.178.92-2.124 2.713-2.124 1.77 0 2.642.946 2.642 2.124 0 1.223-.873 2.1-2.69 2.1zM106.699 26.593c3.941 0 6.3-2.055 6.3-5.286 0-1.685-.802-3.024-2.123-3.9.967-.809 1.557-1.94 1.557-3.302 0-2.93-2.336-4.824-5.686-4.824-3.421 0-5.734 1.893-5.734 4.824 0 1.362.637 2.47 1.581 3.278-1.368.9-2.218 2.262-2.218 3.924 0 3.231 2.313 5.286 6.323 5.286zm0-2.862c-2.052 0-3.114-1.085-3.114-2.424s1.109-2.424 3.162-2.424c2.029 0 3.09 1.085 3.09 2.424s-1.085 2.424-3.138 2.424zm.024-7.502c-1.887 0-2.666-.9-2.666-2.1 0-1.178.92-2.124 2.713-2.124 1.77 0 2.643.946 2.643 2.124 0 1.223-.873 2.1-2.69 2.1z"/></g>
</symbol>
</svg>
  