
<svg width="1em" height="auto"    viewBox="0 0 1909 449" fill="none" xmlns="http://www.w3.org/2000/svg">
<symbol id="item"
width="1em"
height="auto"
viewBox="0 0 1909 449"
fill="none"
>
<g clip-path="url(#a)"><path d="M561.25 361.422h108.822c59.086 0 87.506-31.264 87.506-73.828 0-35.408-19.445-59.516-53.476-67.802v-.754c28.795-11.3 40.014-35.784 40.014-59.892 0-42.564-30.665-65.165-87.133-65.165H561.25v267.441Zm51.98-158.204v-62.529h37.396c28.795 0 40.388 12.431 40.388 31.264 0 21.848-15.333 31.265-38.144 31.265h-39.64Zm0 111.496v-68.555h44.127c30.291 0 45.623 13.56 45.623 34.654 0 22.601-15.332 33.901-40.387 33.901H613.23ZM951.888 267.63c0-53.865-35.9-93.04-87.506-93.04-54.224 0-92.742 38.421-92.742 94.546 0 57.632 39.639 95.676 95.733 95.676 40.762 0 64.321-15.067 79.654-35.031l-31.787-29.757c-9.723 12.054-23.933 20.717-44.501 20.717-24.681 0-42.257-13.184-48.241-35.408h128.268c.374-3.013 1.122-11.677 1.122-17.703Zm-87.88-50.099c21.315 0 34.404 12.808 39.265 32.395h-80.401c5.61-21.094 21.316-32.395 41.136-32.395ZM1031.41 364.812c24.68 0 36.64-5.273 48.24-11.677l-12.34-39.551c-8.23 4.144-17.21 6.404-23.19 6.404-11.59 0-15.7-7.534-15.7-23.731v-77.972h49.36v-41.058h-49.36v-65.165l-48.993 5.273v59.892h-21.69v41.058h21.69v85.129c0 41.435 20.567 61.398 51.983 61.398ZM1166.29 364.812c23.93 0 42.25-9.04 54.97-25.614l.75.377v21.847h46.74V177.227h-48.99v21.094l-.75.377c-13.08-15.821-32.53-24.108-53.85-24.108-48.98 0-86.01 39.551-86.01 95.3 0 56.878 37.03 94.922 87.14 94.922Zm9.35-44.447c-27.68 0-46.75-20.718-46.75-50.099 0-31.641 20.19-51.605 46.75-51.605 26.17 0 46.37 21.848 46.37 51.605 0 30.135-21.32 50.099-46.37 50.099ZM1377.39 364.812c24.68 0 43.76-9.416 56.47-25.99h.37v22.6h46.75V84.187h-48.62v114.511h-.74c-13.47-15.821-32.91-24.108-55.35-24.108-48.99 0-86.38 39.551-86.38 95.3 0 56.878 37.02 94.922 87.5 94.922Zm8.98-44.447c-27.3 0-46.75-20.718-46.75-50.099 0-31.641 20.57-51.605 46.75-51.605 28.04 0 47.86 21.848 47.86 51.605 0 30.135-20.94 50.099-47.86 50.099ZM1591.78 364.812c24.68 0 43.75-9.416 56.46-25.99h.38v22.6h46.74V84.187h-48.61v114.511h-.75c-13.46-15.821-32.91-24.108-55.35-24.108-48.99 0-86.38 39.551-86.38 95.3 0 56.878 37.02 94.922 87.51 94.922Zm8.97-44.447c-27.3 0-46.74-20.718-46.74-50.099 0-31.641 20.56-51.605 46.74-51.605 28.05 0 47.87 21.848 47.87 51.605 0 30.135-20.94 50.099-47.87 50.099ZM1805.79 364.812c23.93 0 42.25-9.04 54.97-25.614l.75.377v21.847h46.74V177.227h-48.99v21.094l-.75.377c-13.09-15.821-32.53-24.108-53.85-24.108-48.99 0-86.01 39.551-86.01 95.3 0 56.878 37.02 94.922 87.14 94.922Zm9.34-44.447c-27.67 0-46.74-20.718-46.74-50.099 0-31.641 20.19-51.605 46.74-51.605 26.18 0 46.38 21.848 46.38 51.605 0 30.135-21.32 50.099-46.38 50.099Z" fill="currentColor"/><circle cx="203.453" cy="231.516" r="189.422" fill="#F93"/><circle cx="105.234" cy="133.297" r="105.234" fill="#1CA30F"/></g><defs><clipPath id="a"><path fill="currentColor" transform="translate(0 28.063)" d="M0 0h1908.25v392.875H0z"/></clipPath></defs>
</symbol>
</svg>
  