
<svg width="1em" height="auto"    viewBox="0 0 56 17" fill="none" xmlns="http://www.w3.org/2000/svg">
<symbol id="item"
width="1em"
height="auto"
viewBox="0 0 56 17"
fill="none"
>
<path d="M0 9.494C0 13.64 3.38 17 7.55 17s7.55-3.36 7.55-7.506c0-4.145-3.38-7.506-7.55-7.506S0 5.348 0 9.494ZM14 2.038c0 1.125.918 2.038 2.05 2.038 1.132 0 2.05-.913 2.05-2.038A2.044 2.044 0 0 0 16.05 0C14.918 0 14 .912 14 2.038ZM18.59 13.23h1.234l.744-3.838c.103-.543.216-1.404.216-1.404h.019s.01.795.047 1.291l.32 3.95h1.281l1.855-3.959c.263-.561.555-1.282.555-1.282h.02s-.217.824-.33 1.404l-.744 3.838h1.253l1.298-6.693h-1.94L22.8 10.009c-.386.833-.687 1.732-.687 1.732h-.01s-.009-.964-.084-1.9l-.254-3.304H19.89l-1.3 6.692Zm9.651.14c1.648 0 2.684-1.348 2.684-2.883 0-1.423-.998-2.19-2.232-2.19-1.647 0-2.72 1.32-2.72 2.836 0 1.469 1.007 2.237 2.268 2.237Zm-1.007-2.162c0-.927.423-1.966 1.393-1.966.744 0 1.036.58 1.036 1.207 0 .918-.414 1.976-1.393 1.976-.744 0-1.036-.562-1.036-1.217Zm6.007 2.162c1.647 0 2.683-1.348 2.683-2.883 0-1.423-.998-2.19-2.231-2.19-1.648 0-2.722 1.32-2.722 2.836 0 1.469 1.008 2.237 2.27 2.237Zm-1.008-2.162c0-.927.424-1.966 1.394-1.966.743 0 1.035.58 1.035 1.207 0 .918-.414 1.976-1.393 1.976-.744 0-1.036-.562-1.036-1.217Zm5.678-2.78h-1.234l-.932 4.801h1.262l.508-2.62c.132-.703.556-1.246 1.149-1.246.536 0 .781.347.659.983l-.565 2.883h1.262l.583-3.032c.217-1.123-.339-1.9-1.299-1.9-.687 0-1.092.299-1.506.889h-.029l.142-.759Zm2.702 4.801h1.393l.47-2.424h1.639c1.506 0 2.532-.861 2.532-2.293 0-1.255-.857-1.975-2.146-1.975h-2.589l-1.3 6.692Zm2.466-5.523h1.243c.612 0 .932.328.932.87 0 .797-.574 1.134-1.205 1.134h-1.355l.385-2.004Zm5.989 5.523h1.195v-.046c-.075-.113-.103-.337-.037-.665l.451-2.303c.264-1.394-.64-1.91-1.836-1.91-1.242 0-2.006.6-2.165 1.583h1.13c.113-.477.461-.683.989-.683.48 0 .753.187.753.533 0 .477-.349.515-1.253.59-1.177.094-2.193.328-2.193 1.6 0 .993.79 1.414 1.534 1.414.697 0 1.055-.328 1.347-.637h.019c-.019.178.004.357.066.524Zm-1.752-1.413c0-.655.669-.627 1.13-.712.317-.041.627-.123.923-.243l-.15.758c-.095.44-.519.852-1.178.852-.423 0-.725-.224-.725-.655Zm2.957 2.986h.79c.932 0 1.347-.374 1.827-1.338l2.496-5.036h-1.281l-.998 2.18c-.208.45-.443 1.086-.443 1.086h-.019s-.075-.646-.142-1.085l-.329-2.181h-1.318l.696 3.416c.087.353.14.714.16 1.077 0 .599-.301.889-.838.889h-.405l-.196.992Z" fill="currentColor"/>
</symbol>
</svg>
  